<svg width="53" height="47" viewBox="0 0 53 47" fill="none" xmlns="http://www.w3.org/2000/svg">
<g filter="url(#filter0_f_19_2208)">
<g filter="url(#filter1_df_19_2208)">
<path d="M26.7624 41.8372C37.9598 41.8372 47.0371 33.7319 47.0371 23.7335C47.0371 13.7351 37.9598 5.62976 26.7624 5.62976C15.5651 5.62976 6.48779 13.7351 6.48779 23.7335C6.48779 33.7319 15.5651 41.8372 26.7624 41.8372Z" fill="#FA9E42"/>
</g>
<path fill-rule="evenodd" clip-rule="evenodd" d="M26.7211 0.661161L26.7622 0.661133L26.8033 0.661161C27.0243 0.66147 27.2033 0.840942 27.203 1.06203C27.2027 1.28311 27.0232 1.46208 26.8021 1.46177L26.7622 1.46174L26.7222 1.46177C26.5012 1.46208 26.3217 1.28311 26.3214 1.06203C26.3211 0.840942 26.5 0.66147 26.7211 0.661161ZM31.6958 1.48624C31.7372 1.26907 31.9468 1.12658 32.164 1.16797L32.2444 1.18344C32.4615 1.22546 32.6034 1.43549 32.5614 1.65254C32.5193 1.86959 32.3093 2.01148 32.0922 1.96945L32.0141 1.95442C31.7969 1.91303 31.6544 1.70341 31.6958 1.48624ZM21.8286 1.48624C21.87 1.70341 21.7275 1.91303 21.5103 1.95442L21.4321 1.96945C21.2151 2.01148 21.005 1.86959 20.963 1.65254C20.921 1.43549 21.0629 1.22546 21.2799 1.18344L21.3604 1.16798C21.5776 1.12658 21.7872 1.26907 21.8286 1.48624ZM36.8879 2.93282C36.971 2.72797 37.2045 2.62932 37.4093 2.71247L37.485 2.74332C37.6896 2.82709 37.7875 3.06085 37.7038 3.26545C37.62 3.47005 37.3862 3.568 37.1816 3.48423L37.1082 3.45429C36.9034 3.37114 36.8047 3.13767 36.8879 2.93282ZM16.6365 2.93282C16.7197 3.13767 16.621 3.37114 16.4162 3.4543L16.3427 3.48424C16.1381 3.56801 15.9044 3.47005 15.8206 3.26546C15.7368 3.06086 15.8348 2.82709 16.0394 2.74332L16.115 2.71247C16.3199 2.62932 16.5534 2.72797 16.6365 2.93282ZM41.6853 5.38494C41.8087 5.20145 42.0574 5.15269 42.2409 5.27601L42.3089 5.32188C42.492 5.44579 42.54 5.69467 42.4161 5.87777C42.2921 6.06086 42.0433 6.10884 41.8602 5.98493L41.7943 5.94048C41.6108 5.81715 41.562 5.56843 41.6853 5.38494ZM11.839 5.38494C11.9624 5.56843 11.9136 5.81715 11.7301 5.94048L11.6642 5.98493C11.4811 6.10884 11.2322 6.06086 11.1083 5.87777C10.9844 5.69467 11.0324 5.4458 11.2155 5.32189L11.2835 5.27602C11.467 5.15269 11.7157 5.20146 11.839 5.38494ZM45.8616 8.78927C46.0219 8.63704 46.2753 8.6436 46.4275 8.80392L46.4837 8.86335C46.6354 9.02419 46.628 9.27754 46.4672 9.42923C46.3063 9.58091 46.053 9.57349 45.9013 9.41266L45.8469 9.3552C45.6947 9.19488 45.7012 8.94151 45.8616 8.78927ZM7.66281 8.78928C7.82313 8.94151 7.82969 9.19488 7.67746 9.35521L7.62309 9.41266C7.4714 9.5735 7.21805 9.58092 7.05721 9.42923C6.89637 9.27755 6.88895 9.0242 7.04064 8.86336L7.09688 8.80393C7.24911 8.6436 7.50249 8.63705 7.66281 8.78928ZM49.1636 13.044C49.3552 12.9338 49.5999 12.9998 49.7101 13.1914L49.7509 13.2626C49.8604 13.4547 49.7935 13.6991 49.6014 13.8087C49.4094 13.9182 49.1649 13.8512 49.0554 13.6592L49.0161 13.5906C48.9059 13.3989 48.9719 13.1542 49.1636 13.044ZM4.36082 13.044C4.55247 13.1542 4.61848 13.3989 4.50827 13.5906L4.46897 13.6592C4.35946 13.8512 4.11499 13.9182 3.92294 13.8087C3.73088 13.6991 3.66396 13.4547 3.77347 13.2626L3.81424 13.1914C3.92446 12.9998 4.16917 12.9338 4.36082 13.044ZM51.33 17.9723C51.5433 17.9142 51.7633 18.0401 51.8214 18.2534L51.8428 18.3326C51.9 18.5461 51.7733 18.7657 51.5598 18.8229C51.3462 18.8801 51.1267 18.7534 51.0695 18.5399L51.0489 18.4637C50.9908 18.2504 51.1166 18.0304 51.33 17.9723ZM2.19442 17.9723C2.40774 18.0304 2.53359 18.2504 2.47551 18.4637L2.45492 18.5399C2.39768 18.7534 2.17816 18.8802 1.96462 18.8229C1.75107 18.7657 1.62437 18.5462 1.68161 18.3326L1.70301 18.2534C1.76109 18.0401 1.98111 17.9142 2.19442 17.9723ZM1.37232 23.2926C1.5934 23.293 1.77227 23.4726 1.77184 23.6937L1.7718 23.7334L1.77184 23.7731C1.77227 23.9942 1.5934 24.1737 1.37232 24.1742C1.15124 24.1746 0.971665 23.9957 0.971232 23.7747L0.971191 23.7334L0.971232 23.6921C0.971665 23.471 1.15124 23.2921 1.37232 23.2926ZM52.1521 23.2926C52.3731 23.2921 52.5527 23.471 52.5531 23.6921L52.5532 23.7334L52.5531 23.7747C52.5527 23.9957 52.3731 24.1746 52.1521 24.1742C51.931 24.1737 51.7521 23.9942 51.7525 23.7731L51.7526 23.7334L51.7525 23.6937C51.7521 23.4726 51.931 23.293 52.1521 23.2926ZM51.5598 28.6438C51.7733 28.7011 51.9 28.9206 51.8428 29.1341L51.8214 29.2134C51.7633 29.4267 51.5433 29.5525 51.33 29.4944C51.1166 29.4364 50.9908 29.2164 51.0489 29.003L51.0695 28.9268C51.1267 28.7133 51.3462 28.5866 51.5598 28.6438ZM1.96462 28.6438C2.17816 28.5866 2.39768 28.7133 2.45492 28.9269L2.47551 29.003C2.53359 29.2164 2.40774 29.4364 2.19442 29.4945C1.98111 29.5525 1.7611 29.4267 1.70302 29.2134L1.68161 29.1341C1.62437 28.9206 1.75108 28.7011 1.96462 28.6438ZM49.6014 33.6581C49.7935 33.7676 49.8604 34.0121 49.7509 34.2041L49.7101 34.2753C49.5999 34.467 49.3552 34.533 49.1636 34.4228C48.9719 34.3125 48.9059 34.0678 49.0161 33.8762L49.0554 33.8076C49.1649 33.6155 49.4094 33.5486 49.6014 33.6581ZM3.92294 33.6581C4.115 33.5486 4.35946 33.6155 4.46897 33.8076L4.50827 33.8762C4.61849 34.0678 4.55247 34.3126 4.36082 34.4228C4.16917 34.533 3.92446 34.467 3.81424 34.2753L3.77347 34.2041C3.66397 34.0121 3.73089 33.7676 3.92294 33.6581ZM46.4672 38.0375C46.628 38.1892 46.6354 38.4426 46.4837 38.6034L46.4275 38.6628C46.2753 38.8231 46.0219 38.8297 45.8616 38.6775C45.7012 38.5252 45.6947 38.2719 45.8469 38.1115L45.9013 38.0541C46.053 37.8932 46.3063 37.8858 46.4672 38.0375ZM7.05721 38.0375C7.21805 37.8858 7.4714 37.8933 7.62309 38.0541L7.67746 38.1115C7.82969 38.2719 7.82313 38.5252 7.66281 38.6775C7.50249 38.8297 7.24912 38.8232 7.09688 38.6628L7.04064 38.6034C6.88896 38.4426 6.89638 38.1892 7.05721 38.0375ZM42.4161 41.589C42.54 41.7721 42.492 42.021 42.3089 42.1449L42.2409 42.1907C42.0574 42.3141 41.8087 42.2653 41.6853 42.0818C41.562 41.8983 41.6108 41.6496 41.7943 41.5263L41.8602 41.4818C42.0433 41.3579 42.2922 41.4059 42.4161 41.589ZM11.1083 41.589C11.2322 41.4059 11.4811 41.3579 11.6642 41.4818L11.7301 41.5263C11.9136 41.6496 11.9624 41.8983 11.839 42.0818C11.7157 42.2653 11.467 42.3141 11.2835 42.1907L11.2155 42.1449C11.0324 42.021 10.9844 41.7721 11.1083 41.589ZM15.8206 44.2013C15.9044 43.9967 16.1381 43.8987 16.3427 43.9825L16.4162 44.0125C16.621 44.0956 16.7197 44.3291 16.6365 44.5339C16.5534 44.7388 16.3199 44.8374 16.1151 44.7543L16.0394 44.7234C15.8348 44.6397 15.7368 44.4059 15.8206 44.2013ZM37.7038 44.2013C37.7875 44.4059 37.6896 44.6397 37.485 44.7234L37.4093 44.7543C37.2045 44.8374 36.971 44.7388 36.8879 44.5339C36.8047 44.3291 36.9034 44.0956 37.1082 44.0125L37.1816 43.9825C37.3862 43.8987 37.62 43.9967 37.7038 44.2013ZM20.963 45.8142C21.0051 45.5972 21.2151 45.4553 21.4321 45.4973L21.5103 45.5123C21.7275 45.5537 21.87 45.7633 21.8286 45.9805C21.7872 46.1977 21.5776 46.3402 21.3604 46.2988L21.2799 46.2833C21.0629 46.2413 20.921 46.0313 20.963 45.8142ZM32.5614 45.8142C32.6034 46.0313 32.4615 46.2413 32.2444 46.2833L32.164 46.2988C31.9468 46.3402 31.7372 46.1977 31.6958 45.9805C31.6544 45.7633 31.7969 45.5537 32.0141 45.5123L32.0923 45.4973C32.3093 45.4553 32.5193 45.5972 32.5614 45.8142ZM26.3214 46.4047C26.3217 46.1836 26.5012 46.0047 26.7222 46.005L26.7622 46.005L26.8021 46.005C27.0232 46.0047 27.2027 46.1836 27.203 46.4047C27.2033 46.6258 27.0243 46.8053 26.8033 46.8056L26.7622 46.8056L26.7211 46.8056C26.5 46.8053 26.3211 46.6258 26.3214 46.4047Z" fill="#FA9E42"/>
<g filter="url(#filter2_f_19_2208)">
<path d="M24.5966 20.1464C31.689 16.7827 35.701 11.1349 33.5577 7.53167C31.4144 3.92845 23.9273 3.7343 16.8349 7.09803C9.74246 10.4618 5.73043 16.1096 7.87376 19.7128C10.0171 23.316 17.5041 23.5102 24.5966 20.1464Z" fill="#F8E36F"/>
</g>
</g>
<defs>
<filter id="filter0_f_19_2208" x="0.811069" y="0.50101" width="51.9023" height="46.4648" filterUnits="userSpaceOnUse" color-interpolation-filters="sRGB">
<feFlood flood-opacity="0" result="BackgroundImageFix"/>
<feBlend mode="normal" in="SourceGraphic" in2="BackgroundImageFix" result="shape"/>
<feGaussianBlur stdDeviation="0.0800612" result="effect1_foregroundBlur_19_2208"/>
</filter>
<filter id="filter1_df_19_2208" x="4.88657" y="3.38805" width="45.353" height="41.0111" filterUnits="userSpaceOnUse" color-interpolation-filters="sRGB">
<feFlood flood-opacity="0" result="BackgroundImageFix"/>
<feColorMatrix in="SourceAlpha" type="matrix" values="0 0 0 0 0 0 0 0 0 0 0 0 0 0 0 0 0 0 127 0" result="hardAlpha"/>
<feOffset dx="0.800612" dy="0.160122"/>
<feGaussianBlur stdDeviation="1.20092"/>
<feColorMatrix type="matrix" values="0 0 0 0 0 0 0 0 0 0 0 0 0 0 0 0 0 0 0.25 0"/>
<feBlend mode="normal" in2="BackgroundImageFix" result="effect1_dropShadow_19_2208"/>
<feBlend mode="normal" in="SourceGraphic" in2="effect1_dropShadow_19_2208" result="shape"/>
<feGaussianBlur stdDeviation="0.160122" result="effect2_foregroundBlur_19_2208"/>
</filter>
<filter id="filter2_f_19_2208" x="5.69541" y="3.09568" width="30.0406" height="21.053" filterUnits="userSpaceOnUse" color-interpolation-filters="sRGB">
<feFlood flood-opacity="0" result="BackgroundImageFix"/>
<feBlend mode="normal" in="SourceGraphic" in2="BackgroundImageFix" result="shape"/>
<feGaussianBlur stdDeviation="0.800612" result="effect1_foregroundBlur_19_2208"/>
</filter>
</defs>
</svg>
