<svg width="72" height="56" viewBox="0 0 72 56" fill="none" xmlns="http://www.w3.org/2000/svg">
<g filter="url(#filter0_f_19_760)">
<path fill-rule="evenodd" clip-rule="evenodd" d="M36.6961 30.0537C36.9172 30.0537 37.0964 30.2329 37.0964 30.454V52.3724C37.0964 52.5934 36.9172 52.7727 36.6961 52.7727C36.475 52.7727 36.2958 52.5934 36.2958 52.3724V30.454C36.2958 30.2329 36.475 30.0537 36.6961 30.0537Z" fill="#42A0F0"/>
<path fill-rule="evenodd" clip-rule="evenodd" d="M41.1688 31.6439C41.3186 31.8065 41.3083 32.0597 41.1457 32.2095L36.9182 36.1061C36.7556 36.2559 36.5024 36.2456 36.3525 36.083C36.2027 35.9205 36.213 35.6672 36.3756 35.5174L40.6031 31.6209C40.7657 31.471 41.019 31.4813 41.1688 31.6439Z" fill="#42A0F0"/>
<path fill-rule="evenodd" clip-rule="evenodd" d="M31.9843 31.6486C32.1315 31.4837 32.3846 31.4694 32.5495 31.6166L36.9133 35.5131C37.0782 35.6604 37.0925 35.9134 36.9453 36.0784C36.798 36.2433 36.545 36.2576 36.38 36.1103L32.0163 32.2138C31.8513 32.0665 31.837 31.8135 31.9843 31.6486Z" fill="#42A0F0"/>
<path fill-rule="evenodd" clip-rule="evenodd" d="M36.3525 47.2304C36.5024 47.0679 36.7556 47.0576 36.9182 47.2074L41.1457 51.1039C41.3083 51.2538 41.3186 51.507 41.1688 51.6696C41.019 51.8321 40.7657 51.8425 40.6031 51.6926L36.3756 47.7961C36.213 47.6463 36.2027 47.393 36.3525 47.2304Z" fill="#42A0F0"/>
<path fill-rule="evenodd" clip-rule="evenodd" d="M36.9453 47.235C37.0925 47.3999 37.0782 47.653 36.9133 47.8002L32.5495 51.6968C32.3846 51.844 32.1315 51.8297 31.9843 51.6648C31.837 51.4999 31.8513 51.2468 32.0163 51.0996L36.38 47.203C36.545 47.0558 36.798 47.0701 36.9453 47.235Z" fill="#42A0F0"/>
<path fill-rule="evenodd" clip-rule="evenodd" d="M47.622 35.8408C47.742 36.0265 47.6801 36.2591 47.4835 36.3604L26.2255 47.3196C26.0289 47.4209 25.7723 47.3525 25.6523 47.1669C25.5323 46.9812 25.5942 46.7486 25.7907 46.6473L47.0488 35.6881C47.2453 35.5868 47.502 35.6552 47.622 35.8408Z" fill="#42A0F0"/>
<path fill-rule="evenodd" clip-rule="evenodd" d="M48.3482 40.1599C48.2987 40.3624 48.0751 40.4809 47.8486 40.4246L41.9557 38.9596C41.7293 38.9033 41.5858 38.6935 41.6352 38.491C41.6847 38.2885 41.9083 38.17 42.1348 38.2263L48.0277 39.6913C48.2541 39.7475 48.3976 39.9573 48.3482 40.1599Z" fill="#42A0F0"/>
<path fill-rule="evenodd" clip-rule="evenodd" d="M43.6475 32.9776C43.873 33.0375 44.0125 33.2494 43.959 33.4508L42.5456 38.7736C42.4921 38.9751 42.266 39.0898 42.0404 39.0299C41.8149 38.97 41.6755 38.7581 41.729 38.5566L43.1423 33.2339C43.1958 33.0324 43.422 32.9176 43.6475 32.9776Z" fill="#42A0F0"/>
<path fill-rule="evenodd" clip-rule="evenodd" d="M30.7201 44.1469C30.9448 44.21 31.0806 44.4237 31.0235 44.6242L29.5385 49.8416C29.4814 50.0421 29.2531 50.1535 29.0284 50.0904C28.8038 50.0273 28.6679 49.8136 28.725 49.6131L30.21 44.3957C30.2671 44.1952 30.4955 44.0838 30.7201 44.1469Z" fill="#42A0F0"/>
<path fill-rule="evenodd" clip-rule="evenodd" d="M31.1151 44.6909C31.0621 44.8925 30.8362 45.0077 30.6105 44.9482L24.6495 43.3762C24.4239 43.3167 24.284 43.105 24.337 42.9035C24.39 42.7019 24.6159 42.5867 24.8415 42.6462L30.8026 44.2182C31.0282 44.2777 31.1681 44.4893 31.1151 44.6909Z" fill="#42A0F0"/>
<path fill-rule="evenodd" clip-rule="evenodd" d="M47.5045 47.167C47.3844 47.3527 47.1278 47.421 46.9313 47.3197L25.6732 36.3606C25.4767 36.2593 25.4147 36.0266 25.5348 35.841C25.6548 35.6553 25.9114 35.587 26.1079 35.6883L47.366 46.6474C47.5625 46.7487 47.6245 46.9814 47.5045 47.167Z" fill="#42A0F0"/>
<path fill-rule="evenodd" clip-rule="evenodd" d="M43.6557 49.847C43.4311 49.9101 43.2027 49.7987 43.1457 49.5982L41.6606 44.3808C41.6035 44.1803 41.7394 43.9666 41.964 43.9035C42.1887 43.8404 42.4171 43.9518 42.4741 44.1523L43.9592 49.3697C44.0162 49.5702 43.8804 49.7839 43.6557 49.847Z" fill="#42A0F0"/>
<path fill-rule="evenodd" clip-rule="evenodd" d="M48.3465 42.6597C48.3996 42.8612 48.2597 43.0729 48.034 43.1324L42.073 44.7044C41.8474 44.7639 41.6215 44.6487 41.5684 44.4471C41.5154 44.2455 41.6553 44.0339 41.8809 43.9744L47.842 42.4024C48.0676 42.3429 48.2935 42.4581 48.3465 42.6597Z" fill="#42A0F0"/>
<path fill-rule="evenodd" clip-rule="evenodd" d="M31.0497 38.2477C31.0991 38.4502 30.9556 38.66 30.7292 38.7163L24.8363 40.1813C24.6098 40.2376 24.3862 40.1191 24.3367 39.9166C24.2873 39.7141 24.4308 39.5043 24.6572 39.448L30.5501 37.983C30.7766 37.9267 31.0002 38.0452 31.0497 38.2477Z" fill="#42A0F0"/>
<path fill-rule="evenodd" clip-rule="evenodd" d="M30.6446 38.7865C30.419 38.8464 30.1928 38.7316 30.1394 38.5301L28.726 33.2074C28.6725 33.0059 28.812 32.794 29.0375 32.7341C29.263 32.6742 29.4892 32.789 29.5427 32.9904L30.956 38.3132C31.0095 38.5147 30.8701 38.7265 30.6446 38.7865Z" fill="#42A0F0"/>
</g>
<g filter="url(#filter1_f_19_760)">
<path fill-rule="evenodd" clip-rule="evenodd" d="M27.6821 26.0304C27.7042 26.0304 27.7222 26.0483 27.7222 26.0704V27.5675C27.7222 27.5896 27.7042 27.6075 27.6821 27.6075C27.66 27.6075 27.6421 27.5896 27.6421 27.5675V26.0704C27.6421 26.0483 27.66 26.0304 27.6821 26.0304Z" fill="#42A0F0"/>
<path fill-rule="evenodd" clip-rule="evenodd" d="M27.9569 26.2975C27.9659 26.3177 27.9568 26.3414 27.9366 26.3504L27.6618 26.4732C27.6417 26.4822 27.618 26.4731 27.609 26.4529C27.5999 26.4328 27.609 26.4091 27.6292 26.4001L27.904 26.2773C27.9242 26.2683 27.9478 26.2773 27.9569 26.2975Z" fill="#42A0F0"/>
<path fill-rule="evenodd" clip-rule="evenodd" d="M27.198 26.3024C27.2043 26.2812 27.2266 26.2692 27.2478 26.2755L27.6568 26.3973C27.678 26.4036 27.6901 26.4259 27.6838 26.4471C27.6775 26.4683 27.6552 26.4803 27.634 26.474L27.2249 26.3522C27.2037 26.3459 27.1917 26.3236 27.198 26.3024Z" fill="#42A0F0"/>
<path fill-rule="evenodd" clip-rule="evenodd" d="M27.609 27.2718C27.618 27.2516 27.6417 27.2425 27.6618 27.2515L27.9366 27.3743C27.9568 27.3833 27.9659 27.407 27.9569 27.4272C27.9478 27.4474 27.9242 27.4564 27.904 27.4474L27.6292 27.3246C27.609 27.3156 27.5999 27.2919 27.609 27.2718Z" fill="#42A0F0"/>
<path fill-rule="evenodd" clip-rule="evenodd" d="M27.6838 27.2767C27.6901 27.2979 27.678 27.3201 27.6568 27.3265L27.2478 27.4483C27.2266 27.4546 27.2043 27.4425 27.198 27.4213C27.1917 27.4001 27.2037 27.3779 27.2249 27.3715L27.634 27.2497C27.6552 27.2434 27.6775 27.2555 27.6838 27.2767Z" fill="#42A0F0"/>
<path fill-rule="evenodd" clip-rule="evenodd" d="M28.4397 26.4326C28.4517 26.4511 28.4455 26.4744 28.4258 26.4845L26.9739 27.233C26.9543 27.2432 26.9286 27.2363 26.9166 27.2178C26.9046 27.1992 26.9108 27.1759 26.9304 27.1658L28.3824 26.4173C28.402 26.4072 28.4277 26.414 28.4397 26.4326Z" fill="#42A0F0"/>
<path fill-rule="evenodd" clip-rule="evenodd" d="M28.4918 26.7384C28.4869 26.7586 28.4645 26.7705 28.4419 26.7648L28.0362 26.664C28.0136 26.6583 27.9992 26.6373 28.0042 26.6171C28.0091 26.5968 28.0315 26.585 28.0541 26.5906L28.4598 26.6915C28.4824 26.6971 28.4968 26.7181 28.4918 26.7384Z" fill="#42A0F0"/>
<path fill-rule="evenodd" clip-rule="evenodd" d="M28.1589 26.2312C28.1814 26.2372 28.1954 26.2584 28.19 26.2785L28.0927 26.6449C28.0874 26.6651 28.0648 26.6765 28.0422 26.6706C28.0197 26.6646 28.0057 26.6434 28.0111 26.6232L28.1084 26.2568C28.1137 26.2367 28.1363 26.2252 28.1589 26.2312Z" fill="#42A0F0"/>
<path fill-rule="evenodd" clip-rule="evenodd" d="M27.277 26.9942C27.2994 27.0005 27.313 27.0219 27.3073 27.0419L27.2051 27.4011C27.1994 27.4211 27.1766 27.4323 27.1541 27.426C27.1316 27.4197 27.118 27.3983 27.1237 27.3782L27.226 27.0191C27.2317 26.999 27.2545 26.9879 27.277 26.9942Z" fill="#42A0F0"/>
<path fill-rule="evenodd" clip-rule="evenodd" d="M27.3146 27.048C27.3093 27.0681 27.2867 27.0797 27.2641 27.0737L26.8538 26.9655C26.8312 26.9595 26.8172 26.9384 26.8225 26.9182C26.8279 26.8981 26.8504 26.8865 26.873 26.8925L27.2834 27.0007C27.3059 27.0067 27.3199 27.0278 27.3146 27.048Z" fill="#42A0F0"/>
<path fill-rule="evenodd" clip-rule="evenodd" d="M28.4309 27.2178C28.4189 27.2364 28.3932 27.2433 28.3736 27.2331L26.9217 26.4846C26.902 26.4745 26.8958 26.4512 26.9078 26.4327C26.9198 26.4141 26.9455 26.4072 26.9651 26.4174L28.4171 27.1659C28.4367 27.176 28.4429 27.1993 28.4309 27.2178Z" fill="#42A0F0"/>
<path fill-rule="evenodd" clip-rule="evenodd" d="M28.1585 27.4082C28.136 27.4145 28.1132 27.4034 28.1075 27.3833L28.0053 27.0241C27.9996 27.0041 28.0132 26.9827 28.0356 26.9764C28.0581 26.9701 28.0809 26.9812 28.0866 27.0013L28.1889 27.3605C28.1946 27.3805 28.181 27.4019 28.1585 27.4082Z" fill="#42A0F0"/>
<path fill-rule="evenodd" clip-rule="evenodd" d="M28.4899 26.9005C28.4952 26.9207 28.4812 26.9418 28.4587 26.9478L28.0483 27.056C28.0258 27.0619 28.0032 27.0504 27.9979 27.0303C27.9926 27.0101 28.0066 26.9889 28.0291 26.983L28.4395 26.8748C28.462 26.8688 28.4846 26.8804 28.4899 26.9005Z" fill="#42A0F0"/>
<path fill-rule="evenodd" clip-rule="evenodd" d="M27.3084 26.5995C27.3134 26.6197 27.299 26.6407 27.2764 26.6463L26.8707 26.7472C26.8481 26.7528 26.8257 26.741 26.8208 26.7207C26.8158 26.7005 26.8302 26.6795 26.8528 26.6738L27.2585 26.573C27.2811 26.5674 27.3035 26.5792 27.3084 26.5995Z" fill="#42A0F0"/>
<path fill-rule="evenodd" clip-rule="evenodd" d="M27.2698 26.6528C27.2472 26.6588 27.2246 26.6474 27.2192 26.6272L27.122 26.2608C27.1166 26.2407 27.1305 26.2195 27.1531 26.2135C27.1757 26.2075 27.1983 26.219 27.2036 26.2391L27.3009 26.6055C27.3063 26.6257 27.2923 26.6469 27.2698 26.6528Z" fill="#42A0F0"/>
</g>
<g filter="url(#filter2_f_19_760)">
<path fill-rule="evenodd" clip-rule="evenodd" d="M50.8123 29.3448C50.8344 29.3448 50.8523 29.3628 50.8523 29.3849V31.9512C50.8523 31.9733 50.8344 31.9912 50.8123 31.9912C50.7902 31.9912 50.7722 31.9733 50.7722 31.9512V29.3849C50.7722 29.3628 50.7902 29.3448 50.8123 29.3448Z" fill="#42A0F0"/>
<path fill-rule="evenodd" clip-rule="evenodd" d="M51.2772 29.8365C51.282 29.8581 51.2684 29.8795 51.2469 29.8843L50.7014 30.0061C50.6798 30.0109 50.6584 29.9973 50.6536 29.9758C50.6487 29.9542 50.6623 29.9328 50.6839 29.928L51.2294 29.8061C51.251 29.8013 51.2724 29.8149 51.2772 29.8365Z" fill="#42A0F0"/>
<path fill-rule="evenodd" clip-rule="evenodd" d="M49.9711 29.8382C49.975 29.8164 49.9958 29.8019 50.0175 29.8058L50.6995 29.9276C50.7212 29.9315 50.7357 29.9523 50.7319 29.9741C50.728 29.9958 50.7072 30.0103 50.6854 30.0064L50.0035 29.8846C49.9817 29.8807 49.9672 29.8599 49.9711 29.8382Z" fill="#42A0F0"/>
<path fill-rule="evenodd" clip-rule="evenodd" d="M50.6561 31.4119C50.6651 31.3917 50.6888 31.3827 50.7089 31.3917L51.2545 31.6351C51.2747 31.6441 51.2837 31.6678 51.2747 31.688C51.2657 31.7082 51.242 31.7173 51.2218 31.7082L50.6763 31.4648C50.6561 31.4558 50.6471 31.4321 50.6561 31.4119Z" fill="#42A0F0"/>
<path fill-rule="evenodd" clip-rule="evenodd" d="M50.7301 31.4148C50.7376 31.4356 50.7267 31.4585 50.7059 31.4659L50.024 31.7094C50.0031 31.7168 49.9802 31.706 49.9728 31.6852C49.9654 31.6643 49.9762 31.6414 49.997 31.634L50.679 31.3905C50.6998 31.3831 50.7227 31.3939 50.7301 31.4148Z" fill="#42A0F0"/>
<path fill-rule="evenodd" clip-rule="evenodd" d="M52.0854 30.0186C52.0974 30.0372 52.0912 30.0605 52.0716 30.0706L49.5826 31.3538C49.5629 31.3639 49.5373 31.357 49.5253 31.3385C49.5133 31.3199 49.5195 31.2967 49.5391 31.2865L52.0281 30.0034C52.0478 29.9932 52.0734 30.0001 52.0854 30.0186Z" fill="#42A0F0"/>
<path fill-rule="evenodd" clip-rule="evenodd" d="M52.1697 30.5194C52.1647 30.5396 52.1423 30.5515 52.1197 30.5458L51.4298 30.3743C51.4072 30.3687 51.3928 30.3477 51.3978 30.3275C51.4027 30.3072 51.4251 30.2954 51.4477 30.301L52.1376 30.4725C52.1603 30.4781 52.1746 30.4991 52.1697 30.5194Z" fill="#42A0F0"/>
<path fill-rule="evenodd" clip-rule="evenodd" d="M51.6245 29.6865C51.647 29.6925 51.661 29.7137 51.6556 29.7338L51.4902 30.3569C51.4848 30.3771 51.4622 30.3886 51.4396 30.3826C51.4171 30.3766 51.4031 30.3554 51.4085 30.3353L51.5739 29.7121C51.5793 29.692 51.6019 29.6805 51.6245 29.6865Z" fill="#42A0F0"/>
<path fill-rule="evenodd" clip-rule="evenodd" d="M50.111 30.9942C50.1334 31.0005 50.147 31.0219 50.1413 31.0419L49.9675 31.6527C49.9618 31.6728 49.9389 31.6839 49.9165 31.6776C49.894 31.6713 49.8804 31.6499 49.8861 31.6299L50.0599 31.0191C50.0656 30.999 50.0885 30.9879 50.111 30.9942Z" fill="#42A0F0"/>
<path fill-rule="evenodd" clip-rule="evenodd" d="M50.1525 31.0498C50.1472 31.07 50.1246 31.0815 50.1021 31.0755L49.4043 30.8915C49.3817 30.8856 49.3677 30.8644 49.373 30.8442C49.3783 30.8241 49.4009 30.8126 49.4235 30.8185L50.1213 31.0025C50.1438 31.0085 50.1578 31.0296 50.1525 31.0498Z" fill="#42A0F0"/>
<path fill-rule="evenodd" clip-rule="evenodd" d="M52.072 31.3386C52.06 31.3571 52.0344 31.364 52.0147 31.3538L49.5257 30.0707C49.506 30.0606 49.4998 30.0373 49.5118 30.0187C49.5238 30.0002 49.5495 29.9933 49.5692 30.0035L52.0582 31.2866C52.0778 31.2967 52.084 31.32 52.072 31.3386Z" fill="#42A0F0"/>
<path fill-rule="evenodd" clip-rule="evenodd" d="M51.6259 31.6492C51.6035 31.6555 51.5806 31.6443 51.5749 31.6243L51.4011 31.0135C51.3954 30.9934 51.409 30.9721 51.4315 30.9658C51.4539 30.9595 51.4768 30.9706 51.4825 30.9906L51.6563 31.6014C51.662 31.6215 51.6484 31.6429 51.6259 31.6492Z" fill="#42A0F0"/>
<path fill-rule="evenodd" clip-rule="evenodd" d="M52.1696 30.8158C52.1749 30.836 52.1609 30.8571 52.1384 30.8631L51.4405 31.0471C51.418 31.053 51.3954 31.0415 51.3901 31.0214C51.3848 31.0012 51.3988 30.98 51.4213 30.9741L52.1192 30.7901C52.1417 30.7841 52.1643 30.7956 52.1696 30.8158Z" fill="#42A0F0"/>
<path fill-rule="evenodd" clip-rule="evenodd" d="M50.1439 30.2992C50.1488 30.3194 50.1345 30.3404 50.1118 30.346L49.422 30.5175C49.3993 30.5232 49.377 30.5113 49.372 30.4911C49.3671 30.4708 49.3814 30.4498 49.4041 30.4442L50.0939 30.2727C50.1166 30.2671 50.1389 30.2789 50.1439 30.2992Z" fill="#42A0F0"/>
<path fill-rule="evenodd" clip-rule="evenodd" d="M50.1022 30.3543C50.0797 30.3603 50.0571 30.3488 50.0517 30.3286L49.8863 29.7055C49.8809 29.6854 49.8949 29.6642 49.9174 29.6582C49.94 29.6522 49.9626 29.6637 49.9679 29.6838L50.1334 30.3069C50.1387 30.3271 50.1248 30.3483 50.1022 30.3543Z" fill="#42A0F0"/>
</g>
<g filter="url(#filter3_f_19_760)">
<path fill-rule="evenodd" clip-rule="evenodd" d="M49.0418 48.2191C49.0639 48.2191 49.0818 48.237 49.0818 48.2591V50.3661C49.0818 50.3882 49.0639 50.4061 49.0418 50.4061C49.0196 50.4061 49.0017 50.3882 49.0017 50.3661V48.2591C49.0017 48.237 49.0196 48.2191 49.0418 48.2191Z" fill="#42A0F0"/>
<path fill-rule="evenodd" clip-rule="evenodd" d="M49.3669 48.5862C49.3732 48.6074 49.3611 48.6297 49.34 48.636L48.9309 48.7578C48.9097 48.7642 48.8874 48.7521 48.8811 48.7309C48.8748 48.7097 48.8868 48.6874 48.908 48.6811L49.3171 48.5593C49.3383 48.553 49.3606 48.565 49.3669 48.5862Z" fill="#42A0F0"/>
<path fill-rule="evenodd" clip-rule="evenodd" d="M48.3347 48.5889C48.3395 48.5674 48.3609 48.5538 48.3825 48.5586L48.928 48.6804C48.9496 48.6852 48.9632 48.7066 48.9584 48.7282C48.9536 48.7498 48.9322 48.7634 48.9106 48.7585L48.3651 48.6367C48.3435 48.6319 48.3299 48.6105 48.3347 48.5889Z" fill="#42A0F0"/>
<path fill-rule="evenodd" clip-rule="evenodd" d="M48.885 49.9167C48.8963 49.8977 48.9209 49.8914 48.9399 49.9027L49.349 50.1462C49.368 50.1575 49.3742 50.1821 49.3629 50.2011C49.3516 50.2201 49.3271 50.2263 49.3081 50.215L48.899 49.9715C48.88 49.9602 48.8737 49.9357 48.885 49.9167Z" fill="#42A0F0"/>
<path fill-rule="evenodd" clip-rule="evenodd" d="M48.9559 49.9208C48.9649 49.941 48.9558 49.9647 48.9356 49.9737L48.3901 50.2172C48.3699 50.2262 48.3462 50.2171 48.3372 50.1969C48.3282 50.1767 48.3373 50.1531 48.3575 50.144L48.903 49.9006C48.9232 49.8916 48.9468 49.9006 48.9559 49.9208Z" fill="#42A0F0"/>
<path fill-rule="evenodd" clip-rule="evenodd" d="M50.0933 48.7762C50.1053 48.7948 50.0991 48.818 50.0794 48.8282L48.0359 49.8816C48.0163 49.8918 47.9906 49.8849 47.9786 49.8664C47.9666 49.8478 47.9728 49.8245 47.9924 49.8144L50.0359 48.7609C50.0556 48.7508 50.0813 48.7576 50.0933 48.7762Z" fill="#42A0F0"/>
<path fill-rule="evenodd" clip-rule="evenodd" d="M50.1636 49.1925C50.1586 49.2127 50.1363 49.2246 50.1136 49.2189L49.5471 49.0781C49.5244 49.0725 49.5101 49.0515 49.515 49.0312C49.52 49.011 49.5423 48.9991 49.565 49.0048L50.1315 49.1456C50.1542 49.1512 50.1685 49.1722 50.1636 49.1925Z" fill="#42A0F0"/>
<path fill-rule="evenodd" clip-rule="evenodd" d="M49.7104 48.5002C49.733 48.5062 49.7469 48.5274 49.7416 48.5476L49.6057 49.0593C49.6003 49.0794 49.5777 49.0909 49.5552 49.0849C49.5326 49.0789 49.5187 49.0577 49.524 49.0376L49.6599 48.5259C49.6652 48.5057 49.6879 48.4942 49.7104 48.5002Z" fill="#42A0F0"/>
<path fill-rule="evenodd" clip-rule="evenodd" d="M48.4681 49.574C48.4906 49.5803 48.5042 49.6017 48.4985 49.6217L48.3557 50.1233C48.35 50.1434 48.3272 50.1545 48.3047 50.1482C48.2822 50.1419 48.2687 50.1205 48.2744 50.1005L48.4171 49.5989C48.4228 49.5788 48.4457 49.5677 48.4681 49.574Z" fill="#42A0F0"/>
<path fill-rule="evenodd" clip-rule="evenodd" d="M48.507 49.628C48.5017 49.6482 48.4792 49.6597 48.4566 49.6538L47.8835 49.5027C47.861 49.4967 47.847 49.4755 47.8523 49.4554C47.8576 49.4352 47.8802 49.4237 47.9027 49.4296L48.4758 49.5808C48.4984 49.5867 48.5123 49.6079 48.507 49.628Z" fill="#42A0F0"/>
<path fill-rule="evenodd" clip-rule="evenodd" d="M50.0818 49.8663C50.0698 49.8849 50.0441 49.8917 50.0245 49.8816L47.981 48.8281C47.9613 48.8179 47.9551 48.7947 47.9671 48.7761C47.9791 48.7576 48.0048 48.7507 48.0245 48.7608L50.0679 49.8143C50.0876 49.8245 50.0938 49.8477 50.0818 49.8663Z" fill="#42A0F0"/>
<path fill-rule="evenodd" clip-rule="evenodd" d="M49.7107 50.1248C49.6882 50.1311 49.6653 50.1199 49.6596 50.0999L49.5169 49.5983C49.5112 49.5782 49.5248 49.5569 49.5472 49.5506C49.5697 49.5443 49.5925 49.5554 49.5982 49.5754L49.741 50.077C49.7467 50.0971 49.7331 50.1185 49.7107 50.1248Z" fill="#42A0F0"/>
<path fill-rule="evenodd" clip-rule="evenodd" d="M50.1625 49.4319C50.1678 49.452 50.1538 49.4732 50.1313 49.4792L49.5582 49.6303C49.5357 49.6362 49.5131 49.6247 49.5078 49.6046C49.5025 49.5844 49.5164 49.5632 49.539 49.5573L50.1121 49.4062C50.1346 49.4002 50.1572 49.4117 50.1625 49.4319Z" fill="#42A0F0"/>
<path fill-rule="evenodd" clip-rule="evenodd" d="M48.4998 49.0079C48.5048 49.0282 48.4904 49.0491 48.4678 49.0548L47.9013 49.1956C47.8786 49.2012 47.8563 49.1894 47.8513 49.1691C47.8464 49.1489 47.8607 49.1279 47.8834 49.1223L48.4499 48.9814C48.4725 48.9758 48.4949 48.9877 48.4998 49.0079Z" fill="#42A0F0"/>
<path fill-rule="evenodd" clip-rule="evenodd" d="M48.4599 49.0615C48.4373 49.0675 48.4147 49.056 48.4094 49.0359L48.2735 48.5242C48.2681 48.504 48.2821 48.4829 48.3046 48.4769C48.3272 48.4709 48.3498 48.4823 48.3552 48.5025L48.491 49.0142C48.4964 49.0343 48.4824 49.0555 48.4599 49.0615Z" fill="#42A0F0"/>
</g>
<g filter="url(#filter4_f_19_760)">
<path fill-rule="evenodd" clip-rule="evenodd" d="M29.6653 53.0897C29.6874 53.0897 29.7053 53.1076 29.7053 53.1298V54.9856C29.7053 55.0077 29.6874 55.0257 29.6653 55.0257C29.6432 55.0257 29.6253 55.0077 29.6253 54.9856V53.1298C29.6253 53.1076 29.6432 53.0897 29.6653 53.0897Z" fill="#42A0F0"/>
<path fill-rule="evenodd" clip-rule="evenodd" d="M30.0017 53.4568C30.008 53.478 29.9959 53.5003 29.9747 53.5066L29.5656 53.6284C29.5444 53.6348 29.5221 53.6227 29.5158 53.6015C29.5095 53.5803 29.5216 53.558 29.5428 53.5517L29.9519 53.4299C29.9731 53.4236 29.9954 53.4357 30.0017 53.4568Z" fill="#42A0F0"/>
<path fill-rule="evenodd" clip-rule="evenodd" d="M29.1067 53.4568C29.113 53.4357 29.1353 53.4236 29.1564 53.4299L29.5655 53.5517C29.5867 53.558 29.5988 53.5803 29.5925 53.6015C29.5862 53.6227 29.5639 53.6348 29.5427 53.6284L29.1336 53.5066C29.1124 53.5003 29.1003 53.478 29.1067 53.4568Z" fill="#42A0F0"/>
<path fill-rule="evenodd" clip-rule="evenodd" d="M29.5198 54.5437C29.5311 54.5247 29.5557 54.5185 29.5747 54.5298L29.9838 54.7733C30.0028 54.7846 30.009 54.8092 29.9977 54.8281C29.9864 54.8471 29.9618 54.8534 29.9428 54.8421L29.5337 54.5986C29.5147 54.5873 29.5085 54.5627 29.5198 54.5437Z" fill="#42A0F0"/>
<path fill-rule="evenodd" clip-rule="evenodd" d="M29.5885 54.5437C29.5998 54.5627 29.5936 54.5873 29.5746 54.5986L29.1655 54.8421C29.1465 54.8534 29.1219 54.8471 29.1106 54.8281C29.0993 54.8092 29.1055 54.7846 29.1245 54.7733L29.5336 54.5298C29.5526 54.5185 29.5772 54.5247 29.5885 54.5437Z" fill="#42A0F0"/>
<path fill-rule="evenodd" clip-rule="evenodd" d="M30.5964 53.5832C30.6084 53.6018 30.6022 53.625 30.5826 53.6352L28.7826 54.5631C28.763 54.5732 28.7373 54.5664 28.7253 54.5478C28.7133 54.5293 28.7195 54.506 28.7391 54.4959L30.5391 53.5679C30.5588 53.5578 30.5844 53.5646 30.5964 53.5832Z" fill="#42A0F0"/>
<path fill-rule="evenodd" clip-rule="evenodd" d="M30.6588 53.9533C30.6538 53.9736 30.6315 53.9854 30.6088 53.9798L30.1099 53.8558C30.0872 53.8501 30.0729 53.8292 30.0778 53.8089C30.0828 53.7887 30.1051 53.7768 30.1278 53.7824L30.6267 53.9065C30.6494 53.9121 30.6637 53.9331 30.6588 53.9533Z" fill="#42A0F0"/>
<path fill-rule="evenodd" clip-rule="evenodd" d="M30.2558 53.3381C30.2784 53.3441 30.2923 53.3653 30.287 53.3855L30.1673 53.8361C30.1619 53.8563 30.1393 53.8678 30.1168 53.8618C30.0942 53.8558 30.0803 53.8346 30.0856 53.8144L30.2053 53.3638C30.2106 53.3436 30.2333 53.3321 30.2558 53.3381Z" fill="#42A0F0"/>
<path fill-rule="evenodd" clip-rule="evenodd" d="M29.1617 54.2837C29.1842 54.29 29.1978 54.3114 29.1921 54.3315L29.0663 54.7732C29.0606 54.7933 29.0378 54.8044 29.0153 54.7981C28.9928 54.7918 28.9793 54.7704 28.985 54.7504L29.1107 54.3086C29.1164 54.2886 29.1393 54.2774 29.1617 54.2837Z" fill="#42A0F0"/>
<path fill-rule="evenodd" clip-rule="evenodd" d="M29.1997 54.3371C29.1944 54.3572 29.1718 54.3687 29.1493 54.3628L28.6445 54.2297C28.622 54.2237 28.608 54.2026 28.6133 54.1824C28.6186 54.1623 28.6412 54.1507 28.6637 54.1567L29.1685 54.2898C29.191 54.2957 29.205 54.3169 29.1997 54.3371Z" fill="#42A0F0"/>
<path fill-rule="evenodd" clip-rule="evenodd" d="M30.5864 54.5477C30.5744 54.5662 30.5488 54.5731 30.5291 54.563L28.7291 53.635C28.7095 53.6249 28.7033 53.6016 28.7153 53.5831C28.7273 53.5645 28.753 53.5577 28.7726 53.5678L30.5726 54.4957C30.5922 54.5059 30.5984 54.5291 30.5864 54.5477Z" fill="#42A0F0"/>
<path fill-rule="evenodd" clip-rule="evenodd" d="M30.2567 54.7774C30.2342 54.7837 30.2114 54.7725 30.2057 54.7525L30.0799 54.3107C30.0742 54.2907 30.0878 54.2693 30.1103 54.263C30.1327 54.2567 30.1556 54.2678 30.1613 54.2879L30.287 54.7296C30.2927 54.7497 30.2792 54.771 30.2567 54.7774Z" fill="#42A0F0"/>
<path fill-rule="evenodd" clip-rule="evenodd" d="M30.6586 54.1616C30.6639 54.1818 30.6499 54.2029 30.6274 54.2089L30.1226 54.342C30.1001 54.3479 30.0775 54.3364 30.0722 54.3163C30.0669 54.2961 30.0809 54.2749 30.1034 54.269L30.6082 54.1359C30.6307 54.1299 30.6533 54.1415 30.6586 54.1616Z" fill="#42A0F0"/>
<path fill-rule="evenodd" clip-rule="evenodd" d="M29.1932 53.7881C29.1981 53.8083 29.1838 53.8293 29.1611 53.8349L28.6622 53.9589C28.6395 53.9646 28.6172 53.9527 28.6122 53.9325C28.6073 53.9122 28.6216 53.8912 28.6443 53.8856L29.1432 53.7616C29.1659 53.756 29.1883 53.7678 29.1932 53.7881Z" fill="#42A0F0"/>
<path fill-rule="evenodd" clip-rule="evenodd" d="M29.1547 53.8409C29.1321 53.8468 29.1095 53.8354 29.1041 53.8152L28.9845 53.3645C28.9791 53.3444 28.9931 53.3232 29.0156 53.3172C29.0382 53.3112 29.0608 53.3227 29.0661 53.3428L29.1858 53.7935C29.1912 53.8137 29.1772 53.8349 29.1547 53.8409Z" fill="#42A0F0"/>
</g>
<g filter="url(#filter5_f_19_760)">
<path fill-rule="evenodd" clip-rule="evenodd" d="M21.8225 45.2966C21.8446 45.2966 21.8625 45.3146 21.8625 45.3367V46.842C21.8625 46.8641 21.8446 46.882 21.8225 46.882C21.8004 46.882 21.7825 46.8641 21.7825 46.842V45.3367C21.7825 45.3146 21.8004 45.2966 21.8225 45.2966Z" fill="#42A0F0"/>
<path fill-rule="evenodd" clip-rule="evenodd" d="M22.0926 45.5371C22.1016 45.5573 22.0926 45.581 22.0724 45.59L21.7976 45.7128C21.7774 45.7218 21.7537 45.7128 21.7447 45.6926C21.7357 45.6724 21.7447 45.6487 21.7649 45.6397L22.0397 45.5169C22.0599 45.5079 22.0836 45.517 22.0926 45.5371Z" fill="#42A0F0"/>
<path fill-rule="evenodd" clip-rule="evenodd" d="M21.334 45.542C21.3403 45.5209 21.3626 45.5088 21.3837 45.5151L21.7928 45.6369C21.814 45.6432 21.8261 45.6655 21.8198 45.6867C21.8135 45.7079 21.7912 45.72 21.77 45.7137L21.3609 45.5918C21.3397 45.5855 21.3276 45.5632 21.334 45.542Z" fill="#42A0F0"/>
<path fill-rule="evenodd" clip-rule="evenodd" d="M21.7447 46.5113C21.7537 46.4911 21.7774 46.482 21.7976 46.491L22.0724 46.6138C22.0926 46.6228 22.1016 46.6465 22.0926 46.6667C22.0836 46.6869 22.0599 46.6959 22.0397 46.6869L21.7649 46.5641C21.7447 46.5551 21.7357 46.5314 21.7447 46.5113Z" fill="#42A0F0"/>
<path fill-rule="evenodd" clip-rule="evenodd" d="M21.8198 46.5162C21.8261 46.5374 21.814 46.5596 21.7928 46.566L21.3837 46.6878C21.3626 46.6941 21.3403 46.682 21.334 46.6608C21.3276 46.6396 21.3397 46.6174 21.3609 46.611L21.77 46.4892C21.7912 46.4829 21.8135 46.495 21.8198 46.5162Z" fill="#42A0F0"/>
<path fill-rule="evenodd" clip-rule="evenodd" d="M22.5842 45.7008C22.5962 45.7193 22.59 45.7426 22.5704 45.7527L21.1104 46.5054C21.0908 46.5155 21.0651 46.5087 21.0531 46.4901C21.0411 46.4715 21.0473 46.4483 21.0669 46.4381L22.5269 45.6855C22.5466 45.6754 22.5722 45.6822 22.5842 45.7008Z" fill="#42A0F0"/>
<path fill-rule="evenodd" clip-rule="evenodd" d="M22.6374 46.0082C22.6325 46.0285 22.6101 46.0403 22.5875 46.0347L22.1795 45.9334C22.1569 45.9278 22.1425 45.9068 22.1475 45.8865C22.1524 45.8663 22.1748 45.8544 22.1974 45.86L22.6054 45.9614C22.628 45.967 22.6423 45.988 22.6374 46.0082Z" fill="#42A0F0"/>
<path fill-rule="evenodd" clip-rule="evenodd" d="M22.3032 45.4985C22.3257 45.5045 22.3397 45.5257 22.3343 45.5459L22.2365 45.9144C22.2311 45.9345 22.2085 45.946 22.186 45.94C22.1634 45.934 22.1495 45.9128 22.1548 45.8927L22.2527 45.5242C22.258 45.504 22.2806 45.4925 22.3032 45.4985Z" fill="#42A0F0"/>
<path fill-rule="evenodd" clip-rule="evenodd" d="M21.4154 46.2658C21.4379 46.2721 21.4514 46.2935 21.4457 46.3135L21.3429 46.6746C21.3372 46.6947 21.3143 46.7058 21.2918 46.6995C21.2694 46.6932 21.2558 46.6718 21.2615 46.6518L21.3644 46.2907C21.3701 46.2706 21.3929 46.2595 21.4154 46.2658Z" fill="#42A0F0"/>
<path fill-rule="evenodd" clip-rule="evenodd" d="M21.4534 46.3196C21.4481 46.3398 21.4255 46.3513 21.403 46.3453L20.9903 46.2365C20.9677 46.2305 20.9537 46.2094 20.959 46.1892C20.9643 46.1691 20.9869 46.1575 21.0095 46.1635L21.4222 46.2723C21.4448 46.2783 21.4587 46.2994 21.4534 46.3196Z" fill="#42A0F0"/>
<path fill-rule="evenodd" clip-rule="evenodd" d="M22.5764 46.4901C22.5644 46.5086 22.5388 46.5155 22.5191 46.5053L21.0591 45.7527C21.0395 45.7426 21.0333 45.7193 21.0453 45.7007C21.0573 45.6822 21.083 45.6753 21.1026 45.6854L22.5626 46.4381C22.5822 46.4482 22.5884 46.4715 22.5764 46.4901Z" fill="#42A0F0"/>
<path fill-rule="evenodd" clip-rule="evenodd" d="M22.3025 46.6816C22.28 46.6879 22.2572 46.6768 22.2515 46.6568L22.1486 46.2956C22.1429 46.2756 22.1565 46.2542 22.1789 46.2479C22.2014 46.2416 22.2242 46.2527 22.23 46.2728L22.3328 46.6339C22.3385 46.6539 22.325 46.6753 22.3025 46.6816Z" fill="#42A0F0"/>
<path fill-rule="evenodd" clip-rule="evenodd" d="M22.6359 46.1714C22.6412 46.1915 22.6272 46.2127 22.6047 46.2187L22.192 46.3275C22.1694 46.3334 22.1468 46.3219 22.1415 46.3018C22.1362 46.2816 22.1502 46.2604 22.1728 46.2545L22.5855 46.1457C22.608 46.1397 22.6306 46.1512 22.6359 46.1714Z" fill="#42A0F0"/>
<path fill-rule="evenodd" clip-rule="evenodd" d="M21.4481 45.8688C21.453 45.889 21.4387 45.91 21.416 45.9156L21.0081 46.0169C20.9855 46.0226 20.9631 46.0107 20.9582 45.9905C20.9532 45.9702 20.9676 45.9492 20.9902 45.9436L21.3981 45.8423C21.4208 45.8366 21.4431 45.8485 21.4481 45.8688Z" fill="#42A0F0"/>
<path fill-rule="evenodd" clip-rule="evenodd" d="M21.409 45.9222C21.3864 45.9281 21.3638 45.9167 21.3585 45.8965L21.2606 45.528C21.2553 45.5079 21.2692 45.4867 21.2918 45.4807C21.3143 45.4747 21.337 45.4862 21.3423 45.5063L21.4401 45.8748C21.4455 45.895 21.4316 45.9162 21.409 45.9222Z" fill="#42A0F0"/>
</g>
<path d="M17.5269 30.131C14.6426 30.1344 11.824 29.3618 9.43867 27.9137C7.27283 26.6029 5.54241 24.7954 4.42928 22.6811C3.31614 20.5668 2.86139 18.2238 3.11282 15.8983C3.36425 13.5728 4.31258 11.3508 5.85814 9.46568C7.40369 7.58057 9.48941 6.10202 11.8961 5.18542C13.6765 4.50899 15.592 4.16192 17.5269 4.16518C18.0917 4.1652 18.6561 4.19446 19.2171 4.25283C18.89 4.89146 18.6398 5.55928 18.4706 6.24508C18.2966 6.9529 18.209 7.67545 18.2093 8.4001C18.2056 10.3887 18.8705 12.3324 20.1179 13.9798C20.9221 15.0423 21.9468 15.9573 23.1368 16.6754C23.7348 17.0361 24.3706 17.3442 25.0352 17.5954C26.4114 18.1155 27.8911 18.3822 29.3855 18.3796C30.2501 18.3799 31.1118 18.2911 31.9536 18.1149C31.7551 20.557 30.7857 22.899 29.1578 24.8694C28.6311 25.5069 28.0407 26.1004 27.3937 26.6424C24.7234 28.8863 21.1938 30.1343 17.5269 30.131Z" fill="#713FFD"/>
<g filter="url(#filter6_f_19_760)">
<path d="M14.9819 15.3626C18.2292 12.7518 19.2401 9.02714 17.2397 7.0434C15.2394 5.05966 10.9853 5.568 7.73795 8.17882C4.49063 10.7896 3.47977 14.5143 5.48013 16.498C7.48049 18.4817 11.7346 17.9734 14.9819 15.3626Z" fill="#A586FC"/>
</g>
<g filter="url(#filter7_f_19_760)">
<path d="M10.4212 0.810669L10.9072 1.85967L12.2213 2.24881L10.9072 2.63796L10.4212 3.68696L9.93516 2.63796L8.62109 2.24881L9.93516 1.85967L10.4212 0.810669Z" fill="url(#paint0_linear_19_760)"/>
<path d="M32.1169 25.6821L32.5262 26.5467L33.6328 26.8665L32.5262 27.1863L32.1169 28.0508L31.7077 27.1863L30.6011 26.8665L31.7077 26.5467L32.1169 25.6821Z" fill="url(#paint1_linear_19_760)"/>
<path d="M25.6751 4.1278L26.3461 4.91319L27.5425 4.97714L26.5424 5.56695L26.4014 6.54673L25.7305 5.75958L24.5341 5.69562L25.5341 5.10581L25.6751 4.1278Z" fill="url(#paint2_linear_19_760)"/>
<path d="M1.74255 23.7534L2.46657 24.3617L3.59273 24.2611L2.72944 24.9146L2.71636 25.8016L1.99441 25.1929L0.868252 25.2935L1.7317 24.6403L1.74255 23.7534Z" fill="url(#paint3_linear_19_760)"/>
<path d="M25.0429 12.8299L24.2472 12.9739L23.7764 13.7104L23.7148 12.8642L23.0703 12.4233L23.8665 12.2797L24.3371 11.5432L24.3984 12.3893L25.0429 12.8299Z" fill="url(#paint4_linear_19_760)"/>
</g>
<g filter="url(#filter8_d_19_760)">
<g filter="url(#filter9_d_19_760)">
<path d="M46.0047 40.5314C45.6384 40.5577 45.2685 40.5709 44.8949 40.5712H18.8365C17.0428 40.5771 15.2655 40.2668 13.6064 39.658C11.9473 39.0493 10.4392 38.154 9.16845 37.0236C7.89775 35.8932 6.88949 34.5498 6.20153 33.0707C5.51356 31.5915 5.15942 30.0057 5.15942 28.404C5.15942 26.8024 5.51356 25.2165 6.20153 23.7374C6.88949 22.2582 7.89775 20.9149 9.16845 19.7845C10.4392 18.6541 11.9473 17.7588 13.6064 17.15C15.2655 16.5412 17.0428 16.2309 18.8365 16.2369H28.5524C31.7024 10.0486 38.9571 5.71729 47.4029 5.71729C58.7391 5.71729 67.929 13.5196 67.929 23.1442C67.929 32.7688 58.7391 40.5712 47.4029 40.5712C46.933 40.5712 46.4669 40.5579 46.0047 40.5314Z" fill="url(#paint5_linear_19_760)"/>
<path d="M47.4031 40.402C48.7836 40.402 50.1632 40.2839 51.5036 40.051C52.8097 39.8241 54.0945 39.4855 55.3221 39.0447C56.5273 38.6119 57.6897 38.0762 58.777 37.4525C59.8539 36.8349 60.8665 36.1256 61.7867 35.3443C62.7068 34.5632 63.542 33.7037 64.2693 32.7897C65.0033 31.8673 65.6338 30.8811 66.1431 29.8588C66.6618 28.8177 67.0601 27.7282 67.327 26.6207C67.6009 25.4843 67.7398 24.3146 67.7398 23.1441C67.7398 21.9737 67.6009 20.8041 67.327 19.6677C67.0601 18.5601 66.6618 17.4707 66.1431 16.4296C65.6338 15.4073 65.0033 14.4212 64.2693 13.4987C63.542 12.5847 62.7068 11.7253 61.7867 10.9441C60.8665 10.1629 59.8539 9.45357 58.777 8.8359C57.6897 8.21223 56.5273 7.67656 55.3221 7.24376C54.0945 6.80292 52.8097 6.46434 51.5036 6.23742C50.1632 6.00455 48.7836 5.88648 47.4031 5.88648C43.3537 5.88648 39.4429 6.89358 36.0936 8.79889C34.4791 9.71732 33.0283 10.8259 31.7815 12.0938C30.5268 13.3698 29.4985 14.7872 28.725 16.3068L28.6745 16.406H28.5525H18.8367C17.0226 16.406 15.263 16.7232 13.6065 17.3488C12.8104 17.6495 12.0425 18.0217 11.3242 18.455C10.6127 18.8842 9.94356 19.3772 9.33547 19.9202C8.72738 20.4632 8.17532 21.0606 7.69461 21.696C7.20933 22.3374 6.79253 23.023 6.45579 23.7339C5.75517 25.213 5.39993 26.7842 5.39993 28.404C5.39993 30.0238 5.75517 31.595 6.45579 33.0741C6.79253 33.785 7.20933 34.4707 7.69461 35.1121C8.17532 35.7474 8.72738 36.3449 9.33547 36.8878C9.94356 37.4308 10.6127 37.9238 11.3242 38.353C12.0425 38.7863 12.8104 39.1585 13.6065 39.4592C15.263 40.0848 17.0226 40.402 18.8367 40.402H44.8952C45.2595 40.402 45.6278 40.3888 45.9898 40.3627L46.0035 40.3618L46.0171 40.3625C46.4756 40.3887 46.9418 40.402 47.4031 40.402ZM47.4031 40.5712C46.9333 40.5712 46.467 40.5578 46.005 40.5314C45.6392 40.5577 45.2686 40.5712 44.8952 40.5712H18.8367C11.3111 40.5712 5.21045 35.1237 5.21045 28.404C5.21045 21.6843 11.3111 16.2368 18.8367 16.2368H28.5525C31.7026 10.0479 38.9569 5.71729 47.4031 5.71729C58.7393 5.71729 67.9293 13.5197 67.9293 23.1441C67.9293 32.7688 58.7393 40.5712 47.4031 40.5712Z" fill="white" fill-opacity="0.5"/>
</g>
</g>
<defs>
<filter id="filter0_f_19_760" x="24.0054" y="29.7335" width="24.6727" height="23.3595" filterUnits="userSpaceOnUse" color-interpolation-filters="sRGB">
<feFlood flood-opacity="0" result="BackgroundImageFix"/>
<feBlend mode="normal" in="SourceGraphic" in2="BackgroundImageFix" result="shape"/>
<feGaussianBlur stdDeviation="0.160122" result="effect1_foregroundBlur_19_760"/>
</filter>
<filter id="filter1_f_19_760" x="26.6597" y="25.8703" width="1.99334" height="1.89727" filterUnits="userSpaceOnUse" color-interpolation-filters="sRGB">
<feFlood flood-opacity="0" result="BackgroundImageFix"/>
<feBlend mode="normal" in="SourceGraphic" in2="BackgroundImageFix" result="shape"/>
<feGaussianBlur stdDeviation="0.0800612" result="effect1_foregroundBlur_19_760"/>
</filter>
<filter id="filter2_f_19_760" x="49.211" y="29.1847" width="3.11981" height="2.96661" filterUnits="userSpaceOnUse" color-interpolation-filters="sRGB">
<feFlood flood-opacity="0" result="BackgroundImageFix"/>
<feBlend mode="normal" in="SourceGraphic" in2="BackgroundImageFix" result="shape"/>
<feGaussianBlur stdDeviation="0.0800612" result="effect1_foregroundBlur_19_760"/>
</filter>
<filter id="filter3_f_19_760" x="47.6902" y="48.059" width="2.63445" height="2.50726" filterUnits="userSpaceOnUse" color-interpolation-filters="sRGB">
<feFlood flood-opacity="0" result="BackgroundImageFix"/>
<feBlend mode="normal" in="SourceGraphic" in2="BackgroundImageFix" result="shape"/>
<feGaussianBlur stdDeviation="0.0800612" result="effect1_foregroundBlur_19_760"/>
</filter>
<filter id="filter4_f_19_760" x="28.4512" y="52.9296" width="2.36858" height="2.25616" filterUnits="userSpaceOnUse" color-interpolation-filters="sRGB">
<feFlood flood-opacity="0" result="BackgroundImageFix"/>
<feBlend mode="normal" in="SourceGraphic" in2="BackgroundImageFix" result="shape"/>
<feGaussianBlur stdDeviation="0.0800612" result="effect1_foregroundBlur_19_760"/>
</filter>
<filter id="filter5_f_19_760" x="20.7972" y="45.1365" width="2.0014" height="1.90557" filterUnits="userSpaceOnUse" color-interpolation-filters="sRGB">
<feFlood flood-opacity="0" result="BackgroundImageFix"/>
<feBlend mode="normal" in="SourceGraphic" in2="BackgroundImageFix" result="shape"/>
<feGaussianBlur stdDeviation="0.0800612" result="effect1_foregroundBlur_19_760"/>
</filter>
<filter id="filter6_f_19_760" x="2.8519" y="4.23203" width="17.0162" height="15.0773" filterUnits="userSpaceOnUse" color-interpolation-filters="sRGB">
<feFlood flood-opacity="0" result="BackgroundImageFix"/>
<feBlend mode="normal" in="SourceGraphic" in2="BackgroundImageFix" result="shape"/>
<feGaussianBlur stdDeviation="0.800612" result="effect1_foregroundBlur_19_760"/>
</filter>
<filter id="filter7_f_19_760" x="0.708042" y="0.650547" width="33.0849" height="27.5604" filterUnits="userSpaceOnUse" color-interpolation-filters="sRGB">
<feFlood flood-opacity="0" result="BackgroundImageFix"/>
<feBlend mode="normal" in="SourceGraphic" in2="BackgroundImageFix" result="shape"/>
<feGaussianBlur stdDeviation="0.0800612" result="effect1_foregroundBlur_19_760"/>
</filter>
<filter id="filter8_d_19_760" x="3.5582" y="3.47557" width="67.5734" height="39.6577" filterUnits="userSpaceOnUse" color-interpolation-filters="sRGB">
<feFlood flood-opacity="0" result="BackgroundImageFix"/>
<feColorMatrix in="SourceAlpha" type="matrix" values="0 0 0 0 0 0 0 0 0 0 0 0 0 0 0 0 0 0 127 0" result="hardAlpha"/>
<feOffset dx="0.800612" dy="0.160122"/>
<feGaussianBlur stdDeviation="1.20092"/>
<feColorMatrix type="matrix" values="0 0 0 0 0.258824 0 0 0 0 0.627451 0 0 0 0 0.941176 0 0 0 0.596 0"/>
<feBlend mode="normal" in2="BackgroundImageFix" result="effect1_dropShadow_19_760"/>
<feBlend mode="normal" in="SourceGraphic" in2="effect1_dropShadow_19_760" result="shape"/>
</filter>
<filter id="filter9_d_19_760" x="3.5582" y="3.47557" width="67.5734" height="39.6577" filterUnits="userSpaceOnUse" color-interpolation-filters="sRGB">
<feFlood flood-opacity="0" result="BackgroundImageFix"/>
<feColorMatrix in="SourceAlpha" type="matrix" values="0 0 0 0 0 0 0 0 0 0 0 0 0 0 0 0 0 0 127 0" result="hardAlpha"/>
<feOffset dx="0.800612" dy="0.160122"/>
<feGaussianBlur stdDeviation="1.20092"/>
<feColorMatrix type="matrix" values="0 0 0 0 0.501961 0 0 0 0 0.501961 0 0 0 0 0.501961 0 0 0 0.302 0"/>
<feBlend mode="normal" in2="BackgroundImageFix" result="effect1_dropShadow_19_760"/>
<feBlend mode="normal" in="SourceGraphic" in2="effect1_dropShadow_19_760" result="shape"/>
</filter>
<linearGradient id="paint0_linear_19_760" x1="10.4212" y1="0.810669" x2="10.4212" y2="3.68696" gradientUnits="userSpaceOnUse">
<stop stop-color="#6B38FC"/>
<stop offset="1" stop-color="#9F7EFD"/>
</linearGradient>
<linearGradient id="paint1_linear_19_760" x1="32.1169" y1="25.6821" x2="32.1169" y2="28.0508" gradientUnits="userSpaceOnUse">
<stop stop-color="#6B38FC"/>
<stop offset="1" stop-color="#9F7EFD"/>
</linearGradient>
<linearGradient id="paint2_linear_19_760" x1="25.6753" y1="4.12774" x2="26.2624" y2="6.58" gradientUnits="userSpaceOnUse">
<stop stop-color="#6B38FC"/>
<stop offset="1" stop-color="#9F7EFD"/>
</linearGradient>
<linearGradient id="paint3_linear_19_760" x1="1.74351" y1="23.753" x2="2.54474" y2="25.8667" gradientUnits="userSpaceOnUse">
<stop stop-color="#6B38FC"/>
<stop offset="1" stop-color="#9F7EFD"/>
</linearGradient>
<linearGradient id="paint4_linear_19_760" x1="25.0428" y1="12.8301" x2="23.0953" y2="12.3265" gradientUnits="userSpaceOnUse">
<stop stop-color="#6B38FC"/>
<stop offset="1" stop-color="#9F7EFD"/>
</linearGradient>
<linearGradient id="paint5_linear_19_760" x1="30.5811" y1="10.1089" x2="40.7788" y2="43.175" gradientUnits="userSpaceOnUse">
<stop stop-color="white" stop-opacity="0.596"/>
<stop offset="1" stop-color="#F7F7F7" stop-opacity="0.204"/>
</linearGradient>
</defs>
</svg>
