<svg width="69" height="55" viewBox="0 0 69 55" fill="none" xmlns="http://www.w3.org/2000/svg">
<g filter="url(#filter0_f_19_1518)">
<path d="M21.8748 32.1363C21.9737 32.2171 19.8516 36.2458 18.6279 37.5018C17.4043 38.7577 15.907 39.3842 15.2839 38.901C14.6609 38.4177 15.1478 37.0077 16.3714 35.7517C17.5951 34.4958 21.7757 32.0556 21.8748 32.1363Z" fill="#42A0F0"/>
<path d="M16.5766 36.5812C16.6974 36.7545 17.1213 36.7125 17.5234 36.4874C17.9254 36.2624 18.1535 35.9394 18.0327 35.7661C17.9119 35.5928 17.488 35.6347 17.0859 35.8598C16.6839 36.0849 16.4558 36.4078 16.5766 36.5812Z" fill="white"/>
<path d="M34.7598 32.1363C34.8587 32.2171 32.7366 36.2458 31.513 37.5018C30.2893 38.7577 28.792 39.3842 28.1689 38.901C27.5459 38.4177 28.0328 37.0077 29.2565 35.7517C30.4801 34.4958 34.6607 32.0556 34.7598 32.1363Z" fill="#42A0F0"/>
<path d="M29.4611 36.5812C29.5819 36.7545 30.0058 36.7125 30.4079 36.4874C30.81 36.2624 31.038 35.9394 30.9172 35.7661C30.7964 35.5928 30.3725 35.6347 29.9705 35.8598C29.5684 36.0849 29.3403 36.4078 29.4611 36.5812Z" fill="white"/>
<path d="M47.6443 32.1363C47.7433 32.2171 45.6212 36.2458 44.3975 37.5018C43.1738 38.7577 41.6765 39.3842 41.0535 38.901C40.4304 38.4177 40.9173 37.0077 42.141 35.7517C43.3647 34.4958 47.5452 32.0556 47.6443 32.1363Z" fill="#42A0F0"/>
<path d="M42.3466 36.5812C42.4674 36.7545 42.8913 36.7125 43.2934 36.4874C43.6955 36.2624 43.9235 35.9394 43.8027 35.7661C43.6819 35.5928 43.258 35.6347 42.856 35.8598C42.4539 36.0849 42.2258 36.4078 42.3466 36.5812Z" fill="white"/>
<path d="M36.2754 40.596C36.3744 40.6768 34.2523 44.7055 33.0286 45.9615C31.8049 47.2174 30.3076 47.8439 29.6846 47.3607C29.0615 46.8774 29.5484 45.4674 30.7721 44.2115C31.9958 42.9555 36.1763 40.5154 36.2754 40.596Z" fill="#42A0F0"/>
<path d="M30.9772 45.0408C31.098 45.2141 31.5219 45.1721 31.924 44.947C32.3261 44.722 32.5541 44.399 32.4333 44.2257C32.3125 44.0524 31.8886 44.0943 31.4866 44.3194C31.0845 44.5445 30.8565 44.8674 30.9772 45.0408Z" fill="white"/>
<path d="M52.0025 40.596C52.1014 40.6768 49.9793 44.7055 48.7556 45.9615C47.5319 47.2174 46.0346 47.8439 45.4116 47.3607C44.7886 46.8774 45.2755 45.4674 46.4991 44.2115C47.7228 42.9555 51.9034 40.5154 52.0025 40.596Z" fill="#42A0F0"/>
<path d="M46.7043 45.0408C46.8251 45.2141 47.249 45.1721 47.651 44.947C48.0531 44.722 48.2811 44.399 48.1604 44.2257C48.0396 44.0524 47.6157 44.0943 47.2136 44.3194C46.8115 44.5445 46.5835 44.8674 46.7043 45.0408Z" fill="white"/>
<path d="M40.6338 46.687C40.7328 46.7678 38.6107 50.7965 37.387 52.0524C36.1633 53.3084 34.666 53.9349 34.043 53.4516C33.4199 52.9684 33.9068 51.5583 35.1305 50.3024C36.3542 49.0464 40.5347 46.6063 40.6338 46.687Z" fill="#42A0F0"/>
<path d="M35.3354 51.1318C35.4562 51.3051 35.8801 51.2632 36.2821 51.0381C36.6842 50.813 36.9123 50.4901 36.7915 50.3168C36.6707 50.1434 36.2468 50.1854 35.8447 50.4105C35.4426 50.6355 35.2146 50.9585 35.3354 51.1318Z" fill="white"/>
<path d="M26.2329 46.687C26.3319 46.7678 24.2098 50.7965 22.9861 52.0524C21.7624 53.3084 20.2651 53.9349 19.6421 53.4516C19.019 52.9684 19.5059 51.5583 20.7296 50.3024C21.9533 49.0464 26.1338 46.6063 26.2329 46.687Z" fill="#42A0F0"/>
<path d="M20.9348 51.1318C21.0556 51.3051 21.4794 51.2632 21.8815 51.0381C22.2836 50.813 22.5116 50.4901 22.3908 50.3168C22.27 50.1434 21.8462 50.1854 21.4441 50.4105C21.042 50.6355 20.814 50.9585 20.9348 51.1318Z" fill="white"/>
<path d="M21.8748 40.596C21.9737 40.6768 19.8516 44.7055 18.6279 45.9615C17.4043 47.2174 15.907 47.8439 15.2839 47.3607C14.6609 46.8774 15.1478 45.4674 16.3714 44.2115C17.5951 42.9555 21.7757 40.5154 21.8748 40.596Z" fill="#42A0F0"/>
<path d="M16.5766 45.0408C16.6974 45.2141 17.1213 45.1721 17.5234 44.947C17.9254 44.722 18.1535 44.399 18.0327 44.2257C17.9119 44.0524 17.488 44.0943 17.0859 44.3194C16.6839 44.5445 16.4558 44.8674 16.5766 45.0408Z" fill="white"/>
</g>
<g filter="url(#filter1_df_19_1518)">
<g filter="url(#filter2_d_19_1518)">
<path d="M43.0636 37.3123C42.6972 37.3386 42.3273 37.3518 41.9538 37.352H15.8953C14.1017 37.358 12.3243 37.0477 10.6652 36.4389C9.00614 35.8302 7.49799 34.9349 6.22729 33.8045C4.95658 32.674 3.94833 31.3307 3.26037 29.8516C2.5724 28.3724 2.21826 26.7866 2.21826 25.1849C2.21826 23.5833 2.5724 21.9974 3.26037 20.5182C3.94833 19.0391 4.95658 17.6958 6.22729 16.5654C7.49799 15.4349 9.00614 14.5397 10.6652 13.9309C12.3243 13.3221 14.1017 13.0118 15.8953 13.0178H25.6113C28.7612 6.82952 36.016 2.49817 44.4618 2.49817C55.798 2.49817 64.9879 10.3005 64.9879 19.9251C64.9879 29.5497 55.798 37.352 44.4618 37.352C43.9919 37.352 43.5258 37.3388 43.0636 37.3123Z" fill="url(#paint0_linear_19_1518)"/>
<path d="M44.4621 37.183C45.8427 37.183 47.2223 37.0649 48.5627 36.832C49.8688 36.6051 51.1535 36.2665 52.3812 35.8257C53.5864 35.3929 54.7488 34.8572 55.8361 34.2336C56.913 33.6159 57.9256 32.9066 58.8458 32.1253C59.7658 31.3442 60.6011 30.4847 61.3283 29.5708C62.0624 28.6483 62.6929 27.6621 63.2022 26.6398C63.7208 25.5987 64.1192 24.5092 64.3861 23.4017C64.66 22.2653 64.7989 21.0956 64.7989 19.9252C64.7989 18.7547 64.66 17.5851 64.3861 16.4487C64.1192 15.3411 63.7208 14.2517 63.2022 13.2106C62.6929 12.1883 62.0624 11.2022 61.3283 10.2797C60.6011 9.36574 59.7658 8.50628 58.8458 7.72515C57.9256 6.94389 56.913 6.23457 55.8361 5.61691C54.7488 4.99324 53.5864 4.45757 52.3812 4.02477C51.1535 3.58393 49.8688 3.24534 48.5627 3.01843C47.2223 2.78556 45.8427 2.66748 44.4621 2.66748C40.4127 2.66748 36.502 3.67458 33.1526 5.5799C31.5382 6.49832 30.0874 7.6069 28.8406 8.87483C27.5859 10.1508 26.5576 11.5682 25.7841 13.0879L25.7336 13.187H25.6116H15.8957C14.0817 13.187 12.3221 13.5042 10.6656 14.1298C9.8695 14.4305 9.1016 14.8027 8.38329 15.236C7.67175 15.6652 7.00265 16.1582 6.39456 16.7012C5.78647 17.2442 5.2344 17.8416 4.75369 18.477C4.26841 19.1184 3.85161 19.804 3.51487 20.5149C2.81425 21.994 2.45901 23.5652 2.45901 25.185C2.45901 26.8048 2.81425 28.376 3.51487 29.8551C3.85161 30.566 4.26841 31.2517 4.75369 31.8931C5.2344 32.5284 5.78647 33.1259 6.39456 33.6688C7.00265 34.2118 7.67175 34.7048 8.38329 35.134C9.1016 35.5673 9.8695 35.9395 10.6656 36.2402C12.3221 36.8658 14.0817 37.183 15.8957 37.183H41.9543C42.3186 37.183 42.6869 37.1698 43.0489 37.1437L43.0625 37.1428L43.0762 37.1435C43.5346 37.1697 44.0009 37.183 44.4621 37.183ZM44.4621 37.3522C43.9923 37.3522 43.526 37.3388 43.0641 37.3124C42.6983 37.3387 42.3277 37.3522 41.9543 37.3522H15.8957C8.37023 37.3522 2.26953 31.9047 2.26953 25.185C2.26953 18.4653 8.37023 13.0179 15.8957 13.0179H25.6116C28.7617 6.82887 36.016 2.49829 44.4621 2.49829C55.7984 2.49829 64.9884 10.3007 64.9884 19.9252C64.9884 29.5498 55.7984 37.3522 44.4621 37.3522Z" fill="white" fill-opacity="0.5"/>
</g>
</g>
<defs>
<filter id="filter0_f_19_1518" x="14.6925" y="31.8142" width="37.6337" height="22.1208" filterUnits="userSpaceOnUse" color-interpolation-filters="sRGB">
<feFlood flood-opacity="0" result="BackgroundImageFix"/>
<feBlend mode="normal" in="SourceGraphic" in2="BackgroundImageFix" result="shape"/>
<feGaussianBlur stdDeviation="0.160122" result="effect1_foregroundBlur_19_1518"/>
</filter>
<filter id="filter1_df_19_1518" x="0.617038" y="0.256456" width="67.5737" height="39.6577" filterUnits="userSpaceOnUse" color-interpolation-filters="sRGB">
<feFlood flood-opacity="0" result="BackgroundImageFix"/>
<feColorMatrix in="SourceAlpha" type="matrix" values="0 0 0 0 0 0 0 0 0 0 0 0 0 0 0 0 0 0 127 0" result="hardAlpha"/>
<feOffset dx="0.800612" dy="0.160122"/>
<feGaussianBlur stdDeviation="1.20092"/>
<feColorMatrix type="matrix" values="0 0 0 0 0.258824 0 0 0 0 0.627451 0 0 0 0 0.941176 0 0 0 0.596 0"/>
<feBlend mode="normal" in2="BackgroundImageFix" result="effect1_dropShadow_19_1518"/>
<feBlend mode="normal" in="SourceGraphic" in2="effect1_dropShadow_19_1518" result="shape"/>
<feGaussianBlur stdDeviation="0.160122" result="effect2_foregroundBlur_19_1518"/>
</filter>
<filter id="filter2_d_19_1518" x="0.617038" y="0.256456" width="67.5737" height="39.6577" filterUnits="userSpaceOnUse" color-interpolation-filters="sRGB">
<feFlood flood-opacity="0" result="BackgroundImageFix"/>
<feColorMatrix in="SourceAlpha" type="matrix" values="0 0 0 0 0 0 0 0 0 0 0 0 0 0 0 0 0 0 127 0" result="hardAlpha"/>
<feOffset dx="0.800612" dy="0.160122"/>
<feGaussianBlur stdDeviation="1.20092"/>
<feColorMatrix type="matrix" values="0 0 0 0 0.501961 0 0 0 0 0.501961 0 0 0 0 0.501961 0 0 0 0.302 0"/>
<feBlend mode="normal" in2="BackgroundImageFix" result="effect1_dropShadow_19_1518"/>
<feBlend mode="normal" in="SourceGraphic" in2="effect1_dropShadow_19_1518" result="shape"/>
</filter>
<linearGradient id="paint0_linear_19_1518" x1="27.64" y1="6.88977" x2="37.8377" y2="39.9559" gradientUnits="userSpaceOnUse">
<stop stop-color="white" stop-opacity="0.596"/>
<stop offset="1" stop-color="#F7F7F7" stop-opacity="0.204"/>
</linearGradient>
</defs>
</svg>
