<svg width="70" height="54" viewBox="0 0 70 54" fill="none" xmlns="http://www.w3.org/2000/svg">
<g filter="url(#filter0_f_19_1046)">
<path d="M22.8382 40.7804C23.2723 40.7853 27.6717 46.9187 27.6717 49.3025C27.6717 50.4472 27.1624 51.545 26.256 52.3544C25.3495 53.1638 24.1201 53.6185 22.8382 53.6185C21.5562 53.6185 20.3268 53.1638 19.4203 52.3544C18.5139 51.545 18.0046 50.4472 18.0046 49.3025C18.0046 46.9187 22.4044 40.7762 22.8382 40.7804Z" fill="#42A0F0"/>
<path d="M19.1526 50.9159C19.6356 51.0477 20.2494 50.5053 20.5237 49.7044C20.7979 48.9035 20.6287 48.1473 20.1457 48.0155C19.6628 47.8836 19.0489 48.426 18.7747 49.227C18.5005 50.0279 18.6697 50.7841 19.1526 50.9159Z" fill="white"/>
<path d="M49.4234 40.7804C49.8575 40.7853 54.2569 46.9187 54.2569 49.3025C54.2569 50.4472 53.7476 51.545 52.8412 52.3544C51.9347 53.1638 50.7053 53.6185 49.4234 53.6185C48.1414 53.6185 46.912 53.1638 46.0055 52.3544C45.0991 51.545 44.5898 50.4472 44.5898 49.3025C44.5898 46.9187 48.9896 40.7762 49.4234 40.7804Z" fill="#42A0F0"/>
<path d="M45.7378 50.9159C46.2208 51.0477 46.8346 50.5053 47.1089 49.7044C47.3831 48.9035 47.2139 48.1473 46.7309 48.0155C46.248 47.8836 45.6341 48.426 45.3599 49.227C45.0857 50.0279 45.2549 50.7841 45.7378 50.9159Z" fill="white"/>
<path d="M35.1277 32.6884C35.5618 32.6933 39.9612 38.8267 39.9612 41.2105C39.9612 42.3551 39.452 43.4529 38.5455 44.2623C37.6391 45.0717 36.4096 45.5264 35.1277 45.5264C33.8458 45.5264 32.6164 45.0717 31.7099 44.2623C30.8034 43.4529 30.2942 42.3551 30.2942 41.2105C30.2942 38.8267 34.694 32.6841 35.1277 32.6884Z" fill="#42A0F0"/>
<path d="M31.4424 42.8239C31.9254 42.9557 32.5392 42.4133 32.8135 41.6124C33.0877 40.8114 32.9185 40.0553 32.4355 39.9234C31.9526 39.7916 31.3387 40.334 31.0645 41.1349C30.7903 41.9358 30.9595 42.692 31.4424 42.8239Z" fill="white"/>
</g>
<g filter="url(#filter1_f_19_1046)">
<path d="M17.9961 28.9161C25.6877 28.9161 31.9231 23.3485 31.9231 16.4804C31.9231 9.61234 25.6877 4.04468 17.9961 4.04468C10.3044 4.04468 4.06909 9.61234 4.06909 16.4804C4.06909 23.3485 10.3044 28.9161 17.9961 28.9161Z" fill="#FA9E42"/>
</g>
<g filter="url(#filter2_f_19_1046)">
<path fill-rule="evenodd" clip-rule="evenodd" d="M17.9574 0.768105L17.9965 0.768066L18.0356 0.768105C18.2567 0.768536 18.4355 0.948109 18.4351 1.16919C18.4347 1.39027 18.2551 1.56915 18.034 1.56871L17.9965 1.56868L17.959 1.56871C17.7379 1.56915 17.5583 1.39027 17.5579 1.16919C17.5575 0.948109 17.7363 0.768536 17.9574 0.768105ZM22.6175 1.72631C22.6755 1.51298 22.8955 1.38712 23.1089 1.44519L23.1836 1.4657C23.3967 1.52464 23.5217 1.74515 23.4627 1.95823C23.4038 2.17132 23.1833 2.29628 22.9702 2.23734L22.8986 2.21769C22.6853 2.15963 22.5594 1.93963 22.6175 1.72631ZM13.3755 1.72631C13.4336 1.93963 13.3077 2.15963 13.0944 2.21769L13.0228 2.23734C12.8097 2.29628 12.5892 2.17132 12.5303 1.95823C12.4713 1.74515 12.5963 1.52464 12.8094 1.4657L12.8841 1.44519C13.0975 1.38712 13.3175 1.51299 13.3755 1.72631ZM8.65754 3.63084C8.77291 3.81943 8.71356 4.06585 8.52497 4.18122L8.46144 4.22028C8.27336 4.33648 8.02669 4.2782 7.91049 4.09012C7.79429 3.90204 7.85256 3.65537 8.04064 3.53917L8.10716 3.49827C8.29575 3.3829 8.54216 3.44225 8.65754 3.63084ZM27.3355 3.63084C27.4508 3.44225 27.6972 3.3829 27.8858 3.49827L27.9523 3.53917C28.1404 3.65537 28.1987 3.90204 28.0825 4.09012C27.9663 4.2782 27.7196 4.33648 27.5315 4.22028L27.468 4.18122C27.2794 4.06585 27.2201 3.81943 27.3355 3.63084ZM4.69073 6.81294C4.85778 6.95776 4.87579 7.21058 4.73097 7.37763L4.68252 7.43379C4.53851 7.60153 4.28578 7.62077 4.11804 7.47676C3.95029 7.33275 3.93105 7.08002 4.07506 6.91227L4.12604 6.85318C4.27087 6.68614 4.52368 6.66812 4.69073 6.81294ZM31.3023 6.81294C31.4693 6.66812 31.7221 6.68614 31.8669 6.85318L31.9179 6.91227C32.0619 7.08002 32.0427 7.33275 31.875 7.47676C31.7072 7.62077 31.4545 7.60153 31.3105 7.43379L31.262 7.37763C31.1172 7.21058 31.1352 6.95776 31.3023 6.81294ZM1.93792 11.0829C2.14397 11.163 2.24606 11.395 2.16593 11.6011L2.1393 11.6701C2.06029 11.8766 1.82885 11.9799 1.62237 11.9009C1.41588 11.8219 1.31255 11.5905 1.39156 11.384L1.41975 11.3109C1.49987 11.1048 1.73187 11.0028 1.93792 11.0829ZM34.0551 11.0829C34.2611 11.0028 34.4931 11.1048 34.5732 11.3109L34.6014 11.384C34.6804 11.5905 34.5771 11.8219 34.3706 11.9009C34.1641 11.9799 33.9327 11.8766 33.8537 11.6701L33.8271 11.6011C33.7469 11.395 33.849 11.163 34.0551 11.0829ZM0.849454 16.0418C1.07054 16.0424 1.24927 16.2221 1.24866 16.4432L1.24861 16.4804L1.24866 16.5176C1.24927 16.7387 1.07054 16.9184 0.849454 16.919C0.628372 16.9196 0.448658 16.7409 0.448052 16.5198L0.447998 16.4804L0.448052 16.441C0.448658 16.2199 0.628372 16.0412 0.849454 16.0418ZM35.1435 16.0418C35.3646 16.0412 35.5443 16.2199 35.5449 16.441L35.545 16.4804L35.5449 16.5198C35.5443 16.7409 35.3646 16.9196 35.1435 16.919C34.9225 16.9184 34.7437 16.7387 34.7443 16.5176L34.7444 16.4804L34.7443 16.4432C34.7437 16.2221 34.9225 16.0424 35.1435 16.0418ZM1.62237 21.0599C1.82885 20.9809 2.06029 21.0842 2.1393 21.2907L2.16593 21.3597C2.24606 21.5658 2.14397 21.7978 1.93792 21.8779C1.73187 21.958 1.49987 21.8559 1.41975 21.6499L1.39156 21.5768C1.31255 21.3703 1.41588 21.1389 1.62237 21.0599ZM34.3706 21.0599C34.5771 21.1389 34.6804 21.3703 34.6014 21.5768L34.5732 21.6499C34.4931 21.8559 34.2611 21.958 34.0551 21.8779C33.849 21.7978 33.7469 21.5658 33.8271 21.3597L33.8537 21.2907C33.9327 21.0842 34.1641 20.9809 34.3706 21.0599ZM4.11804 25.484C4.28578 25.34 4.53851 25.3592 4.68252 25.527L4.73097 25.5832C4.87579 25.7502 4.85778 26.003 4.69073 26.1478C4.52368 26.2927 4.27087 26.2746 4.12604 26.1076L4.07506 26.0485C3.93105 25.8808 3.95029 25.628 4.11804 25.484ZM31.875 25.484C32.0427 25.628 32.0619 25.8808 31.9179 26.0485L31.8669 26.1076C31.7221 26.2746 31.4693 26.2927 31.3023 26.1478C31.1352 26.003 31.1172 25.7502 31.262 25.5832L31.3105 25.527C31.4545 25.3592 31.7072 25.34 31.875 25.484ZM7.91049 28.8707C8.02669 28.6826 8.27336 28.6243 8.46144 28.7405L8.52497 28.7796C8.71356 28.8949 8.77291 29.1413 8.65754 29.3299C8.54216 29.5185 8.29575 29.5779 8.10716 29.4625L8.04064 29.4216C7.85256 29.3054 7.79429 29.0587 7.91049 28.8707ZM28.0825 28.8707C28.1987 29.0587 28.1404 29.3054 27.9523 29.4216L27.8858 29.4625C27.6972 29.5779 27.4508 29.5185 27.3354 29.3299C27.2201 29.1413 27.2794 28.8949 27.468 28.7796L27.5315 28.7405C27.7196 28.6243 27.9663 28.6826 28.0825 28.8707ZM12.5303 31.0025C12.5892 30.7895 12.8097 30.6645 13.0228 30.7234L13.0944 30.7431C13.3077 30.8012 13.4336 31.0212 13.3755 31.2345C13.3175 31.4478 13.0975 31.5737 12.8841 31.5156L12.8094 31.4951C12.5963 31.4361 12.4713 31.2156 12.5303 31.0025ZM23.4627 31.0025C23.5217 31.2156 23.3967 31.4361 23.1836 31.4951L23.1089 31.5156C22.8955 31.5737 22.6755 31.4478 22.6175 31.2345C22.5594 31.0212 22.6853 30.8011 22.8986 30.7431L22.9702 30.7234C23.1833 30.6645 23.4038 30.7895 23.4627 31.0025ZM17.5579 31.7916C17.5583 31.5705 17.7379 31.3916 17.959 31.3921L17.9965 31.3921L18.034 31.3921C18.2551 31.3916 18.4347 31.5705 18.4351 31.7916C18.4355 32.0127 18.2567 32.1922 18.0356 32.1927L17.9965 32.1927L17.9574 32.1927C17.7363 32.1922 17.5575 32.0127 17.5579 31.7916Z" fill="#FA9E42"/>
</g>
<g filter="url(#filter3_f_19_1046)">
<path d="M16.5126 13.9973C21.3903 11.6839 24.1496 7.79968 22.6755 5.32157C21.2014 2.84346 16.0523 2.70991 11.1745 5.02329C6.29674 7.33667 3.5375 11.2209 5.01157 13.6991C6.48564 16.1772 11.6348 16.3107 16.5126 13.9973Z" fill="#F8E36F"/>
</g>
<g filter="url(#filter4_df_19_1046)">
<g filter="url(#filter5_d_19_1046)">
<path d="M44.5882 41.9042C44.2219 41.9305 43.852 41.9437 43.4784 41.944H17.42C15.6263 41.9499 13.849 41.6396 12.1899 41.0308C10.5308 40.4221 9.02265 39.5268 7.75195 38.3964C6.48124 37.266 5.47299 35.9227 4.78503 34.4435C4.09706 32.9644 3.74292 31.3785 3.74292 29.7768C3.74292 28.1752 4.09706 26.5893 4.78503 25.1102C5.47299 23.631 6.48124 22.2877 7.75195 21.1573C9.02265 20.0269 10.5308 19.1316 12.1899 18.5228C13.849 17.914 15.6263 17.6037 17.42 17.6097H27.1359C30.2859 11.4214 37.5406 7.09009 45.9864 7.09009C57.3226 7.09009 66.5125 14.8924 66.5125 24.517C66.5125 34.1416 57.3226 41.944 45.9864 41.944C45.5165 41.944 45.0504 41.9307 44.5882 41.9042Z" fill="url(#paint0_linear_19_1046)"/>
<path d="M45.9866 41.7748C47.3671 41.7748 48.7467 41.6567 50.0871 41.4238C51.3932 41.1969 52.678 40.8583 53.9056 40.4175C55.1108 39.9847 56.2732 39.449 57.3605 38.8253C58.4374 38.2077 59.45 37.4984 60.3702 36.7171C61.2903 35.936 62.1255 35.0765 62.8528 34.1625C63.5868 33.2401 64.2173 32.2539 64.7266 31.2316C65.2453 30.1905 65.6436 29.101 65.9105 27.9935C66.1844 26.8571 66.3233 25.6874 66.3233 24.517C66.3233 23.3465 66.1844 22.1769 65.9105 21.0405C65.6436 19.9329 65.2453 18.8435 64.7266 17.8024C64.2173 16.7801 63.5868 15.794 62.8528 14.8715C62.1255 13.9575 61.2903 13.0981 60.3702 12.3169C59.45 11.5357 58.4374 10.8264 57.3605 10.2087C56.2732 9.58504 55.1108 9.04936 53.9056 8.61657C52.678 8.17573 51.3932 7.83714 50.0871 7.61022C48.7467 7.37736 47.3671 7.25928 45.9866 7.25928C41.9372 7.25928 38.0264 8.26638 34.6771 10.1717C33.0626 11.0901 31.6118 12.1987 30.365 13.4666C29.1103 14.7426 28.082 16.16 27.3085 17.6797L27.258 17.7788H27.136H17.4202C15.6061 17.7788 13.8465 18.096 12.19 18.7216C11.3939 19.0223 10.626 19.3945 9.9077 19.8278C9.19616 20.257 8.52706 20.75 7.91897 21.293C7.31088 21.836 6.75881 22.4334 6.2781 23.0688C5.79282 23.7102 5.37602 24.3958 5.03928 25.1067C4.33867 26.5858 3.98343 28.157 3.98343 29.7768C3.98343 31.3966 4.33867 32.9678 5.03928 34.4469C5.37602 35.1578 5.79282 35.8435 6.2781 36.4849C6.75881 37.1202 7.31088 37.7177 7.91897 38.2606C8.52706 38.8036 9.19616 39.2966 9.9077 39.7258C10.626 40.1591 11.3939 40.5313 12.19 40.832C13.8465 41.4576 15.6061 41.7748 17.4202 41.7748H43.4787C43.843 41.7748 44.2113 41.7616 44.5733 41.7355L44.587 41.7346L44.6006 41.7353C45.0591 41.7615 45.5253 41.7748 45.9866 41.7748ZM45.9866 41.944C45.5168 41.944 45.0505 41.9306 44.5885 41.9042C44.2227 41.9305 43.8521 41.944 43.4787 41.944H17.4202C9.89464 41.944 3.79395 36.4965 3.79395 29.7768C3.79395 23.0571 9.89464 17.6096 17.4202 17.6096H27.136C30.2861 11.4207 37.5404 7.09009 45.9866 7.09009C57.3228 7.09009 66.5128 14.8925 66.5128 24.517C66.5128 34.1416 57.3228 41.944 45.9866 41.944Z" fill="white" fill-opacity="0.5"/>
</g>
</g>
<defs>
<filter id="filter0_f_19_1046" x="17.6844" y="32.3681" width="36.8927" height="21.5705" filterUnits="userSpaceOnUse" color-interpolation-filters="sRGB">
<feFlood flood-opacity="0" result="BackgroundImageFix"/>
<feBlend mode="normal" in="SourceGraphic" in2="BackgroundImageFix" result="shape"/>
<feGaussianBlur stdDeviation="0.160122" result="effect1_foregroundBlur_19_1046"/>
</filter>
<filter id="filter1_f_19_1046" x="3.74885" y="3.72443" width="28.4945" height="25.5119" filterUnits="userSpaceOnUse" color-interpolation-filters="sRGB">
<feFlood flood-opacity="0" result="BackgroundImageFix"/>
<feBlend mode="normal" in="SourceGraphic" in2="BackgroundImageFix" result="shape"/>
<feGaussianBlur stdDeviation="0.160122" result="effect1_foregroundBlur_19_1046"/>
</filter>
<filter id="filter2_f_19_1046" x="0.287876" y="0.607944" width="35.4172" height="31.7449" filterUnits="userSpaceOnUse" color-interpolation-filters="sRGB">
<feFlood flood-opacity="0" result="BackgroundImageFix"/>
<feBlend mode="normal" in="SourceGraphic" in2="BackgroundImageFix" result="shape"/>
<feGaussianBlur stdDeviation="0.0800612" result="effect1_foregroundBlur_19_1046"/>
</filter>
<filter id="filter3_f_19_1046" x="3.01352" y="1.77072" width="21.6602" height="15.4792" filterUnits="userSpaceOnUse" color-interpolation-filters="sRGB">
<feFlood flood-opacity="0" result="BackgroundImageFix"/>
<feBlend mode="normal" in="SourceGraphic" in2="BackgroundImageFix" result="shape"/>
<feGaussianBlur stdDeviation="0.800612" result="effect1_foregroundBlur_19_1046"/>
</filter>
<filter id="filter4_df_19_1046" x="2.1417" y="4.84838" width="67.5734" height="39.6577" filterUnits="userSpaceOnUse" color-interpolation-filters="sRGB">
<feFlood flood-opacity="0" result="BackgroundImageFix"/>
<feColorMatrix in="SourceAlpha" type="matrix" values="0 0 0 0 0 0 0 0 0 0 0 0 0 0 0 0 0 0 127 0" result="hardAlpha"/>
<feOffset dx="0.800612" dy="0.160122"/>
<feGaussianBlur stdDeviation="1.20092"/>
<feColorMatrix type="matrix" values="0 0 0 0 0.258824 0 0 0 0 0.627451 0 0 0 0 0.941176 0 0 0 0.596 0"/>
<feBlend mode="normal" in2="BackgroundImageFix" result="effect1_dropShadow_19_1046"/>
<feBlend mode="normal" in="SourceGraphic" in2="effect1_dropShadow_19_1046" result="shape"/>
<feGaussianBlur stdDeviation="0.160122" result="effect2_foregroundBlur_19_1046"/>
</filter>
<filter id="filter5_d_19_1046" x="2.1417" y="4.84838" width="67.5734" height="39.6577" filterUnits="userSpaceOnUse" color-interpolation-filters="sRGB">
<feFlood flood-opacity="0" result="BackgroundImageFix"/>
<feColorMatrix in="SourceAlpha" type="matrix" values="0 0 0 0 0 0 0 0 0 0 0 0 0 0 0 0 0 0 127 0" result="hardAlpha"/>
<feOffset dx="0.800612" dy="0.160122"/>
<feGaussianBlur stdDeviation="1.20092"/>
<feColorMatrix type="matrix" values="0 0 0 0 0.501961 0 0 0 0 0.501961 0 0 0 0 0.501961 0 0 0 0.302 0"/>
<feBlend mode="normal" in2="BackgroundImageFix" result="effect1_dropShadow_19_1046"/>
<feBlend mode="normal" in="SourceGraphic" in2="effect1_dropShadow_19_1046" result="shape"/>
</filter>
<linearGradient id="paint0_linear_19_1046" x1="29.1646" y1="11.4817" x2="39.3623" y2="44.5478" gradientUnits="userSpaceOnUse">
<stop stop-color="white" stop-opacity="0.596"/>
<stop offset="1" stop-color="#F7F7F7" stop-opacity="0.204"/>
</linearGradient>
</defs>
</svg>
