<svg width="59" height="36" viewBox="0 0 59 36" fill="none" xmlns="http://www.w3.org/2000/svg">
<g filter="url(#filter0_f_19_2051)">
<path fill-rule="evenodd" clip-rule="evenodd" d="M47.5059 12.4734C46.8815 11.9383 46.2022 11.5458 45.6458 11.5584C45.1092 11.5705 44.6982 11.9116 44.0587 12.4824C44.0475 12.4924 44.0361 12.5025 44.0247 12.5127C43.4581 13.0189 42.6882 13.7065 41.5836 13.7241L41.5586 13.7245L41.5336 13.723C40.3237 13.6478 39.6502 12.9461 39.1519 12.4269L39.1346 12.4089C38.6226 11.8756 38.3114 11.5757 37.7488 11.5591C37.1987 11.6071 36.8644 11.9291 36.332 12.4622L36.3301 12.4641C35.8193 12.9756 35.134 13.6618 33.9615 13.7233C33.4365 13.7501 32.9289 13.568 32.5031 13.3425C32.0697 13.1129 31.663 12.8078 31.3211 12.5151C30.9769 12.2205 30.6834 11.9255 30.4766 11.7052C30.3728 11.5946 30.2897 11.5018 30.232 11.4357C30.2031 11.4027 30.1805 11.3762 30.1646 11.3576L30.1461 11.3356L30.1407 11.3292L30.1391 11.3272L30.1383 11.3262C30.1382 11.3261 30.1381 11.326 30.6269 10.9221L30.1383 11.3262C29.913 11.0535 29.9512 10.6496 30.2239 10.4243C30.4965 10.1991 30.9 10.2374 31.1253 10.5098C31.1253 10.5097 31.1254 10.5098 31.1253 10.5098L31.1284 10.5134L31.1413 10.5288C31.1533 10.5429 31.1718 10.5645 31.1964 10.5925C31.2454 10.6487 31.3182 10.7302 31.4105 10.8284C31.5957 11.0257 31.8551 11.286 32.1542 11.542C32.4556 11.8 32.7825 12.0409 33.1027 12.2105C33.4303 12.384 33.6969 12.4541 33.8949 12.4441C34.5331 12.4104 34.9086 12.0747 35.4256 11.5571C35.4475 11.5351 35.4697 11.5128 35.4923 11.49C35.9728 11.0066 36.6213 10.3541 37.6854 10.2791L37.7122 10.2773L37.739 10.2776C38.8816 10.2929 39.5328 10.9728 40.0139 11.475C40.029 11.4908 40.0439 11.5063 40.0586 11.5217C40.5578 12.0416 40.9223 12.3932 41.5875 12.4427C42.1558 12.4242 42.589 12.0771 43.2058 11.5267C43.2299 11.5051 43.2544 11.4831 43.2794 11.4608C43.8286 10.9687 44.5733 10.3014 45.6168 10.2777C46.6879 10.2534 47.6897 10.9438 48.3395 11.5007C48.6831 11.7952 48.9696 12.0889 49.1699 12.3082C49.2705 12.4183 49.3504 12.5108 49.4059 12.5768C49.4336 12.6098 49.4554 12.6363 49.4707 12.6551L49.4887 12.6774L49.4939 12.684L49.4956 12.6861L49.4965 12.6872C49.4966 12.6873 49.4967 12.6874 49.0141 13.0675L49.4965 12.6872C49.7153 12.9651 49.6677 13.368 49.3898 13.5869C49.112 13.8057 48.7094 13.7579 48.4905 13.4802L48.4883 13.4774L48.4766 13.4629C48.4656 13.4495 48.4485 13.4286 48.4257 13.4015C48.38 13.3472 48.3116 13.2679 48.2241 13.1721C48.0483 12.9796 47.7994 12.7249 47.5059 12.4734ZM31.1253 10.5098C31.1254 10.5098 31.1247 10.5108 30.6319 10.918L31.1253 10.5098C31.1254 10.5098 31.1253 10.5097 31.1253 10.5098Z" fill="white"/>
</g>
<g filter="url(#filter1_f_19_2051)">
<path fill-rule="evenodd" clip-rule="evenodd" d="M55.2118 26.0792C54.2833 25.5508 53.1397 25.0782 52.0879 25.094C51.0559 25.1095 50.3095 25.5488 49.3948 26.091C48.4974 26.6229 47.4493 27.2441 45.9748 27.2597L45.9582 27.2599L45.9416 27.2592C44.3181 27.1922 43.4071 26.5669 42.6273 26.0276C41.8865 25.5153 41.298 25.1083 40.1936 25.0942C39.1481 25.1474 38.5354 25.5549 37.7792 26.0577L37.7479 26.0785C36.9525 26.6074 36.0281 27.2053 34.4779 27.2593C33.1998 27.3026 31.8251 26.6804 30.8408 26.1209C30.3338 25.8326 29.8994 25.5428 29.5918 25.3252C29.4377 25.2162 29.3145 25.1246 29.229 25.0597C29.1862 25.0272 29.1527 25.0012 29.1295 24.9831L29.1024 24.9617L29.0947 24.9556L29.0924 24.9538L29.0914 24.9529C29.0913 24.9528 29.0911 24.9527 29.491 24.4554L29.0914 24.9529C28.8157 24.7313 28.7717 24.3279 28.9933 24.0522M29.8936 23.9542C29.8936 23.9542 29.8936 23.9543 29.8936 23.9542L29.8987 23.9583L29.9191 23.9743C29.9377 23.9889 29.9662 24.0111 30.0039 24.0396C30.0792 24.0968 30.1906 24.1797 30.3316 24.2794C30.6143 24.4794 31.0124 24.7449 31.4739 25.0073C32.4268 25.549 33.5341 26.0095 34.4336 25.9791C35.6118 25.938 36.2857 25.5124 37.0387 25.0118C37.0626 24.9959 37.0866 24.9799 37.1108 24.9638C37.8672 24.46 38.7382 23.88 40.1514 23.8138L40.1692 23.8129L40.1871 23.8131C41.6973 23.8265 42.5626 24.4252 43.3245 24.9523L43.3559 24.974C44.0872 25.4798 44.7434 25.9239 45.9777 25.9786C47.0653 25.9627 47.8438 25.5213 48.7417 24.989C48.7654 24.975 48.7892 24.9608 48.8132 24.9466C49.682 24.4311 50.6882 23.8339 52.0686 23.8132C53.4672 23.7921 54.855 24.4022 55.8453 24.9658C56.3503 25.2532 56.7736 25.5411 57.0712 25.7575C57.2203 25.8659 57.3387 25.9569 57.4208 26.0217C57.4619 26.0542 57.494 26.0801 57.5163 26.0984L57.5426 26.12L57.5501 26.1263L57.5525 26.1282L57.5533 26.1289C57.5534 26.129 57.5539 26.1294 57.141 26.6191L57.5533 26.1289C57.8238 26.3569 57.8587 26.7615 57.6307 27.0319C57.4028 27.3023 56.999 27.3367 56.7285 27.109C56.7285 27.109 56.7286 27.1091 56.7285 27.109L56.7243 27.1055L56.7059 27.0903C56.6888 27.0764 56.6624 27.055 56.6272 27.0273C56.5569 26.9718 56.452 26.8911 56.3179 26.7936C56.0491 26.5981 55.6662 26.3378 55.2118 26.0792" fill="white"/>
</g>
<g filter="url(#filter2_f_19_2051)">
<path fill-rule="evenodd" clip-rule="evenodd" d="M39.2955 33.6928C38.3671 33.1644 37.2235 32.6918 36.1716 32.7076C35.1396 32.7232 34.3933 33.1625 33.4786 33.7046C32.5811 34.2366 31.533 34.8577 30.0585 34.8733L30.0419 34.8735L30.0253 34.8728C28.4018 34.8058 27.4909 34.1806 26.7111 33.6412C25.9703 33.1289 25.3818 32.722 24.2773 32.7079C23.2319 32.7611 22.6191 33.1686 21.8629 33.6714L21.8316 33.6922C21.0362 34.221 20.1118 34.819 18.5616 34.873C17.2835 34.9163 15.9088 34.2941 14.9246 33.7345C14.4175 33.4462 13.9832 33.1565 13.6756 32.9389C13.5214 32.8298 13.3982 32.7383 13.3127 32.6733C13.2699 32.6408 13.2365 32.6149 13.2133 32.5967L13.1861 32.5753L13.1785 32.5693L13.1762 32.5674L13.1751 32.5666C13.175 32.5665 13.1749 32.5664 13.5747 32.0691L13.1751 32.5666C12.8994 32.3449 12.8554 31.9416 13.077 31.6659M13.9773 31.5679C13.9773 31.5679 13.9774 31.5679 13.9773 31.5679L13.9824 31.5719L14.0028 31.588C14.0214 31.6026 14.05 31.6247 14.0876 31.6533C14.1629 31.7105 14.2743 31.7933 14.4153 31.8931C14.6981 32.0931 15.0962 32.3586 15.5577 32.6209C16.5105 33.1626 17.6178 33.6232 18.5174 33.5928C19.6955 33.5516 20.3695 33.126 21.1225 32.6254C21.1464 32.6095 21.1704 32.5935 21.1945 32.5775C21.951 32.0737 22.8219 31.4936 24.2352 31.4274L24.253 31.4266L24.2708 31.4268C25.7811 31.4402 26.6464 32.0388 27.4083 32.5659L27.4397 32.5877C28.1709 33.0934 28.8271 33.5375 30.0614 33.5922C31.149 33.5764 31.9275 33.1349 32.8254 32.6027C32.8491 32.5886 32.873 32.5745 32.8969 32.5603C33.7657 32.0447 34.772 31.4476 36.1524 31.4268C37.5509 31.4057 38.9387 32.0159 39.9291 32.5795C40.434 32.8669 40.8574 33.1548 41.1549 33.3711C41.304 33.4795 41.4224 33.5706 41.5045 33.6354C41.5456 33.6678 41.5777 33.6937 41.6001 33.712L41.6264 33.7336L41.6339 33.7399L41.6362 33.7419L41.637 33.7426C41.6372 33.7427 41.6376 33.743 41.2248 34.2327L41.637 33.7426C41.9075 33.9706 41.9425 34.3751 41.7145 34.6456C41.4866 34.9159 41.0827 34.9504 40.8123 34.7227C40.8123 34.7227 40.8123 34.7227 40.8123 34.7227L40.8081 34.7192L40.7896 34.704C40.7725 34.69 40.7461 34.6687 40.711 34.6409C40.6407 34.5855 40.5358 34.5047 40.4017 34.4072C40.1329 34.2118 39.7499 33.9514 39.2955 33.6928" fill="white"/>
</g>
<g filter="url(#filter3_f_19_2051)">
<path fill-rule="evenodd" clip-rule="evenodd" d="M42.2483 17.6393C42.3072 17.7053 42.3014 17.8065 42.2355 17.8654L40.9091 19.0497C40.8431 19.1086 40.7419 19.1029 40.683 19.0369C40.6241 18.971 40.6298 18.8698 40.6958 18.8109L42.0222 17.6265C42.0882 17.5676 42.1894 17.5733 42.2483 17.6393Z" fill="#CAD1D2"/>
<path fill-rule="evenodd" clip-rule="evenodd" d="M40.683 17.6393C40.7419 17.5733 40.8431 17.5676 40.9091 17.6265L42.2355 18.8109C42.3014 18.8698 42.3072 18.971 42.2483 19.0369C42.1894 19.1029 42.0882 19.1086 42.0222 19.0497L40.6958 17.8654C40.6298 17.8065 40.6241 17.7053 40.683 17.6393Z" fill="#CAD1D2"/>
<path fill-rule="evenodd" clip-rule="evenodd" d="M53.0525 31.344C53.1114 31.41 53.1057 31.5112 53.0398 31.5701L52.0885 32.4194C52.0226 32.4783 51.9214 32.4726 51.8625 32.4067C51.8036 32.3407 51.8093 32.2395 51.8753 32.1806L52.8265 31.3312C52.8924 31.2723 52.9936 31.278 53.0525 31.344Z" fill="#42A0F0"/>
<path fill-rule="evenodd" clip-rule="evenodd" d="M51.8625 31.344C51.9214 31.278 52.0226 31.2723 52.0885 31.3312L53.0398 32.1806C53.1057 32.2395 53.1114 32.3407 53.0525 32.4067C52.9936 32.4726 52.8924 32.4783 52.8265 32.4194L51.8753 31.5701C51.8093 31.5112 51.8036 31.41 51.8625 31.344Z" fill="#42A0F0"/>
<path fill-rule="evenodd" clip-rule="evenodd" d="M12.3138 27.1141C12.3727 27.1801 12.3669 27.2813 12.301 27.3402L11.3498 28.1896C11.2838 28.2485 11.1826 28.2428 11.1237 28.1768C11.0648 28.1108 11.0705 28.0096 11.1365 27.9507L12.0877 27.1014C12.1537 27.0425 12.2549 27.0482 12.3138 27.1141Z" fill="#D0D0D0"/>
<path fill-rule="evenodd" clip-rule="evenodd" d="M11.1237 27.1141C11.1826 27.0482 11.2838 27.0425 11.3498 27.1014L12.301 27.9507C12.3669 28.0096 12.3727 28.1108 12.3138 28.1768C12.2549 28.2428 12.1537 28.2485 12.0877 28.1896L11.1365 27.3402C11.0705 27.2813 11.0648 27.1801 11.1237 27.1141Z" fill="#D0D0D0"/>
<path fill-rule="evenodd" clip-rule="evenodd" d="M51.3472 7.1493C51.4061 7.21526 51.4004 7.31649 51.3344 7.37539L50.3832 8.22474C50.3173 8.28364 50.216 8.27791 50.1571 8.21195C50.0982 8.14599 50.104 8.04476 50.1699 7.98586L51.1211 7.13651C51.1871 7.07761 51.2883 7.08334 51.3472 7.1493Z" fill="#42A0F0"/>
<path fill-rule="evenodd" clip-rule="evenodd" d="M50.1571 7.1493C50.216 7.08334 50.3173 7.07761 50.3832 7.13651L51.3344 7.98586C51.4004 8.04476 51.4061 8.14599 51.3472 8.21195C51.2883 8.27791 51.1871 8.28364 51.1211 8.22474L50.1699 7.37539C50.104 7.31649 50.0982 7.21526 50.1571 7.1493Z" fill="#42A0F0"/>
</g>
<g filter="url(#filter4_f_19_2051)">
<path d="M13.7222 23.7483C19.5991 24.3595 25.0352 20.4965 25.864 15.1199C26.6929 9.74343 22.6007 4.88942 16.7238 4.27821C10.8469 3.66699 5.41083 7.53003 4.58196 12.9065C3.75309 18.2831 7.84531 23.1371 13.7222 23.7483Z" fill="#FA9E42"/>
</g>
<g filter="url(#filter5_f_19_2051)">
<path fill-rule="evenodd" clip-rule="evenodd" d="M17.2649 1.80198L17.3022 1.80573L17.3395 1.80958C17.5593 1.8326 17.707 2.0281 17.6693 2.24626C17.6315 2.46441 17.4227 2.6226 17.2028 2.59958L17.1676 2.59594L17.1324 2.5924C16.9124 2.57053 16.7636 2.37586 16.8002 2.15759C16.8368 1.93932 17.0448 1.78011 17.2649 1.80198ZM21.4333 3.33908C21.5454 3.14265 21.7926 3.06259 21.9856 3.16025L22.0505 3.19335C22.2428 3.2921 22.307 3.53094 22.1939 3.72682C22.0807 3.9227 21.8331 4.00145 21.6408 3.90271L21.5797 3.87157C21.3868 3.77391 21.3213 3.5355 21.4333 3.33908ZM12.7988 2.45822C12.8413 2.67041 12.6982 2.88752 12.4791 2.94315L12.4097 2.96099C12.1909 3.01779 11.9781 2.89207 11.9344 2.68019C11.8908 2.46831 12.0327 2.2505 12.2515 2.1937L12.3253 2.17474C12.5443 2.11911 12.7563 2.24602 12.7988 2.45822ZM25.2115 6.11071C25.3868 5.96415 25.6408 5.97764 25.7788 6.14085L25.8252 6.19612C25.9622 6.36018 25.9305 6.61123 25.7544 6.75684C25.5783 6.90246 25.3245 6.88751 25.1875 6.72345L25.1439 6.67162C25.0059 6.5084 25.0362 6.25728 25.2115 6.11071ZM8.22178 4.37748C8.34204 4.5542 8.28718 4.80282 8.09925 4.93278L8.03983 4.97411C7.8526 5.1051 7.60245 5.06863 7.48111 4.89267C7.35976 4.7167 7.41317 4.46787 7.6004 4.33689L7.66376 4.29282C7.85169 4.16286 8.10153 4.20076 8.22178 4.37748ZM27.5478 10.1483C27.7633 10.0777 27.9849 10.1889 28.0429 10.3965L28.0623 10.467C28.119 10.6752 27.9899 10.9001 27.7741 10.9694C27.5583 11.0387 27.3374 10.9261 27.2808 10.718L27.2627 10.6522C27.2047 10.4445 27.3324 10.2189 27.5478 10.1483ZM4.61347 7.80865C4.79793 7.92005 4.8457 8.16355 4.72018 8.35252L4.68066 8.4124C4.5563 8.60207 4.30532 8.66648 4.12008 8.55627C3.93484 8.44606 3.88549 8.20296 4.00985 8.0133L4.05221 7.94911C4.17773 7.76013 4.42902 7.69725 4.61347 7.80865ZM27.9594 14.874C28.1795 14.8958 28.3284 15.0904 28.2919 15.3087L28.2857 15.3458L28.2793 15.383C28.2414 15.6011 28.0325 15.7592 27.8126 15.7361C27.5927 15.713 27.4452 15.5174 27.483 15.2992L27.489 15.2646L27.4948 15.2299C27.5313 15.0116 27.7393 14.8523 27.9594 14.874ZM2.63383 12.2904C2.85371 12.3135 3.00127 12.5091 2.96341 12.7273L2.95745 12.7619L2.9516 12.7966C2.91514 13.0149 2.70714 13.1742 2.48702 13.1525C2.26691 13.1307 2.11804 12.9361 2.1545 12.7178L2.16077 12.6807L2.16716 12.6435C2.20502 12.4254 2.41396 12.2673 2.63383 12.2904ZM26.3264 19.4702C26.5116 19.5804 26.561 19.8235 26.4366 20.0132L26.3942 20.0774C26.2687 20.2664 26.0174 20.3293 25.833 20.2179C25.6485 20.1065 25.6007 19.863 25.7263 19.674L25.7658 19.6141C25.8901 19.4244 26.1411 19.36 26.3264 19.4702ZM2.67236 17.0571C2.88817 16.9878 3.10902 17.1004 3.16563 17.3085L3.18375 17.3743C3.24172 17.582 3.11406 17.8076 2.89861 17.8782C2.68316 17.9488 2.46151 17.8376 2.40354 17.63L2.38411 17.5595C2.3275 17.3513 2.45655 17.1264 2.67236 17.0571ZM4.69206 21.2697C4.86818 21.124 5.12199 21.139 5.25897 21.303L5.30253 21.3549C5.44053 21.5181 5.41028 21.7692 5.23496 21.9158C5.05965 22.0624 4.80566 22.0489 4.66766 21.8856L4.62122 21.8304C4.48423 21.6663 4.51595 21.4153 4.69206 21.2697ZM22.9653 23.1338C23.0867 23.3098 23.0333 23.5586 22.846 23.6896L22.7827 23.7337C22.5948 23.8636 22.3449 23.8257 22.2247 23.649C22.1044 23.4723 22.1593 23.2237 22.3472 23.0937L22.4066 23.0524C22.5938 22.9214 22.844 22.9579 22.9653 23.1338ZM18.512 25.3463C18.5557 25.5582 18.4137 25.776 18.1949 25.8328L18.1211 25.8518C17.9021 25.9074 17.6901 25.7805 17.6476 25.5683C17.6052 25.3561 17.7483 25.139 17.9673 25.0833L18.0368 25.0655C18.2555 25.0087 18.4683 25.1344 18.512 25.3463ZM8.25258 24.2997C8.36571 24.1038 8.61331 24.025 8.80562 24.1238L8.86671 24.1549C9.05964 24.2526 9.12519 24.491 9.01312 24.6874C8.90105 24.8838 8.65381 24.9639 8.46088 24.8663L8.39594 24.8331C8.20364 24.7344 8.13945 24.4956 8.25258 24.2997ZM12.7772 25.7802C12.8149 25.5621 13.0238 25.4039 13.2437 25.4269L13.2788 25.4306L13.314 25.4341C13.5341 25.456 13.6829 25.6506 13.6463 25.8689C13.6097 26.0872 13.4016 26.2464 13.1815 26.2245L13.1443 26.2208L13.107 26.2169C12.8871 26.1939 12.7394 25.9984 12.7772 25.7802Z" fill="#FA9E42"/>
</g>
<g filter="url(#filter6_f_19_2051)">
<path d="M14.3059 11.9014C18.3811 10.5023 21.0061 7.72249 20.1691 5.69247C19.3322 3.66245 15.3501 3.15099 11.2749 4.55009C7.1998 5.94918 4.57475 8.72903 5.41173 10.7591C6.24871 12.7891 10.2308 13.3005 14.3059 11.9014Z" fill="#F8E36F"/>
</g>
<defs>
<filter id="filter0_f_19_2051" x="29.6712" y="9.95685" width="20.2828" height="4.08934" filterUnits="userSpaceOnUse" color-interpolation-filters="sRGB">
<feFlood flood-opacity="0" result="BackgroundImageFix"/>
<feBlend mode="normal" in="SourceGraphic" in2="BackgroundImageFix" result="shape"/>
<feGaussianBlur stdDeviation="0.160122" result="effect1_foregroundBlur_19_2051"/>
</filter>
<filter id="filter1_f_19_2051" x="28.5318" y="23.4924" width="29.5697" height="4.08934" filterUnits="userSpaceOnUse" color-interpolation-filters="sRGB">
<feFlood flood-opacity="0" result="BackgroundImageFix"/>
<feBlend mode="normal" in="SourceGraphic" in2="BackgroundImageFix" result="shape"/>
<feGaussianBlur stdDeviation="0.160122" result="effect1_foregroundBlur_19_2051"/>
</filter>
<filter id="filter2_f_19_2051" x="12.6155" y="31.106" width="29.5697" height="4.08934" filterUnits="userSpaceOnUse" color-interpolation-filters="sRGB">
<feFlood flood-opacity="0" result="BackgroundImageFix"/>
<feBlend mode="normal" in="SourceGraphic" in2="BackgroundImageFix" result="shape"/>
<feGaussianBlur stdDeviation="0.160122" result="effect1_foregroundBlur_19_2051"/>
</filter>
<filter id="filter3_f_19_2051" x="10.9229" y="6.9357" width="42.3305" height="25.6845" filterUnits="userSpaceOnUse" color-interpolation-filters="sRGB">
<feFlood flood-opacity="0" result="BackgroundImageFix"/>
<feBlend mode="normal" in="SourceGraphic" in2="BackgroundImageFix" result="shape"/>
<feGaussianBlur stdDeviation="0.0800612" result="effect1_foregroundBlur_19_2051"/>
</filter>
<filter id="filter4_f_19_2051" x="4.1551" y="3.89435" width="22.1359" height="20.2378" filterUnits="userSpaceOnUse" color-interpolation-filters="sRGB">
<feFlood flood-opacity="0" result="BackgroundImageFix"/>
<feBlend mode="normal" in="SourceGraphic" in2="BackgroundImageFix" result="shape"/>
<feGaussianBlur stdDeviation="0.160122" result="effect1_foregroundBlur_19_2051"/>
</filter>
<filter id="filter5_f_19_2051" x="1.9888" y="1.6398" width="26.4687" height="24.7469" filterUnits="userSpaceOnUse" color-interpolation-filters="sRGB">
<feFlood flood-opacity="0" result="BackgroundImageFix"/>
<feBlend mode="normal" in="SourceGraphic" in2="BackgroundImageFix" result="shape"/>
<feGaussianBlur stdDeviation="0.0800612" result="effect1_foregroundBlur_19_2051"/>
</filter>
<filter id="filter6_f_19_2051" x="3.65488" y="2.16001" width="18.271" height="12.1315" filterUnits="userSpaceOnUse" color-interpolation-filters="sRGB">
<feFlood flood-opacity="0" result="BackgroundImageFix"/>
<feBlend mode="normal" in="SourceGraphic" in2="BackgroundImageFix" result="shape"/>
<feGaussianBlur stdDeviation="0.800612" result="effect1_foregroundBlur_19_2051"/>
</filter>
</defs>
</svg>
