<svg width="70" height="57" viewBox="0 0 70 57" fill="none" xmlns="http://www.w3.org/2000/svg">
<g filter="url(#filter0_f_19_1493)">
<path fill-rule="evenodd" clip-rule="evenodd" d="M19.9654 28.8072L19.9638 28.8027C19.9617 28.7971 19.9582 28.7871 19.9534 28.7731C19.9438 28.7449 19.9293 28.7002 19.9119 28.6403C19.8771 28.5203 19.8309 28.3395 19.7898 28.1075C19.7074 27.6431 19.6457 26.9769 19.7336 26.1845C19.9083 24.609 20.6761 22.5088 23.1122 20.4819C27.9706 16.4397 34.1578 16.806 38.9687 20.0918C39.2321 20.2717 39.6028 20.2315 39.7967 20.0022C39.9906 19.7728 39.9343 19.441 39.671 19.2611C34.4548 15.6985 27.6152 15.2697 22.2901 19.7002C19.6345 21.9097 18.7548 24.2466 18.5549 26.0492C18.4555 26.9457 18.5247 27.7037 18.62 28.2414C18.6678 28.5104 18.7222 28.725 18.7657 28.8752C18.7875 28.9503 18.8066 29.0094 18.8209 29.0513C18.828 29.0722 18.8339 29.0888 18.8383 29.101L18.8438 29.1158L18.8457 29.1207L18.8464 29.1225L18.8467 29.1233C18.8468 29.1236 18.8469 29.1239 19.3825 28.972L18.8469 29.1239C18.9546 29.4019 19.2923 29.5563 19.6011 29.4687C19.9097 29.3812 20.0727 29.0851 19.9654 28.8072Z" fill="#9832E1"/>
<path fill-rule="evenodd" clip-rule="evenodd" d="M17.4927 30.2089C17.1911 30.2808 16.8667 30.1013 16.7681 29.8079C14.771 23.8606 18.6042 16.6876 26.6259 14.6467C30.6305 13.6279 33.7748 14.0723 36.3292 15.1318C38.7418 16.1325 40.5946 17.6714 42.0952 18.9178C42.168 18.9782 42.2399 19.038 42.3111 19.097C42.5591 19.3026 42.5997 19.6486 42.4018 19.8699C42.2039 20.0912 41.8424 20.1039 41.5943 19.8983C41.5322 19.8467 41.4697 19.7949 41.4069 19.7427C39.8884 18.4823 38.168 17.0544 35.9384 16.1296C33.6415 15.1769 30.767 14.7464 26.9992 15.7051C19.476 17.6191 16.0881 24.2695 17.8605 29.5474C17.959 29.8408 17.7943 30.1369 17.4927 30.2089Z" fill="#486BF3"/>
<path fill-rule="evenodd" clip-rule="evenodd" d="M15.5983 22.227C14.6297 24.7154 14.7187 27.3038 15.2017 29.7495C15.2593 30.0411 15.0469 30.3079 14.7273 30.3455C14.4078 30.383 14.102 30.1771 14.0444 29.8855C13.5414 27.3385 13.4287 24.548 14.487 21.829C15.549 19.1008 17.7695 16.4972 21.8278 14.293C30.0122 9.84774 40.1882 12.1995 45.2953 18.9775C45.4825 19.226 45.4191 19.5548 45.1538 19.712C44.8884 19.8692 44.5216 19.7953 44.3344 19.5469C39.6049 13.2699 30.1428 11.0455 22.4692 15.2133C18.5985 17.3157 16.5633 19.7479 15.5983 22.227Z" fill="#74D248"/>
<path fill-rule="evenodd" clip-rule="evenodd" d="M21.0316 13.5595C12.3366 18.4014 11.3572 25.6363 12.739 30.0784C12.828 30.3645 12.6468 30.6506 12.3342 30.7174C12.0216 30.7842 11.6961 30.6064 11.6071 30.3202C10.0958 25.4616 11.2271 17.743 20.38 12.6461C29.5725 7.52714 41.9604 10.2892 48.0476 18.8224C48.2275 19.0746 48.154 19.4012 47.8833 19.5519C47.6127 19.7026 47.2475 19.6203 47.0675 19.3681C41.3431 11.3434 29.6871 8.73957 21.0316 13.5595Z" fill="#EDF000"/>
<path fill-rule="evenodd" clip-rule="evenodd" d="M11.7001 19.6433C9.83361 23.1917 9.56876 27.2917 10.9551 31.5641C11.049 31.8534 10.8752 32.1421 10.567 32.209C10.2588 32.2759 9.93286 32.0957 9.83901 31.8065C8.37527 27.2956 8.64529 22.9209 10.6434 19.1222C12.6399 15.3264 16.3413 12.1435 21.6692 9.96845C32.3901 5.59169 45.6291 9.95506 50.6404 19.3493C50.7862 19.6226 50.6714 19.9381 50.3841 20.0541C50.0968 20.1701 49.7457 20.0425 49.5999 19.7693C44.9154 10.9876 32.4172 6.78579 22.2013 10.9564C17.0608 13.055 13.568 16.0919 11.7001 19.6433Z" fill="#F18431"/>
<path fill-rule="evenodd" clip-rule="evenodd" d="M23.8809 8.39262C12.0361 11.7188 4.78504 21.7772 8.97867 32.6604C9.08213 32.9289 8.94157 33.2096 8.66473 33.2874C8.38788 33.3651 8.07958 33.2105 7.97611 32.942C3.50864 21.3481 11.3056 10.8463 23.5062 7.42027C35.7355 3.98615 48.7213 8.9131 53.1798 20.4836C53.2833 20.7521 53.1427 21.0328 52.8659 21.1105C52.589 21.1882 52.2807 21.0336 52.1772 20.7651C47.9746 9.85846 35.697 5.07453 23.8809 8.39262Z" fill="#DD3930"/>
</g>
<g filter="url(#filter1_df_19_1493)">
<g filter="url(#filter2_d_19_1493)">
<path d="M44.2074 53.8455C43.841 53.8718 43.4711 53.885 43.0976 53.8852H17.0391C15.2455 53.8912 13.4681 53.5809 11.809 52.9721C10.1499 52.3634 8.64179 51.4681 7.37109 50.3377C6.10038 49.2072 5.09213 47.8639 4.40417 46.3848C3.7162 44.9056 3.36206 43.3198 3.36206 41.7181C3.36206 40.1165 3.7162 38.5306 4.40417 37.0514C5.09213 35.5723 6.10038 34.229 7.37109 33.0986C8.64179 31.9682 10.1499 31.0729 11.809 30.4641C13.4681 29.8553 15.2455 29.545 17.0391 29.551H26.7551C29.905 23.3627 37.1598 19.0314 45.6056 19.0314C56.9418 19.0314 66.1317 26.8337 66.1317 36.4583C66.1317 46.0829 56.9418 53.8852 45.6056 53.8852C45.1357 53.8852 44.6696 53.872 44.2074 53.8455Z" fill="url(#paint0_linear_19_1493)"/>
<path d="M45.6059 53.7161C46.9865 53.7161 48.3661 53.598 49.7065 53.3651C51.0126 53.1382 52.2973 52.7996 53.525 52.3588C54.7302 51.926 55.8926 51.3903 56.9799 50.7666C58.0568 50.149 59.0694 49.4396 59.9896 48.6584C60.9096 47.8773 61.7449 47.0178 62.4721 46.1038C63.2062 45.1813 63.8367 44.1952 64.346 43.1728C64.8646 42.1318 65.263 41.0423 65.5299 39.9348C65.8038 38.7984 65.9427 37.6287 65.9427 36.4582C65.9427 35.2878 65.8038 34.1181 65.5299 32.9817C65.263 31.8742 64.8646 30.7848 64.346 29.7437C63.8367 28.7214 63.2062 27.7352 62.4721 26.8128C61.7449 25.8988 60.9096 25.0394 59.9896 24.2582C59.0694 23.477 58.0568 22.7677 56.9799 22.15C55.8926 21.5263 54.7302 20.9906 53.525 20.5579C52.2973 20.117 51.0126 19.7784 49.7065 19.5515C48.3661 19.3186 46.9865 19.2006 45.6059 19.2006C41.5565 19.2006 37.6458 20.2077 34.2964 22.113C32.682 23.0314 31.2312 24.14 29.9844 25.4079C28.7297 26.6838 27.7014 28.1013 26.9279 29.6209L26.8774 29.7201H26.7554H17.0395C15.2255 29.7201 13.4659 30.0373 11.8094 30.6629C11.0133 30.9636 10.2454 31.3358 9.52709 31.7691C8.81555 32.1983 8.14644 32.6913 7.53835 33.2343C6.93026 33.7772 6.3782 34.3747 5.89749 35.01C5.41221 35.6514 4.99541 36.3371 4.65867 37.048C3.95805 38.5271 3.60281 40.0983 3.60281 41.7181C3.60281 43.3379 3.95805 44.9091 4.65867 46.3882C4.99541 47.0991 5.41221 47.7847 5.89749 48.4261C6.3782 49.0615 6.93026 49.6589 7.53835 50.2019C8.14644 50.7449 8.81555 51.2379 9.52709 51.6671C10.2454 52.1004 11.0133 52.4726 11.8094 52.7733C13.4659 53.3989 15.2255 53.7161 17.0395 53.7161H43.0981C43.4624 53.7161 43.8307 53.7029 44.1927 53.6768L44.2063 53.6758L44.22 53.6766C44.6784 53.7028 45.1447 53.7161 45.6059 53.7161ZM45.6059 53.8853C45.1361 53.8853 44.6698 53.8718 44.2079 53.8455C43.8421 53.8718 43.4715 53.8853 43.0981 53.8853H17.0395C9.51403 53.8853 3.41333 48.4378 3.41333 41.7181C3.41333 34.9984 9.51403 29.5509 17.0395 29.5509H26.7554C29.9055 23.362 37.1598 19.0314 45.6059 19.0314C56.9422 19.0314 66.1322 26.8337 66.1322 36.4582C66.1322 46.0829 56.9422 53.8853 45.6059 53.8853Z" fill="white" fill-opacity="0.5"/>
</g>
</g>
<defs>
<filter id="filter0_f_19_1493" x="6.38312" y="6.0268" width="47.151" height="27.6009" filterUnits="userSpaceOnUse" color-interpolation-filters="sRGB">
<feFlood flood-opacity="0" result="BackgroundImageFix"/>
<feBlend mode="normal" in="SourceGraphic" in2="BackgroundImageFix" result="shape"/>
<feGaussianBlur stdDeviation="0.160122" result="effect1_foregroundBlur_19_1493"/>
</filter>
<filter id="filter1_df_19_1493" x="1.76084" y="16.7897" width="67.5737" height="39.6577" filterUnits="userSpaceOnUse" color-interpolation-filters="sRGB">
<feFlood flood-opacity="0" result="BackgroundImageFix"/>
<feColorMatrix in="SourceAlpha" type="matrix" values="0 0 0 0 0 0 0 0 0 0 0 0 0 0 0 0 0 0 127 0" result="hardAlpha"/>
<feOffset dx="0.800612" dy="0.160122"/>
<feGaussianBlur stdDeviation="1.20092"/>
<feColorMatrix type="matrix" values="0 0 0 0 0.258824 0 0 0 0 0.627451 0 0 0 0 0.941176 0 0 0 0.596 0"/>
<feBlend mode="normal" in2="BackgroundImageFix" result="effect1_dropShadow_19_1493"/>
<feBlend mode="normal" in="SourceGraphic" in2="effect1_dropShadow_19_1493" result="shape"/>
<feGaussianBlur stdDeviation="0.160122" result="effect2_foregroundBlur_19_1493"/>
</filter>
<filter id="filter2_d_19_1493" x="1.76084" y="16.7897" width="67.5737" height="39.6577" filterUnits="userSpaceOnUse" color-interpolation-filters="sRGB">
<feFlood flood-opacity="0" result="BackgroundImageFix"/>
<feColorMatrix in="SourceAlpha" type="matrix" values="0 0 0 0 0 0 0 0 0 0 0 0 0 0 0 0 0 0 127 0" result="hardAlpha"/>
<feOffset dx="0.800612" dy="0.160122"/>
<feGaussianBlur stdDeviation="1.20092"/>
<feColorMatrix type="matrix" values="0 0 0 0 0.501961 0 0 0 0 0.501961 0 0 0 0 0.501961 0 0 0 0.302 0"/>
<feBlend mode="normal" in2="BackgroundImageFix" result="effect1_dropShadow_19_1493"/>
<feBlend mode="normal" in="SourceGraphic" in2="effect1_dropShadow_19_1493" result="shape"/>
</filter>
<linearGradient id="paint0_linear_19_1493" x1="28.7838" y1="23.423" x2="38.9815" y2="56.4891" gradientUnits="userSpaceOnUse">
<stop stop-color="white" stop-opacity="0.596"/>
<stop offset="1" stop-color="#F7F7F7" stop-opacity="0.204"/>
</linearGradient>
</defs>
</svg>
