<svg width="69" height="49" viewBox="0 0 69 49" fill="none" xmlns="http://www.w3.org/2000/svg">
<g filter="url(#filter0_f_19_1549)">
<path d="M22.4451 32.7449C22.544 32.8258 20.4219 36.8544 19.1983 38.1104C17.9746 39.3664 16.4773 39.9928 15.8542 39.5096C15.2312 39.0263 15.7181 37.6163 16.9418 36.3604C18.1654 35.1044 22.346 32.6643 22.4451 32.7449Z" fill="#42A0F0"/>
<path d="M17.1469 37.1897C17.2677 37.363 17.6916 37.321 18.0937 37.096C18.4957 36.8709 18.7238 36.5479 18.603 36.3746C18.4822 36.2013 18.0583 36.2432 17.6562 36.4683C17.2542 36.6934 17.0261 37.0164 17.1469 37.1897Z" fill="white"/>
<path d="M35.3296 32.7449C35.4286 32.8258 33.3065 36.8544 32.0828 38.1104C30.8591 39.3664 29.3618 39.9928 28.7388 39.5096C28.1157 39.0263 28.6026 37.6163 29.8263 36.3604C31.05 35.1044 35.2305 32.6643 35.3296 32.7449Z" fill="#42A0F0"/>
<path d="M30.0317 37.1897C30.1525 37.363 30.5763 37.321 30.9784 37.096C31.3805 36.8709 31.6085 36.5479 31.4878 36.3746C31.367 36.2013 30.9431 36.2432 30.541 36.4683C30.1389 36.6934 29.9109 37.0164 30.0317 37.1897Z" fill="white"/>
<path d="M48.2146 32.7449C48.3136 32.8258 46.1915 36.8544 44.9678 38.1104C43.7441 39.3664 42.2468 39.9928 41.6238 39.5096C41.0007 39.0263 41.4876 37.6163 42.7113 36.3604C43.935 35.1044 48.1155 32.6643 48.2146 32.7449Z" fill="#42A0F0"/>
<path d="M42.9165 37.1897C43.0372 37.363 43.4611 37.321 43.8632 37.096C44.2653 36.8709 44.4933 36.5479 44.3725 36.3746C44.2517 36.2013 43.8279 36.2432 43.4258 36.4683C43.0237 36.6934 42.7957 37.0164 42.9165 37.1897Z" fill="white"/>
<path d="M36.8457 41.2047C36.9447 41.2855 34.8226 45.3142 33.5989 46.5701C32.3752 47.8261 30.8779 48.4526 30.2549 47.9693C29.6318 47.4861 30.1187 46.076 31.3424 44.8201C32.5661 43.5641 36.7466 41.124 36.8457 41.2047Z" fill="#42A0F0"/>
<path d="M31.5476 45.6495C31.6683 45.8228 32.0922 45.7809 32.4943 45.5558C32.8964 45.3307 33.1244 45.0078 33.0036 44.8345C32.8828 44.6611 32.459 44.7031 32.0569 44.9282C31.6548 45.1532 31.4268 45.4762 31.5476 45.6495Z" fill="white"/>
<path d="M22.4451 41.2047C22.544 41.2855 20.4219 45.3142 19.1983 46.5701C17.9746 47.8261 16.4773 48.4526 15.8542 47.9693C15.2312 47.4861 15.7181 46.076 16.9418 44.8201C18.1654 43.5641 22.346 41.124 22.4451 41.2047Z" fill="#42A0F0"/>
<path d="M17.1469 45.6495C17.2677 45.8228 17.6916 45.7809 18.0937 45.5558C18.4957 45.3307 18.7238 45.0078 18.603 44.8345C18.4822 44.6611 18.0583 44.7031 17.6562 44.9282C17.2542 45.1532 17.0261 45.4762 17.1469 45.6495Z" fill="white"/>
</g>
<g filter="url(#filter1_df_19_1549)">
<g filter="url(#filter2_d_19_1549)">
<path d="M43.1849 37.3123C42.8186 37.3386 42.4486 37.3518 42.0751 37.352H16.0167C14.223 37.358 12.4456 37.0477 10.7866 36.4389C9.12747 35.8302 7.61933 34.9349 6.34862 33.8045C5.07792 32.674 4.06967 31.3307 3.3817 29.8516C2.69374 28.3724 2.3396 26.7866 2.3396 25.1849C2.3396 23.5833 2.69374 21.9974 3.3817 20.5182C4.06967 19.0391 5.07792 17.6958 6.34862 16.5654C7.61933 15.4349 9.12747 14.5397 10.7866 13.9309C12.4456 13.3221 14.223 13.0118 16.0167 13.0178H25.7326C28.8826 6.82952 36.1373 2.49817 44.5831 2.49817C55.9193 2.49817 65.1092 10.3005 65.1092 19.9251C65.1092 29.5497 55.9193 37.352 44.5831 37.352C44.1132 37.352 43.6471 37.3388 43.1849 37.3123Z" fill="url(#paint0_linear_19_1549)"/>
<path d="M44.5835 37.183C45.964 37.183 47.3437 37.0649 48.684 36.832C49.9902 36.6051 51.2749 36.2665 52.5025 35.8257C53.7077 35.3929 54.8701 34.8572 55.9575 34.2336C57.0343 33.6159 58.0469 32.9066 58.9671 32.1253C59.8872 31.3442 60.7224 30.4847 61.4497 29.5708C62.1837 28.6483 62.8142 27.6621 63.3235 26.6398C63.8422 25.5987 64.2405 24.5092 64.5074 23.4017C64.7813 22.2653 64.9202 21.0956 64.9202 19.9252C64.9202 18.7547 64.7813 17.5851 64.5074 16.4487C64.2405 15.3411 63.8422 14.2517 63.3235 13.2106C62.8142 12.1883 62.1837 11.2022 61.4497 10.2797C60.7224 9.36574 59.8872 8.50628 58.9671 7.72515C58.0469 6.94389 57.0343 6.23457 55.9575 5.61691C54.8701 4.99324 53.7077 4.45757 52.5025 4.02477C51.2749 3.58393 49.9902 3.24534 48.684 3.01843C47.3437 2.78556 45.964 2.66748 44.5835 2.66748C40.5341 2.66748 36.6233 3.67458 33.274 5.5799C31.6595 6.49832 30.2087 7.6069 28.9619 8.87483C27.7072 10.1508 26.6789 11.5682 25.9054 13.0879L25.855 13.187H25.7329H16.0171C14.2031 13.187 12.4434 13.5042 10.787 14.1298C9.99083 14.4305 9.22294 14.8027 8.50462 15.236C7.79309 15.6652 7.12398 16.1582 6.51589 16.7012C5.9078 17.2442 5.35574 17.8416 4.87503 18.477C4.38975 19.1184 3.97295 19.804 3.63621 20.5149C2.93559 21.994 2.58035 23.5652 2.58035 25.185C2.58035 26.8048 2.93559 28.376 3.63621 29.8551C3.97295 30.566 4.38975 31.2517 4.87503 31.8931C5.35574 32.5284 5.9078 33.1259 6.51589 33.6688C7.12398 34.2118 7.79309 34.7048 8.50462 35.134C9.22294 35.5673 9.99083 35.9395 10.787 36.2402C12.4434 36.8658 14.2031 37.183 16.0171 37.183H42.0756C42.44 37.183 42.8083 37.1698 43.1702 37.1437L43.1839 37.1428L43.1975 37.1435C43.656 37.1697 44.1223 37.183 44.5835 37.183ZM44.5835 37.3522C44.1137 37.3522 43.6474 37.3388 43.1854 37.3124C42.8196 37.3387 42.449 37.3522 42.0756 37.3522H16.0171C8.49157 37.3522 2.39087 31.9047 2.39087 25.185C2.39087 18.4653 8.49157 13.0179 16.0171 13.0179H25.7329C28.883 6.82887 36.1373 2.49829 44.5835 2.49829C55.9198 2.49829 65.1097 10.3007 65.1097 19.9252C65.1097 29.5498 55.9198 37.3522 44.5835 37.3522Z" fill="white" fill-opacity="0.5"/>
</g>
</g>
<defs>
<filter id="filter0_f_19_1549" x="15.2628" y="32.4228" width="33.2755" height="16.0299" filterUnits="userSpaceOnUse" color-interpolation-filters="sRGB">
<feFlood flood-opacity="0" result="BackgroundImageFix"/>
<feBlend mode="normal" in="SourceGraphic" in2="BackgroundImageFix" result="shape"/>
<feGaussianBlur stdDeviation="0.160122" result="effect1_foregroundBlur_19_1549"/>
</filter>
<filter id="filter1_df_19_1549" x="0.738376" y="0.256456" width="67.5737" height="39.6577" filterUnits="userSpaceOnUse" color-interpolation-filters="sRGB">
<feFlood flood-opacity="0" result="BackgroundImageFix"/>
<feColorMatrix in="SourceAlpha" type="matrix" values="0 0 0 0 0 0 0 0 0 0 0 0 0 0 0 0 0 0 127 0" result="hardAlpha"/>
<feOffset dx="0.800612" dy="0.160122"/>
<feGaussianBlur stdDeviation="1.20092"/>
<feColorMatrix type="matrix" values="0 0 0 0 0.258824 0 0 0 0 0.627451 0 0 0 0 0.941176 0 0 0 0.596 0"/>
<feBlend mode="normal" in2="BackgroundImageFix" result="effect1_dropShadow_19_1549"/>
<feBlend mode="normal" in="SourceGraphic" in2="effect1_dropShadow_19_1549" result="shape"/>
<feGaussianBlur stdDeviation="0.160122" result="effect2_foregroundBlur_19_1549"/>
</filter>
<filter id="filter2_d_19_1549" x="0.738376" y="0.256456" width="67.5737" height="39.6577" filterUnits="userSpaceOnUse" color-interpolation-filters="sRGB">
<feFlood flood-opacity="0" result="BackgroundImageFix"/>
<feColorMatrix in="SourceAlpha" type="matrix" values="0 0 0 0 0 0 0 0 0 0 0 0 0 0 0 0 0 0 127 0" result="hardAlpha"/>
<feOffset dx="0.800612" dy="0.160122"/>
<feGaussianBlur stdDeviation="1.20092"/>
<feColorMatrix type="matrix" values="0 0 0 0 0.501961 0 0 0 0 0.501961 0 0 0 0 0.501961 0 0 0 0.302 0"/>
<feBlend mode="normal" in2="BackgroundImageFix" result="effect1_dropShadow_19_1549"/>
<feBlend mode="normal" in="SourceGraphic" in2="effect1_dropShadow_19_1549" result="shape"/>
</filter>
<linearGradient id="paint0_linear_19_1549" x1="27.7613" y1="6.88977" x2="37.959" y2="39.9559" gradientUnits="userSpaceOnUse">
<stop stop-color="white" stop-opacity="0.596"/>
<stop offset="1" stop-color="#F7F7F7" stop-opacity="0.204"/>
</linearGradient>
</defs>
</svg>
