<svg width="68" height="48" viewBox="0 0 68 48" fill="none" xmlns="http://www.w3.org/2000/svg">
<g filter="url(#filter0_f_19_1998)">
<path fill-rule="evenodd" clip-rule="evenodd" d="M43.6332 23.1349C44.6148 22.7677 45.775 22.7147 47.1112 23.1588C49.7989 24.0522 51.1751 26.3339 51.176 28.5843C51.177 30.8414 49.7909 33.0533 47.0698 33.7586C44.5635 34.4082 40.5506 34.588 37.2247 34.6131C35.5491 34.6257 34.0264 34.599 32.9226 34.5691C32.3706 34.5541 31.923 34.5383 31.613 34.5263C31.458 34.5203 31.3373 34.5152 31.2552 34.5116L31.1615 34.5074L31.1293 34.5059C31.1292 34.5059 31.1287 34.5059 31.1595 33.8661L31.1905 33.2264L31.2205 33.2278L31.3113 33.2319C31.3914 33.2354 31.5099 33.2404 31.6627 33.2463C31.9683 33.2582 32.4109 33.2737 32.9573 33.2886C34.0506 33.3182 35.558 33.3447 37.215 33.3322C40.5543 33.307 44.4162 33.1231 46.7485 32.5186C48.866 31.9698 49.8958 30.2987 49.8951 28.5849C49.8943 26.8643 48.8512 25.087 46.7071 24.3744C45.6274 24.0155 44.7692 24.0776 44.0821 24.3347C43.3833 24.5961 42.8104 25.0789 42.3496 25.638C41.8888 26.1971 41.5589 26.8099 41.3433 27.29C41.2362 27.5285 41.1591 27.73 41.1094 27.8701C41.0846 27.94 41.0667 27.9942 41.0554 28.0297C41.0497 28.0474 41.0457 28.0605 41.0433 28.0684L41.0409 28.0764M41.0409 28.0764C40.9429 28.416 40.588 28.6125 40.2482 28.5147C39.9083 28.4168 39.7121 28.0619 39.8099 27.722L40.4254 27.8992C39.8099 27.722 39.8098 27.7223 39.8099 27.722L39.8108 27.7189L39.8124 27.7137L39.8173 27.6971C39.8215 27.6834 39.8273 27.6644 39.8349 27.6405C39.8502 27.5927 39.8725 27.5253 39.9023 27.4414C39.9618 27.2739 40.0515 27.0397 40.1748 26.7652C40.4198 26.2195 40.8049 25.4981 41.3611 24.8233C41.9172 24.1485 42.6633 23.4978 43.6332 23.1349M30.5198 33.8353C30.5368 33.4819 30.8371 33.2093 31.1905 33.2264L31.1595 33.8661L31.1293 34.5059C30.776 34.4889 30.5027 34.1886 30.5198 33.8353Z" fill="#D0D0D0"/>
<path fill-rule="evenodd" clip-rule="evenodd" d="M12.4429 41.5388C12.4428 41.5388 12.4428 41.5388 12.3913 40.9004C12.3398 40.2619 12.3398 40.2619 12.34 40.2619L12.3882 40.2581L12.5281 40.2472C12.6509 40.2378 12.8315 40.2241 13.0637 40.2073C13.5281 40.1735 14.1992 40.1269 15.0268 40.0751C16.6817 39.9714 18.9642 39.847 21.4741 39.7641C26.4712 39.5989 32.4449 39.5946 36.1373 40.2703C37.9914 40.6096 39.3092 41.1191 40.166 41.7434C41.0343 42.3762 41.4827 43.1763 41.4071 44.0339C41.3346 44.8571 40.7934 45.5407 40.1134 46.0069C39.4238 46.4798 38.5213 46.7835 37.5559 46.8324C35.716 46.9255 33.9725 46.4336 32.7092 45.9351C32.0735 45.6843 31.5492 45.4277 31.1823 45.233C30.9986 45.1355 30.8538 45.0531 30.7535 44.9943C30.7034 44.9649 30.6643 44.9414 30.637 44.9247L30.6051 44.9049L30.5959 44.8992L30.593 44.8974L30.592 44.8968C30.5919 44.8967 30.5913 44.8963 30.8973 44.4151L30.592 44.8968C30.2935 44.707 30.2047 44.3107 30.3945 44.0122C30.5842 43.7138 30.9797 43.6256 31.2782 43.815L31.2832 43.8182L31.3056 43.832C31.3264 43.8447 31.3586 43.8642 31.4016 43.8894C31.4876 43.9398 31.6166 44.0132 31.7829 44.1015C32.1159 44.2783 32.5963 44.5134 33.1793 44.7435C34.3537 45.2069 35.9044 45.6334 37.4911 45.5531C38.239 45.5152 38.9093 45.2794 39.389 44.9505C39.8785 44.6149 40.1035 44.2343 40.1311 43.9215C40.1556 43.643 40.038 43.2352 39.4116 42.7787C38.7736 42.3138 37.6677 41.8526 35.9067 41.5304C32.3688 40.883 26.5271 40.8787 21.5164 41.0443C19.0224 41.1268 16.7529 41.2504 15.1068 41.3535C14.2839 41.4051 13.6172 41.4514 13.1565 41.4849C12.9261 41.5016 12.7473 41.5151 12.6263 41.5244L12.4888 41.5351L12.4429 41.5388ZM11.7528 40.9519C11.7244 40.5993 11.9874 40.2904 12.34 40.2619L12.3913 40.9004L12.4429 41.5388C12.0903 41.5672 11.7813 41.3044 11.7528 40.9519Z" fill="#D0D0D0"/>
<path fill-rule="evenodd" clip-rule="evenodd" d="M46.6582 40.8899C46.6582 40.5361 46.945 40.2494 47.2987 40.2494H53.8192C54.1729 40.2494 54.4597 40.5361 54.4597 40.8899C54.4597 41.2436 54.1729 41.5304 53.8192 41.5304H47.2987C46.945 41.5304 46.6582 41.2436 46.6582 40.8899Z" fill="#D0D0D0"/>
<path fill-rule="evenodd" clip-rule="evenodd" d="M15.9622 33.953C15.9622 33.5993 16.2489 33.3125 16.6026 33.3125H23.1231C23.4769 33.3125 23.7636 33.5993 23.7636 33.953C23.7636 34.3067 23.4769 34.5935 23.1231 34.5935H16.6026C16.2489 34.5935 15.9622 34.3067 15.9622 33.953Z" fill="#D0D0D0"/>
</g>
<g filter="url(#filter1_df_19_1998)">
<g filter="url(#filter2_d_19_1998)">
<path d="M42.506 37.3317C42.1396 37.358 41.7697 37.3712 41.3962 37.3715H15.3377C13.544 37.3774 11.7667 37.0671 10.1076 36.4583C8.44852 35.8496 6.94037 34.9543 5.66967 33.8239C4.39897 32.6935 3.39071 31.3501 2.70275 29.871C2.01478 28.3918 1.66064 26.806 1.66064 25.2043C1.66064 23.6027 2.01478 22.0168 2.70275 20.5377C3.39071 19.0585 4.39897 17.7152 5.66967 16.5848C6.94037 15.4544 8.44852 14.5591 10.1076 13.9503C11.7667 13.3415 13.544 13.0312 15.3377 13.0372H25.0536C28.2036 6.84893 35.4583 2.51758 43.9042 2.51758C55.2403 2.51758 64.4303 10.3199 64.4303 19.9445C64.4303 29.5691 55.2403 37.3715 43.9042 37.3715C43.4342 37.3715 42.9682 37.3582 42.506 37.3317Z" fill="url(#paint0_linear_19_1998)"/>
<path d="M43.9043 37.2023C45.2848 37.2023 46.6645 37.0842 48.0048 36.8513C49.311 36.6244 50.5957 36.2858 51.8233 35.845C53.0285 35.4122 54.1909 34.8765 55.2783 34.2528C56.3551 33.6352 57.3677 32.9258 58.2879 32.1446C59.208 31.3635 60.0432 30.504 60.7705 29.59C61.5045 28.6675 62.135 27.6814 62.6443 26.659C63.163 25.618 63.5613 24.5285 63.8282 23.421C64.1021 22.2846 64.241 21.1149 64.241 19.9444C64.241 18.774 64.1021 17.6043 63.8282 16.468C63.5613 15.3604 63.163 14.271 62.6443 13.2299C62.135 12.2076 61.5045 11.2215 60.7705 10.299C60.0432 9.38503 59.208 8.52556 58.2879 7.74444C57.3677 6.96317 56.3551 6.25386 55.2783 5.6362C54.1909 5.01253 53.0285 4.47685 51.8233 4.04406C50.5957 3.60322 49.311 3.26463 48.0048 3.03771C46.6645 2.80485 45.2848 2.68677 43.9043 2.68677C39.8549 2.68677 35.9441 3.69387 32.5948 5.59918C30.9803 6.51761 29.5295 7.62619 28.2827 8.89412C27.028 10.1701 25.9997 11.5875 25.2262 13.1071L25.1758 13.2063H25.0537H15.3379C13.5239 13.2063 11.7642 13.5235 10.1078 14.1491C9.31163 14.4498 8.54374 14.822 7.82543 15.2553C7.11389 15.6845 6.44478 16.1775 5.83669 16.7205C5.2286 17.2634 4.67654 17.8609 4.19583 18.4963C3.71055 19.1377 3.29375 19.8233 2.95701 20.5342C2.25639 22.0133 1.90115 23.5845 1.90115 25.2043C1.90115 26.8241 2.25639 28.3953 2.95701 29.8744C3.29375 30.5853 3.71055 31.271 4.19583 31.9123C4.67654 32.5477 5.2286 33.1452 5.83669 33.6881C6.44478 34.2311 7.11389 34.7241 7.82543 35.1533C8.54374 35.5866 9.31163 35.9588 10.1078 36.2595C11.7642 36.8851 13.5239 37.2023 15.3379 37.2023H41.3964C41.7608 37.2023 42.1291 37.1891 42.491 37.163L42.5047 37.162L42.5183 37.1628C42.9768 37.189 43.4431 37.2023 43.9043 37.2023ZM43.9043 37.3715C43.4345 37.3715 42.9682 37.358 42.5062 37.3317C42.1404 37.358 41.7698 37.3715 41.3964 37.3715H15.3379C7.81237 37.3715 1.71167 31.924 1.71167 25.2043C1.71167 18.4846 7.81237 13.0371 15.3379 13.0371H25.0537C28.2038 6.84816 35.4581 2.51758 43.9043 2.51758C55.2406 2.51758 64.4305 10.32 64.4305 19.9444C64.4305 29.5691 55.2406 37.3715 43.9043 37.3715Z" fill="white" fill-opacity="0.5"/>
</g>
</g>
<defs>
<filter id="filter0_f_19_1998" x="11.4305" y="22.5223" width="43.3495" height="24.6418" filterUnits="userSpaceOnUse" color-interpolation-filters="sRGB">
<feFlood flood-opacity="0" result="BackgroundImageFix"/>
<feBlend mode="normal" in="SourceGraphic" in2="BackgroundImageFix" result="shape"/>
<feGaussianBlur stdDeviation="0.160122" result="effect1_foregroundBlur_19_1998"/>
</filter>
<filter id="filter1_df_19_1998" x="0.0594213" y="0.275866" width="67.5734" height="39.6577" filterUnits="userSpaceOnUse" color-interpolation-filters="sRGB">
<feFlood flood-opacity="0" result="BackgroundImageFix"/>
<feColorMatrix in="SourceAlpha" type="matrix" values="0 0 0 0 0 0 0 0 0 0 0 0 0 0 0 0 0 0 127 0" result="hardAlpha"/>
<feOffset dx="0.800612" dy="0.160122"/>
<feGaussianBlur stdDeviation="1.20092"/>
<feColorMatrix type="matrix" values="0 0 0 0 0.258824 0 0 0 0 0.627451 0 0 0 0 0.941176 0 0 0 0.596 0"/>
<feBlend mode="normal" in2="BackgroundImageFix" result="effect1_dropShadow_19_1998"/>
<feBlend mode="normal" in="SourceGraphic" in2="effect1_dropShadow_19_1998" result="shape"/>
<feGaussianBlur stdDeviation="0.160122" result="effect2_foregroundBlur_19_1998"/>
</filter>
<filter id="filter2_d_19_1998" x="0.0594213" y="0.275866" width="67.5734" height="39.6577" filterUnits="userSpaceOnUse" color-interpolation-filters="sRGB">
<feFlood flood-opacity="0" result="BackgroundImageFix"/>
<feColorMatrix in="SourceAlpha" type="matrix" values="0 0 0 0 0 0 0 0 0 0 0 0 0 0 0 0 0 0 127 0" result="hardAlpha"/>
<feOffset dx="0.800612" dy="0.160122"/>
<feGaussianBlur stdDeviation="1.20092"/>
<feColorMatrix type="matrix" values="0 0 0 0 0.501961 0 0 0 0 0.501961 0 0 0 0 0.501961 0 0 0 0.302 0"/>
<feBlend mode="normal" in2="BackgroundImageFix" result="effect1_dropShadow_19_1998"/>
<feBlend mode="normal" in="SourceGraphic" in2="effect1_dropShadow_19_1998" result="shape"/>
</filter>
<linearGradient id="paint0_linear_19_1998" x1="27.0823" y1="6.90918" x2="37.2801" y2="39.9753" gradientUnits="userSpaceOnUse">
<stop stop-color="white" stop-opacity="0.596"/>
<stop offset="1" stop-color="#F7F7F7" stop-opacity="0.204"/>
</linearGradient>
</defs>
</svg>
