<svg width="69" height="52" viewBox="0 0 69 52" fill="none" xmlns="http://www.w3.org/2000/svg">
<g filter="url(#filter0_f_19_1624)">
<path d="M33.8309 19.7753C34.8769 19.7856 45.4883 34.5797 45.4883 40.3286C45.4883 43.0892 44.2601 45.7368 42.0739 47.6889C39.8878 49.641 36.9227 50.7377 33.8309 50.7377C30.7392 50.7377 27.7741 49.641 25.5879 47.6889C23.4018 45.7368 22.1736 43.0892 22.1736 40.3286C22.1736 34.5797 32.7846 19.765 33.8309 19.7753Z" fill="#42A0F0"/>
<g filter="url(#filter1_f_19_1624)">
<path d="M24.9435 44.2195C26.1083 44.5375 27.5887 43.2294 28.25 41.2978C28.9114 39.3662 28.5033 37.5425 27.3385 37.2246C26.1737 36.9066 24.6933 38.2147 24.032 40.1463C23.3706 42.0779 23.7787 43.9015 24.9435 44.2195Z" fill="white"/>
</g>
</g>
<g filter="url(#filter2_df_19_1624)">
<g filter="url(#filter3_d_19_1624)">
<path d="M43.2623 37.1625C42.896 37.1888 42.526 37.202 42.1525 37.2023H16.0941C14.3004 37.2082 12.523 36.8979 10.8639 36.2892C9.20487 35.6804 7.69672 34.7851 6.42602 33.6547C5.15531 32.5243 4.14706 31.181 3.4591 29.7018C2.77113 28.2227 2.41699 26.6368 2.41699 25.0351C2.41699 23.4335 2.77113 21.8476 3.4591 20.3685C4.14706 18.8893 5.15531 17.546 6.42602 16.4156C7.69672 15.2852 9.20487 14.3899 10.8639 13.7811C12.523 13.1723 14.3004 12.862 16.0941 12.868H25.81C28.96 6.67974 36.2147 2.34839 44.6605 2.34839C55.9967 2.34839 65.1866 10.1508 65.1866 19.7753C65.1866 29.3999 55.9967 37.2023 44.6605 37.2023C44.1906 37.2023 43.7245 37.189 43.2623 37.1625Z" fill="url(#paint0_linear_19_1624)"/>
<path d="M44.6609 37.033C46.0414 37.033 47.4211 36.9149 48.7614 36.682C50.0676 36.4551 51.3523 36.1165 52.5799 35.6757C53.7851 35.2429 54.9475 34.7072 56.0349 34.0835C57.1117 33.4659 58.1243 32.7565 59.0445 31.9753C59.9646 31.1941 60.7998 30.3347 61.5271 29.4207C62.2611 28.4982 62.8916 27.5121 63.4009 26.4897C63.9196 25.4486 64.3179 24.3592 64.5848 23.2517C64.8587 22.1153 64.9976 20.9456 64.9976 19.7751C64.9976 18.6047 64.8587 17.435 64.5848 16.2986C64.3179 15.1911 63.9196 14.1017 63.4009 13.0606C62.8916 12.0383 62.2611 11.0521 61.5271 10.1296C60.7998 9.21572 59.9646 8.35625 59.0445 7.57513C58.1243 6.79386 57.1117 6.08455 56.0349 5.46688C54.9475 4.84322 53.7851 4.30754 52.5799 3.87474C51.3523 3.4339 50.0676 3.09532 48.7614 2.8684C47.4211 2.63554 46.0414 2.51746 44.6609 2.51746C40.6115 2.51746 36.7007 3.52456 33.3514 5.42987C31.7369 6.3483 30.2861 7.45688 29.0393 8.7248C27.7846 10.0007 26.7563 11.4182 25.9828 12.9378L25.9323 13.037H25.8103H16.0945C14.2805 13.037 12.5208 13.3542 10.8644 13.9798C10.0682 14.2805 9.30033 14.6527 8.58202 15.086C7.87048 15.5152 7.20138 16.0082 6.59329 16.5512C5.9852 17.0941 5.43313 17.6916 4.95242 18.3269C4.46714 18.9683 4.05034 19.654 3.7136 20.3649C3.01299 21.844 2.65774 23.4152 2.65774 25.035C2.65774 26.6548 3.01299 28.226 3.7136 29.7051C4.05034 30.416 4.46714 31.1016 4.95242 31.743C5.43313 32.3784 5.9852 32.9758 6.59329 33.5188C7.20138 34.0618 7.87048 34.5548 8.58202 34.984C9.30033 35.4173 10.0682 35.7895 10.8644 36.0902C12.5208 36.7158 14.2805 37.033 16.0945 37.033H42.153C42.5174 37.033 42.8856 37.0198 43.2476 36.9937L43.2613 36.9927L43.2749 36.9935C43.7334 37.0197 44.1997 37.033 44.6609 37.033ZM44.6609 37.2022C44.1911 37.2022 43.7248 37.1887 43.2628 37.1624C42.897 37.1887 42.5264 37.2022 42.153 37.2022H16.0945C8.56896 37.2022 2.46826 31.7547 2.46826 25.035C2.46826 18.3153 8.56896 12.8678 16.0945 12.8678H25.8103C28.9604 6.67885 36.2147 2.34827 44.6609 2.34827C55.9972 2.34827 65.1871 10.1506 65.1871 19.7751C65.1871 29.3998 55.9972 37.2022 44.6609 37.2022Z" fill="white" fill-opacity="0.5"/>
</g>
</g>
<defs>
<filter id="filter0_f_19_1624" x="21.8533" y="19.455" width="23.9552" height="31.6029" filterUnits="userSpaceOnUse" color-interpolation-filters="sRGB">
<feFlood flood-opacity="0" result="BackgroundImageFix"/>
<feBlend mode="normal" in="SourceGraphic" in2="BackgroundImageFix" result="shape"/>
<feGaussianBlur stdDeviation="0.160122" result="effect1_foregroundBlur_19_1624"/>
</filter>
<filter id="filter1_f_19_1624" x="23.3951" y="36.8566" width="5.49181" height="7.7307" filterUnits="userSpaceOnUse" color-interpolation-filters="sRGB">
<feFlood flood-opacity="0" result="BackgroundImageFix"/>
<feBlend mode="normal" in="SourceGraphic" in2="BackgroundImageFix" result="shape"/>
<feGaussianBlur stdDeviation="0.160122" result="effect1_foregroundBlur_19_1624"/>
</filter>
<filter id="filter2_df_19_1624" x="0.815769" y="0.106554" width="67.5737" height="39.6578" filterUnits="userSpaceOnUse" color-interpolation-filters="sRGB">
<feFlood flood-opacity="0" result="BackgroundImageFix"/>
<feColorMatrix in="SourceAlpha" type="matrix" values="0 0 0 0 0 0 0 0 0 0 0 0 0 0 0 0 0 0 127 0" result="hardAlpha"/>
<feOffset dx="0.800612" dy="0.160122"/>
<feGaussianBlur stdDeviation="1.20092"/>
<feColorMatrix type="matrix" values="0 0 0 0 0.258824 0 0 0 0 0.627451 0 0 0 0 0.941176 0 0 0 0.596 0"/>
<feBlend mode="normal" in2="BackgroundImageFix" result="effect1_dropShadow_19_1624"/>
<feBlend mode="normal" in="SourceGraphic" in2="effect1_dropShadow_19_1624" result="shape"/>
<feGaussianBlur stdDeviation="0.160122" result="effect2_foregroundBlur_19_1624"/>
</filter>
<filter id="filter3_d_19_1624" x="0.815769" y="0.106554" width="67.5737" height="39.6578" filterUnits="userSpaceOnUse" color-interpolation-filters="sRGB">
<feFlood flood-opacity="0" result="BackgroundImageFix"/>
<feColorMatrix in="SourceAlpha" type="matrix" values="0 0 0 0 0 0 0 0 0 0 0 0 0 0 0 0 0 0 127 0" result="hardAlpha"/>
<feOffset dx="0.800612" dy="0.160122"/>
<feGaussianBlur stdDeviation="1.20092"/>
<feColorMatrix type="matrix" values="0 0 0 0 0.501961 0 0 0 0 0.501961 0 0 0 0 0.501961 0 0 0 0.302 0"/>
<feBlend mode="normal" in2="BackgroundImageFix" result="effect1_dropShadow_19_1624"/>
<feBlend mode="normal" in="SourceGraphic" in2="effect1_dropShadow_19_1624" result="shape"/>
</filter>
<linearGradient id="paint0_linear_19_1624" x1="27.8387" y1="6.73999" x2="38.0364" y2="39.8061" gradientUnits="userSpaceOnUse">
<stop stop-color="white" stop-opacity="0.596"/>
<stop offset="1" stop-color="#F7F7F7" stop-opacity="0.204"/>
</linearGradient>
</defs>
</svg>
