<svg width="68" height="52" viewBox="0 0 68 52" fill="none" xmlns="http://www.w3.org/2000/svg">
<g filter="url(#filter0_f_19_1068)">
<path d="M33.4612 29.4237C34.2081 29.4312 41.7852 39.9948 41.7852 44.0997C41.7852 46.071 40.9082 47.9615 39.3471 49.3554C37.7861 50.7493 35.6688 51.5324 33.4612 51.5324C31.2535 51.5324 29.1363 50.7493 27.5752 49.3554C26.0142 47.9615 25.1372 46.071 25.1372 44.0997C25.1372 39.9949 32.7144 29.4163 33.4612 29.4237Z" fill="#42A0F0"/>
<g filter="url(#filter1_f_19_1068)">
<path d="M27.1146 46.8782C27.9464 47.1053 29.0035 46.1712 29.4757 44.7919C29.948 43.4127 29.6566 42.1105 28.8248 41.8834C27.9931 41.6564 26.936 42.5904 26.4638 43.9697C25.9915 45.349 26.2829 46.6511 27.1146 46.8782Z" fill="white"/>
</g>
</g>
<g filter="url(#filter2_f_19_1068)">
<path d="M20.1164 28.4086C27.8081 28.4086 34.0434 22.8409 34.0434 15.9728C34.0434 9.10477 27.8081 3.53711 20.1164 3.53711C12.4248 3.53711 6.18945 9.10477 6.18945 15.9728C6.18945 22.8409 12.4248 28.4086 20.1164 28.4086Z" fill="#FA9E42"/>
</g>
<g filter="url(#filter3_f_19_1068)">
<path fill-rule="evenodd" clip-rule="evenodd" d="M20.0768 0.260536L20.1159 0.260498L20.155 0.260536C20.376 0.260968 20.5549 0.44054 20.5545 0.661623C20.554 0.882705 20.3745 1.06158 20.1534 1.06115L20.1159 1.06111L20.0784 1.06115C19.8573 1.06158 19.6777 0.882705 19.6773 0.661623C19.6768 0.44054 19.8557 0.260968 20.0768 0.260536ZM24.7369 1.21874C24.7949 1.00542 25.0149 0.879555 25.2282 0.937619L25.303 0.958132C25.5161 1.01707 25.641 1.23758 25.5821 1.45067C25.5232 1.66375 25.3027 1.78871 25.0896 1.72977L25.018 1.71013C24.8046 1.65206 24.6788 1.43206 24.7369 1.21874ZM15.4949 1.21874C15.553 1.43206 15.4271 1.65206 15.2138 1.71013L15.1422 1.72977C14.9291 1.78871 14.7086 1.66375 14.6497 1.45067C14.5907 1.23758 14.7157 1.01707 14.9288 0.958133L15.0035 0.937619C15.2168 0.879556 15.4368 1.00542 15.4949 1.21874ZM10.7769 3.12328C10.8923 3.31187 10.8329 3.55828 10.6444 3.67365L10.5808 3.71271C10.3927 3.82891 10.1461 3.77064 10.0299 3.58255C9.91367 3.39447 9.97194 3.1478 10.16 3.0316L10.2265 2.99071C10.4151 2.87533 10.6615 2.93468 10.7769 3.12328ZM29.4548 3.12328C29.5702 2.93468 29.8166 2.87533 30.0052 2.99071L30.0717 3.0316C30.2598 3.1478 30.3181 3.39447 30.2019 3.58255C30.0857 3.77064 29.839 3.82891 29.6509 3.71271L29.5874 3.67365C29.3988 3.55828 29.3395 3.31187 29.4548 3.12328ZM6.81011 6.30537C6.97716 6.4502 6.99518 6.70301 6.85035 6.87006L6.8019 6.92622C6.65789 7.09396 6.40516 7.1132 6.23742 6.96919C6.06968 6.82518 6.05044 6.57245 6.19445 6.40471L6.24543 6.34561C6.39025 6.17857 6.64307 6.16055 6.81011 6.30537ZM33.4216 6.30537C33.5887 6.16055 33.8415 6.17857 33.9863 6.34561L34.0373 6.40471C34.1813 6.57245 34.1621 6.82518 33.9943 6.96919C33.8266 7.1132 33.5739 7.09396 33.4299 6.92622L33.3814 6.87006C33.2366 6.70301 33.2546 6.4502 33.4216 6.30537ZM4.0573 10.5753C4.26336 10.6554 4.36544 10.8874 4.28532 11.0935L4.25868 11.1625C4.17967 11.369 3.94823 11.4723 3.74175 11.3933C3.53527 11.3143 3.43193 11.0829 3.51095 10.8764L3.53913 10.8033C3.61926 10.5973 3.85125 10.4952 4.0573 10.5753ZM36.1745 10.5753C36.3805 10.4952 36.6125 10.5973 36.6926 10.8033L36.7208 10.8764C36.7998 11.0829 36.6965 11.3143 36.49 11.3933C36.2835 11.4723 36.0521 11.369 35.9731 11.1625L35.9464 11.0935C35.8663 10.8874 35.9684 10.6554 36.1745 10.5753ZM2.96884 15.5342C3.18992 15.5348 3.36865 15.7145 3.36805 15.9356L3.36799 15.9728L3.36805 16.01C3.36865 16.2311 3.18992 16.4108 2.96884 16.4114C2.74776 16.412 2.56804 16.2333 2.56744 16.0122L2.56738 15.9728L2.56744 15.9334C2.56804 15.7124 2.74776 15.5336 2.96884 15.5342ZM37.2629 15.5342C37.484 15.5336 37.6637 15.7124 37.6643 15.9334L37.6644 15.9728L37.6643 16.0122C37.6637 16.2333 37.484 16.412 37.2629 16.4114C37.0418 16.4108 36.8631 16.2311 36.8637 16.01L36.8638 15.9728L36.8637 15.9356C36.8631 15.7145 37.0418 15.5348 37.2629 15.5342ZM3.74175 20.5523C3.94823 20.4733 4.17967 20.5766 4.25868 20.7831L4.28532 20.8522C4.36544 21.0582 4.26336 21.2902 4.0573 21.3703C3.85125 21.4504 3.61926 21.3484 3.53913 21.1423L3.51095 21.0692C3.43193 20.8628 3.53527 20.6313 3.74175 20.5523ZM36.49 20.5523C36.6965 20.6313 36.7998 20.8628 36.7208 21.0692L36.6926 21.1423C36.6125 21.3484 36.3805 21.4504 36.1745 21.3703C35.9684 21.2902 35.8663 21.0582 35.9464 20.8522L35.9731 20.7831C36.0521 20.5766 36.2835 20.4733 36.49 20.5523ZM6.23742 24.9765C6.40516 24.8324 6.65789 24.8517 6.8019 25.0194L6.85035 25.0756C6.99518 25.2426 6.97716 25.4954 6.81011 25.6403C6.64307 25.7851 6.39025 25.7671 6.24543 25.6L6.19445 25.5409C6.05044 25.3732 6.06968 25.1205 6.23742 24.9765ZM33.9943 24.9765C34.1621 25.1205 34.1813 25.3732 34.0373 25.5409L33.9863 25.6C33.8415 25.7671 33.5887 25.7851 33.4216 25.6403C33.2546 25.4954 33.2366 25.2426 33.3814 25.0756L33.4299 25.0194C33.5739 24.8517 33.8266 24.8324 33.9943 24.9765ZM10.0299 28.3631C10.1461 28.175 10.3927 28.1167 10.5808 28.2329L10.6444 28.272C10.8329 28.3874 10.8923 28.6338 10.7769 28.8224C10.6615 29.011 10.4151 29.0703 10.2265 28.9549L10.16 28.914C9.97194 28.7978 9.91367 28.5512 10.0299 28.3631ZM30.2019 28.3631C30.3181 28.5512 30.2598 28.7978 30.0717 28.914L30.0052 28.9549C29.8166 29.0703 29.5702 29.011 29.4548 28.8224C29.3395 28.6338 29.3988 28.3874 29.5874 28.272L29.6509 28.2329C29.839 28.1167 30.0857 28.175 30.2019 28.3631ZM14.6497 30.495C14.7086 30.2819 14.9291 30.1569 15.1422 30.2159L15.2138 30.2355C15.4271 30.2936 15.553 30.5136 15.4949 30.7269C15.4368 30.9402 15.2168 31.0661 15.0035 31.008L14.9288 30.9875C14.7157 30.9286 14.5907 30.7081 14.6497 30.495ZM25.5821 30.495C25.641 30.7081 25.5161 30.9286 25.303 30.9875L25.2282 31.008C25.0149 31.0661 24.7949 30.9402 24.7369 30.7269C24.6788 30.5136 24.8046 30.2936 25.018 30.2355L25.0896 30.2159C25.3027 30.1569 25.5232 30.2819 25.5821 30.495ZM19.6773 31.284C19.6777 31.0629 19.8573 30.8841 20.0784 30.8845L20.1159 30.8845L20.1534 30.8845C20.3745 30.8841 20.5541 31.0629 20.5545 31.284C20.5549 31.5051 20.376 31.6847 20.155 31.6851L20.1159 31.6851L20.0768 31.6851C19.8557 31.6847 19.6768 31.5051 19.6773 31.284Z" fill="#FA9E42"/>
</g>
<g filter="url(#filter4_f_19_1068)">
<path d="M18.5368 13.4898C23.4145 11.1764 26.1737 7.29211 24.6997 4.814C23.2256 2.33589 18.0764 2.20235 13.1987 4.51572C8.32091 6.8291 5.56167 10.7134 7.03574 13.1915C8.50981 15.6696 13.659 15.8031 18.5368 13.4898Z" fill="#F8E36F"/>
</g>
<g filter="url(#filter5_df_19_1068)">
<g filter="url(#filter6_d_19_1068)">
<path d="M42.8153 40.3815C42.449 40.4078 42.079 40.421 41.7055 40.4213H15.6471C13.8534 40.4272 12.076 40.1169 10.4169 39.5081C8.75785 38.8994 7.2497 38.0041 5.979 36.8737C4.70829 35.7433 3.70004 34.3999 3.01208 32.9208C2.32411 31.4416 1.96997 29.8558 1.96997 28.2541C1.96997 26.6525 2.32411 25.0666 3.01208 23.5875C3.70004 22.1083 4.70829 20.765 5.979 19.6346C7.2497 18.5042 8.75785 17.6089 10.4169 17.0001C12.076 16.3913 13.8534 16.081 15.6471 16.087H25.363C28.5129 9.89874 35.7677 5.56738 44.2135 5.56738C55.5497 5.56738 64.7396 13.3697 64.7396 22.9943C64.7396 32.6189 55.5497 40.4213 44.2135 40.4213C43.7436 40.4213 43.2775 40.408 42.8153 40.3815Z" fill="url(#paint0_linear_19_1068)"/>
<path d="M44.2136 40.2521C45.5942 40.2521 46.9738 40.134 48.3142 39.9011C49.6203 39.6742 50.905 39.3356 52.1326 38.8948C53.3379 38.462 54.5003 37.9263 55.5876 37.3026C56.6645 36.685 57.677 35.9757 58.5973 35.1944C59.5173 34.4133 60.3525 33.5538 61.0798 32.6398C61.8139 31.7174 62.4443 30.7312 62.9536 29.7088C63.4723 28.6678 63.8706 27.5783 64.1376 26.4708C64.4115 25.3344 64.5504 24.1647 64.5504 22.9942C64.5504 21.8238 64.4115 20.6542 64.1376 19.5178C63.8706 18.4102 63.4723 17.3208 62.9536 16.2797C62.4443 15.2574 61.8139 14.2713 61.0798 13.3488C60.3525 12.4348 59.5173 11.5754 58.5973 10.7942C57.677 10.013 56.6645 9.30366 55.5876 8.686C54.5003 8.06233 53.3379 7.52666 52.1326 7.09386C50.905 6.65302 49.6203 6.31444 48.3142 6.08752C46.9738 5.85465 45.5942 5.73658 44.2136 5.73658C40.1642 5.73658 36.2534 6.74367 32.9041 8.64899C31.2896 9.56741 29.8388 10.676 28.592 11.9439C27.3374 13.2199 26.309 14.6373 25.5356 16.1569L25.4851 16.2561H25.3631H15.6472C13.8332 16.2561 12.0735 16.5733 10.4171 17.1989C9.62096 17.4996 8.85307 17.8718 8.13475 18.3051C7.42321 18.7343 6.75411 19.2273 6.14602 19.7703C5.53793 20.3132 4.98586 20.9107 4.50515 21.5461C4.01987 22.1875 3.60307 22.8731 3.26633 23.584C2.56572 25.0631 2.21048 26.6343 2.21048 28.2541C2.21048 29.8739 2.56572 31.4451 3.26633 32.9242C3.60307 33.6351 4.01987 34.3208 4.50515 34.9622C4.98586 35.5975 5.53793 36.195 6.14602 36.7379C6.75411 37.2809 7.42321 37.7739 8.13475 38.2031C8.85307 38.6364 9.62096 39.0086 10.4171 39.3093C12.0735 39.9349 13.8332 40.2521 15.6472 40.2521H41.7057C42.0701 40.2521 42.4384 40.2389 42.8004 40.2128L42.814 40.2118L42.8277 40.2126C43.2861 40.2388 43.7524 40.2521 44.2136 40.2521ZM44.2136 40.4213C43.7438 40.4213 43.2775 40.4079 42.8156 40.3815C42.4497 40.4078 42.0792 40.4213 41.7057 40.4213H15.6472C8.12169 40.4213 2.021 34.9738 2.021 28.2541C2.021 21.5344 8.12169 16.0869 15.6472 16.0869H25.3631C28.5131 9.89796 35.7674 5.56738 44.2136 5.56738C55.5499 5.56738 64.7398 13.3698 64.7398 22.9942C64.7398 32.6189 55.5499 40.4213 44.2136 40.4213Z" fill="white" fill-opacity="0.5"/>
</g>
</g>
<defs>
<filter id="filter0_f_19_1068" x="24.817" y="29.1035" width="17.2884" height="22.7491" filterUnits="userSpaceOnUse" color-interpolation-filters="sRGB">
<feFlood flood-opacity="0" result="BackgroundImageFix"/>
<feBlend mode="normal" in="SourceGraphic" in2="BackgroundImageFix" result="shape"/>
<feGaussianBlur stdDeviation="0.160122" result="effect1_foregroundBlur_19_1068"/>
</filter>
<filter id="filter1_f_19_1068" x="25.9173" y="41.5291" width="4.10484" height="5.70336" filterUnits="userSpaceOnUse" color-interpolation-filters="sRGB">
<feFlood flood-opacity="0" result="BackgroundImageFix"/>
<feBlend mode="normal" in="SourceGraphic" in2="BackgroundImageFix" result="shape"/>
<feGaussianBlur stdDeviation="0.160122" result="effect1_foregroundBlur_19_1068"/>
</filter>
<filter id="filter2_f_19_1068" x="5.86921" y="3.21686" width="28.4945" height="25.5119" filterUnits="userSpaceOnUse" color-interpolation-filters="sRGB">
<feFlood flood-opacity="0" result="BackgroundImageFix"/>
<feBlend mode="normal" in="SourceGraphic" in2="BackgroundImageFix" result="shape"/>
<feGaussianBlur stdDeviation="0.160122" result="effect1_foregroundBlur_19_1068"/>
</filter>
<filter id="filter3_f_19_1068" x="2.40726" y="0.100376" width="35.4172" height="31.7449" filterUnits="userSpaceOnUse" color-interpolation-filters="sRGB">
<feFlood flood-opacity="0" result="BackgroundImageFix"/>
<feBlend mode="normal" in="SourceGraphic" in2="BackgroundImageFix" result="shape"/>
<feGaussianBlur stdDeviation="0.0800612" result="effect1_foregroundBlur_19_1068"/>
</filter>
<filter id="filter4_f_19_1068" x="5.03769" y="1.26316" width="21.6602" height="15.4792" filterUnits="userSpaceOnUse" color-interpolation-filters="sRGB">
<feFlood flood-opacity="0" result="BackgroundImageFix"/>
<feBlend mode="normal" in="SourceGraphic" in2="BackgroundImageFix" result="shape"/>
<feGaussianBlur stdDeviation="0.800612" result="effect1_foregroundBlur_19_1068"/>
</filter>
<filter id="filter5_df_19_1068" x="0.368747" y="3.32567" width="67.5734" height="39.6577" filterUnits="userSpaceOnUse" color-interpolation-filters="sRGB">
<feFlood flood-opacity="0" result="BackgroundImageFix"/>
<feColorMatrix in="SourceAlpha" type="matrix" values="0 0 0 0 0 0 0 0 0 0 0 0 0 0 0 0 0 0 127 0" result="hardAlpha"/>
<feOffset dx="0.800612" dy="0.160122"/>
<feGaussianBlur stdDeviation="1.20092"/>
<feColorMatrix type="matrix" values="0 0 0 0 0.258824 0 0 0 0 0.627451 0 0 0 0 0.941176 0 0 0 0.596 0"/>
<feBlend mode="normal" in2="BackgroundImageFix" result="effect1_dropShadow_19_1068"/>
<feBlend mode="normal" in="SourceGraphic" in2="effect1_dropShadow_19_1068" result="shape"/>
<feGaussianBlur stdDeviation="0.160122" result="effect2_foregroundBlur_19_1068"/>
</filter>
<filter id="filter6_d_19_1068" x="0.368747" y="3.32567" width="67.5734" height="39.6577" filterUnits="userSpaceOnUse" color-interpolation-filters="sRGB">
<feFlood flood-opacity="0" result="BackgroundImageFix"/>
<feColorMatrix in="SourceAlpha" type="matrix" values="0 0 0 0 0 0 0 0 0 0 0 0 0 0 0 0 0 0 127 0" result="hardAlpha"/>
<feOffset dx="0.800612" dy="0.160122"/>
<feGaussianBlur stdDeviation="1.20092"/>
<feColorMatrix type="matrix" values="0 0 0 0 0.501961 0 0 0 0 0.501961 0 0 0 0 0.501961 0 0 0 0.302 0"/>
<feBlend mode="normal" in2="BackgroundImageFix" result="effect1_dropShadow_19_1068"/>
<feBlend mode="normal" in="SourceGraphic" in2="effect1_dropShadow_19_1068" result="shape"/>
</filter>
<linearGradient id="paint0_linear_19_1068" x1="27.3917" y1="9.95898" x2="37.5894" y2="43.0251" gradientUnits="userSpaceOnUse">
<stop stop-color="white" stop-opacity="0.596"/>
<stop offset="1" stop-color="#F7F7F7" stop-opacity="0.204"/>
</linearGradient>
</defs>
</svg>
