<svg width="68" height="56" viewBox="0 0 68 56" fill="none" xmlns="http://www.w3.org/2000/svg">
<path fill-rule="evenodd" clip-rule="evenodd" d="M24.135 22.8306C24.1571 22.8306 24.175 22.8485 24.175 22.8706V24.3676C24.175 24.3897 24.1571 24.4077 24.135 24.4077C24.1129 24.4077 24.095 24.3897 24.095 24.3676V22.8706C24.095 22.8485 24.1129 22.8306 24.135 22.8306Z" fill="#42A0F0"/>
<path fill-rule="evenodd" clip-rule="evenodd" d="M24.4105 23.0977C24.4195 23.1179 24.4104 23.1415 24.3903 23.1506L24.1155 23.2733C24.0953 23.2824 24.0716 23.2733 24.0626 23.2531C24.0536 23.2329 24.0626 23.2093 24.0828 23.2002L24.3576 23.0775C24.3778 23.0684 24.4015 23.0775 24.4105 23.0977Z" fill="#42A0F0"/>
<path fill-rule="evenodd" clip-rule="evenodd" d="M23.6511 23.1026C23.6574 23.0814 23.6797 23.0693 23.7009 23.0756L24.11 23.1975C24.1312 23.2038 24.1432 23.2261 24.1369 23.2473C24.1306 23.2684 24.1083 23.2805 24.0871 23.2742L23.678 23.1524C23.6568 23.1461 23.6448 23.1238 23.6511 23.1026Z" fill="#42A0F0"/>
<path fill-rule="evenodd" clip-rule="evenodd" d="M24.0626 24.0719C24.0716 24.0517 24.0953 24.0427 24.1155 24.0517L24.3903 24.1745C24.4104 24.1835 24.4195 24.2072 24.4105 24.2274C24.4015 24.2475 24.3778 24.2566 24.3576 24.2476L24.0828 24.1248C24.0626 24.1158 24.0536 24.0921 24.0626 24.0719Z" fill="#42A0F0"/>
<path fill-rule="evenodd" clip-rule="evenodd" d="M24.1369 24.0768C24.1432 24.098 24.1312 24.1203 24.11 24.1266L23.7009 24.2484C23.6797 24.2548 23.6574 24.2427 23.6511 24.2215C23.6448 24.2003 23.6568 24.178 23.678 24.1717L24.0871 24.0499C24.1083 24.0436 24.1306 24.0556 24.1369 24.0768Z" fill="#42A0F0"/>
<path fill-rule="evenodd" clip-rule="evenodd" d="M24.8926 23.2327C24.9046 23.2513 24.8984 23.2746 24.8787 23.2847L23.4268 24.0332C23.4071 24.0433 23.3815 24.0365 23.3695 24.0179C23.3575 23.9994 23.3637 23.9761 23.3833 23.966L24.8353 23.2175C24.8549 23.2073 24.8806 23.2142 24.8926 23.2327Z" fill="#42A0F0"/>
<path fill-rule="evenodd" clip-rule="evenodd" d="M24.945 23.5386C24.94 23.5589 24.9176 23.5707 24.895 23.5651L24.4893 23.4643C24.4667 23.4586 24.4523 23.4376 24.4573 23.4174C24.4622 23.3971 24.4846 23.3853 24.5072 23.3909L24.9129 23.4918C24.9356 23.4974 24.9499 23.5184 24.945 23.5386Z" fill="#42A0F0"/>
<path fill-rule="evenodd" clip-rule="evenodd" d="M24.6125 23.0315C24.6351 23.0375 24.649 23.0587 24.6437 23.0788L24.5464 23.4452C24.541 23.4654 24.5184 23.4768 24.4958 23.4709C24.4733 23.4649 24.4593 23.4437 24.4647 23.4235L24.562 23.0571C24.5673 23.037 24.59 23.0255 24.6125 23.0315Z" fill="#42A0F0"/>
<path fill-rule="evenodd" clip-rule="evenodd" d="M23.7301 23.7944C23.7526 23.8007 23.7661 23.822 23.7604 23.8421L23.6582 24.2013C23.6525 24.2213 23.6297 24.2324 23.6072 24.2261C23.5847 24.2198 23.5712 24.1985 23.5769 24.1784L23.6791 23.8192C23.6848 23.7992 23.7076 23.788 23.7301 23.7944Z" fill="#42A0F0"/>
<path fill-rule="evenodd" clip-rule="evenodd" d="M23.7677 23.8482C23.7624 23.8683 23.7398 23.8798 23.7173 23.8739L23.3069 23.7657C23.2844 23.7597 23.2704 23.7386 23.2757 23.7184C23.281 23.6982 23.3036 23.6867 23.3261 23.6927L23.7365 23.8009C23.759 23.8068 23.773 23.828 23.7677 23.8482Z" fill="#42A0F0"/>
<path fill-rule="evenodd" clip-rule="evenodd" d="M24.884 24.0179C24.872 24.0365 24.8464 24.0433 24.8267 24.0332L23.3748 23.2847C23.3551 23.2745 23.3489 23.2513 23.3609 23.2327C23.373 23.2141 23.3986 23.2073 23.4183 23.2174L24.8702 23.9659C24.8898 23.9761 24.896 23.9993 24.884 24.0179Z" fill="#42A0F0"/>
<path fill-rule="evenodd" clip-rule="evenodd" d="M24.6121 24.2084C24.5897 24.2147 24.5668 24.2035 24.5611 24.1835L24.4589 23.8243C24.4532 23.8043 24.4668 23.7829 24.4892 23.7766C24.5117 23.7703 24.5345 23.7814 24.5402 23.8015L24.6425 24.1606C24.6482 24.1807 24.6346 24.2021 24.6121 24.2084Z" fill="#42A0F0"/>
<path fill-rule="evenodd" clip-rule="evenodd" d="M24.9431 23.7008C24.9484 23.721 24.9344 23.7421 24.9118 23.7481L24.5015 23.8563C24.4789 23.8622 24.4563 23.8507 24.451 23.8306C24.4457 23.8104 24.4597 23.7892 24.4822 23.7833L24.8926 23.6751C24.9152 23.6691 24.9377 23.6806 24.9431 23.7008Z" fill="#42A0F0"/>
<path fill-rule="evenodd" clip-rule="evenodd" d="M23.7616 23.3996C23.7665 23.4199 23.7522 23.4409 23.7295 23.4465L23.3238 23.5474C23.3012 23.553 23.2788 23.5411 23.2739 23.5209C23.2689 23.5006 23.2833 23.4797 23.3059 23.474L23.7116 23.3732C23.7342 23.3675 23.7566 23.3794 23.7616 23.3996Z" fill="#42A0F0"/>
<path fill-rule="evenodd" clip-rule="evenodd" d="M23.7231 23.4531C23.7006 23.4591 23.678 23.4477 23.6726 23.4275L23.5753 23.0611C23.57 23.041 23.5839 23.0198 23.6065 23.0138C23.629 23.0078 23.6516 23.0193 23.657 23.0394L23.7543 23.4058C23.7596 23.426 23.7457 23.4472 23.7231 23.4531Z" fill="#42A0F0"/>
<path fill-rule="evenodd" clip-rule="evenodd" d="M47.2649 26.1451C47.287 26.1451 47.3049 26.1631 47.3049 26.1852V28.7515C47.3049 28.7736 47.287 28.7915 47.2649 28.7915C47.2428 28.7915 47.2249 28.7736 47.2249 28.7515V26.1852C47.2249 26.1631 47.2428 26.1451 47.2649 26.1451Z" fill="#42A0F0"/>
<path fill-rule="evenodd" clip-rule="evenodd" d="M47.7303 26.6368C47.7352 26.6584 47.7216 26.6798 47.7 26.6846L47.1545 26.8064C47.1329 26.8112 47.1115 26.7976 47.1067 26.7761C47.1019 26.7545 47.1155 26.7331 47.137 26.7283L47.6825 26.6064C47.7041 26.6016 47.7255 26.6152 47.7303 26.6368Z" fill="#42A0F0"/>
<path fill-rule="evenodd" clip-rule="evenodd" d="M46.4242 26.6385C46.4281 26.6167 46.4489 26.6022 46.4707 26.6061L47.1526 26.7279C47.1744 26.7318 47.1889 26.7526 47.185 26.7744C47.1811 26.7961 47.1603 26.8106 47.1385 26.8067L46.4566 26.6849C46.4348 26.681 46.4203 26.6602 46.4242 26.6385Z" fill="#42A0F0"/>
<path fill-rule="evenodd" clip-rule="evenodd" d="M47.1092 28.2122C47.1182 28.192 47.1419 28.183 47.1621 28.192L47.7076 28.4354C47.7278 28.4444 47.7368 28.4681 47.7278 28.4883C47.7188 28.5085 47.6951 28.5176 47.675 28.5085L47.1294 28.2651C47.1092 28.2561 47.1002 28.2324 47.1092 28.2122Z" fill="#42A0F0"/>
<path fill-rule="evenodd" clip-rule="evenodd" d="M47.1833 28.2151C47.1907 28.2359 47.1799 28.2588 47.159 28.2662L46.4771 28.5097C46.4563 28.5171 46.4334 28.5063 46.4259 28.4854C46.4185 28.4646 46.4293 28.4417 46.4502 28.4343L47.1321 28.1908C47.1529 28.1834 47.1758 28.1942 47.1833 28.2151Z" fill="#42A0F0"/>
<path fill-rule="evenodd" clip-rule="evenodd" d="M48.5386 26.819C48.5506 26.8376 48.5444 26.8609 48.5247 26.871L46.0357 28.1542C46.0161 28.1643 45.9904 28.1575 45.9784 28.1389C45.9664 28.1203 45.9726 28.0971 45.9922 28.0869L48.4813 26.8038C48.5009 26.7936 48.5266 26.8005 48.5386 26.819Z" fill="#42A0F0"/>
<path fill-rule="evenodd" clip-rule="evenodd" d="M48.6225 27.3198C48.6176 27.34 48.5952 27.3519 48.5726 27.3463L47.8827 27.1747C47.8601 27.1691 47.8457 27.1481 47.8507 27.1279C47.8556 27.1076 47.878 27.0958 47.9006 27.1014L48.5905 27.2729C48.6131 27.2786 48.6275 27.2995 48.6225 27.3198Z" fill="#42A0F0"/>
<path fill-rule="evenodd" clip-rule="evenodd" d="M48.0776 26.4868C48.1001 26.4928 48.1141 26.514 48.1087 26.5341L47.9433 27.1572C47.9379 27.1774 47.9153 27.1889 47.8928 27.1829C47.8702 27.1769 47.8563 27.1557 47.8616 27.1355L48.0271 26.5124C48.0324 26.4923 48.055 26.4808 48.0776 26.4868Z" fill="#42A0F0"/>
<path fill-rule="evenodd" clip-rule="evenodd" d="M46.5636 27.7945C46.5861 27.8008 46.5996 27.8222 46.5939 27.8422L46.4201 28.453C46.4144 28.4731 46.3916 28.4842 46.3691 28.4779C46.3466 28.4716 46.333 28.4502 46.3388 28.4302L46.5126 27.8194C46.5183 27.7993 46.5411 27.7882 46.5636 27.7945Z" fill="#42A0F0"/>
<path fill-rule="evenodd" clip-rule="evenodd" d="M46.6042 27.8502C46.5989 27.8704 46.5763 27.8819 46.5537 27.8759L45.8559 27.6919C45.8333 27.686 45.8194 27.6648 45.8247 27.6447C45.83 27.6245 45.8526 27.613 45.8751 27.6189L46.5729 27.8029C46.5955 27.8089 46.6095 27.8301 46.6042 27.8502Z" fill="#42A0F0"/>
<path fill-rule="evenodd" clip-rule="evenodd" d="M48.5242 28.1389C48.5122 28.1574 48.4865 28.1643 48.4669 28.1541L45.9778 26.871C45.9582 26.8608 45.952 26.8376 45.964 26.819C45.976 26.8005 46.0017 26.7936 46.0213 26.8037L48.5103 28.0869C48.53 28.097 48.5362 28.1203 48.5242 28.1389Z" fill="#42A0F0"/>
<path fill-rule="evenodd" clip-rule="evenodd" d="M48.0781 28.4495C48.0556 28.4558 48.0328 28.4446 48.0271 28.4246L47.8533 27.8138C47.8476 27.7937 47.8611 27.7724 47.8836 27.7661C47.9061 27.7598 47.9289 27.7709 47.9346 27.7909L48.1084 28.4017C48.1141 28.4218 48.1006 28.4432 48.0781 28.4495Z" fill="#42A0F0"/>
<path fill-rule="evenodd" clip-rule="evenodd" d="M48.622 27.6161C48.6273 27.6362 48.6133 27.6574 48.5908 27.6634L47.8929 27.8474C47.8704 27.8533 47.8478 27.8418 47.8425 27.8217C47.8372 27.8015 47.8512 27.7803 47.8737 27.7744L48.5716 27.5904C48.5941 27.5844 48.6167 27.5959 48.622 27.6161Z" fill="#42A0F0"/>
<path fill-rule="evenodd" clip-rule="evenodd" d="M46.597 27.0993C46.602 27.1196 46.5876 27.1406 46.565 27.1462L45.8751 27.3177C45.8524 27.3233 45.8301 27.3115 45.8251 27.2912C45.8202 27.271 45.8345 27.25 45.8572 27.2444L46.5471 27.0729C46.5697 27.0672 46.5921 27.0791 46.597 27.0993Z" fill="#42A0F0"/>
<path fill-rule="evenodd" clip-rule="evenodd" d="M46.5549 27.1546C46.5323 27.1605 46.5097 27.1491 46.5044 27.1289L46.3389 26.5058C46.3336 26.4857 46.3475 26.4645 46.3701 26.4585C46.3926 26.4525 46.4152 26.464 46.4206 26.4841L46.586 27.1072C46.5914 27.1274 46.5774 27.1486 46.5549 27.1546Z" fill="#42A0F0"/>
<path fill-rule="evenodd" clip-rule="evenodd" d="M64.0632 30.1304C64.0853 30.1304 64.1033 30.1483 64.1033 30.1704V32.2774C64.1033 32.2995 64.0853 32.3174 64.0632 32.3174C64.0411 32.3174 64.0232 32.2995 64.0232 32.2774V30.1704C64.0232 30.1483 64.0411 30.1304 64.0632 30.1304Z" fill="#42A0F0"/>
<path fill-rule="evenodd" clip-rule="evenodd" d="M64.3881 30.4975C64.3944 30.5187 64.3824 30.541 64.3612 30.5473L63.9521 30.6691C63.9309 30.6754 63.9086 30.6633 63.9023 30.6422C63.896 30.621 63.9081 30.5987 63.9293 30.5924L64.3383 30.4705C64.3595 30.4642 64.3818 30.4763 64.3881 30.4975Z" fill="#42A0F0"/>
<path fill-rule="evenodd" clip-rule="evenodd" d="M63.3567 30.5002C63.3615 30.4786 63.3829 30.465 63.4045 30.4698L63.95 30.5917C63.9716 30.5965 63.9852 30.6179 63.9803 30.6395C63.9755 30.661 63.9541 30.6746 63.9325 30.6698L63.387 30.548C63.3655 30.5432 63.3519 30.5218 63.3567 30.5002Z" fill="#42A0F0"/>
<path fill-rule="evenodd" clip-rule="evenodd" d="M63.9063 31.828C63.9176 31.809 63.9421 31.8028 63.9611 31.8141L64.3702 32.0576C64.3892 32.0689 64.3955 32.0935 64.3842 32.1125C64.3729 32.1314 64.3483 32.1377 64.3293 32.1264L63.9202 31.8829C63.9012 31.8716 63.895 31.847 63.9063 31.828Z" fill="#42A0F0"/>
<path fill-rule="evenodd" clip-rule="evenodd" d="M63.9778 31.8322C63.9868 31.8524 63.9778 31.8761 63.9576 31.8851L63.4121 32.1285C63.3919 32.1375 63.3682 32.1285 63.3592 32.1083C63.3502 32.0881 63.3592 32.0644 63.3794 32.0554L63.925 31.812C63.9451 31.8029 63.9688 31.812 63.9778 31.8322Z" fill="#42A0F0"/>
<path fill-rule="evenodd" clip-rule="evenodd" d="M65.1155 30.6875C65.1275 30.706 65.1213 30.7293 65.1016 30.7394L63.0581 31.7929C63.0385 31.803 63.0128 31.7962 63.0008 31.7776C62.9888 31.7591 62.995 31.7358 63.0147 31.7257L65.0582 30.6722C65.0778 30.6621 65.1035 30.6689 65.1155 30.6875Z" fill="#42A0F0"/>
<path fill-rule="evenodd" clip-rule="evenodd" d="M65.1855 31.1038C65.1806 31.1241 65.1582 31.136 65.1356 31.1303L64.5691 30.9895C64.5464 30.9838 64.5321 30.9629 64.537 30.9426C64.542 30.9224 64.5643 30.9105 64.587 30.9161L65.1535 31.057C65.1761 31.0626 65.1905 31.0836 65.1855 31.1038Z" fill="#42A0F0"/>
<path fill-rule="evenodd" clip-rule="evenodd" d="M64.7319 30.4115C64.7544 30.4175 64.7684 30.4387 64.763 30.4588L64.6272 30.9705C64.6218 30.9907 64.5992 31.0021 64.5766 30.9962C64.5541 30.9902 64.5401 30.969 64.5455 30.9488L64.6814 30.4371C64.6867 30.417 64.7093 30.4055 64.7319 30.4115Z" fill="#42A0F0"/>
<path fill-rule="evenodd" clip-rule="evenodd" d="M63.4899 31.4852C63.5123 31.4915 63.5259 31.5128 63.5202 31.5329L63.3774 32.0345C63.3717 32.0545 63.3489 32.0657 63.3264 32.0593C63.304 32.053 63.2904 32.0317 63.2961 32.0116L63.4388 31.51C63.4446 31.49 63.4674 31.4788 63.4899 31.4852Z" fill="#42A0F0"/>
<path fill-rule="evenodd" clip-rule="evenodd" d="M63.5297 31.5393C63.5244 31.5595 63.5019 31.571 63.4793 31.565L62.9062 31.4139C62.8837 31.408 62.8697 31.3868 62.875 31.3666C62.8803 31.3465 62.9029 31.335 62.9254 31.3409L63.4985 31.492C63.5211 31.498 63.5351 31.5191 63.5297 31.5393Z" fill="#42A0F0"/>
<path fill-rule="evenodd" clip-rule="evenodd" d="M65.1038 31.7777C65.0918 31.7962 65.0661 31.8031 65.0465 31.7929L63.003 30.7395C62.9833 30.7293 62.9771 30.7061 62.9891 30.6875C63.0011 30.6689 63.0268 30.6621 63.0464 30.6722L65.0899 31.7257C65.1096 31.7358 65.1158 31.7591 65.1038 31.7777Z" fill="#42A0F0"/>
<path fill-rule="evenodd" clip-rule="evenodd" d="M64.7331 32.0361C64.7106 32.0425 64.6878 32.0313 64.6821 32.0113L64.5394 31.5097C64.5336 31.4896 64.5472 31.4683 64.5697 31.4619C64.5922 31.4556 64.615 31.4668 64.6207 31.4868L64.7635 31.9884C64.7692 32.0085 64.7556 32.0298 64.7331 32.0361Z" fill="#42A0F0"/>
<path fill-rule="evenodd" clip-rule="evenodd" d="M65.1852 31.3433C65.1905 31.3634 65.1766 31.3846 65.154 31.3905L64.5809 31.5417C64.5584 31.5476 64.5358 31.5361 64.5305 31.5159C64.5252 31.4958 64.5392 31.4746 64.5617 31.4687L65.1348 31.3175C65.1573 31.3116 65.1799 31.3231 65.1852 31.3433Z" fill="#42A0F0"/>
<path fill-rule="evenodd" clip-rule="evenodd" d="M63.5223 30.9192C63.5272 30.9394 63.5129 30.9604 63.4903 30.966L62.9237 31.1069C62.9011 31.1125 62.8787 31.1007 62.8738 31.0804C62.8688 31.0602 62.8832 31.0392 62.9058 31.0335L63.4723 30.8927C63.495 30.8871 63.5174 30.8989 63.5223 30.9192Z" fill="#42A0F0"/>
<path fill-rule="evenodd" clip-rule="evenodd" d="M63.4823 30.9728C63.4598 30.9788 63.4372 30.9673 63.4318 30.9472L63.296 30.4354C63.2906 30.4153 63.3046 30.3941 63.3271 30.3881C63.3497 30.3821 63.3723 30.3936 63.3776 30.4137L63.5135 30.9255C63.5188 30.9456 63.5049 30.9668 63.4823 30.9728Z" fill="#42A0F0"/>
<path fill-rule="evenodd" clip-rule="evenodd" d="M6.03321 39.0616C6.05532 39.0616 6.07324 39.0796 6.07324 39.1017V40.9576C6.07324 40.9797 6.05532 40.9976 6.03321 40.9976C6.0111 40.9976 5.99318 40.9797 5.99318 40.9576V39.1017C5.99318 39.0796 6.0111 39.0616 6.03321 39.0616Z" fill="#42A0F0"/>
<path fill-rule="evenodd" clip-rule="evenodd" d="M6.36934 39.4288C6.37565 39.45 6.36358 39.4722 6.34239 39.4786L5.9333 39.6004C5.91211 39.6067 5.88982 39.5946 5.88351 39.5734C5.8772 39.5522 5.88926 39.53 5.91045 39.5236L6.31955 39.4018C6.34073 39.3955 6.36303 39.4076 6.36934 39.4288Z" fill="#42A0F0"/>
<path fill-rule="evenodd" clip-rule="evenodd" d="M5.47458 39.4288C5.48089 39.4076 5.50318 39.3955 5.52437 39.4018L5.93346 39.5236C5.95465 39.53 5.96671 39.5522 5.9604 39.5734C5.95409 39.5946 5.9318 39.6067 5.91061 39.6004L5.50152 39.4786C5.48033 39.4722 5.46827 39.45 5.47458 39.4288Z" fill="#42A0F0"/>
<path fill-rule="evenodd" clip-rule="evenodd" d="M5.88747 40.5157C5.89878 40.4967 5.92335 40.4904 5.94235 40.5017L6.35144 40.7452C6.37044 40.7565 6.37667 40.7811 6.36537 40.8001C6.35406 40.8191 6.32949 40.8253 6.31049 40.814L5.9014 40.5705C5.8824 40.5592 5.87617 40.5347 5.88747 40.5157Z" fill="#42A0F0"/>
<path fill-rule="evenodd" clip-rule="evenodd" d="M5.95643 40.5157C5.96774 40.5347 5.9615 40.5592 5.9425 40.5705L5.53341 40.814C5.51441 40.8253 5.48984 40.8191 5.47854 40.8001C5.46723 40.7811 5.47347 40.7565 5.49246 40.7452L5.90156 40.5017C5.92056 40.4904 5.94512 40.4967 5.95643 40.5157Z" fill="#42A0F0"/>
<path fill-rule="evenodd" clip-rule="evenodd" d="M6.9641 39.555C6.97611 39.5736 6.96991 39.5968 6.95026 39.607L5.15028 40.5349C5.13063 40.545 5.10497 40.5382 5.09296 40.5196C5.08096 40.5011 5.08716 40.4778 5.10681 40.4677L6.90679 39.5397C6.92644 39.5296 6.9521 39.5364 6.9641 39.555Z" fill="#42A0F0"/>
<path fill-rule="evenodd" clip-rule="evenodd" d="M7.02695 39.9251C7.02201 39.9454 6.99964 39.9572 6.977 39.9516L6.47804 39.8276C6.4554 39.8219 6.44105 39.801 6.44599 39.7807C6.45094 39.7605 6.4733 39.7486 6.49595 39.7542L6.9949 39.8783C7.01755 39.8839 7.0319 39.9049 7.02695 39.9251Z" fill="#42A0F0"/>
<path fill-rule="evenodd" clip-rule="evenodd" d="M6.62349 39.31C6.64604 39.316 6.65999 39.3372 6.65464 39.3574L6.53497 39.8081C6.52962 39.8282 6.507 39.8397 6.48445 39.8337C6.4619 39.8277 6.44795 39.8065 6.4533 39.7864L6.57297 39.3357C6.57832 39.3155 6.60094 39.3041 6.62349 39.31Z" fill="#42A0F0"/>
<path fill-rule="evenodd" clip-rule="evenodd" d="M5.52917 40.2555C5.55163 40.2618 5.56521 40.2832 5.55951 40.3033L5.43375 40.745C5.42805 40.7651 5.40521 40.7762 5.38274 40.7699C5.36028 40.7636 5.3467 40.7422 5.3524 40.7222L5.47816 40.2804C5.48386 40.2604 5.5067 40.2492 5.52917 40.2555Z" fill="#42A0F0"/>
<path fill-rule="evenodd" clip-rule="evenodd" d="M5.56716 40.309C5.56186 40.3291 5.53927 40.3407 5.5167 40.3347L5.01197 40.2016C4.98941 40.1957 4.97541 40.1745 4.98072 40.1543C4.98602 40.1342 5.00861 40.1227 5.03117 40.1286L5.53591 40.2617C5.55847 40.2677 5.57246 40.2888 5.56716 40.309Z" fill="#42A0F0"/>
<path fill-rule="evenodd" clip-rule="evenodd" d="M6.95386 40.5195C6.94186 40.5381 6.9162 40.5449 6.89655 40.5348L5.09657 39.6068C5.07692 39.5967 5.07072 39.5734 5.08272 39.5549C5.09473 39.5363 5.12039 39.5295 5.14004 39.5396L6.94002 40.4675C6.95967 40.4777 6.96587 40.5009 6.95386 40.5195Z" fill="#42A0F0"/>
<path fill-rule="evenodd" clip-rule="evenodd" d="M6.62412 40.7493C6.60166 40.7556 6.57882 40.7444 6.57312 40.7244L6.44736 40.2826C6.44165 40.2626 6.45524 40.2412 6.4777 40.2349C6.50017 40.2286 6.523 40.2397 6.52871 40.2598L6.65447 40.7015C6.66017 40.7216 6.64659 40.743 6.62412 40.7493Z" fill="#42A0F0"/>
<path fill-rule="evenodd" clip-rule="evenodd" d="M7.02582 40.1335C7.03112 40.1537 7.01713 40.1749 6.99457 40.1808L6.48983 40.3139C6.46727 40.3199 6.44468 40.3084 6.43937 40.2882C6.43407 40.268 6.44806 40.2469 6.47063 40.2409L6.97536 40.1078C6.99792 40.1019 7.02051 40.1134 7.02582 40.1335Z" fill="#42A0F0"/>
<path fill-rule="evenodd" clip-rule="evenodd" d="M5.56112 39.76C5.56606 39.7802 5.55171 39.8012 5.52907 39.8068L5.03011 39.9309C5.00747 39.9365 4.9851 39.9246 4.98016 39.9044C4.97522 39.8841 4.98957 39.8632 5.01221 39.8575L5.51117 39.7335C5.53381 39.7279 5.55618 39.7397 5.56112 39.76Z" fill="#42A0F0"/>
<path fill-rule="evenodd" clip-rule="evenodd" d="M5.52233 39.8127C5.49978 39.8186 5.47716 39.8072 5.47181 39.787L5.35214 39.3363C5.34679 39.3162 5.36074 39.295 5.38329 39.289C5.40584 39.283 5.42846 39.2945 5.43381 39.3146L5.55348 39.7653C5.55883 39.7855 5.54488 39.8067 5.52233 39.8127Z" fill="#42A0F0"/>
<path fill-rule="evenodd" clip-rule="evenodd" d="M35.5186 46.1575C35.5407 46.1575 35.5586 46.1754 35.5586 46.1975V47.7028C35.5586 47.7249 35.5407 47.7428 35.5186 47.7428C35.4965 47.7428 35.4785 47.7249 35.4785 47.7028V46.1975C35.4785 46.1754 35.4965 46.1575 35.5186 46.1575Z" fill="#42A0F0"/>
<path fill-rule="evenodd" clip-rule="evenodd" d="M35.7887 46.3979C35.7977 46.418 35.7886 46.4417 35.7684 46.4507L35.4936 46.5735C35.4734 46.5825 35.4498 46.5735 35.4407 46.5533C35.4317 46.5331 35.4408 46.5094 35.461 46.5004L35.7358 46.3776C35.756 46.3686 35.7796 46.3777 35.7887 46.3979Z" fill="#42A0F0"/>
<path fill-rule="evenodd" clip-rule="evenodd" d="M35.03 46.4028C35.0363 46.3816 35.0586 46.3695 35.0798 46.3758L35.4889 46.4976C35.5101 46.5039 35.5221 46.5262 35.5158 46.5474C35.5095 46.5686 35.4872 46.5807 35.466 46.5744L35.0569 46.4526C35.0357 46.4462 35.0237 46.424 35.03 46.4028Z" fill="#42A0F0"/>
<path fill-rule="evenodd" clip-rule="evenodd" d="M35.4407 47.3721C35.4498 47.3519 35.4734 47.3429 35.4936 47.3519L35.7684 47.4747C35.7886 47.4837 35.7977 47.5073 35.7887 47.5275C35.7796 47.5477 35.756 47.5568 35.7358 47.5478L35.461 47.425C35.4408 47.416 35.4317 47.3923 35.4407 47.3721Z" fill="#42A0F0"/>
<path fill-rule="evenodd" clip-rule="evenodd" d="M35.5158 47.377C35.5221 47.3982 35.5101 47.4205 35.4889 47.4268L35.0798 47.5486C35.0586 47.5549 35.0363 47.5429 35.03 47.5217C35.0237 47.5005 35.0357 47.4782 35.0569 47.4719L35.466 47.3501C35.4872 47.3438 35.5095 47.3558 35.5158 47.377Z" fill="#42A0F0"/>
<path fill-rule="evenodd" clip-rule="evenodd" d="M36.28 46.5617C36.292 46.5803 36.2858 46.6035 36.2662 46.6137L34.8062 47.3663C34.7866 47.3765 34.7609 47.3696 34.7489 47.3511C34.7369 47.3325 34.7431 47.3092 34.7627 47.2991L36.2227 46.5464C36.2424 46.5363 36.268 46.5432 36.28 46.5617Z" fill="#42A0F0"/>
<path fill-rule="evenodd" clip-rule="evenodd" d="M36.3327 46.8692C36.3278 46.8894 36.3054 46.9013 36.2828 46.8957L35.8749 46.7943C35.8522 46.7887 35.8379 46.7677 35.8428 46.7475C35.8477 46.7272 35.8701 46.7154 35.8927 46.721L36.3007 46.8223C36.3233 46.828 36.3377 46.8489 36.3327 46.8692Z" fill="#42A0F0"/>
<path fill-rule="evenodd" clip-rule="evenodd" d="M35.9987 46.3594C36.0213 46.3654 36.0352 46.3865 36.0299 46.4067L35.932 46.7752C35.9267 46.7953 35.9041 46.8068 35.8815 46.8008C35.859 46.7948 35.845 46.7736 35.8504 46.7535L35.9482 46.385C35.9536 46.3648 35.9762 46.3534 35.9987 46.3594Z" fill="#42A0F0"/>
<path fill-rule="evenodd" clip-rule="evenodd" d="M35.1112 47.1266C35.1337 47.1329 35.1472 47.1543 35.1415 47.1744L35.0387 47.5355C35.033 47.5555 35.0101 47.5667 34.9877 47.5604C34.9652 47.554 34.9516 47.5327 34.9573 47.5126L35.0602 47.1515C35.0659 47.1315 35.0887 47.1203 35.1112 47.1266Z" fill="#42A0F0"/>
<path fill-rule="evenodd" clip-rule="evenodd" d="M35.1492 47.1806C35.1439 47.2007 35.1213 47.2122 35.0988 47.2063L34.6861 47.0975C34.6635 47.0915 34.6495 47.0703 34.6548 47.0502C34.6601 47.03 34.6827 47.0185 34.7053 47.0245L35.118 47.1333C35.1406 47.1392 35.1545 47.1604 35.1492 47.1806Z" fill="#42A0F0"/>
<path fill-rule="evenodd" clip-rule="evenodd" d="M36.272 47.3509C36.26 47.3695 36.2343 47.3763 36.2147 47.3662L34.7547 46.6135C34.735 46.6034 34.7288 46.5801 34.7408 46.5616C34.7529 46.543 34.7785 46.5362 34.7982 46.5463L36.2581 47.2989C36.2778 47.3091 36.284 47.3323 36.272 47.3509Z" fill="#42A0F0"/>
<path fill-rule="evenodd" clip-rule="evenodd" d="M35.9988 47.5426C35.9763 47.5489 35.9535 47.5378 35.9478 47.5177L35.8449 47.1566C35.8392 47.1365 35.8528 47.1152 35.8752 47.1089C35.8977 47.1025 35.9205 47.1137 35.9262 47.1337L36.0291 47.4949C36.0348 47.5149 36.0212 47.5363 35.9988 47.5426Z" fill="#42A0F0"/>
<path fill-rule="evenodd" clip-rule="evenodd" d="M36.3315 47.0323C36.3368 47.0525 36.3228 47.0737 36.3002 47.0796L35.8875 47.1885C35.865 47.1944 35.8424 47.1829 35.8371 47.1627C35.8318 47.1426 35.8458 47.1214 35.8683 47.1155L36.281 47.0066C36.3036 47.0007 36.3262 47.0122 36.3315 47.0323Z" fill="#42A0F0"/>
<path fill-rule="evenodd" clip-rule="evenodd" d="M35.1436 46.7296C35.1486 46.7498 35.1342 46.7708 35.1116 46.7764L34.7037 46.8778C34.681 46.8834 34.6587 46.8715 34.6537 46.8513C34.6488 46.831 34.6631 46.8101 34.6858 46.8044L35.0937 46.7031C35.1163 46.6975 35.1387 46.7093 35.1436 46.7296Z" fill="#42A0F0"/>
<path fill-rule="evenodd" clip-rule="evenodd" d="M35.1048 46.783C35.0822 46.789 35.0596 46.7775 35.0543 46.7574L34.9564 46.3889C34.9511 46.3687 34.965 46.3475 34.9876 46.3415C35.0101 46.3355 35.0328 46.347 35.0381 46.3672L35.1359 46.7357C35.1413 46.7558 35.1274 46.777 35.1048 46.783Z" fill="#42A0F0"/>
<g filter="url(#filter0_f_19_1633)">
<path fill-rule="evenodd" clip-rule="evenodd" d="M51.2518 42.0383C51.3844 42.0383 51.4919 42.1459 51.4919 42.2785V55.2712C51.4919 55.4039 51.3844 55.5114 51.2518 55.5114C51.1191 55.5114 51.0116 55.4039 51.0116 55.2712V42.2785C51.0116 42.1459 51.1191 42.0383 51.2518 42.0383Z" fill="#42A0F0"/>
<path fill-rule="evenodd" clip-rule="evenodd" d="M53.9046 42.9818C53.9945 43.0794 53.9883 43.2313 53.8908 43.3212L51.3849 45.631C51.2874 45.7209 51.1354 45.7148 51.0455 45.6172C50.9556 45.5197 50.9618 45.3677 51.0593 45.2778L53.5652 42.968C53.6628 42.8781 53.8147 42.8843 53.9046 42.9818Z" fill="#42A0F0"/>
<path fill-rule="evenodd" clip-rule="evenodd" d="M48.4565 42.9846C48.5449 42.8857 48.6967 42.8771 48.7957 42.9654L51.3825 45.2753C51.4814 45.3636 51.49 45.5155 51.4017 45.6144C51.3133 45.7134 51.1615 45.7219 51.0625 45.6336L48.4757 43.3238C48.3768 43.2354 48.3682 43.0836 48.4565 42.9846Z" fill="#42A0F0"/>
<path fill-rule="evenodd" clip-rule="evenodd" d="M51.0455 52.2211C51.1354 52.1235 51.2874 52.1174 51.3849 52.2073L53.8908 54.5171C53.9883 54.607 53.9945 54.7589 53.9046 54.8565C53.8147 54.954 53.6628 54.9602 53.5652 54.8703L51.0593 52.5605C50.9618 52.4706 50.9556 52.3186 51.0455 52.2211Z" fill="#42A0F0"/>
<path fill-rule="evenodd" clip-rule="evenodd" d="M51.4017 52.2239C51.49 52.3228 51.4814 52.4747 51.3825 52.563L48.7957 54.8728C48.6967 54.9612 48.5449 54.9526 48.4565 54.8537C48.3682 54.7547 48.3768 54.6029 48.4757 54.5145L51.0625 52.2047C51.1615 52.1164 51.3133 52.1249 51.4017 52.2239Z" fill="#42A0F0"/>
<path fill-rule="evenodd" clip-rule="evenodd" d="M57.7312 45.4703C57.8032 45.5817 57.766 45.7213 57.6481 45.7821L45.0468 52.2784C44.9289 52.3392 44.7749 52.2982 44.7029 52.1868C44.6308 52.0754 44.668 51.9358 44.7859 51.875L57.3873 45.3787C57.5052 45.3179 57.6591 45.3589 57.7312 45.4703Z" fill="#42A0F0"/>
<path fill-rule="evenodd" clip-rule="evenodd" d="M58.1622 48.0326C58.1326 48.1541 57.9984 48.2252 57.8625 48.1914L54.3693 47.3231C54.2334 47.2893 54.1473 47.1634 54.177 47.0419C54.2067 46.9204 54.3409 46.8493 54.4767 46.8831L57.9699 47.7514C58.1058 47.7852 58.1919 47.9111 58.1622 48.0326Z" fill="#42A0F0"/>
<path fill-rule="evenodd" clip-rule="evenodd" d="M55.373 43.7717C55.5083 43.8076 55.592 43.9347 55.5599 44.0556L54.7221 47.2109C54.69 47.3318 54.5543 47.4006 54.419 47.3647C54.2837 47.3288 54.2 47.2016 54.2321 47.0807L55.0699 43.9254C55.102 43.8046 55.2377 43.7357 55.373 43.7717Z" fill="#42A0F0"/>
<path fill-rule="evenodd" clip-rule="evenodd" d="M47.7106 50.3927C47.8454 50.4306 47.9269 50.5588 47.8927 50.6791L47.0123 53.7718C46.978 53.8921 46.841 53.9589 46.7062 53.9211C46.5714 53.8832 46.4899 53.755 46.5242 53.6347L47.4046 50.542C47.4388 50.4217 47.5759 50.3549 47.7106 50.3927Z" fill="#42A0F0"/>
<path fill-rule="evenodd" clip-rule="evenodd" d="M47.9473 50.7184C47.9154 50.8393 47.7799 50.9084 47.6445 50.8727L44.1109 49.9409C43.9755 49.9052 43.8915 49.7782 43.9233 49.6572C43.9552 49.5363 44.0907 49.4672 44.2261 49.5029L47.7597 50.4347C47.8951 50.4704 47.9791 50.5974 47.9473 50.7184Z" fill="#42A0F0"/>
<path fill-rule="evenodd" clip-rule="evenodd" d="M57.6614 52.1869C57.5894 52.2982 57.4354 52.3393 57.3175 52.2785L44.7162 45.7821C44.5983 45.7214 44.5611 45.5818 44.6331 45.4704C44.7051 45.359 44.8591 45.318 44.977 45.3787L57.5783 51.8751C57.6963 51.9359 57.7334 52.0755 57.6614 52.1869Z" fill="#42A0F0"/>
<path fill-rule="evenodd" clip-rule="evenodd" d="M55.378 53.7768C55.2432 53.8146 55.1062 53.7478 55.072 53.6275L54.1916 50.5348C54.1573 50.4145 54.2388 50.2863 54.3736 50.2484C54.5084 50.2106 54.6454 50.2774 54.6797 50.3977L55.5601 53.4904C55.5943 53.6107 55.5128 53.7389 55.378 53.7768Z" fill="#42A0F0"/>
<path fill-rule="evenodd" clip-rule="evenodd" d="M58.161 49.5129C58.1928 49.6339 58.1089 49.7609 57.9735 49.7966L54.4398 50.7284C54.3045 50.7641 54.1689 50.695 54.1371 50.5741C54.1053 50.4531 54.1892 50.3261 54.3246 50.2904L57.8583 49.3586C57.9936 49.3229 58.1292 49.392 58.161 49.5129Z" fill="#42A0F0"/>
<path fill-rule="evenodd" clip-rule="evenodd" d="M47.9072 46.8976C47.9369 47.0192 47.8508 47.145 47.7149 47.1788L44.2217 48.0471C44.0859 48.0809 43.9517 48.0098 43.922 47.8883C43.8924 47.7668 43.9785 47.6409 44.1143 47.6071L47.6075 46.7388C47.7434 46.705 47.8776 46.7761 47.9072 46.8976Z" fill="#42A0F0"/>
<path fill-rule="evenodd" clip-rule="evenodd" d="M47.6654 47.2204C47.5301 47.2563 47.3944 47.1875 47.3623 47.0666L46.5245 43.9113C46.4924 43.7904 46.576 43.6633 46.7113 43.6274C46.8467 43.5914 46.9824 43.6603 47.0145 43.7811L47.8523 46.9364C47.8844 47.0573 47.8007 47.1844 47.6654 47.2204Z" fill="#42A0F0"/>
<path fill-rule="evenodd" clip-rule="evenodd" d="M34.7671 27.1494C34.8998 27.1494 35.0073 27.2569 35.0073 27.3896V40.3823C35.0073 40.515 34.8998 40.6225 34.7671 40.6225C34.6345 40.6225 34.527 40.515 34.527 40.3823V27.3896C34.527 27.2569 34.6345 27.1494 34.7671 27.1494Z" fill="#42A0F0"/>
<path fill-rule="evenodd" clip-rule="evenodd" d="M37.42 28.0929C37.5099 28.1904 37.5037 28.3424 37.4062 28.4323L34.9003 30.7421C34.8027 30.832 34.6508 30.8258 34.5609 30.7283C34.471 30.6308 34.4772 30.4788 34.5747 30.3889L37.0806 28.0791C37.1782 27.9892 37.3301 27.9954 37.42 28.0929Z" fill="#42A0F0"/>
<path fill-rule="evenodd" clip-rule="evenodd" d="M31.9722 28.0957C32.0605 27.9968 32.2123 27.9882 32.3113 28.0765L34.8981 30.3864C34.9971 30.4747 35.0056 30.6265 34.9173 30.7255C34.8289 30.8244 34.6771 30.833 34.5782 30.7447L31.9913 28.4348C31.8924 28.3465 31.8838 28.1947 31.9722 28.0957Z" fill="#42A0F0"/>
<path fill-rule="evenodd" clip-rule="evenodd" d="M34.5609 37.3323C34.6508 37.2347 34.8027 37.2286 34.9003 37.3185L37.4062 39.6283C37.5037 39.7182 37.5099 39.8701 37.42 39.9677C37.3301 40.0652 37.1782 40.0714 37.0806 39.9815L34.5747 37.6717C34.4772 37.5818 34.471 37.4298 34.5609 37.3323Z" fill="#42A0F0"/>
<path fill-rule="evenodd" clip-rule="evenodd" d="M34.9173 37.3351C35.0056 37.434 34.9971 37.5859 34.8981 37.6742L32.3113 39.9841C32.2123 40.0724 32.0605 40.0638 31.9722 39.9649C31.8838 39.8659 31.8924 39.7141 31.9913 39.6257L34.5782 37.3159C34.6771 37.2276 34.8289 37.2362 34.9173 37.3351Z" fill="#42A0F0"/>
<path fill-rule="evenodd" clip-rule="evenodd" d="M41.2463 30.5814C41.3183 30.6928 41.2811 30.8324 41.1632 30.8931L28.5619 37.3895C28.444 37.4503 28.29 37.4092 28.218 37.2979C28.146 37.1865 28.1832 37.0469 28.3011 36.9861L40.9024 30.4897C41.0203 30.429 41.1743 30.47 41.2463 30.5814Z" fill="#42A0F0"/>
<path fill-rule="evenodd" clip-rule="evenodd" d="M41.6774 33.1435C41.6477 33.265 41.5135 33.3362 41.3777 33.3024L37.8844 32.4341C37.7486 32.4003 37.6625 32.2744 37.6921 32.1529C37.7218 32.0314 37.856 31.9603 37.9919 31.9941L41.4851 32.8624C41.6209 32.8962 41.707 33.022 41.6774 33.1435Z" fill="#42A0F0"/>
<path fill-rule="evenodd" clip-rule="evenodd" d="M38.8884 28.8826C39.0237 28.9186 39.1074 29.0457 39.0753 29.1666L38.2375 32.3219C38.2054 32.4428 38.0697 32.5116 37.9344 32.4757C37.799 32.4397 37.7154 32.3126 37.7475 32.1917L38.5853 29.0364C38.6174 28.9155 38.7531 28.8467 38.8884 28.8826Z" fill="#42A0F0"/>
<path fill-rule="evenodd" clip-rule="evenodd" d="M31.2255 35.5038C31.3603 35.5417 31.4418 35.6699 31.4076 35.7902L30.5272 38.8829C30.4929 39.0032 30.3559 39.07 30.2211 39.0321C30.0863 38.9943 30.0048 38.8661 30.0391 38.7458L30.9195 35.653C30.9537 35.5328 31.0907 35.4659 31.2255 35.5038Z" fill="#42A0F0"/>
<path fill-rule="evenodd" clip-rule="evenodd" d="M31.4621 35.8296C31.4303 35.9505 31.2948 36.0197 31.1594 35.984L27.6257 35.0521C27.4904 35.0164 27.4064 34.8894 27.4382 34.7684C27.4701 34.6475 27.6056 34.5784 27.741 34.6141L31.2746 35.5459C31.41 35.5816 31.494 35.7086 31.4621 35.8296Z" fill="#42A0F0"/>
<path fill-rule="evenodd" clip-rule="evenodd" d="M41.1766 37.2978C41.1045 37.4092 40.9506 37.4502 40.8327 37.3895L28.2313 30.8931C28.1134 30.8323 28.0762 30.6927 28.1483 30.5813C28.2203 30.47 28.3743 30.4289 28.4922 30.4897L41.0935 36.9861C41.2114 37.0468 41.2486 37.1864 41.1766 37.2978Z" fill="#42A0F0"/>
<path fill-rule="evenodd" clip-rule="evenodd" d="M38.8932 38.8877C38.7584 38.9256 38.6213 38.8588 38.5871 38.7385L37.7067 35.6458C37.6725 35.5255 37.754 35.3973 37.8887 35.3594C38.0235 35.3215 38.1606 35.3883 38.1948 35.5086L39.0752 38.6014C39.1094 38.7216 39.0279 38.8499 38.8932 38.8877Z" fill="#42A0F0"/>
<path fill-rule="evenodd" clip-rule="evenodd" d="M41.6761 34.6239C41.708 34.7448 41.624 34.8718 41.4886 34.9075L37.955 35.8394C37.8196 35.8751 37.6841 35.806 37.6522 35.685C37.6204 35.5641 37.7044 35.4371 37.8397 35.4014L41.3734 34.4695C41.5088 34.4338 41.6443 34.5029 41.6761 34.6239Z" fill="#42A0F0"/>
<path fill-rule="evenodd" clip-rule="evenodd" d="M31.4221 32.0087C31.4518 32.1302 31.3657 32.2561 31.2298 32.2899L27.7366 33.1582C27.6008 33.192 27.4666 33.1209 27.4369 32.9994C27.4072 32.8779 27.4933 32.752 27.6292 32.7182L31.1224 31.8499C31.2583 31.8161 31.3925 31.8872 31.4221 32.0087Z" fill="#42A0F0"/>
<path fill-rule="evenodd" clip-rule="evenodd" d="M31.1803 32.3314C31.045 32.3673 30.9092 32.2984 30.8771 32.1776L30.0393 29.0223C30.0072 28.9014 30.0909 28.7743 30.2262 28.7383C30.3615 28.7024 30.4973 28.7712 30.5294 28.8921L31.3672 32.0474C31.3993 32.1683 31.3156 32.2954 31.1803 32.3314Z" fill="#42A0F0"/>
<path fill-rule="evenodd" clip-rule="evenodd" d="M21.6919 42.0383C21.8246 42.0383 21.9321 42.1459 21.9321 42.2785V55.2712C21.9321 55.4039 21.8246 55.5114 21.6919 55.5114C21.5593 55.5114 21.4518 55.4039 21.4518 55.2712V42.2785C21.4518 42.1459 21.5593 42.0383 21.6919 42.0383Z" fill="#42A0F0"/>
<path fill-rule="evenodd" clip-rule="evenodd" d="M24.3448 42.9818C24.4347 43.0794 24.4285 43.2313 24.331 43.3212L21.8251 45.631C21.7276 45.7209 21.5756 45.7148 21.4857 45.6172C21.3958 45.5197 21.402 45.3677 21.4995 45.2778L24.0054 42.968C24.103 42.8781 24.2549 42.8843 24.3448 42.9818Z" fill="#42A0F0"/>
<path fill-rule="evenodd" clip-rule="evenodd" d="M18.8967 42.9846C18.9851 42.8857 19.1369 42.8771 19.2359 42.9654L21.8227 45.2753C21.9216 45.3636 21.9302 45.5155 21.8419 45.6144C21.7535 45.7134 21.6017 45.7219 21.5027 45.6336L18.9159 43.3238C18.817 43.2354 18.8084 43.0836 18.8967 42.9846Z" fill="#42A0F0"/>
<path fill-rule="evenodd" clip-rule="evenodd" d="M21.4857 52.2211C21.5756 52.1235 21.7276 52.1174 21.8251 52.2073L24.331 54.5171C24.4285 54.607 24.4347 54.7589 24.3448 54.8565C24.2549 54.954 24.103 54.9602 24.0054 54.8703L21.4995 52.5605C21.402 52.4706 21.3958 52.3186 21.4857 52.2211Z" fill="#42A0F0"/>
<path fill-rule="evenodd" clip-rule="evenodd" d="M21.8419 52.2239C21.9302 52.3228 21.9216 52.4747 21.8227 52.563L19.2359 54.8728C19.1369 54.9612 18.9851 54.9526 18.8967 54.8537C18.8084 54.7547 18.817 54.6029 18.9159 54.5145L21.5027 52.2047C21.6017 52.1164 21.7535 52.1249 21.8419 52.2239Z" fill="#42A0F0"/>
<path fill-rule="evenodd" clip-rule="evenodd" d="M28.1718 45.4703C28.2439 45.5817 28.2067 45.7213 28.0888 45.7821L15.4874 52.2784C15.3695 52.3392 15.2156 52.2982 15.1435 52.1868C15.0715 52.0754 15.1087 51.9358 15.2266 51.875L27.8279 45.3787C27.9458 45.3179 28.0998 45.3589 28.1718 45.4703Z" fill="#42A0F0"/>
<path fill-rule="evenodd" clip-rule="evenodd" d="M28.6029 48.0326C28.5732 48.1541 28.4391 48.2252 28.3032 48.1914L24.81 47.3231C24.6741 47.2893 24.588 47.1634 24.6177 47.0419C24.6473 46.9204 24.7815 46.8493 24.9174 46.8831L28.4106 47.7514C28.5465 47.7852 28.6326 47.9111 28.6029 48.0326Z" fill="#42A0F0"/>
<path fill-rule="evenodd" clip-rule="evenodd" d="M25.8137 43.7715C25.949 43.8075 26.0327 43.9346 26.0006 44.0555L25.1628 47.2108C25.1307 47.3317 24.995 47.4005 24.8597 47.3646C24.7243 47.3286 24.6407 47.2015 24.6728 47.0806L25.5106 43.9253C25.5427 43.8044 25.6784 43.7356 25.8137 43.7715Z" fill="#42A0F0"/>
<path fill-rule="evenodd" clip-rule="evenodd" d="M18.1516 50.3927C18.2863 50.4306 18.3679 50.5588 18.3336 50.6791L17.4532 53.7718C17.419 53.8921 17.2819 53.9589 17.1472 53.9211C17.0124 53.8832 16.9309 53.755 16.9651 53.6347L17.8455 50.542C17.8797 50.4217 18.0168 50.3549 18.1516 50.3927Z" fill="#42A0F0"/>
<path fill-rule="evenodd" clip-rule="evenodd" d="M18.3887 50.7187C18.3568 50.8397 18.2213 50.9088 18.0859 50.8731L14.5523 49.9413C14.4169 49.9056 14.3329 49.7786 14.3648 49.6576C14.3966 49.5367 14.5321 49.4675 14.6675 49.5032L18.2011 50.4351C18.3365 50.4708 18.4205 50.5978 18.3887 50.7187Z" fill="#42A0F0"/>
<path fill-rule="evenodd" clip-rule="evenodd" d="M28.1018 52.1867C28.0298 52.2981 27.8759 52.3392 27.758 52.2784L15.1566 45.782C15.0387 45.7212 15.0015 45.5817 15.0736 45.4703C15.1456 45.3589 15.2995 45.3178 15.4175 45.3786L28.0188 51.875C28.1367 51.9358 28.1739 52.0753 28.1018 52.1867Z" fill="#42A0F0"/>
<path fill-rule="evenodd" clip-rule="evenodd" d="M25.8192 53.7766C25.6844 53.8145 25.5474 53.7477 25.5131 53.6274L24.6327 50.5347C24.5985 50.4144 24.68 50.2862 24.8148 50.2483C24.9496 50.2104 25.0866 50.2773 25.1208 50.3975L26.0012 53.4903C26.0355 53.6106 25.954 53.7388 25.8192 53.7766Z" fill="#42A0F0"/>
<path fill-rule="evenodd" clip-rule="evenodd" d="M28.6017 49.5129C28.6335 49.6339 28.5495 49.7609 28.4142 49.7966L24.8805 50.7284C24.7451 50.7641 24.6096 50.695 24.5778 50.5741C24.546 50.4531 24.6299 50.3261 24.7653 50.2904L28.2989 49.3586C28.4343 49.3229 28.5699 49.392 28.6017 49.5129Z" fill="#42A0F0"/>
<path fill-rule="evenodd" clip-rule="evenodd" d="M18.3484 46.8975C18.3781 47.019 18.292 47.1449 18.1561 47.1787L14.6629 48.047C14.527 48.0808 14.3928 48.0097 14.3632 47.8882C14.3335 47.7666 14.4196 47.6408 14.5555 47.607L18.0487 46.7387C18.1846 46.7049 18.3187 46.776 18.3484 46.8975Z" fill="#42A0F0"/>
<path fill-rule="evenodd" clip-rule="evenodd" d="M18.1056 47.2203C17.9703 47.2562 17.8345 47.1874 17.8024 47.0665L16.9646 43.9112C16.9325 43.7903 17.0162 43.6632 17.1515 43.6272C17.2868 43.5913 17.4225 43.6601 17.4546 43.781L18.2924 46.9363C18.3245 47.0572 18.2409 47.1843 18.1056 47.2203Z" fill="#42A0F0"/>
</g>
<g filter="url(#filter1_df_19_1633)">
<g filter="url(#filter2_d_19_1633)">
<path d="M42.4571 37.3317C42.0908 37.358 41.7209 37.3712 41.3473 37.3715H15.2889C13.4952 37.3774 11.7178 37.0671 10.0588 36.4583C8.39969 35.8496 6.89154 34.9543 5.62084 33.8239C4.35014 32.6935 3.34189 31.3501 2.65392 29.871C1.96596 28.3918 1.61182 26.806 1.61182 25.2043C1.61182 23.6027 1.96596 22.0168 2.65392 20.5377C3.34189 19.0585 4.35014 17.7152 5.62084 16.5848C6.89154 15.4544 8.39969 14.5591 10.0588 13.9503C11.7178 13.3415 13.4952 13.0312 15.2889 13.0372H25.0048C28.1548 6.84893 35.4095 2.51758 43.8553 2.51758C55.1915 2.51758 64.3814 10.3199 64.3814 19.9445C64.3814 29.5691 55.1915 37.3715 43.8553 37.3715C43.3854 37.3715 42.9193 37.3582 42.4571 37.3317Z" fill="url(#paint0_linear_19_1633)"/>
<path d="M43.8557 37.2023C45.2363 37.2023 46.6159 37.0842 47.9562 36.8513C49.2624 36.6244 50.5471 36.2858 51.7747 35.845C52.9799 35.4122 54.1424 34.8765 55.2297 34.2528C56.3065 33.6352 57.3191 32.9258 58.2393 32.1446C59.1594 31.3635 59.9946 30.504 60.7219 29.59C61.4559 28.6675 62.0864 27.6814 62.5957 26.659C63.1144 25.618 63.5127 24.5285 63.7797 23.421C64.0536 22.2846 64.1924 21.1149 64.1924 19.9444C64.1924 18.774 64.0536 17.6043 63.7797 16.468C63.5127 15.3604 63.1144 14.271 62.5957 13.2299C62.0864 12.2076 61.4559 11.2215 60.7219 10.299C59.9946 9.38503 59.1594 8.52556 58.2394 7.74444C57.3191 6.96317 56.3065 6.25386 55.2297 5.6362C54.1424 5.01253 52.9799 4.47685 51.7747 4.04406C50.5471 3.60322 49.2624 3.26463 47.9562 3.03771C46.6159 2.80485 45.2363 2.68677 43.8557 2.68677C39.8063 2.68677 35.8955 3.69387 32.5462 5.59918C30.9317 6.51761 29.4809 7.62619 28.2341 8.89412C26.9795 10.1701 25.9511 11.5875 25.1777 13.1071L25.1272 13.2063H25.0052H15.2893C13.4753 13.2063 11.7156 13.5235 10.0592 14.1491C9.26305 14.4498 8.49515 14.822 7.77684 15.2553C7.0653 15.6845 6.3962 16.1775 5.78811 16.7205C5.18002 17.2634 4.62795 17.8609 4.14724 18.4963C3.66196 19.1377 3.24516 19.8233 2.90842 20.5342C2.20781 22.0133 1.85257 23.5845 1.85257 25.2043C1.85257 26.8241 2.20781 28.3953 2.90842 29.8744C3.24516 30.5853 3.66196 31.271 4.14724 31.9123C4.62795 32.5477 5.18002 33.1452 5.78811 33.6881C6.3962 34.2311 7.0653 34.7241 7.77684 35.1533C8.49515 35.5866 9.26305 35.9588 10.0592 36.2595C11.7156 36.8851 13.4753 37.2023 15.2893 37.2023H41.3478C41.7122 37.2023 42.0805 37.1891 42.4425 37.163L42.4561 37.162L42.4698 37.1628C42.9282 37.189 43.3945 37.2023 43.8557 37.2023ZM43.8557 37.3715C43.3859 37.3715 42.9196 37.358 42.4577 37.3317C42.0918 37.358 41.7212 37.3715 41.3478 37.3715H15.2893C7.76378 37.3715 1.66309 31.924 1.66309 25.2043C1.66309 18.4846 7.76378 13.0371 15.2893 13.0371H25.0052C28.1552 6.84816 35.4095 2.51758 43.8557 2.51758C55.192 2.51758 64.3819 10.32 64.3819 19.9444C64.3819 29.5691 55.192 37.3715 43.8557 37.3715Z" fill="white" fill-opacity="0.5"/>
</g>
</g>
<defs>
<filter id="filter0_f_19_1633" x="14.0372" y="26.8292" width="44.451" height="29.0024" filterUnits="userSpaceOnUse" color-interpolation-filters="sRGB">
<feFlood flood-opacity="0" result="BackgroundImageFix"/>
<feBlend mode="normal" in="SourceGraphic" in2="BackgroundImageFix" result="shape"/>
<feGaussianBlur stdDeviation="0.160122" result="effect1_foregroundBlur_19_1633"/>
</filter>
<filter id="filter1_df_19_1633" x="0.0105932" y="0.275866" width="67.5737" height="39.6577" filterUnits="userSpaceOnUse" color-interpolation-filters="sRGB">
<feFlood flood-opacity="0" result="BackgroundImageFix"/>
<feColorMatrix in="SourceAlpha" type="matrix" values="0 0 0 0 0 0 0 0 0 0 0 0 0 0 0 0 0 0 127 0" result="hardAlpha"/>
<feOffset dx="0.800612" dy="0.160122"/>
<feGaussianBlur stdDeviation="1.20092"/>
<feColorMatrix type="matrix" values="0 0 0 0 0.258824 0 0 0 0 0.627451 0 0 0 0 0.941176 0 0 0 0.596 0"/>
<feBlend mode="normal" in2="BackgroundImageFix" result="effect1_dropShadow_19_1633"/>
<feBlend mode="normal" in="SourceGraphic" in2="effect1_dropShadow_19_1633" result="shape"/>
<feGaussianBlur stdDeviation="0.160122" result="effect2_foregroundBlur_19_1633"/>
</filter>
<filter id="filter2_d_19_1633" x="0.0105932" y="0.275866" width="67.5737" height="39.6577" filterUnits="userSpaceOnUse" color-interpolation-filters="sRGB">
<feFlood flood-opacity="0" result="BackgroundImageFix"/>
<feColorMatrix in="SourceAlpha" type="matrix" values="0 0 0 0 0 0 0 0 0 0 0 0 0 0 0 0 0 0 127 0" result="hardAlpha"/>
<feOffset dx="0.800612" dy="0.160122"/>
<feGaussianBlur stdDeviation="1.20092"/>
<feColorMatrix type="matrix" values="0 0 0 0 0.501961 0 0 0 0 0.501961 0 0 0 0 0.501961 0 0 0 0.302 0"/>
<feBlend mode="normal" in2="BackgroundImageFix" result="effect1_dropShadow_19_1633"/>
<feBlend mode="normal" in="SourceGraphic" in2="effect1_dropShadow_19_1633" result="shape"/>
</filter>
<linearGradient id="paint0_linear_19_1633" x1="27.0335" y1="6.90918" x2="37.2312" y2="39.9753" gradientUnits="userSpaceOnUse">
<stop stop-color="white" stop-opacity="0.596"/>
<stop offset="1" stop-color="#F7F7F7" stop-opacity="0.204"/>
</linearGradient>
</defs>
</svg>
