<svg width="74" height="50" viewBox="0 0 74 50" fill="none" xmlns="http://www.w3.org/2000/svg">
<g filter="url(#filter0_f_19_525)">
<path d="M38.5791 27.5432C39.326 27.5507 46.9031 38.1143 46.9031 42.2192C46.9031 44.1905 46.0261 46.081 44.465 47.4749C42.904 48.8688 40.7868 49.6519 38.5791 49.6519C36.3714 49.6519 34.2542 48.8688 32.6932 47.4749C31.1321 46.081 30.2551 44.1905 30.2551 42.2192C30.2551 38.1144 37.8324 27.5358 38.5791 27.5432Z" fill="#42A0F0"/>
<g filter="url(#filter1_f_19_525)">
<path d="M32.2326 44.9977C33.0643 45.2248 34.1214 44.2907 34.5936 42.9114C35.0659 41.5322 34.7745 40.23 33.9427 40.0029C33.111 39.7759 32.0539 40.7099 31.5817 42.0892C31.1094 43.4685 31.4008 44.7706 32.2326 44.9977Z" fill="white"/>
</g>
</g>
<g filter="url(#filter2_f_19_525)">
<path d="M17.4622 29.7927C14.5779 29.7962 11.7593 29.0235 9.37397 27.5754C7.20813 26.2647 5.47771 24.4571 4.36458 22.3428C3.25144 20.2285 2.79669 17.8855 3.04813 15.5601C3.29956 13.2346 4.24788 11.0125 5.79344 9.12742C7.339 7.24232 9.42471 5.76376 11.8314 4.84716C13.6118 4.17073 15.5273 3.82366 17.4622 3.82693C18.027 3.82694 18.5914 3.85621 19.1524 3.91457C18.8253 4.5532 18.5751 5.22103 18.4059 5.90682C18.2319 6.61464 18.1443 7.33719 18.1446 8.06184C18.1409 10.0504 18.8058 11.9941 20.0532 13.6415C20.8574 14.704 21.8821 15.6191 23.0721 16.3371C23.6701 16.6978 24.3059 17.0059 24.9705 17.2572C26.3467 17.7773 27.8264 18.044 29.3208 18.0414C30.1854 18.0417 31.0471 17.9528 31.8889 17.7766C31.6904 20.2188 30.721 22.5607 29.0931 24.5311C28.5664 25.1687 27.976 25.7621 27.329 26.3041C24.6587 28.548 21.1291 29.796 17.4622 29.7927Z" fill="#713FFD"/>
</g>
<g filter="url(#filter3_f_19_525)">
<path d="M14.9172 15.0242C18.1645 12.4134 19.1754 8.68876 17.175 6.70502C15.1747 4.72128 10.9206 5.22963 7.67325 7.84044C4.42593 10.4513 3.41507 14.1759 5.41543 16.1596C7.41579 18.1434 11.6699 17.635 14.9172 15.0242Z" fill="#A586FC"/>
</g>
<g filter="url(#filter4_f_19_525)">
<path d="M10.3567 0.47229L10.8427 1.52129L12.1568 1.91044L10.8427 2.29958L10.3567 3.34858L9.8707 2.29958L8.55664 1.91044L9.8707 1.52129L10.3567 0.47229Z" fill="url(#paint0_linear_19_525)"/>
<path d="M32.0525 25.3438L32.4618 26.2083L33.5683 26.5281L32.4618 26.8479L32.0525 27.7125L31.6432 26.8479L30.5366 26.5281L31.6432 26.2083L32.0525 25.3438Z" fill="url(#paint1_linear_19_525)"/>
<path d="M25.6109 3.7893L26.2818 4.57469L27.4782 4.63864L26.4782 5.22845L26.3372 6.20823L25.6662 5.42108L24.4698 5.35712L25.4699 4.76731L25.6109 3.7893Z" fill="url(#paint2_linear_19_525)"/>
<path d="M1.67761 23.415L2.40163 24.0233L3.52779 23.9227L2.6645 24.5762L2.65142 25.4632L1.92947 24.8545L0.803311 24.9551L1.66676 24.3019L1.67761 23.415Z" fill="url(#paint3_linear_19_525)"/>
<path d="M24.9782 12.4915L24.1825 12.6355L23.7117 13.372L23.6501 12.5258L23.0056 12.0849L23.8018 11.9413L24.2724 11.2048L24.3337 12.051L24.9782 12.4915Z" fill="url(#paint4_linear_19_525)"/>
</g>
<g filter="url(#filter5_df_19_525)">
<g filter="url(#filter6_d_19_525)">
<path d="M47.9249 38.5011C47.5586 38.5274 47.1886 38.5407 46.8151 38.5409H20.7567C18.963 38.5469 17.1856 38.2366 15.5265 37.6278C13.8675 37.019 12.3593 36.1237 11.0886 34.9933C9.81791 33.8629 8.80966 32.5196 8.1217 31.0404C7.43373 29.5613 7.07959 27.9754 7.07959 26.3738C7.07959 24.7721 7.43373 23.1862 8.1217 21.7071C8.80966 20.2279 9.81791 18.8846 11.0886 17.7542C12.3593 16.6238 13.8675 15.7285 15.5265 15.1197C17.1856 14.511 18.963 14.2006 20.7567 14.2066H30.4724C33.6224 8.01837 40.8773 3.68701 49.3231 3.68701C60.6593 3.68701 69.8492 11.4894 69.8492 21.1139C69.8492 30.7385 60.6593 38.5409 49.3231 38.5409C48.8532 38.5409 48.3871 38.5276 47.9249 38.5011Z" fill="url(#paint5_linear_19_525)"/>
<path d="M49.3237 38.3717C50.7043 38.3717 52.0839 38.2536 53.4243 38.0208C54.7304 37.7938 56.0151 37.4553 57.2427 37.0144C58.448 36.5816 59.6104 36.0459 60.6977 35.4223C61.7746 34.8046 62.7872 34.0953 63.7074 33.314C64.6274 32.5329 65.4627 31.6734 66.1899 30.7595C66.924 29.837 67.5544 28.8508 68.0638 27.8285C68.5824 26.7874 68.9807 25.698 69.2477 24.5904C69.5216 23.454 69.6605 22.2843 69.6605 21.1139C69.6605 19.9434 69.5216 18.7738 69.2477 17.6374C68.9807 16.5299 68.5824 15.4404 68.0638 14.3994C67.5544 13.377 66.924 12.3909 66.1899 11.4684C65.4627 10.5545 64.6274 9.695 63.7074 8.91387C62.7872 8.13261 61.7746 7.42329 60.6977 6.80563C59.6104 6.18196 58.448 5.64629 57.2427 5.21349C56.0151 4.77265 54.7304 4.43406 53.4243 4.20715C52.0839 3.97428 50.7043 3.85621 49.3237 3.85621C45.2743 3.85621 41.3635 4.8633 38.0142 6.76862C36.3997 7.68704 34.9489 8.79562 33.702 10.0635C32.4474 11.3395 31.419 12.757 30.6455 14.2766L30.595 14.3758H30.473H20.7573C18.9433 14.3758 17.1836 14.693 15.5272 15.3186C14.7311 15.6192 13.9632 15.9914 13.2449 16.4247C12.5333 16.854 11.8642 17.3469 11.2561 17.8899C10.648 18.4329 10.096 19.0303 9.61526 19.6657C9.12998 20.3071 8.71318 20.9928 8.37644 21.7036C7.67583 23.1827 7.32059 24.7539 7.32059 26.3737C7.32059 27.9935 7.67583 29.5648 8.37644 31.0438C8.71318 31.7547 9.12998 32.4404 9.61526 33.0818C10.096 33.7171 10.648 34.3146 11.2561 34.8576C11.8642 35.4005 12.5333 35.8935 13.2449 36.3227C13.9632 36.7561 14.7311 37.1282 15.5272 37.4289C17.1836 38.0545 18.9433 38.3717 20.7573 38.3717H46.8158C47.1802 38.3717 47.5485 38.3585 47.9105 38.3325L47.9241 38.3315L47.9378 38.3323C48.3962 38.3584 48.8625 38.3717 49.3237 38.3717ZM49.3237 38.5409C48.8539 38.5409 48.3876 38.5275 47.9257 38.5011C47.5598 38.5274 47.1893 38.5409 46.8158 38.5409H20.7573C13.2318 38.5409 7.1311 33.0934 7.1311 26.3737C7.1311 19.654 13.2318 14.2066 20.7573 14.2066H30.473C33.6231 8.01759 40.8776 3.68701 49.3237 3.68701C60.66 3.68701 69.8499 11.4894 69.8499 21.1139C69.8499 30.7385 60.66 38.5409 49.3237 38.5409Z" fill="white" fill-opacity="0.5"/>
</g>
</g>
<defs>
<filter id="filter0_f_19_525" x="29.9349" y="27.223" width="17.2884" height="22.7491" filterUnits="userSpaceOnUse" color-interpolation-filters="sRGB">
<feFlood flood-opacity="0" result="BackgroundImageFix"/>
<feBlend mode="normal" in="SourceGraphic" in2="BackgroundImageFix" result="shape"/>
<feGaussianBlur stdDeviation="0.160122" result="effect1_foregroundBlur_19_525"/>
</filter>
<filter id="filter1_f_19_525" x="31.0352" y="39.6486" width="4.10484" height="5.70336" filterUnits="userSpaceOnUse" color-interpolation-filters="sRGB">
<feFlood flood-opacity="0" result="BackgroundImageFix"/>
<feBlend mode="normal" in="SourceGraphic" in2="BackgroundImageFix" result="shape"/>
<feGaussianBlur stdDeviation="0.160122" result="effect1_foregroundBlur_19_525"/>
</filter>
<filter id="filter2_f_19_525" x="2.66047" y="3.50666" width="29.5487" height="26.6063" filterUnits="userSpaceOnUse" color-interpolation-filters="sRGB">
<feFlood flood-opacity="0" result="BackgroundImageFix"/>
<feBlend mode="normal" in="SourceGraphic" in2="BackgroundImageFix" result="shape"/>
<feGaussianBlur stdDeviation="0.160122" result="effect1_foregroundBlur_19_525"/>
</filter>
<filter id="filter3_f_19_525" x="2.7872" y="3.89365" width="17.0162" height="15.0773" filterUnits="userSpaceOnUse" color-interpolation-filters="sRGB">
<feFlood flood-opacity="0" result="BackgroundImageFix"/>
<feBlend mode="normal" in="SourceGraphic" in2="BackgroundImageFix" result="shape"/>
<feGaussianBlur stdDeviation="0.800612" result="effect1_foregroundBlur_19_525"/>
</filter>
<filter id="filter4_f_19_525" x="0.6431" y="0.312168" width="33.0854" height="27.5604" filterUnits="userSpaceOnUse" color-interpolation-filters="sRGB">
<feFlood flood-opacity="0" result="BackgroundImageFix"/>
<feBlend mode="normal" in="SourceGraphic" in2="BackgroundImageFix" result="shape"/>
<feGaussianBlur stdDeviation="0.0800612" result="effect1_foregroundBlur_19_525"/>
</filter>
<filter id="filter5_df_19_525" x="6.75935" y="3.36677" width="63.4108" height="35.8147" filterUnits="userSpaceOnUse" color-interpolation-filters="sRGB">
<feFlood flood-opacity="0" result="BackgroundImageFix"/>
<feColorMatrix in="SourceAlpha" type="matrix" values="0 0 0 0 0 0 0 0 0 0 0 0 0 0 0 0 0 0 127 0" result="hardAlpha"/>
<feOffset dy="0.320245"/>
<feGaussianBlur stdDeviation="0.160122"/>
<feColorMatrix type="matrix" values="0 0 0 0 0.258824 0 0 0 0 0.627451 0 0 0 0 0.941176 0 0 0 0.596 0"/>
<feBlend mode="normal" in2="BackgroundImageFix" result="effect1_dropShadow_19_525"/>
<feBlend mode="normal" in="SourceGraphic" in2="effect1_dropShadow_19_525" result="shape"/>
<feGaussianBlur stdDeviation="0.160122" result="effect2_foregroundBlur_19_525"/>
</filter>
<filter id="filter6_d_19_525" x="5.47837" y="1.4453" width="67.5739" height="39.6577" filterUnits="userSpaceOnUse" color-interpolation-filters="sRGB">
<feFlood flood-opacity="0" result="BackgroundImageFix"/>
<feColorMatrix in="SourceAlpha" type="matrix" values="0 0 0 0 0 0 0 0 0 0 0 0 0 0 0 0 0 0 127 0" result="hardAlpha"/>
<feOffset dx="0.800612" dy="0.160122"/>
<feGaussianBlur stdDeviation="1.20092"/>
<feColorMatrix type="matrix" values="0 0 0 0 0.501961 0 0 0 0 0.501961 0 0 0 0 0.501961 0 0 0 0.302 0"/>
<feBlend mode="normal" in2="BackgroundImageFix" result="effect1_dropShadow_19_525"/>
<feBlend mode="normal" in="SourceGraphic" in2="effect1_dropShadow_19_525" result="shape"/>
</filter>
<linearGradient id="paint0_linear_19_525" x1="10.3567" y1="0.47229" x2="10.3567" y2="3.34858" gradientUnits="userSpaceOnUse">
<stop stop-color="#6B38FC"/>
<stop offset="1" stop-color="#9F7EFD"/>
</linearGradient>
<linearGradient id="paint1_linear_19_525" x1="32.0525" y1="25.3438" x2="32.0525" y2="27.7125" gradientUnits="userSpaceOnUse">
<stop stop-color="#6B38FC"/>
<stop offset="1" stop-color="#9F7EFD"/>
</linearGradient>
<linearGradient id="paint2_linear_19_525" x1="25.6111" y1="3.78924" x2="26.1982" y2="6.2415" gradientUnits="userSpaceOnUse">
<stop stop-color="#6B38FC"/>
<stop offset="1" stop-color="#9F7EFD"/>
</linearGradient>
<linearGradient id="paint3_linear_19_525" x1="1.67857" y1="23.4147" x2="2.4798" y2="25.5283" gradientUnits="userSpaceOnUse">
<stop stop-color="#6B38FC"/>
<stop offset="1" stop-color="#9F7EFD"/>
</linearGradient>
<linearGradient id="paint4_linear_19_525" x1="24.9781" y1="12.4917" x2="23.0306" y2="11.9882" gradientUnits="userSpaceOnUse">
<stop stop-color="#6B38FC"/>
<stop offset="1" stop-color="#9F7EFD"/>
</linearGradient>
<linearGradient id="paint5_linear_19_525" x1="32.5013" y1="8.07861" x2="42.699" y2="41.1447" gradientUnits="userSpaceOnUse">
<stop stop-color="white" stop-opacity="0.596"/>
<stop offset="1" stop-color="#F7F7F7" stop-opacity="0.204"/>
</linearGradient>
</defs>
</svg>
