<svg width="56" height="33" viewBox="0 0 56 33" fill="none" xmlns="http://www.w3.org/2000/svg">
<g filter="url(#filter0_f_19_2074)">
<path fill-rule="evenodd" clip-rule="evenodd" d="M44.8035 9.89549C44.1791 9.36037 43.4998 8.96788 42.9434 8.98049C42.4068 8.99265 41.9958 9.33371 41.3563 9.90447C41.3451 9.91451 41.3338 9.92463 41.3223 9.93482C40.7557 10.441 39.9858 11.1286 38.8812 11.1463L38.8562 11.1467L38.8312 11.1451C37.6213 11.0699 36.9478 10.3682 36.4495 9.84901L36.4322 9.831C35.9202 9.29776 35.609 8.9978 35.0464 8.98118C34.4963 9.02926 34.162 9.35124 33.6296 9.88434L33.6277 9.88622C33.1169 10.3977 32.4316 11.0839 31.2591 11.1455C30.7341 11.1722 30.2265 10.9901 29.8007 10.7646C29.3673 10.535 28.9606 10.2299 28.6188 9.93724C28.2745 9.64258 27.981 9.34761 27.7742 9.12734C27.6704 9.01675 27.5874 8.92388 27.5296 8.85783C27.5007 8.82478 27.4781 8.79836 27.4622 8.77971L27.4437 8.75768L27.4383 8.75128L27.4367 8.74928L27.4359 8.74832C27.4358 8.7482 27.4357 8.7481 27.9245 8.34426L27.4359 8.74832C27.2106 8.47561 27.2488 8.07168 27.5215 7.84639C27.7941 7.62119 28.1976 7.65949 28.423 7.93189C28.4229 7.93183 28.423 7.93194 28.423 7.93189L28.426 7.93549L28.4389 7.95088C28.4509 7.965 28.4694 7.98663 28.494 8.01467C28.543 8.0708 28.6159 8.15231 28.7081 8.25052C28.8933 8.44784 29.1527 8.70811 29.4518 8.9641C29.7532 9.2221 30.0801 9.46301 30.4003 9.63258C30.7279 9.80609 30.9945 9.8762 31.1925 9.86621C31.8308 9.83254 32.2063 9.49681 32.7232 8.97918C32.7451 8.95727 32.7673 8.9349 32.7899 8.91216C33.2704 8.42873 33.9189 7.77627 34.983 7.70126L35.0098 7.69938L35.0366 7.69973C36.1792 7.71502 36.8304 8.39491 37.3115 8.89717C37.3266 8.9129 37.3415 8.92846 37.3562 8.94382C37.8554 9.46372 38.2199 9.81531 38.8851 9.86484C39.4534 9.84631 39.8867 9.49919 40.5034 8.94877C40.5275 8.92723 40.552 8.90525 40.577 8.88291C41.1262 8.39081 41.8709 7.72349 42.9144 7.69984C43.9855 7.67557 44.9873 8.36592 45.6371 8.92285C45.9807 9.21731 46.2672 9.51102 46.4676 9.73035C46.5681 9.84046 46.648 9.93295 46.7035 9.99892C46.7313 10.0319 46.753 10.0584 46.7683 10.0772L46.7863 10.0995L46.7915 10.1061L46.7932 10.1082L46.7941 10.1093C46.7942 10.1094 46.7943 10.1095 46.3117 10.4896L46.7941 10.1093C47.0129 10.3872 46.9653 10.7901 46.6874 11.009C46.4096 11.2278 46.007 11.1801 45.7881 10.9023L45.7859 10.8996L45.7742 10.8851C45.7632 10.8716 45.7461 10.8508 45.7233 10.8236C45.6776 10.7693 45.6092 10.69 45.5217 10.5942C45.3459 10.4017 45.097 10.1471 44.8035 9.89549ZM28.423 7.93189C28.423 7.93197 28.4224 7.93296 27.9295 8.34013L28.423 7.93189C28.423 7.93194 28.4229 7.93183 28.423 7.93189Z" fill="white"/>
</g>
<g filter="url(#filter1_f_19_2074)">
<path fill-rule="evenodd" clip-rule="evenodd" d="M52.5091 23.5013C51.5807 22.9729 50.4371 22.5003 49.3853 22.5161C48.3533 22.5316 47.6069 22.9709 46.6922 23.5131C45.7948 24.045 44.7467 24.6662 43.2722 24.6818L43.2555 24.682L43.2389 24.6813C41.6155 24.6143 40.7045 23.989 39.9247 23.4497C39.1839 22.9374 38.5954 22.5304 37.4909 22.5163C36.4455 22.5696 35.8327 22.977 35.0766 23.4799L35.0453 23.5007C34.2498 24.0295 33.3254 24.6274 31.7753 24.6815C30.4972 24.7248 29.1224 24.1025 28.1382 23.543C27.6311 23.2547 27.1968 22.9649 26.8892 22.7473C26.7351 22.6383 26.6119 22.5468 26.5263 22.4818C26.4835 22.4493 26.4501 22.4234 26.4269 22.4052L26.3998 22.3838L26.3921 22.3777L26.3898 22.3759L26.3887 22.375C26.3886 22.3749 26.3885 22.3749 26.7883 21.8775L26.3887 22.375C26.1131 22.1534 26.069 21.75 26.2907 21.4744M27.191 21.3764C27.1909 21.3763 27.191 21.3764 27.191 21.3764L27.196 21.3804L27.2164 21.3965C27.2351 21.411 27.2636 21.4332 27.3012 21.4618C27.3765 21.519 27.488 21.6018 27.629 21.7016C27.9117 21.9016 28.3098 22.167 28.7713 22.4294C29.7241 22.9711 30.8314 23.4316 31.731 23.4013C32.9092 23.3601 33.5831 22.9345 34.3361 22.4339C34.36 22.418 34.384 22.402 34.4081 22.3859C35.1646 21.8821 36.0356 21.3021 37.4488 21.2359L37.4666 21.2351L37.4844 21.2352C38.9947 21.2486 39.86 21.8473 40.6219 22.3744L40.6533 22.3962C41.3846 22.9019 42.0408 23.346 43.275 23.4007C44.3626 23.3848 45.1411 22.9434 46.039 22.4112C46.0628 22.3971 46.0866 22.383 46.1105 22.3688C46.9793 21.8532 47.9856 21.256 49.366 21.2353C50.7645 21.2142 52.1523 21.8243 53.1427 22.388C53.6477 22.6753 54.071 22.9632 54.3686 23.1796C54.5177 23.288 54.636 23.379 54.7182 23.4439C54.7592 23.4763 54.7913 23.5022 54.8137 23.5205L54.84 23.5421L54.8475 23.5484L54.8499 23.5503L54.8507 23.551C54.8508 23.5511 54.8512 23.5515 54.4384 24.0412L54.8507 23.551C55.1211 23.779 55.1561 24.1836 54.9281 24.454C54.7002 24.7244 54.2964 24.7589 54.0259 24.5312C54.0259 24.5311 54.0259 24.5312 54.0259 24.5312L54.0217 24.5277L54.0032 24.5125C53.9862 24.4985 53.9597 24.4771 53.9246 24.4494C53.8543 24.3939 53.7494 24.3132 53.6153 24.2157C53.3465 24.0203 52.9636 23.7599 52.5091 23.5013" fill="white"/>
</g>
<g filter="url(#filter2_f_19_2074)">
<path fill-rule="evenodd" clip-rule="evenodd" d="M36.5929 31.1149C35.6644 30.5866 34.5208 30.1139 33.469 30.1298C32.437 30.1453 31.6906 30.5846 30.7759 31.1268C29.8785 31.6587 28.8304 32.2798 27.3559 32.2955L27.3393 32.2956L27.3227 32.295C25.6992 32.2279 24.7883 31.6027 24.0084 31.0634C23.2676 30.551 22.6791 30.1441 21.5747 30.13C20.5292 30.1832 19.9165 30.5907 19.1603 31.0935L19.129 31.1143C18.3336 31.6431 17.4092 32.2411 15.859 32.2951C14.5809 32.3384 13.2062 31.7162 12.2219 31.1566C11.7149 30.8684 11.2805 30.5786 10.9729 30.361C10.8188 30.2519 10.6956 30.1604 10.6101 30.0954C10.5673 30.0629 10.5339 30.037 10.5106 30.0188L10.4835 29.9975L10.4759 29.9914L10.4735 29.9895L10.4725 29.9887C10.4724 29.9886 10.4723 29.9885 10.8721 29.4912L10.4725 29.9887C10.1968 29.767 10.1528 29.3637 10.3744 29.088M11.2747 28.99C11.2747 28.99 11.2747 28.99 11.2747 28.99L11.2798 28.994L11.3002 29.0101C11.3188 29.0247 11.3473 29.0468 11.385 29.0754C11.4603 29.1326 11.5717 29.2155 11.7127 29.3152C11.9954 29.5152 12.3935 29.7807 12.855 30.043C13.8079 30.5847 14.9152 31.0453 15.8148 31.0149C16.9929 30.9738 17.6668 30.5481 18.4198 30.0476C18.4437 30.0317 18.4677 30.0157 18.4919 29.9996C19.2484 29.4958 20.1193 28.9157 21.5325 28.8495L21.5503 28.8487L21.5682 28.8489C23.0784 28.8623 23.9437 29.4609 24.7056 29.9881L24.7371 30.0098C25.4683 30.5155 26.1245 30.9597 27.3588 31.0144C28.4464 30.9985 29.2249 30.557 30.1228 30.0248C30.1465 30.0107 30.1703 29.9966 30.1943 29.9824C31.0631 29.4668 32.0693 28.8697 33.4497 28.8489C34.8483 28.8279 36.2361 29.438 37.2264 30.0016C37.7314 30.289 38.1547 30.5769 38.4523 30.7933C38.6014 30.9017 38.7198 30.9927 38.8019 31.0575C38.843 31.0899 38.8751 31.1158 38.8975 31.1341L38.9237 31.1557L38.9313 31.162L38.9336 31.164L38.9344 31.1647C38.9345 31.1648 38.935 31.1652 38.5221 31.6548L38.9344 31.1647C39.2049 31.3927 39.2398 31.7972 39.0118 32.0677C38.7839 32.338 38.3801 32.3725 38.1096 32.1448C38.1096 32.1448 38.1097 32.1448 38.1096 32.1448L38.1054 32.1413L38.087 32.1261C38.0699 32.1122 38.0435 32.0908 38.0083 32.0631C37.938 32.0076 37.8331 31.9268 37.699 31.8293C37.4302 31.6339 37.0473 31.3735 36.5929 31.1149" fill="white"/>
</g>
<g filter="url(#filter3_f_19_2074)">
<path fill-rule="evenodd" clip-rule="evenodd" d="M39.5459 15.0614C39.6048 15.1274 39.5991 15.2286 39.5331 15.2875L38.2067 16.4719C38.1408 16.5308 38.0395 16.525 37.9806 16.4591C37.9217 16.3931 37.9275 16.2919 37.9934 16.233L39.3198 15.0486C39.3858 14.9897 39.487 14.9954 39.5459 15.0614Z" fill="#CAD1D2"/>
<path fill-rule="evenodd" clip-rule="evenodd" d="M37.9806 15.0614C38.0395 14.9954 38.1408 14.9897 38.2067 15.0486L39.5331 16.233C39.5991 16.2919 39.6048 16.3931 39.5459 16.4591C39.487 16.525 39.3858 16.5308 39.3198 16.4719L37.9934 15.2875C37.9275 15.2286 37.9217 15.1274 37.9806 15.0614Z" fill="#CAD1D2"/>
<path fill-rule="evenodd" clip-rule="evenodd" d="M50.3504 28.7661C50.4093 28.8321 50.4036 28.9333 50.3376 28.9922L49.3864 29.8416C49.3204 29.9005 49.2192 29.8947 49.1603 29.8288C49.1014 29.7628 49.1071 29.6616 49.1731 29.6027L50.1243 28.7533C50.1903 28.6944 50.2915 28.7002 50.3504 28.7661Z" fill="#42A0F0"/>
<path fill-rule="evenodd" clip-rule="evenodd" d="M49.1603 28.7661C49.2192 28.7002 49.3204 28.6944 49.3864 28.7533L50.3376 29.6027C50.4036 29.6616 50.4093 29.7628 50.3504 29.8288C50.2915 29.8947 50.1903 29.9005 50.1243 29.8416L49.1731 28.9922C49.1071 28.9333 49.1014 28.8321 49.1603 28.7661Z" fill="#42A0F0"/>
<path fill-rule="evenodd" clip-rule="evenodd" d="M9.61138 24.5363C9.67028 24.6022 9.66455 24.7034 9.59859 24.7623L8.64739 25.6117C8.58142 25.6706 8.4802 25.6649 8.4213 25.5989C8.3624 25.5329 8.36813 25.4317 8.43409 25.3728L9.38529 24.5235C9.45126 24.4646 9.55248 24.4703 9.61138 24.5363Z" fill="#D0D0D0"/>
<path fill-rule="evenodd" clip-rule="evenodd" d="M8.4213 24.5363C8.4802 24.4703 8.58142 24.4646 8.64739 24.5235L9.59859 25.3728C9.66455 25.4317 9.67028 25.5329 9.61138 25.5989C9.55248 25.6649 9.45126 25.6706 9.38529 25.6117L8.43409 24.7623C8.36813 24.7034 8.3624 24.6022 8.4213 24.5363Z" fill="#D0D0D0"/>
<path fill-rule="evenodd" clip-rule="evenodd" d="M48.6448 4.57142C48.7037 4.63738 48.698 4.73861 48.632 4.79751L47.6808 5.64686C47.6149 5.70576 47.5136 5.70003 47.4547 5.63407C47.3958 5.5681 47.4016 5.46688 47.4675 5.40798L48.4187 4.55863C48.4847 4.49973 48.5859 4.50546 48.6448 4.57142Z" fill="#42A0F0"/>
<path fill-rule="evenodd" clip-rule="evenodd" d="M47.4547 4.57142C47.5136 4.50546 47.6149 4.49973 47.6808 4.55863L48.632 5.40798C48.698 5.46688 48.7037 5.5681 48.6448 5.63407C48.5859 5.70003 48.4847 5.70576 48.4187 5.64686L47.4675 4.79751C47.4016 4.73861 47.3958 4.63738 47.4547 4.57142Z" fill="#42A0F0"/>
</g>
<g filter="url(#filter4_f_19_2074)">
<path fill-rule="evenodd" clip-rule="evenodd" d="M17.5735 3.87642C17.7815 3.95121 17.8763 4.1751 17.7852 4.37648L10.7714 19.8775C10.6803 20.0789 10.4377 20.1815 10.2297 20.1067C10.0216 20.0319 9.92683 19.808 10.0179 19.6066L17.0318 4.10564C17.1229 3.90426 17.3654 3.80163 17.5735 3.87642Z" fill="#42A0F0"/>
<path fill-rule="evenodd" clip-rule="evenodd" d="M20.2843 6.09968C20.3673 6.29117 20.2607 6.52126 20.0463 6.6136L15.8096 8.43824C15.5952 8.53057 15.3541 8.45019 15.2712 8.25869C15.1882 8.06719 15.2948 7.8371 15.5092 7.74477L19.746 5.92013C19.9604 5.82779 20.2014 5.90818 20.2843 6.09968Z" fill="#42A0F0"/>
<path fill-rule="evenodd" clip-rule="evenodd" d="M13.7885 3.79977C14.0039 3.70982 14.2436 3.79304 14.3239 3.98566L15.936 7.85487C16.0163 8.04749 15.9067 8.27655 15.6913 8.36651C15.4759 8.45646 15.2362 8.37324 15.1559 8.18062L13.5437 4.31141C13.4635 4.11879 13.573 3.88973 13.7885 3.79977Z" fill="#42A0F0"/>
<path fill-rule="evenodd" clip-rule="evenodd" d="M11.8924 15.9335C12.109 15.8466 12.347 15.9335 12.4238 16.1275L13.9418 19.9619C14.0186 20.156 13.9052 20.3837 13.6885 20.4706C13.4719 20.5574 13.234 20.4705 13.1571 20.2765L11.6392 16.4421C11.5623 16.248 11.6757 16.0203 11.8924 15.9335Z" fill="#42A0F0"/>
<path fill-rule="evenodd" clip-rule="evenodd" d="M12.3095 16.0478C12.389 16.2407 12.2786 16.4695 12.0629 16.5587L7.72968 18.3521C7.51397 18.4414 7.27465 18.3573 7.19515 18.1644C7.11565 17.9715 7.22607 17.7427 7.44179 17.6534L11.775 15.8601C11.9907 15.7708 12.23 15.8548 12.3095 16.0478Z" fill="#42A0F0"/>
<path fill-rule="evenodd" clip-rule="evenodd" d="M23.5123 10.8259C23.5348 11.0382 23.3694 11.2334 23.143 11.2618L4.602 13.5885C4.37556 13.6169 4.17376 13.4679 4.15129 13.2556C4.12882 13.0433 4.29417 12.8482 4.52061 12.8197L23.0616 10.493C23.288 10.4646 23.4898 10.6136 23.5123 10.8259Z" fill="#42A0F0"/>
<path fill-rule="evenodd" clip-rule="evenodd" d="M22.6463 14.1107C22.5132 14.2839 22.2548 14.3236 22.0692 14.1993L18.3242 11.6919C18.1386 11.5676 18.096 11.3264 18.2291 11.1532C18.3623 10.98 18.6206 10.9403 18.8063 11.0646L22.5513 13.572C22.7369 13.6963 22.7795 13.9374 22.6463 14.1107Z" fill="#42A0F0"/>
<path fill-rule="evenodd" clip-rule="evenodd" d="M21.7409 7.75936C21.9166 7.89567 21.9406 8.13905 21.7947 8.30296L18.8049 11.6599C18.6589 11.8238 18.3981 11.8462 18.2225 11.7099C18.0468 11.5736 18.0227 11.3302 18.1687 11.1663L21.1584 7.80934C21.3044 7.64542 21.5652 7.62305 21.7409 7.75936Z" fill="#42A0F0"/>
<path fill-rule="evenodd" clip-rule="evenodd" d="M9.0216 12.3611C9.195 12.4999 9.21503 12.7436 9.06635 12.9054L6.06646 16.1704C5.91777 16.3322 5.65668 16.3509 5.48328 16.2121C5.30988 16.0733 5.28984 15.8296 5.43852 15.6678L8.43842 12.4028C8.5871 12.241 8.8482 12.2223 9.0216 12.3611Z" fill="#42A0F0"/>
<path fill-rule="evenodd" clip-rule="evenodd" d="M9.00874 12.9189C8.8728 13.0901 8.61379 13.1261 8.43022 12.9991L4.67071 10.3994C4.48715 10.2725 4.44853 10.0308 4.58447 9.85949C4.72041 9.68821 4.97942 9.65227 5.16299 9.7792L8.92249 12.3789C9.10606 12.5058 9.14468 12.7476 9.00874 12.9189Z" fill="#42A0F0"/>
<path fill-rule="evenodd" clip-rule="evenodd" d="M19.767 18.8894C19.5773 19.0177 19.3094 18.9912 19.1686 18.8303L7.64146 5.65604C7.50064 5.4951 7.54024 5.2606 7.72991 5.13227C7.91958 5.00395 8.1875 5.0304 8.32832 5.19134L19.8555 18.3656C19.9963 18.5265 19.9567 18.761 19.767 18.8894Z" fill="#42A0F0"/>
<path fill-rule="evenodd" clip-rule="evenodd" d="M16.1112 19.8466C15.8793 19.8271 15.7166 19.6435 15.7478 19.4365L16.3684 15.3217C16.3996 15.1148 16.6129 14.9629 16.8448 14.9824C17.0767 15.002 17.2394 15.1856 17.2082 15.3925L16.5876 19.5074C16.5564 19.7143 16.3431 19.8662 16.1112 19.8466Z" fill="#42A0F0"/>
<path fill-rule="evenodd" clip-rule="evenodd" d="M21.8148 15.8825C21.7801 16.0892 21.5645 16.2384 21.3331 16.2157L16.6607 15.7589C16.4293 15.7363 16.2698 15.5505 16.3045 15.3438C16.3391 15.1372 16.5548 14.988 16.7862 15.0106L21.4585 15.4674C21.6899 15.49 21.8494 15.6759 21.8148 15.8825Z" fill="#42A0F0"/>
<path fill-rule="evenodd" clip-rule="evenodd" d="M10.9936 8.35038C10.9553 8.55661 10.7371 8.70281 10.5063 8.67691L5.91595 8.16195C5.6851 8.13605 5.52902 7.94787 5.56733 7.74164C5.60564 7.5354 5.82383 7.38921 6.05468 7.41511L10.645 7.93007C10.8759 7.95597 11.032 8.14415 10.9936 8.35038Z" fill="#42A0F0"/>
<path fill-rule="evenodd" clip-rule="evenodd" d="M10.4475 8.7049C10.2162 8.68207 10.0569 8.49606 10.0918 8.28944L10.7961 4.11742C10.831 3.9108 11.0468 3.76181 11.2782 3.78464C11.5096 3.80747 11.6688 3.99348 11.634 4.2001L10.9296 8.37212C10.8947 8.57874 10.6789 8.72773 10.4475 8.7049Z" fill="#42A0F0"/>
</g>
<defs>
<filter id="filter0_f_19_2074" x="26.9688" y="7.37897" width="20.2828" height="4.08934" filterUnits="userSpaceOnUse" color-interpolation-filters="sRGB">
<feFlood flood-opacity="0" result="BackgroundImageFix"/>
<feBlend mode="normal" in="SourceGraphic" in2="BackgroundImageFix" result="shape"/>
<feGaussianBlur stdDeviation="0.160122" result="effect1_foregroundBlur_19_2074"/>
</filter>
<filter id="filter1_f_19_2074" x="25.8292" y="20.9145" width="29.5697" height="4.08934" filterUnits="userSpaceOnUse" color-interpolation-filters="sRGB">
<feFlood flood-opacity="0" result="BackgroundImageFix"/>
<feBlend mode="normal" in="SourceGraphic" in2="BackgroundImageFix" result="shape"/>
<feGaussianBlur stdDeviation="0.160122" result="effect1_foregroundBlur_19_2074"/>
</filter>
<filter id="filter2_f_19_2074" x="9.91291" y="28.5281" width="29.5697" height="4.08934" filterUnits="userSpaceOnUse" color-interpolation-filters="sRGB">
<feFlood flood-opacity="0" result="BackgroundImageFix"/>
<feBlend mode="normal" in="SourceGraphic" in2="BackgroundImageFix" result="shape"/>
<feGaussianBlur stdDeviation="0.160122" result="effect1_foregroundBlur_19_2074"/>
</filter>
<filter id="filter3_f_19_2074" x="8.22049" y="4.35782" width="42.3307" height="25.6845" filterUnits="userSpaceOnUse" color-interpolation-filters="sRGB">
<feFlood flood-opacity="0" result="BackgroundImageFix"/>
<feBlend mode="normal" in="SourceGraphic" in2="BackgroundImageFix" result="shape"/>
<feGaussianBlur stdDeviation="0.0800612" result="effect1_foregroundBlur_19_2074"/>
</filter>
<filter id="filter4_f_19_2074" x="3.82893" y="3.44331" width="20.0057" height="17.3812" filterUnits="userSpaceOnUse" color-interpolation-filters="sRGB">
<feFlood flood-opacity="0" result="BackgroundImageFix"/>
<feBlend mode="normal" in="SourceGraphic" in2="BackgroundImageFix" result="shape"/>
<feGaussianBlur stdDeviation="0.160122" result="effect1_foregroundBlur_19_2074"/>
</filter>
</defs>
</svg>
