<svg width="69" height="57" viewBox="0 0 69 57" fill="none" xmlns="http://www.w3.org/2000/svg">
<g filter="url(#filter0_f_19_1297)">
<path fill-rule="evenodd" clip-rule="evenodd" d="M33.8641 31.0883C34.0852 31.0883 34.2644 31.2675 34.2644 31.4886V53.4069C34.2644 53.628 34.0852 53.8072 33.8641 53.8072C33.643 53.8072 33.4638 53.628 33.4638 53.4069V31.4886C33.4638 31.2675 33.643 31.0883 33.8641 31.0883Z" fill="#42A0F0"/>
<path fill-rule="evenodd" clip-rule="evenodd" d="M38.3368 32.6783C38.4866 32.8409 38.4763 33.0941 38.3137 33.244L34.0862 37.1405C33.9236 37.2903 33.6703 37.28 33.5205 37.1175C33.3707 36.9549 33.381 36.7016 33.5436 36.5518L37.7711 32.6553C37.9337 32.5054 38.1869 32.5158 38.3368 32.6783Z" fill="#42A0F0"/>
<path fill-rule="evenodd" clip-rule="evenodd" d="M29.1527 32.683C29.3 32.5181 29.553 32.5038 29.718 32.651L34.0817 36.5476C34.2467 36.6948 34.261 36.9479 34.1137 37.1128C33.9665 37.2777 33.7134 37.292 33.5485 37.1447L29.1847 33.2482C29.0198 33.101 29.0055 32.8479 29.1527 32.683Z" fill="#42A0F0"/>
<path fill-rule="evenodd" clip-rule="evenodd" d="M33.5205 48.2649C33.6703 48.1023 33.9236 48.092 34.0862 48.2418L38.3137 52.1384C38.4763 52.2882 38.4866 52.5414 38.3368 52.704C38.1869 52.8666 37.9337 52.8769 37.7711 52.727L33.5436 48.8305C33.381 48.6807 33.3707 48.4274 33.5205 48.2649Z" fill="#42A0F0"/>
<path fill-rule="evenodd" clip-rule="evenodd" d="M34.1137 48.2696C34.261 48.4345 34.2467 48.6875 34.0817 48.8348L29.718 52.7313C29.553 52.8785 29.3 52.8642 29.1527 52.6993C29.0055 52.5344 29.0198 52.2814 29.1847 52.1341L33.5485 48.2376C33.7134 48.0903 33.9665 48.1046 34.1137 48.2696Z" fill="#42A0F0"/>
<path fill-rule="evenodd" clip-rule="evenodd" d="M44.7909 36.8754C44.911 37.061 44.849 37.2937 44.6525 37.395L23.3944 48.3542C23.1979 48.4555 22.9413 48.3871 22.8212 48.2014C22.7012 48.0158 22.7632 47.7831 22.9597 47.6818L44.2178 36.7227C44.4143 36.6214 44.6709 36.6897 44.7909 36.8754Z" fill="#42A0F0"/>
<path fill-rule="evenodd" clip-rule="evenodd" d="M45.5166 41.1945C45.4672 41.397 45.2435 41.5156 45.0171 41.4593L39.1242 39.9943C38.8977 39.938 38.7542 39.7282 38.8037 39.5257C38.8531 39.3232 39.0768 39.2046 39.3032 39.2609L45.1961 40.7259C45.4226 40.7822 45.5661 40.992 45.5166 41.1945Z" fill="#42A0F0"/>
<path fill-rule="evenodd" clip-rule="evenodd" d="M40.8159 34.0122C41.0415 34.0721 41.1809 34.284 41.1274 34.4855L39.7141 39.8083C39.6606 40.0097 39.4344 40.1245 39.2089 40.0646C38.9834 40.0046 38.8439 39.7928 38.8974 39.5913L40.3107 34.2685C40.3642 34.0671 40.5904 33.9523 40.8159 34.0122Z" fill="#42A0F0"/>
<path fill-rule="evenodd" clip-rule="evenodd" d="M27.8898 45.1816C28.1144 45.2447 28.2503 45.4584 28.1932 45.6589L26.7082 50.8763C26.6511 51.0768 26.4227 51.1881 26.1981 51.125C25.9735 51.0619 25.8376 50.8482 25.8947 50.6477L27.3797 45.4303C27.4368 45.2299 27.6651 45.1185 27.8898 45.1816Z" fill="#42A0F0"/>
<path fill-rule="evenodd" clip-rule="evenodd" d="M28.2845 45.7252C28.2315 45.9268 28.0056 46.042 27.78 45.9825L21.8189 44.4105C21.5933 44.351 21.4534 44.1393 21.5064 43.9378C21.5595 43.7362 21.7853 43.621 22.011 43.6805L27.972 45.2525C28.1977 45.312 28.3376 45.5236 28.2845 45.7252Z" fill="#42A0F0"/>
<path fill-rule="evenodd" clip-rule="evenodd" d="M44.6729 48.2016C44.5529 48.3872 44.2963 48.4556 44.0998 48.3543L22.8417 37.3951C22.6452 37.2938 22.5832 37.0612 22.7032 36.8755C22.8233 36.6899 23.0799 36.6215 23.2764 36.7228L44.5345 47.682C44.731 47.7833 44.793 48.0159 44.6729 48.2016Z" fill="#42A0F0"/>
<path fill-rule="evenodd" clip-rule="evenodd" d="M40.8242 50.8815C40.5995 50.9446 40.3712 50.8333 40.3141 50.6328L38.8291 45.4154C38.772 45.2149 38.9079 45.0012 39.1325 44.9381C39.3571 44.875 39.5855 44.9864 39.6426 45.1868L41.1276 50.4042C41.1847 50.6047 41.0488 50.8184 40.8242 50.8815Z" fill="#42A0F0"/>
<path fill-rule="evenodd" clip-rule="evenodd" d="M45.5152 43.6943C45.5683 43.8959 45.4284 44.1076 45.2027 44.1671L39.2417 45.739C39.0161 45.7985 38.7902 45.6834 38.7371 45.4818C38.6841 45.2802 38.824 45.0685 39.0496 45.009L45.0107 43.437C45.2363 43.3775 45.4622 43.4927 45.5152 43.6943Z" fill="#42A0F0"/>
<path fill-rule="evenodd" clip-rule="evenodd" d="M28.2179 39.2823C28.2673 39.4848 28.1238 39.6946 27.8974 39.7509L22.0045 41.2159C21.778 41.2722 21.5544 41.1536 21.5049 40.9511C21.4555 40.7486 21.599 40.5388 21.8254 40.4825L27.7183 39.0175C27.9448 38.9613 28.1684 39.0798 28.2179 39.2823Z" fill="#42A0F0"/>
<path fill-rule="evenodd" clip-rule="evenodd" d="M27.8128 39.821C27.5872 39.8809 27.3611 39.7662 27.3076 39.5647L25.8942 34.2419C25.8408 34.0405 25.9802 33.8286 26.2057 33.7687C26.4312 33.7088 26.6574 33.8235 26.7109 34.025L28.1242 39.3477C28.1777 39.5492 28.0383 39.7611 27.8128 39.821Z" fill="#42A0F0"/>
</g>
<g filter="url(#filter1_f_19_1297)">
<path fill-rule="evenodd" clip-rule="evenodd" d="M24.8508 27.0648C24.8729 27.0648 24.8909 27.0827 24.8909 27.1048V28.6019C24.8909 28.624 24.8729 28.6419 24.8508 28.6419C24.8287 28.6419 24.8108 28.624 24.8108 28.6019V27.1048C24.8108 27.0827 24.8287 27.0648 24.8508 27.0648Z" fill="#42A0F0"/>
<path fill-rule="evenodd" clip-rule="evenodd" d="M25.1261 27.3319C25.1351 27.3521 25.126 27.3758 25.1058 27.3848L24.831 27.5076C24.8108 27.5166 24.7872 27.5076 24.7781 27.4874C24.7691 27.4672 24.7782 27.4435 24.7984 27.4345L25.0732 27.3117C25.0934 27.3027 25.117 27.3118 25.1261 27.3319Z" fill="#42A0F0"/>
<path fill-rule="evenodd" clip-rule="evenodd" d="M24.3672 27.3368C24.3735 27.3157 24.3958 27.3036 24.4169 27.3099L24.826 27.4317C24.8472 27.438 24.8593 27.4603 24.853 27.4815C24.8467 27.5027 24.8244 27.5148 24.8032 27.5085L24.3941 27.3866C24.3729 27.3803 24.3608 27.358 24.3672 27.3368Z" fill="#42A0F0"/>
<path fill-rule="evenodd" clip-rule="evenodd" d="M24.7781 28.3062C24.7872 28.286 24.8108 28.2769 24.831 28.286L25.1058 28.4087C25.126 28.4178 25.1351 28.4414 25.1261 28.4616C25.117 28.4818 25.0934 28.4909 25.0732 28.4818L24.7984 28.3591C24.7782 28.35 24.7691 28.3264 24.7781 28.3062Z" fill="#42A0F0"/>
<path fill-rule="evenodd" clip-rule="evenodd" d="M24.853 28.3111C24.8593 28.3323 24.8472 28.3546 24.826 28.3609L24.4169 28.4827C24.3958 28.489 24.3735 28.4769 24.3672 28.4558C24.3608 28.4346 24.3729 28.4123 24.3941 28.406L24.8032 28.2841C24.8244 28.2778 24.8467 28.2899 24.853 28.3111Z" fill="#42A0F0"/>
<path fill-rule="evenodd" clip-rule="evenodd" d="M25.6084 27.467C25.6204 27.4856 25.6142 27.5088 25.5945 27.519L24.1426 28.2675C24.123 28.2776 24.0973 28.2708 24.0853 28.2522C24.0733 28.2336 24.0795 28.2104 24.0991 28.2002L25.5511 27.4517C25.5707 27.4416 25.5964 27.4484 25.6084 27.467Z" fill="#42A0F0"/>
<path fill-rule="evenodd" clip-rule="evenodd" d="M25.6608 27.7729C25.6558 27.7931 25.6335 27.805 25.6108 27.7994L25.2052 27.6985C25.1825 27.6929 25.1682 27.6719 25.1731 27.6516C25.1781 27.6314 25.2004 27.6195 25.2231 27.6252L25.6287 27.726C25.6514 27.7317 25.6657 27.7526 25.6608 27.7729Z" fill="#42A0F0"/>
<path fill-rule="evenodd" clip-rule="evenodd" d="M25.3283 27.2656C25.3509 27.2716 25.3648 27.2928 25.3595 27.3129L25.2622 27.6794C25.2568 27.6995 25.2342 27.711 25.2117 27.705C25.1891 27.699 25.1752 27.6778 25.1805 27.6577L25.2778 27.2912C25.2832 27.2711 25.3058 27.2596 25.3283 27.2656Z" fill="#42A0F0"/>
<path fill-rule="evenodd" clip-rule="evenodd" d="M24.4459 28.0286C24.4684 28.0349 24.482 28.0563 24.4763 28.0763L24.374 28.4355C24.3683 28.4556 24.3455 28.4667 24.323 28.4604C24.3006 28.4541 24.287 28.4327 24.2927 28.4127L24.3949 28.0535C24.4006 28.0334 24.4234 28.0223 24.4459 28.0286Z" fill="#42A0F0"/>
<path fill-rule="evenodd" clip-rule="evenodd" d="M24.4838 28.0824C24.4785 28.1026 24.4559 28.1141 24.4333 28.1081L24.023 27.9999C24.0004 27.994 23.9864 27.9728 23.9917 27.9526C23.997 27.9325 24.0196 27.921 24.0422 27.9269L24.4525 28.0351C24.4751 28.0411 24.4891 28.0622 24.4838 28.0824Z" fill="#42A0F0"/>
<path fill-rule="evenodd" clip-rule="evenodd" d="M25.6001 28.2523C25.5881 28.2708 25.5624 28.2777 25.5428 28.2675L24.0909 27.519C24.0712 27.5089 24.065 27.4856 24.077 27.4671C24.089 27.4485 24.1147 27.4417 24.1343 27.4518L25.5863 28.2003C25.6059 28.2104 25.6121 28.2337 25.6001 28.2523Z" fill="#42A0F0"/>
<path fill-rule="evenodd" clip-rule="evenodd" d="M25.3284 28.4427C25.306 28.4491 25.2831 28.4379 25.2774 28.4179L25.1752 28.0587C25.1695 28.0386 25.1831 28.0173 25.2056 28.011C25.228 28.0047 25.2509 28.0158 25.2566 28.0358L25.3588 28.395C25.3645 28.4151 25.3509 28.4364 25.3284 28.4427Z" fill="#42A0F0"/>
<path fill-rule="evenodd" clip-rule="evenodd" d="M25.6594 27.9351C25.6647 27.9552 25.6507 27.9764 25.6281 27.9823L25.2178 28.0905C25.1952 28.0965 25.1726 28.085 25.1673 28.0648C25.162 28.0447 25.176 28.0235 25.1986 28.0175L25.6089 27.9093C25.6315 27.9034 25.6541 27.9149 25.6594 27.9351Z" fill="#42A0F0"/>
<path fill-rule="evenodd" clip-rule="evenodd" d="M24.4779 27.6339C24.4828 27.6541 24.4685 27.6751 24.4458 27.6807L24.0401 27.7816C24.0175 27.7872 23.9951 27.7754 23.9902 27.7551C23.9852 27.7349 23.9996 27.7139 24.0222 27.7083L24.4279 27.6074C24.4506 27.6018 24.4729 27.6136 24.4779 27.6339Z" fill="#42A0F0"/>
<path fill-rule="evenodd" clip-rule="evenodd" d="M24.4392 27.6873C24.4166 27.6933 24.394 27.6818 24.3887 27.6616L24.2914 27.2952C24.286 27.2751 24.3 27.2539 24.3225 27.2479C24.3451 27.2419 24.3677 27.2534 24.3731 27.2735L24.4703 27.6399C24.4757 27.6601 24.4617 27.6813 24.4392 27.6873Z" fill="#42A0F0"/>
</g>
<g filter="url(#filter2_f_19_1297)">
<path fill-rule="evenodd" clip-rule="evenodd" d="M47.981 30.3793C48.0031 30.3793 48.021 30.3972 48.021 30.4193V32.9856C48.021 33.0077 48.0031 33.0257 47.981 33.0257C47.9589 33.0257 47.9409 33.0077 47.9409 32.9856V30.4193C47.9409 30.3972 47.9589 30.3793 47.981 30.3793Z" fill="#42A0F0"/>
<path fill-rule="evenodd" clip-rule="evenodd" d="M48.4454 30.8709C48.4502 30.8925 48.4367 30.9139 48.4151 30.9187L47.8696 31.0405C47.848 31.0453 47.8266 31.0318 47.8218 31.0102C47.817 30.9886 47.8305 30.9672 47.8521 30.9624L48.3976 30.8406C48.4192 30.8358 48.4406 30.8493 48.4454 30.8709Z" fill="#42A0F0"/>
<path fill-rule="evenodd" clip-rule="evenodd" d="M47.1398 30.8726C47.1437 30.8508 47.1645 30.8363 47.1862 30.8402L47.8682 30.962C47.8899 30.9659 47.9044 30.9867 47.9006 31.0085C47.8967 31.0303 47.8759 31.0448 47.8541 31.0409L47.1722 30.919C47.1504 30.9152 47.1359 30.8944 47.1398 30.8726Z" fill="#42A0F0"/>
<path fill-rule="evenodd" clip-rule="evenodd" d="M47.8243 32.4465C47.8333 32.4263 47.857 32.4172 47.8772 32.4262L48.4227 32.6697C48.4429 32.6787 48.4519 32.7024 48.4429 32.7226C48.4339 32.7427 48.4102 32.7518 48.39 32.7428L47.8445 32.4993C47.8243 32.4903 47.8153 32.4666 47.8243 32.4465Z" fill="#42A0F0"/>
<path fill-rule="evenodd" clip-rule="evenodd" d="M47.8989 32.4492C47.9063 32.47 47.8954 32.4929 47.8746 32.5003L47.1927 32.7438C47.1718 32.7513 47.1489 32.7404 47.1415 32.7196C47.1341 32.6988 47.1449 32.6759 47.1657 32.6684L47.8477 32.4249C47.8685 32.4175 47.8914 32.4284 47.8989 32.4492Z" fill="#42A0F0"/>
<path fill-rule="evenodd" clip-rule="evenodd" d="M49.2544 31.0531C49.2664 31.0716 49.2602 31.0949 49.2405 31.105L46.7515 32.3882C46.7319 32.3983 46.7062 32.3915 46.6942 32.3729C46.6822 32.3543 46.6884 32.3311 46.7081 32.3209L49.1971 31.0378C49.2167 31.0277 49.2424 31.0345 49.2544 31.0531Z" fill="#42A0F0"/>
<path fill-rule="evenodd" clip-rule="evenodd" d="M49.3388 31.5538C49.3339 31.574 49.3115 31.5859 49.2889 31.5803L48.599 31.4087C48.5764 31.4031 48.562 31.3821 48.567 31.3619C48.5719 31.3416 48.5943 31.3298 48.6169 31.3354L49.3068 31.5069C49.3294 31.5126 49.3438 31.5335 49.3388 31.5538Z" fill="#42A0F0"/>
<path fill-rule="evenodd" clip-rule="evenodd" d="M48.7939 30.7209C48.8165 30.7269 48.8304 30.7481 48.825 30.7683L48.6596 31.3914C48.6542 31.4115 48.6316 31.423 48.6091 31.417C48.5865 31.411 48.5726 31.3898 48.5779 31.3697L48.7434 30.7466C48.7487 30.7264 48.7713 30.7149 48.7939 30.7209Z" fill="#42A0F0"/>
<path fill-rule="evenodd" clip-rule="evenodd" d="M47.2806 32.0287C47.3031 32.035 47.3167 32.0564 47.311 32.0765L47.1371 32.6873C47.1314 32.7073 47.1086 32.7184 47.0861 32.7121C47.0637 32.7058 47.0501 32.6845 47.0558 32.6644L47.2296 32.0536C47.2353 32.0336 47.2582 32.0224 47.2806 32.0287Z" fill="#42A0F0"/>
<path fill-rule="evenodd" clip-rule="evenodd" d="M47.3212 32.0844C47.3159 32.1045 47.2933 32.116 47.2708 32.1101L46.573 31.9261C46.5504 31.9201 46.5364 31.8989 46.5417 31.8788C46.547 31.8586 46.5696 31.8471 46.5922 31.8531L47.29 32.0371C47.3125 32.043 47.3265 32.0642 47.3212 32.0844Z" fill="#42A0F0"/>
<path fill-rule="evenodd" clip-rule="evenodd" d="M49.2412 32.373C49.2292 32.3916 49.2036 32.3984 49.1839 32.3883L46.6949 31.1051C46.6752 31.095 46.669 31.0717 46.681 31.0532C46.693 31.0346 46.7187 31.0277 46.7384 31.0379L49.2274 32.321C49.247 32.3312 49.2532 32.3544 49.2412 32.373Z" fill="#42A0F0"/>
<path fill-rule="evenodd" clip-rule="evenodd" d="M48.7946 32.6836C48.7722 32.6899 48.7493 32.6788 48.7436 32.6587L48.5698 32.0479C48.5641 32.0279 48.5777 32.0065 48.6002 32.0002C48.6226 31.9939 48.6455 32.005 48.6512 32.0251L48.825 32.6359C48.8307 32.6559 48.8171 32.6773 48.7946 32.6836Z" fill="#42A0F0"/>
<path fill-rule="evenodd" clip-rule="evenodd" d="M49.3388 31.8502C49.3441 31.8704 49.3301 31.8915 49.3076 31.8975L48.6097 32.0815C48.5872 32.0875 48.5646 32.0759 48.5593 32.0558C48.554 32.0356 48.568 32.0145 48.5905 32.0085L49.2883 31.8245C49.3109 31.8185 49.3335 31.8301 49.3388 31.8502Z" fill="#42A0F0"/>
<path fill-rule="evenodd" clip-rule="evenodd" d="M47.3136 31.3335C47.3185 31.3537 47.3042 31.3747 47.2815 31.3803L46.5916 31.5518C46.569 31.5575 46.5466 31.5456 46.5417 31.5254C46.5367 31.5051 46.5511 31.4841 46.5737 31.4785L47.2636 31.307C47.2862 31.3014 47.3086 31.3132 47.3136 31.3335Z" fill="#42A0F0"/>
<path fill-rule="evenodd" clip-rule="evenodd" d="M47.2712 31.3886C47.2486 31.3946 47.226 31.3831 47.2207 31.3629L47.0552 30.7398C47.0499 30.7197 47.0638 30.6985 47.0864 30.6925C47.1089 30.6865 47.1315 30.698 47.1369 30.7181L47.3023 31.3412C47.3077 31.3614 47.2937 31.3826 47.2712 31.3886Z" fill="#42A0F0"/>
</g>
<g filter="url(#filter3_f_19_1297)">
<path fill-rule="evenodd" clip-rule="evenodd" d="M46.2109 49.2535C46.2331 49.2535 46.251 49.2715 46.251 49.2936V51.4005C46.251 51.4226 46.2331 51.4406 46.2109 51.4406C46.1888 51.4406 46.1709 51.4226 46.1709 51.4005V49.2936C46.1709 49.2715 46.1888 49.2535 46.2109 49.2535Z" fill="#42A0F0"/>
<path fill-rule="evenodd" clip-rule="evenodd" d="M46.5361 49.6207C46.5424 49.6418 46.5303 49.6641 46.5091 49.6704L46.1 49.7923C46.0789 49.7986 46.0566 49.7865 46.0503 49.7653C46.0439 49.7441 46.056 49.7218 46.0772 49.7155L46.4863 49.5937C46.5075 49.5874 46.5298 49.5995 46.5361 49.6207Z" fill="#42A0F0"/>
<path fill-rule="evenodd" clip-rule="evenodd" d="M45.5041 49.6234C45.509 49.6018 45.5304 49.5882 45.5519 49.593L46.0975 49.7148C46.119 49.7196 46.1326 49.741 46.1278 49.7626C46.123 49.7842 46.1016 49.7978 46.08 49.793L45.5345 49.6711C45.5129 49.6663 45.4993 49.6449 45.5041 49.6234Z" fill="#42A0F0"/>
<path fill-rule="evenodd" clip-rule="evenodd" d="M46.0542 50.9511C46.0655 50.9321 46.0901 50.9258 46.1091 50.9372L46.5182 51.1806C46.5372 51.1919 46.5434 51.2165 46.5321 51.2355C46.5208 51.2545 46.4962 51.2607 46.4772 51.2494L46.0681 51.006C46.0491 50.9946 46.0429 50.9701 46.0542 50.9511Z" fill="#42A0F0"/>
<path fill-rule="evenodd" clip-rule="evenodd" d="M46.1253 50.9552C46.1343 50.9754 46.1252 50.9991 46.1051 51.0081L45.5595 51.2516C45.5393 51.2606 45.5157 51.2515 45.5067 51.2313C45.4976 51.2112 45.5067 51.1875 45.5269 51.1785L46.0724 50.935C46.0926 50.926 46.1163 50.9351 46.1253 50.9552Z" fill="#42A0F0"/>
<path fill-rule="evenodd" clip-rule="evenodd" d="M47.2627 49.8107C47.2747 49.8293 47.2685 49.8526 47.2488 49.8627L45.2053 50.9162C45.1857 50.9263 45.16 50.9195 45.148 50.9009C45.136 50.8823 45.1422 50.8591 45.1619 50.849L47.2054 49.7955C47.225 49.7853 47.2507 49.7922 47.2627 49.8107Z" fill="#42A0F0"/>
<path fill-rule="evenodd" clip-rule="evenodd" d="M47.3325 50.227C47.3276 50.2473 47.3052 50.2591 47.2826 50.2535L46.716 50.1126C46.6934 50.107 46.679 50.086 46.684 50.0658C46.6889 50.0455 46.7113 50.0337 46.7339 50.0393L47.3005 50.1802C47.3231 50.1858 47.3375 50.2068 47.3325 50.227Z" fill="#42A0F0"/>
<path fill-rule="evenodd" clip-rule="evenodd" d="M46.8793 49.5347C46.9019 49.5406 46.9158 49.5618 46.9105 49.582L46.7746 50.0937C46.7693 50.1138 46.7467 50.1253 46.7241 50.1193C46.7016 50.1133 46.6876 50.0921 46.693 50.072L46.8288 49.5603C46.8342 49.5401 46.8568 49.5287 46.8793 49.5347Z" fill="#42A0F0"/>
<path fill-rule="evenodd" clip-rule="evenodd" d="M45.6371 50.6083C45.6595 50.6146 45.6731 50.636 45.6674 50.656L45.5247 51.1576C45.519 51.1777 45.4961 51.1888 45.4737 51.1825C45.4512 51.1762 45.4376 51.1548 45.4433 51.1348L45.5861 50.6332C45.5918 50.6131 45.6146 50.602 45.6371 50.6083Z" fill="#42A0F0"/>
<path fill-rule="evenodd" clip-rule="evenodd" d="M45.6762 50.6623C45.6709 50.6825 45.6483 50.694 45.6258 50.6881L45.0527 50.537C45.0301 50.531 45.0162 50.5098 45.0215 50.4897C45.0268 50.4695 45.0494 50.458 45.0719 50.4639L45.645 50.6151C45.6675 50.621 45.6815 50.6422 45.6762 50.6623Z" fill="#42A0F0"/>
<path fill-rule="evenodd" clip-rule="evenodd" d="M47.2517 50.9008C47.2397 50.9194 47.2141 50.9262 47.1944 50.9161L45.1509 49.8626C45.1313 49.8525 45.1251 49.8292 45.1371 49.8107C45.1491 49.7921 45.1747 49.7853 45.1944 49.7954L47.2379 50.8489C47.2575 50.859 47.2637 50.8823 47.2517 50.9008Z" fill="#42A0F0"/>
<path fill-rule="evenodd" clip-rule="evenodd" d="M46.8808 51.1592C46.8584 51.1655 46.8355 51.1544 46.8298 51.1343L46.6871 50.6327C46.6813 50.6127 46.6949 50.5913 46.7174 50.585C46.7399 50.5787 46.7627 50.5898 46.7684 50.6099L46.9112 51.1115C46.9169 51.1315 46.9033 51.1529 46.8808 51.1592Z" fill="#42A0F0"/>
<path fill-rule="evenodd" clip-rule="evenodd" d="M47.3329 50.4664C47.3382 50.4866 47.3243 50.5078 47.3017 50.5137L46.7286 50.6648C46.7061 50.6708 46.6835 50.6593 46.6782 50.6391C46.6729 50.6189 46.6869 50.5978 46.7094 50.5918L47.2825 50.4407C47.3051 50.4348 47.3276 50.4463 47.3329 50.4664Z" fill="#42A0F0"/>
<path fill-rule="evenodd" clip-rule="evenodd" d="M45.6703 50.0424C45.6752 50.0627 45.6608 50.0837 45.6382 50.0893L45.0717 50.2302C45.049 50.2358 45.0267 50.2239 45.0217 50.2037C45.0168 50.1834 45.0311 50.1625 45.0538 50.1568L45.6203 50.016C45.6429 50.0103 45.6653 50.0222 45.6703 50.0424Z" fill="#42A0F0"/>
<path fill-rule="evenodd" clip-rule="evenodd" d="M45.6301 50.096C45.6075 50.1019 45.5849 50.0905 45.5795 50.0703L45.4437 49.5586C45.4383 49.5385 45.4523 49.5173 45.4748 49.5113C45.4974 49.5053 45.52 49.5168 45.5253 49.5369L45.6612 50.0486C45.6666 50.0688 45.6526 50.09 45.6301 50.096Z" fill="#42A0F0"/>
</g>
<g filter="url(#filter4_f_19_1297)">
<path fill-rule="evenodd" clip-rule="evenodd" d="M26.835 54.1244C26.8571 54.1244 26.875 54.1423 26.875 54.1644V56.0203C26.875 56.0424 26.8571 56.0603 26.835 56.0603C26.8129 56.0603 26.7949 56.0424 26.7949 56.0203V54.1644C26.7949 54.1423 26.8129 54.1244 26.835 54.1244Z" fill="#42A0F0"/>
<path fill-rule="evenodd" clip-rule="evenodd" d="M27.1716 54.4915C27.1779 54.5127 27.1658 54.535 27.1446 54.5413L26.7355 54.6631C26.7144 54.6694 26.6921 54.6574 26.6858 54.6362C26.6794 54.615 26.6915 54.5927 26.7127 54.5864L27.1218 54.4646C27.143 54.4583 27.1653 54.4703 27.1716 54.4915Z" fill="#42A0F0"/>
<path fill-rule="evenodd" clip-rule="evenodd" d="M26.2763 54.4915C26.2826 54.4703 26.3049 54.4583 26.3261 54.4646L26.7352 54.5864C26.7564 54.5927 26.7685 54.615 26.7622 54.6362C26.7558 54.6574 26.7336 54.6694 26.7124 54.6631L26.3033 54.5413C26.2821 54.535 26.27 54.5127 26.2763 54.4915Z" fill="#42A0F0"/>
<path fill-rule="evenodd" clip-rule="evenodd" d="M26.6897 55.5784C26.701 55.5594 26.7256 55.5532 26.7446 55.5645L27.1537 55.8079C27.1727 55.8193 27.1789 55.8438 27.1676 55.8628C27.1563 55.8818 27.1317 55.8881 27.1127 55.8767L26.7036 55.6333C26.6846 55.622 26.6784 55.5974 26.6897 55.5784Z" fill="#42A0F0"/>
<path fill-rule="evenodd" clip-rule="evenodd" d="M26.7582 55.5784C26.7695 55.5974 26.7633 55.622 26.7443 55.6333L26.3352 55.8767C26.3162 55.8881 26.2916 55.8818 26.2803 55.8628C26.269 55.8438 26.2752 55.8193 26.2942 55.8079L26.7033 55.5645C26.7223 55.5532 26.7469 55.5594 26.7582 55.5784Z" fill="#42A0F0"/>
<path fill-rule="evenodd" clip-rule="evenodd" d="M27.7649 54.6176C27.7769 54.6362 27.7707 54.6595 27.751 54.6696L25.9511 55.5975C25.9314 55.6077 25.9057 55.6008 25.8937 55.5823C25.8817 55.5637 25.8879 55.5404 25.9076 55.5303L27.7076 54.6024C27.7272 54.5922 27.7529 54.5991 27.7649 54.6176Z" fill="#42A0F0"/>
<path fill-rule="evenodd" clip-rule="evenodd" d="M27.8275 54.9876C27.8225 55.0079 27.8002 55.0197 27.7775 55.0141L27.2786 54.8901C27.2559 54.8844 27.2416 54.8635 27.2465 54.8432C27.2515 54.823 27.2738 54.8111 27.2965 54.8167L27.7954 54.9408C27.8181 54.9464 27.8324 54.9674 27.8275 54.9876Z" fill="#42A0F0"/>
<path fill-rule="evenodd" clip-rule="evenodd" d="M27.4245 54.3724C27.4471 54.3784 27.461 54.3996 27.4557 54.4198L27.336 54.8704C27.3306 54.8906 27.308 54.9021 27.2855 54.8961C27.2629 54.8901 27.249 54.8689 27.2543 54.8487L27.374 54.3981C27.3793 54.3779 27.402 54.3664 27.4245 54.3724Z" fill="#42A0F0"/>
<path fill-rule="evenodd" clip-rule="evenodd" d="M26.3299 55.3183C26.3524 55.3246 26.366 55.346 26.3603 55.366L26.2345 55.8078C26.2288 55.8278 26.206 55.8389 26.1835 55.8326C26.1611 55.8263 26.1475 55.805 26.1532 55.7849L26.2789 55.3432C26.2846 55.3231 26.3075 55.312 26.3299 55.3183Z" fill="#42A0F0"/>
<path fill-rule="evenodd" clip-rule="evenodd" d="M26.3682 55.3715C26.3629 55.3916 26.3403 55.4032 26.3177 55.3972L25.813 55.2641C25.7904 55.2582 25.7764 55.237 25.7817 55.2168C25.787 55.1967 25.8096 55.1852 25.8322 55.1911L26.3369 55.3242C26.3595 55.3302 26.3735 55.3513 26.3682 55.3715Z" fill="#42A0F0"/>
<path fill-rule="evenodd" clip-rule="evenodd" d="M27.7554 55.5822C27.7434 55.6008 27.7177 55.6076 27.6981 55.5975L25.8981 54.6696C25.8784 54.6594 25.8722 54.6362 25.8842 54.6176C25.8962 54.599 25.9219 54.5922 25.9416 54.6023L27.7415 55.5303C27.7612 55.5404 27.7674 55.5637 27.7554 55.5822Z" fill="#42A0F0"/>
<path fill-rule="evenodd" clip-rule="evenodd" d="M27.4259 55.812C27.4034 55.8183 27.3806 55.8072 27.3749 55.7871L27.2491 55.3454C27.2434 55.3253 27.257 55.304 27.2795 55.2977C27.3019 55.2914 27.3248 55.3025 27.3305 55.3225L27.4562 55.7643C27.4619 55.7843 27.4483 55.8057 27.4259 55.812Z" fill="#42A0F0"/>
<path fill-rule="evenodd" clip-rule="evenodd" d="M27.8276 55.1963C27.8329 55.2164 27.8189 55.2376 27.7963 55.2436L27.2916 55.3767C27.269 55.3826 27.2464 55.3711 27.2411 55.3509C27.2358 55.3308 27.2498 55.3096 27.2724 55.3037L27.7771 55.1706C27.7997 55.1646 27.8223 55.1761 27.8276 55.1963Z" fill="#42A0F0"/>
<path fill-rule="evenodd" clip-rule="evenodd" d="M26.3626 54.8226C26.3676 54.8429 26.3532 54.8638 26.3306 54.8695L25.8316 54.9935C25.809 54.9991 25.7866 54.9873 25.7817 54.967C25.7767 54.9468 25.7911 54.9258 25.8137 54.9202L26.3127 54.7961C26.3353 54.7905 26.3577 54.8024 26.3626 54.8226Z" fill="#42A0F0"/>
<path fill-rule="evenodd" clip-rule="evenodd" d="M26.3236 54.8754C26.301 54.8814 26.2784 54.8699 26.2731 54.8498L26.1534 54.3991C26.1481 54.3789 26.162 54.3577 26.1846 54.3518C26.2071 54.3458 26.2297 54.3572 26.2351 54.3774L26.3547 54.8281C26.3601 54.8482 26.3462 54.8694 26.3236 54.8754Z" fill="#42A0F0"/>
</g>
<g filter="url(#filter5_f_19_1297)">
<path fill-rule="evenodd" clip-rule="evenodd" d="M18.9917 46.3311C19.0138 46.3311 19.0317 46.349 19.0317 46.3711V47.8764C19.0317 47.8985 19.0138 47.9164 18.9917 47.9164C18.9696 47.9164 18.9517 47.8985 18.9517 47.8764V46.3711C18.9517 46.349 18.9696 46.3311 18.9917 46.3311Z" fill="#42A0F0"/>
<path fill-rule="evenodd" clip-rule="evenodd" d="M19.2618 46.5714C19.2708 46.5916 19.2618 46.6153 19.2416 46.6243L18.9668 46.7471C18.9466 46.7561 18.9229 46.7471 18.9139 46.7269C18.9049 46.7067 18.9139 46.683 18.9341 46.674L19.2089 46.5512C19.2291 46.5422 19.2528 46.5513 19.2618 46.5714Z" fill="#42A0F0"/>
<path fill-rule="evenodd" clip-rule="evenodd" d="M18.5034 46.5763C18.5097 46.5552 18.532 46.5431 18.5532 46.5494L18.9623 46.6712C18.9835 46.6775 18.9955 46.6998 18.9892 46.721C18.9829 46.7422 18.9606 46.7543 18.9394 46.748L18.5303 46.6261C18.5091 46.6198 18.4971 46.5975 18.5034 46.5763Z" fill="#42A0F0"/>
<path fill-rule="evenodd" clip-rule="evenodd" d="M18.9139 47.5457C18.9229 47.5255 18.9466 47.5164 18.9668 47.5255L19.2416 47.6482C19.2618 47.6573 19.2708 47.6809 19.2618 47.7011C19.2528 47.7213 19.2291 47.7304 19.2089 47.7213L18.9341 47.5986C18.9139 47.5895 18.9049 47.5659 18.9139 47.5457Z" fill="#42A0F0"/>
<path fill-rule="evenodd" clip-rule="evenodd" d="M18.9892 47.5506C18.9955 47.5718 18.9835 47.5941 18.9623 47.6004L18.5532 47.7222C18.532 47.7285 18.5097 47.7164 18.5034 47.6953C18.4971 47.6741 18.5091 47.6518 18.5303 47.6455L18.9394 47.5236C18.9606 47.5173 18.9829 47.5294 18.9892 47.5506Z" fill="#42A0F0"/>
<path fill-rule="evenodd" clip-rule="evenodd" d="M19.7532 46.7352C19.7652 46.7537 19.759 46.777 19.7393 46.7871L18.2794 47.5398C18.2597 47.5499 18.234 47.5431 18.222 47.5245C18.21 47.506 18.2162 47.4827 18.2359 47.4726L19.6959 46.7199C19.7155 46.7098 19.7412 46.7166 19.7532 46.7352Z" fill="#42A0F0"/>
<path fill-rule="evenodd" clip-rule="evenodd" d="M19.8061 47.0425C19.8012 47.0628 19.7788 47.0746 19.7562 47.069L19.3482 46.9677C19.3256 46.9621 19.3112 46.9411 19.3162 46.9208C19.3211 46.9006 19.3435 46.8887 19.3661 46.8943L19.7741 46.9957C19.7967 47.0013 19.8111 47.0223 19.8061 47.0425Z" fill="#42A0F0"/>
<path fill-rule="evenodd" clip-rule="evenodd" d="M19.4716 46.5331C19.4942 46.5391 19.5081 46.5603 19.5028 46.5804L19.4049 46.9489C19.3996 46.9691 19.377 46.9805 19.3544 46.9745C19.3319 46.9685 19.3179 46.9474 19.3233 46.9272L19.4211 46.5587C19.4265 46.5386 19.4491 46.5271 19.4716 46.5331Z" fill="#42A0F0"/>
<path fill-rule="evenodd" clip-rule="evenodd" d="M18.5848 47.3001C18.6073 47.3064 18.6209 47.3278 18.6152 47.3478L18.5123 47.7089C18.5066 47.729 18.4837 47.7401 18.4613 47.7338C18.4388 47.7275 18.4252 47.7061 18.431 47.6861L18.5338 47.325C18.5395 47.3049 18.5624 47.2938 18.5848 47.3001Z" fill="#42A0F0"/>
<path fill-rule="evenodd" clip-rule="evenodd" d="M18.6226 47.354C18.6173 47.3742 18.5947 47.3857 18.5722 47.3798L18.1595 47.2709C18.1369 47.265 18.1229 47.2438 18.1282 47.2236C18.1335 47.2035 18.1561 47.192 18.1787 47.1979L18.5914 47.3068C18.6139 47.3127 18.6279 47.3339 18.6226 47.354Z" fill="#42A0F0"/>
<path fill-rule="evenodd" clip-rule="evenodd" d="M19.7454 47.5245C19.7334 47.5431 19.7077 47.5499 19.6881 47.5398L18.2281 46.7871C18.2084 46.777 18.2022 46.7537 18.2142 46.7351C18.2262 46.7166 18.2519 46.7097 18.2716 46.7199L19.7315 47.4725C19.7512 47.4827 19.7574 47.5059 19.7454 47.5245Z" fill="#42A0F0"/>
<path fill-rule="evenodd" clip-rule="evenodd" d="M19.4719 47.716C19.4495 47.7224 19.4266 47.7112 19.4209 47.6912L19.318 47.3301C19.3123 47.31 19.3259 47.2886 19.3484 47.2823C19.3708 47.276 19.3937 47.2871 19.3994 47.3072L19.5023 47.6683C19.508 47.6884 19.4944 47.7097 19.4719 47.716Z" fill="#42A0F0"/>
<path fill-rule="evenodd" clip-rule="evenodd" d="M19.8046 47.2058C19.8099 47.226 19.7959 47.2471 19.7734 47.2531L19.3607 47.3619C19.3381 47.3679 19.3155 47.3563 19.3102 47.3362C19.3049 47.316 19.3189 47.2949 19.3415 47.2889L19.7542 47.1801C19.7767 47.1741 19.7993 47.1857 19.8046 47.2058Z" fill="#42A0F0"/>
<path fill-rule="evenodd" clip-rule="evenodd" d="M18.6168 46.9031C18.6217 46.9233 18.6074 46.9443 18.5847 46.9499L18.1768 47.0512C18.1542 47.0569 18.1318 47.045 18.1269 47.0248C18.1219 47.0045 18.1363 46.9835 18.1589 46.9779L18.5668 46.8766C18.5895 46.8709 18.6118 46.8828 18.6168 46.9031Z" fill="#42A0F0"/>
<path fill-rule="evenodd" clip-rule="evenodd" d="M18.5779 46.9566C18.5554 46.9626 18.5328 46.9511 18.5274 46.9309L18.4296 46.5624C18.4242 46.5423 18.4382 46.5211 18.4607 46.5151C18.4833 46.5091 18.5059 46.5206 18.5112 46.5407L18.6091 46.9092C18.6144 46.9294 18.6005 46.9506 18.5779 46.9566Z" fill="#42A0F0"/>
</g>
<g filter="url(#filter6_f_19_1297)">
<path d="M18.0449 28.4086C25.7366 28.4086 31.9719 22.8409 31.9719 15.9728C31.9719 9.10477 25.7366 3.53711 18.0449 3.53711C10.3532 3.53711 4.11792 9.10477 4.11792 15.9728C4.11792 22.8409 10.3532 28.4086 18.0449 28.4086Z" fill="#FA9E42"/>
</g>
<g filter="url(#filter7_f_19_1297)">
<path fill-rule="evenodd" clip-rule="evenodd" d="M18.0058 0.260536L18.0448 0.260498L18.0839 0.260536C18.305 0.260968 18.4839 0.44054 18.4834 0.661623C18.483 0.882705 18.3034 1.06158 18.0823 1.06115L18.0448 1.06111L18.0073 1.06115C17.7862 1.06158 17.6067 0.882705 17.6062 0.661623C17.6058 0.44054 17.7847 0.260968 18.0058 0.260536ZM22.6658 1.21874C22.7239 1.00542 22.9439 0.879555 23.1572 0.937619L23.232 0.958132C23.445 1.01707 23.57 1.23758 23.5111 1.45067C23.4521 1.66375 23.2316 1.78871 23.0185 1.72977L22.9469 1.71013C22.7336 1.65206 22.6077 1.43206 22.6658 1.21874ZM13.4239 1.21874C13.4819 1.43206 13.3561 1.65206 13.1427 1.71013L13.0711 1.72977C12.8581 1.78871 12.6375 1.66375 12.5786 1.45067C12.5197 1.23758 12.6446 1.01707 12.8577 0.958133L12.9325 0.937619C13.1458 0.879556 13.3658 1.00542 13.4239 1.21874ZM8.70588 3.12328C8.82125 3.31187 8.7619 3.55828 8.57331 3.67365L8.50978 3.71271C8.3217 3.82891 8.07503 3.77064 7.95883 3.58255C7.84263 3.39447 7.9009 3.1478 8.08898 3.0316L8.1555 2.99071C8.34409 2.87533 8.5905 2.93468 8.70588 3.12328ZM27.3838 3.12328C27.4992 2.93468 27.7456 2.87533 27.9342 2.99071L28.0007 3.0316C28.1888 3.1478 28.247 3.39447 28.1308 3.58255C28.0146 3.77064 27.768 3.82891 27.5799 3.71271L27.5164 3.67365C27.3278 3.55828 27.2684 3.31187 27.3838 3.12328ZM4.73907 6.30537C4.90612 6.4502 4.92413 6.70301 4.77931 6.87006L4.73086 6.92622C4.58685 7.09396 4.33412 7.1132 4.16638 6.96919C3.99863 6.82518 3.97939 6.57245 4.1234 6.40471L4.17438 6.34561C4.31921 6.17857 4.57202 6.16055 4.73907 6.30537ZM31.3506 6.30537C31.5176 6.16055 31.7705 6.17857 31.9153 6.34561L31.9663 6.40471C32.1103 6.57245 32.091 6.82518 31.9233 6.96919C31.7555 7.1132 31.5028 7.09396 31.3588 6.92622L31.3104 6.87006C31.1655 6.70301 31.1836 6.4502 31.3506 6.30537ZM1.98626 10.5753C2.19231 10.6554 2.2944 10.8874 2.21427 11.0935L2.18764 11.1625C2.10863 11.369 1.87719 11.4723 1.67071 11.3933C1.46422 11.3143 1.36089 11.0829 1.4399 10.8764L1.46809 10.8033C1.54821 10.5973 1.78021 10.4952 1.98626 10.5753ZM34.1034 10.5753C34.3095 10.4952 34.5415 10.5973 34.6216 10.8033L34.6498 10.8764C34.7288 11.0829 34.6254 11.3143 34.419 11.3933C34.2125 11.4723 33.981 11.369 33.902 11.1625L33.8754 11.0935C33.7953 10.8874 33.8974 10.6554 34.1034 10.5753ZM0.897794 15.5342C1.11888 15.5348 1.29761 15.7145 1.297 15.9356L1.29695 15.9728L1.297 16.01C1.29761 16.2311 1.11888 16.4108 0.897794 16.4114C0.676712 16.412 0.496998 16.2333 0.496392 16.0122L0.496338 15.9728L0.496392 15.9334C0.496998 15.7124 0.676712 15.5336 0.897794 15.5342ZM35.1919 15.5342C35.413 15.5336 35.5927 15.7124 35.5933 15.9334L35.5933 15.9728L35.5933 16.0122C35.5927 16.2333 35.413 16.412 35.1919 16.4114C34.9708 16.4108 34.7921 16.2311 34.7927 16.01L34.7927 15.9728L34.7927 15.9356C34.7921 15.7145 34.9708 15.5348 35.1919 15.5342ZM1.67071 20.5523C1.87719 20.4733 2.10863 20.5766 2.18764 20.7831L2.21427 20.8522C2.2944 21.0582 2.19231 21.2902 1.98626 21.3703C1.78021 21.4504 1.54821 21.3484 1.46809 21.1423L1.4399 21.0692C1.36089 20.8628 1.46422 20.6313 1.67071 20.5523ZM34.419 20.5523C34.6254 20.6313 34.7288 20.8628 34.6498 21.0692L34.6216 21.1423C34.5415 21.3484 34.3095 21.4504 34.1034 21.3703C33.8974 21.2902 33.7953 21.0582 33.8754 20.8522L33.902 20.7831C33.981 20.5766 34.2125 20.4733 34.419 20.5523ZM4.16638 24.9765C4.33412 24.8324 4.58685 24.8517 4.73086 25.0194L4.77931 25.0756C4.92413 25.2426 4.90612 25.4954 4.73907 25.6403C4.57202 25.7851 4.31921 25.7671 4.17438 25.6L4.1234 25.5409C3.97939 25.3732 3.99863 25.1205 4.16638 24.9765ZM31.9233 24.9765C32.091 25.1205 32.1103 25.3732 31.9663 25.5409L31.9153 25.6C31.7705 25.7671 31.5176 25.7851 31.3506 25.6403C31.1836 25.4954 31.1655 25.2426 31.3104 25.0756L31.3588 25.0194C31.5028 24.8517 31.7555 24.8324 31.9233 24.9765ZM7.95883 28.3631C8.07503 28.175 8.3217 28.1167 8.50978 28.2329L8.57331 28.272C8.7619 28.3874 8.82125 28.6338 8.70588 28.8224C8.5905 29.011 8.34409 29.0703 8.1555 28.9549L8.08898 28.914C7.9009 28.7978 7.84263 28.5512 7.95883 28.3631ZM28.1308 28.3631C28.247 28.5512 28.1888 28.7978 28.0007 28.914L27.9342 28.9549C27.7456 29.0703 27.4992 29.011 27.3838 28.8224C27.2684 28.6338 27.3278 28.3874 27.5164 28.272L27.5799 28.2329C27.768 28.1167 28.0146 28.175 28.1308 28.3631ZM12.5786 30.495C12.6375 30.2819 12.8581 30.1569 13.0711 30.2159L13.1427 30.2355C13.3561 30.2936 13.4819 30.5136 13.4239 30.7269C13.3658 30.9402 13.1458 31.0661 12.9325 31.008L12.8577 30.9875C12.6446 30.9286 12.5197 30.7081 12.5786 30.495ZM23.5111 30.495C23.57 30.7081 23.445 30.9286 23.232 30.9875L23.1572 31.008C22.9439 31.0661 22.7239 30.9402 22.6658 30.7269C22.6077 30.5136 22.7336 30.2936 22.9469 30.2355L23.0185 30.2159C23.2316 30.1569 23.4521 30.2819 23.5111 30.495ZM17.6062 31.284C17.6067 31.0629 17.7862 30.8841 18.0073 30.8845L18.0448 30.8845L18.0824 30.8845C18.3034 30.8841 18.483 31.0629 18.4834 31.284C18.4839 31.5051 18.305 31.6847 18.0839 31.6851L18.0448 31.6851L18.0058 31.6851C17.7847 31.6847 17.6058 31.5051 17.6062 31.284Z" fill="#FA9E42"/>
</g>
<g filter="url(#filter8_f_19_1297)">
<path d="M16.6139 13.4898C21.4917 11.1764 24.2509 7.29211 22.7768 4.814C21.3028 2.33589 16.1536 2.20235 11.2758 4.51572C6.39805 6.8291 3.63882 10.7134 5.11289 13.1915C6.58696 15.6696 11.7361 15.8031 16.6139 13.4898Z" fill="#F8E36F"/>
</g>
<g filter="url(#filter9_df_19_1297)">
<g filter="url(#filter10_d_19_1297)">
<path d="M43.1734 41.5658C42.8071 41.5921 42.4372 41.6054 42.0636 41.6056H16.0052C14.2115 41.6116 12.4342 41.3013 10.7751 40.6925C9.116 40.0837 7.60785 39.1884 6.33715 38.058C5.06645 36.9276 4.0582 35.5843 3.37023 34.1051C2.68227 32.626 2.32812 31.0401 2.32812 29.4384C2.32812 27.8368 2.68227 26.2509 3.37023 24.7718C4.0582 23.2926 5.06645 21.9493 6.33715 20.8189C7.60785 19.6885 9.116 18.7932 10.7751 18.1844C12.4342 17.5757 14.2115 17.2653 16.0052 17.2713H25.7211C28.8711 11.0831 36.1258 6.75171 44.5716 6.75171C55.9078 6.75171 65.0977 14.5541 65.0977 24.1786C65.0977 33.8032 55.9078 41.6056 44.5716 41.6056C44.1017 41.6056 43.6357 41.5923 43.1734 41.5658Z" fill="url(#paint0_linear_19_1297)"/>
<path d="M44.5718 41.4364C45.9523 41.4364 47.3319 41.3183 48.6723 41.0855C49.9784 40.8585 51.2632 40.52 52.4908 40.0791C53.696 39.6463 54.8584 39.1106 55.9457 38.487C57.0226 37.8693 58.0352 37.16 58.9554 36.3787C59.8755 35.5976 60.7107 34.7381 61.438 33.8242C62.172 32.9017 62.8025 31.9155 63.3118 30.8932C63.8305 29.8521 64.2288 28.7627 64.4957 27.6551C64.7696 26.5187 64.9085 25.349 64.9085 24.1786C64.9085 23.0081 64.7696 21.8385 64.4957 20.7021C64.2288 19.5946 63.8305 18.5051 63.3118 17.4641C62.8025 16.4417 62.172 15.4556 61.438 14.5331C60.7107 13.6192 59.8755 12.7597 58.9554 11.9786C58.0352 11.1973 57.0226 10.488 55.9457 9.87033C54.8584 9.24666 53.696 8.71098 52.4908 8.27819C51.2632 7.83735 49.9784 7.49876 48.6723 7.27185C47.3319 7.03898 45.9523 6.9209 44.5718 6.9209C40.5224 6.9209 36.6116 7.928 33.2623 9.83332C31.6478 10.7517 30.197 11.8603 28.9502 13.1282C27.6955 14.4042 26.6672 15.8217 25.8937 17.3413L25.8432 17.4405H25.7212H16.0054C14.1913 17.4405 12.4317 17.7577 10.7753 18.3833C9.97911 18.6839 9.21122 19.0561 8.49291 19.4894C7.78137 19.9187 7.11226 20.4116 6.50417 20.9546C5.89608 21.4976 5.34402 22.095 4.86331 22.7304C4.37803 23.3718 3.96123 24.0575 3.62449 24.7683C2.92387 26.2474 2.56863 27.8186 2.56863 29.4384C2.56863 31.0582 2.92387 32.6295 3.62449 34.1085C3.96123 34.8194 4.37803 35.5051 4.86331 36.1465C5.34402 36.7818 5.89608 37.3793 6.50417 37.9223C7.11226 38.4652 7.78137 38.9582 8.49291 39.3874C9.21122 39.8208 9.97911 40.1929 10.7753 40.4936C12.4317 41.1192 14.1913 41.4364 16.0054 41.4364H42.0639C42.4282 41.4364 42.7965 41.4232 43.1585 41.3972L43.1722 41.3962L43.1858 41.397C43.6443 41.4231 44.1105 41.4364 44.5718 41.4364ZM44.5718 41.6056C44.102 41.6056 43.6357 41.5922 43.1737 41.5658C42.8079 41.5921 42.4373 41.6056 42.0639 41.6056H16.0054C8.47985 41.6056 2.37915 36.1581 2.37915 29.4384C2.37915 22.7187 8.47985 17.2713 16.0054 17.2713H25.7212C28.8713 11.0823 36.1256 6.75171 44.5718 6.75171C55.9081 6.75171 65.098 14.5541 65.098 24.1786C65.098 33.8032 55.9081 41.6056 44.5718 41.6056Z" fill="white" fill-opacity="0.5"/>
</g>
</g>
<defs>
<filter id="filter0_f_19_1297" x="21.1749" y="30.768" width="24.6717" height="23.3595" filterUnits="userSpaceOnUse" color-interpolation-filters="sRGB">
<feFlood flood-opacity="0" result="BackgroundImageFix"/>
<feBlend mode="normal" in="SourceGraphic" in2="BackgroundImageFix" result="shape"/>
<feGaussianBlur stdDeviation="0.160122" result="effect1_foregroundBlur_19_1297"/>
</filter>
<filter id="filter1_f_19_1297" x="23.8291" y="26.9047" width="1.99285" height="1.89727" filterUnits="userSpaceOnUse" color-interpolation-filters="sRGB">
<feFlood flood-opacity="0" result="BackgroundImageFix"/>
<feBlend mode="normal" in="SourceGraphic" in2="BackgroundImageFix" result="shape"/>
<feGaussianBlur stdDeviation="0.0800612" result="effect1_foregroundBlur_19_1297"/>
</filter>
<filter id="filter2_f_19_1297" x="46.3804" y="30.2192" width="3.11956" height="2.96661" filterUnits="userSpaceOnUse" color-interpolation-filters="sRGB">
<feFlood flood-opacity="0" result="BackgroundImageFix"/>
<feBlend mode="normal" in="SourceGraphic" in2="BackgroundImageFix" result="shape"/>
<feGaussianBlur stdDeviation="0.0800612" result="effect1_foregroundBlur_19_1297"/>
</filter>
<filter id="filter3_f_19_1297" x="44.8601" y="49.0934" width="2.63397" height="2.50726" filterUnits="userSpaceOnUse" color-interpolation-filters="sRGB">
<feFlood flood-opacity="0" result="BackgroundImageFix"/>
<feBlend mode="normal" in="SourceGraphic" in2="BackgroundImageFix" result="shape"/>
<feGaussianBlur stdDeviation="0.0800612" result="effect1_foregroundBlur_19_1297"/>
</filter>
<filter id="filter4_f_19_1297" x="25.6204" y="53.9643" width="2.36834" height="2.25616" filterUnits="userSpaceOnUse" color-interpolation-filters="sRGB">
<feFlood flood-opacity="0" result="BackgroundImageFix"/>
<feBlend mode="normal" in="SourceGraphic" in2="BackgroundImageFix" result="shape"/>
<feGaussianBlur stdDeviation="0.0800612" result="effect1_foregroundBlur_19_1297"/>
</filter>
<filter id="filter5_f_19_1297" x="17.9659" y="46.1709" width="2.0014" height="1.90557" filterUnits="userSpaceOnUse" color-interpolation-filters="sRGB">
<feFlood flood-opacity="0" result="BackgroundImageFix"/>
<feBlend mode="normal" in="SourceGraphic" in2="BackgroundImageFix" result="shape"/>
<feGaussianBlur stdDeviation="0.0800612" result="effect1_foregroundBlur_19_1297"/>
</filter>
<filter id="filter6_f_19_1297" x="3.79768" y="3.21686" width="28.4945" height="25.5119" filterUnits="userSpaceOnUse" color-interpolation-filters="sRGB">
<feFlood flood-opacity="0" result="BackgroundImageFix"/>
<feBlend mode="normal" in="SourceGraphic" in2="BackgroundImageFix" result="shape"/>
<feGaussianBlur stdDeviation="0.160122" result="effect1_foregroundBlur_19_1297"/>
</filter>
<filter id="filter7_f_19_1297" x="0.336216" y="0.100376" width="35.4172" height="31.7449" filterUnits="userSpaceOnUse" color-interpolation-filters="sRGB">
<feFlood flood-opacity="0" result="BackgroundImageFix"/>
<feBlend mode="normal" in="SourceGraphic" in2="BackgroundImageFix" result="shape"/>
<feGaussianBlur stdDeviation="0.0800612" result="effect1_foregroundBlur_19_1297"/>
</filter>
<filter id="filter8_f_19_1297" x="3.11484" y="1.26316" width="21.6602" height="15.4792" filterUnits="userSpaceOnUse" color-interpolation-filters="sRGB">
<feFlood flood-opacity="0" result="BackgroundImageFix"/>
<feBlend mode="normal" in="SourceGraphic" in2="BackgroundImageFix" result="shape"/>
<feGaussianBlur stdDeviation="0.800612" result="effect1_foregroundBlur_19_1297"/>
</filter>
<filter id="filter9_df_19_1297" x="0.726902" y="4.51" width="67.5734" height="39.6577" filterUnits="userSpaceOnUse" color-interpolation-filters="sRGB">
<feFlood flood-opacity="0" result="BackgroundImageFix"/>
<feColorMatrix in="SourceAlpha" type="matrix" values="0 0 0 0 0 0 0 0 0 0 0 0 0 0 0 0 0 0 127 0" result="hardAlpha"/>
<feOffset dx="0.800612" dy="0.160122"/>
<feGaussianBlur stdDeviation="1.20092"/>
<feColorMatrix type="matrix" values="0 0 0 0 0.258824 0 0 0 0 0.627451 0 0 0 0 0.941176 0 0 0 0.596 0"/>
<feBlend mode="normal" in2="BackgroundImageFix" result="effect1_dropShadow_19_1297"/>
<feBlend mode="normal" in="SourceGraphic" in2="effect1_dropShadow_19_1297" result="shape"/>
<feGaussianBlur stdDeviation="0.160122" result="effect2_foregroundBlur_19_1297"/>
</filter>
<filter id="filter10_d_19_1297" x="0.726902" y="4.51" width="67.5734" height="39.6577" filterUnits="userSpaceOnUse" color-interpolation-filters="sRGB">
<feFlood flood-opacity="0" result="BackgroundImageFix"/>
<feColorMatrix in="SourceAlpha" type="matrix" values="0 0 0 0 0 0 0 0 0 0 0 0 0 0 0 0 0 0 127 0" result="hardAlpha"/>
<feOffset dx="0.800612" dy="0.160122"/>
<feGaussianBlur stdDeviation="1.20092"/>
<feColorMatrix type="matrix" values="0 0 0 0 0.501961 0 0 0 0 0.501961 0 0 0 0 0.501961 0 0 0 0.302 0"/>
<feBlend mode="normal" in2="BackgroundImageFix" result="effect1_dropShadow_19_1297"/>
<feBlend mode="normal" in="SourceGraphic" in2="effect1_dropShadow_19_1297" result="shape"/>
</filter>
<linearGradient id="paint0_linear_19_1297" x1="27.7498" y1="11.1433" x2="37.9475" y2="44.2094" gradientUnits="userSpaceOnUse">
<stop stop-color="white" stop-opacity="0.596"/>
<stop offset="1" stop-color="#F7F7F7" stop-opacity="0.204"/>
</linearGradient>
</defs>
</svg>
