<svg width="69" height="60" viewBox="0 0 69 60" fill="none" xmlns="http://www.w3.org/2000/svg">
<g filter="url(#filter0_f_19_1477)">
<path fill-rule="evenodd" clip-rule="evenodd" d="M45.6244 31.3231C46.547 30.8925 47.6376 30.8303 48.8934 31.3512C51.4197 32.3988 52.7132 35.0746 52.7141 37.7137C52.715 40.3608 51.4122 42.9547 48.8546 43.7818C46.4988 44.5436 42.727 44.7545 39.6009 44.7839C38.026 44.7987 36.5947 44.7673 35.5573 44.7322C35.0384 44.7147 34.6177 44.6962 34.3263 44.6821C34.1806 44.675 34.0672 44.6691 33.9901 44.6649L33.902 44.6599L33.8717 44.6582C33.8716 44.6582 33.8711 44.6581 33.9001 43.9079L33.9292 43.1576L33.9574 43.1593L34.0427 43.1641C34.118 43.1682 34.2294 43.174 34.373 43.181C34.6603 43.1949 35.0763 43.2132 35.5899 43.2305C36.6175 43.2653 38.0344 43.2963 39.5918 43.2817C42.7304 43.2522 46.3604 43.0365 48.5525 42.3276C50.5428 41.684 51.5108 39.7242 51.5101 37.7144C51.5094 35.6966 50.5289 33.6124 48.5137 32.7767C47.4988 32.3558 46.6921 32.4287 46.0463 32.7301C45.3895 33.0367 44.8511 33.6028 44.4179 34.2586C43.9849 34.9142 43.6748 35.6329 43.4721 36.1959C43.3714 36.4755 43.299 36.7119 43.2522 36.8761C43.2289 36.9581 43.2121 37.0217 43.2014 37.0634C43.1961 37.0842 43.1924 37.0994 43.1901 37.1087L43.1879 37.1181M43.1879 37.1181C43.0957 37.5164 42.7622 37.7468 42.4428 37.6321C42.1233 37.5173 41.9388 37.1011 42.0308 36.7025L42.6093 36.9103C42.0308 36.7025 42.0307 36.7028 42.0308 36.7025L42.0317 36.6988L42.0331 36.6927L42.0378 36.6733C42.0417 36.6573 42.0472 36.635 42.0543 36.6069C42.0687 36.5509 42.0896 36.4718 42.1176 36.3734C42.1735 36.177 42.2579 35.9023 42.3737 35.5804C42.6041 34.9405 42.966 34.0945 43.4888 33.3031C44.0115 32.5118 44.7128 31.7487 45.6244 31.3231M33.2988 43.8717C33.3148 43.4573 33.5971 43.1376 33.9292 43.1576L33.9001 43.9079L33.8717 44.6582C33.5396 44.6382 33.2828 44.286 33.2988 43.8717Z" fill="#D0D0D0"/>
<path fill-rule="evenodd" clip-rule="evenodd" d="M16.3078 52.9057C16.3077 52.9057 16.3077 52.9057 16.2593 52.157C16.2109 51.4083 16.211 51.4083 16.2111 51.4083L16.2564 51.4038L16.3879 51.391C16.5033 51.38 16.673 51.364 16.8913 51.3442C17.3278 51.3047 17.9586 51.2499 18.7365 51.1892C20.292 51.0676 22.4374 50.9217 24.7965 50.8244C29.4934 50.6307 35.1082 50.6258 38.5788 51.4181C40.3215 51.816 41.5601 52.4135 42.3654 53.1457C43.1816 53.8878 43.603 54.8261 43.532 55.8318C43.4638 56.7971 42.9552 57.5988 42.316 58.1456C41.6678 58.7002 40.8196 59.0564 39.9121 59.1137C38.1828 59.2229 36.544 58.6459 35.3566 58.0614C34.7591 57.7672 34.2663 57.4663 33.9214 57.2379C33.7488 57.1236 33.6127 57.0271 33.5184 56.9581C33.4713 56.9236 33.4345 56.896 33.4089 56.8764L33.3789 56.8533L33.3703 56.8465L33.3676 56.8444L33.3666 56.8437C33.3665 56.8436 33.366 56.8432 33.6535 56.2789L33.3666 56.8437C33.0861 56.6211 33.0026 56.1564 33.1809 55.8063C33.3592 55.4564 33.731 55.353 34.0116 55.5751L34.0163 55.5788L34.0373 55.595C34.0568 55.6099 34.0871 55.6327 34.1275 55.6623C34.2084 55.7215 34.3296 55.8075 34.4859 55.911C34.7989 56.1183 35.2504 56.3942 35.7985 56.664C36.9023 57.2074 38.3598 57.7075 39.8512 57.6133C40.5541 57.569 41.1842 57.2924 41.6351 56.9067C42.0952 56.5131 42.3067 56.0668 42.3326 55.6999C42.3556 55.3734 42.2451 54.8951 41.6563 54.3598C41.0567 53.8146 40.0172 53.2738 38.362 52.8958C35.0367 52.1366 29.5459 52.1316 24.8362 52.3258C22.492 52.4225 20.3589 52.5676 18.8117 52.6885C18.0382 52.7489 17.4115 52.8033 16.9785 52.8425C16.762 52.8621 16.5939 52.878 16.4802 52.8889L16.351 52.9014L16.3078 52.9057ZM15.6592 52.2174C15.6325 51.8039 15.8797 51.4416 16.2111 51.4083L16.2593 52.157L16.3078 52.9057C15.9764 52.939 15.6859 52.6309 15.6592 52.2174Z" fill="#D0D0D0"/>
<path fill-rule="evenodd" clip-rule="evenodd" d="M48.467 52.1446C48.467 51.7297 48.7366 51.3934 49.0691 51.3934H55.1978C55.5303 51.3934 55.7998 51.7297 55.7998 52.1446C55.7998 52.5594 55.5303 52.8957 55.1978 52.8957H49.0691C48.7366 52.8957 48.467 52.5594 48.467 52.1446Z" fill="#D0D0D0"/>
</g>
<g filter="url(#filter1_f_19_1477)">
<path d="M17.239 33.517C24.4686 33.517 30.3293 26.9877 30.3293 18.9333C30.3293 10.879 24.4686 4.34961 17.239 4.34961C10.0094 4.34961 4.14868 10.879 4.14868 18.9333C4.14868 26.9877 10.0094 33.517 17.239 33.517Z" fill="#FA9E42"/>
</g>
<g filter="url(#filter2_f_19_1477)">
<path fill-rule="evenodd" clip-rule="evenodd" d="M17.2022 0.507125L17.2389 0.50708L17.2756 0.507125C17.4834 0.507631 17.6515 0.71822 17.6511 0.977489C17.6507 1.23676 17.4819 1.44653 17.2741 1.44602L17.2389 1.44598L17.2036 1.44602C16.9958 1.44653 16.827 1.23676 16.8266 0.977489C16.8262 0.71822 16.9944 0.507631 17.2022 0.507125ZM21.5822 1.63083C21.6368 1.38066 21.8436 1.23306 22.0441 1.30116L22.1144 1.32521C22.3147 1.39433 22.4321 1.65293 22.3767 1.90282C22.3213 2.15271 22.1141 2.29925 21.9138 2.23014L21.8465 2.2071C21.646 2.139 21.5277 1.881 21.5822 1.63083ZM12.8955 1.63083C12.9501 1.881 12.8318 2.139 12.6313 2.2071L12.564 2.23014C12.3637 2.29925 12.1564 2.15271 12.101 1.90282C12.0456 1.65293 12.1631 1.39433 12.3634 1.32521L12.4337 1.30116C12.6342 1.23306 12.8409 1.38067 12.8955 1.63083ZM8.46098 3.86433C8.56942 4.0855 8.51363 4.37447 8.33637 4.50977L8.27666 4.55557C8.09988 4.69185 7.86802 4.62351 7.7588 4.40294C7.64959 4.18237 7.70436 3.89309 7.88114 3.75682L7.94366 3.70886C8.12092 3.57356 8.35253 3.64317 8.46098 3.86433ZM26.0168 3.86433C26.1252 3.64317 26.3568 3.57356 26.5341 3.70886L26.5966 3.75682C26.7734 3.89309 26.8282 4.18237 26.719 4.40294C26.6097 4.62351 26.3779 4.69185 26.2011 4.55557L26.1414 4.50977C25.9641 4.37447 25.9084 4.0855 26.0168 3.86433ZM4.73248 7.59606C4.88949 7.7659 4.90642 8.06238 4.7703 8.25828L4.72476 8.32414C4.5894 8.52086 4.35185 8.54342 4.19419 8.37453C4.03652 8.20565 4.01844 7.90927 4.1538 7.71255L4.20171 7.64325C4.33783 7.44735 4.57546 7.42622 4.73248 7.59606ZM29.7453 7.59606C29.9023 7.42622 30.1399 7.44735 30.2761 7.64325L30.324 7.71255C30.4593 7.90927 30.4413 8.20565 30.2836 8.37453C30.1259 8.54342 29.8884 8.52086 29.753 8.32414L29.7075 8.25828C29.5714 8.06238 29.5883 7.7659 29.7453 7.59606ZM2.14504 12.6035C2.33871 12.6975 2.43467 12.9696 2.35936 13.2112L2.33432 13.2922C2.26006 13.5343 2.04252 13.6555 1.84845 13.5628C1.65437 13.4702 1.55724 13.1988 1.63151 12.9566L1.658 12.8709C1.73331 12.6293 1.95137 12.5096 2.14504 12.6035ZM32.3327 12.6035C32.5264 12.5096 32.7445 12.6293 32.8198 12.8709L32.8463 12.9566C32.9205 13.1988 32.8234 13.4702 32.6293 13.5628C32.4353 13.6555 32.2177 13.5343 32.1434 13.2922L32.1184 13.2112C32.0431 12.9696 32.1391 12.6975 32.3327 12.6035ZM1.12197 18.419C1.32977 18.4197 1.49776 18.6304 1.49719 18.8897L1.49714 18.9333L1.49719 18.9769C1.49776 19.2362 1.32977 19.447 1.12197 19.4477C0.914167 19.4484 0.745249 19.2388 0.74468 18.9795L0.744629 18.9333L0.74468 18.8871C0.745249 18.6279 0.914166 18.4183 1.12197 18.419ZM33.3558 18.419C33.5636 18.4183 33.7325 18.6279 33.7331 18.8871L33.7331 18.9333L33.7331 18.9795C33.7325 19.2388 33.5636 19.4484 33.3558 19.4477C33.148 19.447 32.98 19.2362 32.9806 18.9769L32.9806 18.9333L32.9806 18.8897C32.98 18.6304 33.148 18.4197 33.3558 18.419ZM1.84845 24.3038C2.04252 24.2111 2.26006 24.3323 2.33432 24.5745L2.35936 24.6554C2.43467 24.8971 2.33871 25.1691 2.14504 25.2631C1.95137 25.3571 1.73331 25.2374 1.658 24.9957L1.63151 24.91C1.55724 24.6679 1.65437 24.3965 1.84845 24.3038ZM32.6293 24.3038C32.8234 24.3965 32.9205 24.6679 32.8463 24.91L32.8198 24.9957C32.7445 25.2374 32.5264 25.3571 32.3327 25.2631C32.1391 25.1691 32.0431 24.8971 32.1184 24.6554L32.1434 24.5745C32.2177 24.3323 32.4353 24.2111 32.6293 24.3038ZM4.19419 29.4921C4.35185 29.3232 4.5894 29.3458 4.72476 29.5425L4.7703 29.6084C4.90642 29.8043 4.88949 30.1007 4.73248 30.2706C4.57546 30.4404 4.33783 30.4193 4.20171 30.2234L4.1538 30.1541C4.01844 29.9574 4.03652 29.661 4.19419 29.4921ZM30.2836 29.4921C30.4413 29.661 30.4593 29.9574 30.324 30.1541L30.2761 30.2234C30.1399 30.4193 29.9023 30.4404 29.7453 30.2706C29.5883 30.1007 29.5714 29.8043 29.7075 29.6084L29.753 29.5425C29.8884 29.3458 30.1259 29.3232 30.2836 29.4921ZM7.7588 33.4637C7.86802 33.2431 8.09988 33.1748 8.27666 33.3111L8.33637 33.3569C8.51363 33.4922 8.56942 33.7811 8.46097 34.0023C8.35253 34.2235 8.12092 34.2931 7.94366 34.1578L7.88114 34.1098C7.70436 33.9735 7.64959 33.6843 7.7588 33.4637ZM26.719 33.4637C26.8282 33.6843 26.7734 33.9735 26.5966 34.1098L26.5341 34.1578C26.3568 34.2931 26.1252 34.2235 26.0168 34.0023C25.9084 33.7811 25.9641 33.4922 26.1414 33.3569L26.2011 33.3111C26.3779 33.1748 26.6097 33.2431 26.719 33.4637ZM12.101 35.9638C12.1564 35.7139 12.3637 35.5674 12.564 35.6365L12.6313 35.6595C12.8318 35.7276 12.9501 35.9856 12.8955 36.2358C12.8409 36.486 12.6342 36.6336 12.4337 36.5655L12.3634 36.5414C12.1631 36.4723 12.0457 36.2137 12.101 35.9638ZM22.3767 35.9638C22.4321 36.2137 22.3147 36.4723 22.1144 36.5414L22.0441 36.5655C21.8436 36.6336 21.6368 36.486 21.5823 36.2358C21.5277 35.9856 21.646 35.7276 21.8465 35.6595L21.9138 35.6365C22.1141 35.5674 22.3213 35.7139 22.3767 35.9638ZM16.8266 36.8892C16.827 36.6299 16.9958 36.4201 17.2036 36.4206L17.2389 36.4207L17.2741 36.4206C17.482 36.4201 17.6507 36.6299 17.6511 36.8892C17.6515 37.1484 17.4834 37.359 17.2756 37.3595L17.2389 37.3596L17.2022 37.3595C16.9944 37.359 16.8262 37.1484 16.8266 36.8892Z" fill="#FA9E42"/>
</g>
<g filter="url(#filter3_f_19_1477)">
<path d="M15.8339 16.0213C20.4186 13.3083 23.0121 8.75312 21.6266 5.84697C20.2411 2.94083 15.4012 2.78422 10.8165 5.49718C6.23179 8.21014 3.63832 12.7653 5.02384 15.6715C6.40935 18.5776 11.2492 18.7342 15.8339 16.0213Z" fill="#F8E36F"/>
</g>
<g filter="url(#filter4_d_19_1477)">
<g filter="url(#filter5_df_19_1477)">
<path d="M44.6774 47.7563C44.3331 47.7872 43.9854 47.8027 43.6343 47.803H19.1413C17.4554 47.81 15.7848 47.4461 14.2254 46.7321C12.666 46.0182 11.2484 44.9683 10.0541 43.6426C8.8597 42.317 7.91202 40.7416 7.26539 39.007C6.61875 37.2724 6.28589 35.4126 6.28589 33.5343C6.28589 31.656 6.61875 29.7962 7.26539 28.0616C7.91202 26.3269 8.8597 24.7516 10.0541 23.4259C11.2484 22.1002 12.666 21.0503 14.2254 20.3364C15.7848 19.6225 17.4554 19.2586 19.1413 19.2656H28.2734C31.2341 12.0084 38.0532 6.92896 45.9916 6.92896C56.6467 6.92896 65.2846 16.079 65.2846 27.366C65.2846 38.6529 56.6467 47.803 45.9916 47.803C45.5499 47.803 45.1118 47.7874 44.6774 47.7563Z" fill="url(#paint0_linear_19_1477)"/>
<path d="M45.9921 47.6046C47.2897 47.6046 48.5864 47.4661 49.8463 47.193C51.074 46.9269 52.2815 46.5298 53.4354 46.0129C54.5682 45.5053 55.6608 44.8771 56.6828 44.1457C57.6949 43.4213 58.6467 42.5895 59.5116 41.6733C60.3764 40.7572 61.1615 39.7493 61.845 38.6775C62.535 37.5957 63.1276 36.4392 63.6063 35.2403C64.0938 34.0194 64.4682 32.7417 64.7191 31.4429C64.9765 30.1102 65.1071 28.7385 65.1071 27.3659C65.1071 25.9933 64.9765 24.6216 64.7191 23.2889C64.4682 21.9901 64.0938 20.7125 63.6063 19.4916C63.1276 18.2927 62.535 17.1362 61.845 16.0544C61.1615 14.9826 60.3764 13.9747 59.5116 13.0586C58.6467 12.1424 57.6949 11.3106 56.6828 10.5862C55.6608 9.85485 54.5682 9.22665 53.4354 8.71909C52.2815 8.20211 51.074 7.80504 49.8463 7.53893C48.5864 7.26584 47.2897 7.12737 45.9921 7.12737C42.1859 7.12737 38.5101 8.30842 35.362 10.5428C33.8445 11.6199 32.4808 12.92 31.3089 14.4069C30.1296 15.9032 29.163 17.5655 28.436 19.3476L28.3886 19.4639H28.2739H19.1418C17.4368 19.4639 15.7828 19.8359 14.2259 20.5696C13.4776 20.9222 12.7559 21.3586 12.0807 21.8668C11.4119 22.3702 10.783 22.9483 10.2114 23.585C9.63988 24.2218 9.12098 24.9225 8.66915 25.6676C8.21302 26.4197 7.82126 27.2238 7.50475 28.0575C6.84623 29.792 6.51233 31.6347 6.51233 33.5342C6.51233 35.4338 6.84623 37.2764 7.50475 39.011C7.82126 39.8447 8.21302 40.6488 8.66915 41.4009C9.12098 42.146 9.63988 42.8467 10.2114 43.4835C10.783 44.1202 11.4119 44.6983 12.0807 45.2017C12.7559 45.7099 13.4776 46.1463 14.2259 46.4989C15.7828 47.2326 17.4368 47.6046 19.1418 47.6046H43.6349C43.9773 47.6046 44.3235 47.5891 44.6637 47.5586L44.6766 47.5574L44.6894 47.5583C45.1203 47.589 45.5586 47.6046 45.9921 47.6046ZM45.9921 47.803C45.5505 47.803 45.1122 47.7873 44.678 47.7563C44.3342 47.7872 43.9859 47.803 43.6349 47.803H19.1418C12.0684 47.803 6.33423 41.4146 6.33423 33.5342C6.33423 25.6539 12.0684 19.2655 19.1418 19.2655H28.2739C31.2347 12.0075 38.0533 6.92896 45.9921 6.92896C56.6473 6.92896 65.2852 16.079 65.2852 27.3659C65.2852 38.6529 56.6473 47.803 45.9921 47.803Z" fill="white" fill-opacity="0.5"/>
</g>
</g>
<defs>
<filter id="filter0_f_19_1477" x="15.337" y="30.66" width="40.7831" height="28.7873" filterUnits="userSpaceOnUse" color-interpolation-filters="sRGB">
<feFlood flood-opacity="0" result="BackgroundImageFix"/>
<feBlend mode="normal" in="SourceGraphic" in2="BackgroundImageFix" result="shape"/>
<feGaussianBlur stdDeviation="0.160122" result="effect1_foregroundBlur_19_1477"/>
</filter>
<filter id="filter1_f_19_1477" x="3.82844" y="4.02936" width="26.8212" height="29.8078" filterUnits="userSpaceOnUse" color-interpolation-filters="sRGB">
<feFlood flood-opacity="0" result="BackgroundImageFix"/>
<feBlend mode="normal" in="SourceGraphic" in2="BackgroundImageFix" result="shape"/>
<feGaussianBlur stdDeviation="0.160122" result="effect1_foregroundBlur_19_1477"/>
</filter>
<filter id="filter2_f_19_1477" x="0.584507" y="0.346958" width="33.3088" height="37.1728" filterUnits="userSpaceOnUse" color-interpolation-filters="sRGB">
<feFlood flood-opacity="0" result="BackgroundImageFix"/>
<feBlend mode="normal" in="SourceGraphic" in2="BackgroundImageFix" result="shape"/>
<feGaussianBlur stdDeviation="0.0800612" result="effect1_foregroundBlur_19_1477"/>
</filter>
<filter id="filter3_f_19_1477" x="3.04966" y="1.95945" width="20.5513" height="17.5995" filterUnits="userSpaceOnUse" color-interpolation-filters="sRGB">
<feFlood flood-opacity="0" result="BackgroundImageFix"/>
<feBlend mode="normal" in="SourceGraphic" in2="BackgroundImageFix" result="shape"/>
<feGaussianBlur stdDeviation="0.800612" result="effect1_foregroundBlur_19_1477"/>
</filter>
<filter id="filter4_d_19_1477" x="4.68467" y="4.68724" width="63.8029" height="45.6778" filterUnits="userSpaceOnUse" color-interpolation-filters="sRGB">
<feFlood flood-opacity="0" result="BackgroundImageFix"/>
<feColorMatrix in="SourceAlpha" type="matrix" values="0 0 0 0 0 0 0 0 0 0 0 0 0 0 0 0 0 0 127 0" result="hardAlpha"/>
<feOffset dx="0.800612" dy="0.160122"/>
<feGaussianBlur stdDeviation="1.20092"/>
<feColorMatrix type="matrix" values="0 0 0 0 0.258824 0 0 0 0 0.627451 0 0 0 0 0.941176 0 0 0 0.596 0"/>
<feBlend mode="normal" in2="BackgroundImageFix" result="effect1_dropShadow_19_1477"/>
<feBlend mode="normal" in="SourceGraphic" in2="effect1_dropShadow_19_1477" result="shape"/>
</filter>
<filter id="filter5_df_19_1477" x="5.96564" y="6.60871" width="59.6398" height="41.8349" filterUnits="userSpaceOnUse" color-interpolation-filters="sRGB">
<feFlood flood-opacity="0" result="BackgroundImageFix"/>
<feColorMatrix in="SourceAlpha" type="matrix" values="0 0 0 0 0 0 0 0 0 0 0 0 0 0 0 0 0 0 127 0" result="hardAlpha"/>
<feOffset dy="0.320245"/>
<feGaussianBlur stdDeviation="0.160122"/>
<feColorMatrix type="matrix" values="0 0 0 0 0 0 0 0 0 0 0 0 0 0 0 0 0 0 0.25 0"/>
<feBlend mode="normal" in2="BackgroundImageFix" result="effect1_dropShadow_19_1477"/>
<feBlend mode="normal" in="SourceGraphic" in2="effect1_dropShadow_19_1477" result="shape"/>
<feGaussianBlur stdDeviation="0.160122" result="effect2_foregroundBlur_19_1477"/>
</filter>
<linearGradient id="paint0_linear_19_1477" x1="30.1804" y1="12.0791" x2="44.4134" y2="49.0681" gradientUnits="userSpaceOnUse">
<stop stop-color="white" stop-opacity="0.596"/>
<stop offset="1" stop-color="#F7F7F7" stop-opacity="0.204"/>
</linearGradient>
</defs>
</svg>
