<svg width="71" height="51" viewBox="0 0 71 51" fill="none" xmlns="http://www.w3.org/2000/svg">
<g filter="url(#filter0_f_19_469)">
<path d="M24.5366 33.9184C24.6356 33.9992 22.5135 38.0279 21.2898 39.2839C20.0661 40.5398 18.5694 41.1657 17.9464 40.6824C17.3234 40.1992 17.8096 38.7898 19.0334 37.5337C20.2572 36.2776 24.4377 33.8376 24.5366 33.9184Z" fill="#42A0F0"/>
<path d="M19.2382 38.3631C19.359 38.5365 19.7829 38.4945 20.185 38.2694C20.5871 38.0444 20.8151 37.7214 20.6943 37.5481C20.5735 37.3748 20.1496 37.4167 19.7476 37.6418C19.3455 37.8669 19.1174 38.1898 19.2382 38.3631Z" fill="white"/>
<path d="M37.4216 33.9184C37.5206 33.9992 35.3985 38.0279 34.1748 39.2839C32.9511 40.5398 31.4545 41.1657 30.8314 40.6824C30.2084 40.1992 30.6946 38.7898 31.9184 37.5337C33.1423 36.2776 37.3227 33.8376 37.4216 33.9184Z" fill="#42A0F0"/>
<path d="M32.1235 38.3631C32.2443 38.5365 32.6681 38.4945 33.0702 38.2694C33.4723 38.0444 33.7003 37.7214 33.5795 37.5481C33.4588 37.3748 33.0349 37.4167 32.6328 37.6418C32.2307 37.8669 32.0027 38.1898 32.1235 38.3631Z" fill="white"/>
<path d="M50.3067 33.9184C50.4056 33.9992 48.2835 38.0279 47.0598 39.2839C45.8361 40.5398 44.3395 41.1657 43.7164 40.6824C43.0934 40.1992 43.5796 38.7898 44.8035 37.5337C46.0273 36.2776 50.2077 33.8376 50.3067 33.9184Z" fill="#42A0F0"/>
<path d="M45.0087 38.3631C45.1295 38.5365 45.5534 38.4945 45.9555 38.2694C46.3576 38.0444 46.5856 37.7214 46.4648 37.5481C46.344 37.3748 45.9201 37.4167 45.5181 37.6418C45.116 37.8669 44.8879 38.1898 45.0087 38.3631Z" fill="white"/>
<path d="M38.9375 42.378C39.0365 42.4588 36.9144 46.4875 35.6907 47.7435C34.467 48.9994 32.9703 49.6253 32.3473 49.142C31.7243 48.6588 32.2105 47.2494 33.4343 45.9933C34.6581 44.7372 38.8386 42.2972 38.9375 42.378Z" fill="#42A0F0"/>
<path d="M33.6394 46.8229C33.7601 46.9962 34.184 46.9542 34.5861 46.7291C34.9882 46.5041 35.2162 46.1811 35.0954 46.0078C34.9746 45.8345 34.5508 45.8764 34.1487 46.1015C33.7466 46.3266 33.5186 46.6495 33.6394 46.8229Z" fill="white"/>
<path d="M24.5366 42.378C24.6356 42.4588 22.5135 46.4875 21.2898 47.7435C20.0661 48.9994 18.5694 49.6253 17.9464 49.142C17.3234 48.6588 17.8096 47.2494 19.0334 45.9933C20.2572 44.7372 24.4377 42.2972 24.5366 42.378Z" fill="#42A0F0"/>
<path d="M19.2382 46.8229C19.359 46.9962 19.7829 46.9542 20.185 46.7291C20.5871 46.5041 20.8151 46.1811 20.6943 46.0078C20.5735 45.8345 20.1496 45.8764 19.7476 46.1015C19.3455 46.3266 19.1174 46.6495 19.2382 46.8229Z" fill="white"/>
</g>
<g filter="url(#filter1_f_19_469)">
<path d="M17.3673 30.1158C14.4829 30.1193 11.6643 29.3466 9.279 27.8986C7.11316 26.5878 5.38274 24.7803 4.26961 22.666C3.15647 20.5517 2.70172 18.2086 2.95316 15.8832C3.20459 13.5577 4.15291 11.3357 5.69847 9.45054C7.24403 7.56544 9.32974 6.08688 11.7364 5.17028C13.5168 4.49385 15.4324 4.14678 17.3673 4.15005C17.9321 4.15006 18.4964 4.17933 19.0574 4.23769C18.7304 4.87632 18.4801 5.54415 18.3109 6.22994C18.137 6.93776 18.0493 7.66031 18.0496 8.38496C18.046 10.3735 18.7109 12.3173 19.9582 13.9646C20.7624 15.0271 21.7872 15.9422 22.9771 16.6602C23.5751 17.0209 24.2109 17.329 24.8755 17.5803C26.2518 18.1004 27.7314 18.3671 29.2258 18.3645C30.0904 18.3648 30.9522 18.2759 31.7939 18.0997C31.5954 20.5419 30.626 22.8838 28.9981 24.8543C28.4715 25.4918 27.881 26.0852 27.234 26.6272C24.5637 28.8712 21.0341 30.1191 17.3673 30.1158Z" fill="#713FFD"/>
</g>
<g filter="url(#filter2_f_19_469)">
<path d="M14.8217 15.3474C18.0691 12.7366 19.0799 9.012 17.0796 7.02826C15.0792 5.04452 10.8251 5.55287 7.57779 8.16369C4.33047 10.7745 3.31961 14.4991 5.31997 16.4829C7.32033 18.4666 11.5744 17.9583 14.8217 15.3474Z" fill="#A586FC"/>
</g>
<g filter="url(#filter3_f_19_469)">
<path d="M10.2618 0.795532L10.7478 1.84453L12.0618 2.23368L10.7478 2.62282L10.2618 3.67182L9.77573 2.62282L8.46167 2.23368L9.77573 1.84453L10.2618 0.795532Z" fill="url(#paint0_linear_19_469)"/>
<path d="M31.957 25.667L32.3663 26.5316L33.4729 26.8513L32.3663 27.1711L31.957 28.0357L31.5477 27.1711L30.4412 26.8513L31.5477 26.5316L31.957 25.667Z" fill="url(#paint1_linear_19_469)"/>
<path d="M25.5154 4.11254L26.1864 4.89793L27.3828 4.96188L26.3827 5.55169L26.2417 6.53147L25.5708 5.74432L24.3744 5.68036L25.3745 5.09055L25.5154 4.11254Z" fill="url(#paint2_linear_19_469)"/>
<path d="M1.5824 23.7383L2.30642 24.3466L3.43258 24.2459L2.56928 24.8995L2.55621 25.7865L1.83426 25.1777L0.708096 25.2784L1.57154 24.6252L1.5824 23.7383Z" fill="url(#paint3_linear_19_469)"/>
<path d="M24.8832 12.8148L24.0875 12.9588L23.6167 13.6952L23.5551 12.849L22.9107 12.4081L23.7068 12.2646L24.1774 11.5281L24.2387 12.3742L24.8832 12.8148Z" fill="url(#paint4_linear_19_469)"/>
</g>
<g filter="url(#filter4_df_19_469)">
<g filter="url(#filter5_d_19_469)">
<path d="M45.2767 38.4859C44.9104 38.5121 44.5404 38.5254 44.1669 38.5256H18.1085C16.3148 38.5316 14.5374 38.2213 12.8784 37.6125C11.2193 37.0037 9.71112 36.1085 8.44042 34.978C7.16972 33.8476 6.16147 32.5043 5.4735 31.0252C4.78554 29.546 4.4314 27.9601 4.4314 26.3585C4.4314 24.7569 4.78554 23.171 5.4735 21.6918C6.16147 20.2127 7.16972 18.8694 8.44042 17.7389C9.71112 16.6085 11.2193 15.7133 12.8784 15.1045C14.5374 14.4957 16.3148 14.1854 18.1085 14.1914H27.8244C30.9744 8.00311 38.2291 3.67175 46.6749 3.67175C58.0111 3.67175 67.201 11.4741 67.201 21.0987C67.201 30.7233 58.0111 38.5256 46.6749 38.5256C46.205 38.5256 45.7389 38.5124 45.2767 38.4859Z" fill="url(#paint5_linear_19_469)"/>
<path d="M46.6753 38.3564C48.0558 38.3564 49.4355 38.2384 50.7758 38.0055C52.082 37.7786 53.3667 37.44 54.5943 36.9992C55.7995 36.5664 56.9619 36.0307 58.0493 35.407C59.1261 34.7893 60.1387 34.08 61.0589 33.2988C61.979 32.5176 62.8142 31.6582 63.5415 30.7442C64.2755 29.8217 64.906 28.8356 65.4153 27.8132C65.934 26.7721 66.3323 25.6827 66.5992 24.5752C66.8731 23.4387 67.012 22.2691 67.012 21.0986C67.012 19.9282 66.8731 18.7585 66.5992 17.6221C66.3323 16.5146 65.934 15.4252 65.4153 14.3841C64.906 13.3617 64.2755 12.3756 63.5415 11.4531C62.8142 10.5392 61.979 9.67974 61.0589 8.89861C60.1387 8.11735 59.1261 7.40803 58.0493 6.79037C56.9619 6.1667 55.7995 5.63103 54.5943 5.19823C53.3667 4.75739 52.082 4.41881 50.7758 4.19189C49.4355 3.95902 48.0558 3.84095 46.6753 3.84095C42.6259 3.84095 38.7151 4.84804 35.3658 6.75336C33.7513 7.67178 32.3005 8.78036 31.0537 10.0483C29.799 11.3242 28.7707 12.7417 27.9972 14.2613L27.9468 14.3605H27.8247H18.1089C16.2949 14.3605 14.5352 14.6777 12.8788 15.3033C12.0826 15.604 11.3147 15.9762 10.5964 16.4095C9.88488 16.8387 9.21578 17.3317 8.60769 17.8746C7.9996 18.4176 7.44753 19.0151 6.96682 19.6504C6.48154 20.2918 6.06474 20.9775 5.728 21.6884C5.02739 23.1674 4.67215 24.7387 4.67215 26.3585C4.67215 27.9783 5.02739 29.5495 5.728 31.0286C6.06474 31.7395 6.48154 32.4251 6.96682 33.0665C7.44753 33.7019 7.9996 34.2993 8.60769 34.8423C9.21578 35.3853 9.88488 35.8782 10.5964 36.3075C11.3147 36.7408 12.0826 37.113 12.8788 37.4137C14.5352 38.0392 16.2949 38.3564 18.1089 38.3564H44.1674C44.5318 38.3564 44.9001 38.3432 45.262 38.3172L45.2757 38.3162L45.2893 38.317C45.7478 38.3432 46.2141 38.3564 46.6753 38.3564ZM46.6753 38.5256C46.2055 38.5256 45.7392 38.5122 45.2772 38.4858C44.9114 38.5122 44.5408 38.5256 44.1674 38.5256H18.1089C10.5834 38.5256 4.48267 33.0782 4.48267 26.3585C4.48267 19.6388 10.5834 14.1913 18.1089 14.1913H27.8247C30.9748 8.00233 38.2291 3.67175 46.6753 3.67175C58.0116 3.67175 67.2015 11.4741 67.2015 21.0986C67.2015 30.7233 58.0116 38.5256 46.6753 38.5256Z" fill="white" fill-opacity="0.5"/>
</g>
</g>
<defs>
<filter id="filter0_f_19_469" x="17.3548" y="33.5963" width="33.2755" height="16.0293" filterUnits="userSpaceOnUse" color-interpolation-filters="sRGB">
<feFlood flood-opacity="0" result="BackgroundImageFix"/>
<feBlend mode="normal" in="SourceGraphic" in2="BackgroundImageFix" result="shape"/>
<feGaussianBlur stdDeviation="0.160122" result="effect1_foregroundBlur_19_469"/>
</filter>
<filter id="filter1_f_19_469" x="2.5655" y="3.82978" width="29.5487" height="26.6063" filterUnits="userSpaceOnUse" color-interpolation-filters="sRGB">
<feFlood flood-opacity="0" result="BackgroundImageFix"/>
<feBlend mode="normal" in="SourceGraphic" in2="BackgroundImageFix" result="shape"/>
<feGaussianBlur stdDeviation="0.160122" result="effect1_foregroundBlur_19_469"/>
</filter>
<filter id="filter2_f_19_469" x="2.69175" y="4.21689" width="17.0162" height="15.0773" filterUnits="userSpaceOnUse" color-interpolation-filters="sRGB">
<feFlood flood-opacity="0" result="BackgroundImageFix"/>
<feBlend mode="normal" in="SourceGraphic" in2="BackgroundImageFix" result="shape"/>
<feGaussianBlur stdDeviation="0.800612" result="effect1_foregroundBlur_19_469"/>
</filter>
<filter id="filter3_f_19_469" x="0.547885" y="0.63541" width="33.0851" height="27.5604" filterUnits="userSpaceOnUse" color-interpolation-filters="sRGB">
<feFlood flood-opacity="0" result="BackgroundImageFix"/>
<feBlend mode="normal" in="SourceGraphic" in2="BackgroundImageFix" result="shape"/>
<feGaussianBlur stdDeviation="0.0800612" result="effect1_foregroundBlur_19_469"/>
</filter>
<filter id="filter4_df_19_469" x="2.83017" y="1.43004" width="67.5737" height="39.6577" filterUnits="userSpaceOnUse" color-interpolation-filters="sRGB">
<feFlood flood-opacity="0" result="BackgroundImageFix"/>
<feColorMatrix in="SourceAlpha" type="matrix" values="0 0 0 0 0 0 0 0 0 0 0 0 0 0 0 0 0 0 127 0" result="hardAlpha"/>
<feOffset dx="0.800612" dy="0.160122"/>
<feGaussianBlur stdDeviation="1.20092"/>
<feColorMatrix type="matrix" values="0 0 0 0 0.258824 0 0 0 0 0.627451 0 0 0 0 0.941176 0 0 0 0.596 0"/>
<feBlend mode="normal" in2="BackgroundImageFix" result="effect1_dropShadow_19_469"/>
<feBlend mode="normal" in="SourceGraphic" in2="effect1_dropShadow_19_469" result="shape"/>
<feGaussianBlur stdDeviation="0.160122" result="effect2_foregroundBlur_19_469"/>
</filter>
<filter id="filter5_d_19_469" x="2.83017" y="1.43004" width="67.5737" height="39.6577" filterUnits="userSpaceOnUse" color-interpolation-filters="sRGB">
<feFlood flood-opacity="0" result="BackgroundImageFix"/>
<feColorMatrix in="SourceAlpha" type="matrix" values="0 0 0 0 0 0 0 0 0 0 0 0 0 0 0 0 0 0 127 0" result="hardAlpha"/>
<feOffset dx="0.800612" dy="0.160122"/>
<feGaussianBlur stdDeviation="1.20092"/>
<feColorMatrix type="matrix" values="0 0 0 0 0.501961 0 0 0 0 0.501961 0 0 0 0 0.501961 0 0 0 0.302 0"/>
<feBlend mode="normal" in2="BackgroundImageFix" result="effect1_dropShadow_19_469"/>
<feBlend mode="normal" in="SourceGraphic" in2="effect1_dropShadow_19_469" result="shape"/>
</filter>
<linearGradient id="paint0_linear_19_469" x1="10.2618" y1="0.795532" x2="10.2618" y2="3.67182" gradientUnits="userSpaceOnUse">
<stop stop-color="#6B38FC"/>
<stop offset="1" stop-color="#9F7EFD"/>
</linearGradient>
<linearGradient id="paint1_linear_19_469" x1="31.957" y1="25.667" x2="31.957" y2="28.0357" gradientUnits="userSpaceOnUse">
<stop stop-color="#6B38FC"/>
<stop offset="1" stop-color="#9F7EFD"/>
</linearGradient>
<linearGradient id="paint2_linear_19_469" x1="25.5157" y1="4.11248" x2="26.1028" y2="6.56474" gradientUnits="userSpaceOnUse">
<stop stop-color="#6B38FC"/>
<stop offset="1" stop-color="#9F7EFD"/>
</linearGradient>
<linearGradient id="paint3_linear_19_469" x1="1.58336" y1="23.7379" x2="2.38459" y2="25.8515" gradientUnits="userSpaceOnUse">
<stop stop-color="#6B38FC"/>
<stop offset="1" stop-color="#9F7EFD"/>
</linearGradient>
<linearGradient id="paint4_linear_19_469" x1="24.8832" y1="12.8149" x2="22.9357" y2="12.3114" gradientUnits="userSpaceOnUse">
<stop stop-color="#6B38FC"/>
<stop offset="1" stop-color="#9F7EFD"/>
</linearGradient>
<linearGradient id="paint5_linear_19_469" x1="29.8531" y1="8.06335" x2="40.0508" y2="41.1294" gradientUnits="userSpaceOnUse">
<stop stop-color="white" stop-opacity="0.596"/>
<stop offset="1" stop-color="#F7F7F7" stop-opacity="0.204"/>
</linearGradient>
</defs>
</svg>
