<svg width="73" height="49" viewBox="0 0 73 49" fill="none" xmlns="http://www.w3.org/2000/svg">
<g filter="url(#filter0_f_19_410)">
<path fill-rule="evenodd" clip-rule="evenodd" d="M49.1158 31.716C48.1874 31.1876 47.0438 30.715 45.9919 30.7308C44.96 30.7464 44.2136 31.1857 43.2989 31.7278C42.4015 32.2598 41.3533 32.8809 39.8788 32.8965L39.8622 32.8967L39.8456 32.896C38.2222 32.829 37.3112 32.2038 36.5314 31.6644C35.7906 31.1521 35.2021 30.7452 34.0976 30.7311C33.0522 30.7843 32.4394 31.1917 31.6833 31.6946L31.652 31.7154C30.8565 32.2442 29.9321 32.8422 28.382 32.8962C27.1039 32.9395 25.7291 32.3172 24.7449 31.7577C24.2378 31.4694 23.8035 31.1797 23.4959 30.9621C23.3417 30.853 23.2186 30.7615 23.133 30.6965C23.0902 30.664 23.0568 30.6381 23.0336 30.6199L23.0064 30.5985L22.9988 30.5925L22.9965 30.5906L22.9954 30.5898C22.9953 30.5897 22.9952 30.5896 23.395 30.0923L22.9954 30.5898C22.7197 30.3681 22.6757 29.9648 22.8974 29.6891M23.7977 29.5911C23.7976 29.5911 23.7977 29.5911 23.7977 29.5911L23.8027 29.5951L23.8231 29.6112C23.8417 29.6258 23.8703 29.6479 23.9079 29.6765C23.9832 29.7337 24.0946 29.8165 24.2357 29.9163C24.5184 30.1163 24.9165 30.3817 25.378 30.6441C26.3308 31.1858 27.4381 31.6463 28.3377 31.616C29.5159 31.5748 30.1898 31.1492 30.9428 30.6486C30.9667 30.6327 30.9907 30.6167 31.0148 30.6007C31.7713 30.0969 32.6423 29.5168 34.0555 29.4506L34.0733 29.4498L34.0911 29.4499C35.6014 29.4634 36.4667 30.062 37.2286 30.5891L37.26 30.6109C37.9913 31.1166 38.6474 31.5607 39.8817 31.6154C40.9693 31.5996 41.7478 31.1581 42.6457 30.6259C42.6695 30.6118 42.6933 30.5977 42.7172 30.5835C43.586 30.0679 44.5923 29.4708 45.9727 29.45C47.3712 29.4289 48.759 30.0391 49.7494 30.6027C50.2544 30.89 50.6777 31.178 50.9753 31.3943C51.1244 31.5027 51.2427 31.5938 51.3248 31.6586C51.3659 31.691 51.398 31.7169 51.4204 31.7352L51.4467 31.7568L51.4542 31.7631L51.4565 31.7651L51.4574 31.7657C51.4575 31.7659 51.4579 31.7662 51.0451 32.2559L51.4574 31.7657C51.7278 31.9938 51.7628 32.3983 51.5348 32.6688C51.3069 32.9391 50.903 32.9736 50.6326 32.7459C50.6326 32.7459 50.6326 32.7459 50.6326 32.7459L50.6284 32.7424L50.6099 32.7272C50.5928 32.7132 50.5664 32.6919 50.5313 32.6641C50.461 32.6087 50.3561 32.5279 50.222 32.4304C49.9532 32.235 49.5702 31.9746 49.1158 31.716" fill="white"/>
<path fill-rule="evenodd" clip-rule="evenodd" d="M59.1583 39.3296C58.2299 38.8013 57.0863 38.3286 56.0344 38.3445C55.0024 38.36 54.2561 38.7993 53.3414 39.3415C52.4439 39.8734 51.3958 40.4946 49.9213 40.5102L49.9047 40.5104L49.8881 40.5097C48.2646 40.4427 47.3537 39.8174 46.5738 39.2781C45.8331 38.7658 45.2446 38.3588 44.1401 38.3447C43.0947 38.3979 42.4819 38.8054 41.7257 39.3082L41.6944 39.329C40.899 39.8578 39.9746 40.4558 38.4244 40.5098C37.1463 40.5531 35.7716 39.9309 34.7874 39.3714C34.2803 39.0831 33.846 38.7933 33.5384 38.5757C33.3842 38.4667 33.261 38.3751 33.1755 38.3102C33.1327 38.2776 33.0993 38.2517 33.076 38.2336L33.0489 38.2122L33.0413 38.2061L33.039 38.2043L33.0379 38.2034C33.0378 38.2033 33.0377 38.2032 33.4375 37.7059L33.0379 38.2034C32.7622 37.9818 32.7182 37.5784 32.9398 37.3027M33.8401 37.2047C33.8401 37.2047 33.8402 37.2048 33.8401 37.2047L33.8452 37.2088L33.8656 37.2248C33.8842 37.2394 33.9128 37.2615 33.9504 37.2901C34.0257 37.3473 34.1371 37.4302 34.2781 37.5299C34.5608 37.7299 34.959 37.9954 35.4205 38.2578C36.3733 38.7995 37.4806 39.26 38.3802 39.2296C39.5583 39.1885 40.2323 38.7629 40.9853 38.2623C41.0092 38.2464 41.0332 38.2304 41.0573 38.2143C41.8138 37.7105 42.6847 37.1305 44.098 37.0643L44.1158 37.0634L44.1336 37.0636C45.6439 37.077 46.5092 37.6757 47.2711 38.2028L47.3025 38.2245C48.0337 38.7303 48.6899 39.1744 49.9242 39.2291C51.0118 39.2132 51.7903 38.7717 52.6882 38.2395C52.7119 38.2255 52.7358 38.2113 52.7597 38.1971C53.6285 37.6816 54.6348 37.0844 56.0151 37.0636C57.4137 37.0426 58.8015 37.6527 59.7919 38.2163C60.2968 38.5037 60.7202 38.7916 61.0177 39.008C61.1668 39.1164 61.2852 39.2074 61.3673 39.2722C61.4084 39.3046 61.4405 39.3306 61.4629 39.3489L61.4891 39.3705L61.4967 39.3767L61.499 39.3787L61.4998 39.3794C61.5 39.3795 61.5004 39.3799 61.0876 39.8696L61.4998 39.3794C61.7703 39.6074 61.8053 40.012 61.5773 40.2824C61.3494 40.5527 60.9455 40.5872 60.6751 40.3595C60.6751 40.3595 60.6751 40.3596 60.6751 40.3595L60.6709 40.356L60.6524 40.3408C60.6353 40.3269 60.6089 40.3055 60.5738 40.2778C60.5034 40.2223 60.3986 40.1416 60.2645 40.0441C59.9956 39.8486 59.6127 39.5883 59.1583 39.3296" fill="white"/>
<path fill-rule="evenodd" clip-rule="evenodd" d="M43.2418 46.9434C42.3134 46.4151 41.1698 45.9424 40.1179 45.9582C39.0859 45.9738 38.3396 46.4131 37.4249 46.9553C36.5274 47.4872 35.4793 48.1083 34.0048 48.124L33.9882 48.1241L33.9716 48.1234C32.3481 48.0564 31.4372 47.4312 30.6573 46.8919C29.9166 46.3795 29.3281 45.9726 28.2236 45.9585C27.1782 46.0117 26.5654 46.4192 25.8092 46.922L25.7779 46.9428C24.9825 47.4716 24.0581 48.0696 22.5079 48.1236C21.2298 48.1669 19.8551 47.5447 18.8709 46.9851C18.3638 46.6969 17.9295 46.4071 17.6219 46.1895C17.4677 46.0804 17.3445 45.9889 17.259 45.9239C17.2162 45.8914 17.1828 45.8655 17.1595 45.8473L17.1324 45.826L17.1248 45.8199L17.1225 45.818L17.1214 45.8172C17.1213 45.8171 17.1212 45.817 17.521 45.3197L17.1214 45.8172C16.8457 45.5955 16.8017 45.1922 17.0233 44.9165M17.9236 44.8185C17.9236 44.8185 17.9237 44.8185 17.9236 44.8185L17.9287 44.8225L17.9491 44.8386C17.9677 44.8532 17.9963 44.8753 18.0339 44.9039C18.1092 44.9611 18.2206 45.0439 18.3616 45.1437C18.6443 45.3437 19.0425 45.6092 19.504 45.8715C20.4568 46.4132 21.5641 46.8738 22.4637 46.8434C23.6418 46.8023 24.3158 46.3766 25.0687 45.876C25.0927 45.8601 25.1167 45.8442 25.1408 45.8281C25.8973 45.3243 26.7682 44.7442 28.1815 44.678L28.1993 44.6772L28.2171 44.6774C29.7274 44.6908 30.5926 45.2894 31.3546 45.8166L31.386 45.8383C32.1172 46.344 32.7734 46.7881 34.0077 46.8428C35.0953 46.827 35.8738 46.3855 36.7717 45.8533C36.7954 45.8392 36.8193 45.8251 36.8432 45.8109C37.712 45.2953 38.7183 44.6982 40.0986 44.6774C41.4972 44.6564 42.885 45.2665 43.8754 45.8301C44.3803 46.1175 44.8037 46.4054 45.1012 46.6217C45.2503 46.7301 45.3687 46.8212 45.4508 46.886C45.4919 46.9184 45.524 46.9443 45.5464 46.9626L45.5726 46.9842L45.5802 46.9905L45.5825 46.9925L45.5833 46.9932C45.5835 46.9933 45.5839 46.9936 45.1711 47.4833L45.5833 46.9932C45.8538 47.2212 45.8888 47.6257 45.6608 47.8962C45.4328 48.1665 45.029 48.201 44.7586 47.9733C44.7585 47.9733 44.7586 47.9733 44.7586 47.9733L44.7544 47.9698L44.7359 47.9546C44.7188 47.9407 44.6924 47.9193 44.6573 47.8916C44.5869 47.8361 44.4821 47.7553 44.348 47.6578C44.0791 47.4624 43.6962 47.202 43.2418 46.9434" fill="white"/>
</g>
<g filter="url(#filter1_f_19_410)">
<path d="M18.0296 30.1158C15.1452 30.1193 12.3266 29.3466 9.94135 27.8986C7.77551 26.5878 6.0451 24.7803 4.93196 22.666C3.81883 20.5517 3.36408 18.2086 3.61551 15.8832C3.86694 13.5577 4.81527 11.3357 6.36082 9.45054C7.90638 7.56544 9.99209 6.08688 12.3988 5.17028C14.1792 4.49385 16.0947 4.14678 18.0296 4.15005C18.5944 4.15006 19.1588 4.17933 19.7198 4.23769C19.3927 4.87632 19.1425 5.54415 18.9732 6.22994C18.7993 6.93776 18.7117 7.66031 18.7119 8.38496C18.7083 10.3735 19.3732 12.3173 20.6206 13.9646C21.4247 15.0271 22.4495 15.9422 23.6394 16.6602C24.2375 17.0209 24.8733 17.329 25.5379 17.5803C26.9141 18.1004 28.3938 18.3671 29.8882 18.3645C30.7528 18.3648 31.6145 18.2759 32.4563 18.0997C32.2577 20.5419 31.2884 22.8838 29.6604 24.8543C29.1338 25.4918 28.5434 26.0852 27.8964 26.6272C25.2261 28.8712 21.6964 30.1191 18.0296 30.1158Z" fill="#713FFD"/>
</g>
<g filter="url(#filter2_f_19_410)">
<path d="M15.4836 15.3473C18.7309 12.7365 19.7418 9.01188 17.7414 7.02814C15.7411 5.0444 11.487 5.55275 8.23966 8.16356C4.99234 10.7744 3.98148 14.499 5.98184 16.4827C7.9822 18.4665 12.2363 17.9581 15.4836 15.3473Z" fill="#A586FC"/>
</g>
<g filter="url(#filter3_f_19_410)">
<path d="M10.9239 0.79541L11.4099 1.84441L12.724 2.23356L11.4099 2.6227L10.9239 3.6717L10.4378 2.6227L9.12378 2.23356L10.4378 1.84441L10.9239 0.79541Z" fill="url(#paint0_linear_19_410)"/>
<path d="M32.6191 25.6669L33.0284 26.5314L34.135 26.8512L33.0284 27.171L32.6191 28.0356L32.2099 27.171L31.1033 26.8512L32.2099 26.5314L32.6191 25.6669Z" fill="url(#paint1_linear_19_410)"/>
<path d="M26.1773 4.11254L26.8483 4.89793L28.0446 4.96188L27.0446 5.55169L26.9036 6.53147L26.2327 5.74432L25.0363 5.68036L26.0363 5.09055L26.1773 4.11254Z" fill="url(#paint2_linear_19_410)"/>
<path d="M2.245 23.7381L2.96901 24.3465L4.09517 24.2458L3.23188 24.8993L3.2188 25.7863L2.49685 25.1776L1.37069 25.2782L2.23414 24.625L2.245 23.7381Z" fill="url(#paint3_linear_19_410)"/>
<path d="M25.5456 12.8146L24.7499 12.9587L24.2791 13.6951L24.2174 12.8489L23.573 12.408L24.3691 12.2644L24.8398 11.528L24.901 12.3741L25.5456 12.8146Z" fill="url(#paint4_linear_19_410)"/>
</g>
<g filter="url(#filter4_df_19_410)">
<path d="M49.8768 39.8394C49.5105 39.8657 49.1405 39.8789 48.767 39.8791H22.7086C20.9149 39.8851 19.1375 39.5748 17.4784 38.966C15.8194 38.3573 14.3112 37.462 13.0405 36.3316C11.7698 35.2011 10.7616 33.8578 10.0736 32.3787C9.38563 30.8995 9.03149 29.3137 9.03149 27.712C9.03149 26.1104 9.38563 24.5245 10.0736 23.0453C10.7616 21.5662 11.7698 20.2229 13.0405 19.0925C14.3112 17.962 15.8194 17.0668 17.4784 16.458C19.1375 15.8492 20.9149 15.5389 22.7086 15.5449H32.4243C35.5743 9.35662 42.8292 5.02527 51.275 5.02527C62.6112 5.02527 71.8011 12.8276 71.8011 22.4522C71.8011 32.0768 62.6112 39.8791 51.275 39.8791C50.8051 39.8791 50.339 39.8659 49.8768 39.8394Z" fill="url(#paint5_linear_19_410)"/>
<path d="M51.2754 39.71C52.6559 39.71 54.0356 39.5919 55.3759 39.359C56.6821 39.1321 57.9668 38.7935 59.1944 38.3527C60.3996 37.9199 61.562 37.3842 62.6494 36.7605C63.7262 36.1429 64.7388 35.4335 65.659 34.6523C66.5791 33.8711 67.4143 33.0117 68.1416 32.0977C68.8756 31.1752 69.5061 30.1891 70.0154 29.1667C70.5341 28.1257 70.9324 27.0362 71.1993 25.9287C71.4732 24.7923 71.6121 23.6226 71.6121 22.4521C71.6121 21.2817 71.4732 20.112 71.1993 18.9756C70.9324 17.8681 70.5341 16.7787 70.0154 15.7376C69.5061 14.7153 68.8756 13.7291 68.1416 12.8066C67.4143 11.8927 66.5791 11.0333 65.659 10.2521C64.7388 9.47086 63.7262 8.76155 62.6494 8.14389C61.562 7.52022 60.3996 6.98454 59.1944 6.55175C57.9668 6.11091 56.6821 5.77232 55.3759 5.5454C54.0356 5.31254 52.6559 5.19446 51.2754 5.19446C47.226 5.19446 43.3152 6.20156 39.9658 8.10688C38.3513 9.0253 36.9005 10.1339 35.6537 11.4018C34.399 12.6777 33.3707 14.0952 32.5972 15.6148L32.5467 15.714H32.4247H22.709C20.895 15.714 19.1353 16.0312 17.4789 16.6568C16.6827 16.9575 15.9148 17.3297 15.1965 17.763C14.485 18.1922 13.8159 18.6852 13.2078 19.2282C12.5997 19.7711 12.0476 20.3686 11.5669 21.0039C11.0816 21.6453 10.6648 22.331 10.3281 23.0419C9.62749 24.521 9.27225 26.0922 9.27225 27.712C9.27225 29.3318 9.62749 30.903 10.3281 32.3821C10.6648 33.093 11.0816 33.7786 11.5669 34.42C12.0476 35.0554 12.5997 35.6528 13.2078 36.1958C13.8159 36.7388 14.485 37.2318 15.1965 37.661C15.9148 38.0943 16.6827 38.4665 17.4789 38.7672C19.1353 39.3928 20.895 39.71 22.709 39.71H48.7675C49.1319 39.71 49.5001 39.6968 49.8621 39.6707L49.8758 39.6697L49.8894 39.6705C50.3479 39.6967 50.8142 39.71 51.2754 39.71ZM51.2754 39.8792C50.8056 39.8792 50.3393 39.8657 49.8773 39.8394C49.5115 39.8657 49.1409 39.8792 48.7675 39.8792H22.709C15.1835 39.8792 9.08276 34.4317 9.08276 27.712C9.08276 20.9923 15.1835 15.5448 22.709 15.5448H32.4247C35.5748 9.35585 42.8292 5.02527 51.2754 5.02527C62.6117 5.02527 71.8016 12.8276 71.8016 22.4521C71.8016 32.0768 62.6117 39.8792 51.2754 39.8792Z" fill="white" fill-opacity="0.5"/>
</g>
<defs>
<filter id="filter0_f_19_410" x="16.5618" y="29.1292" width="45.4862" height="19.3168" filterUnits="userSpaceOnUse" color-interpolation-filters="sRGB">
<feFlood flood-opacity="0" result="BackgroundImageFix"/>
<feBlend mode="normal" in="SourceGraphic" in2="BackgroundImageFix" result="shape"/>
<feGaussianBlur stdDeviation="0.160122" result="effect1_foregroundBlur_19_410"/>
</filter>
<filter id="filter1_f_19_410" x="3.22785" y="3.82978" width="29.5487" height="26.6063" filterUnits="userSpaceOnUse" color-interpolation-filters="sRGB">
<feFlood flood-opacity="0" result="BackgroundImageFix"/>
<feBlend mode="normal" in="SourceGraphic" in2="BackgroundImageFix" result="shape"/>
<feGaussianBlur stdDeviation="0.160122" result="effect1_foregroundBlur_19_410"/>
</filter>
<filter id="filter2_f_19_410" x="3.35361" y="4.21677" width="17.0162" height="15.0773" filterUnits="userSpaceOnUse" color-interpolation-filters="sRGB">
<feFlood flood-opacity="0" result="BackgroundImageFix"/>
<feBlend mode="normal" in="SourceGraphic" in2="BackgroundImageFix" result="shape"/>
<feGaussianBlur stdDeviation="0.800612" result="effect1_foregroundBlur_19_410"/>
</filter>
<filter id="filter3_f_19_410" x="1.21048" y="0.635288" width="33.0846" height="27.5604" filterUnits="userSpaceOnUse" color-interpolation-filters="sRGB">
<feFlood flood-opacity="0" result="BackgroundImageFix"/>
<feBlend mode="normal" in="SourceGraphic" in2="BackgroundImageFix" result="shape"/>
<feGaussianBlur stdDeviation="0.0800612" result="effect1_foregroundBlur_19_410"/>
</filter>
<filter id="filter4_df_19_410" x="8.71125" y="4.70502" width="63.4105" height="35.8147" filterUnits="userSpaceOnUse" color-interpolation-filters="sRGB">
<feFlood flood-opacity="0" result="BackgroundImageFix"/>
<feColorMatrix in="SourceAlpha" type="matrix" values="0 0 0 0 0 0 0 0 0 0 0 0 0 0 0 0 0 0 127 0" result="hardAlpha"/>
<feOffset dy="0.320245"/>
<feGaussianBlur stdDeviation="0.160122"/>
<feColorMatrix type="matrix" values="0 0 0 0 0.258824 0 0 0 0 0.627451 0 0 0 0 0.941176 0 0 0 0.596 0"/>
<feBlend mode="normal" in2="BackgroundImageFix" result="effect1_dropShadow_19_410"/>
<feBlend mode="normal" in="SourceGraphic" in2="effect1_dropShadow_19_410" result="shape"/>
<feGaussianBlur stdDeviation="0.160122" result="effect2_foregroundBlur_19_410"/>
</filter>
<linearGradient id="paint0_linear_19_410" x1="10.9239" y1="0.79541" x2="10.9239" y2="3.6717" gradientUnits="userSpaceOnUse">
<stop stop-color="#6B38FC"/>
<stop offset="1" stop-color="#9F7EFD"/>
</linearGradient>
<linearGradient id="paint1_linear_19_410" x1="32.6191" y1="25.6669" x2="32.6191" y2="28.0356" gradientUnits="userSpaceOnUse">
<stop stop-color="#6B38FC"/>
<stop offset="1" stop-color="#9F7EFD"/>
</linearGradient>
<linearGradient id="paint2_linear_19_410" x1="26.1775" y1="4.11248" x2="26.7646" y2="6.56474" gradientUnits="userSpaceOnUse">
<stop stop-color="#6B38FC"/>
<stop offset="1" stop-color="#9F7EFD"/>
</linearGradient>
<linearGradient id="paint3_linear_19_410" x1="2.24596" y1="23.7378" x2="3.04719" y2="25.8514" gradientUnits="userSpaceOnUse">
<stop stop-color="#6B38FC"/>
<stop offset="1" stop-color="#9F7EFD"/>
</linearGradient>
<linearGradient id="paint4_linear_19_410" x1="25.5455" y1="12.8148" x2="23.598" y2="12.3113" gradientUnits="userSpaceOnUse">
<stop stop-color="#6B38FC"/>
<stop offset="1" stop-color="#9F7EFD"/>
</linearGradient>
<linearGradient id="paint5_linear_19_410" x1="34.4532" y1="9.41687" x2="44.6509" y2="42.483" gradientUnits="userSpaceOnUse">
<stop stop-color="white" stop-opacity="0.596"/>
<stop offset="1" stop-color="#F7F7F7" stop-opacity="0.204"/>
</linearGradient>
</defs>
</svg>
