<svg width="69" height="40" viewBox="0 0 69 40" fill="none" xmlns="http://www.w3.org/2000/svg">
<g filter="url(#filter0_df_19_2009)">
<g filter="url(#filter1_d_19_2009)">
<path d="M43.2696 37.3317C42.9033 37.358 42.5334 37.3712 42.1598 37.3715H16.1014C14.3077 37.3774 12.5303 37.0671 10.8713 36.4583C9.21219 35.8496 7.70404 34.9543 6.43334 33.8239C5.16264 32.6935 4.15439 31.3501 3.46642 29.871C2.77846 28.3918 2.42432 26.806 2.42432 25.2043C2.42432 23.6027 2.77846 22.0168 3.46642 20.5377C4.15439 19.0585 5.16264 17.7152 6.43334 16.5848C7.70404 15.4544 9.21219 14.5591 10.8713 13.9503C12.5303 13.3415 14.3077 13.0312 16.1014 13.0372H25.8173C28.9673 6.84893 36.222 2.51758 44.6678 2.51758C56.004 2.51758 65.1939 10.3199 65.1939 19.9445C65.1939 29.5691 56.004 37.3715 44.6678 37.3715C44.1979 37.3715 43.7318 37.3582 43.2696 37.3317Z" fill="url(#paint0_linear_19_2009)"/>
<path d="M44.668 37.2023C46.0485 37.2023 47.4281 37.0842 48.7685 36.8513C50.0746 36.6244 51.3594 36.2858 52.587 35.845C53.7922 35.4122 54.9546 34.8765 56.0419 34.2528C57.1188 33.6352 58.1314 32.9258 59.0516 32.1446C59.9717 31.3635 60.8069 30.504 61.5341 29.59C62.2682 28.6675 62.8987 27.6814 63.408 26.659C63.9266 25.618 64.325 24.5285 64.5919 23.421C64.8658 22.2846 65.0047 21.1149 65.0047 19.9444C65.0047 18.774 64.8658 17.6043 64.5919 16.468C64.325 15.3604 63.9266 14.271 63.408 13.2299C62.8987 12.2076 62.2682 11.2215 61.5341 10.299C60.8069 9.38503 59.9717 8.52556 59.0516 7.74444C58.1314 6.96317 57.1188 6.25386 56.0419 5.6362C54.9546 5.01253 53.7922 4.47685 52.587 4.04406C51.3594 3.60322 50.0746 3.26463 48.7685 3.03771C47.4281 2.80485 46.0485 2.68677 44.668 2.68677C40.6186 2.68677 36.7078 3.69387 33.3585 5.59918C31.744 6.51761 30.2932 7.62619 29.0464 8.89412C27.7917 10.1701 26.7634 11.5875 25.9899 13.1071L25.9394 13.2063H25.8174H16.1016C14.2875 13.2063 12.5279 13.5235 10.8714 14.1491C10.0753 14.4498 9.30741 14.822 8.5891 15.2553C7.87756 15.6845 7.20846 16.1775 6.60037 16.7205C5.99228 17.2634 5.44021 17.8609 4.9595 18.4963C4.47422 19.1377 4.05742 19.8233 3.72068 20.5342C3.02007 22.0133 2.66482 23.5845 2.66482 25.2043C2.66482 26.8241 3.02007 28.3953 3.72068 29.8744C4.05742 30.5853 4.47422 31.271 4.9595 31.9123C5.44021 32.5477 5.99228 33.1452 6.60037 33.6881C7.20846 34.2311 7.87756 34.7241 8.5891 35.1533C9.30741 35.5866 10.0753 35.9588 10.8714 36.2595C12.5279 36.8851 14.2875 37.2023 16.1016 37.2023H42.1601C42.5244 37.2023 42.8927 37.1891 43.2547 37.163L43.2683 37.162L43.282 37.1628C43.7404 37.189 44.2067 37.2023 44.668 37.2023ZM44.668 37.3715C44.1982 37.3715 43.7319 37.358 43.2699 37.3317C42.9041 37.358 42.5335 37.3715 42.1601 37.3715H16.1016C8.57604 37.3715 2.47534 31.924 2.47534 25.2043C2.47534 18.4846 8.57604 13.0371 16.1016 13.0371H25.8174C28.9675 6.84816 36.2218 2.51758 44.668 2.51758C56.0042 2.51758 65.1942 10.32 65.1942 19.9444C65.1942 29.5691 56.0042 37.3715 44.668 37.3715Z" fill="white" fill-opacity="0.5"/>
</g>
</g>
<defs>
<filter id="filter0_df_19_2009" x="0.823093" y="0.275866" width="67.5734" height="39.6577" filterUnits="userSpaceOnUse" color-interpolation-filters="sRGB">
<feFlood flood-opacity="0" result="BackgroundImageFix"/>
<feColorMatrix in="SourceAlpha" type="matrix" values="0 0 0 0 0 0 0 0 0 0 0 0 0 0 0 0 0 0 127 0" result="hardAlpha"/>
<feOffset dx="0.800612" dy="0.160122"/>
<feGaussianBlur stdDeviation="1.20092"/>
<feColorMatrix type="matrix" values="0 0 0 0 0 0 0 0 0 0 0 0 0 0 0 0 0 0 0.25 0"/>
<feBlend mode="normal" in2="BackgroundImageFix" result="effect1_dropShadow_19_2009"/>
<feBlend mode="normal" in="SourceGraphic" in2="effect1_dropShadow_19_2009" result="shape"/>
<feGaussianBlur stdDeviation="0.160122" result="effect2_foregroundBlur_19_2009"/>
</filter>
<filter id="filter1_d_19_2009" x="0.823093" y="0.275866" width="67.5734" height="39.6577" filterUnits="userSpaceOnUse" color-interpolation-filters="sRGB">
<feFlood flood-opacity="0" result="BackgroundImageFix"/>
<feColorMatrix in="SourceAlpha" type="matrix" values="0 0 0 0 0 0 0 0 0 0 0 0 0 0 0 0 0 0 127 0" result="hardAlpha"/>
<feOffset dx="0.800612" dy="0.160122"/>
<feGaussianBlur stdDeviation="1.20092"/>
<feColorMatrix type="matrix" values="0 0 0 0 0.258824 0 0 0 0 0.627451 0 0 0 0 0.941176 0 0 0 0.596 0"/>
<feBlend mode="normal" in2="BackgroundImageFix" result="effect1_dropShadow_19_2009"/>
<feBlend mode="normal" in="SourceGraphic" in2="effect1_dropShadow_19_2009" result="shape"/>
</filter>
<linearGradient id="paint0_linear_19_2009" x1="27.846" y1="6.90918" x2="38.0437" y2="39.9753" gradientUnits="userSpaceOnUse">
<stop stop-color="white" stop-opacity="0.596"/>
<stop offset="1" stop-color="#F7F7F7" stop-opacity="0.204"/>
</linearGradient>
</defs>
</svg>
