<svg width="66" height="57" viewBox="0 0 66 57" fill="none" xmlns="http://www.w3.org/2000/svg">
<g filter="url(#filter0_f_19_3)">
<path d="M22.3001 34.3721C22.399 34.4529 20.2769 38.4816 19.0532 39.7376C17.8296 40.9936 16.3329 41.6194 15.7098 41.1362C15.0868 40.6529 15.5731 39.2435 16.7969 37.9874C18.0207 36.7314 22.2011 34.2913 22.3001 34.3721Z" fill="#42A0F0"/>
<path d="M17.0017 38.8171C17.1224 38.9904 17.5463 38.9485 17.9484 38.7234C18.3505 38.4983 18.5785 38.1754 18.4577 38.0021C18.3369 37.8287 17.9131 37.8707 17.511 38.0958C17.1089 38.3208 16.8809 38.6438 17.0017 38.8171Z" fill="white"/>
<path d="M35.1846 34.3721C35.2835 34.4529 33.1614 38.4816 31.9378 39.7376C30.7141 40.9936 29.2174 41.6194 28.5944 41.1362C27.9713 40.6529 28.4576 39.2435 29.6814 37.9874C30.9052 36.7314 35.0856 34.2913 35.1846 34.3721Z" fill="#42A0F0"/>
<path d="M29.8867 38.8171C30.0075 38.9904 30.4313 38.9485 30.8334 38.7234C31.2355 38.4983 31.4635 38.1754 31.3427 38.0021C31.2219 37.8287 30.7981 37.8707 30.396 38.0958C29.9939 38.3208 29.7659 38.6438 29.8867 38.8171Z" fill="white"/>
<path d="M36.7004 42.8319C36.7994 42.9127 34.6773 46.9414 33.4536 48.1973C32.2299 49.4533 30.7333 50.0791 30.1102 49.5959C29.4872 49.1126 29.9734 47.7032 31.1973 46.4472C32.4211 45.1911 36.6015 42.7511 36.7004 42.8319Z" fill="#42A0F0"/>
<path d="M31.403 47.2766C31.5238 47.4499 31.9477 47.408 32.3498 47.1829C32.7518 46.9578 32.9799 46.6348 32.8591 46.4615C32.7383 46.2882 32.3144 46.3302 31.9123 46.5552C31.5103 46.7803 31.2822 47.1033 31.403 47.2766Z" fill="white"/>
<path d="M52.4282 42.8319C52.5272 42.9127 50.4051 46.9414 49.1814 48.1973C47.9577 49.4533 46.461 50.0791 45.838 49.5959C45.215 49.1126 45.7012 47.7032 46.925 46.4472C48.1488 45.1911 52.3293 42.7511 52.4282 42.8319Z" fill="#42A0F0"/>
<path d="M47.1301 47.2766C47.2509 47.4499 47.6747 47.408 48.0768 47.1829C48.4789 46.9578 48.7069 46.6348 48.5861 46.4615C48.4654 46.2882 48.0415 46.3302 47.6394 46.5552C47.2373 46.7803 47.0093 47.1033 47.1301 47.2766Z" fill="white"/>
<path d="M41.0586 48.9227C41.1576 49.0035 39.0355 53.0322 37.8118 54.2881C36.5881 55.5441 35.0914 56.1699 34.4684 55.6867C33.8454 55.2034 34.3316 53.7941 35.5554 52.538C36.7792 51.2819 40.9597 48.8419 41.0586 48.9227Z" fill="#42A0F0"/>
<path d="M35.7609 53.3677C35.8817 53.541 36.3056 53.499 36.7077 53.2739C37.1098 53.0489 37.3378 52.7259 37.217 52.5526C37.0962 52.3793 36.6723 52.4212 36.2703 52.6463C35.8682 52.8714 35.6401 53.1943 35.7609 53.3677Z" fill="white"/>
<path d="M26.6582 48.9227C26.7572 49.0035 24.6351 53.0322 23.4114 54.2881C22.1877 55.5441 20.691 56.1699 20.068 55.6867C19.445 55.2034 19.9312 53.7941 21.155 52.538C22.3788 51.2819 26.5593 48.8419 26.6582 48.9227Z" fill="#42A0F0"/>
<path d="M21.3596 53.3677C21.4804 53.541 21.9042 53.499 22.3063 53.2739C22.7084 53.0489 22.9364 52.7259 22.8156 52.5526C22.6948 52.3793 22.271 52.4212 21.8689 52.6463C21.4668 52.8714 21.2388 53.1943 21.3596 53.3677Z" fill="white"/>
</g>
<path d="M21.0994 41.6113H24.9932L22.7547 44.5465L25.372 44.5908L19.8793 50.3965L21.2095 45.9701H18.7727L21.0994 41.6113Z" fill="url(#paint0_linear_19_3)"/>
<path d="M43.8372 36.3665H47.731L45.4925 39.3016L48.1098 39.346L42.6171 45.1517L43.9472 40.7252H41.5105L43.8372 36.3665Z" fill="url(#paint1_linear_19_3)"/>
<g filter="url(#filter1_f_19_3)">
<path d="M17.9727 30.2314C15.0884 30.2349 12.2698 29.4622 9.88447 28.0142C7.71863 26.7034 5.98821 24.8959 4.87508 22.7816C3.76194 20.6673 3.30719 18.3242 3.55862 15.9988C3.81006 13.6733 4.75838 11.4513 6.30394 9.56614C7.84949 7.68104 9.93521 6.20249 12.3419 5.28588C14.1223 4.60945 16.0378 4.26238 17.9727 4.26565C18.5375 4.26566 19.1019 4.29493 19.6629 4.35329C19.3358 4.99192 19.0856 5.65975 18.9164 6.34554C18.7424 7.05336 18.6548 7.77591 18.6551 8.50056C18.6514 10.4891 19.3163 12.4329 20.5637 14.0802C21.3679 15.1427 22.3926 16.0578 23.5826 16.7758C24.1806 17.1365 24.8164 17.4446 25.481 17.6959C26.8572 18.216 28.3369 18.4827 29.8313 18.4801C30.6959 18.4804 31.5576 18.3915 32.3994 18.2153C32.2009 20.6575 31.2315 22.9994 29.6036 24.9699C29.0769 25.6074 28.4865 26.2008 27.8395 26.7428C25.1692 28.9868 21.6396 30.2347 17.9727 30.2314Z" fill="#713FFD"/>
</g>
<g filter="url(#filter2_f_19_3)">
<path d="M15.4282 15.4628C18.6755 12.852 19.6864 9.12736 17.686 7.14362C15.6856 5.15988 11.4316 5.66822 8.18424 8.27904C4.93692 10.8899 3.92606 14.6145 5.92642 16.5982C7.92678 18.582 12.1809 18.0736 15.4282 15.4628Z" fill="#A586FC"/>
</g>
<g filter="url(#filter3_f_19_3)">
<path d="M10.8672 0.910889L11.3532 1.95989L12.6673 2.34903L11.3532 2.73818L10.8672 3.78718L10.3812 2.73818L9.06714 2.34903L10.3812 1.95989L10.8672 0.910889Z" fill="url(#paint2_linear_19_3)"/>
<path d="M32.5632 25.7825L32.9725 26.647L34.0791 26.9668L32.9725 27.2866L32.5632 28.1512L32.1539 27.2866L31.0474 26.9668L32.1539 26.647L32.5632 25.7825Z" fill="url(#paint3_linear_19_3)"/>
<path d="M26.1214 4.2279L26.7923 5.01329L27.9887 5.07724L26.9887 5.66705L26.8477 6.64683L26.1767 5.85967L24.9803 5.79572L25.9804 5.20591L26.1214 4.2279Z" fill="url(#paint4_linear_19_3)"/>
<path d="M2.18884 23.8539L2.91286 24.4622L4.03902 24.3615L3.17573 25.0151L3.16265 25.9021L2.4407 25.2933L1.31454 25.394L2.17799 24.7408L2.18884 23.8539Z" fill="url(#paint5_linear_19_3)"/>
<path d="M25.4889 12.9301L24.6933 13.0741L24.2224 13.8106L24.1608 12.9644L23.5164 12.5235L24.3125 12.3799L24.7831 11.6434L24.8444 12.4896L25.4889 12.9301Z" fill="url(#paint6_linear_19_3)"/>
</g>
<g filter="url(#filter4_df_19_3)">
<path d="M43.419 39.6164C43.0527 39.6426 42.6828 39.6559 42.3092 39.6561H16.2508C14.4571 39.6621 12.6798 39.3518 11.0207 38.743C9.36161 38.1342 7.85346 37.239 6.58276 36.1085C5.31205 34.9781 4.3038 33.6348 3.61584 32.1557C2.92787 30.6765 2.57373 29.0906 2.57373 27.489C2.57373 25.8873 2.92787 24.3015 3.61584 22.8223C4.3038 21.3432 5.31205 19.9999 6.58276 18.8694C7.85346 17.739 9.36161 16.8437 11.0207 16.235C12.6798 15.6262 14.4571 15.3159 16.2508 15.3219H25.9667C29.1167 9.1336 36.3714 4.80225 44.8172 4.80225C56.1534 4.80225 65.3433 12.6046 65.3433 22.2292C65.3433 31.8538 56.1534 39.6561 44.8172 39.6561C44.3473 39.6561 43.8813 39.6429 43.419 39.6164Z" fill="url(#paint7_linear_19_3)"/>
<path d="M44.8174 39.4869C46.1979 39.4869 47.5775 39.3689 48.9179 39.136C50.224 38.9091 51.5088 38.5705 52.7364 38.1297C53.9416 37.6968 55.104 37.1612 56.1913 36.5375C57.2682 35.9198 58.2808 35.2105 59.201 34.4292C60.1211 33.6481 60.9563 32.7886 61.6836 31.8747C62.4176 30.9522 63.0481 29.9661 63.5574 28.9437C64.0761 27.9026 64.4744 26.8132 64.7413 25.7057C65.0152 24.5692 65.1541 23.3996 65.1541 22.2291C65.1541 21.0587 65.0152 19.889 64.7413 18.7526C64.4744 17.6451 64.0761 16.5557 63.5574 15.5146C63.0481 14.4922 62.4176 13.5061 61.6836 12.5836C60.9563 11.6697 60.1211 10.8102 59.201 10.0291C58.2808 9.24784 57.2682 8.53853 56.1913 7.92086C55.104 7.2972 53.9416 6.76152 52.7364 6.32872C51.5088 5.88788 50.224 5.5493 48.9179 5.32238C47.5775 5.08952 46.1979 4.97144 44.8174 4.97144C40.768 4.97144 36.8572 5.97854 33.5079 7.88385C31.8934 8.80228 30.4426 9.91086 29.1958 11.1788C27.9411 12.4547 26.9128 13.8722 26.1393 15.3918L26.0888 15.491H25.9668H16.251C14.4369 15.491 12.6773 15.8082 11.0209 16.4338C10.2247 16.7345 9.45682 17.1066 8.73851 17.54C8.02697 17.9692 7.35787 18.4622 6.74978 19.0051C6.14169 19.5481 5.58962 20.1456 5.10891 20.7809C4.62363 21.4223 4.20683 22.108 3.87009 22.8189C3.16948 24.2979 2.81424 25.8692 2.81424 27.489C2.81424 29.1087 3.16948 30.68 3.87009 32.1591C4.20683 32.8699 4.62363 33.5556 5.10891 34.197C5.58962 34.8324 6.14169 35.4298 6.74978 35.9728C7.35787 36.5158 8.02697 37.0087 8.73851 37.438C9.45682 37.8713 10.2247 38.2435 11.0209 38.5441C12.6773 39.1697 14.4369 39.4869 16.251 39.4869H42.3095C42.6739 39.4869 43.0421 39.4737 43.4041 39.4477L43.4178 39.4467L43.4314 39.4475C43.8899 39.4737 44.3562 39.4869 44.8174 39.4869ZM44.8174 39.6561C44.3476 39.6561 43.8813 39.6427 43.4193 39.6163C43.0535 39.6427 42.6829 39.6561 42.3095 39.6561H16.251C8.72545 39.6561 2.62476 34.2087 2.62476 27.489C2.62476 20.7693 8.72545 15.3218 16.251 15.3218H25.9668C29.1169 9.13283 36.3712 4.80225 44.8174 4.80225C56.1537 4.80225 65.3436 12.6046 65.3436 22.2291C65.3436 31.8538 56.1537 39.6561 44.8174 39.6561Z" fill="white" fill-opacity="0.5"/>
</g>
<defs>
<filter id="filter0_f_19_3" x="15.1182" y="34.0499" width="37.6337" height="22.1202" filterUnits="userSpaceOnUse" color-interpolation-filters="sRGB">
<feFlood flood-opacity="0" result="BackgroundImageFix"/>
<feBlend mode="normal" in="SourceGraphic" in2="BackgroundImageFix" result="shape"/>
<feGaussianBlur stdDeviation="0.160122" result="effect1_foregroundBlur_19_3"/>
</filter>
<filter id="filter1_f_19_3" x="3.17097" y="3.94538" width="29.5487" height="26.6063" filterUnits="userSpaceOnUse" color-interpolation-filters="sRGB">
<feFlood flood-opacity="0" result="BackgroundImageFix"/>
<feBlend mode="normal" in="SourceGraphic" in2="BackgroundImageFix" result="shape"/>
<feGaussianBlur stdDeviation="0.160122" result="effect1_foregroundBlur_19_3"/>
</filter>
<filter id="filter2_f_19_3" x="3.29819" y="4.33237" width="17.0162" height="15.0772" filterUnits="userSpaceOnUse" color-interpolation-filters="sRGB">
<feFlood flood-opacity="0" result="BackgroundImageFix"/>
<feBlend mode="normal" in="SourceGraphic" in2="BackgroundImageFix" result="shape"/>
<feGaussianBlur stdDeviation="0.800612" result="effect1_foregroundBlur_19_3"/>
</filter>
<filter id="filter3_f_19_3" x="1.15433" y="0.750766" width="33.0849" height="27.5605" filterUnits="userSpaceOnUse" color-interpolation-filters="sRGB">
<feFlood flood-opacity="0" result="BackgroundImageFix"/>
<feBlend mode="normal" in="SourceGraphic" in2="BackgroundImageFix" result="shape"/>
<feGaussianBlur stdDeviation="0.0800612" result="effect1_foregroundBlur_19_3"/>
</filter>
<filter id="filter4_df_19_3" x="2.25349" y="4.482" width="63.4103" height="35.8147" filterUnits="userSpaceOnUse" color-interpolation-filters="sRGB">
<feFlood flood-opacity="0" result="BackgroundImageFix"/>
<feColorMatrix in="SourceAlpha" type="matrix" values="0 0 0 0 0 0 0 0 0 0 0 0 0 0 0 0 0 0 127 0" result="hardAlpha"/>
<feOffset dy="0.320245"/>
<feGaussianBlur stdDeviation="0.160122"/>
<feColorMatrix type="matrix" values="0 0 0 0 0.258824 0 0 0 0 0.627451 0 0 0 0 0.941176 0 0 0 0.596 0"/>
<feBlend mode="normal" in2="BackgroundImageFix" result="effect1_dropShadow_19_3"/>
<feBlend mode="normal" in="SourceGraphic" in2="effect1_dropShadow_19_3" result="shape"/>
<feGaussianBlur stdDeviation="0.160122" result="effect2_foregroundBlur_19_3"/>
</filter>
<linearGradient id="paint0_linear_19_3" x1="21.4652" y1="46.0039" x2="18.4728" y2="44.7753" gradientUnits="userSpaceOnUse">
<stop stop-color="#FFD100"/>
<stop offset="1" stop-color="#FFF0AA"/>
</linearGradient>
<linearGradient id="paint1_linear_19_3" x1="44.203" y1="40.7591" x2="41.2106" y2="39.5304" gradientUnits="userSpaceOnUse">
<stop stop-color="#FFD100"/>
<stop offset="1" stop-color="#FFF0AA"/>
</linearGradient>
<linearGradient id="paint2_linear_19_3" x1="10.8672" y1="0.910889" x2="10.8672" y2="3.78718" gradientUnits="userSpaceOnUse">
<stop stop-color="#6B38FC"/>
<stop offset="1" stop-color="#9F7EFD"/>
</linearGradient>
<linearGradient id="paint3_linear_19_3" x1="32.5632" y1="25.7825" x2="32.5632" y2="28.1512" gradientUnits="userSpaceOnUse">
<stop stop-color="#6B38FC"/>
<stop offset="1" stop-color="#9F7EFD"/>
</linearGradient>
<linearGradient id="paint4_linear_19_3" x1="26.1216" y1="4.22783" x2="26.7087" y2="6.6801" gradientUnits="userSpaceOnUse">
<stop stop-color="#6B38FC"/>
<stop offset="1" stop-color="#9F7EFD"/>
</linearGradient>
<linearGradient id="paint5_linear_19_3" x1="2.1898" y1="23.8535" x2="2.99103" y2="25.9671" gradientUnits="userSpaceOnUse">
<stop stop-color="#6B38FC"/>
<stop offset="1" stop-color="#9F7EFD"/>
</linearGradient>
<linearGradient id="paint6_linear_19_3" x1="25.4889" y1="12.9303" x2="23.5414" y2="12.4268" gradientUnits="userSpaceOnUse">
<stop stop-color="#6B38FC"/>
<stop offset="1" stop-color="#9F7EFD"/>
</linearGradient>
<linearGradient id="paint7_linear_19_3" x1="27.9954" y1="9.19384" x2="38.1932" y2="42.2599" gradientUnits="userSpaceOnUse">
<stop stop-color="white" stop-opacity="0.596"/>
<stop offset="1" stop-color="#F7F7F7" stop-opacity="0.204"/>
</linearGradient>
</defs>
</svg>
