<svg width="69" height="62" viewBox="0 0 69 62" fill="none" xmlns="http://www.w3.org/2000/svg">
<g filter="url(#filter0_f_19_1083)">
<path fill-rule="evenodd" clip-rule="evenodd" d="M24.6145 28.2493C24.6366 28.2493 24.6545 28.2672 24.6545 28.2893V29.7863C24.6545 29.8084 24.6366 29.8264 24.6145 29.8264C24.5924 29.8264 24.5745 29.8084 24.5745 29.7863V28.2893C24.5745 28.2672 24.5924 28.2493 24.6145 28.2493Z" fill="#42A0F0"/>
<path fill-rule="evenodd" clip-rule="evenodd" d="M24.8895 28.5164C24.8985 28.5366 24.8894 28.5602 24.8693 28.5693L24.5945 28.692C24.5743 28.7011 24.5506 28.692 24.5416 28.6718C24.5326 28.6516 24.5416 28.628 24.5618 28.6189L24.8366 28.4962C24.8568 28.4871 24.8805 28.4962 24.8895 28.5164Z" fill="#42A0F0"/>
<path fill-rule="evenodd" clip-rule="evenodd" d="M24.1306 28.5213C24.1369 28.5001 24.1592 28.488 24.1804 28.4944L24.5895 28.6162C24.6107 28.6225 24.6227 28.6448 24.6164 28.666C24.6101 28.6871 24.5878 28.6992 24.5666 28.6929L24.1575 28.5711C24.1363 28.5648 24.1243 28.5425 24.1306 28.5213Z" fill="#42A0F0"/>
<path fill-rule="evenodd" clip-rule="evenodd" d="M24.5416 29.4906C24.5506 29.4704 24.5743 29.4614 24.5945 29.4704L24.8693 29.5932C24.8894 29.6022 24.8985 29.6259 24.8895 29.6461C24.8805 29.6662 24.8568 29.6753 24.8366 29.6663L24.5618 29.5435C24.5416 29.5345 24.5326 29.5108 24.5416 29.4906Z" fill="#42A0F0"/>
<path fill-rule="evenodd" clip-rule="evenodd" d="M24.6164 29.4955C24.6227 29.5167 24.6107 29.539 24.5895 29.5453L24.1804 29.6671C24.1592 29.6735 24.1369 29.6614 24.1306 29.6402C24.1243 29.619 24.1363 29.5967 24.1575 29.5904L24.5666 29.4686C24.5878 29.4623 24.6101 29.4743 24.6164 29.4955Z" fill="#42A0F0"/>
<path fill-rule="evenodd" clip-rule="evenodd" d="M25.3718 28.6514C25.3838 28.67 25.3776 28.6933 25.358 28.7034L23.906 29.4519C23.8864 29.462 23.8607 29.4552 23.8487 29.4366C23.8367 29.4181 23.8429 29.3948 23.8626 29.3847L25.3145 28.6362C25.3342 28.626 25.3598 28.6329 25.3718 28.6514Z" fill="#42A0F0"/>
<path fill-rule="evenodd" clip-rule="evenodd" d="M25.4245 28.9573C25.4195 28.9776 25.3971 28.9894 25.3745 28.9838L24.9688 28.883C24.9462 28.8773 24.9318 28.8563 24.9368 28.8361C24.9417 28.8158 24.9641 28.804 24.9867 28.8096L25.3924 28.9105C25.415 28.9161 25.4294 28.9371 25.4245 28.9573Z" fill="#42A0F0"/>
<path fill-rule="evenodd" clip-rule="evenodd" d="M25.092 28.4501C25.1145 28.4561 25.1285 28.4772 25.1231 28.4974L25.0259 28.8638C25.0205 28.8839 24.9979 28.8954 24.9753 28.8894C24.9528 28.8834 24.9388 28.8622 24.9442 28.8421L25.0415 28.4757C25.0468 28.4555 25.0694 28.4441 25.092 28.4501Z" fill="#42A0F0"/>
<path fill-rule="evenodd" clip-rule="evenodd" d="M24.2098 29.2131C24.2323 29.2194 24.2459 29.2407 24.2402 29.2608L24.138 29.62C24.1323 29.64 24.1094 29.6511 24.087 29.6448C24.0645 29.6385 24.0509 29.6172 24.0566 29.5971L24.1588 29.2379C24.1645 29.2179 24.1874 29.2067 24.2098 29.2131Z" fill="#42A0F0"/>
<path fill-rule="evenodd" clip-rule="evenodd" d="M24.2475 29.267C24.2422 29.2871 24.2196 29.2987 24.197 29.2927L23.7867 29.1845C23.7641 29.1785 23.7501 29.1574 23.7554 29.1372C23.7607 29.1171 23.7833 29.1055 23.8059 29.1115L24.2162 29.2197C24.2388 29.2257 24.2528 29.2468 24.2475 29.267Z" fill="#42A0F0"/>
<path fill-rule="evenodd" clip-rule="evenodd" d="M25.364 29.4366C25.352 29.4552 25.3264 29.462 25.3067 29.4519L23.8548 28.7034C23.8351 28.6932 23.8289 28.67 23.8409 28.6514C23.8529 28.6328 23.8786 28.626 23.8982 28.6361L25.3502 29.3846C25.3698 29.3948 25.376 29.418 25.364 29.4366Z" fill="#42A0F0"/>
<path fill-rule="evenodd" clip-rule="evenodd" d="M25.0919 29.6271C25.0694 29.6334 25.0466 29.6222 25.0408 29.6022L24.9386 29.243C24.9329 29.223 24.9465 29.2016 24.969 29.1953C24.9914 29.189 25.0143 29.2001 25.02 29.2202L25.1222 29.5793C25.1279 29.5994 25.1143 29.6208 25.0919 29.6271Z" fill="#42A0F0"/>
<path fill-rule="evenodd" clip-rule="evenodd" d="M25.4233 29.1194C25.4286 29.1395 25.4146 29.1607 25.392 29.1667L24.9817 29.2749C24.9591 29.2808 24.9365 29.2693 24.9312 29.2491C24.9259 29.229 24.9399 29.2078 24.9625 29.2019L25.3728 29.0937C25.3954 29.0877 25.418 29.0992 25.4233 29.1194Z" fill="#42A0F0"/>
<path fill-rule="evenodd" clip-rule="evenodd" d="M24.2413 28.8183C24.2462 28.8386 24.2319 28.8596 24.2092 28.8652L23.8036 28.9661C23.7809 28.9717 23.7586 28.9598 23.7536 28.9396C23.7487 28.9193 23.763 28.8984 23.7857 28.8927L24.1913 28.7919C24.214 28.7862 24.2363 28.7981 24.2413 28.8183Z" fill="#42A0F0"/>
<path fill-rule="evenodd" clip-rule="evenodd" d="M24.2026 28.8717C24.1801 28.8777 24.1575 28.8662 24.1521 28.8461L24.0548 28.4797C24.0495 28.4595 24.0634 28.4383 24.086 28.4324C24.1085 28.4264 24.1311 28.4378 24.1365 28.458L24.2338 28.8244C24.2391 28.8445 24.2252 28.8657 24.2026 28.8717Z" fill="#42A0F0"/>
</g>
<g filter="url(#filter1_f_19_1083)">
<path fill-rule="evenodd" clip-rule="evenodd" d="M47.7451 31.5637C47.7672 31.5637 47.7852 31.5816 47.7852 31.6038V34.1701C47.7852 34.1922 47.7672 34.2101 47.7451 34.2101C47.723 34.2101 47.7051 34.1922 47.7051 34.1701V31.6038C47.7051 31.5816 47.723 31.5637 47.7451 31.5637Z" fill="#42A0F0"/>
<path fill-rule="evenodd" clip-rule="evenodd" d="M48.2098 32.0555C48.2147 32.0771 48.2011 32.0985 48.1795 32.1033L47.634 32.2251C47.6124 32.2299 47.591 32.2163 47.5862 32.1948C47.5814 32.1732 47.5949 32.1518 47.6165 32.147L48.162 32.0251C48.1836 32.0203 48.205 32.0339 48.2098 32.0555Z" fill="#42A0F0"/>
<path fill-rule="evenodd" clip-rule="evenodd" d="M46.9037 32.0572C46.9076 32.0354 46.9284 32.0209 46.9502 32.0248L47.6321 32.1466C47.6539 32.1505 47.6684 32.1713 47.6645 32.1931C47.6606 32.2148 47.6398 32.2293 47.618 32.2254L46.9361 32.1036C46.9143 32.0997 46.8998 32.0789 46.9037 32.0572Z" fill="#42A0F0"/>
<path fill-rule="evenodd" clip-rule="evenodd" d="M47.5887 33.6308C47.5977 33.6106 47.6214 33.6015 47.6416 33.6105L48.1871 33.854C48.2073 33.863 48.2163 33.8867 48.2073 33.9069C48.1983 33.9271 48.1746 33.9361 48.1545 33.9271L47.6089 33.6837C47.5887 33.6746 47.5797 33.651 47.5887 33.6308Z" fill="#42A0F0"/>
<path fill-rule="evenodd" clip-rule="evenodd" d="M47.6628 33.6336C47.6702 33.6545 47.6593 33.6774 47.6385 33.6848L46.9566 33.9283C46.9358 33.9357 46.9129 33.9248 46.9054 33.904C46.898 33.8832 46.9088 33.8603 46.9297 33.8529L47.6116 33.6094C47.6324 33.602 47.6553 33.6128 47.6628 33.6336Z" fill="#42A0F0"/>
<path fill-rule="evenodd" clip-rule="evenodd" d="M49.0181 32.2376C49.0301 32.2562 49.0239 32.2795 49.0042 32.2896L46.5152 33.5727C46.4955 33.5829 46.4699 33.576 46.4579 33.5575C46.4459 33.5389 46.4521 33.5156 46.4717 33.5055L48.9607 32.2224C48.9804 32.2122 49.0061 32.2191 49.0181 32.2376Z" fill="#42A0F0"/>
<path fill-rule="evenodd" clip-rule="evenodd" d="M49.1018 32.7382C49.0968 32.7585 49.0745 32.7703 49.0518 32.7647L48.362 32.5932C48.3393 32.5876 48.325 32.5666 48.3299 32.5463C48.3349 32.5261 48.3572 32.5142 48.3799 32.5199L49.0697 32.6914C49.0924 32.697 49.1067 32.718 49.1018 32.7382Z" fill="#42A0F0"/>
<path fill-rule="evenodd" clip-rule="evenodd" d="M48.5573 31.9054C48.5799 31.9114 48.5938 31.9326 48.5885 31.9527L48.423 32.5758C48.4177 32.596 48.3951 32.6074 48.3725 32.6014C48.35 32.5955 48.336 32.5743 48.3414 32.5541L48.5068 31.931C48.5122 31.9109 48.5348 31.8994 48.5573 31.9054Z" fill="#42A0F0"/>
<path fill-rule="evenodd" clip-rule="evenodd" d="M47.0438 33.2131C47.0663 33.2194 47.0799 33.2407 47.0742 33.2608L46.9003 33.8716C46.8946 33.8916 46.8718 33.9028 46.8493 33.8965C46.8269 33.8901 46.8133 33.8688 46.819 33.8487L46.9928 33.2379C46.9985 33.2179 47.0213 33.2067 47.0438 33.2131Z" fill="#42A0F0"/>
<path fill-rule="evenodd" clip-rule="evenodd" d="M47.0844 33.2688C47.0791 33.289 47.0565 33.3005 47.034 33.2945L46.3361 33.1105C46.3136 33.1046 46.2996 33.0834 46.3049 33.0632C46.3102 33.0431 46.3328 33.0316 46.3553 33.0375L47.0532 33.2215C47.0757 33.2275 47.0897 33.2486 47.0844 33.2688Z" fill="#42A0F0"/>
<path fill-rule="evenodd" clip-rule="evenodd" d="M49.0042 33.5574C48.9922 33.576 48.9665 33.5829 48.9468 33.5727L46.4578 32.2896C46.4382 32.2794 46.432 32.2562 46.444 32.2376C46.456 32.219 46.4816 32.2122 46.5013 32.2223L48.9903 33.5055C49.01 33.5156 49.0162 33.5389 49.0042 33.5574Z" fill="#42A0F0"/>
<path fill-rule="evenodd" clip-rule="evenodd" d="M48.5581 33.8682C48.5356 33.8745 48.5128 33.8633 48.5071 33.8433L48.3332 33.2325C48.3275 33.2124 48.3411 33.1911 48.3636 33.1848C48.386 33.1785 48.4089 33.1896 48.4146 33.2096L48.5884 33.8204C48.5941 33.8405 48.5805 33.8619 48.5581 33.8682Z" fill="#42A0F0"/>
<path fill-rule="evenodd" clip-rule="evenodd" d="M49.1022 33.0347C49.1075 33.0548 49.0935 33.076 49.071 33.0819L48.3732 33.266C48.3506 33.2719 48.328 33.2604 48.3227 33.2402C48.3174 33.2201 48.3314 33.1989 48.3539 33.193L49.0518 33.0089C49.0743 33.003 49.0969 33.0145 49.1022 33.0347Z" fill="#42A0F0"/>
<path fill-rule="evenodd" clip-rule="evenodd" d="M47.0765 32.518C47.0814 32.5383 47.0671 32.5593 47.0445 32.5649L46.3546 32.7364C46.3319 32.7421 46.3096 32.7302 46.3046 32.7099C46.2997 32.6897 46.314 32.6687 46.3367 32.6631L47.0265 32.4916C47.0492 32.4859 47.0716 32.4978 47.0765 32.518Z" fill="#42A0F0"/>
<path fill-rule="evenodd" clip-rule="evenodd" d="M47.0349 32.5731C47.0123 32.5791 46.9897 32.5676 46.9843 32.5475L46.8189 31.9244C46.8135 31.9042 46.8275 31.8831 46.85 31.8771C46.8726 31.8711 46.8952 31.8825 46.9006 31.9027L47.066 32.5258C47.0714 32.546 47.0574 32.5671 47.0349 32.5731Z" fill="#42A0F0"/>
</g>
<g filter="url(#filter2_f_19_1083)">
<path fill-rule="evenodd" clip-rule="evenodd" d="M64.5435 35.549C64.5656 35.549 64.5835 35.5669 64.5835 35.589V37.6959C64.5835 37.7181 64.5656 37.736 64.5435 37.736C64.5214 37.736 64.5034 37.7181 64.5034 37.6959V35.589C64.5034 35.5669 64.5214 35.549 64.5435 35.549Z" fill="#42A0F0"/>
<path fill-rule="evenodd" clip-rule="evenodd" d="M64.8691 35.9161C64.8754 35.9373 64.8633 35.9595 64.8422 35.9659L64.4331 36.0877C64.4119 36.094 64.3896 36.0819 64.3833 36.0607C64.377 36.0395 64.389 36.0173 64.4102 36.0109L64.8193 35.8891C64.8405 35.8828 64.8628 35.8949 64.8691 35.9161Z" fill="#42A0F0"/>
<path fill-rule="evenodd" clip-rule="evenodd" d="M63.8369 35.9188C63.8417 35.8972 63.8631 35.8836 63.8847 35.8884L64.4302 36.0102C64.4518 36.0151 64.4654 36.0365 64.4606 36.058C64.4557 36.0796 64.4344 36.0932 64.4128 36.0884L63.8673 35.9666C63.8457 35.9617 63.8321 35.9403 63.8369 35.9188Z" fill="#42A0F0"/>
<path fill-rule="evenodd" clip-rule="evenodd" d="M64.3872 37.2465C64.3985 37.2275 64.4231 37.2213 64.4421 37.2326L64.8512 37.476C64.8702 37.4873 64.8764 37.5119 64.8651 37.5309C64.8538 37.5499 64.8292 37.5561 64.8102 37.5448L64.4012 37.3014C64.3822 37.2901 64.3759 37.2655 64.3872 37.2465Z" fill="#42A0F0"/>
<path fill-rule="evenodd" clip-rule="evenodd" d="M64.4581 37.2507C64.4671 37.2708 64.458 37.2945 64.4378 37.3035L63.8923 37.547C63.8721 37.556 63.8484 37.5469 63.8394 37.5268C63.8304 37.5066 63.8395 37.4829 63.8597 37.4739L64.4052 37.2304C64.4254 37.2214 64.449 37.2305 64.4581 37.2507Z" fill="#42A0F0"/>
<path fill-rule="evenodd" clip-rule="evenodd" d="M65.5957 36.1062C65.6077 36.1247 65.6015 36.148 65.5819 36.1581L63.5384 37.2116C63.5187 37.2217 63.493 37.2149 63.481 37.1963C63.469 37.1778 63.4752 37.1545 63.4949 37.1444L65.5384 36.0909C65.558 36.0808 65.5837 36.0876 65.5957 36.1062Z" fill="#42A0F0"/>
<path fill-rule="evenodd" clip-rule="evenodd" d="M65.6655 36.5224C65.6606 36.5427 65.6382 36.5545 65.6156 36.5489L65.049 36.408C65.0264 36.4024 65.012 36.3814 65.017 36.3612C65.0219 36.3409 65.0443 36.3291 65.0669 36.3347L65.6335 36.4756C65.6561 36.4812 65.6705 36.5022 65.6655 36.5224Z" fill="#42A0F0"/>
<path fill-rule="evenodd" clip-rule="evenodd" d="M65.2126 35.8301C65.2352 35.8361 65.2491 35.8572 65.2437 35.8774L65.1079 36.3891C65.1025 36.4092 65.0799 36.4207 65.0574 36.4147C65.0348 36.4087 65.0209 36.3876 65.0262 36.3674L65.1621 35.8557C65.1674 35.8356 65.19 35.8241 65.2126 35.8301Z" fill="#42A0F0"/>
<path fill-rule="evenodd" clip-rule="evenodd" d="M63.9701 36.9039C63.9925 36.9102 64.0061 36.9315 64.0004 36.9516L63.8577 37.4532C63.852 37.4732 63.8291 37.4844 63.8067 37.4781C63.7842 37.4717 63.7706 37.4504 63.7763 37.4303L63.9191 36.9287C63.9248 36.9087 63.9476 36.8975 63.9701 36.9039Z" fill="#42A0F0"/>
<path fill-rule="evenodd" clip-rule="evenodd" d="M64.0092 36.9579C64.0039 36.978 63.9813 36.9896 63.9588 36.9836L63.3857 36.8325C63.3632 36.8265 63.3492 36.8054 63.3545 36.7852C63.3598 36.7651 63.3824 36.7535 63.4049 36.7595L63.978 36.9106C64.0006 36.9166 64.0145 36.9377 64.0092 36.9579Z" fill="#42A0F0"/>
<path fill-rule="evenodd" clip-rule="evenodd" d="M65.5837 37.1961C65.5717 37.2147 65.5461 37.2215 65.5264 37.2114L63.4829 36.1579C63.4633 36.1478 63.4571 36.1245 63.4691 36.106C63.4811 36.0874 63.5068 36.0805 63.5264 36.0907L65.5699 37.1442C65.5896 37.1543 65.5958 37.1776 65.5837 37.1961Z" fill="#42A0F0"/>
<path fill-rule="evenodd" clip-rule="evenodd" d="M65.2128 37.4545C65.1904 37.4608 65.1675 37.4497 65.1618 37.4296L65.0191 36.928C65.0134 36.908 65.027 36.8866 65.0494 36.8803C65.0719 36.874 65.0947 36.8851 65.1004 36.9052L65.2432 37.4068C65.2489 37.4268 65.2353 37.4482 65.2128 37.4545Z" fill="#42A0F0"/>
<path fill-rule="evenodd" clip-rule="evenodd" d="M65.665 36.7617C65.6703 36.7819 65.6563 36.803 65.6337 36.809L65.0607 36.9601C65.0381 36.9661 65.0155 36.9545 65.0102 36.9344C65.0049 36.9142 65.0189 36.8931 65.0415 36.8871L65.6145 36.736C65.6371 36.73 65.6597 36.7416 65.665 36.7617Z" fill="#42A0F0"/>
<path fill-rule="evenodd" clip-rule="evenodd" d="M64.002 36.3376C64.007 36.3579 63.9926 36.3788 63.97 36.3845L63.4035 36.5253C63.3808 36.531 63.3584 36.5191 63.3535 36.4989C63.3486 36.4786 63.3629 36.4576 63.3856 36.452L63.9521 36.3111C63.9747 36.3055 63.9971 36.3174 64.002 36.3376Z" fill="#42A0F0"/>
<path fill-rule="evenodd" clip-rule="evenodd" d="M63.9618 36.3912C63.9393 36.3972 63.9167 36.3858 63.9113 36.3656L63.7755 35.8539C63.7701 35.8338 63.784 35.8126 63.8066 35.8066C63.8292 35.8006 63.8518 35.8121 63.8571 35.8322L63.993 36.3439C63.9983 36.3641 63.9844 36.3852 63.9618 36.3912Z" fill="#42A0F0"/>
</g>
<g filter="url(#filter3_f_19_1083)">
<path fill-rule="evenodd" clip-rule="evenodd" d="M6.51368 44.4805C6.53579 44.4805 6.55371 44.4984 6.55371 44.5205V46.3764C6.55371 46.3985 6.53579 46.4164 6.51368 46.4164C6.49157 46.4164 6.47365 46.3985 6.47365 46.3764V44.5205C6.47365 44.4984 6.49157 44.4805 6.51368 44.4805Z" fill="#42A0F0"/>
<path fill-rule="evenodd" clip-rule="evenodd" d="M6.85005 44.8476C6.85636 44.8688 6.8443 44.8911 6.82311 44.8974L6.41401 45.0192C6.39283 45.0255 6.37053 45.0134 6.36422 44.9923C6.35791 44.9711 6.36998 44.9488 6.39117 44.9425L6.80026 44.8206C6.82145 44.8143 6.84374 44.8264 6.85005 44.8476Z" fill="#42A0F0"/>
<path fill-rule="evenodd" clip-rule="evenodd" d="M5.95504 44.8476C5.96135 44.8264 5.98365 44.8143 6.00483 44.8206L6.41393 44.9425C6.43512 44.9488 6.44718 44.9711 6.44087 44.9923C6.43456 45.0134 6.41227 45.0255 6.39108 45.0192L5.98199 44.8974C5.9608 44.8911 5.94873 44.8688 5.95504 44.8476Z" fill="#42A0F0"/>
<path fill-rule="evenodd" clip-rule="evenodd" d="M6.36819 45.9345C6.37949 45.9155 6.40406 45.9092 6.42306 45.9206L6.83215 46.164C6.85115 46.1753 6.85738 46.1999 6.84608 46.2189C6.83477 46.2379 6.8102 46.2441 6.79121 46.2328L6.38211 45.9894C6.36311 45.978 6.35688 45.9535 6.36819 45.9345Z" fill="#42A0F0"/>
<path fill-rule="evenodd" clip-rule="evenodd" d="M6.4369 45.9345C6.44821 45.9535 6.44197 45.978 6.42297 45.9894L6.01388 46.2328C5.99488 46.2441 5.97031 46.2379 5.95901 46.2189C5.9477 46.1999 5.95394 46.1753 5.97293 46.164L6.38203 45.9206C6.40102 45.9092 6.42559 45.9155 6.4369 45.9345Z" fill="#42A0F0"/>
<path fill-rule="evenodd" clip-rule="evenodd" d="M7.44384 44.9738C7.45584 44.9924 7.44965 45.0157 7.43 45.0258L5.63002 45.9537C5.61037 45.9639 5.5847 45.957 5.5727 45.9385C5.5607 45.9199 5.5669 45.8966 5.58655 45.8865L7.38652 44.9586C7.40618 44.9484 7.43184 44.9553 7.44384 44.9738Z" fill="#42A0F0"/>
<path fill-rule="evenodd" clip-rule="evenodd" d="M7.50669 45.344C7.50175 45.3642 7.47938 45.3761 7.45674 45.3704L6.95778 45.2464C6.93514 45.2408 6.92079 45.2198 6.92573 45.1995C6.93067 45.1793 6.95304 45.1674 6.97568 45.1731L7.47464 45.2971C7.49728 45.3027 7.51163 45.3237 7.50669 45.344Z" fill="#42A0F0"/>
<path fill-rule="evenodd" clip-rule="evenodd" d="M7.10371 44.7287C7.12627 44.7347 7.14021 44.7559 7.13486 44.7761L7.01519 45.2268C7.00984 45.2469 6.98722 45.2584 6.96467 45.2524C6.94212 45.2464 6.92818 45.2252 6.93353 45.2051L7.05319 44.7544C7.05854 44.7342 7.08116 44.7228 7.10371 44.7287Z" fill="#42A0F0"/>
<path fill-rule="evenodd" clip-rule="evenodd" d="M6.00915 45.6745C6.03161 45.6808 6.0452 45.7022 6.03949 45.7222L5.91374 46.164C5.90803 46.184 5.88519 46.1951 5.86273 46.1888C5.84026 46.1825 5.82668 46.1612 5.83238 46.1411L5.95814 45.6994C5.96384 45.6793 5.98668 45.6682 6.00915 45.6745Z" fill="#42A0F0"/>
<path fill-rule="evenodd" clip-rule="evenodd" d="M6.0469 45.7277C6.04159 45.7478 6.019 45.7594 5.99644 45.7534L5.49171 45.6203C5.46914 45.6144 5.45515 45.5932 5.46045 45.573C5.46576 45.5529 5.48835 45.5414 5.51091 45.5473L6.01565 45.6804C6.03821 45.6864 6.0522 45.7075 6.0469 45.7277Z" fill="#42A0F0"/>
<path fill-rule="evenodd" clip-rule="evenodd" d="M7.43458 45.9383C7.42257 45.9569 7.39691 45.9637 7.37726 45.9536L5.57728 45.0256C5.55763 45.0155 5.55143 44.9922 5.56344 44.9737C5.57544 44.9551 5.6011 44.9483 5.62075 44.9584L7.42073 45.8863C7.44038 45.8965 7.44658 45.9197 7.43458 45.9383Z" fill="#42A0F0"/>
<path fill-rule="evenodd" clip-rule="evenodd" d="M7.10435 46.1681C7.08188 46.1744 7.05905 46.1633 7.05334 46.1432L6.92759 45.7015C6.92188 45.6814 6.93546 45.6601 6.95793 45.6537C6.98039 45.6474 7.00323 45.6586 7.00894 45.6786L7.13469 46.1204C7.1404 46.1404 7.12681 46.1618 7.10435 46.1681Z" fill="#42A0F0"/>
<path fill-rule="evenodd" clip-rule="evenodd" d="M7.50629 45.5522C7.51159 45.5724 7.4976 45.5936 7.47503 45.5995L6.9703 45.7326C6.94774 45.7386 6.92515 45.7271 6.91984 45.7069C6.91454 45.6867 6.92853 45.6656 6.95109 45.6596L7.45583 45.5265C7.47839 45.5206 7.50098 45.5321 7.50629 45.5522Z" fill="#42A0F0"/>
<path fill-rule="evenodd" clip-rule="evenodd" d="M6.04159 45.1787C6.04653 45.1989 6.03218 45.2199 6.00954 45.2255L5.51058 45.3496C5.48794 45.3552 5.46557 45.3433 5.46063 45.3231C5.45569 45.3028 5.47004 45.2819 5.49268 45.2762L5.99164 45.1522C6.01428 45.1466 6.03664 45.1584 6.04159 45.1787Z" fill="#42A0F0"/>
<path fill-rule="evenodd" clip-rule="evenodd" d="M6.0028 45.2315C5.98025 45.2375 5.95763 45.226 5.95228 45.2059L5.83261 44.7552C5.82726 44.735 5.84121 44.7138 5.86376 44.7078C5.88631 44.7018 5.90893 44.7133 5.91428 44.7335L6.03395 45.1842C6.0393 45.2043 6.02535 45.2255 6.0028 45.2315Z" fill="#42A0F0"/>
</g>
<g filter="url(#filter4_f_19_1083)">
<path fill-rule="evenodd" clip-rule="evenodd" d="M35.9983 51.5762C36.0204 51.5762 36.0383 51.5941 36.0383 51.6162V53.1215C36.0383 53.1436 36.0204 53.1615 35.9983 53.1615C35.9762 53.1615 35.9583 53.1436 35.9583 53.1215V51.6162C35.9583 51.5941 35.9762 51.5762 35.9983 51.5762Z" fill="#42A0F0"/>
<path fill-rule="evenodd" clip-rule="evenodd" d="M36.2689 51.8166C36.2779 51.8367 36.2688 51.8604 36.2487 51.8694L35.9738 51.9922C35.9537 52.0012 35.93 51.9922 35.921 51.972C35.912 51.9518 35.921 51.9281 35.9412 51.9191L36.216 51.7963C36.2362 51.7873 36.2599 51.7964 36.2689 51.8166Z" fill="#42A0F0"/>
<path fill-rule="evenodd" clip-rule="evenodd" d="M35.5097 51.8215C35.516 51.8003 35.5383 51.7882 35.5595 51.7945L35.9686 51.9163C35.9898 51.9227 36.0019 51.9449 35.9956 51.9661C35.9892 51.9873 35.967 51.9994 35.9458 51.9931L35.5367 51.8713C35.5155 51.8649 35.5034 51.8427 35.5097 51.8215Z" fill="#42A0F0"/>
<path fill-rule="evenodd" clip-rule="evenodd" d="M35.921 52.7908C35.93 52.7706 35.9537 52.7616 35.9738 52.7706L36.2487 52.8934C36.2688 52.9024 36.2779 52.926 36.2689 52.9462C36.2599 52.9664 36.2362 52.9755 36.216 52.9665L35.9412 52.8437C35.921 52.8347 35.912 52.811 35.921 52.7908Z" fill="#42A0F0"/>
<path fill-rule="evenodd" clip-rule="evenodd" d="M35.9956 52.7957C36.0019 52.8169 35.9898 52.8392 35.9686 52.8455L35.5595 52.9673C35.5383 52.9736 35.516 52.9616 35.5097 52.9404C35.5034 52.9192 35.5155 52.8969 35.5367 52.8906L35.9458 52.7688C35.967 52.7625 35.9892 52.7745 35.9956 52.7957Z" fill="#42A0F0"/>
<path fill-rule="evenodd" clip-rule="evenodd" d="M36.7598 51.9804C36.7718 51.999 36.7656 52.0223 36.7459 52.0324L35.2859 52.785C35.2663 52.7952 35.2406 52.7883 35.2286 52.7698C35.2166 52.7512 35.2228 52.7279 35.2425 52.7178L36.7024 51.9651C36.7221 51.955 36.7478 51.9619 36.7598 51.9804Z" fill="#42A0F0"/>
<path fill-rule="evenodd" clip-rule="evenodd" d="M36.8125 52.2879C36.8075 52.3081 36.7852 52.32 36.7625 52.3144L36.3546 52.213C36.3319 52.2074 36.3176 52.1864 36.3225 52.1662C36.3275 52.1459 36.3498 52.1341 36.3725 52.1397L36.7804 52.241C36.803 52.2467 36.8174 52.2676 36.8125 52.2879Z" fill="#42A0F0"/>
<path fill-rule="evenodd" clip-rule="evenodd" d="M36.4787 51.7781C36.5013 51.7841 36.5152 51.8052 36.5099 51.8254L36.412 52.1939C36.4067 52.214 36.384 52.2255 36.3615 52.2195C36.3389 52.2135 36.325 52.1923 36.3303 52.1722L36.4282 51.8037C36.4335 51.7835 36.4562 51.7721 36.4787 51.7781Z" fill="#42A0F0"/>
<path fill-rule="evenodd" clip-rule="evenodd" d="M35.5912 52.5452C35.6136 52.5515 35.6272 52.5729 35.6215 52.5929L35.5186 52.9541C35.5129 52.9741 35.4901 52.9852 35.4676 52.9789C35.4452 52.9726 35.4316 52.9512 35.4373 52.9312L35.5402 52.5701C35.5459 52.55 35.5687 52.5389 35.5912 52.5452Z" fill="#42A0F0"/>
<path fill-rule="evenodd" clip-rule="evenodd" d="M35.6292 52.5991C35.6239 52.6193 35.6013 52.6308 35.5788 52.6249L35.1661 52.516C35.1435 52.5101 35.1295 52.4889 35.1348 52.4688C35.1401 52.4486 35.1627 52.4371 35.1853 52.443L35.598 52.5519C35.6205 52.5578 35.6345 52.579 35.6292 52.5991Z" fill="#42A0F0"/>
<path fill-rule="evenodd" clip-rule="evenodd" d="M36.7517 52.7696C36.7397 52.7882 36.7141 52.795 36.6944 52.7849L35.2344 52.0322C35.2148 52.0221 35.2086 51.9988 35.2206 51.9803C35.2326 51.9617 35.2582 51.9549 35.2779 51.965L36.7379 52.7176C36.7575 52.7278 36.7637 52.751 36.7517 52.7696Z" fill="#42A0F0"/>
<path fill-rule="evenodd" clip-rule="evenodd" d="M36.4775 52.9613C36.4551 52.9676 36.4322 52.9565 36.4265 52.9364L36.3237 52.5753C36.3179 52.5552 36.3315 52.5339 36.354 52.5276C36.3765 52.5212 36.3993 52.5324 36.405 52.5524L36.5079 52.9136C36.5136 52.9336 36.5 52.955 36.4775 52.9613Z" fill="#42A0F0"/>
<path fill-rule="evenodd" clip-rule="evenodd" d="M36.811 52.451C36.8163 52.4712 36.8023 52.4924 36.7797 52.4983L36.367 52.6072C36.3445 52.6131 36.3219 52.6016 36.3166 52.5814C36.3113 52.5613 36.3253 52.5401 36.3478 52.5342L36.7605 52.4253C36.7831 52.4194 36.8057 52.4309 36.811 52.451Z" fill="#42A0F0"/>
<path fill-rule="evenodd" clip-rule="evenodd" d="M35.6234 52.1483C35.6283 52.1685 35.614 52.1895 35.5913 52.1951L35.1834 52.2965C35.1608 52.3021 35.1384 52.2902 35.1334 52.27C35.1285 52.2497 35.1429 52.2288 35.1655 52.2231L35.5734 52.1218C35.5961 52.1162 35.6184 52.128 35.6234 52.1483Z" fill="#42A0F0"/>
<path fill-rule="evenodd" clip-rule="evenodd" d="M35.5841 52.2017C35.5615 52.2077 35.5389 52.1962 35.5335 52.1761L35.4357 51.8076C35.4303 51.7874 35.4443 51.7662 35.4668 51.7602C35.4894 51.7542 35.512 51.7657 35.5174 51.7859L35.6152 52.1544C35.6205 52.1745 35.6066 52.1957 35.5841 52.2017Z" fill="#42A0F0"/>
</g>
<g filter="url(#filter5_f_19_1083)">
<path fill-rule="evenodd" clip-rule="evenodd" d="M51.731 47.4569C51.8637 47.4569 51.9712 47.5644 51.9712 47.6971V60.6898C51.9712 60.8225 51.8637 60.93 51.731 60.93C51.5984 60.93 51.4908 60.8225 51.4908 60.6898V47.6971C51.4908 47.5644 51.5984 47.4569 51.731 47.4569Z" fill="#42A0F0"/>
<path fill-rule="evenodd" clip-rule="evenodd" d="M54.3846 48.4004C54.4745 48.4979 54.4683 48.6499 54.3708 48.7398L51.8649 51.0496C51.7673 51.1395 51.6154 51.1333 51.5255 51.0358C51.4356 50.9383 51.4418 50.7863 51.5393 50.6964L54.0452 48.3866C54.1428 48.2967 54.2947 48.3029 54.3846 48.4004Z" fill="#42A0F0"/>
<path fill-rule="evenodd" clip-rule="evenodd" d="M48.9363 48.4032C49.0246 48.3043 49.1765 48.2957 49.2754 48.384L51.8622 50.6939C51.9612 50.7822 51.9698 50.934 51.8814 51.033C51.7931 51.1319 51.6412 51.1405 51.5423 51.0522L48.9555 48.7423C48.8565 48.654 48.8479 48.5022 48.9363 48.4032Z" fill="#42A0F0"/>
<path fill-rule="evenodd" clip-rule="evenodd" d="M51.5255 57.6398C51.6154 57.5422 51.7673 57.5361 51.8649 57.626L54.3708 59.9358C54.4683 60.0257 54.4745 60.1776 54.3846 60.2752C54.2947 60.3727 54.1428 60.3789 54.0452 60.289L51.5393 57.9792C51.4418 57.8893 51.4356 57.7373 51.5255 57.6398Z" fill="#42A0F0"/>
<path fill-rule="evenodd" clip-rule="evenodd" d="M51.8814 57.6426C51.9698 57.7415 51.9612 57.8934 51.8622 57.9817L49.2754 60.2916C49.1765 60.3799 49.0246 60.3713 48.9363 60.2724C48.8479 60.1734 48.8565 60.0216 48.9555 59.9332L51.5423 57.6234C51.6412 57.5351 51.7931 57.5436 51.8814 57.6426Z" fill="#42A0F0"/>
<path fill-rule="evenodd" clip-rule="evenodd" d="M58.2111 50.8891C58.2832 51.0005 58.246 51.1401 58.1281 51.2009L45.5267 57.6972C45.4088 57.758 45.2549 57.717 45.1828 57.6056C45.1108 57.4942 45.148 57.3546 45.2659 57.2938L57.8672 50.7975C57.9851 50.7367 58.1391 50.7777 58.2111 50.8891Z" fill="#42A0F0"/>
<path fill-rule="evenodd" clip-rule="evenodd" d="M58.642 53.4513C58.6123 53.5728 58.4781 53.6439 58.3423 53.6101L54.849 52.7418C54.7132 52.708 54.6271 52.5822 54.6567 52.4606C54.6864 52.3391 54.8206 52.268 54.9565 52.3018L58.4497 53.1701C58.5855 53.2039 58.6716 53.3298 58.642 53.4513Z" fill="#42A0F0"/>
<path fill-rule="evenodd" clip-rule="evenodd" d="M55.8532 49.1904C55.9885 49.2263 56.0722 49.3534 56.0401 49.4743L55.2023 52.6296C55.1702 52.7505 55.0345 52.8193 54.8992 52.7834C54.7639 52.7475 54.6802 52.6203 54.7123 52.4994L55.5501 49.3441C55.5822 49.2233 55.7179 49.1544 55.8532 49.1904Z" fill="#42A0F0"/>
<path fill-rule="evenodd" clip-rule="evenodd" d="M48.1909 55.8114C48.3257 55.8493 48.4072 55.9775 48.3729 56.0978L47.4925 59.1905C47.4583 59.3108 47.3212 59.3776 47.1865 59.3398C47.0517 59.3019 46.9702 59.1737 47.0044 59.0534L47.8848 55.9607C47.9191 55.8404 48.0561 55.7736 48.1909 55.8114Z" fill="#42A0F0"/>
<path fill-rule="evenodd" clip-rule="evenodd" d="M48.4272 56.1371C48.3954 56.258 48.2599 56.3271 48.1245 56.2914L44.5908 55.3596C44.4555 55.3239 44.3715 55.1969 44.4033 55.0759C44.4351 54.955 44.5707 54.8859 44.7061 54.9216L48.2397 55.8534C48.3751 55.8891 48.4591 56.0161 48.4272 56.1371Z" fill="#42A0F0"/>
<path fill-rule="evenodd" clip-rule="evenodd" d="M58.1407 57.6054C58.0686 57.7168 57.9147 57.7579 57.7968 57.6971L45.1954 51.2007C45.0775 51.1399 45.0403 51.0004 45.1124 50.889C45.1844 50.7776 45.3384 50.7365 45.4563 50.7973L58.0576 57.2937C58.1755 57.3545 58.2127 57.494 58.1407 57.6054Z" fill="#42A0F0"/>
<path fill-rule="evenodd" clip-rule="evenodd" d="M55.8578 59.1955C55.723 59.2333 55.5859 59.1665 55.5517 59.0462L54.6713 55.9535C54.6371 55.8332 54.7186 55.705 54.8533 55.6671C54.9881 55.6293 55.1252 55.6961 55.1594 55.8164L56.0398 58.9091C56.074 59.0294 55.9925 59.1576 55.8578 59.1955Z" fill="#42A0F0"/>
<path fill-rule="evenodd" clip-rule="evenodd" d="M58.6405 54.9316C58.6723 55.0526 58.5884 55.1796 58.453 55.2153L54.9193 56.1471C54.7839 56.1828 54.6484 56.1137 54.6166 55.9928C54.5848 55.8718 54.6687 55.7448 54.8041 55.7091L58.3378 54.7773C58.4731 54.7416 58.6087 54.8107 58.6405 54.9316Z" fill="#42A0F0"/>
<path fill-rule="evenodd" clip-rule="evenodd" d="M48.387 52.3162C48.4166 52.4377 48.3305 52.5636 48.1947 52.5974L44.7015 53.4657C44.5656 53.4995 44.4314 53.4284 44.4018 53.3069C44.3721 53.1853 44.4582 53.0595 44.5941 53.0257L48.0873 52.1574C48.2231 52.1236 48.3573 52.1947 48.387 52.3162Z" fill="#42A0F0"/>
<path fill-rule="evenodd" clip-rule="evenodd" d="M48.1446 52.639C48.0093 52.6749 47.8736 52.6061 47.8415 52.4852L47.0037 49.3299C46.9716 49.209 47.0553 49.0819 47.1906 49.0459C47.3259 49.01 47.4616 49.0788 47.4937 49.1997L48.3315 52.355C48.3636 52.4759 48.2799 52.603 48.1446 52.639Z" fill="#42A0F0"/>
<path fill-rule="evenodd" clip-rule="evenodd" d="M35.2466 32.5679C35.3793 32.5679 35.4868 32.6754 35.4868 32.8081V45.8008C35.4868 45.9334 35.3793 46.0409 35.2466 46.0409C35.114 46.0409 35.0064 45.9334 35.0064 45.8008V32.8081C35.0064 32.6754 35.114 32.5679 35.2466 32.5679Z" fill="#42A0F0"/>
<path fill-rule="evenodd" clip-rule="evenodd" d="M37.9002 33.5112C37.9901 33.6088 37.984 33.7607 37.8864 33.8506L35.3805 36.1605C35.283 36.2504 35.131 36.2442 35.0411 36.1466C34.9512 36.0491 34.9574 35.8972 35.0549 35.8072L37.5608 33.4974C37.6584 33.4075 37.8103 33.4137 37.9002 33.5112Z" fill="#42A0F0"/>
<path fill-rule="evenodd" clip-rule="evenodd" d="M32.4514 33.5142C32.5398 33.4152 32.6916 33.4066 32.7905 33.495L35.3774 35.8048C35.4763 35.8932 35.4849 36.045 35.3965 36.1439C35.3082 36.2429 35.1564 36.2515 35.0574 36.1631L32.4706 33.8533C32.3716 33.765 32.3631 33.6131 32.4514 33.5142Z" fill="#42A0F0"/>
<path fill-rule="evenodd" clip-rule="evenodd" d="M35.0411 42.7506C35.131 42.6531 35.283 42.6469 35.3805 42.7368L37.8864 45.0466C37.984 45.1365 37.9901 45.2885 37.9002 45.386C37.8103 45.4836 37.6584 45.4897 37.5608 45.3998L35.0549 43.09C34.9574 43.0001 34.9512 42.8482 35.0411 42.7506Z" fill="#42A0F0"/>
<path fill-rule="evenodd" clip-rule="evenodd" d="M35.3965 42.7534C35.4849 42.8524 35.4763 43.0042 35.3774 43.0926L32.7905 45.4024C32.6916 45.4907 32.5398 45.4822 32.4514 45.3832C32.3631 45.2843 32.3716 45.1324 32.4706 45.0441L35.0574 42.7342C35.1564 42.6459 35.3082 42.6545 35.3965 42.7534Z" fill="#42A0F0"/>
<path fill-rule="evenodd" clip-rule="evenodd" d="M41.7258 36.0001C41.7978 36.1115 41.7606 36.2511 41.6427 36.3118L29.0414 42.8082C28.9235 42.869 28.7695 42.828 28.6975 42.7166C28.6255 42.6052 28.6627 42.4656 28.7806 42.4048L41.3819 35.9085C41.4998 35.8477 41.6538 35.8887 41.7258 36.0001Z" fill="#42A0F0"/>
<path fill-rule="evenodd" clip-rule="evenodd" d="M42.1569 38.5622C42.1272 38.6837 41.993 38.7549 41.8571 38.7211L38.3639 37.8528C38.2281 37.819 38.142 37.6931 38.1716 37.5716C38.2013 37.4501 38.3355 37.379 38.4714 37.4128L41.9646 38.2811C42.1004 38.3149 42.1865 38.4407 42.1569 38.5622Z" fill="#42A0F0"/>
<path fill-rule="evenodd" clip-rule="evenodd" d="M39.3681 34.3013C39.5034 34.3373 39.5871 34.4644 39.555 34.5853L38.7172 37.7406C38.6851 37.8615 38.5494 37.9303 38.4141 37.8944C38.2788 37.8584 38.1951 37.7313 38.2272 37.6104L39.065 34.4551C39.0971 34.3342 39.2328 34.2654 39.3681 34.3013Z" fill="#42A0F0"/>
<path fill-rule="evenodd" clip-rule="evenodd" d="M31.7055 40.9225C31.8403 40.9604 31.9218 41.0886 31.8876 41.2089L31.0072 44.3016C30.9729 44.4219 30.8359 44.4887 30.7011 44.4508C30.5663 44.413 30.4848 44.2848 30.5191 44.1645L31.3995 41.0717C31.4337 40.9515 31.5707 40.8846 31.7055 40.9225Z" fill="#42A0F0"/>
<path fill-rule="evenodd" clip-rule="evenodd" d="M31.9421 41.2482C31.9103 41.3691 31.7748 41.4382 31.6394 41.4025L28.1057 40.4707C27.9704 40.435 27.8864 40.308 27.9182 40.187C27.95 40.0661 28.0856 39.997 28.221 40.0327L31.7546 40.9645C31.89 41.0002 31.9739 41.1272 31.9421 41.2482Z" fill="#42A0F0"/>
<path fill-rule="evenodd" clip-rule="evenodd" d="M41.6563 42.7164C41.5843 42.8278 41.4303 42.8688 41.3124 42.808L28.7111 36.3117C28.5932 36.2509 28.556 36.1113 28.628 35.9999C28.7 35.8885 28.854 35.8475 28.9719 35.9083L41.5732 42.4046C41.6911 42.4654 41.7283 42.605 41.6563 42.7164Z" fill="#42A0F0"/>
<path fill-rule="evenodd" clip-rule="evenodd" d="M39.3731 44.3063C39.2383 44.3442 39.1013 44.2773 39.0671 44.1571L38.1867 41.0643C38.1524 40.944 38.2339 40.8158 38.3687 40.778C38.5035 40.7401 38.6405 40.8069 38.6748 40.9272L39.5552 44.0199C39.5894 44.1402 39.5079 44.2684 39.3731 44.3063Z" fill="#42A0F0"/>
<path fill-rule="evenodd" clip-rule="evenodd" d="M42.1561 40.0426C42.1879 40.1636 42.104 40.2905 41.9686 40.3262L38.435 41.2581C38.2996 41.2938 38.164 41.2247 38.1322 41.1037C38.1004 40.9828 38.1843 40.8558 38.3197 40.8201L41.8534 39.8882C41.9888 39.8525 42.1243 39.9216 42.1561 40.0426Z" fill="#42A0F0"/>
<path fill-rule="evenodd" clip-rule="evenodd" d="M31.9024 37.4273C31.932 37.5488 31.8459 37.6747 31.7101 37.7085L28.2169 38.5768C28.081 38.6106 27.9468 38.5394 27.9171 38.4179C27.8875 38.2964 27.9736 38.1706 28.1094 38.1368L31.6026 37.2685C31.7385 37.2347 31.8727 37.3058 31.9024 37.4273Z" fill="#42A0F0"/>
<path fill-rule="evenodd" clip-rule="evenodd" d="M31.6598 37.7501C31.5244 37.786 31.3887 37.7171 31.3566 37.5963L30.5188 34.441C30.4867 34.3201 30.5704 34.193 30.7057 34.157C30.841 34.1211 30.9767 34.1899 31.0088 34.3108L31.8466 37.4661C31.8787 37.587 31.7951 37.7141 31.6598 37.7501Z" fill="#42A0F0"/>
<path fill-rule="evenodd" clip-rule="evenodd" d="M22.1724 47.4569C22.3051 47.4569 22.4126 47.5644 22.4126 47.6971V60.6898C22.4126 60.8225 22.3051 60.93 22.1724 60.93C22.0398 60.93 21.9322 60.8225 21.9322 60.6898V47.6971C21.9322 47.5644 22.0398 47.4569 22.1724 47.4569Z" fill="#42A0F0"/>
<path fill-rule="evenodd" clip-rule="evenodd" d="M24.8258 48.4004C24.9157 48.4979 24.9095 48.6499 24.812 48.7398L22.306 51.0496C22.2085 51.1395 22.0566 51.1333 21.9667 51.0358C21.8768 50.9383 21.8829 50.7863 21.9805 50.6964L24.4864 48.3866C24.5839 48.2967 24.7359 48.3029 24.8258 48.4004Z" fill="#42A0F0"/>
<path fill-rule="evenodd" clip-rule="evenodd" d="M19.3769 48.4032C19.4653 48.3043 19.6171 48.2957 19.7161 48.384L22.3029 50.6939C22.4018 50.7822 22.4104 50.934 22.3221 51.033C22.2337 51.1319 22.0819 51.1405 21.983 51.0522L19.3961 48.7423C19.2972 48.654 19.2886 48.5022 19.3769 48.4032Z" fill="#42A0F0"/>
<path fill-rule="evenodd" clip-rule="evenodd" d="M21.9667 57.6398C22.0566 57.5422 22.2085 57.5361 22.306 57.626L24.812 59.9358C24.9095 60.0257 24.9157 60.1776 24.8258 60.2752C24.7359 60.3727 24.5839 60.3789 24.4864 60.289L21.9805 57.9792C21.8829 57.8893 21.8768 57.7373 21.9667 57.6398Z" fill="#42A0F0"/>
<path fill-rule="evenodd" clip-rule="evenodd" d="M22.3221 57.6426C22.4104 57.7415 22.4018 57.8934 22.3029 57.9817L19.7161 60.2916C19.6171 60.3799 19.4653 60.3713 19.3769 60.2724C19.2886 60.1734 19.2972 60.0216 19.3961 59.9332L21.983 57.6234C22.0819 57.5351 22.2337 57.5436 22.3221 57.6426Z" fill="#42A0F0"/>
<path fill-rule="evenodd" clip-rule="evenodd" d="M28.6518 50.889C28.7238 51.0004 28.6866 51.14 28.5687 51.2008L15.9674 57.6971C15.8495 57.7579 15.6955 57.7169 15.6235 57.6055C15.5515 57.4941 15.5887 57.3545 15.7066 57.2937L28.3079 50.7974C28.4258 50.7366 28.5798 50.7776 28.6518 50.889Z" fill="#42A0F0"/>
<path fill-rule="evenodd" clip-rule="evenodd" d="M29.0829 53.4511C29.0532 53.5727 28.919 53.6438 28.7832 53.61L25.29 52.7417C25.1541 52.7079 25.068 52.582 25.0977 52.4605C25.1273 52.339 25.2615 52.2679 25.3974 52.3017L28.8906 53.17C29.0265 53.2038 29.1126 53.3296 29.0829 53.4511Z" fill="#42A0F0"/>
<path fill-rule="evenodd" clip-rule="evenodd" d="M26.2942 49.1902C26.4295 49.2262 26.5131 49.3533 26.481 49.4742L25.6432 52.6295C25.6111 52.7504 25.4754 52.8192 25.3401 52.7833C25.2048 52.7473 25.1211 52.6202 25.1532 52.4993L25.991 49.344C26.0231 49.2231 26.1588 49.1543 26.2942 49.1902Z" fill="#42A0F0"/>
<path fill-rule="evenodd" clip-rule="evenodd" d="M18.6315 55.8113C18.7663 55.8492 18.8478 55.9774 18.8136 56.0977L17.9332 59.1904C17.8989 59.3107 17.7619 59.3775 17.6271 59.3396C17.4923 59.3018 17.4108 59.1736 17.4451 59.0533L18.3255 55.9605C18.3597 55.8403 18.4968 55.7734 18.6315 55.8113Z" fill="#42A0F0"/>
<path fill-rule="evenodd" clip-rule="evenodd" d="M18.8681 56.137C18.8363 56.2579 18.7008 56.327 18.5654 56.2913L15.0318 55.3595C14.8964 55.3238 14.8124 55.1968 14.8442 55.0758C14.8761 54.9549 15.0116 54.8858 15.147 54.9215L18.6806 55.8533C18.816 55.889 18.9 56.016 18.8681 56.137Z" fill="#42A0F0"/>
<path fill-rule="evenodd" clip-rule="evenodd" d="M28.5816 57.6056C28.5096 57.7169 28.3556 57.758 28.2377 57.6972L15.6364 51.2008C15.5185 51.1401 15.4813 51.0005 15.5533 50.8891C15.6253 50.7777 15.7793 50.7367 15.8972 50.7974L28.4985 57.2938C28.6164 57.3546 28.6536 57.4942 28.5816 57.6056Z" fill="#42A0F0"/>
<path fill-rule="evenodd" clip-rule="evenodd" d="M26.2984 59.1955C26.1636 59.2333 26.0266 59.1665 25.9924 59.0462L25.112 55.9535C25.0777 55.8332 25.1592 55.705 25.294 55.6671C25.4288 55.6293 25.5658 55.6961 25.6001 55.8164L26.4805 58.9091C26.5147 59.0294 26.4332 59.1576 26.2984 59.1955Z" fill="#42A0F0"/>
<path fill-rule="evenodd" clip-rule="evenodd" d="M29.0817 54.9316C29.1135 55.0526 29.0295 55.1796 28.8941 55.2153L25.3605 56.1471C25.2251 56.1828 25.0896 56.1137 25.0578 55.9928C25.0259 55.8718 25.1099 55.7448 25.2453 55.7091L28.7789 54.7773C28.9143 54.7416 29.0498 54.8107 29.0817 54.9316Z" fill="#42A0F0"/>
<path fill-rule="evenodd" clip-rule="evenodd" d="M18.8277 52.3163C18.8573 52.4379 18.7712 52.5637 18.6354 52.5975L15.1421 53.4658C15.0063 53.4996 14.8721 53.4285 14.8424 53.307C14.8128 53.1855 14.8989 53.0596 15.0347 53.0258L18.5279 52.1575C18.6638 52.1237 18.798 52.1948 18.8277 52.3163Z" fill="#42A0F0"/>
<path fill-rule="evenodd" clip-rule="evenodd" d="M18.5855 52.6391C18.4502 52.675 18.3145 52.6062 18.2824 52.4853L17.4446 49.33C17.4125 49.2091 17.4962 49.082 17.6315 49.0461C17.7668 49.0101 17.9025 49.079 17.9346 49.1998L18.7724 52.3551C18.8045 52.476 18.7209 52.6031 18.5855 52.6391Z" fill="#42A0F0"/>
</g>
<g filter="url(#filter6_f_19_1083)">
<path d="M20.2307 29.2545C27.9224 29.2545 34.1577 23.6868 34.1577 16.8188C34.1577 9.95072 27.9224 4.38306 20.2307 4.38306C12.539 4.38306 6.30371 9.95072 6.30371 16.8188C6.30371 23.6868 12.539 29.2545 20.2307 29.2545Z" fill="#FA9E42"/>
</g>
<g filter="url(#filter7_f_19_1083)">
<path fill-rule="evenodd" clip-rule="evenodd" d="M20.1918 1.10648L20.2309 1.10645L20.2699 1.10648C20.491 1.10691 20.6699 1.28649 20.6695 1.50757C20.669 1.72865 20.4895 1.90753 20.2684 1.90709L20.2309 1.90706L20.1934 1.90709C19.9723 1.90753 19.7927 1.72865 19.7923 1.50757C19.7918 1.28649 19.9707 1.10691 20.1918 1.10648ZM24.8518 2.06469C24.9099 1.85136 25.1299 1.7255 25.3432 1.78357L25.418 1.80408C25.6311 1.86302 25.756 2.08353 25.6971 2.29661C25.6382 2.50969 25.4176 2.63466 25.2046 2.57572L25.133 2.55607C24.9196 2.49801 24.7938 2.27801 24.8518 2.06469ZM15.6099 2.06469C15.668 2.27801 15.5421 2.49801 15.3288 2.55607L15.2572 2.57572C15.0441 2.63466 14.8236 2.5097 14.7646 2.29661C14.7057 2.08353 14.8307 1.86302 15.0437 1.80408L15.1185 1.78357C15.3318 1.7255 15.5518 1.85136 15.6099 2.06469ZM10.8919 3.96922C11.0073 4.15781 10.9479 4.40423 10.7593 4.5196L10.6958 4.55866C10.5077 4.67486 10.2611 4.61658 10.1449 4.4285C10.0287 4.24042 10.0869 3.99375 10.275 3.87755L10.3415 3.83665C10.5301 3.72128 10.7765 3.78063 10.8919 3.96922ZM29.5698 3.96922C29.6852 3.78063 29.9316 3.72128 30.1202 3.83665L30.1867 3.87755C30.3748 3.99375 30.4331 4.24042 30.3169 4.4285C30.2007 4.61658 29.954 4.67486 29.7659 4.55866L29.7024 4.5196C29.5138 4.40423 29.4545 4.15781 29.5698 3.96922ZM6.9251 7.15132C7.09215 7.29614 7.11017 7.54896 6.96534 7.71601L6.91689 7.77217C6.77288 7.93991 6.52015 7.95915 6.35241 7.81514C6.18467 7.67113 6.16543 7.4184 6.30944 7.25065L6.36042 7.19156C6.50524 7.02452 6.75806 7.0065 6.9251 7.15132ZM33.5366 7.15132C33.7037 7.0065 33.9565 7.02452 34.1013 7.19156L34.1523 7.25065C34.2963 7.4184 34.2771 7.67113 34.1093 7.81514C33.9416 7.95915 33.6889 7.93991 33.5448 7.77217L33.4964 7.71601C33.3516 7.54896 33.3696 7.29614 33.5366 7.15132ZM4.17229 11.4213C4.37835 11.5014 4.48043 11.7334 4.40031 11.9394L4.37367 12.0085C4.29466 12.215 4.06322 12.3183 3.85674 12.2393C3.65026 12.1603 3.54692 11.9288 3.62594 11.7224L3.65412 11.6493C3.73425 11.4432 3.96624 11.3411 4.17229 11.4213ZM36.2894 11.4213C36.4955 11.3411 36.7275 11.4432 36.8076 11.6493L36.8358 11.7224C36.9148 11.9288 36.8115 12.1603 36.605 12.2393C36.3985 12.3183 36.1671 12.215 36.0881 12.0085L36.0614 11.9394C35.9813 11.7334 36.0834 11.5014 36.2894 11.4213ZM3.08383 16.3802C3.30491 16.3808 3.48364 16.5605 3.48304 16.7816L3.48298 16.8188L3.48304 16.856C3.48364 17.077 3.30491 17.2568 3.08383 17.2574C2.86275 17.258 2.68303 17.0792 2.68243 16.8582L2.68237 16.8188L2.68243 16.7794C2.68303 16.5583 2.86275 16.3796 3.08383 16.3802ZM37.3779 16.3802C37.599 16.3796 37.7787 16.5583 37.7793 16.7794L37.7794 16.8188L37.7793 16.8582C37.7787 17.0792 37.599 17.258 37.3779 17.2574C37.1568 17.2568 36.9781 17.077 36.9787 16.856L36.9788 16.8188L36.9787 16.7816C36.9781 16.5605 37.1568 16.3808 37.3779 16.3802ZM3.85674 21.3983C4.06322 21.3192 4.29466 21.4226 4.37367 21.6291L4.40031 21.6981C4.48043 21.9042 4.37835 22.1361 4.17229 22.2163C3.96624 22.2964 3.73425 22.1943 3.65412 21.9883L3.62594 21.9152C3.54692 21.7087 3.65026 21.4773 3.85674 21.3983ZM36.605 21.3983C36.8115 21.4773 36.9148 21.7087 36.8358 21.9152L36.8076 21.9883C36.7275 22.1943 36.4955 22.2964 36.2894 22.2163C36.0834 22.1361 35.9813 21.9042 36.0614 21.6981L36.0881 21.6291C36.1671 21.4226 36.3985 21.3192 36.605 21.3983ZM6.35241 25.8224C6.52015 25.6784 6.77288 25.6976 6.91689 25.8654L6.96534 25.9215C7.11017 26.0886 7.09215 26.3414 6.9251 26.4862C6.75806 26.631 6.50524 26.613 6.36042 26.446L6.30944 26.3869C6.16543 26.2191 6.18467 25.9664 6.35241 25.8224ZM34.1093 25.8224C34.2771 25.9664 34.2963 26.2191 34.1523 26.3869L34.1013 26.446C33.9565 26.613 33.7037 26.631 33.5366 26.4862C33.3696 26.3414 33.3516 26.0886 33.4964 25.9215L33.5448 25.8654C33.6889 25.6976 33.9416 25.6784 34.1093 25.8224ZM10.1449 29.209C10.2611 29.021 10.5077 28.9627 10.6958 29.0789L10.7593 29.1179C10.9479 29.2333 11.0073 29.4797 10.8919 29.6683C10.7765 29.8569 10.5301 29.9163 10.3415 29.8009L10.275 29.76C10.0869 29.6438 10.0287 29.3971 10.1449 29.209ZM30.3169 29.209C30.4331 29.3971 30.3748 29.6438 30.1867 29.76L30.1202 29.8009C29.9316 29.9163 29.6852 29.8569 29.5698 29.6683C29.4545 29.4797 29.5138 29.2333 29.7024 29.1179L29.7659 29.0789C29.954 28.9627 30.2007 29.021 30.3169 29.209ZM14.7646 31.3409C14.8236 31.1278 15.0441 31.0029 15.2572 31.0618L15.3288 31.0815C15.5421 31.1395 15.668 31.3595 15.6099 31.5729C15.5518 31.7862 15.3318 31.912 15.1185 31.854L15.0437 31.8335C14.8307 31.7745 14.7057 31.554 14.7646 31.3409ZM25.6971 31.3409C25.756 31.554 25.6311 31.7745 25.418 31.8335L25.3432 31.854C25.1299 31.912 24.9099 31.7862 24.8518 31.5729C24.7938 31.3595 24.9196 31.1395 25.133 31.0815L25.2046 31.0618C25.4176 31.0029 25.6382 31.1278 25.6971 31.3409ZM19.7923 32.13C19.7927 31.9089 19.9723 31.73 20.1934 31.7304L20.2309 31.7305L20.2684 31.7304C20.4895 31.73 20.669 31.9089 20.6695 32.13C20.6699 32.3511 20.491 32.5306 20.2699 32.5311L20.2309 32.5311L20.1918 32.5311C19.9707 32.5306 19.7918 32.3511 19.7923 32.13Z" fill="#FA9E42"/>
</g>
<g filter="url(#filter8_f_19_1083)">
<path d="M18.651 14.3357C23.5288 12.0223 26.288 8.13806 24.8139 5.65995C23.3399 3.18183 18.1907 3.04829 13.3129 5.36167C8.43516 7.67505 5.67593 11.5593 7.15 14.0374C8.62407 16.5155 13.7733 16.6491 18.651 14.3357Z" fill="#F8E36F"/>
</g>
<g filter="url(#filter9_df_19_1083)">
<g filter="url(#filter10_d_19_1083)">
<path d="M42.9366 42.7503C42.5703 42.7766 42.2004 42.7898 41.8268 42.79H15.7684C13.9747 42.796 12.1973 42.4857 10.5383 41.8769C8.87918 41.2681 7.37104 40.3729 6.10033 39.2424C4.82963 38.112 3.82138 36.7687 3.13341 35.2896C2.44545 33.8104 2.09131 32.2245 2.09131 30.6229C2.09131 29.0213 2.44545 27.4354 3.13341 25.9562C3.82138 24.4771 4.82963 23.1338 6.10033 22.0034C7.37104 20.8729 8.87918 19.9777 10.5383 19.3689C12.1973 18.7601 13.9747 18.4498 15.7684 18.4558H25.4843C28.6343 12.2675 35.889 7.93616 44.3348 7.93616C55.671 7.93616 64.8609 15.7385 64.8609 25.3631C64.8609 34.9877 55.671 42.79 44.3348 42.79C43.8649 42.79 43.3988 42.7768 42.9366 42.7503Z" fill="url(#paint0_linear_19_1083)"/>
<path d="M44.3349 42.6208C45.7155 42.6208 47.0951 42.5028 48.4355 42.2699C49.7416 42.043 51.0263 41.7044 52.254 41.2636C53.4592 40.8308 54.6216 40.2951 55.7089 39.6714C56.7858 39.0537 57.7984 38.3444 58.7186 37.5632C59.6386 36.782 60.4739 35.9226 61.2011 35.0086C61.9352 34.0861 62.5657 33.1 63.075 32.0776C63.5936 31.0365 63.992 29.9471 64.2589 28.8396C64.5328 27.7032 64.6717 26.5335 64.6717 25.363C64.6717 24.1926 64.5328 23.0229 64.2589 21.8865C63.992 20.779 63.5936 19.6896 63.075 18.6485C62.5657 17.6261 61.9352 16.64 61.2011 15.7175C60.4739 14.8036 59.6386 13.9441 58.7186 13.163C57.7984 12.3818 56.7858 11.6724 55.7089 11.0548C54.6216 10.4311 53.4592 9.89543 52.254 9.46264C51.0263 9.02179 49.7416 8.68321 48.4355 8.45629C47.0951 8.22343 45.7155 8.10535 44.3349 8.10535C40.2855 8.10535 36.3748 9.11245 33.0254 11.0178C31.411 11.9362 29.9602 13.0448 28.7134 14.3127C27.4587 15.5886 26.4304 17.0061 25.6569 18.5257L25.6064 18.6249H25.4844H15.7685C13.9545 18.6249 12.1949 18.9421 10.5384 19.5677C9.7423 19.8684 8.9744 20.2406 8.25609 20.6739C7.54455 21.1031 6.87545 21.5961 6.26736 22.139C5.65927 22.682 5.1072 23.2795 4.62649 23.9148C4.14121 24.5562 3.72441 25.2419 3.38767 25.9528C2.68706 27.4319 2.33182 29.0031 2.33182 30.6229C2.33182 32.2427 2.68706 33.8139 3.38767 35.293C3.72441 36.0039 4.14121 36.6895 4.62649 37.3309C5.1072 37.9663 5.65927 38.5637 6.26736 39.1067C6.87545 39.6497 7.54455 40.1426 8.25609 40.5719C8.9744 41.0052 9.7423 41.3774 10.5384 41.6781C12.1949 42.3036 13.9545 42.6208 15.7685 42.6208H41.8271C42.1914 42.6208 42.5597 42.6076 42.9217 42.5816L42.9353 42.5806L42.949 42.5814C43.4074 42.6076 43.8737 42.6208 44.3349 42.6208ZM44.3349 42.79C43.8651 42.79 43.3988 42.7766 42.9369 42.7503C42.5711 42.7766 42.2005 42.79 41.8271 42.79H15.7685C8.24303 42.79 2.14233 37.3426 2.14233 30.6229C2.14233 23.9032 8.24303 18.4557 15.7685 18.4557H25.4844C28.6345 12.2667 35.8888 7.93616 44.3349 7.93616C55.6712 7.93616 64.8612 15.7385 64.8612 25.363C64.8612 34.9877 55.6712 42.79 44.3349 42.79Z" fill="white" fill-opacity="0.5"/>
</g>
</g>
<defs>
<filter id="filter0_f_19_1083" x="23.5926" y="28.0891" width="1.9931" height="1.89727" filterUnits="userSpaceOnUse" color-interpolation-filters="sRGB">
<feFlood flood-opacity="0" result="BackgroundImageFix"/>
<feBlend mode="normal" in="SourceGraphic" in2="BackgroundImageFix" result="shape"/>
<feGaussianBlur stdDeviation="0.0800612" result="effect1_foregroundBlur_19_1083"/>
</filter>
<filter id="filter1_f_19_1083" x="46.1436" y="31.4036" width="3.11981" height="2.96661" filterUnits="userSpaceOnUse" color-interpolation-filters="sRGB">
<feFlood flood-opacity="0" result="BackgroundImageFix"/>
<feBlend mode="normal" in="SourceGraphic" in2="BackgroundImageFix" result="shape"/>
<feGaussianBlur stdDeviation="0.0800612" result="effect1_foregroundBlur_19_1083"/>
</filter>
<filter id="filter2_f_19_1083" x="63.1924" y="35.3888" width="2.63421" height="2.50726" filterUnits="userSpaceOnUse" color-interpolation-filters="sRGB">
<feFlood flood-opacity="0" result="BackgroundImageFix"/>
<feBlend mode="normal" in="SourceGraphic" in2="BackgroundImageFix" result="shape"/>
<feGaussianBlur stdDeviation="0.0800612" result="effect1_foregroundBlur_19_1083"/>
</filter>
<filter id="filter3_f_19_1083" x="5.29911" y="44.3203" width="2.36858" height="2.25616" filterUnits="userSpaceOnUse" color-interpolation-filters="sRGB">
<feFlood flood-opacity="0" result="BackgroundImageFix"/>
<feBlend mode="normal" in="SourceGraphic" in2="BackgroundImageFix" result="shape"/>
<feGaussianBlur stdDeviation="0.0800612" result="effect1_foregroundBlur_19_1083"/>
</filter>
<filter id="filter4_f_19_1083" x="34.9724" y="51.416" width="2.00115" height="1.90557" filterUnits="userSpaceOnUse" color-interpolation-filters="sRGB">
<feFlood flood-opacity="0" result="BackgroundImageFix"/>
<feBlend mode="normal" in="SourceGraphic" in2="BackgroundImageFix" result="shape"/>
<feGaussianBlur stdDeviation="0.0800612" result="effect1_foregroundBlur_19_1083"/>
</filter>
<filter id="filter5_f_19_1083" x="14.5164" y="32.2476" width="44.4515" height="29.0025" filterUnits="userSpaceOnUse" color-interpolation-filters="sRGB">
<feFlood flood-opacity="0" result="BackgroundImageFix"/>
<feBlend mode="normal" in="SourceGraphic" in2="BackgroundImageFix" result="shape"/>
<feGaussianBlur stdDeviation="0.160122" result="effect1_foregroundBlur_19_1083"/>
</filter>
<filter id="filter6_f_19_1083" x="5.98347" y="4.06281" width="28.4945" height="25.5119" filterUnits="userSpaceOnUse" color-interpolation-filters="sRGB">
<feFlood flood-opacity="0" result="BackgroundImageFix"/>
<feBlend mode="normal" in="SourceGraphic" in2="BackgroundImageFix" result="shape"/>
<feGaussianBlur stdDeviation="0.160122" result="effect1_foregroundBlur_19_1083"/>
</filter>
<filter id="filter7_f_19_1083" x="2.52225" y="0.946323" width="35.4172" height="31.7449" filterUnits="userSpaceOnUse" color-interpolation-filters="sRGB">
<feFlood flood-opacity="0" result="BackgroundImageFix"/>
<feBlend mode="normal" in="SourceGraphic" in2="BackgroundImageFix" result="shape"/>
<feGaussianBlur stdDeviation="0.0800612" result="effect1_foregroundBlur_19_1083"/>
</filter>
<filter id="filter8_f_19_1083" x="5.15195" y="2.1091" width="21.6602" height="15.4792" filterUnits="userSpaceOnUse" color-interpolation-filters="sRGB">
<feFlood flood-opacity="0" result="BackgroundImageFix"/>
<feBlend mode="normal" in="SourceGraphic" in2="BackgroundImageFix" result="shape"/>
<feGaussianBlur stdDeviation="0.800612" result="effect1_foregroundBlur_19_1083"/>
</filter>
<filter id="filter9_df_19_1083" x="0.490085" y="5.69444" width="67.5734" height="39.6577" filterUnits="userSpaceOnUse" color-interpolation-filters="sRGB">
<feFlood flood-opacity="0" result="BackgroundImageFix"/>
<feColorMatrix in="SourceAlpha" type="matrix" values="0 0 0 0 0 0 0 0 0 0 0 0 0 0 0 0 0 0 127 0" result="hardAlpha"/>
<feOffset dx="0.800612" dy="0.160122"/>
<feGaussianBlur stdDeviation="1.20092"/>
<feColorMatrix type="matrix" values="0 0 0 0 0.258824 0 0 0 0 0.627451 0 0 0 0 0.941176 0 0 0 0.596 0"/>
<feBlend mode="normal" in2="BackgroundImageFix" result="effect1_dropShadow_19_1083"/>
<feBlend mode="normal" in="SourceGraphic" in2="effect1_dropShadow_19_1083" result="shape"/>
<feGaussianBlur stdDeviation="0.160122" result="effect2_foregroundBlur_19_1083"/>
</filter>
<filter id="filter10_d_19_1083" x="0.490085" y="5.69444" width="67.5734" height="39.6577" filterUnits="userSpaceOnUse" color-interpolation-filters="sRGB">
<feFlood flood-opacity="0" result="BackgroundImageFix"/>
<feColorMatrix in="SourceAlpha" type="matrix" values="0 0 0 0 0 0 0 0 0 0 0 0 0 0 0 0 0 0 127 0" result="hardAlpha"/>
<feOffset dx="0.800612" dy="0.160122"/>
<feGaussianBlur stdDeviation="1.20092"/>
<feColorMatrix type="matrix" values="0 0 0 0 0.501961 0 0 0 0 0.501961 0 0 0 0 0.501961 0 0 0 0.302 0"/>
<feBlend mode="normal" in2="BackgroundImageFix" result="effect1_dropShadow_19_1083"/>
<feBlend mode="normal" in="SourceGraphic" in2="effect1_dropShadow_19_1083" result="shape"/>
</filter>
<linearGradient id="paint0_linear_19_1083" x1="27.513" y1="12.3278" x2="37.7107" y2="45.3938" gradientUnits="userSpaceOnUse">
<stop stop-color="white" stop-opacity="0.596"/>
<stop offset="1" stop-color="#F7F7F7" stop-opacity="0.204"/>
</linearGradient>
</defs>
</svg>
