<svg width="71" height="50" viewBox="0 0 71 50" fill="none" xmlns="http://www.w3.org/2000/svg">
<g filter="url(#filter0_f_19_42)">
<path d="M24.5056 33.5413C24.6046 33.6221 22.4825 37.6508 21.2588 38.9068C20.0351 40.1627 18.5384 40.7886 17.9154 40.3053C17.2924 39.8221 17.7786 38.4127 19.0024 37.1566C20.2262 35.9006 24.4067 33.4605 24.5056 33.5413Z" fill="#42A0F0"/>
<path d="M19.208 37.9863C19.3287 38.1596 19.7526 38.1177 20.1547 37.8926C20.5568 37.6675 20.7848 37.3446 20.664 37.1712C20.5432 36.9979 20.1194 37.0399 19.7173 37.265C19.3152 37.49 19.0872 37.813 19.208 37.9863Z" fill="white"/>
<path d="M37.3901 33.5413C37.4891 33.6221 35.367 37.6508 34.1433 38.9068C32.9196 40.1627 31.423 40.7886 30.7999 40.3053C30.1769 39.8221 30.6631 38.4127 31.887 37.1566C33.1108 35.9006 37.2912 33.4605 37.3901 33.5413Z" fill="#42A0F0"/>
<path d="M32.0925 37.9863C32.2133 38.1596 32.6371 38.1177 33.0392 37.8926C33.4413 37.6675 33.6693 37.3446 33.5485 37.1712C33.4278 36.9979 33.0039 37.0399 32.6018 37.265C32.1997 37.49 31.9717 37.813 32.0925 37.9863Z" fill="white"/>
<path d="M38.9063 42.0008C39.0052 42.0816 36.8831 46.1103 35.6594 47.3663C34.4358 48.6222 32.9391 49.2481 32.316 48.7648C31.693 48.2816 32.1793 46.8722 33.4031 45.6161C34.6269 44.36 38.8073 41.92 38.9063 42.0008Z" fill="#42A0F0"/>
<path d="M33.6083 46.4458C33.7291 46.6191 34.153 46.5771 34.5551 46.3521C34.9572 46.127 35.1852 45.804 35.0644 45.6307C34.9436 45.4574 34.5198 45.4994 34.1177 45.7244C33.7156 45.9495 33.4876 46.2725 33.6083 46.4458Z" fill="white"/>
<path d="M24.5056 42.0008C24.6046 42.0816 22.4825 46.1103 21.2588 47.3663C20.0351 48.6222 18.5384 49.2481 17.9154 48.7648C17.2924 48.2816 17.7786 46.8722 19.0024 45.6161C20.2262 44.36 24.4067 41.92 24.5056 42.0008Z" fill="#42A0F0"/>
<path d="M19.208 46.4458C19.3287 46.6191 19.7526 46.5771 20.1547 46.3521C20.5568 46.127 20.7848 45.804 20.664 45.6307C20.5432 45.4574 20.1194 45.4994 19.7173 45.7244C19.3152 45.9495 19.0872 46.2725 19.208 46.4458Z" fill="white"/>
</g>
<g filter="url(#filter1_f_19_42)">
<path d="M50.5047 34.3513H56.4747L53.0426 38.8519L57.0555 38.9195L48.6328 47.821L50.6737 41.0345H46.9375L50.5047 34.3513Z" fill="url(#paint0_linear_19_42)"/>
</g>
<g filter="url(#filter2_f_19_42)">
<path d="M17.3365 29.7388C14.4521 29.7422 11.6335 28.9696 9.24824 27.5215C7.0824 26.2107 5.35198 24.4032 4.23885 22.2889C3.12571 20.1746 2.67096 17.8316 2.92239 15.5061C3.17383 13.1806 4.12215 10.9586 5.66771 9.07347C7.21326 7.18836 9.29898 5.70981 11.7056 4.79321C13.4861 4.11678 15.4016 3.76971 17.3365 3.77297C17.9013 3.77299 18.4657 3.80225 19.0267 3.86061C18.6996 4.49925 18.4493 5.16707 18.2801 5.85287C18.1062 6.56069 18.0186 7.28323 18.0188 8.00789C18.0152 9.99644 18.6801 11.9402 19.9275 13.5876C20.7316 14.6501 21.7564 15.5651 22.9463 16.2831C23.5444 16.6438 24.1802 16.952 24.8448 17.2032C26.221 17.7233 27.7007 17.99 29.1951 17.9874C30.0597 17.9877 30.9214 17.8989 31.7631 17.7226C31.5646 20.1648 30.5952 22.5068 28.9673 24.4772C28.4407 25.1147 27.8502 25.7081 27.2032 26.2502C24.533 28.4941 21.0033 29.7421 17.3365 29.7388Z" fill="#713FFD"/>
</g>
<g filter="url(#filter3_f_19_42)">
<path d="M14.791 14.9704C18.0383 12.3596 19.0492 8.63493 17.0488 6.65119C15.0484 4.66745 10.7943 5.17579 7.54703 7.78661C4.29971 10.3974 3.28885 14.1221 5.28921 16.1058C7.28957 18.0895 11.5437 17.5812 14.791 14.9704Z" fill="#A586FC"/>
</g>
<g filter="url(#filter4_f_19_42)">
<path d="M10.231 0.418457L10.717 1.46746L12.0311 1.8566L10.717 2.24575L10.231 3.29475L9.74497 2.24575L8.43091 1.8566L9.74497 1.46746L10.231 0.418457Z" fill="url(#paint1_linear_19_42)"/>
<path d="M31.9263 25.2898L32.3355 26.1544L33.4421 26.4741L32.3355 26.7939L31.9263 27.6585L31.517 26.7939L30.4104 26.4741L31.517 26.1544L31.9263 25.2898Z" fill="url(#paint2_linear_19_42)"/>
<path d="M25.4846 3.73547L26.1556 4.52085L27.352 4.58481L26.3519 5.17462L26.211 6.15439L25.54 5.36724L24.3436 5.30329L25.3437 4.71348L25.4846 3.73547Z" fill="url(#paint3_linear_19_42)"/>
<path d="M1.55188 23.3612L2.2759 23.9695L3.40206 23.8689L2.53876 24.5224L2.52569 25.4094L1.80374 24.8006L0.677579 24.9013L1.54102 24.2481L1.55188 23.3612Z" fill="url(#paint4_linear_19_42)"/>
<path d="M24.8524 12.4377L24.0568 12.5817L23.586 13.3181L23.5243 12.4719L22.8799 12.0311L23.676 11.8875L24.1467 11.151L24.2079 11.9971L24.8524 12.4377Z" fill="url(#paint5_linear_19_42)"/>
</g>
<g filter="url(#filter5_df_19_42)">
<g filter="url(#filter6_d_19_42)">
<path d="M45.2459 38.1088C44.8796 38.1351 44.5097 38.1483 44.1361 38.1486H18.0777C16.284 38.1545 14.5067 37.8442 12.8476 37.2354C11.1885 36.6267 9.68036 35.7314 8.40966 34.601C7.13896 33.4706 6.13071 32.1272 5.44274 30.6481C4.75477 29.1689 4.40063 27.5831 4.40063 25.9814C4.40063 24.3798 4.75477 22.7939 5.44274 21.3148C6.13071 19.8356 7.13896 18.4923 8.40966 17.3619C9.68036 16.2315 11.1885 15.3362 12.8476 14.7274C14.5067 14.1186 16.284 13.8083 18.0777 13.8143H27.7936C30.9436 7.62603 38.1983 3.29468 46.6441 3.29468C57.9803 3.29468 67.1702 11.097 67.1702 20.7216C67.1702 30.3462 57.9803 38.1486 46.6441 38.1486C46.1742 38.1486 45.7082 38.1353 45.2459 38.1088Z" fill="url(#paint6_linear_19_42)"/>
<path d="M46.6448 37.9794C48.0253 37.9794 49.4049 37.8613 50.7453 37.6284C52.0514 37.4015 53.3362 37.0629 54.5638 36.6221C55.769 36.1893 56.9314 35.6536 58.0187 35.0299C59.0956 34.4123 60.1082 33.7029 61.0284 32.9217C61.9485 32.1406 62.7837 31.2811 63.511 30.3671C64.245 29.4446 64.8755 28.4585 65.3848 27.4361C65.9035 26.3951 66.3018 25.3056 66.5687 24.1981C66.8426 23.0617 66.9815 21.892 66.9815 20.7215C66.9815 19.5511 66.8426 18.3814 66.5687 17.2451C66.3018 16.1375 65.9035 15.0481 65.3848 14.007C64.8755 12.9847 64.245 11.9986 63.511 11.0761C62.7837 10.1621 61.9485 9.30266 61.0284 8.52154C60.1082 7.74027 59.0956 7.03096 58.0187 6.4133C56.9314 5.78963 55.769 5.25395 54.5638 4.82116C53.3362 4.38032 52.0514 4.04173 50.7453 3.81481C49.4049 3.58195 48.0253 3.46387 46.6448 3.46387C42.5954 3.46387 38.6846 4.47097 35.3353 6.37628C33.7208 7.29471 32.27 8.40329 31.0232 9.67122C29.7685 10.9472 28.7402 12.3646 27.9667 13.8842L27.9162 13.9834H27.7942H18.0784C16.2643 13.9834 14.5047 14.3006 12.8482 14.9262C12.0521 15.2269 11.2842 15.5991 10.5659 16.0324C9.85436 16.4616 9.18526 16.9546 8.57717 17.4976C7.96908 18.0405 7.41702 18.638 6.93631 19.2734C6.45103 19.9148 6.03423 20.6004 5.69748 21.3113C4.99687 22.7904 4.64163 24.3616 4.64163 25.9814C4.64163 27.6012 4.99687 29.1724 5.69748 30.6515C6.03423 31.3624 6.45103 32.048 6.93631 32.6894C7.41702 33.3248 7.96908 33.9223 8.57717 34.4652C9.18526 35.0082 9.85436 35.5012 10.5659 35.9304C11.2842 36.3637 12.0521 36.7359 12.8482 37.0366C14.5047 37.6622 16.2643 37.9794 18.0784 37.9794H44.1369C44.5012 37.9794 44.8695 37.9662 45.2315 37.9401L45.2452 37.9391L45.2588 37.9399C45.7173 37.9661 46.1835 37.9794 46.6448 37.9794ZM46.6448 38.1486C46.175 38.1486 45.7087 38.1351 45.2467 38.1088C44.8809 38.1351 44.5103 38.1486 44.1369 38.1486H18.0784C10.5528 38.1486 4.45215 32.7011 4.45215 25.9814C4.45215 19.2617 10.5528 13.8142 18.0784 13.8142H27.7942C30.9443 7.62526 38.1986 3.29468 46.6448 3.29468C57.981 3.29468 67.171 11.0971 67.171 20.7215C67.171 30.3462 57.981 38.1486 46.6448 38.1486Z" fill="white" fill-opacity="0.5"/>
</g>
</g>
<defs>
<filter id="filter0_f_19_42" x="17.3238" y="33.2191" width="21.9061" height="16.0292" filterUnits="userSpaceOnUse" color-interpolation-filters="sRGB">
<feFlood flood-opacity="0" result="BackgroundImageFix"/>
<feBlend mode="normal" in="SourceGraphic" in2="BackgroundImageFix" result="shape"/>
<feGaussianBlur stdDeviation="0.160122" result="effect1_foregroundBlur_19_42"/>
</filter>
<filter id="filter1_f_19_42" x="46.6173" y="34.0311" width="10.7584" height="14.1102" filterUnits="userSpaceOnUse" color-interpolation-filters="sRGB">
<feFlood flood-opacity="0" result="BackgroundImageFix"/>
<feBlend mode="normal" in="SourceGraphic" in2="BackgroundImageFix" result="shape"/>
<feGaussianBlur stdDeviation="0.160122" result="effect1_foregroundBlur_19_42"/>
</filter>
<filter id="filter2_f_19_42" x="2.53474" y="3.4527" width="29.5487" height="26.6063" filterUnits="userSpaceOnUse" color-interpolation-filters="sRGB">
<feFlood flood-opacity="0" result="BackgroundImageFix"/>
<feBlend mode="normal" in="SourceGraphic" in2="BackgroundImageFix" result="shape"/>
<feGaussianBlur stdDeviation="0.160122" result="effect1_foregroundBlur_19_42"/>
</filter>
<filter id="filter3_f_19_42" x="2.66098" y="3.83994" width="17.0162" height="15.0772" filterUnits="userSpaceOnUse" color-interpolation-filters="sRGB">
<feFlood flood-opacity="0" result="BackgroundImageFix"/>
<feBlend mode="normal" in="SourceGraphic" in2="BackgroundImageFix" result="shape"/>
<feGaussianBlur stdDeviation="0.800612" result="effect1_foregroundBlur_19_42"/>
</filter>
<filter id="filter4_f_19_42" x="0.517368" y="0.258335" width="33.0849" height="27.5602" filterUnits="userSpaceOnUse" color-interpolation-filters="sRGB">
<feFlood flood-opacity="0" result="BackgroundImageFix"/>
<feBlend mode="normal" in="SourceGraphic" in2="BackgroundImageFix" result="shape"/>
<feGaussianBlur stdDeviation="0.0800612" result="effect1_foregroundBlur_19_42"/>
</filter>
<filter id="filter5_df_19_42" x="2.79941" y="1.05297" width="67.5739" height="39.6577" filterUnits="userSpaceOnUse" color-interpolation-filters="sRGB">
<feFlood flood-opacity="0" result="BackgroundImageFix"/>
<feColorMatrix in="SourceAlpha" type="matrix" values="0 0 0 0 0 0 0 0 0 0 0 0 0 0 0 0 0 0 127 0" result="hardAlpha"/>
<feOffset dx="0.800612" dy="0.160122"/>
<feGaussianBlur stdDeviation="1.20092"/>
<feColorMatrix type="matrix" values="0 0 0 0 0.258824 0 0 0 0 0.627451 0 0 0 0 0.941176 0 0 0 0.596 0"/>
<feBlend mode="normal" in2="BackgroundImageFix" result="effect1_dropShadow_19_42"/>
<feBlend mode="normal" in="SourceGraphic" in2="effect1_dropShadow_19_42" result="shape"/>
<feGaussianBlur stdDeviation="0.160122" result="effect2_foregroundBlur_19_42"/>
</filter>
<filter id="filter6_d_19_42" x="2.79941" y="1.05297" width="67.5739" height="39.6577" filterUnits="userSpaceOnUse" color-interpolation-filters="sRGB">
<feFlood flood-opacity="0" result="BackgroundImageFix"/>
<feColorMatrix in="SourceAlpha" type="matrix" values="0 0 0 0 0 0 0 0 0 0 0 0 0 0 0 0 0 0 127 0" result="hardAlpha"/>
<feOffset dx="0.800612" dy="0.160122"/>
<feGaussianBlur stdDeviation="1.20092"/>
<feColorMatrix type="matrix" values="0 0 0 0 0.501961 0 0 0 0 0.501961 0 0 0 0 0.501961 0 0 0 0.302 0"/>
<feBlend mode="normal" in2="BackgroundImageFix" result="effect1_dropShadow_19_42"/>
<feBlend mode="normal" in="SourceGraphic" in2="effect1_dropShadow_19_42" result="shape"/>
</filter>
<linearGradient id="paint0_linear_19_42" x1="51.0656" y1="41.0862" x2="46.4776" y2="39.2025" gradientUnits="userSpaceOnUse">
<stop stop-color="#FFD100"/>
<stop offset="1" stop-color="#FFF0AA"/>
</linearGradient>
<linearGradient id="paint1_linear_19_42" x1="10.231" y1="0.418457" x2="10.231" y2="3.29475" gradientUnits="userSpaceOnUse">
<stop stop-color="#6B38FC"/>
<stop offset="1" stop-color="#9F7EFD"/>
</linearGradient>
<linearGradient id="paint2_linear_19_42" x1="31.9263" y1="25.2898" x2="31.9263" y2="27.6585" gradientUnits="userSpaceOnUse">
<stop stop-color="#6B38FC"/>
<stop offset="1" stop-color="#9F7EFD"/>
</linearGradient>
<linearGradient id="paint3_linear_19_42" x1="25.4849" y1="3.7354" x2="26.072" y2="6.18766" gradientUnits="userSpaceOnUse">
<stop stop-color="#6B38FC"/>
<stop offset="1" stop-color="#9F7EFD"/>
</linearGradient>
<linearGradient id="paint4_linear_19_42" x1="1.55284" y1="23.3608" x2="2.35407" y2="25.4744" gradientUnits="userSpaceOnUse">
<stop stop-color="#6B38FC"/>
<stop offset="1" stop-color="#9F7EFD"/>
</linearGradient>
<linearGradient id="paint5_linear_19_42" x1="24.8524" y1="12.4379" x2="22.9049" y2="11.9343" gradientUnits="userSpaceOnUse">
<stop stop-color="#6B38FC"/>
<stop offset="1" stop-color="#9F7EFD"/>
</linearGradient>
<linearGradient id="paint6_linear_19_42" x1="29.8223" y1="7.68628" x2="40.0201" y2="40.7524" gradientUnits="userSpaceOnUse">
<stop stop-color="white" stop-opacity="0.596"/>
<stop offset="1" stop-color="#F7F7F7" stop-opacity="0.204"/>
</linearGradient>
</defs>
</svg>
