<svg width="73" height="57" viewBox="0 0 73 57" fill="none" xmlns="http://www.w3.org/2000/svg">
<g filter="url(#filter0_f_19_926)">
<path d="M33.4983 35.9039H42.3144L37.2463 42.5495L43.1722 42.6497L30.7342 55.7947L33.7469 45.7727H28.2307L33.4983 35.9039Z" fill="url(#paint0_linear_19_926)"/>
<path d="M53.2418 32.3508H59.2118L55.7797 36.8514L59.7926 36.9191L51.3699 45.8205L53.4108 39.034H49.6746L53.2418 32.3508Z" fill="url(#paint1_linear_19_926)"/>
</g>
<g filter="url(#filter1_f_19_926)">
<path d="M17.7728 29.8796C14.8798 29.8831 12.0529 29.1081 9.66047 27.6557C7.48822 26.3411 5.75269 24.5282 4.63626 22.4076C3.51983 20.287 3.06373 17.9371 3.3159 15.6048C3.56807 13.2724 4.51919 11.0438 6.06931 9.15307C7.61942 7.26237 9.71129 5.77943 12.1251 4.8601C13.9108 4.18164 15.8321 3.83353 17.7728 3.83682C18.3393 3.83686 18.9052 3.86624 19.4679 3.9248C19.1398 4.56532 18.8888 5.23513 18.7191 5.92297C18.5448 6.63263 18.457 7.35705 18.4572 8.08357C18.4534 10.078 19.1201 12.0275 20.371 13.6798C21.1775 14.7455 22.2053 15.6632 23.3987 16.3834C23.9986 16.7451 24.6363 17.0542 25.3028 17.3061C26.6832 17.8278 28.1672 18.0953 29.6661 18.0927C30.5332 18.093 31.3975 18.004 32.2417 17.8273C32.0425 20.2767 31.0702 22.6255 29.4374 24.6018C28.9092 25.2412 28.317 25.8364 27.6682 26.38C24.9902 28.6306 21.4503 29.8825 17.7728 29.8796Z" fill="#713FFD"/>
</g>
<g filter="url(#filter2_f_19_926)">
<path d="M15.2201 15.0674C18.4771 12.4489 19.4909 8.71316 17.4846 6.72352C15.4783 4.73387 11.2116 5.24372 7.95463 7.86229C4.69766 10.4809 3.68381 14.2166 5.69012 16.2062C7.69644 18.1958 11.9632 17.686 15.2201 15.0674Z" fill="#A586FC"/>
</g>
<g filter="url(#filter3_f_19_926)">
<path d="M10.7219 0.47229L11.2066 1.54075L12.5172 1.93598L11.2066 2.33122L10.7219 3.39934L10.2372 2.33122L8.92651 1.93598L10.2372 1.54075L10.7219 0.47229Z" fill="url(#paint2_linear_19_926)"/>
<path d="M32.4228 25.4255L32.8233 26.2906L33.9061 26.6099L32.8233 26.9303L32.4228 27.7954L32.0224 26.9303L30.9397 26.6099L32.0224 26.2906L32.4228 25.4255Z" fill="url(#paint3_linear_19_926)"/>
<path d="M25.9448 3.79936L26.6178 4.58656L27.8169 4.64986L26.8141 5.24033L26.6727 6.22335L26 5.4361L24.8007 5.37232L25.8035 4.78185L25.9448 3.79936Z" fill="url(#paint4_linear_19_926)"/>
<path d="M1.94233 23.4829L2.66777 24.0929L3.79681 23.9923L2.93144 24.6475L2.91903 25.5372L2.19378 24.9272L1.06473 25.0278L1.93002 24.3724L1.94233 23.4829Z" fill="url(#paint5_linear_19_926)"/>
<path d="M25.3111 12.5271L24.5133 12.6718L24.0413 13.41L23.9798 12.5618L23.3338 12.1195L24.1315 11.975L24.6032 11.2367L24.665 12.085L25.3111 12.5271Z" fill="url(#paint6_linear_19_926)"/>
</g>
<g filter="url(#filter4_df_19_926)">
<g filter="url(#filter5_d_19_926)">
<path d="M47.4149 38.9848C47.0486 39.0111 46.6786 39.0243 46.3051 39.0245H20.2467C18.453 39.0305 16.6756 38.7202 15.0165 38.1114C13.3575 37.5026 11.8493 36.6074 10.5786 35.4769C9.3079 34.3465 8.29965 33.0032 7.61169 31.5241C6.92372 30.0449 6.56958 28.459 6.56958 26.8574C6.56958 25.2558 6.92372 23.6699 7.61169 22.1907C8.29965 20.7116 9.3079 19.3683 10.5786 18.2378C11.8493 17.1074 13.3575 16.2122 15.0165 15.6034C16.6756 14.9946 18.453 14.6843 20.2467 14.6903H29.9626C33.1125 8.50201 40.3673 4.17065 48.8131 4.17065C60.1493 4.17065 69.3392 11.973 69.3392 21.5976C69.3392 31.2222 60.1493 39.0245 48.8131 39.0245C48.3432 39.0245 47.8771 39.0113 47.4149 38.9848Z" fill="url(#paint7_linear_19_926)"/>
<path d="M48.8137 38.8553C50.1943 38.8553 51.5739 38.7373 52.9143 38.5044C54.2204 38.2775 55.5051 37.9389 56.7327 37.4981C57.938 37.0653 59.1004 36.5296 60.1877 35.9059C61.2645 35.2882 62.2771 34.5789 63.1974 33.7977C64.1174 33.0165 64.9526 32.1571 65.6799 31.2431C66.414 30.3206 67.0444 29.3345 67.5537 28.3121C68.0724 27.271 68.4707 26.1816 68.7377 25.0741C69.0116 23.9376 69.1504 22.768 69.1504 21.5975C69.1504 20.4271 69.0116 19.2574 68.7377 18.121C68.4707 17.0135 68.0724 15.9241 67.5537 14.883C67.0444 13.8606 66.414 12.8745 65.6799 11.952C64.9526 11.0381 64.1174 10.1786 63.1974 9.39752C62.2771 8.61625 61.2645 7.90693 60.1877 7.28927C59.1004 6.6656 57.938 6.12993 56.7327 5.69713C55.5051 5.25629 54.2204 4.91771 52.9143 4.69079C51.5739 4.45792 50.1943 4.33985 48.8137 4.33985C44.7643 4.33985 40.8535 5.34694 37.5042 7.25226C35.8897 8.17069 34.4389 9.27926 33.1921 10.5472C31.9375 11.8231 30.9091 13.2406 30.1357 14.7602L30.0852 14.8594H29.9632H20.2473C18.4333 14.8594 16.6736 15.1766 15.0172 15.8022C14.2211 16.1029 13.4532 16.4751 12.7348 16.9084C12.0233 17.3376 11.3542 17.8306 10.7461 18.3735C10.138 18.9165 9.58596 19.514 9.10525 20.1493C8.61997 20.7907 8.20317 21.4764 7.86643 22.1873C7.16582 23.6663 6.81058 25.2376 6.81058 26.8574C6.81058 28.4772 7.16582 30.0484 7.86643 31.5275C8.20317 32.2384 8.61997 32.924 9.10525 33.5654C9.58596 34.2008 10.138 34.7982 10.7461 35.3412C11.3542 35.8842 12.0233 36.3771 12.7348 36.8064C13.4532 37.2397 14.2211 37.6119 15.0172 37.9126C16.6736 38.5381 18.4333 38.8553 20.2473 38.8553H46.3058C46.6702 38.8553 47.0385 38.8421 47.4005 38.8161L47.4141 38.8151L47.4278 38.8159C47.8862 38.8421 48.3525 38.8553 48.8137 38.8553ZM48.8137 39.0245C48.3439 39.0245 47.8776 39.0111 47.4157 38.9847C47.0498 39.0111 46.6793 39.0245 46.3058 39.0245H20.2473C12.7218 39.0245 6.62109 33.5771 6.62109 26.8574C6.62109 20.1377 12.7218 14.6902 20.2473 14.6902H29.9632C33.1132 8.50123 40.3675 4.17065 48.8137 4.17065C60.15 4.17065 69.3399 11.973 69.3399 21.5975C69.3399 31.2222 60.15 39.0245 48.8137 39.0245Z" fill="white" fill-opacity="0.5"/>
</g>
</g>
<defs>
<filter id="filter0_f_19_926" x="27.9105" y="32.0306" width="32.2023" height="24.0843" filterUnits="userSpaceOnUse" color-interpolation-filters="sRGB">
<feFlood flood-opacity="0" result="BackgroundImageFix"/>
<feBlend mode="normal" in="SourceGraphic" in2="BackgroundImageFix" result="shape"/>
<feGaussianBlur stdDeviation="0.160122" result="effect1_foregroundBlur_19_926"/>
</filter>
<filter id="filter1_f_19_926" x="2.92805" y="3.51655" width="29.6339" height="26.6833" filterUnits="userSpaceOnUse" color-interpolation-filters="sRGB">
<feFlood flood-opacity="0" result="BackgroundImageFix"/>
<feBlend mode="normal" in="SourceGraphic" in2="BackgroundImageFix" result="shape"/>
<feGaussianBlur stdDeviation="0.160122" result="effect1_foregroundBlur_19_926"/>
</filter>
<filter id="filter2_f_19_926" x="3.05893" y="3.90854" width="17.0569" height="15.1126" filterUnits="userSpaceOnUse" color-interpolation-filters="sRGB">
<feFlood flood-opacity="0" result="BackgroundImageFix"/>
<feBlend mode="normal" in="SourceGraphic" in2="BackgroundImageFix" result="shape"/>
<feGaussianBlur stdDeviation="0.800612" result="effect1_foregroundBlur_19_926"/>
</filter>
<filter id="filter3_f_19_926" x="0.904575" y="0.312168" width="33.1616" height="27.6434" filterUnits="userSpaceOnUse" color-interpolation-filters="sRGB">
<feFlood flood-opacity="0" result="BackgroundImageFix"/>
<feBlend mode="normal" in="SourceGraphic" in2="BackgroundImageFix" result="shape"/>
<feGaussianBlur stdDeviation="0.0800612" result="effect1_foregroundBlur_19_926"/>
</filter>
<filter id="filter4_df_19_926" x="4.96836" y="1.92894" width="67.5739" height="39.6577" filterUnits="userSpaceOnUse" color-interpolation-filters="sRGB">
<feFlood flood-opacity="0" result="BackgroundImageFix"/>
<feColorMatrix in="SourceAlpha" type="matrix" values="0 0 0 0 0 0 0 0 0 0 0 0 0 0 0 0 0 0 127 0" result="hardAlpha"/>
<feOffset dx="0.800612" dy="0.160122"/>
<feGaussianBlur stdDeviation="1.20092"/>
<feColorMatrix type="matrix" values="0 0 0 0 0.258824 0 0 0 0 0.627451 0 0 0 0 0.941176 0 0 0 0.596 0"/>
<feBlend mode="normal" in2="BackgroundImageFix" result="effect1_dropShadow_19_926"/>
<feBlend mode="normal" in="SourceGraphic" in2="effect1_dropShadow_19_926" result="shape"/>
<feGaussianBlur stdDeviation="0.160122" result="effect2_foregroundBlur_19_926"/>
</filter>
<filter id="filter5_d_19_926" x="4.96836" y="1.92894" width="67.5739" height="39.6577" filterUnits="userSpaceOnUse" color-interpolation-filters="sRGB">
<feFlood flood-opacity="0" result="BackgroundImageFix"/>
<feColorMatrix in="SourceAlpha" type="matrix" values="0 0 0 0 0 0 0 0 0 0 0 0 0 0 0 0 0 0 127 0" result="hardAlpha"/>
<feOffset dx="0.800612" dy="0.160122"/>
<feGaussianBlur stdDeviation="1.20092"/>
<feColorMatrix type="matrix" values="0 0 0 0 0.501961 0 0 0 0 0.501961 0 0 0 0 0.501961 0 0 0 0.302 0"/>
<feBlend mode="normal" in2="BackgroundImageFix" result="effect1_dropShadow_19_926"/>
<feBlend mode="normal" in="SourceGraphic" in2="effect1_dropShadow_19_926" result="shape"/>
</filter>
<linearGradient id="paint0_linear_19_926" x1="34.3268" y1="45.8493" x2="27.5517" y2="43.0676" gradientUnits="userSpaceOnUse">
<stop stop-color="#FFD100"/>
<stop offset="1" stop-color="#FFF0AA"/>
</linearGradient>
<linearGradient id="paint1_linear_19_926" x1="53.8027" y1="39.0857" x2="49.2147" y2="37.202" gradientUnits="userSpaceOnUse">
<stop stop-color="#FFD100"/>
<stop offset="1" stop-color="#FFF0AA"/>
</linearGradient>
<linearGradient id="paint2_linear_19_926" x1="10.7219" y1="0.47229" x2="10.7219" y2="3.39934" gradientUnits="userSpaceOnUse">
<stop stop-color="#6B38FC"/>
<stop offset="1" stop-color="#9F7EFD"/>
</linearGradient>
<linearGradient id="paint3_linear_19_926" x1="32.4229" y1="25.4255" x2="32.4229" y2="27.7954" gradientUnits="userSpaceOnUse">
<stop stop-color="#6B38FC"/>
<stop offset="1" stop-color="#9F7EFD"/>
</linearGradient>
<linearGradient id="paint4_linear_19_926" x1="25.9449" y1="3.79934" x2="26.5332" y2="6.25673" gradientUnits="userSpaceOnUse">
<stop stop-color="#6B38FC"/>
<stop offset="1" stop-color="#9F7EFD"/>
</linearGradient>
<linearGradient id="paint5_linear_19_926" x1="1.94242" y1="23.4829" x2="2.74603" y2="25.6028" gradientUnits="userSpaceOnUse">
<stop stop-color="#6B38FC"/>
<stop offset="1" stop-color="#9F7EFD"/>
</linearGradient>
<linearGradient id="paint6_linear_19_926" x1="25.3111" y1="12.5272" x2="23.3588" y2="12.0225" gradientUnits="userSpaceOnUse">
<stop stop-color="#6B38FC"/>
<stop offset="1" stop-color="#9F7EFD"/>
</linearGradient>
<linearGradient id="paint7_linear_19_926" x1="31.9913" y1="8.56225" x2="42.189" y2="41.6283" gradientUnits="userSpaceOnUse">
<stop stop-color="white" stop-opacity="0.596"/>
<stop offset="1" stop-color="#F7F7F7" stop-opacity="0.204"/>
</linearGradient>
</defs>
</svg>
