<svg width="69" height="49" viewBox="0 0 69 49" fill="none" xmlns="http://www.w3.org/2000/svg">
<g filter="url(#filter0_f_19_389)">
<path d="M22.2871 32.5001C22.3861 32.5809 20.264 36.6096 19.0403 37.8655C17.8166 39.1215 16.3199 39.7473 15.6969 39.2641C15.0739 38.7808 15.5601 37.3715 16.7839 36.1154C18.0077 34.8593 22.1882 32.4193 22.2871 32.5001Z" fill="#42A0F0"/>
<path d="M16.9892 36.945C17.11 37.1184 17.5339 37.0764 17.9359 36.8513C18.338 36.6263 18.5661 36.3033 18.4453 36.13C18.3245 35.9567 17.9006 35.9986 17.4985 36.2237C17.0964 36.4488 16.8684 36.7717 16.9892 36.945Z" fill="white"/>
<path d="M35.1721 32.5001C35.2711 32.5809 33.149 36.6096 31.9253 37.8655C30.7016 39.1215 29.2049 39.7473 28.5819 39.2641C27.9589 38.7808 28.4451 37.3715 29.6689 36.1154C30.8927 34.8593 35.0732 32.4193 35.1721 32.5001Z" fill="#42A0F0"/>
<path d="M29.8742 36.945C29.995 37.1184 30.4189 37.0764 30.821 36.8513C31.223 36.6263 31.4511 36.3033 31.3303 36.13C31.2095 35.9567 30.7856 35.9986 30.3835 36.2237C29.9815 36.4488 29.7534 36.7717 29.8742 36.945Z" fill="white"/>
<path d="M36.688 40.9598C36.787 41.0406 34.6649 45.0693 33.4412 46.3252C32.2175 47.5812 30.7208 48.2071 30.0978 47.7238C29.4747 47.2405 29.961 45.8312 31.1848 44.5751C32.4086 43.319 36.589 40.879 36.688 40.9598Z" fill="#42A0F0"/>
<path d="M31.3898 45.4048C31.5106 45.5781 31.9345 45.5361 32.3366 45.3111C32.7387 45.086 32.9667 44.763 32.8459 44.5897C32.7251 44.4164 32.3012 44.4583 31.8992 44.6834C31.4971 44.9085 31.2691 45.2314 31.3898 45.4048Z" fill="white"/>
<path d="M22.2871 40.9598C22.3861 41.0406 20.264 45.0693 19.0403 46.3252C17.8166 47.5812 16.3199 48.2071 15.6969 47.7238C15.0739 47.2405 15.5601 45.8312 16.7839 44.5751C18.0077 43.319 22.1882 40.879 22.2871 40.9598Z" fill="#42A0F0"/>
<path d="M16.9892 45.4048C17.11 45.5781 17.5339 45.5361 17.9359 45.3111C18.338 45.086 18.5661 44.763 18.4453 44.5897C18.3245 44.4164 17.9006 44.4583 17.4985 44.6834C17.0964 44.9085 16.8684 45.2314 16.9892 45.4048Z" fill="white"/>
</g>
<g filter="url(#filter1_f_19_389)">
<path d="M46.9598 33.4792H52.9298L49.4977 37.9798L53.5106 38.0475L45.0879 46.9489L47.1288 40.1624H43.3926L46.9598 33.4792Z" fill="url(#paint0_linear_19_389)"/>
</g>
<g filter="url(#filter2_df_19_389)">
<g filter="url(#filter3_d_19_389)">
<path d="M43.0274 37.0675C42.6611 37.0938 42.2912 37.1071 41.9176 37.1073H15.8592C14.0655 37.1133 12.2882 36.803 10.6291 36.1942C8.97 35.5854 7.46186 34.6901 6.19115 33.5597C4.92045 32.4293 3.9122 31.086 3.22423 29.6068C2.53627 28.1277 2.18213 26.5418 2.18213 24.9402C2.18213 23.3385 2.53627 21.7526 3.22423 20.2735C3.9122 18.7943 4.92045 17.451 6.19115 16.3206C7.46186 15.1902 8.97 14.2949 10.6291 13.6861C12.2882 13.0774 14.0655 12.7671 15.8592 12.773H25.5749C28.7249 6.58477 35.9798 2.25342 44.4256 2.25342C55.7618 2.25342 64.9517 10.0558 64.9517 19.6804C64.9517 29.3049 55.7618 37.1073 44.4256 37.1073C43.9557 37.1073 43.4897 37.094 43.0274 37.0675Z" fill="url(#paint1_linear_19_389)"/>
<path d="M44.4263 36.938C45.8068 36.938 47.1864 36.8199 48.5268 36.587C49.8329 36.3601 51.1177 36.0215 52.3453 35.5807C53.5505 35.1479 54.7129 34.6122 55.8002 33.9886C56.8771 33.3709 57.8897 32.6616 58.8099 31.8803C59.73 31.0992 60.5652 30.2397 61.2924 29.3258C62.0265 28.4033 62.657 27.4171 63.1663 26.3948C63.6849 25.3537 64.0833 24.2642 64.3502 23.1567C64.6241 22.0203 64.763 20.8506 64.763 19.6802C64.763 18.5097 64.6241 17.3401 64.3502 16.2037C64.0833 15.0961 63.6849 14.0067 63.1663 12.9657C62.657 11.9433 62.0265 10.9572 61.2924 10.0347C60.5652 9.12075 59.73 8.26128 58.8099 7.48016C57.8897 6.69889 56.8771 5.98958 55.8002 5.37191C54.7129 4.74825 53.5505 4.21257 52.3453 3.77977C51.1177 3.33893 49.8329 3.00035 48.5268 2.77343C47.1864 2.54057 45.8068 2.42249 44.4263 2.42249C40.3768 2.42249 36.4661 3.42959 33.1167 5.3349C31.5022 6.25333 30.0514 7.36191 28.8046 8.62983C27.5499 9.90577 26.5215 11.3232 25.7481 12.8429L25.6976 12.942H25.5756H15.8599C14.0458 12.942 12.2862 13.2593 10.6297 13.8848C9.83361 14.1855 9.06571 14.5577 8.3474 14.991C7.63586 15.4203 6.96676 15.9132 6.35867 16.4562C5.75058 16.9992 5.19851 17.5966 4.7178 18.232C4.23252 18.8734 3.81572 19.559 3.47898 20.2699C2.77837 21.749 2.42313 23.3202 2.42313 24.94C2.42313 26.5598 2.77837 28.131 3.47898 29.6101C3.81572 30.321 4.23252 31.0067 4.7178 31.6481C5.19851 32.2834 5.75058 32.8809 6.35867 33.4239C6.96676 33.9668 7.63586 34.4598 8.3474 34.889C9.06571 35.3223 9.83361 35.6945 10.6297 35.9952C12.2862 36.6208 14.0458 36.938 15.8599 36.938H41.9184C42.2827 36.938 42.651 36.9248 43.013 36.8987L43.0266 36.8978L43.0403 36.8985C43.4987 36.9247 43.965 36.938 44.4263 36.938ZM44.4263 37.1072C43.9565 37.1072 43.4902 37.0938 43.0282 37.0674C42.6624 37.0937 42.2918 37.1072 41.9184 37.1072H15.8599C8.33434 37.1072 2.23364 31.6597 2.23364 24.94C2.23364 18.2203 8.33434 12.7729 15.8599 12.7729H25.5756C28.7257 6.58388 35.9801 2.2533 44.4263 2.2533C55.7625 2.2533 64.9525 10.0557 64.9525 19.6802C64.9525 29.3048 55.7625 37.1072 44.4263 37.1072Z" fill="white" fill-opacity="0.5"/>
</g>
</g>
<defs>
<filter id="filter0_f_19_389" x="15.1053" y="32.1778" width="21.9064" height="16.0294" filterUnits="userSpaceOnUse" color-interpolation-filters="sRGB">
<feFlood flood-opacity="0" result="BackgroundImageFix"/>
<feBlend mode="normal" in="SourceGraphic" in2="BackgroundImageFix" result="shape"/>
<feGaussianBlur stdDeviation="0.160122" result="effect1_foregroundBlur_19_389"/>
</filter>
<filter id="filter1_f_19_389" x="43.0723" y="33.159" width="10.7584" height="14.1102" filterUnits="userSpaceOnUse" color-interpolation-filters="sRGB">
<feFlood flood-opacity="0" result="BackgroundImageFix"/>
<feBlend mode="normal" in="SourceGraphic" in2="BackgroundImageFix" result="shape"/>
<feGaussianBlur stdDeviation="0.160122" result="effect1_foregroundBlur_19_389"/>
</filter>
<filter id="filter2_df_19_389" x="0.580906" y="0.0115833" width="67.5739" height="39.6578" filterUnits="userSpaceOnUse" color-interpolation-filters="sRGB">
<feFlood flood-opacity="0" result="BackgroundImageFix"/>
<feColorMatrix in="SourceAlpha" type="matrix" values="0 0 0 0 0 0 0 0 0 0 0 0 0 0 0 0 0 0 127 0" result="hardAlpha"/>
<feOffset dx="0.800612" dy="0.160122"/>
<feGaussianBlur stdDeviation="1.20092"/>
<feColorMatrix type="matrix" values="0 0 0 0 0.258824 0 0 0 0 0.627451 0 0 0 0 0.941176 0 0 0 0.596 0"/>
<feBlend mode="normal" in2="BackgroundImageFix" result="effect1_dropShadow_19_389"/>
<feBlend mode="normal" in="SourceGraphic" in2="effect1_dropShadow_19_389" result="shape"/>
<feGaussianBlur stdDeviation="0.160122" result="effect2_foregroundBlur_19_389"/>
</filter>
<filter id="filter3_d_19_389" x="0.580906" y="0.0115833" width="67.5739" height="39.6578" filterUnits="userSpaceOnUse" color-interpolation-filters="sRGB">
<feFlood flood-opacity="0" result="BackgroundImageFix"/>
<feColorMatrix in="SourceAlpha" type="matrix" values="0 0 0 0 0 0 0 0 0 0 0 0 0 0 0 0 0 0 127 0" result="hardAlpha"/>
<feOffset dx="0.800612" dy="0.160122"/>
<feGaussianBlur stdDeviation="1.20092"/>
<feColorMatrix type="matrix" values="0 0 0 0 0.501961 0 0 0 0 0.501961 0 0 0 0 0.501961 0 0 0 0.302 0"/>
<feBlend mode="normal" in2="BackgroundImageFix" result="effect1_dropShadow_19_389"/>
<feBlend mode="normal" in="SourceGraphic" in2="effect1_dropShadow_19_389" result="shape"/>
</filter>
<linearGradient id="paint0_linear_19_389" x1="47.5207" y1="40.2141" x2="42.9327" y2="38.3304" gradientUnits="userSpaceOnUse">
<stop stop-color="#FFD100"/>
<stop offset="1" stop-color="#FFF0AA"/>
</linearGradient>
<linearGradient id="paint1_linear_19_389" x1="27.6038" y1="6.64502" x2="37.8016" y2="39.7111" gradientUnits="userSpaceOnUse">
<stop stop-color="white" stop-opacity="0.596"/>
<stop offset="1" stop-color="#F7F7F7" stop-opacity="0.204"/>
</linearGradient>
</defs>
</svg>
