<svg width="54" height="35" viewBox="0 0 54 35" fill="none" xmlns="http://www.w3.org/2000/svg">
<g filter="url(#filter0_f_19_2025)">
<path fill-rule="evenodd" clip-rule="evenodd" d="M43.3475 12.021C42.7231 11.4859 42.0437 11.0934 41.4874 11.106C40.9508 11.1181 40.5398 11.4592 39.9003 12.03C39.889 12.04 39.8777 12.0501 39.8663 12.0603C39.2996 12.5665 38.5297 13.2541 37.4251 13.2717L37.4001 13.2721L37.3752 13.2706C36.1653 13.1954 35.4918 12.4937 34.9934 11.9745L34.9762 11.9565C34.4642 11.4232 34.1529 11.1233 33.5904 11.1067C33.0402 11.1547 32.7059 11.4767 32.1735 12.0098L32.1717 12.0117C31.6609 12.5232 30.9756 13.2094 29.803 13.2709C29.278 13.2977 28.7704 13.1156 28.3446 12.8901C27.9112 12.6605 27.5046 12.3554 27.1627 12.0627C26.8185 11.7681 26.525 11.4731 26.3181 11.2528C26.2143 11.1422 26.1313 11.0494 26.0735 10.9833C26.0447 10.9503 26.022 10.9238 26.0062 10.9052L25.9876 10.8832L25.9823 10.8768L25.9806 10.8748L25.9798 10.8738C25.9797 10.8737 25.9796 10.8736 26.4685 10.4697L25.9798 10.8738C25.7545 10.6011 25.7928 10.1972 26.0655 9.97188C26.3381 9.74668 26.7415 9.78498 26.9669 10.0574C26.9669 10.0573 26.9669 10.0574 26.9669 10.0574L26.9699 10.061L26.9829 10.0764C26.9949 10.0905 27.0134 10.1121 27.0379 10.1402C27.087 10.1963 27.1598 10.2778 27.252 10.376C27.4373 10.5733 27.6967 10.8336 27.9957 11.0896C28.2971 11.3476 28.6241 11.5885 28.9442 11.7581C29.2718 11.9316 29.5385 12.0017 29.7365 11.9917C30.3747 11.958 30.7502 11.6223 31.2671 11.1047C31.289 11.0828 31.3112 11.0604 31.3338 11.0376C31.8143 10.5542 32.4628 9.90175 33.527 9.82675L33.5537 9.82486L33.5806 9.82522C34.7231 9.84051 35.3744 10.5204 35.8555 11.0227C35.8705 11.0384 35.8854 11.054 35.9002 11.0693C36.3994 11.5892 36.7639 11.9408 37.4291 11.9903C37.9974 11.9718 38.4306 11.6247 39.0473 11.0743C39.0715 11.0527 39.096 11.0307 39.1209 11.0084C39.6701 10.5163 40.4149 9.84898 41.4583 9.82533C42.5295 9.80105 43.5312 10.4914 44.181 11.0483C44.5246 11.3428 44.8112 11.6365 45.0115 11.8558C45.1121 11.9659 45.1919 12.0584 45.2474 12.1244C45.2752 12.1574 45.2969 12.1839 45.3122 12.2027L45.3302 12.225L45.3355 12.2316L45.3372 12.2337L45.338 12.2348C45.3381 12.2349 45.3382 12.235 44.8557 12.6151L45.338 12.2348C45.5569 12.5127 45.5092 12.9156 45.2313 13.1345C44.9535 13.3533 44.5509 13.3055 44.332 13.0278L44.3298 13.025L44.3181 13.0105C44.3072 12.9971 44.2901 12.9763 44.2672 12.9491C44.2215 12.8948 44.1531 12.8155 44.0656 12.7197C43.8898 12.5272 43.641 12.2726 43.3475 12.021ZM26.9669 10.0574C26.967 10.0575 26.9663 10.0585 26.4734 10.4656L26.9669 10.0574C26.9669 10.0574 26.9669 10.0573 26.9669 10.0574Z" fill="white"/>
</g>
<g filter="url(#filter1_f_19_2025)">
<path fill-rule="evenodd" clip-rule="evenodd" d="M51.0533 25.6268C50.1249 25.0984 48.9813 24.6258 47.9294 24.6416C46.8975 24.6571 46.1511 25.0964 45.2364 25.6386C44.339 26.1705 43.2908 26.7917 41.8163 26.8073L41.7997 26.8075L41.7831 26.8068C40.1597 26.7398 39.2487 26.1145 38.4689 25.5752C37.7281 25.0629 37.1396 24.6559 36.0351 24.6418C34.9897 24.695 34.3769 25.1025 33.6208 25.6053L33.5895 25.6261C32.794 26.155 31.8696 26.7529 30.3195 26.807C29.0414 26.8502 27.6666 26.228 26.6824 25.6685C26.1753 25.3802 25.741 25.0904 25.4334 24.8728C25.2792 24.7638 25.1561 24.6723 25.0705 24.6073C25.0277 24.5748 24.9943 24.5489 24.9711 24.5307L24.9439 24.5093L24.9363 24.5032L24.934 24.5014L24.9329 24.5005C24.9328 24.5004 24.9327 24.5003 25.3325 24.003L24.9329 24.5005C24.6572 24.2789 24.6132 23.8755 24.8349 23.5999M25.7352 23.5019C25.7351 23.5018 25.7352 23.5019 25.7352 23.5019L25.7402 23.5059L25.7606 23.5219C25.7792 23.5365 25.8078 23.5587 25.8454 23.5872C25.9207 23.6444 26.0321 23.7273 26.1732 23.8271C26.4559 24.027 26.854 24.2925 27.3155 24.5549C28.2683 25.0966 29.3756 25.5571 30.2752 25.5267C31.4534 25.4856 32.1273 25.06 32.8803 24.5594C32.9042 24.5435 32.9282 24.5275 32.9523 24.5114C33.7088 24.0076 34.5798 23.4276 35.993 23.3614L36.0108 23.3606L36.0286 23.3607C37.5389 23.3741 38.4042 23.9728 39.1661 24.4999L39.1975 24.5216C39.9288 25.0274 40.5849 25.4715 41.8192 25.5262C42.9068 25.5103 43.6853 25.0689 44.5832 24.5367C44.607 24.5226 44.6308 24.5084 44.6547 24.4942C45.5235 23.9787 46.5298 23.3815 47.9102 23.3608C49.3087 23.3397 50.6965 23.9498 51.6869 24.5134C52.1919 24.8008 52.6152 25.0887 52.9128 25.3051C53.0619 25.4135 53.1802 25.5045 53.2623 25.5693C53.3034 25.6018 53.3355 25.6277 53.3579 25.646L53.3842 25.6676L53.3917 25.6739L53.394 25.6758L53.3949 25.6765C53.395 25.6766 53.3954 25.677 52.9826 26.1667L53.3949 25.6765C53.6653 25.9045 53.7003 26.3091 53.4723 26.5795C53.2444 26.8499 52.8405 26.8844 52.5701 26.6567C52.5701 26.6566 52.5701 26.6567 52.5701 26.6567L52.5659 26.6531L52.5474 26.6379C52.5303 26.624 52.5039 26.6026 52.4688 26.5749C52.3985 26.5194 52.2936 26.4387 52.1595 26.3412C51.8907 26.1457 51.5077 25.8854 51.0533 25.6268" fill="white"/>
</g>
<g filter="url(#filter2_f_19_2025)">
<path fill-rule="evenodd" clip-rule="evenodd" d="M35.1368 33.2404C34.2084 32.712 33.0648 32.2394 32.0129 32.2552C30.981 32.2708 30.2346 32.7101 29.3199 33.2523C28.4225 33.7842 27.3743 34.4053 25.8998 34.421L25.8832 34.4211L25.8666 34.4204C24.2432 34.3534 23.3322 33.7282 22.5524 33.1888C21.8116 32.6765 21.2231 32.2696 20.1186 32.2555C19.0732 32.3087 18.4604 32.7162 17.7042 33.219L17.673 33.2398C16.8775 33.7686 15.9531 34.3666 14.403 34.4206C13.1248 34.4639 11.7501 33.8417 10.7659 33.2821C10.2588 32.9939 9.82449 32.7041 9.51688 32.4865C9.36274 32.3774 9.23955 32.2859 9.15402 32.2209C9.11123 32.1884 9.0778 32.1625 9.05456 32.1443L9.02744 32.123L9.0198 32.1169L9.01749 32.115L9.01642 32.1142C9.0163 32.1141 9.0162 32.114 9.41603 31.6167L9.01642 32.1142C8.74074 31.8925 8.69671 31.4892 8.91836 31.2135M9.81865 31.1155C9.81862 31.1155 9.81867 31.1155 9.81865 31.1155L9.82372 31.1195L9.84411 31.1356C9.86274 31.1502 9.89128 31.1723 9.92891 31.2009C10.0042 31.2581 10.1156 31.3409 10.2567 31.4407C10.5394 31.6407 10.9375 31.9062 11.399 32.1685C12.3518 32.7102 13.4591 33.1708 14.3587 33.1404C15.5369 33.0992 16.2108 32.6736 16.9638 32.173C16.9877 32.1571 17.0117 32.1412 17.0358 32.1251C17.7923 31.6213 18.6633 31.0412 20.0765 30.975L20.0943 30.9742L20.1121 30.9744C21.6224 30.9878 22.4877 31.5864 23.2496 32.1136L23.281 32.1353C24.0123 32.641 24.6684 33.0851 25.9027 33.1398C26.9903 33.124 27.7688 32.6825 28.6667 32.1503C28.6905 32.1362 28.7143 32.1221 28.7382 32.1079C29.607 31.5923 30.6133 30.9952 31.9937 30.9744C33.3922 30.9534 34.78 31.5635 35.7704 32.1271C36.2753 32.4145 36.6987 32.7024 36.9963 32.9187C37.1454 33.0271 37.2637 33.1182 37.3458 33.183C37.3869 33.2154 37.419 33.2413 37.4414 33.2596L37.4677 33.2812L37.4752 33.2875L37.4775 33.2895L37.4784 33.2902C37.4785 33.2903 37.4789 33.2906 37.0661 33.7803L37.4784 33.2902C37.7488 33.5182 37.7838 33.9227 37.5558 34.1932C37.3279 34.4635 36.924 34.498 36.6536 34.2703C36.6536 34.2703 36.6536 34.2703 36.6536 34.2703L36.6494 34.2668L36.6309 34.2516C36.6138 34.2377 36.5874 34.2163 36.5523 34.1886C36.482 34.1331 36.3771 34.0523 36.243 33.9548C35.9742 33.7594 35.5912 33.499 35.1368 33.2404" fill="white"/>
</g>
<g filter="url(#filter3_f_19_2025)">
<path fill-rule="evenodd" clip-rule="evenodd" d="M38.0903 17.1868C38.1492 17.2527 38.1435 17.354 38.0775 17.4129L36.7511 18.5972C36.6852 18.6561 36.584 18.6504 36.5251 18.5844C36.4662 18.5185 36.4719 18.4172 36.5379 18.3583L37.8642 17.174C37.9302 17.1151 38.0314 17.1208 38.0903 17.1868Z" fill="#CAD1D2"/>
<path fill-rule="evenodd" clip-rule="evenodd" d="M36.5251 17.1868C36.584 17.1208 36.6852 17.1151 36.7511 17.174L38.0775 18.3583C38.1435 18.4172 38.1492 18.5185 38.0903 18.5844C38.0314 18.6504 37.9302 18.6561 37.8642 18.5972L36.5379 17.4129C36.4719 17.354 36.4662 17.2527 36.5251 17.1868Z" fill="#CAD1D2"/>
<path fill-rule="evenodd" clip-rule="evenodd" d="M48.8946 30.8915C48.9535 30.9575 48.9478 31.0587 48.8818 31.1176L47.9306 31.9669C47.8646 32.0258 47.7634 32.0201 47.7045 31.9541C47.6456 31.8882 47.6513 31.787 47.7173 31.7281L48.6685 30.8787C48.7345 30.8198 48.8357 30.8255 48.8946 30.8915Z" fill="#42A0F0"/>
<path fill-rule="evenodd" clip-rule="evenodd" d="M47.7045 30.8915C47.7634 30.8255 47.8646 30.8198 47.9306 30.8787L48.8818 31.7281C48.9478 31.787 48.9535 31.8882 48.8946 31.9541C48.8357 32.0201 48.7345 32.0258 48.6685 31.9669L47.7173 31.1176C47.6513 31.0587 47.6456 30.9575 47.7045 30.8915Z" fill="#42A0F0"/>
<path fill-rule="evenodd" clip-rule="evenodd" d="M8.15533 26.6616C8.21423 26.7276 8.2085 26.8288 8.14254 26.8877L7.19133 27.7371C7.12537 27.796 7.02415 27.7902 6.96525 27.7243C6.90635 27.6583 6.91207 27.5571 6.97804 27.4982L7.92924 26.6488C7.9952 26.5899 8.09643 26.5957 8.15533 26.6616Z" fill="#D0D0D0"/>
<path fill-rule="evenodd" clip-rule="evenodd" d="M6.96525 26.6616C7.02415 26.5957 7.12537 26.5899 7.19133 26.6488L8.14254 27.4982C8.2085 27.5571 8.21423 27.6583 8.15533 27.7243C8.09643 27.7902 7.9952 27.796 7.92924 27.7371L6.97804 26.8877C6.91207 26.8288 6.90635 26.7276 6.96525 26.6616Z" fill="#D0D0D0"/>
<path fill-rule="evenodd" clip-rule="evenodd" d="M47.1888 6.69679C47.2477 6.76275 47.2419 6.86397 47.176 6.92287L46.2248 7.77222C46.1588 7.83112 46.0576 7.8254 45.9987 7.75943C45.9398 7.69347 45.9455 7.59225 46.0115 7.53335L46.9627 6.684C47.0287 6.6251 47.1299 6.63082 47.1888 6.69679Z" fill="#42A0F0"/>
<path fill-rule="evenodd" clip-rule="evenodd" d="M45.9987 6.69679C46.0576 6.63082 46.1588 6.6251 46.2248 6.684L47.176 7.53335C47.2419 7.59225 47.2477 7.69347 47.1888 7.75943C47.1299 7.8254 47.0287 7.83112 46.9627 7.77222L46.0115 6.92287C45.9455 6.86397 45.9398 6.76275 45.9987 6.69679Z" fill="#42A0F0"/>
</g>
<g filter="url(#filter4_f_19_2025)">
<path d="M13.5475 22.6882C11.4067 22.6907 9.31481 22.1172 7.54448 21.0424C5.93705 20.0696 4.65278 18.728 3.82664 17.1588C3.0005 15.5896 2.66299 13.8507 2.84959 12.1248C3.03619 10.3989 3.74001 8.7497 4.88707 7.3506C6.03413 5.9515 7.58209 4.85413 9.36825 4.17381C10.6897 3.67191 12.1114 3.41446 13.5475 3.41701C13.9667 3.41704 14.3856 3.43879 14.8021 3.48215C14.3064 4.44784 14.0512 5.49802 14.054 6.56029C14.0548 8.01634 14.5357 9.43996 15.4366 10.6536C16.3376 11.8672 17.6188 12.8171 19.1204 13.3849C20.1418 13.7709 21.24 13.9689 22.3491 13.9669C22.9908 13.9671 23.6304 13.9012 24.2552 13.7705C24.06 16.1891 22.8479 18.4524 20.862 20.1064C18.8761 21.7603 16.2632 22.6826 13.5475 22.6882Z" fill="#713FFD"/>
</g>
<g filter="url(#filter5_f_19_2025)">
<path d="M11.658 11.7275C14.0682 9.7898 14.8184 7.02542 13.3338 5.55312C11.8491 4.08081 8.6918 4.45812 6.28166 6.39585C3.87153 8.33358 3.12126 11.098 4.6059 12.5703C6.09054 14.0426 9.24788 13.6653 11.658 11.7275Z" fill="#A586FC"/>
</g>
<path d="M8.43574 0.966309L8.76828 1.70738L9.66738 1.98147L8.76828 2.25556L8.43574 2.99663L8.1032 2.25556L7.2041 1.98147L8.1032 1.70738L8.43574 0.966309Z" fill="url(#paint0_linear_19_2025)"/>
<path d="M24.352 19.4084L24.6334 20.026L25.3941 20.2544L24.6334 20.4828L24.352 21.1004L24.0706 20.4828L23.3098 20.2544L24.0706 20.026L24.352 19.4084Z" fill="url(#paint1_linear_19_2025)"/>
<path d="M19.5958 3.38919L20.0931 3.97193L20.9806 4.0191L20.2385 4.45621L20.1344 5.18295L19.636 4.60047L18.7485 4.55329L19.4906 4.11619L19.5958 3.38919Z" fill="url(#paint2_linear_19_2025)"/>
<path d="M1.83256 17.9552L2.36933 18.4066L3.20474 18.3322L2.56447 18.8171L2.55529 19.4753L2.01859 19.024L1.18318 19.0985L1.82345 18.6136L1.83256 17.9552Z" fill="url(#paint3_linear_19_2025)"/>
<path d="M19.1256 9.84812L18.5353 9.95513L18.186 10.5015L18.1402 9.87368L17.6622 9.54645L18.2525 9.43944L18.6018 8.89311L18.6476 9.52089L19.1256 9.84812Z" fill="url(#paint4_linear_19_2025)"/>
<defs>
<filter id="filter0_f_19_2025" x="25.5128" y="9.50446" width="20.2828" height="4.08934" filterUnits="userSpaceOnUse" color-interpolation-filters="sRGB">
<feFlood flood-opacity="0" result="BackgroundImageFix"/>
<feBlend mode="normal" in="SourceGraphic" in2="BackgroundImageFix" result="shape"/>
<feGaussianBlur stdDeviation="0.160122" result="effect1_foregroundBlur_19_2025"/>
</filter>
<filter id="filter1_f_19_2025" x="24.3734" y="23.04" width="29.5697" height="4.08934" filterUnits="userSpaceOnUse" color-interpolation-filters="sRGB">
<feFlood flood-opacity="0" result="BackgroundImageFix"/>
<feBlend mode="normal" in="SourceGraphic" in2="BackgroundImageFix" result="shape"/>
<feGaussianBlur stdDeviation="0.160122" result="effect1_foregroundBlur_19_2025"/>
</filter>
<filter id="filter2_f_19_2025" x="8.45685" y="30.6536" width="29.5697" height="4.08934" filterUnits="userSpaceOnUse" color-interpolation-filters="sRGB">
<feFlood flood-opacity="0" result="BackgroundImageFix"/>
<feBlend mode="normal" in="SourceGraphic" in2="BackgroundImageFix" result="shape"/>
<feGaussianBlur stdDeviation="0.160122" result="effect1_foregroundBlur_19_2025"/>
</filter>
<filter id="filter3_f_19_2025" x="6.76444" y="6.48319" width="42.331" height="25.6845" filterUnits="userSpaceOnUse" color-interpolation-filters="sRGB">
<feFlood flood-opacity="0" result="BackgroundImageFix"/>
<feBlend mode="normal" in="SourceGraphic" in2="BackgroundImageFix" result="shape"/>
<feGaussianBlur stdDeviation="0.0800612" result="effect1_foregroundBlur_19_2025"/>
</filter>
<filter id="filter4_f_19_2025" x="2.47932" y="3.09675" width="22.0961" height="19.9116" filterUnits="userSpaceOnUse" color-interpolation-filters="sRGB">
<feFlood flood-opacity="0" result="BackgroundImageFix"/>
<feBlend mode="normal" in="SourceGraphic" in2="BackgroundImageFix" result="shape"/>
<feGaussianBlur stdDeviation="0.160122" result="effect1_foregroundBlur_19_2025"/>
</filter>
<filter id="filter5_f_19_2025" x="2.24253" y="3.05381" width="13.4546" height="12.0158" filterUnits="userSpaceOnUse" color-interpolation-filters="sRGB">
<feFlood flood-opacity="0" result="BackgroundImageFix"/>
<feBlend mode="normal" in="SourceGraphic" in2="BackgroundImageFix" result="shape"/>
<feGaussianBlur stdDeviation="0.800612" result="effect1_foregroundBlur_19_2025"/>
</filter>
<linearGradient id="paint0_linear_19_2025" x1="8.43574" y1="0.966309" x2="8.43574" y2="2.99663" gradientUnits="userSpaceOnUse">
<stop stop-color="#6B38FC"/>
<stop offset="1" stop-color="#9F7EFD"/>
</linearGradient>
<linearGradient id="paint1_linear_19_2025" x1="24.352" y1="19.4084" x2="24.352" y2="21.1004" gradientUnits="userSpaceOnUse">
<stop stop-color="#6B38FC"/>
<stop offset="1" stop-color="#9F7EFD"/>
</linearGradient>
<linearGradient id="paint2_linear_19_2025" x1="19.5952" y1="3.38932" x2="20.0306" y2="5.2078" gradientUnits="userSpaceOnUse">
<stop stop-color="#6B38FC"/>
<stop offset="1" stop-color="#9F7EFD"/>
</linearGradient>
<linearGradient id="paint3_linear_19_2025" x1="1.83256" y1="17.9552" x2="2.4272" y2="19.5239" gradientUnits="userSpaceOnUse">
<stop stop-color="#6B38FC"/>
<stop offset="1" stop-color="#9F7EFD"/>
</linearGradient>
<linearGradient id="paint4_linear_19_2025" x1="19.1256" y1="9.84812" x2="17.6808" y2="9.47457" gradientUnits="userSpaceOnUse">
<stop stop-color="#6B38FC"/>
<stop offset="1" stop-color="#9F7EFD"/>
</linearGradient>
</defs>
</svg>
