<svg width="68" height="56" viewBox="0 0 68 56" fill="none" xmlns="http://www.w3.org/2000/svg">
<g filter="url(#filter0_f_19_2014)">
<path d="M23.579 24.6472H37.1769L29.36 34.8971L38.4997 35.0516L19.3159 55.3259L23.9641 39.8684H15.4546L23.579 24.6472Z" fill="url(#paint0_linear_19_2014)"/>
<path d="M44.5904 35.4354H50.5604L47.1283 39.936L51.1412 40.0037L42.7185 48.9051L44.7594 42.1186H41.0232L44.5904 35.4354Z" fill="url(#paint1_linear_19_2014)"/>
</g>
<g filter="url(#filter1_df_19_2014)">
<g filter="url(#filter2_d_19_2014)">
<path d="M42.7423 37.3317C42.376 37.358 42.006 37.3712 41.6325 37.3715H15.5741C13.7804 37.3774 12.003 37.0671 10.3439 36.4583C8.68485 35.8496 7.1767 34.9543 5.906 33.8239C4.6353 32.6935 3.62704 31.3501 2.93908 29.871C2.25111 28.3918 1.89697 26.806 1.89697 25.2043C1.89697 23.6027 2.25111 22.0168 2.93908 20.5377C3.62704 19.0585 4.6353 17.7152 5.906 16.5848C7.1767 15.4544 8.68485 14.5591 10.3439 13.9503C12.003 13.3415 13.7804 13.0312 15.5741 13.0372H25.29C28.4399 6.84893 35.6947 2.51758 44.1405 2.51758C55.4767 2.51758 64.6666 10.3199 64.6666 19.9445C64.6666 29.5691 55.4767 37.3715 44.1405 37.3715C43.6706 37.3715 43.2045 37.3582 42.7423 37.3317Z" fill="url(#paint2_linear_19_2014)"/>
<path d="M44.1409 37.2023C45.5214 37.2023 46.901 37.0842 48.2414 36.8513C49.5475 36.6244 50.8323 36.2858 52.0599 35.845C53.2651 35.4122 54.4275 34.8765 55.5148 34.2528C56.5917 33.6352 57.6043 32.9258 58.5245 32.1446C59.4446 31.3635 60.2798 30.504 61.007 29.59C61.7411 28.6675 62.3716 27.6814 62.8809 26.659C63.3995 25.618 63.7979 24.5285 64.0648 23.421C64.3387 22.2846 64.4776 21.1149 64.4776 19.9444C64.4776 18.774 64.3387 17.6043 64.0648 16.468C63.7979 15.3604 63.3995 14.271 62.8809 13.2299C62.3716 12.2076 61.7411 11.2215 61.007 10.299C60.2798 9.38503 59.4446 8.52556 58.5245 7.74444C57.6043 6.96317 56.5917 6.25386 55.5148 5.6362C54.4275 5.01253 53.2651 4.47685 52.0599 4.04406C50.8323 3.60322 49.5475 3.26463 48.2414 3.03771C46.901 2.80485 45.5214 2.68677 44.1409 2.68677C40.0915 2.68677 36.1807 3.69387 32.8314 5.59918C31.2169 6.51761 29.7661 7.62619 28.5193 8.89412C27.2646 10.1701 26.2363 11.5875 25.4628 13.1071L25.4123 13.2063H25.2903H15.5745C13.7604 13.2063 12.0008 13.5235 10.3443 14.1491C9.54821 14.4498 8.78031 14.822 8.062 15.2553C7.35046 15.6845 6.68136 16.1775 6.07327 16.7205C5.46518 17.2634 4.91311 17.8609 4.4324 18.4963C3.94712 19.1377 3.53032 19.8233 3.19358 20.5342C2.49297 22.0133 2.13772 23.5845 2.13772 25.2043C2.13772 26.8241 2.49297 28.3953 3.19358 29.8744C3.53032 30.5853 3.94712 31.271 4.4324 31.9123C4.91311 32.5477 5.46518 33.1452 6.07327 33.6881C6.68136 34.2311 7.35046 34.7241 8.062 35.1533C8.78031 35.5866 9.54821 35.9588 10.3443 36.2595C12.0008 36.8851 13.7604 37.2023 15.5745 37.2023H41.633C41.9973 37.2023 42.3656 37.1891 42.7276 37.163L42.7412 37.162L42.7549 37.1628C43.2133 37.189 43.6796 37.2023 44.1409 37.2023ZM44.1409 37.3715C43.6711 37.3715 43.2048 37.358 42.7428 37.3317C42.377 37.358 42.0064 37.3715 41.633 37.3715H15.5745C8.04894 37.3715 1.94824 31.924 1.94824 25.2043C1.94824 18.4846 8.04894 13.0371 15.5745 13.0371H25.2903C28.4404 6.84816 35.6947 2.51758 44.1409 2.51758C55.4771 2.51758 64.6671 10.32 64.6671 19.9444C64.6671 29.5691 55.4771 37.3715 44.1409 37.3715Z" fill="white" fill-opacity="0.5"/>
</g>
</g>
<defs>
<filter id="filter0_f_19_2014" x="15.1343" y="24.327" width="36.327" height="31.3192" filterUnits="userSpaceOnUse" color-interpolation-filters="sRGB">
<feFlood flood-opacity="0" result="BackgroundImageFix"/>
<feBlend mode="normal" in="SourceGraphic" in2="BackgroundImageFix" result="shape"/>
<feGaussianBlur stdDeviation="0.160122" result="effect1_foregroundBlur_19_2014"/>
</filter>
<filter id="filter1_df_19_2014" x="0.295749" y="0.275866" width="67.5737" height="39.6577" filterUnits="userSpaceOnUse" color-interpolation-filters="sRGB">
<feFlood flood-opacity="0" result="BackgroundImageFix"/>
<feColorMatrix in="SourceAlpha" type="matrix" values="0 0 0 0 0 0 0 0 0 0 0 0 0 0 0 0 0 0 127 0" result="hardAlpha"/>
<feOffset dx="0.800612" dy="0.160122"/>
<feGaussianBlur stdDeviation="1.20092"/>
<feColorMatrix type="matrix" values="0 0 0 0 0.258824 0 0 0 0 0.627451 0 0 0 0 0.941176 0 0 0 0.596 0"/>
<feBlend mode="normal" in2="BackgroundImageFix" result="effect1_dropShadow_19_2014"/>
<feBlend mode="normal" in="SourceGraphic" in2="effect1_dropShadow_19_2014" result="shape"/>
<feGaussianBlur stdDeviation="0.160122" result="effect2_foregroundBlur_19_2014"/>
</filter>
<filter id="filter2_d_19_2014" x="0.295749" y="0.275866" width="67.5737" height="39.6577" filterUnits="userSpaceOnUse" color-interpolation-filters="sRGB">
<feFlood flood-opacity="0" result="BackgroundImageFix"/>
<feColorMatrix in="SourceAlpha" type="matrix" values="0 0 0 0 0 0 0 0 0 0 0 0 0 0 0 0 0 0 127 0" result="hardAlpha"/>
<feOffset dx="0.800612" dy="0.160122"/>
<feGaussianBlur stdDeviation="1.20092"/>
<feColorMatrix type="matrix" values="0 0 0 0 0.501961 0 0 0 0 0.501961 0 0 0 0 0.501961 0 0 0 0.302 0"/>
<feBlend mode="normal" in2="BackgroundImageFix" result="effect1_dropShadow_19_2014"/>
<feBlend mode="normal" in="SourceGraphic" in2="effect1_dropShadow_19_2014" result="shape"/>
</filter>
<linearGradient id="paint0_linear_19_2014" x1="24.857" y1="39.9866" x2="14.4072" y2="35.6962" gradientUnits="userSpaceOnUse">
<stop stop-color="#FFD100"/>
<stop offset="1" stop-color="#FFF0AA"/>
</linearGradient>
<linearGradient id="paint1_linear_19_2014" x1="45.1513" y1="42.1703" x2="40.5633" y2="40.2866" gradientUnits="userSpaceOnUse">
<stop stop-color="#FFD100"/>
<stop offset="1" stop-color="#FFF0AA"/>
</linearGradient>
<linearGradient id="paint2_linear_19_2014" x1="27.3187" y1="6.90918" x2="37.5164" y2="39.9753" gradientUnits="userSpaceOnUse">
<stop stop-color="white" stop-opacity="0.596"/>
<stop offset="1" stop-color="#F7F7F7" stop-opacity="0.204"/>
</linearGradient>
</defs>
</svg>
