<svg width="75" height="50" viewBox="0 0 75 50" fill="none" xmlns="http://www.w3.org/2000/svg">
<g filter="url(#filter0_f_19_500)">
<path d="M27.617 36.5463C28.0511 36.5512 32.4505 42.6846 32.4505 45.0684C32.4505 46.213 31.9412 47.3108 31.0348 48.1202C30.1283 48.9296 28.8989 49.3843 27.617 49.3843C26.335 49.3843 25.1056 48.9296 24.1992 48.1202C23.2927 47.3108 22.7834 46.213 22.7834 45.0684C22.7834 42.6846 27.1832 36.542 27.617 36.5463Z" fill="#42A0F0"/>
<path d="M23.9317 46.6818C24.4147 46.8136 25.0285 46.2712 25.3027 45.4703C25.577 44.6693 25.4077 43.9132 24.9248 43.7813C24.4418 43.6495 23.828 44.1919 23.5537 44.9928C23.2795 45.7938 23.4487 46.5499 23.9317 46.6818Z" fill="white"/>
<path d="M54.2019 36.5463C54.636 36.5512 59.0354 42.6846 59.0354 45.0684C59.0354 46.213 58.5262 47.3108 57.6197 48.1202C56.7133 48.9296 55.4839 49.3843 54.2019 49.3843C52.92 49.3843 51.6906 48.9296 50.7841 48.1202C49.8777 47.3108 49.3684 46.213 49.3684 45.0684C49.3684 42.6846 53.7682 36.542 54.2019 36.5463Z" fill="#42A0F0"/>
<path d="M50.5167 46.6818C50.9996 46.8136 51.6134 46.2712 51.8877 45.4703C52.1619 44.6693 51.9927 43.9132 51.5097 43.7813C51.0268 43.6495 50.4129 44.1919 50.1387 44.9928C49.8645 45.7938 50.0337 46.5499 50.5167 46.6818Z" fill="white"/>
<path d="M39.9058 28.4542C40.3399 28.4591 44.7393 34.5926 44.7393 36.9763C44.7393 38.121 44.2301 39.2188 43.3236 40.0282C42.4171 40.8376 41.1877 41.2923 39.9058 41.2923C38.6239 41.2923 37.3944 40.8376 36.488 40.0282C35.5815 39.2188 35.0723 38.121 35.0723 36.9763C35.0723 34.5926 39.4721 28.45 39.9058 28.4542Z" fill="#42A0F0"/>
<path d="M36.2203 38.5897C36.7032 38.7216 37.3171 38.1792 37.5913 37.3782C37.8655 36.5773 37.6963 35.8211 37.2134 35.6893C36.7304 35.5574 36.1166 36.0998 35.8423 36.9008C35.5681 37.7017 35.7373 38.4579 36.2203 38.5897Z" fill="white"/>
</g>
<g filter="url(#filter1_f_19_500)">
<path d="M18.0467 29.6387C15.1623 29.6421 12.3437 28.8695 9.95844 27.4214C7.7926 26.1106 6.06219 24.3031 4.94905 22.1888C3.83591 20.0745 3.38117 17.7315 3.6326 15.406C3.88403 13.0805 4.83236 10.8585 6.37791 8.97337C7.92347 7.08826 10.0092 5.60971 12.4158 4.69311C14.1963 4.01668 16.1118 3.66961 18.0467 3.67287C18.6115 3.67289 19.1759 3.70215 19.7369 3.76052C19.4098 4.39915 19.1595 5.06697 18.9903 5.75277C18.8164 6.46059 18.7288 7.18314 18.729 7.90779C18.7254 9.89635 19.3903 11.8401 20.6377 13.4875C21.4418 14.55 22.4666 15.465 23.6565 16.183C24.2546 16.5437 24.8904 16.8519 25.555 17.1031C26.9312 17.6232 28.4109 17.8899 29.9053 17.8873C30.7699 17.8876 31.6316 17.7988 32.4734 17.6225C32.2748 20.0647 31.3055 22.4067 29.6775 24.3771C29.1509 25.0146 28.5605 25.608 27.9135 26.1501C25.2432 28.394 21.7135 29.642 18.0467 29.6387Z" fill="#713FFD"/>
</g>
<g filter="url(#filter2_f_19_500)">
<path d="M15.5009 14.8702C18.7483 12.2593 19.7591 8.53471 17.7588 6.55097C15.7584 4.56723 11.5043 5.07557 8.25699 7.68639C5.00967 10.2972 3.99881 14.0218 5.99917 16.0056C7.99953 17.9893 12.2536 17.481 15.5009 14.8702Z" fill="#A586FC"/>
</g>
<g filter="url(#filter3_f_19_500)">
<path d="M10.9407 0.318237L11.4267 1.36724L12.7408 1.75638L11.4267 2.14553L10.9407 3.19453L10.4547 2.14553L9.14062 1.75638L10.4547 1.36724L10.9407 0.318237Z" fill="url(#paint0_linear_19_500)"/>
<path d="M32.6362 25.1897L33.0455 26.0543L34.1521 26.3741L33.0455 26.6938L32.6362 27.5584L32.2269 26.6938L31.1204 26.3741L32.2269 26.0543L32.6362 25.1897Z" fill="url(#paint1_linear_19_500)"/>
<path d="M26.1941 3.63537L26.8651 4.42076L28.0615 4.48471L27.0614 5.07452L26.9204 6.0543L26.2495 5.26715L25.0531 5.20319L26.0532 4.61338L26.1941 3.63537Z" fill="url(#paint2_linear_19_500)"/>
<path d="M2.26184 23.2611L2.98586 23.8694L4.11202 23.7688L3.24872 24.4223L3.23565 25.3093L2.5137 24.7006L1.38754 24.8012L2.25098 24.148L2.26184 23.2611Z" fill="url(#paint3_linear_19_500)"/>
<path d="M25.5626 12.3375L24.767 12.4815L24.2962 13.2179L24.2345 12.3717L23.5901 11.9308L24.3862 11.7873L24.8569 11.0508L24.9181 11.8969L25.5626 12.3375Z" fill="url(#paint4_linear_19_500)"/>
</g>
<g filter="url(#filter4_df_19_500)">
<g filter="url(#filter5_d_19_500)">
<path d="M49.3668 37.6703C49.0005 37.6966 48.6305 37.7099 48.257 37.7101H22.1986C20.4049 37.716 18.6275 37.4057 16.9684 36.797C15.3094 36.1882 13.8012 35.2929 12.5305 34.1625C11.2598 33.0321 10.2516 31.6888 9.56359 30.2096C8.87562 28.7305 8.52148 27.1446 8.52148 25.5429C8.52148 23.9413 8.87562 22.3554 9.56359 20.8763C10.2516 19.3971 11.2598 18.0538 12.5305 16.9234C13.8012 15.793 15.3094 14.8977 16.9684 14.2889C18.6275 13.6801 20.4049 13.3698 22.1986 13.3758H31.9145C35.0645 7.18756 42.3192 2.8562 50.765 2.8562C62.1012 2.8562 71.2911 10.6586 71.2911 20.2831C71.2911 29.9077 62.1012 37.7101 50.765 37.7101C50.2951 37.7101 49.829 37.6968 49.3668 37.6703Z" fill="url(#paint5_linear_19_500)"/>
<path d="M50.7654 37.5409C52.1459 37.5409 53.5255 37.4228 54.8659 37.1899C56.172 36.963 57.4568 36.6245 58.6844 36.1836C59.8896 35.7508 61.052 35.2151 62.1393 34.5915C63.2162 33.9738 64.2288 33.2645 65.149 32.4832C66.0691 31.7021 66.9043 30.8426 67.6316 29.9287C68.3656 29.0062 68.9961 28.02 69.5054 26.9977C70.0241 25.9566 70.4224 24.8671 70.6893 23.7596C70.9632 22.6232 71.1021 21.4535 71.1021 20.2831C71.1021 19.1126 70.9632 17.943 70.6893 16.8066C70.4224 15.699 70.0241 14.6096 69.5054 13.5686C68.9961 12.5462 68.3656 11.5601 67.6316 10.6376C66.9043 9.72365 66.0691 8.86419 65.149 8.08306C64.2288 7.3018 63.2162 6.59248 62.1393 5.97482C61.052 5.35115 59.8896 4.81548 58.6844 4.38268C57.4568 3.94184 56.172 3.60325 54.8659 3.37634C53.5255 3.14347 52.1459 3.02539 50.7654 3.02539C46.716 3.02539 42.8052 4.03249 39.4559 5.93781C37.8414 6.85623 36.3906 7.96481 35.1438 9.23274C33.8891 10.5087 32.8608 11.9261 32.0873 13.4458L32.0368 13.545H31.9148H22.199C20.3849 13.545 18.6253 13.8622 16.9689 14.4877C16.1727 14.7884 15.4048 15.1606 14.6865 15.5939C13.975 16.0232 13.3059 16.5161 12.6978 17.0591C12.0897 17.6021 11.5376 18.1995 11.0569 18.8349C10.5716 19.4763 10.1548 20.1619 9.81809 20.8728C9.11748 22.3519 8.76224 23.9231 8.76224 25.5429C8.76224 27.1627 9.11748 28.7339 9.81809 30.213C10.1548 30.9239 10.5716 31.6096 11.0569 32.251C11.5376 32.8863 12.0897 33.4838 12.6978 34.0268C13.3059 34.5697 13.975 35.0627 14.6865 35.4919C15.4048 35.9252 16.1727 36.2974 16.9689 36.5981C18.6253 37.2237 20.3849 37.5409 22.199 37.5409H48.2575C48.6219 37.5409 48.9901 37.5277 49.3521 37.5017L49.3658 37.5007L49.3794 37.5014C49.8379 37.5276 50.3042 37.5409 50.7654 37.5409ZM50.7654 37.7101C50.2956 37.7101 49.8293 37.6967 49.3673 37.6703C49.0015 37.6966 48.6309 37.7101 48.2575 37.7101H22.199C14.6735 37.7101 8.57275 32.2626 8.57275 25.5429C8.57275 18.8232 14.6735 13.3758 22.199 13.3758H31.9148C35.0649 7.18678 42.3192 2.8562 50.7654 2.8562C62.1017 2.8562 71.2916 10.6586 71.2916 20.2831C71.2916 29.9077 62.1017 37.7101 50.7654 37.7101Z" fill="white" fill-opacity="0.5"/>
</g>
</g>
<defs>
<filter id="filter0_f_19_500" x="22.4632" y="28.134" width="36.8924" height="21.5705" filterUnits="userSpaceOnUse" color-interpolation-filters="sRGB">
<feFlood flood-opacity="0" result="BackgroundImageFix"/>
<feBlend mode="normal" in="SourceGraphic" in2="BackgroundImageFix" result="shape"/>
<feGaussianBlur stdDeviation="0.160122" result="effect1_foregroundBlur_19_500"/>
</filter>
<filter id="filter1_f_19_500" x="3.24494" y="3.35261" width="29.5487" height="26.6063" filterUnits="userSpaceOnUse" color-interpolation-filters="sRGB">
<feFlood flood-opacity="0" result="BackgroundImageFix"/>
<feBlend mode="normal" in="SourceGraphic" in2="BackgroundImageFix" result="shape"/>
<feGaussianBlur stdDeviation="0.160122" result="effect1_foregroundBlur_19_500"/>
</filter>
<filter id="filter2_f_19_500" x="3.37094" y="3.7396" width="17.0162" height="15.0773" filterUnits="userSpaceOnUse" color-interpolation-filters="sRGB">
<feFlood flood-opacity="0" result="BackgroundImageFix"/>
<feBlend mode="normal" in="SourceGraphic" in2="BackgroundImageFix" result="shape"/>
<feGaussianBlur stdDeviation="0.800612" result="effect1_foregroundBlur_19_500"/>
</filter>
<filter id="filter3_f_19_500" x="1.22733" y="0.158115" width="33.0849" height="27.5604" filterUnits="userSpaceOnUse" color-interpolation-filters="sRGB">
<feFlood flood-opacity="0" result="BackgroundImageFix"/>
<feBlend mode="normal" in="SourceGraphic" in2="BackgroundImageFix" result="shape"/>
<feGaussianBlur stdDeviation="0.0800612" result="effect1_foregroundBlur_19_500"/>
</filter>
<filter id="filter4_df_19_500" x="6.92026" y="0.614489" width="67.5737" height="39.6577" filterUnits="userSpaceOnUse" color-interpolation-filters="sRGB">
<feFlood flood-opacity="0" result="BackgroundImageFix"/>
<feColorMatrix in="SourceAlpha" type="matrix" values="0 0 0 0 0 0 0 0 0 0 0 0 0 0 0 0 0 0 127 0" result="hardAlpha"/>
<feOffset dx="0.800612" dy="0.160122"/>
<feGaussianBlur stdDeviation="1.20092"/>
<feColorMatrix type="matrix" values="0 0 0 0 0.258824 0 0 0 0 0.627451 0 0 0 0 0.941176 0 0 0 0.596 0"/>
<feBlend mode="normal" in2="BackgroundImageFix" result="effect1_dropShadow_19_500"/>
<feBlend mode="normal" in="SourceGraphic" in2="effect1_dropShadow_19_500" result="shape"/>
<feGaussianBlur stdDeviation="0.160122" result="effect2_foregroundBlur_19_500"/>
</filter>
<filter id="filter5_d_19_500" x="6.92026" y="0.614489" width="67.5737" height="39.6577" filterUnits="userSpaceOnUse" color-interpolation-filters="sRGB">
<feFlood flood-opacity="0" result="BackgroundImageFix"/>
<feColorMatrix in="SourceAlpha" type="matrix" values="0 0 0 0 0 0 0 0 0 0 0 0 0 0 0 0 0 0 127 0" result="hardAlpha"/>
<feOffset dx="0.800612" dy="0.160122"/>
<feGaussianBlur stdDeviation="1.20092"/>
<feColorMatrix type="matrix" values="0 0 0 0 0.501961 0 0 0 0 0.501961 0 0 0 0 0.501961 0 0 0 0.302 0"/>
<feBlend mode="normal" in2="BackgroundImageFix" result="effect1_dropShadow_19_500"/>
<feBlend mode="normal" in="SourceGraphic" in2="effect1_dropShadow_19_500" result="shape"/>
</filter>
<linearGradient id="paint0_linear_19_500" x1="10.9407" y1="0.318237" x2="10.9407" y2="3.19453" gradientUnits="userSpaceOnUse">
<stop stop-color="#6B38FC"/>
<stop offset="1" stop-color="#9F7EFD"/>
</linearGradient>
<linearGradient id="paint1_linear_19_500" x1="32.6362" y1="25.1897" x2="32.6362" y2="27.5584" gradientUnits="userSpaceOnUse">
<stop stop-color="#6B38FC"/>
<stop offset="1" stop-color="#9F7EFD"/>
</linearGradient>
<linearGradient id="paint2_linear_19_500" x1="26.1944" y1="3.6353" x2="26.7815" y2="6.08757" gradientUnits="userSpaceOnUse">
<stop stop-color="#6B38FC"/>
<stop offset="1" stop-color="#9F7EFD"/>
</linearGradient>
<linearGradient id="paint3_linear_19_500" x1="2.2628" y1="23.2607" x2="3.06403" y2="25.3743" gradientUnits="userSpaceOnUse">
<stop stop-color="#6B38FC"/>
<stop offset="1" stop-color="#9F7EFD"/>
</linearGradient>
<linearGradient id="paint4_linear_19_500" x1="25.5626" y1="12.3376" x2="23.6151" y2="11.8341" gradientUnits="userSpaceOnUse">
<stop stop-color="#6B38FC"/>
<stop offset="1" stop-color="#9F7EFD"/>
</linearGradient>
<linearGradient id="paint5_linear_19_500" x1="33.9432" y1="7.2478" x2="44.1409" y2="40.3139" gradientUnits="userSpaceOnUse">
<stop stop-color="white" stop-opacity="0.596"/>
<stop offset="1" stop-color="#F7F7F7" stop-opacity="0.204"/>
</linearGradient>
</defs>
</svg>
