<svg width="69" height="58" viewBox="0 0 69 58" fill="none" xmlns="http://www.w3.org/2000/svg">
<g filter="url(#filter0_f_19_97)">
<path d="M21.7915 35.4022C21.8905 35.483 19.7684 39.5117 18.5447 40.7676C17.321 42.0236 15.8243 42.6494 15.2013 42.1662C14.5783 41.6829 15.0645 40.2736 16.2883 39.0175C17.5121 37.7614 21.6926 35.3214 21.7915 35.4022Z" fill="#42A0F0"/>
<path d="M16.4929 39.8471C16.6137 40.0205 17.0375 39.9785 17.4396 39.7534C17.8417 39.5284 18.0697 39.2054 17.9489 39.0321C17.8281 38.8588 17.4043 38.9007 17.0022 39.1258C16.6001 39.3509 16.3721 39.6738 16.4929 39.8471Z" fill="white"/>
<path d="M34.676 35.4022C34.775 35.483 32.6529 39.5117 31.4292 40.7676C30.2055 42.0236 28.7088 42.6494 28.0858 42.1662C27.4628 41.6829 27.949 40.2736 29.1728 39.0175C30.3967 37.7614 34.5771 35.3214 34.676 35.4022Z" fill="#42A0F0"/>
<path d="M29.3781 39.8471C29.4989 40.0205 29.9228 39.9785 30.3249 39.7534C30.7269 39.5284 30.955 39.2054 30.8342 39.0321C30.7134 38.8588 30.2895 38.9007 29.8874 39.1258C29.4854 39.3509 29.2573 39.6738 29.3781 39.8471Z" fill="white"/>
<path d="M36.1924 43.8619C36.2913 43.9427 34.1693 47.9714 32.9456 49.2273C31.7219 50.4833 30.2252 51.1092 29.6022 50.6259C28.9791 50.1426 29.4654 48.7333 30.6892 47.4772C31.913 46.2211 36.0934 43.7811 36.1924 43.8619Z" fill="#42A0F0"/>
<path d="M30.894 48.3069C31.0148 48.4802 31.4387 48.4382 31.8407 48.2132C32.2428 47.9881 32.4708 47.6651 32.3501 47.4918C32.2293 47.3185 31.8054 47.3604 31.4033 47.5855C31.0012 47.8106 30.7732 48.1335 30.894 48.3069Z" fill="white"/>
<path d="M51.9194 43.8619C52.0184 43.9427 49.8963 47.9714 48.6726 49.2273C47.4489 50.4833 45.9523 51.1092 45.3292 50.6259C44.7062 50.1426 45.1924 48.7333 46.4163 47.4772C47.6401 46.2211 51.8205 43.7811 51.9194 43.8619Z" fill="#42A0F0"/>
<path d="M46.6208 48.3069C46.7416 48.4802 47.1655 48.4382 47.5675 48.2132C47.9696 47.9881 48.1977 47.6651 48.0769 47.4918C47.9561 47.3185 47.5322 47.3604 47.1301 47.5855C46.728 47.8106 46.5 48.1335 46.6208 48.3069Z" fill="white"/>
<path d="M40.5503 49.9527C40.6493 50.0335 38.5272 54.0622 37.3035 55.3182C36.0798 56.5741 34.5831 57.2 33.9601 56.7167C33.337 56.2335 33.8233 54.8241 35.0471 53.568C36.2709 52.3119 40.4513 49.8719 40.5503 49.9527Z" fill="#42A0F0"/>
<path d="M35.2519 54.3977C35.3727 54.571 35.7966 54.529 36.1986 54.304C36.6007 54.0789 36.8288 53.7559 36.708 53.5826C36.5872 53.4093 36.1633 53.4513 35.7612 53.6763C35.3591 53.9014 35.1311 54.2244 35.2519 54.3977Z" fill="white"/>
<path d="M26.1494 49.9527C26.2484 50.0335 24.1263 54.0622 22.9026 55.3182C21.6789 56.5741 20.1822 57.2 19.5592 56.7167C18.9362 56.2335 19.4224 54.8241 20.6462 53.568C21.87 52.3119 26.0505 49.8719 26.1494 49.9527Z" fill="#42A0F0"/>
<path d="M20.8515 54.3977C20.9723 54.571 21.3962 54.529 21.7983 54.304C22.2003 54.0789 22.4284 53.7559 22.3076 53.5826C22.1868 53.4093 21.7629 53.4513 21.3608 53.6763C20.9588 53.9014 20.7307 54.2244 20.8515 54.3977Z" fill="white"/>
</g>
<path d="M19.8325 42.6418H23.7264L21.4878 45.577L24.1052 45.6213L18.6124 51.4271L19.9426 47.0006H17.5059L19.8325 42.6418Z" fill="url(#paint0_linear_19_97)"/>
<path d="M42.5706 37.3967H46.4644L44.2259 40.3319L46.8432 40.3762L41.3505 46.1819L42.6806 41.7555H40.2439L42.5706 37.3967Z" fill="url(#paint1_linear_19_97)"/>
<g filter="url(#filter1_f_19_97)">
<path d="M22.7651 28.5045C30.4568 28.5045 36.6921 22.9368 36.6921 16.0688C36.6921 9.20072 30.4568 3.63306 22.7651 3.63306C15.0735 3.63306 8.83813 9.20072 8.83813 16.0688C8.83813 22.9368 15.0735 28.5045 22.7651 28.5045Z" fill="#FA9E42"/>
</g>
<g filter="url(#filter2_f_19_97)">
<path fill-rule="evenodd" clip-rule="evenodd" d="M22.7262 0.356483L22.7653 0.356445L22.8044 0.356483C23.0255 0.356915 23.2043 0.536487 23.2039 0.75757C23.2035 0.978652 23.0239 1.15753 22.8028 1.15709L22.7653 1.15706L22.7278 1.15709C22.5067 1.15753 22.3271 0.978652 22.3267 0.75757C22.3263 0.536488 22.5051 0.356915 22.7262 0.356483ZM27.3863 1.31469C27.4443 1.10136 27.6643 0.975502 27.8777 1.03357L27.9524 1.05408C28.1655 1.11302 28.2905 1.33353 28.2315 1.54661C28.1726 1.75969 27.9521 1.88466 27.739 1.82572L27.6674 1.80607C27.4541 1.74801 27.3282 1.52801 27.3863 1.31469ZM18.1443 1.31469C18.2024 1.52801 18.0765 1.74801 17.8632 1.80607L17.7916 1.82572C17.5785 1.88466 17.358 1.7597 17.2991 1.54661C17.2401 1.33353 17.3651 1.11302 17.5782 1.05408L17.6529 1.03357C17.8663 0.975503 18.0863 1.10136 18.1443 1.31469ZM13.4263 3.21922C13.5417 3.40781 13.4824 3.65423 13.2938 3.7696L13.2302 3.80866C13.0422 3.92486 12.7955 3.86658 12.6793 3.6785C12.5631 3.49042 12.6214 3.24375 12.8094 3.12755L12.876 3.08665C13.0646 2.97128 13.311 3.03063 13.4263 3.21922ZM32.1042 3.21922C32.2196 3.03063 32.466 2.97128 32.6546 3.08665L32.7211 3.12755C32.9092 3.24375 32.9675 3.49042 32.8513 3.6785C32.7351 3.86658 32.4884 3.92486 32.3003 3.80866L32.2368 3.7696C32.0482 3.65423 31.9889 3.40781 32.1042 3.21922ZM9.45953 6.40132C9.62657 6.54614 9.64459 6.79896 9.49977 6.96601L9.45132 7.02217C9.30731 7.18991 9.05458 7.20915 8.88683 7.06514C8.71909 6.92113 8.69985 6.6684 8.84386 6.50065L8.89484 6.44156C9.03966 6.27452 9.29248 6.2565 9.45953 6.40132ZM36.0711 6.40132C36.2381 6.2565 36.4909 6.27452 36.6357 6.44156L36.6867 6.50065C36.8307 6.6684 36.8115 6.92113 36.6438 7.06514C36.476 7.20915 36.2233 7.18991 36.0793 7.02217L36.0308 6.96601C35.886 6.79896 35.904 6.54614 36.0711 6.40132ZM6.70672 10.6713C6.91277 10.7514 7.01485 10.9834 6.93473 11.1894L6.9081 11.2585C6.82909 11.465 6.59765 11.5683 6.39117 11.4893C6.18468 11.4103 6.08135 11.1788 6.16036 10.9724L6.18855 10.8993C6.26867 10.6932 6.50066 10.5911 6.70672 10.6713ZM38.8239 10.6713C39.0299 10.5911 39.2619 10.6932 39.342 10.8993L39.3702 10.9724C39.4492 11.1788 39.3459 11.4103 39.1394 11.4893C38.9329 11.5683 38.7015 11.465 38.6225 11.2585L38.5959 11.1894C38.5157 10.9834 38.6178 10.7514 38.8239 10.6713ZM5.61825 15.6302C5.83933 15.6308 6.01807 15.8105 6.01746 16.0316L6.01741 16.0688L6.01746 16.106C6.01807 16.327 5.83933 16.5068 5.61825 16.5074C5.39717 16.508 5.21746 16.3292 5.21685 16.1082L5.2168 16.0688L5.21685 16.0294C5.21746 15.8083 5.39717 15.6296 5.61825 15.6302ZM39.9123 15.6302C40.1334 15.6296 40.3131 15.8083 40.3137 16.0294L40.3138 16.0688L40.3137 16.1082C40.3131 16.3292 40.1334 16.508 39.9123 16.5074C39.6913 16.5068 39.5125 16.327 39.5131 16.106L39.5132 16.0688L39.5131 16.0316C39.5125 15.8105 39.6913 15.6308 39.9123 15.6302ZM6.39117 20.6483C6.59765 20.5692 6.82909 20.6726 6.9081 20.8791L6.93473 20.9481C7.01485 21.1542 6.91277 21.3861 6.70672 21.4663C6.50066 21.5464 6.26867 21.4443 6.18855 21.2383L6.16036 21.1652C6.08135 20.9587 6.18468 20.7273 6.39117 20.6483ZM39.1394 20.6483C39.3459 20.7273 39.4492 20.9587 39.3702 21.1652L39.342 21.2383C39.2619 21.4443 39.0299 21.5464 38.8239 21.4663C38.6178 21.3861 38.5157 21.1542 38.5959 20.9481L38.6225 20.8791C38.7015 20.6726 38.9329 20.5692 39.1394 20.6483ZM8.88683 25.0724C9.05458 24.9284 9.30731 24.9476 9.45132 25.1154L9.49977 25.1715C9.64459 25.3386 9.62657 25.5914 9.45953 25.7362C9.29248 25.881 9.03966 25.863 8.89484 25.696L8.84386 25.6369C8.69985 25.4691 8.71909 25.2164 8.88683 25.0724ZM36.6438 25.0724C36.8115 25.2164 36.8307 25.4691 36.6867 25.6369L36.6357 25.696C36.4909 25.863 36.2381 25.881 36.0711 25.7362C35.904 25.5914 35.886 25.3386 36.0308 25.1715L36.0793 25.1154C36.2233 24.9476 36.476 24.9284 36.6438 25.0724ZM12.6793 28.459C12.7955 28.271 13.0422 28.2127 13.2302 28.3289L13.2938 28.3679C13.4824 28.4833 13.5417 28.7297 13.4263 28.9183C13.311 29.1069 13.0646 29.1663 12.876 29.0509L12.8094 29.01C12.6214 28.8938 12.5631 28.6471 12.6793 28.459ZM32.8513 28.459C32.9675 28.6471 32.9092 28.8938 32.7211 29.01L32.6546 29.0509C32.466 29.1663 32.2196 29.1069 32.1042 28.9183C31.9889 28.7297 32.0482 28.4833 32.2368 28.3679L32.3003 28.3289C32.4884 28.2127 32.7351 28.271 32.8513 28.459ZM17.2991 30.5909C17.358 30.3778 17.5785 30.2529 17.7916 30.3118L17.8632 30.3315C18.0765 30.3895 18.2024 30.6095 18.1443 30.8229C18.0863 31.0362 17.8663 31.162 17.6529 31.104L17.5782 31.0835C17.3651 31.0245 17.2401 30.804 17.2991 30.5909ZM28.2315 30.5909C28.2905 30.804 28.1655 31.0245 27.9524 31.0835L27.8777 31.104C27.6643 31.162 27.4443 31.0362 27.3863 30.8229C27.3282 30.6095 27.4541 30.3895 27.6674 30.3315L27.739 30.3118C27.9521 30.2529 28.1726 30.3778 28.2315 30.5909ZM22.3267 31.38C22.3271 31.1589 22.5067 30.98 22.7278 30.9804L22.7653 30.9805L22.8028 30.9804C23.0239 30.98 23.2035 31.1589 23.2039 31.38C23.2043 31.6011 23.0255 31.7806 22.8044 31.7811L22.7653 31.7811L22.7262 31.7811C22.5051 31.7806 22.3263 31.6011 22.3267 31.38Z" fill="#FA9E42"/>
</g>
<g filter="url(#filter3_f_19_97)">
<path d="M21.2775 13.5856C26.1552 11.2722 28.9145 7.38793 27.4404 4.90982C25.9663 2.43171 20.8171 2.29817 15.9394 4.61155C11.0616 6.92493 8.30239 10.8092 9.77647 13.2873C11.2505 15.7654 16.3997 15.899 21.2775 13.5856Z" fill="#F8E36F"/>
</g>
<g filter="url(#filter4_df_19_97)">
<g filter="url(#filter5_d_19_97)">
<path d="M42.9107 40.6466C42.5444 40.6729 42.1745 40.6862 41.8009 40.6864H15.7425C13.9488 40.6924 12.1715 40.3821 10.5124 39.7733C8.8533 39.1645 7.34516 38.2692 6.07445 37.1388C4.80375 36.0084 3.7955 34.6651 3.10753 33.1859C2.41957 31.7068 2.06543 30.1209 2.06543 28.5193C2.06543 26.9176 2.41957 25.3317 3.10753 23.8526C3.7955 22.3734 4.80375 21.0301 6.07445 19.8997C7.34516 18.7693 8.8533 17.874 10.5124 17.2652C12.1715 16.6565 13.9488 16.3462 15.7425 16.3521H25.4584C28.6084 10.1639 35.8631 5.83252 44.3089 5.83252C55.6451 5.83252 64.835 13.6349 64.835 23.2595C64.835 32.884 55.6451 40.6864 44.3089 40.6864C43.839 40.6864 43.373 40.6731 42.9107 40.6466Z" fill="url(#paint2_linear_19_97)"/>
<path d="M44.3096 40.5172C45.6901 40.5172 47.0697 40.3991 48.4101 40.1663C49.7162 39.9394 51.001 39.6008 52.2286 39.1599C53.4338 38.7271 54.5962 38.1914 55.6835 37.5678C56.7604 36.9501 57.773 36.2408 58.6932 35.4595C59.6133 34.6784 60.4485 33.8189 61.1758 32.905C61.9098 31.9825 62.5403 30.9964 63.0496 29.974C63.5682 28.9329 63.9666 27.8435 64.2335 26.7359C64.5074 25.5995 64.6463 24.4298 64.6463 23.2594C64.6463 22.089 64.5074 20.9193 64.2335 19.7829C63.9666 18.6754 63.5682 17.5859 63.0496 16.5449C62.5403 15.5225 61.9098 14.5364 61.1758 13.6139C60.4485 12.7 59.6133 11.8405 58.6932 11.0594C57.773 10.2781 56.7604 9.5688 55.6835 8.95114C54.5962 8.32747 53.4338 7.7918 52.2286 7.359C51.001 6.91816 49.7162 6.57957 48.4101 6.35266C47.0697 6.11979 45.6901 6.00171 44.3096 6.00171C40.2602 6.00171 36.3494 7.00881 33.0001 8.91413C31.3856 9.83255 29.9348 10.9411 28.688 12.2091C27.4333 13.485 26.405 14.9025 25.6315 16.4221L25.581 16.5213H25.459H15.7432C13.9291 16.5213 12.1695 16.8385 10.513 17.4641C9.71691 17.7648 8.94901 18.1369 8.2307 18.5702C7.51916 18.9995 6.85006 19.4924 6.24197 20.0354C5.63388 20.5784 5.08181 21.1758 4.6011 21.8112C4.11582 22.4526 3.69902 23.1383 3.36228 23.8491C2.66167 25.3282 2.30643 26.8995 2.30643 28.5192C2.30643 30.139 2.66167 31.7103 3.36228 33.1893C3.69902 33.9002 4.11582 34.5859 4.6011 35.2273C5.08181 35.8626 5.63388 36.4601 6.24197 37.0031C6.85006 37.5461 7.51916 38.039 8.2307 38.4682C8.94901 38.9016 9.71691 39.2737 10.513 39.5744C12.1695 40.2 13.9291 40.5172 15.7432 40.5172H41.8017C42.166 40.5172 42.5343 40.504 42.8963 40.478L42.91 40.477L42.9236 40.4778C43.382 40.5039 43.8483 40.5172 44.3096 40.5172ZM44.3096 40.6864C43.8398 40.6864 43.3735 40.673 42.9115 40.6466C42.5457 40.6729 42.1751 40.6864 41.8017 40.6864H15.7432C8.21764 40.6864 2.11694 35.2389 2.11694 28.5192C2.11694 21.7995 8.21764 16.3521 15.7432 16.3521H25.459C28.6091 10.1631 35.8634 5.83252 44.3096 5.83252C55.6458 5.83252 64.8358 13.6349 64.8358 23.2594C64.8358 32.884 55.6458 40.6864 44.3096 40.6864Z" fill="white" fill-opacity="0.5"/>
</g>
</g>
<defs>
<filter id="filter0_f_19_97" x="14.6097" y="35.0799" width="37.6334" height="22.1202" filterUnits="userSpaceOnUse" color-interpolation-filters="sRGB">
<feFlood flood-opacity="0" result="BackgroundImageFix"/>
<feBlend mode="normal" in="SourceGraphic" in2="BackgroundImageFix" result="shape"/>
<feGaussianBlur stdDeviation="0.160122" result="effect1_foregroundBlur_19_97"/>
</filter>
<filter id="filter1_f_19_97" x="8.51789" y="3.31281" width="28.4945" height="25.5118" filterUnits="userSpaceOnUse" color-interpolation-filters="sRGB">
<feFlood flood-opacity="0" result="BackgroundImageFix"/>
<feBlend mode="normal" in="SourceGraphic" in2="BackgroundImageFix" result="shape"/>
<feGaussianBlur stdDeviation="0.160122" result="effect1_foregroundBlur_19_97"/>
</filter>
<filter id="filter2_f_19_97" x="5.05667" y="0.196323" width="35.4172" height="31.7448" filterUnits="userSpaceOnUse" color-interpolation-filters="sRGB">
<feFlood flood-opacity="0" result="BackgroundImageFix"/>
<feBlend mode="normal" in="SourceGraphic" in2="BackgroundImageFix" result="shape"/>
<feGaussianBlur stdDeviation="0.0800612" result="effect1_foregroundBlur_19_97"/>
</filter>
<filter id="filter3_f_19_97" x="7.77842" y="1.35898" width="21.6602" height="15.4791" filterUnits="userSpaceOnUse" color-interpolation-filters="sRGB">
<feFlood flood-opacity="0" result="BackgroundImageFix"/>
<feBlend mode="normal" in="SourceGraphic" in2="BackgroundImageFix" result="shape"/>
<feGaussianBlur stdDeviation="0.800612" result="effect1_foregroundBlur_19_97"/>
</filter>
<filter id="filter4_df_19_97" x="0.464206" y="3.59081" width="67.5739" height="39.6577" filterUnits="userSpaceOnUse" color-interpolation-filters="sRGB">
<feFlood flood-opacity="0" result="BackgroundImageFix"/>
<feColorMatrix in="SourceAlpha" type="matrix" values="0 0 0 0 0 0 0 0 0 0 0 0 0 0 0 0 0 0 127 0" result="hardAlpha"/>
<feOffset dx="0.800612" dy="0.160122"/>
<feGaussianBlur stdDeviation="1.20092"/>
<feColorMatrix type="matrix" values="0 0 0 0 0.258824 0 0 0 0 0.627451 0 0 0 0 0.941176 0 0 0 0.596 0"/>
<feBlend mode="normal" in2="BackgroundImageFix" result="effect1_dropShadow_19_97"/>
<feBlend mode="normal" in="SourceGraphic" in2="effect1_dropShadow_19_97" result="shape"/>
<feGaussianBlur stdDeviation="0.160122" result="effect2_foregroundBlur_19_97"/>
</filter>
<filter id="filter5_d_19_97" x="0.464206" y="3.59081" width="67.5739" height="39.6577" filterUnits="userSpaceOnUse" color-interpolation-filters="sRGB">
<feFlood flood-opacity="0" result="BackgroundImageFix"/>
<feColorMatrix in="SourceAlpha" type="matrix" values="0 0 0 0 0 0 0 0 0 0 0 0 0 0 0 0 0 0 127 0" result="hardAlpha"/>
<feOffset dx="0.800612" dy="0.160122"/>
<feGaussianBlur stdDeviation="1.20092"/>
<feColorMatrix type="matrix" values="0 0 0 0 0.501961 0 0 0 0 0.501961 0 0 0 0 0.501961 0 0 0 0.302 0"/>
<feBlend mode="normal" in2="BackgroundImageFix" result="effect1_dropShadow_19_97"/>
<feBlend mode="normal" in="SourceGraphic" in2="effect1_dropShadow_19_97" result="shape"/>
</filter>
<linearGradient id="paint0_linear_19_97" x1="20.1984" y1="47.0344" x2="17.2059" y2="45.8058" gradientUnits="userSpaceOnUse">
<stop stop-color="#FFD100"/>
<stop offset="1" stop-color="#FFF0AA"/>
</linearGradient>
<linearGradient id="paint1_linear_19_97" x1="42.9364" y1="41.7893" x2="39.944" y2="40.5607" gradientUnits="userSpaceOnUse">
<stop stop-color="#FFD100"/>
<stop offset="1" stop-color="#FFF0AA"/>
</linearGradient>
<linearGradient id="paint2_linear_19_97" x1="27.4871" y1="10.2241" x2="37.6849" y2="43.2902" gradientUnits="userSpaceOnUse">
<stop stop-color="white" stop-opacity="0.596"/>
<stop offset="1" stop-color="#F7F7F7" stop-opacity="0.204"/>
</linearGradient>
</defs>
</svg>
