<svg width="73" height="49" viewBox="0 0 73 49" fill="none" xmlns="http://www.w3.org/2000/svg">
<g filter="url(#filter0_f_19_946)">
<path fill-rule="evenodd" clip-rule="evenodd" d="M48.5539 24.4734C49.5355 24.1062 50.6957 24.0532 52.0318 24.4973C54.7196 25.3907 56.0957 27.6724 56.0967 29.9228C56.0977 32.1799 54.7116 34.3918 51.9905 35.0971C49.4841 35.7467 45.4713 35.9265 42.1453 35.9516C40.4698 35.9642 38.947 35.9375 37.8433 35.9076C37.2913 35.8926 36.8436 35.8768 36.5336 35.8648C36.3786 35.8588 36.258 35.8537 36.1759 35.8501L36.0822 35.8459L36.05 35.8444C36.0499 35.8444 36.0493 35.8444 36.0802 35.2046L36.1111 34.5649L36.1411 34.5663L36.2319 34.5704C36.312 34.5739 36.4305 34.5789 36.5833 34.5848C36.8889 34.5967 37.3315 34.6122 37.878 34.6271C38.9713 34.6567 40.4787 34.6832 42.1357 34.6707C45.4749 34.6455 49.3368 34.4616 51.6691 33.8571C53.7866 33.3083 54.8165 31.6372 54.8157 29.9234C54.815 28.2028 53.7718 26.4255 51.6278 25.7129C50.548 25.354 49.6898 25.4161 49.0027 25.6732C48.304 25.9346 47.7311 26.4174 47.2703 26.9765C46.8095 27.5356 46.4796 28.1484 46.2639 28.6285C46.1569 28.867 46.0798 29.0685 46.0301 29.2086C46.0052 29.2785 45.9873 29.3327 45.976 29.3682C45.9704 29.3859 45.9664 29.399 45.964 29.4069L45.9616 29.4149M45.9616 29.4149C45.8635 29.7545 45.5087 29.951 45.1689 29.8532C44.829 29.7553 44.6327 29.4004 44.7306 29.0605L45.3461 29.2377C44.7306 29.0605 44.7305 29.0608 44.7306 29.0605L44.7315 29.0574L44.733 29.0522L44.738 29.0356C44.7421 29.0219 44.748 29.0029 44.7556 28.979C44.7708 28.9312 44.7931 28.8638 44.8229 28.7799C44.8824 28.6124 44.9721 28.3782 45.0954 28.1037C45.3405 27.558 45.7256 26.8366 46.2818 26.1618C46.8379 25.487 47.584 24.8363 48.5539 24.4734M35.4405 35.1738C35.4575 34.8204 35.7578 34.5478 36.1111 34.5649L36.0802 35.2046L36.05 35.8444C35.6967 35.8274 35.4234 35.5271 35.4405 35.1738Z" fill="#D0D0D0"/>
<path fill-rule="evenodd" clip-rule="evenodd" d="M17.3638 42.8773C17.3637 42.8773 17.3637 42.8773 17.3122 42.2389C17.2606 41.6004 17.2607 41.6004 17.2609 41.6004L17.3091 41.5966L17.449 41.5857C17.5718 41.5763 17.7524 41.5626 17.9846 41.5458C18.449 41.5121 19.1201 41.4654 19.9477 41.4136C21.6026 41.3099 23.8851 41.1855 26.395 41.1026C31.3921 40.9374 37.3658 40.9331 41.0582 41.6088C42.9123 41.9481 44.2301 42.4576 45.0869 43.082C45.9552 43.7147 46.4036 44.5148 46.328 45.3724C46.2555 46.1956 45.7143 46.8792 45.0343 47.3454C44.3447 47.8183 43.4422 48.122 42.4768 48.1709C40.6369 48.264 38.8934 47.7721 37.6301 47.2736C36.9944 47.0228 36.4701 46.7662 36.1032 46.5715C35.9195 46.474 35.7747 46.3916 35.6744 46.3328C35.6243 46.3034 35.5852 46.2799 35.5579 46.2632L35.526 46.2434L35.5168 46.2377L35.5139 46.2359L35.5129 46.2353C35.5128 46.2352 35.5122 46.2348 35.8182 45.7536L35.5129 46.2353C35.2144 46.0455 35.1256 45.6492 35.3154 45.3507C35.5051 45.0523 35.9006 44.9641 36.1991 45.1535L36.2041 45.1567L36.2265 45.1705C36.2472 45.1832 36.2795 45.2027 36.3225 45.2279C36.4085 45.2783 36.5375 45.3517 36.7038 45.44C37.0368 45.6168 37.5172 45.8519 38.1002 46.082C39.2746 46.5454 40.8253 46.9719 42.412 46.8916C43.1598 46.8537 43.8302 46.6179 44.3099 46.289C44.7994 45.9534 45.0244 45.5728 45.052 45.26C45.0765 44.9815 44.9589 44.5737 44.3325 44.1172C43.6945 43.6523 42.5886 43.1911 40.8276 42.8689C37.2897 42.2215 31.448 42.2172 26.4373 42.3828C23.9433 42.4653 21.6738 42.5889 20.0277 42.692C19.2048 42.7436 18.5381 42.7899 18.0774 42.8234C17.847 42.8401 17.6682 42.8536 17.5472 42.8629L17.4097 42.8736L17.3638 42.8773ZM16.6737 42.2904C16.6453 41.9378 16.9083 41.6289 17.2609 41.6004L17.3122 42.2389L17.3638 42.8773C17.0112 42.9057 16.7022 42.6429 16.6737 42.2904Z" fill="#D0D0D0"/>
<path fill-rule="evenodd" clip-rule="evenodd" d="M51.5791 42.2283C51.5791 41.8745 51.8659 41.5878 52.2196 41.5878H58.7401C59.0938 41.5878 59.3806 41.8745 59.3806 42.2283C59.3806 42.582 59.0938 42.8687 58.7401 42.8687H52.2196C51.8659 42.8687 51.5791 42.582 51.5791 42.2283Z" fill="#D0D0D0"/>
</g>
<g filter="url(#filter1_f_19_946)">
<path d="M17.739 29.668C14.8672 29.6713 12.0609 28.9019 9.68598 27.4602C7.52906 26.1551 5.8057 24.3553 4.69705 22.2499C3.58839 20.1446 3.1354 17.8114 3.38567 15.4957C3.63595 13.18 4.58026 10.9672 6.11933 9.09C7.6584 7.2128 9.73541 5.74048 12.132 4.82781C13.905 4.1545 15.8124 3.80916 17.739 3.81265C18.3012 3.8127 18.863 3.84185 19.4214 3.89995C19.0957 4.53592 18.8464 5.20097 18.6779 5.88392C18.5047 6.58868 18.4175 7.3081 18.4177 8.02963C18.4144 10.0098 19.0767 11.9452 20.319 13.5854C21.1197 14.6434 22.14 15.5545 23.3248 16.2695C23.9203 16.6287 24.5533 16.9355 25.215 17.1857C26.5854 17.7036 28.0588 17.9691 29.5468 17.9665C30.408 17.9669 31.2664 17.8784 32.1048 17.7029C31.9072 20.1347 30.9419 22.4667 29.3209 24.4287C28.7966 25.0635 28.2087 25.6545 27.5644 26.1942C24.9053 28.4287 21.3904 29.6714 17.739 29.668Z" fill="#713FFD"/>
</g>
<g filter="url(#filter2_f_19_946)">
<path d="M15.2042 14.9622C18.4377 12.3625 19.4443 8.65374 17.4524 6.67847C15.4606 4.7032 11.2247 5.20939 7.9912 7.80908C4.75773 10.4088 3.75116 14.1175 5.74298 16.0928C7.7348 18.068 11.9707 17.5619 15.2042 14.9622Z" fill="#A586FC"/>
</g>
<g filter="url(#filter3_f_19_946)">
<path d="M10.7388 0.47229L11.22 1.53313L12.5212 1.92549L11.22 2.31785L10.7388 3.3787L10.2575 2.31785L8.9563 1.92549L10.2575 1.53313L10.7388 0.47229Z" fill="url(#paint0_linear_19_946)"/>
<path d="M32.2833 25.2458L32.6812 26.1047L33.7561 26.4223L32.6808 26.7398L32.2829 27.5987L31.8857 26.7398L30.8108 26.4223L31.8857 26.1047L32.2833 25.2458Z" fill="url(#paint1_linear_19_946)"/>
<path d="M25.8523 3.77533L26.5203 4.55686L27.7108 4.62013L26.7154 5.2067L26.5748 6.18184L25.9068 5.40031L24.7163 5.33704L25.7116 4.75046L25.8523 3.77533Z" fill="url(#paint2_linear_19_946)"/>
<path d="M2.02241 23.3171L2.7428 23.9226L3.86373 23.8226L3.00428 24.4734L2.99172 25.3567L2.27132 24.7512L1.15109 24.8509L2.01019 24.2003L2.02241 23.3171Z" fill="url(#paint3_linear_19_946)"/>
<path d="M25.2225 12.4404L24.4307 12.584L23.9619 13.3169L23.9004 12.4747L23.2592 12.0357L24.0511 11.8921L24.5198 11.1592L24.5813 12.0014L25.2225 12.4404Z" fill="url(#paint4_linear_19_946)"/>
</g>
<g filter="url(#filter4_df_19_946)">
<g filter="url(#filter5_d_19_946)">
<path d="M47.4269 38.6703C47.0605 38.6966 46.6906 38.7099 46.3171 38.7101H20.2586C18.4649 38.716 16.6876 38.4057 15.0285 37.797C13.3694 37.1882 11.8613 36.2929 10.5906 35.1625C9.31987 34.0321 8.31161 32.6888 7.62365 31.2096C6.93568 29.7305 6.58154 28.1446 6.58154 26.5429C6.58154 24.9413 6.93568 23.3554 7.62365 21.8763C8.31161 20.3971 9.31987 19.0538 10.5906 17.9234C11.8613 16.793 13.3694 15.8977 15.0285 15.2889C16.6876 14.6801 18.4649 14.3698 20.2586 14.3758H29.9745C33.1245 8.18756 40.3792 3.8562 48.8251 3.8562C60.1612 3.8562 69.3512 11.6586 69.3512 21.2831C69.3512 30.9077 60.1612 38.7101 48.8251 38.7101C48.3551 38.7101 47.8891 38.6968 47.4269 38.6703Z" fill="url(#paint5_linear_19_946)"/>
<path d="M48.8249 38.5409C50.2055 38.5409 51.5851 38.4228 52.9255 38.1899C54.2316 37.963 55.5163 37.6245 56.744 37.1836C57.9492 36.7508 59.1116 36.2151 60.1989 35.5915C61.2758 34.9738 62.2884 34.2645 63.2086 33.4832C64.1286 32.7021 64.9639 31.8426 65.6911 30.9287C66.4252 30.0062 67.0556 29.02 67.565 27.9977C68.0836 26.9566 68.482 25.8671 68.7489 24.7596C69.0228 23.6232 69.1617 22.4535 69.1617 21.2831C69.1617 20.1126 69.0228 18.943 68.7489 17.8066C68.482 16.699 68.0836 15.6096 67.565 14.5686C67.0556 13.5462 66.4252 12.5601 65.6911 11.6376C64.9639 10.7237 64.1286 9.86419 63.2086 9.08306C62.2884 8.3018 61.2758 7.59248 60.1989 6.97482C59.1116 6.35115 57.9492 5.81548 56.744 5.38268C55.5163 4.94184 54.2316 4.60325 52.9255 4.37634C51.5851 4.14347 50.2055 4.02539 48.8249 4.02539C44.7755 4.02539 40.8648 5.03249 37.5154 6.93781C35.901 7.85623 34.4502 8.96481 33.2034 10.2327C31.9487 11.5087 30.9204 12.9261 30.1469 14.4458L30.0964 14.545H29.9744H20.2585C18.4445 14.545 16.6849 14.8622 15.0284 15.4877C14.2323 15.7884 13.4644 16.1606 12.7461 16.5939C12.0345 17.0232 11.3654 17.5161 10.7573 18.0591C10.1493 18.6021 9.59719 19.1995 9.11648 19.8349C8.6312 20.4763 8.2144 21.1619 7.87766 21.8728C7.17705 23.3519 6.82181 24.9231 6.82181 26.5429C6.82181 28.1627 7.17705 29.7339 7.87766 31.213C8.2144 31.9239 8.6312 32.6096 9.11648 33.251C9.59719 33.8863 10.1493 34.4838 10.7573 35.0268C11.3654 35.5697 12.0345 36.0627 12.7461 36.4919C13.4644 36.9252 14.2323 37.2974 15.0284 37.5981C16.6849 38.2237 18.4445 38.5409 20.2585 38.5409H46.3171C46.6814 38.5409 47.0497 38.5277 47.4117 38.5017L47.4253 38.5007L47.439 38.5014C47.8974 38.5276 48.3637 38.5409 48.8249 38.5409ZM48.8249 38.7101C48.3551 38.7101 47.8888 38.6967 47.4269 38.6703C47.0611 38.6966 46.6905 38.7101 46.3171 38.7101H20.2585C12.733 38.7101 6.63232 33.2626 6.63232 26.5429C6.63232 19.8232 12.733 14.3758 20.2585 14.3758H29.9744C33.1245 8.18678 40.3788 3.8562 48.8249 3.8562C60.1612 3.8562 69.3512 11.6586 69.3512 21.2831C69.3512 30.9077 60.1612 38.7101 48.8249 38.7101Z" fill="white" fill-opacity="0.5"/>
</g>
</g>
<defs>
<filter id="filter0_f_19_946" x="16.3514" y="23.8608" width="43.3495" height="24.6418" filterUnits="userSpaceOnUse" color-interpolation-filters="sRGB">
<feFlood flood-opacity="0" result="BackgroundImageFix"/>
<feBlend mode="normal" in="SourceGraphic" in2="BackgroundImageFix" result="shape"/>
<feGaussianBlur stdDeviation="0.160122" result="effect1_foregroundBlur_19_946"/>
</filter>
<filter id="filter1_f_19_946" x="2.99836" y="3.49238" width="29.4266" height="26.4958" filterUnits="userSpaceOnUse" color-interpolation-filters="sRGB">
<feFlood flood-opacity="0" result="BackgroundImageFix"/>
<feBlend mode="normal" in="SourceGraphic" in2="BackgroundImageFix" result="shape"/>
<feGaussianBlur stdDeviation="0.160122" result="effect1_foregroundBlur_19_946"/>
</filter>
<filter id="filter2_f_19_946" x="3.11924" y="3.87229" width="16.9571" height="15.0267" filterUnits="userSpaceOnUse" color-interpolation-filters="sRGB">
<feFlood flood-opacity="0" result="BackgroundImageFix"/>
<feBlend mode="normal" in="SourceGraphic" in2="BackgroundImageFix" result="shape"/>
<feGaussianBlur stdDeviation="0.800612" result="effect1_foregroundBlur_19_946"/>
</filter>
<filter id="filter3_f_19_946" x="0.991001" y="0.312168" width="32.9252" height="27.4466" filterUnits="userSpaceOnUse" color-interpolation-filters="sRGB">
<feFlood flood-opacity="0" result="BackgroundImageFix"/>
<feBlend mode="normal" in="SourceGraphic" in2="BackgroundImageFix" result="shape"/>
<feGaussianBlur stdDeviation="0.0800612" result="effect1_foregroundBlur_19_946"/>
</filter>
<filter id="filter4_df_19_946" x="4.98032" y="1.61449" width="67.5732" height="39.6577" filterUnits="userSpaceOnUse" color-interpolation-filters="sRGB">
<feFlood flood-opacity="0" result="BackgroundImageFix"/>
<feColorMatrix in="SourceAlpha" type="matrix" values="0 0 0 0 0 0 0 0 0 0 0 0 0 0 0 0 0 0 127 0" result="hardAlpha"/>
<feOffset dx="0.800612" dy="0.160122"/>
<feGaussianBlur stdDeviation="1.20092"/>
<feColorMatrix type="matrix" values="0 0 0 0 0.258824 0 0 0 0 0.627451 0 0 0 0 0.941176 0 0 0 0.596 0"/>
<feBlend mode="normal" in2="BackgroundImageFix" result="effect1_dropShadow_19_946"/>
<feBlend mode="normal" in="SourceGraphic" in2="effect1_dropShadow_19_946" result="shape"/>
<feGaussianBlur stdDeviation="0.160122" result="effect2_foregroundBlur_19_946"/>
</filter>
<filter id="filter5_d_19_946" x="4.98032" y="1.61449" width="67.5732" height="39.6577" filterUnits="userSpaceOnUse" color-interpolation-filters="sRGB">
<feFlood flood-opacity="0" result="BackgroundImageFix"/>
<feColorMatrix in="SourceAlpha" type="matrix" values="0 0 0 0 0 0 0 0 0 0 0 0 0 0 0 0 0 0 127 0" result="hardAlpha"/>
<feOffset dx="0.800612" dy="0.160122"/>
<feGaussianBlur stdDeviation="1.20092"/>
<feColorMatrix type="matrix" values="0 0 0 0 0.501961 0 0 0 0 0.501961 0 0 0 0 0.501961 0 0 0 0.302 0"/>
<feBlend mode="normal" in2="BackgroundImageFix" result="effect1_dropShadow_19_946"/>
<feBlend mode="normal" in="SourceGraphic" in2="effect1_dropShadow_19_946" result="shape"/>
</filter>
<linearGradient id="paint0_linear_19_946" x1="10.7388" y1="0.47229" x2="10.7388" y2="3.3787" gradientUnits="userSpaceOnUse">
<stop stop-color="#6B38FC"/>
<stop offset="1" stop-color="#9F7EFD"/>
</linearGradient>
<linearGradient id="paint1_linear_19_946" x1="32.2835" y1="25.2458" x2="32.2835" y2="27.5987" gradientUnits="userSpaceOnUse">
<stop stop-color="#6B38FC"/>
<stop offset="1" stop-color="#9F7EFD"/>
</linearGradient>
<linearGradient id="paint2_linear_19_946" x1="25.8523" y1="3.77533" x2="26.4363" y2="6.215" gradientUnits="userSpaceOnUse">
<stop stop-color="#6B38FC"/>
<stop offset="1" stop-color="#9F7EFD"/>
</linearGradient>
<linearGradient id="paint3_linear_19_946" x1="2.02258" y1="23.317" x2="2.8204" y2="25.4216" gradientUnits="userSpaceOnUse">
<stop stop-color="#6B38FC"/>
<stop offset="1" stop-color="#9F7EFD"/>
</linearGradient>
<linearGradient id="paint4_linear_19_946" x1="25.2225" y1="12.4404" x2="23.2842" y2="11.9392" gradientUnits="userSpaceOnUse">
<stop stop-color="#6B38FC"/>
<stop offset="1" stop-color="#9F7EFD"/>
</linearGradient>
<linearGradient id="paint5_linear_19_946" x1="32.0032" y1="8.2478" x2="42.201" y2="41.3139" gradientUnits="userSpaceOnUse">
<stop stop-color="white" stop-opacity="0.596"/>
<stop offset="1" stop-color="#F7F7F7" stop-opacity="0.204"/>
</linearGradient>
</defs>
</svg>
