<svg width="69" height="57" viewBox="0 0 69 57" fill="none" xmlns="http://www.w3.org/2000/svg">
<g filter="url(#filter0_f_19_429)">
<path d="M22.3731 33.9334C22.472 34.0142 20.3499 38.0429 19.1262 39.2989C17.9025 40.5548 16.4059 41.1807 15.7828 40.6974C15.1598 40.2142 15.6461 38.8048 16.8699 37.5487C18.0937 36.2926 22.2741 33.8526 22.3731 33.9334Z" fill="#42A0F0"/>
<path d="M17.0751 38.3783C17.1959 38.5516 17.6198 38.5096 18.0219 38.2846C18.424 38.0595 18.652 37.7365 18.5312 37.5632C18.4104 37.3899 17.9865 37.4318 17.5845 37.6569C17.1824 37.882 16.9544 38.205 17.0751 38.3783Z" fill="white"/>
<path d="M35.2578 33.9334C35.3568 34.0142 33.2347 38.0429 32.011 39.2989C30.7873 40.5548 29.2906 41.1807 28.6676 40.6974C28.0446 40.2142 28.5308 38.8048 29.7546 37.5487C30.9784 36.2926 35.1589 33.8526 35.2578 33.9334Z" fill="#42A0F0"/>
<path d="M29.9599 38.3783C30.0807 38.5516 30.5046 38.5096 30.9067 38.2846C31.3087 38.0595 31.5368 37.7365 31.416 37.5632C31.2952 37.3899 30.8713 37.4318 30.4692 37.6569C30.0672 37.882 29.8391 38.205 29.9599 38.3783Z" fill="white"/>
<path d="M48.1428 33.9334C48.2418 34.0142 46.1197 38.0429 44.896 39.2989C43.6723 40.5548 42.1756 41.1807 41.5526 40.6974C40.9296 40.2142 41.4158 38.8048 42.6396 37.5487C43.8634 36.2926 48.0439 33.8526 48.1428 33.9334Z" fill="#42A0F0"/>
<path d="M42.8449 38.3783C42.9657 38.5516 43.3896 38.5096 43.7917 38.2846C44.1937 38.0595 44.4218 37.7365 44.301 37.5632C44.1802 37.3899 43.7563 37.4318 43.3542 37.6569C42.9522 37.882 42.7241 38.205 42.8449 38.3783Z" fill="white"/>
<path d="M36.7734 42.3931C36.8724 42.4739 34.7503 46.5026 33.5266 47.7586C32.3029 49.0146 30.8063 49.6404 30.1832 49.1572C29.5602 48.6739 30.0464 47.2645 31.2703 46.0084C32.4941 44.7524 36.6745 42.3123 36.7734 42.3931Z" fill="#42A0F0"/>
<path d="M31.4758 46.8379C31.5966 47.0112 32.0204 46.9692 32.4225 46.7442C32.8246 46.5191 33.0526 46.1961 32.9318 46.0228C32.8111 45.8495 32.3872 45.8914 31.9851 46.1165C31.583 46.3416 31.355 46.6646 31.4758 46.8379Z" fill="white"/>
<path d="M52.501 42.3931C52.5999 42.4739 50.4778 46.5026 49.2542 47.7586C48.0305 49.0146 46.5338 49.6404 45.9108 49.1572C45.2877 48.6739 45.774 47.2645 46.9978 46.0084C48.2216 44.7524 52.402 42.3123 52.501 42.3931Z" fill="#42A0F0"/>
<path d="M47.2026 46.8379C47.3234 47.0112 47.7472 46.9692 48.1493 46.7442C48.5514 46.5191 48.7794 46.1961 48.6587 46.0228C48.5379 45.8495 48.114 45.8914 47.7119 46.1165C47.3098 46.3416 47.0818 46.6646 47.2026 46.8379Z" fill="white"/>
<path d="M41.1321 48.4841C41.231 48.5649 39.109 52.5936 37.8853 53.8495C36.6616 55.1055 35.1649 55.7313 34.5419 55.2481C33.9188 54.7648 34.4051 53.3555 35.6289 52.0994C36.8527 50.8433 41.0331 48.4033 41.1321 48.4841Z" fill="#42A0F0"/>
<path d="M35.8339 52.9289C35.9547 53.1023 36.3786 53.0603 36.7807 52.8352C37.1828 52.6101 37.4108 52.2872 37.29 52.1139C37.1692 51.9406 36.7453 51.9825 36.3433 52.2076C35.9412 52.4327 35.7131 52.7556 35.8339 52.9289Z" fill="white"/>
<path d="M26.731 48.4841C26.8299 48.5649 24.7078 52.5936 23.4841 53.8495C22.2605 55.1055 20.7638 55.7313 20.1407 55.2481C19.5177 54.7648 20.004 53.3555 21.2278 52.0994C22.4516 50.8433 26.632 48.4033 26.731 48.4841Z" fill="#42A0F0"/>
<path d="M21.4333 52.9289C21.5541 53.1023 21.978 53.0603 22.38 52.8352C22.7821 52.6101 23.0102 52.2872 22.8894 52.1139C22.7686 51.9406 22.3447 51.9825 21.9426 52.2076C21.5405 52.4327 21.3125 52.7556 21.4333 52.9289Z" fill="white"/>
<path d="M22.3731 42.3931C22.472 42.4739 20.3499 46.5026 19.1262 47.7586C17.9025 49.0146 16.4059 49.6404 15.7828 49.1572C15.1598 48.6739 15.6461 47.2645 16.8699 46.0084C18.0937 44.7524 22.2741 42.3123 22.3731 42.3931Z" fill="#42A0F0"/>
<path d="M17.0751 46.8379C17.1959 47.0112 17.6198 46.9692 18.0219 46.7442C18.424 46.5191 18.652 46.1961 18.5312 46.0228C18.4104 45.8495 17.9865 45.8914 17.5845 46.1165C17.1824 46.3416 16.9544 46.6646 17.0751 46.8379Z" fill="white"/>
</g>
<g filter="url(#filter1_f_19_429)">
<path d="M18.0457 29.7926C15.1614 29.7961 12.3428 29.0234 9.95746 27.5753C7.79163 26.2645 6.06121 24.457 4.94807 22.3427C3.83494 20.2284 3.38019 17.8854 3.63162 15.5599C3.88305 13.2345 4.83138 11.0124 6.37694 9.1273C7.92249 7.24219 10.0082 5.76364 12.4149 4.84704C14.1953 4.17061 16.1108 3.82354 18.0457 3.82681C18.6105 3.82682 19.1749 3.85608 19.7359 3.91445C19.4088 4.55308 19.1586 5.2209 18.9893 5.9067C18.8154 6.61452 18.7278 7.33707 18.7281 8.06172C18.7244 10.0503 19.3893 11.994 20.6367 13.6414C21.4409 14.7039 22.4656 15.6189 23.6556 16.337C24.2536 16.6977 24.8894 17.0058 25.554 17.2571C26.9302 17.7771 28.4099 18.0439 29.9043 18.0413C30.7689 18.0415 31.6306 17.9527 32.4724 17.7765C32.2739 20.2186 31.3045 22.5606 29.6766 24.531C29.1499 25.1685 28.5595 25.762 27.9125 26.304C25.2422 28.5479 21.7125 29.7959 18.0457 29.7926Z" fill="#713FFD"/>
</g>
<g filter="url(#filter2_f_19_429)">
<path d="M15.5007 15.0241C18.748 12.4133 19.7589 8.68864 17.7585 6.7049C15.7582 4.72116 11.5041 5.2295 8.25675 7.84032C5.00943 10.4511 3.99857 14.1758 5.99893 16.1595C7.99929 18.1432 12.2534 17.6349 15.5007 15.0241Z" fill="#A586FC"/>
</g>
<g filter="url(#filter3_f_19_429)">
<path d="M10.9402 0.472168L11.4262 1.52117L12.7403 1.91031L11.4262 2.29946L10.9402 3.34846L10.4542 2.29946L9.14014 1.91031L10.4542 1.52117L10.9402 0.472168Z" fill="url(#paint0_linear_19_429)"/>
<path d="M32.6362 25.3436L33.0455 26.2082L34.1521 26.528L33.0455 26.8478L32.6362 27.7123L32.2269 26.8478L31.1204 26.528L32.2269 26.2082L32.6362 25.3436Z" fill="url(#paint1_linear_19_429)"/>
<path d="M26.1944 3.78918L26.8653 4.57457L28.0617 4.63852L27.0616 5.22833L26.9207 6.20811L26.2497 5.42095L25.0533 5.357L26.0534 4.76719L26.1944 3.78918Z" fill="url(#paint2_linear_19_429)"/>
<path d="M2.26135 23.4149L2.98537 24.0232L4.11153 23.9226L3.24824 24.5761L3.23516 25.4631L2.51321 24.8544L1.38705 24.955L2.2505 24.3018L2.26135 23.4149Z" fill="url(#paint3_linear_19_429)"/>
<path d="M25.5622 12.4914L24.7665 12.6354L24.2957 13.3719L24.234 12.5257L23.5896 12.0848L24.3857 11.9412L24.8564 11.2047L24.9176 12.0508L25.5622 12.4914Z" fill="url(#paint4_linear_19_429)"/>
</g>
<g filter="url(#filter4_df_19_429)">
<g filter="url(#filter5_d_19_429)">
<path d="M43.4925 39.1778C43.1262 39.204 42.7563 39.2173 42.3827 39.2175H16.3243C14.5306 39.2235 12.7533 38.9132 11.0942 38.3044C9.43509 37.6956 7.92694 36.8004 6.65624 35.6699C5.38554 34.5395 4.37729 33.1962 3.68932 31.7171C3.00136 30.2379 2.64722 28.652 2.64722 27.0504C2.64722 25.4487 3.00136 23.8629 3.68932 22.3837C4.37729 20.9046 5.38554 19.5613 6.65624 18.4308C7.92694 17.3004 9.43509 16.4051 11.0942 15.7964C12.7533 15.1876 14.5306 14.8773 16.3243 14.8833H26.0402C29.1902 8.695 36.4449 4.36365 44.8907 4.36365C56.2269 4.36365 65.4168 12.166 65.4168 21.7906C65.4168 31.4152 56.2269 39.2175 44.8907 39.2175C44.4208 39.2175 43.9547 39.2043 43.4925 39.1778Z" fill="url(#paint5_linear_19_429)"/>
<path d="M44.8911 39.0483C46.2717 39.0483 47.6513 38.9303 48.9916 38.6974C50.2978 38.4705 51.5825 38.1319 52.8101 37.6911C54.0153 37.2583 55.1778 36.7226 56.2651 36.0989C57.3419 35.4812 58.3545 34.7719 59.2747 33.9907C60.1948 33.2095 61.03 32.35 61.7573 31.4361C62.4913 30.5136 63.1218 29.5275 63.6311 28.5051C64.1498 27.464 64.5481 26.3746 64.8151 25.2671C65.089 24.1306 65.2278 22.961 65.2278 21.7905C65.2278 20.6201 65.089 19.4504 64.8151 18.314C64.5481 17.2065 64.1498 16.1171 63.6311 15.076C63.1218 14.0536 62.4913 13.0675 61.7573 12.145C61.03 11.2311 60.1948 10.3716 59.2748 9.59051C58.3545 8.80924 57.3419 8.09993 56.2651 7.48227C55.1778 6.8586 54.0153 6.32292 52.8101 5.89013C51.5825 5.44929 50.2978 5.1107 48.9916 4.88378C47.6513 4.65092 46.2717 4.53284 44.8911 4.53284C40.8417 4.53284 36.9309 5.53994 33.5816 7.44525C31.9671 8.36368 30.5163 9.47226 29.2695 10.7402C28.0149 12.0161 26.9865 13.4336 26.2131 14.9532L26.1626 15.0524H26.0406H16.3247C14.5107 15.0524 12.751 15.3696 11.0946 15.9952C10.2985 16.2959 9.53056 16.6681 8.81224 17.1014C8.1007 17.5306 7.4316 18.0236 6.82351 18.5665C6.21542 19.1095 5.66335 19.707 5.18264 20.3423C4.69736 20.9837 4.28056 21.6694 3.94382 22.3803C3.24321 23.8593 2.88797 25.4306 2.88797 27.0504C2.88797 28.6701 3.24321 30.2414 3.94382 31.7205C4.28056 32.4313 4.69736 33.117 5.18264 33.7584C5.66335 34.3938 6.21542 34.9912 6.82351 35.5342C7.4316 36.0772 8.1007 36.5701 8.81224 36.9994C9.53056 37.4327 10.2985 37.8049 11.0946 38.1055C12.751 38.7311 14.5107 39.0483 16.3247 39.0483H42.3832C42.7476 39.0483 43.1159 39.0351 43.4779 39.0091L43.4915 39.0081L43.5052 39.0089C43.9636 39.0351 44.4299 39.0483 44.8911 39.0483ZM44.8911 39.2175C44.4213 39.2175 43.955 39.2041 43.4931 39.1777C43.1272 39.2041 42.7566 39.2175 42.3832 39.2175H16.3247C8.79918 39.2175 2.69849 33.7701 2.69849 27.0504C2.69849 20.3307 8.79918 14.8832 16.3247 14.8832H26.0406C29.1906 8.69423 36.4449 4.36365 44.8911 4.36365C56.2274 4.36365 65.4173 12.166 65.4173 21.7905C65.4173 31.4152 56.2274 39.2175 44.8911 39.2175Z" fill="white" fill-opacity="0.5"/>
</g>
</g>
<defs>
<filter id="filter0_f_19_429" x="15.1912" y="33.6113" width="37.6334" height="22.1203" filterUnits="userSpaceOnUse" color-interpolation-filters="sRGB">
<feFlood flood-opacity="0" result="BackgroundImageFix"/>
<feBlend mode="normal" in="SourceGraphic" in2="BackgroundImageFix" result="shape"/>
<feGaussianBlur stdDeviation="0.160122" result="effect1_foregroundBlur_19_429"/>
</filter>
<filter id="filter1_f_19_429" x="3.24396" y="3.50654" width="29.5487" height="26.6063" filterUnits="userSpaceOnUse" color-interpolation-filters="sRGB">
<feFlood flood-opacity="0" result="BackgroundImageFix"/>
<feBlend mode="normal" in="SourceGraphic" in2="BackgroundImageFix" result="shape"/>
<feGaussianBlur stdDeviation="0.160122" result="effect1_foregroundBlur_19_429"/>
</filter>
<filter id="filter2_f_19_429" x="3.3707" y="3.89353" width="17.0162" height="15.0773" filterUnits="userSpaceOnUse" color-interpolation-filters="sRGB">
<feFlood flood-opacity="0" result="BackgroundImageFix"/>
<feBlend mode="normal" in="SourceGraphic" in2="BackgroundImageFix" result="shape"/>
<feGaussianBlur stdDeviation="0.800612" result="effect1_foregroundBlur_19_429"/>
</filter>
<filter id="filter3_f_19_429" x="1.22684" y="0.312046" width="33.0854" height="27.5604" filterUnits="userSpaceOnUse" color-interpolation-filters="sRGB">
<feFlood flood-opacity="0" result="BackgroundImageFix"/>
<feBlend mode="normal" in="SourceGraphic" in2="BackgroundImageFix" result="shape"/>
<feGaussianBlur stdDeviation="0.0800612" result="effect1_foregroundBlur_19_429"/>
</filter>
<filter id="filter4_df_19_429" x="1.04599" y="2.12193" width="67.5737" height="39.6577" filterUnits="userSpaceOnUse" color-interpolation-filters="sRGB">
<feFlood flood-opacity="0" result="BackgroundImageFix"/>
<feColorMatrix in="SourceAlpha" type="matrix" values="0 0 0 0 0 0 0 0 0 0 0 0 0 0 0 0 0 0 127 0" result="hardAlpha"/>
<feOffset dx="0.800612" dy="0.160122"/>
<feGaussianBlur stdDeviation="1.20092"/>
<feColorMatrix type="matrix" values="0 0 0 0 0.258824 0 0 0 0 0.627451 0 0 0 0 0.941176 0 0 0 0.596 0"/>
<feBlend mode="normal" in2="BackgroundImageFix" result="effect1_dropShadow_19_429"/>
<feBlend mode="normal" in="SourceGraphic" in2="effect1_dropShadow_19_429" result="shape"/>
<feGaussianBlur stdDeviation="0.160122" result="effect2_foregroundBlur_19_429"/>
</filter>
<filter id="filter5_d_19_429" x="1.04599" y="2.12193" width="67.5737" height="39.6577" filterUnits="userSpaceOnUse" color-interpolation-filters="sRGB">
<feFlood flood-opacity="0" result="BackgroundImageFix"/>
<feColorMatrix in="SourceAlpha" type="matrix" values="0 0 0 0 0 0 0 0 0 0 0 0 0 0 0 0 0 0 127 0" result="hardAlpha"/>
<feOffset dx="0.800612" dy="0.160122"/>
<feGaussianBlur stdDeviation="1.20092"/>
<feColorMatrix type="matrix" values="0 0 0 0 0.501961 0 0 0 0 0.501961 0 0 0 0 0.501961 0 0 0 0.302 0"/>
<feBlend mode="normal" in2="BackgroundImageFix" result="effect1_dropShadow_19_429"/>
<feBlend mode="normal" in="SourceGraphic" in2="effect1_dropShadow_19_429" result="shape"/>
</filter>
<linearGradient id="paint0_linear_19_429" x1="10.9402" y1="0.472168" x2="10.9402" y2="3.34846" gradientUnits="userSpaceOnUse">
<stop stop-color="#6B38FC"/>
<stop offset="1" stop-color="#9F7EFD"/>
</linearGradient>
<linearGradient id="paint1_linear_19_429" x1="32.6362" y1="25.3436" x2="32.6362" y2="27.7123" gradientUnits="userSpaceOnUse">
<stop stop-color="#6B38FC"/>
<stop offset="1" stop-color="#9F7EFD"/>
</linearGradient>
<linearGradient id="paint2_linear_19_429" x1="26.1946" y1="3.78911" x2="26.7817" y2="6.24137" gradientUnits="userSpaceOnUse">
<stop stop-color="#6B38FC"/>
<stop offset="1" stop-color="#9F7EFD"/>
</linearGradient>
<linearGradient id="paint3_linear_19_429" x1="2.26231" y1="23.4145" x2="3.06354" y2="25.5282" gradientUnits="userSpaceOnUse">
<stop stop-color="#6B38FC"/>
<stop offset="1" stop-color="#9F7EFD"/>
</linearGradient>
<linearGradient id="paint4_linear_19_429" x1="25.5621" y1="12.4916" x2="23.6146" y2="11.988" gradientUnits="userSpaceOnUse">
<stop stop-color="#6B38FC"/>
<stop offset="1" stop-color="#9F7EFD"/>
</linearGradient>
<linearGradient id="paint5_linear_19_429" x1="28.0689" y1="8.75525" x2="38.2666" y2="41.8213" gradientUnits="userSpaceOnUse">
<stop stop-color="white" stop-opacity="0.596"/>
<stop offset="1" stop-color="#F7F7F7" stop-opacity="0.204"/>
</linearGradient>
</defs>
</svg>
