<svg width="68" height="53" viewBox="0 0 68 53" fill="none" xmlns="http://www.w3.org/2000/svg">
<g filter="url(#filter0_f_19_1841)">
<path fill-rule="evenodd" clip-rule="evenodd" d="M33.1639 27.5156C33.385 27.5156 33.5642 27.6948 33.5642 27.9159V49.8343C33.5642 50.0554 33.385 50.2346 33.1639 50.2346C32.9428 50.2346 32.7636 50.0554 32.7636 49.8343V27.9159C32.7636 27.6948 32.9428 27.5156 33.1639 27.5156Z" fill="#42A0F0"/>
<path fill-rule="evenodd" clip-rule="evenodd" d="M37.6363 29.1057C37.7862 29.2683 37.7758 29.5215 37.6133 29.6713L33.3857 33.5679C33.2232 33.7177 32.9699 33.7074 32.8201 33.5448C32.6702 33.3823 32.6806 33.129 32.8431 32.9792L37.0707 29.0826C37.2332 28.9328 37.4865 28.9431 37.6363 29.1057Z" fill="#42A0F0"/>
<path fill-rule="evenodd" clip-rule="evenodd" d="M28.4523 29.1104C28.5996 28.9455 28.8526 28.9312 29.0175 29.0784L33.3813 32.9749C33.5462 33.1222 33.5605 33.3752 33.4133 33.5401C33.266 33.7051 33.013 33.7194 32.8481 33.5721L28.4843 29.6756C28.3194 29.5283 28.3051 29.2753 28.4523 29.1104Z" fill="#42A0F0"/>
<path fill-rule="evenodd" clip-rule="evenodd" d="M32.8201 44.6922C32.9699 44.5297 33.2232 44.5194 33.3857 44.6692L37.6133 48.5657C37.7758 48.7156 37.7862 48.9688 37.6363 49.1314C37.4865 49.2939 37.2332 49.3043 37.0707 49.1544L32.8431 45.2579C32.6806 45.1081 32.6702 44.8548 32.8201 44.6922Z" fill="#42A0F0"/>
<path fill-rule="evenodd" clip-rule="evenodd" d="M33.4133 44.6969C33.5605 44.8618 33.5462 45.1149 33.3813 45.2621L29.0175 49.1587C28.8526 49.3059 28.5996 49.2916 28.4523 49.1267C28.3051 48.9618 28.3194 48.7087 28.4843 48.5615L32.8481 44.6649C33.013 44.5177 33.266 44.532 33.4133 44.6969Z" fill="#42A0F0"/>
<path fill-rule="evenodd" clip-rule="evenodd" d="M44.09 33.3028C44.2101 33.4884 44.1481 33.721 43.9516 33.8223L22.6935 44.7815C22.497 44.8828 22.2404 44.8144 22.1203 44.6288C22.0003 44.4431 22.0623 44.2105 22.2588 44.1092L43.5169 33.15C43.7134 33.0487 43.97 33.1171 44.09 33.3028Z" fill="#42A0F0"/>
<path fill-rule="evenodd" clip-rule="evenodd" d="M44.8164 37.6219C44.767 37.8244 44.5433 37.9429 44.3169 37.8866L38.424 36.4216C38.1975 36.3653 38.054 36.1555 38.1035 35.953C38.1529 35.7505 38.3766 35.632 38.603 35.6883L44.4959 37.1533C44.7224 37.2096 44.8659 37.4194 44.8164 37.6219Z" fill="#42A0F0"/>
<path fill-rule="evenodd" clip-rule="evenodd" d="M40.1157 30.4395C40.3413 30.4994 40.4807 30.7113 40.4272 30.9127L39.0139 36.2355C38.9604 36.437 38.7342 36.5517 38.5087 36.4918C38.2832 36.4319 38.1437 36.22 38.1972 36.0185L39.6105 30.6958C39.664 30.4943 39.8902 30.3796 40.1157 30.4395Z" fill="#42A0F0"/>
<path fill-rule="evenodd" clip-rule="evenodd" d="M27.1886 41.6088C27.4133 41.6719 27.5491 41.8856 27.4921 42.0861L26.007 47.3035C25.9499 47.504 25.7216 47.6154 25.4969 47.5523C25.2723 47.4892 25.1364 47.2755 25.1935 47.075L26.6785 41.8576C26.7356 41.6571 26.964 41.5457 27.1886 41.6088Z" fill="#42A0F0"/>
<path fill-rule="evenodd" clip-rule="evenodd" d="M27.5841 42.1526C27.5311 42.3542 27.3052 42.4693 27.0795 42.4098L21.1185 40.8379C20.8929 40.7784 20.7529 40.5667 20.806 40.3651C20.859 40.1635 21.0849 40.0483 21.3105 40.1078L27.2716 41.6798C27.4972 41.7393 27.6371 41.951 27.5841 42.1526Z" fill="#42A0F0"/>
<path fill-rule="evenodd" clip-rule="evenodd" d="M43.9727 44.6288C43.8527 44.8145 43.5961 44.8828 43.3996 44.7815L22.1415 33.8224C21.945 33.7211 21.883 33.4884 22.003 33.3028C22.1231 33.1171 22.3797 33.0487 22.5762 33.15L43.8343 44.1092C44.0308 44.2105 44.0928 44.4432 43.9727 44.6288Z" fill="#42A0F0"/>
<path fill-rule="evenodd" clip-rule="evenodd" d="M40.124 47.3089C39.8994 47.372 39.671 47.2606 39.6139 47.0601L38.1289 41.8427C38.0718 41.6422 38.2077 41.4286 38.4323 41.3655C38.657 41.3023 38.8853 41.4137 38.9424 41.6142L40.4274 46.8316C40.4845 47.0321 40.3486 47.2458 40.124 47.3089Z" fill="#42A0F0"/>
<path fill-rule="evenodd" clip-rule="evenodd" d="M44.8143 40.1217C44.8673 40.3233 44.7274 40.5349 44.5018 40.5944L38.5408 42.1664C38.3151 42.2259 38.0892 42.1107 38.0362 41.9091C37.9832 41.7075 38.1231 41.4959 38.3487 41.4364L44.3098 39.8644C44.5354 39.8049 44.7613 39.9201 44.8143 40.1217Z" fill="#42A0F0"/>
<path fill-rule="evenodd" clip-rule="evenodd" d="M27.5179 35.7095C27.5674 35.912 27.4239 36.1218 27.1974 36.1781L21.3045 37.6431C21.0781 37.6994 20.8544 37.5809 20.805 37.3784C20.7555 37.1759 20.899 36.9661 21.1255 36.9098L27.0184 35.4448C27.2448 35.3885 27.4685 35.507 27.5179 35.7095Z" fill="#42A0F0"/>
<path fill-rule="evenodd" clip-rule="evenodd" d="M27.1123 36.2484C26.8868 36.3083 26.6606 36.1935 26.6071 35.9921L25.1938 30.6693C25.1403 30.4678 25.2798 30.2559 25.5053 30.196C25.7308 30.1361 25.957 30.2509 26.0105 30.4523L27.4238 35.7751C27.4773 35.9766 27.3378 36.1885 27.1123 36.2484Z" fill="#42A0F0"/>
</g>
<path fill-rule="evenodd" clip-rule="evenodd" d="M24.1504 23.4922C24.1725 23.4922 24.1904 23.5101 24.1904 23.5322V25.0292C24.1904 25.0514 24.1725 25.0693 24.1504 25.0693C24.1283 25.0693 24.1104 25.0514 24.1104 25.0292V23.5322C24.1104 23.5101 24.1283 23.4922 24.1504 23.4922Z" fill="#42A0F0"/>
<path fill-rule="evenodd" clip-rule="evenodd" d="M24.4254 23.7593C24.4344 23.7795 24.4253 23.8032 24.4052 23.8122L24.1303 23.935C24.1102 23.944 24.0865 23.9349 24.0775 23.9147C24.0684 23.8946 24.0775 23.8709 24.0977 23.8619L24.3725 23.7391C24.3927 23.7301 24.4164 23.7391 24.4254 23.7593Z" fill="#42A0F0"/>
<path fill-rule="evenodd" clip-rule="evenodd" d="M23.6667 23.7642C23.673 23.743 23.6953 23.731 23.7165 23.7373L24.1256 23.8591C24.1468 23.8654 24.1588 23.8877 24.1525 23.9089C24.1462 23.9301 24.1239 23.9421 24.1027 23.9358L23.6937 23.814C23.6725 23.8077 23.6604 23.7854 23.6667 23.7642Z" fill="#42A0F0"/>
<path fill-rule="evenodd" clip-rule="evenodd" d="M24.0775 24.7336C24.0865 24.7134 24.1102 24.7043 24.1303 24.7133L24.4052 24.8361C24.4253 24.8451 24.4344 24.8688 24.4254 24.889C24.4164 24.9092 24.3927 24.9182 24.3725 24.9092L24.0977 24.7864C24.0775 24.7774 24.0684 24.7537 24.0775 24.7336Z" fill="#42A0F0"/>
<path fill-rule="evenodd" clip-rule="evenodd" d="M24.1525 24.7385C24.1588 24.7596 24.1468 24.7819 24.1256 24.7882L23.7165 24.9101C23.6953 24.9164 23.673 24.9043 23.6667 24.8831C23.6604 24.8619 23.6725 24.8396 23.6937 24.8333L24.1027 24.7115C24.1239 24.7052 24.1462 24.7173 24.1525 24.7385Z" fill="#42A0F0"/>
<path fill-rule="evenodd" clip-rule="evenodd" d="M24.9082 23.8944C24.9202 23.9129 24.914 23.9362 24.8944 23.9463L23.4424 24.6948C23.4228 24.705 23.3971 24.6981 23.3851 24.6796C23.3731 24.661 23.3793 24.6377 23.399 24.6276L24.8509 23.8791C24.8705 23.869 24.8962 23.8758 24.9082 23.8944Z" fill="#42A0F0"/>
<path fill-rule="evenodd" clip-rule="evenodd" d="M24.9603 24.2001C24.9554 24.2204 24.933 24.2322 24.9104 24.2266L24.5047 24.1257C24.4821 24.1201 24.4677 24.0991 24.4727 24.0789C24.4776 24.0586 24.5 24.0468 24.5226 24.0524L24.9283 24.1533C24.9509 24.1589 24.9653 24.1799 24.9603 24.2001Z" fill="#42A0F0"/>
<path fill-rule="evenodd" clip-rule="evenodd" d="M24.6281 23.6929C24.6507 23.6989 24.6646 23.72 24.6593 23.7402L24.562 24.1066C24.5566 24.1267 24.534 24.1382 24.5115 24.1322C24.4889 24.1262 24.475 24.105 24.4803 24.0849L24.5776 23.7185C24.583 23.6983 24.6056 23.6869 24.6281 23.6929Z" fill="#42A0F0"/>
<path fill-rule="evenodd" clip-rule="evenodd" d="M23.7455 24.4559C23.7679 24.4622 23.7815 24.4835 23.7758 24.5036L23.6736 24.8628C23.6679 24.8828 23.6451 24.8939 23.6226 24.8876C23.6001 24.8813 23.5865 24.86 23.5922 24.8399L23.6945 24.4807C23.7002 24.4607 23.723 24.4495 23.7455 24.4559Z" fill="#42A0F0"/>
<path fill-rule="evenodd" clip-rule="evenodd" d="M23.7836 24.5098C23.7783 24.5299 23.7557 24.5415 23.7331 24.5355L23.3228 24.4273C23.3002 24.4213 23.2862 24.4002 23.2915 24.38C23.2968 24.3599 23.3194 24.3483 23.342 24.3543L23.7523 24.4625C23.7749 24.4684 23.7889 24.4896 23.7836 24.5098Z" fill="#42A0F0"/>
<path fill-rule="evenodd" clip-rule="evenodd" d="M24.9004 24.6796C24.8884 24.6982 24.8627 24.705 24.8431 24.6949L23.3912 23.9464C23.3715 23.9363 23.3653 23.913 23.3773 23.8944C23.3893 23.8759 23.415 23.869 23.4346 23.8792L24.8866 24.6277C24.9062 24.6378 24.9124 24.6611 24.9004 24.6796Z" fill="#42A0F0"/>
<path fill-rule="evenodd" clip-rule="evenodd" d="M24.628 24.8702C24.6055 24.8765 24.5827 24.8654 24.577 24.8454L24.4748 24.4862C24.4691 24.4661 24.4826 24.4448 24.5051 24.4385C24.5276 24.4321 24.5504 24.4433 24.5561 24.4633L24.6583 24.8225C24.664 24.8426 24.6505 24.8639 24.628 24.8702Z" fill="#42A0F0"/>
<path fill-rule="evenodd" clip-rule="evenodd" d="M24.9594 24.3625C24.9647 24.3827 24.9507 24.4039 24.9282 24.4098L24.5178 24.518C24.4952 24.524 24.4727 24.5125 24.4674 24.4923C24.4621 24.4721 24.476 24.451 24.4986 24.445L24.909 24.3368C24.9315 24.3309 24.9541 24.3424 24.9594 24.3625Z" fill="#42A0F0"/>
<path fill-rule="evenodd" clip-rule="evenodd" d="M23.7779 24.0614C23.7829 24.0816 23.7685 24.1026 23.7459 24.1082L23.3402 24.2091C23.3176 24.2147 23.2952 24.2029 23.2902 24.1826C23.2853 24.1624 23.2996 24.1414 23.3223 24.1358L23.728 24.0349C23.7506 24.0293 23.773 24.0411 23.7779 24.0614Z" fill="#42A0F0"/>
<path fill-rule="evenodd" clip-rule="evenodd" d="M23.7395 24.1148C23.7169 24.1208 23.6943 24.1093 23.689 24.0891L23.5917 23.7227C23.5863 23.7026 23.6003 23.6814 23.6228 23.6754C23.6454 23.6694 23.668 23.6809 23.6733 23.701L23.7706 24.0674C23.776 24.0876 23.762 24.1088 23.7395 24.1148Z" fill="#42A0F0"/>
<path fill-rule="evenodd" clip-rule="evenodd" d="M47.2808 26.8066C47.3029 26.8066 47.3208 26.8246 47.3208 26.8467V29.413C47.3208 29.4351 47.3029 29.453 47.2808 29.453C47.2587 29.453 47.2407 29.4351 47.2407 29.413V26.8467C47.2407 26.8246 47.2587 26.8066 47.2808 26.8066Z" fill="#42A0F0"/>
<path fill-rule="evenodd" clip-rule="evenodd" d="M47.746 27.2984C47.7508 27.32 47.7372 27.3414 47.7156 27.3462L47.1701 27.468C47.1485 27.4728 47.1271 27.4592 47.1223 27.4377C47.1175 27.4161 47.1311 27.3947 47.1527 27.3899L47.6982 27.2681C47.7198 27.2632 47.7411 27.2768 47.746 27.2984Z" fill="#42A0F0"/>
<path fill-rule="evenodd" clip-rule="evenodd" d="M46.4396 27.3001C46.4435 27.2783 46.4643 27.2638 46.486 27.2677L47.168 27.3895C47.1898 27.3934 47.2042 27.4142 47.2004 27.436C47.1965 27.4577 47.1757 27.4722 47.1539 27.4684L46.472 27.3465C46.4502 27.3426 46.4357 27.3219 46.4396 27.3001Z" fill="#42A0F0"/>
<path fill-rule="evenodd" clip-rule="evenodd" d="M47.1248 28.8737C47.1338 28.8535 47.1575 28.8445 47.1777 28.8535L47.7232 29.0969C47.7434 29.1059 47.7525 29.1296 47.7435 29.1498C47.7344 29.17 47.7108 29.1791 47.6906 29.17L47.1451 28.9266C47.1249 28.9176 47.1158 28.8939 47.1248 28.8737Z" fill="#42A0F0"/>
<path fill-rule="evenodd" clip-rule="evenodd" d="M47.1987 28.8766C47.2061 28.8974 47.1952 28.9203 47.1744 28.9277L46.4925 29.1712C46.4716 29.1786 46.4487 29.1678 46.4413 29.1469C46.4339 29.1261 46.4447 29.1032 46.4655 29.0958L47.1475 28.8523C47.1683 28.8449 47.1912 28.8557 47.1987 28.8766Z" fill="#42A0F0"/>
<path fill-rule="evenodd" clip-rule="evenodd" d="M48.5539 27.4805C48.566 27.4991 48.5598 27.5224 48.5401 27.5325L46.0511 28.8157C46.0314 28.8258 46.0058 28.819 45.9938 28.8004C45.9818 28.7818 45.988 28.7586 46.0076 28.7484L48.4966 27.4653C48.5163 27.4551 48.5419 27.462 48.5539 27.4805Z" fill="#42A0F0"/>
<path fill-rule="evenodd" clip-rule="evenodd" d="M48.6382 27.9813C48.6332 28.0015 48.6109 28.0134 48.5882 28.0078L47.8983 27.8362C47.8757 27.8306 47.8613 27.8096 47.8663 27.7894C47.8712 27.7691 47.8936 27.7573 47.9162 27.7629L48.6061 27.9344C48.6288 27.94 48.6431 27.961 48.6382 27.9813Z" fill="#42A0F0"/>
<path fill-rule="evenodd" clip-rule="evenodd" d="M48.0927 27.1485C48.1153 27.1545 48.1292 27.1757 48.1239 27.1959L47.9584 27.819C47.9531 27.8391 47.9305 27.8506 47.9079 27.8446C47.8854 27.8386 47.8714 27.8174 47.8768 27.7973L48.0422 27.1742C48.0476 27.154 48.0702 27.1426 48.0927 27.1485Z" fill="#42A0F0"/>
<path fill-rule="evenodd" clip-rule="evenodd" d="M46.5792 28.4561C46.6017 28.4624 46.6153 28.4838 46.6096 28.5038L46.4357 29.1146C46.43 29.1347 46.4072 29.1458 46.3847 29.1395C46.3623 29.1332 46.3487 29.1118 46.3544 29.0918L46.5282 28.481C46.5339 28.4609 46.5567 28.4498 46.5792 28.4561Z" fill="#42A0F0"/>
<path fill-rule="evenodd" clip-rule="evenodd" d="M46.6203 28.5117C46.615 28.5319 46.5924 28.5434 46.5699 28.5374L45.872 28.3534C45.8495 28.3475 45.8355 28.3263 45.8408 28.3062C45.8461 28.286 45.8687 28.2745 45.8912 28.2804L46.5891 28.4644C46.6116 28.4704 46.6256 28.4916 46.6203 28.5117Z" fill="#42A0F0"/>
<path fill-rule="evenodd" clip-rule="evenodd" d="M48.54 28.8004C48.528 28.8189 48.5024 28.8258 48.4827 28.8156L45.9937 27.5325C45.9741 27.5223 45.9679 27.4991 45.9799 27.4805C45.9919 27.462 46.0175 27.4551 46.0372 27.4652L48.5262 28.7484C48.5459 28.7585 48.5521 28.7818 48.54 28.8004Z" fill="#42A0F0"/>
<path fill-rule="evenodd" clip-rule="evenodd" d="M48.0937 29.1111C48.0713 29.1174 48.0484 29.1063 48.0427 29.0862L47.8689 28.4754C47.8632 28.4554 47.8768 28.434 47.8992 28.4277C47.9217 28.4214 47.9445 28.4325 47.9502 28.4526L48.1241 29.0634C48.1298 29.0834 48.1162 29.1048 48.0937 29.1111Z" fill="#42A0F0"/>
<path fill-rule="evenodd" clip-rule="evenodd" d="M48.6379 28.2777C48.6432 28.2979 48.6292 28.319 48.6066 28.325L47.9088 28.509C47.8862 28.515 47.8636 28.5034 47.8583 28.4833C47.853 28.4631 47.867 28.442 47.8896 28.436L48.5874 28.252C48.61 28.246 48.6326 28.2575 48.6379 28.2777Z" fill="#42A0F0"/>
<path fill-rule="evenodd" clip-rule="evenodd" d="M46.6129 27.7608C46.6178 27.7811 46.6035 27.8021 46.5808 27.8077L45.891 27.9792C45.8683 27.9848 45.8459 27.973 45.841 27.9527C45.8361 27.9325 45.8504 27.9115 45.8731 27.9059L46.5629 27.7344C46.5856 27.7287 46.6079 27.7406 46.6129 27.7608Z" fill="#42A0F0"/>
<path fill-rule="evenodd" clip-rule="evenodd" d="M46.5705 27.8161C46.5479 27.822 46.5253 27.8106 46.52 27.7904L46.3545 27.1673C46.3492 27.1472 46.3631 27.126 46.3857 27.12C46.4082 27.114 46.4308 27.1255 46.4362 27.1456L46.6016 27.7687C46.607 27.7889 46.5931 27.8101 46.5705 27.8161Z" fill="#42A0F0"/>
<path fill-rule="evenodd" clip-rule="evenodd" d="M45.5105 45.6809C45.5326 45.6809 45.5505 45.6988 45.5505 45.7209V47.8279C45.5505 47.85 45.5326 47.8679 45.5105 47.8679C45.4884 47.8679 45.4705 47.85 45.4705 47.8279V45.7209C45.4705 45.6988 45.4884 45.6809 45.5105 45.6809Z" fill="#42A0F0"/>
<path fill-rule="evenodd" clip-rule="evenodd" d="M45.8359 46.048C45.8422 46.0692 45.8301 46.0915 45.8089 46.0978L45.3999 46.2196C45.3787 46.2259 45.3564 46.2139 45.3501 46.1927C45.3438 46.1715 45.3558 46.1492 45.377 46.1429L45.7861 46.0211C45.8073 46.0148 45.8296 46.0268 45.8359 46.048Z" fill="#42A0F0"/>
<path fill-rule="evenodd" clip-rule="evenodd" d="M44.8035 46.0507C44.8083 46.0291 44.8297 46.0156 44.8513 46.0204L45.3968 46.1422C45.4184 46.147 45.4319 46.1684 45.4271 46.19C45.4223 46.2116 45.4009 46.2252 45.3793 46.2203L44.8338 46.0985C44.8122 46.0937 44.7986 46.0723 44.8035 46.0507Z" fill="#42A0F0"/>
<path fill-rule="evenodd" clip-rule="evenodd" d="M45.354 47.3786C45.3653 47.3596 45.3899 47.3533 45.4089 47.3646L45.818 47.6081C45.837 47.6194 45.8432 47.644 45.8319 47.663C45.8206 47.682 45.796 47.6882 45.777 47.6769L45.368 47.4334C45.349 47.4221 45.3427 47.3976 45.354 47.3786Z" fill="#42A0F0"/>
<path fill-rule="evenodd" clip-rule="evenodd" d="M45.4246 47.3827C45.4336 47.4029 45.4246 47.4266 45.4044 47.4356L44.8588 47.6791C44.8387 47.6881 44.815 47.679 44.806 47.6588C44.797 47.6386 44.806 47.615 44.8262 47.606L45.3717 47.3625C45.3919 47.3535 45.4156 47.3625 45.4246 47.3827Z" fill="#42A0F0"/>
<path fill-rule="evenodd" clip-rule="evenodd" d="M46.5618 46.238C46.5738 46.2566 46.5676 46.2798 46.5479 46.2899L44.5044 47.3434C44.4848 47.3536 44.4591 47.3467 44.4471 47.3282C44.4351 47.3096 44.4413 47.2863 44.4609 47.2762L46.5044 46.2227C46.5241 46.2126 46.5498 46.2194 46.5618 46.238Z" fill="#42A0F0"/>
<path fill-rule="evenodd" clip-rule="evenodd" d="M46.6318 46.6543C46.6269 46.6745 46.6045 46.6864 46.5819 46.6807L46.0153 46.5399C45.9927 46.5343 45.9784 46.5133 45.9833 46.493C45.9882 46.4728 46.0106 46.4609 46.0333 46.4665L46.5998 46.6074C46.6224 46.613 46.6368 46.634 46.6318 46.6543Z" fill="#42A0F0"/>
<path fill-rule="evenodd" clip-rule="evenodd" d="M46.1787 45.9619C46.2012 45.9679 46.2152 45.9891 46.2098 46.0092L46.0739 46.5209C46.0686 46.5411 46.046 46.5526 46.0234 46.5466C46.0009 46.5406 45.9869 46.5194 45.9923 46.4992L46.1281 45.9875C46.1335 45.9674 46.1561 45.9559 46.1787 45.9619Z" fill="#42A0F0"/>
<path fill-rule="evenodd" clip-rule="evenodd" d="M44.9359 47.0356C44.9584 47.0419 44.972 47.0632 44.9662 47.0833L44.8235 47.5849C44.8178 47.6049 44.795 47.6161 44.7725 47.6098C44.75 47.6035 44.7364 47.5821 44.7421 47.562L44.8849 47.0604C44.8906 47.0404 44.9134 47.0293 44.9359 47.0356Z" fill="#42A0F0"/>
<path fill-rule="evenodd" clip-rule="evenodd" d="M44.9753 47.0896C44.97 47.1098 44.9474 47.1213 44.9248 47.1153L44.3518 46.9642C44.3292 46.9582 44.3152 46.9371 44.3205 46.9169C44.3258 46.8968 44.3484 46.8852 44.371 46.8912L44.9441 47.0423C44.9666 47.0483 44.9806 47.0694 44.9753 47.0896Z" fill="#42A0F0"/>
<path fill-rule="evenodd" clip-rule="evenodd" d="M46.551 47.3281C46.539 47.3466 46.5134 47.3535 46.4937 47.3434L44.4502 46.2899C44.4306 46.2797 44.4244 46.2565 44.4364 46.2379C44.4484 46.2193 44.474 46.2125 44.4937 46.2226L46.5372 47.2761C46.5568 47.2863 46.563 47.3095 46.551 47.3281Z" fill="#42A0F0"/>
<path fill-rule="evenodd" clip-rule="evenodd" d="M46.1799 47.5866C46.1574 47.5929 46.1346 47.5817 46.1289 47.5617L45.9861 47.0601C45.9804 47.04 45.994 47.0187 46.0165 47.0124C46.0389 47.0061 46.0618 47.0172 46.0675 47.0372L46.2102 47.5388C46.2159 47.5589 46.2024 47.5803 46.1799 47.5866Z" fill="#42A0F0"/>
<path fill-rule="evenodd" clip-rule="evenodd" d="M46.6328 46.8938C46.6381 46.914 46.6241 46.9351 46.6015 46.9411L46.0284 47.0922C46.0059 47.0981 45.9833 47.0866 45.978 47.0665C45.9727 47.0463 45.9867 47.0251 46.0092 47.0192L46.5823 46.8681C46.6049 46.8621 46.6274 46.8736 46.6328 46.8938Z" fill="#42A0F0"/>
<path fill-rule="evenodd" clip-rule="evenodd" d="M44.9693 46.4696C44.9743 46.4898 44.9599 46.5108 44.9373 46.5164L44.3707 46.6573C44.3481 46.6629 44.3257 46.6511 44.3208 46.6308C44.3158 46.6106 44.3302 46.5896 44.3528 46.584L44.9194 46.4431C44.942 46.4375 44.9644 46.4493 44.9693 46.4696Z" fill="#42A0F0"/>
<path fill-rule="evenodd" clip-rule="evenodd" d="M44.9296 46.5232C44.9071 46.5292 44.8844 46.5177 44.8791 46.4976L44.7432 45.9859C44.7379 45.9657 44.7518 45.9445 44.7744 45.9385C44.7969 45.9325 44.8195 45.944 44.8249 45.9642L44.9608 46.4759C44.9661 46.496 44.9522 46.5172 44.9296 46.5232Z" fill="#42A0F0"/>
<path fill-rule="evenodd" clip-rule="evenodd" d="M26.1343 50.5518C26.1564 50.5518 26.1743 50.5697 26.1743 50.5918V52.4477C26.1743 52.4698 26.1564 52.4877 26.1343 52.4877C26.1122 52.4877 26.0943 52.4698 26.0943 52.4477V50.5918C26.0943 50.5697 26.1122 50.5518 26.1343 50.5518Z" fill="#42A0F0"/>
<path fill-rule="evenodd" clip-rule="evenodd" d="M26.4707 50.9189C26.477 50.9401 26.4649 50.9624 26.4437 50.9687L26.0346 51.0905C26.0134 51.0968 25.9911 51.0847 25.9848 51.0635C25.9785 51.0424 25.9906 51.0201 26.0118 51.0138L26.4209 50.8919C26.4421 50.8856 26.4643 50.8977 26.4707 50.9189Z" fill="#42A0F0"/>
<path fill-rule="evenodd" clip-rule="evenodd" d="M25.5759 50.9189C25.5822 50.8977 25.6045 50.8856 25.6257 50.8919L26.0348 51.0138C26.056 51.0201 26.068 51.0424 26.0617 51.0635C26.0554 51.0847 26.0331 51.0968 26.0119 51.0905L25.6028 50.9687C25.5816 50.9624 25.5696 50.9401 25.5759 50.9189Z" fill="#42A0F0"/>
<path fill-rule="evenodd" clip-rule="evenodd" d="M25.9888 52.0058C26.0001 51.9868 26.0247 51.9805 26.0437 51.9918L26.4528 52.2353C26.4718 52.2466 26.478 52.2712 26.4667 52.2902C26.4554 52.3092 26.4308 52.3154 26.4118 52.3041L26.0027 52.0606C25.9837 52.0493 25.9775 52.0248 25.9888 52.0058Z" fill="#42A0F0"/>
<path fill-rule="evenodd" clip-rule="evenodd" d="M26.0577 52.0058C26.0691 52.0248 26.0628 52.0493 26.0438 52.0606L25.6347 52.3041C25.6157 52.3154 25.5912 52.3092 25.5799 52.2902C25.5685 52.2712 25.5748 52.2466 25.5938 52.2353L26.0029 51.9918C26.0219 51.9805 26.0464 51.9868 26.0577 52.0058Z" fill="#42A0F0"/>
<path fill-rule="evenodd" clip-rule="evenodd" d="M27.0652 51.0451C27.0772 51.0637 27.071 51.0869 27.0513 51.0971L25.2514 52.025C25.2317 52.0352 25.206 52.0283 25.194 52.0097C25.182 51.9912 25.1882 51.9679 25.2079 51.9578L27.0079 51.0298C27.0275 51.0197 27.0532 51.0266 27.0652 51.0451Z" fill="#42A0F0"/>
<path fill-rule="evenodd" clip-rule="evenodd" d="M27.128 51.4151C27.1231 51.4354 27.1007 51.4472 27.0781 51.4416L26.5791 51.3176C26.5565 51.3119 26.5421 51.291 26.5471 51.2707C26.552 51.2505 26.5744 51.2386 26.597 51.2442L27.096 51.3683C27.1186 51.3739 27.133 51.3949 27.128 51.4151Z" fill="#42A0F0"/>
<path fill-rule="evenodd" clip-rule="evenodd" d="M26.7248 50.7999C26.7474 50.8059 26.7613 50.8271 26.756 50.8472L26.6363 51.2979C26.6309 51.3181 26.6083 51.3296 26.5858 51.3236C26.5632 51.3176 26.5493 51.2964 26.5546 51.2762L26.6743 50.8255C26.6796 50.8054 26.7023 50.7939 26.7248 50.7999Z" fill="#42A0F0"/>
<path fill-rule="evenodd" clip-rule="evenodd" d="M25.63 51.7456C25.6525 51.752 25.666 51.7733 25.6603 51.7934L25.5346 52.2351C25.5289 52.2552 25.506 52.2663 25.4836 52.26C25.4611 52.2537 25.4475 52.2323 25.4532 52.2123L25.579 51.7705C25.5847 51.7505 25.6075 51.7393 25.63 51.7456Z" fill="#42A0F0"/>
<path fill-rule="evenodd" clip-rule="evenodd" d="M25.668 51.7991C25.6627 51.8193 25.6401 51.8308 25.6175 51.8248L25.1128 51.6917C25.0902 51.6858 25.0762 51.6646 25.0815 51.6444C25.0869 51.6243 25.1094 51.6128 25.132 51.6187L25.6367 51.7518C25.6593 51.7578 25.6733 51.7789 25.668 51.7991Z" fill="#42A0F0"/>
<path fill-rule="evenodd" clip-rule="evenodd" d="M27.0549 52.0097C27.0429 52.0283 27.0173 52.0351 26.9976 52.025L25.1976 51.0971C25.178 51.0869 25.1718 51.0637 25.1838 51.0451C25.1958 51.0265 25.2215 51.0197 25.2411 51.0298L27.0411 51.9578C27.0607 51.9679 27.0669 51.9912 27.0549 52.0097Z" fill="#42A0F0"/>
<path fill-rule="evenodd" clip-rule="evenodd" d="M26.7252 52.2394C26.7027 52.2457 26.6799 52.2346 26.6742 52.2145L26.5484 51.7728C26.5427 51.7527 26.5563 51.7313 26.5788 51.725C26.6012 51.7187 26.6241 51.7299 26.6298 51.7499L26.7555 52.1917C26.7612 52.2117 26.7477 52.2331 26.7252 52.2394Z" fill="#42A0F0"/>
<path fill-rule="evenodd" clip-rule="evenodd" d="M27.1269 51.6237C27.1322 51.6438 27.1182 51.665 27.0956 51.6709L26.5909 51.804C26.5683 51.81 26.5458 51.7985 26.5404 51.7783C26.5351 51.7581 26.5491 51.737 26.5717 51.731L27.0764 51.5979C27.099 51.592 27.1216 51.6035 27.1269 51.6237Z" fill="#42A0F0"/>
<path fill-rule="evenodd" clip-rule="evenodd" d="M25.6619 51.25C25.6669 51.2702 25.6525 51.2912 25.6299 51.2968L25.1309 51.4209C25.1083 51.4265 25.0859 51.4146 25.081 51.3944C25.076 51.3741 25.0904 51.3532 25.113 51.3475L25.612 51.2235C25.6346 51.2179 25.657 51.2297 25.6619 51.25Z" fill="#42A0F0"/>
<path fill-rule="evenodd" clip-rule="evenodd" d="M25.6236 51.3028C25.6011 51.3088 25.5785 51.2973 25.5731 51.2771L25.4535 50.8265C25.4481 50.8063 25.4621 50.7851 25.4846 50.7791C25.5072 50.7731 25.5298 50.7846 25.5351 50.8048L25.6548 51.2554C25.6601 51.2756 25.6462 51.2968 25.6236 51.3028Z" fill="#42A0F0"/>
<path fill-rule="evenodd" clip-rule="evenodd" d="M18.2913 42.7584C18.3134 42.7584 18.3313 42.7763 18.3313 42.7985V44.3038C18.3313 44.3259 18.3134 44.3438 18.2913 44.3438C18.2692 44.3438 18.2512 44.3259 18.2512 44.3038V42.7985C18.2512 42.7763 18.2692 42.7584 18.2913 42.7584Z" fill="#42A0F0"/>
<path fill-rule="evenodd" clip-rule="evenodd" d="M18.5616 42.9988C18.5706 43.019 18.5616 43.0427 18.5414 43.0517L18.2666 43.1745C18.2464 43.1835 18.2227 43.1744 18.2137 43.1542C18.2047 43.1341 18.2137 43.1104 18.2339 43.1014L18.5087 42.9786C18.5289 42.9696 18.5526 42.9786 18.5616 42.9988Z" fill="#42A0F0"/>
<path fill-rule="evenodd" clip-rule="evenodd" d="M17.8027 43.0037C17.809 42.9825 17.8313 42.9705 17.8525 42.9768L18.2616 43.0986C18.2828 43.1049 18.2948 43.1272 18.2885 43.1484C18.2822 43.1696 18.2599 43.1816 18.2387 43.1753L17.8296 43.0535C17.8085 43.0472 17.7964 43.0249 17.8027 43.0037Z" fill="#42A0F0"/>
<path fill-rule="evenodd" clip-rule="evenodd" d="M18.2137 43.9731C18.2227 43.9529 18.2464 43.9438 18.2666 43.9528L18.5414 44.0756C18.5616 44.0846 18.5706 44.1083 18.5616 44.1285C18.5526 44.1487 18.5289 44.1577 18.5087 44.1487L18.2339 44.0259C18.2137 44.0169 18.2047 43.9932 18.2137 43.9731Z" fill="#42A0F0"/>
<path fill-rule="evenodd" clip-rule="evenodd" d="M18.2885 43.978C18.2948 43.9991 18.2828 44.0214 18.2616 44.0277L17.8525 44.1496C17.8313 44.1559 17.809 44.1438 17.8027 44.1226C17.7964 44.1014 17.8085 44.0791 17.8296 44.0728L18.2387 43.951C18.2599 43.9447 18.2822 43.9568 18.2885 43.978Z" fill="#42A0F0"/>
<path fill-rule="evenodd" clip-rule="evenodd" d="M19.0527 43.1627C19.0647 43.1812 19.0585 43.2045 19.0389 43.2146L17.5789 43.9673C17.5593 43.9774 17.5336 43.9706 17.5216 43.952C17.5096 43.9335 17.5158 43.9102 17.5354 43.9001L18.9954 43.1474C19.0151 43.1373 19.0407 43.1441 19.0527 43.1627Z" fill="#42A0F0"/>
<path fill-rule="evenodd" clip-rule="evenodd" d="M19.1054 43.47C19.1005 43.4903 19.0781 43.5021 19.0555 43.4965L18.6476 43.3952C18.6249 43.3895 18.6106 43.3686 18.6155 43.3483C18.6204 43.3281 18.6428 43.3162 18.6654 43.3218L19.0734 43.4232C19.096 43.4288 19.1104 43.4498 19.1054 43.47Z" fill="#42A0F0"/>
<path fill-rule="evenodd" clip-rule="evenodd" d="M18.7717 42.9603C18.7942 42.9663 18.8082 42.9875 18.8028 43.0076L18.705 43.3761C18.6996 43.3963 18.677 43.4078 18.6545 43.4018C18.6319 43.3958 18.618 43.3746 18.6233 43.3545L18.7212 42.9859C18.7265 42.9658 18.7491 42.9543 18.7717 42.9603Z" fill="#42A0F0"/>
<path fill-rule="evenodd" clip-rule="evenodd" d="M17.8842 43.7276C17.9066 43.7339 17.9202 43.7553 17.9145 43.7753L17.8116 44.1364C17.8059 44.1565 17.7831 44.1676 17.7606 44.1613C17.7381 44.155 17.7246 44.1336 17.7303 44.1136L17.8331 43.7525C17.8388 43.7324 17.8617 43.7213 17.8842 43.7276Z" fill="#42A0F0"/>
<path fill-rule="evenodd" clip-rule="evenodd" d="M17.9222 43.7816C17.9169 43.8018 17.8943 43.8133 17.8717 43.8074L17.459 43.6985C17.4365 43.6926 17.4225 43.6714 17.4278 43.6513C17.4331 43.6311 17.4557 43.6196 17.4782 43.6255L17.8909 43.7344C17.9135 43.7403 17.9275 43.7615 17.9222 43.7816Z" fill="#42A0F0"/>
<path fill-rule="evenodd" clip-rule="evenodd" d="M19.0452 43.952C19.0332 43.9705 19.0075 43.9774 18.9879 43.9673L17.5279 43.2146C17.5082 43.2045 17.502 43.1812 17.514 43.1626C17.526 43.1441 17.5517 43.1372 17.5714 43.1474L19.0313 43.9C19.051 43.9102 19.0572 43.9334 19.0452 43.952Z" fill="#42A0F0"/>
<path fill-rule="evenodd" clip-rule="evenodd" d="M18.7717 44.1434C18.7493 44.1497 18.7264 44.1386 18.7207 44.1185L18.6178 43.7574C18.6121 43.7374 18.6257 43.716 18.6482 43.7097C18.6706 43.7034 18.6935 43.7145 18.6992 43.7346L18.8021 44.0957C18.8078 44.1157 18.7942 44.1371 18.7717 44.1434Z" fill="#42A0F0"/>
<path fill-rule="evenodd" clip-rule="evenodd" d="M19.1044 43.6333C19.1097 43.6535 19.0957 43.6746 19.0732 43.6806L18.6605 43.7894C18.6379 43.7954 18.6153 43.7838 18.61 43.7637C18.6047 43.7435 18.6187 43.7224 18.6413 43.7164L19.054 43.6076C19.0765 43.6016 19.0991 43.6131 19.1044 43.6333Z" fill="#42A0F0"/>
<path fill-rule="evenodd" clip-rule="evenodd" d="M17.9166 43.3304C17.9215 43.3507 17.9072 43.3716 17.8845 43.3773L17.4766 43.4786C17.454 43.4842 17.4316 43.4724 17.4267 43.4521C17.4217 43.4319 17.4361 43.4109 17.4587 43.4053L17.8666 43.3039C17.8893 43.2983 17.9117 43.3102 17.9166 43.3304Z" fill="#42A0F0"/>
<path fill-rule="evenodd" clip-rule="evenodd" d="M17.8778 43.3839C17.8552 43.3899 17.8326 43.3785 17.8272 43.3583L17.7294 42.9898C17.724 42.9697 17.738 42.9485 17.7605 42.9425C17.7831 42.9365 17.8057 42.948 17.8111 42.9681L17.9089 43.3366C17.9142 43.3568 17.9003 43.378 17.8778 43.3839Z" fill="#42A0F0"/>
<g filter="url(#filter1_df_19_1841)">
<g filter="url(#filter2_d_19_1841)">
<path d="M42.4737 37.9933C42.1074 38.0196 41.7375 38.0328 41.3639 38.0331H15.3055C13.5118 38.039 11.7345 37.7287 10.0754 37.12C8.41629 36.5112 6.90815 35.6159 5.63744 34.4855C4.36674 33.3551 3.35849 32.0118 2.67052 30.5326C1.98256 29.0535 1.62842 27.4676 1.62842 25.8659C1.62842 24.2643 1.98256 22.6784 2.67052 21.1993C3.35849 19.7201 4.36674 18.3768 5.63744 17.2464C6.90815 16.116 8.41629 15.2207 10.0754 14.6119C11.7345 14.0031 13.5118 13.6928 15.3055 13.6988H25.0214C28.1714 7.51055 35.4261 3.1792 43.8719 3.1792C55.2081 3.1792 64.398 10.9816 64.398 20.6061C64.398 30.2307 55.2081 38.0331 43.8719 38.0331C43.402 38.0331 42.9359 38.0198 42.4737 37.9933Z" fill="url(#paint0_linear_19_1841)"/>
<path d="M43.8718 37.8639C45.2524 37.8639 46.632 37.7458 47.9724 37.5129C49.2785 37.286 50.5632 36.9474 51.7908 36.5066C52.9961 36.0738 54.1585 35.5381 55.2458 34.9145C56.3227 34.2968 57.3353 33.5875 58.2555 32.8062C59.1755 32.0251 60.0107 31.1656 60.738 30.2517C61.4721 29.3292 62.1025 28.343 62.6119 27.3207C63.1305 26.2796 63.5288 25.1901 63.7958 24.0826C64.0697 22.9462 64.2086 21.7765 64.2086 20.6061C64.2086 19.4356 64.0697 18.266 63.7958 17.1296C63.5288 16.022 63.1305 14.9326 62.6119 13.8916C62.1025 12.8692 61.4721 11.8831 60.738 10.9606C60.0107 10.0467 59.1755 9.18718 58.2555 8.40606C57.3353 7.62479 56.3227 6.91548 55.2458 6.29782C54.1585 5.67415 52.9961 5.13847 51.7908 4.70568C50.5632 4.26484 49.2785 3.92625 47.9724 3.69934C46.632 3.46647 45.2524 3.34839 43.8718 3.34839C39.8224 3.34839 35.9116 4.35549 32.5623 6.26081C30.9478 7.17923 29.497 8.28781 28.2502 9.55574C26.9956 10.8317 25.9672 12.2491 25.1938 13.7688L25.1433 13.868H25.0213H15.3054C13.4914 13.868 11.7317 14.1852 10.0753 14.8107C9.27916 15.1114 8.51127 15.4836 7.79295 15.9169C7.08142 16.3462 6.41231 16.8391 5.80422 17.3821C5.19613 17.9251 4.64407 18.5225 4.16336 19.1579C3.67808 19.7993 3.26128 20.4849 2.92454 21.1958C2.22392 22.6749 1.86868 24.2461 1.86868 25.8659C1.86868 27.4857 2.22392 29.0569 2.92454 30.536C3.26128 31.2469 3.67808 31.9326 4.16336 32.574C4.64407 33.2093 5.19613 33.8068 5.80422 34.3498C6.41231 34.8927 7.08142 35.3857 7.79295 35.8149C8.51127 36.2482 9.27916 36.6204 10.0753 36.9211C11.7317 37.5467 13.4914 37.8639 15.3054 37.8639H41.3639C41.7283 37.8639 42.0966 37.8507 42.4586 37.8246L42.4722 37.8237L42.4859 37.8244C42.9443 37.8506 43.4106 37.8639 43.8718 37.8639ZM43.8718 38.0331C43.402 38.0331 42.9357 38.0197 42.4738 37.9933C42.1079 38.0196 41.7374 38.0331 41.3639 38.0331H15.3054C7.7799 38.0331 1.6792 32.5856 1.6792 25.8659C1.6792 19.1462 7.7799 13.6988 15.3054 13.6988H25.0213C28.1713 7.50978 35.4257 3.1792 43.8718 3.1792C55.2081 3.1792 64.398 10.9816 64.398 20.6061C64.398 30.2307 55.2081 38.0331 43.8718 38.0331Z" fill="white" fill-opacity="0.5"/>
</g>
</g>
<defs>
<filter id="filter0_f_19_1841" x="20.4744" y="27.1954" width="24.672" height="23.3595" filterUnits="userSpaceOnUse" color-interpolation-filters="sRGB">
<feFlood flood-opacity="0" result="BackgroundImageFix"/>
<feBlend mode="normal" in="SourceGraphic" in2="BackgroundImageFix" result="shape"/>
<feGaussianBlur stdDeviation="0.160122" result="effect1_foregroundBlur_19_1841"/>
</filter>
<filter id="filter1_df_19_1841" x="0.0271947" y="0.937487" width="67.5732" height="39.6577" filterUnits="userSpaceOnUse" color-interpolation-filters="sRGB">
<feFlood flood-opacity="0" result="BackgroundImageFix"/>
<feColorMatrix in="SourceAlpha" type="matrix" values="0 0 0 0 0 0 0 0 0 0 0 0 0 0 0 0 0 0 127 0" result="hardAlpha"/>
<feOffset dx="0.800612" dy="0.160122"/>
<feGaussianBlur stdDeviation="1.20092"/>
<feColorMatrix type="matrix" values="0 0 0 0 0.258824 0 0 0 0 0.627451 0 0 0 0 0.941176 0 0 0 0.596 0"/>
<feBlend mode="normal" in2="BackgroundImageFix" result="effect1_dropShadow_19_1841"/>
<feBlend mode="normal" in="SourceGraphic" in2="effect1_dropShadow_19_1841" result="shape"/>
<feGaussianBlur stdDeviation="0.160122" result="effect2_foregroundBlur_19_1841"/>
</filter>
<filter id="filter2_d_19_1841" x="0.0271947" y="0.937487" width="67.5732" height="39.6577" filterUnits="userSpaceOnUse" color-interpolation-filters="sRGB">
<feFlood flood-opacity="0" result="BackgroundImageFix"/>
<feColorMatrix in="SourceAlpha" type="matrix" values="0 0 0 0 0 0 0 0 0 0 0 0 0 0 0 0 0 0 127 0" result="hardAlpha"/>
<feOffset dx="0.800612" dy="0.160122"/>
<feGaussianBlur stdDeviation="1.20092"/>
<feColorMatrix type="matrix" values="0 0 0 0 0.501961 0 0 0 0 0.501961 0 0 0 0 0.501961 0 0 0 0.302 0"/>
<feBlend mode="normal" in2="BackgroundImageFix" result="effect1_dropShadow_19_1841"/>
<feBlend mode="normal" in="SourceGraphic" in2="effect1_dropShadow_19_1841" result="shape"/>
</filter>
<linearGradient id="paint0_linear_19_1841" x1="27.0501" y1="7.5708" x2="37.2478" y2="40.6369" gradientUnits="userSpaceOnUse">
<stop stop-color="white" stop-opacity="0.596"/>
<stop offset="1" stop-color="#F7F7F7" stop-opacity="0.204"/>
</linearGradient>
</defs>
</svg>
