<svg width="69" height="48" viewBox="0 0 69 48" fill="none" xmlns="http://www.w3.org/2000/svg">
<g filter="url(#filter0_f_19_198)">
<path fill-rule="evenodd" clip-rule="evenodd" d="M32.953 22.7018C33.9346 22.3346 35.0948 22.2816 36.431 22.7257C39.1188 23.6191 40.4949 25.9008 40.4959 28.1512C40.4968 30.4083 39.1108 32.6202 36.3897 33.3255C33.8833 33.9751 29.8704 34.1549 26.5445 34.18C24.8689 34.1926 23.3462 34.1659 22.2425 34.136C21.6904 34.121 21.2428 34.1052 20.9328 34.0932C20.7778 34.0872 20.6572 34.0821 20.5751 34.0785L20.4813 34.0743L20.4492 34.0728C20.449 34.0728 20.4485 34.0728 20.4794 33.433L20.5103 32.7933L20.5403 32.7947L20.6311 32.7988C20.7112 32.8023 20.8297 32.8073 20.9825 32.8132C21.2881 32.8251 21.7307 32.8406 22.2772 32.8554C23.3704 32.8851 24.8779 32.9116 26.5349 32.8991C29.8741 32.8739 33.736 32.69 36.0683 32.0855C38.1858 31.5367 39.2156 29.8656 39.2149 28.1517C39.2142 26.4312 38.171 24.6539 36.027 23.9413C34.9472 23.5824 34.089 23.6445 33.4019 23.9016C32.7031 24.163 32.1303 24.6458 31.6694 25.2049C31.2087 25.7639 30.8788 26.3768 30.6631 26.8569C30.556 27.0954 30.4789 27.2969 30.4292 27.4369C30.4044 27.5069 30.3865 27.5611 30.3752 27.5966C30.3695 27.6143 30.3655 27.6274 30.3631 27.6353L30.3607 27.6432M30.3607 27.6432C30.2627 27.9829 29.9078 28.1794 29.5681 28.0816C29.2281 27.9837 29.0319 27.6288 29.1297 27.2889L29.7452 27.4661C29.1297 27.2889 29.1297 27.2892 29.1297 27.2889L29.1306 27.2858L29.1322 27.2806L29.1371 27.264C29.1413 27.2503 29.1471 27.2313 29.1548 27.2074C29.17 27.1596 29.1923 27.0922 29.2221 27.0083C29.2816 26.8408 29.3713 26.6066 29.4946 26.3321C29.7397 25.7864 30.1247 25.065 30.6809 24.3902C31.237 23.7154 31.9831 23.0647 32.953 22.7018M19.8396 33.4022C19.8567 33.0488 20.157 32.7762 20.5103 32.7933L20.4794 33.433L20.4492 34.0728C20.0958 34.0558 19.8226 33.7555 19.8396 33.4022Z" fill="#D0D0D0"/>
<path fill-rule="evenodd" clip-rule="evenodd" d="M6.31055 41.6131C6.31046 41.6131 6.31043 41.6131 6.25893 40.9747C6.20743 40.3363 6.20752 40.3363 6.20769 40.3363L6.25587 40.3324L6.3958 40.3216C6.51853 40.3121 6.69914 40.2985 6.93137 40.2816C7.39581 40.2479 8.06683 40.2012 8.89444 40.1494C10.5494 40.0458 12.8319 39.9214 15.3418 39.8384C20.3389 39.6732 26.3126 39.669 30.005 40.3447C31.8591 40.684 33.1768 41.1934 34.0336 41.8178C34.902 42.4506 35.3503 43.2507 35.2748 44.1082C35.2023 44.9314 34.6611 45.615 33.9811 46.0813C33.2914 46.5542 32.389 46.8579 31.4235 46.9067C29.5837 46.9999 27.8401 46.5079 26.5769 46.0094C25.9411 45.7586 25.4169 45.502 25.05 45.3073C24.8663 45.2098 24.7215 45.1275 24.6212 45.0687C24.571 45.0393 24.532 45.0157 24.5047 44.999L24.4728 44.9793L24.4636 44.9735L24.4607 44.9717L24.4597 44.9711C24.4596 44.971 24.459 44.9707 24.7649 44.4895L24.4597 44.9711C24.1612 44.7813 24.0724 44.385 24.2622 44.0865C24.4519 43.7881 24.8474 43.7 25.1459 43.8894L25.1509 43.8925L25.1733 43.9064C25.194 43.919 25.2262 43.9385 25.2692 43.9637C25.3553 44.0142 25.4842 44.0876 25.6505 44.1758C25.9836 44.3526 26.4639 44.5878 27.047 44.8179C28.2213 45.2812 29.772 45.7077 31.3588 45.6274C32.1066 45.5896 32.7769 45.3538 33.2567 45.0248C33.7462 44.6892 33.9712 44.3087 33.9987 43.9958C34.0233 43.7173 33.9057 43.3096 33.2792 42.8531C32.6413 42.3882 31.5354 41.927 29.7744 41.6047C26.2365 40.9573 20.3948 40.9531 15.3841 41.1187C12.8901 41.2011 10.6206 41.3248 8.97451 41.4279C8.15161 41.4794 7.48486 41.5258 7.02415 41.5592C6.79381 41.576 6.615 41.5895 6.49396 41.5988L6.35652 41.6094L6.31055 41.6131ZM5.62051 41.0262C5.59207 40.6736 5.8551 40.3647 6.20769 40.3363L6.25893 40.9747L6.31055 41.6131C5.95796 41.6415 5.64896 41.3788 5.62051 41.0262Z" fill="#D0D0D0"/>
</g>
<g filter="url(#filter1_f_19_198)">
<path fill-rule="evenodd" clip-rule="evenodd" d="M66.2722 28.488C66.2943 28.488 66.3123 28.506 66.3123 28.5281V30.0251C66.3123 30.0472 66.2943 30.0651 66.2722 30.0651C66.2501 30.0651 66.2322 30.0472 66.2322 30.0251V28.5281C66.2322 28.506 66.2501 28.488 66.2722 28.488Z" fill="#42A0F0"/>
<path fill-rule="evenodd" clip-rule="evenodd" d="M66.5474 28.7552C66.5565 28.7753 66.5474 28.799 66.5272 28.808L66.2524 28.9308C66.2322 28.9398 66.2086 28.9308 66.1995 28.9106C66.1905 28.8904 66.1996 28.8667 66.2198 28.8577L66.4946 28.7349C66.5147 28.7259 66.5384 28.735 66.5474 28.7552Z" fill="#42A0F0"/>
<path fill-rule="evenodd" clip-rule="evenodd" d="M65.7885 28.7601C65.7949 28.7389 65.8171 28.7268 65.8383 28.7331L66.2474 28.8549C66.2686 28.8612 66.2807 28.8835 66.2744 28.9047C66.2681 28.9259 66.2458 28.938 66.2246 28.9317L65.8155 28.8099C65.7943 28.8035 65.7822 28.7813 65.7885 28.7601Z" fill="#42A0F0"/>
<path fill-rule="evenodd" clip-rule="evenodd" d="M66.1995 29.7295C66.2086 29.7093 66.2322 29.7003 66.2524 29.7093L66.5272 29.8321C66.5474 29.8411 66.5565 29.8648 66.5474 29.885C66.5384 29.9051 66.5147 29.9142 66.4946 29.9052L66.2198 29.7824C66.1996 29.7734 66.1905 29.7497 66.1995 29.7295Z" fill="#42A0F0"/>
<path fill-rule="evenodd" clip-rule="evenodd" d="M66.2744 29.7344C66.2807 29.7556 66.2686 29.7779 66.2474 29.7842L65.8383 29.906C65.8171 29.9123 65.7949 29.9003 65.7885 29.8791C65.7822 29.8579 65.7943 29.8356 65.8155 29.8293L66.2246 29.7075C66.2458 29.7012 66.2681 29.7132 66.2744 29.7344Z" fill="#42A0F0"/>
<path fill-rule="evenodd" clip-rule="evenodd" d="M67.0298 28.8902C67.0418 28.9088 67.0356 28.932 67.0159 28.9422L65.564 29.6907C65.5444 29.7008 65.5187 29.694 65.5067 29.6754C65.4947 29.6568 65.5009 29.6336 65.5205 29.6235L66.9725 28.8749C66.9921 28.8648 67.0178 28.8716 67.0298 28.8902Z" fill="#42A0F0"/>
<path fill-rule="evenodd" clip-rule="evenodd" d="M67.0824 29.1959C67.0775 29.2161 67.0551 29.228 67.0325 29.2223L66.6268 29.1215C66.6041 29.1158 66.5898 29.0949 66.5947 29.0746C66.5997 29.0544 66.622 29.0425 66.6447 29.0481L67.0504 29.149C67.073 29.1546 67.0874 29.1756 67.0824 29.1959Z" fill="#42A0F0"/>
<path fill-rule="evenodd" clip-rule="evenodd" d="M66.7497 28.689C66.7723 28.6949 66.7862 28.7161 66.7809 28.7363L66.6836 29.1027C66.6782 29.1228 66.6556 29.1343 66.633 29.1283C66.6105 29.1223 66.5966 29.1011 66.6019 29.081L66.6992 28.7146C66.7045 28.6944 66.7272 28.683 66.7497 28.689Z" fill="#42A0F0"/>
<path fill-rule="evenodd" clip-rule="evenodd" d="M65.8671 29.4518C65.8895 29.4581 65.9031 29.4795 65.8974 29.4996L65.7952 29.8587C65.7895 29.8788 65.7666 29.8899 65.7442 29.8836C65.7217 29.8773 65.7081 29.8559 65.7138 29.8359L65.816 29.4767C65.8218 29.4567 65.8446 29.4455 65.8671 29.4518Z" fill="#42A0F0"/>
<path fill-rule="evenodd" clip-rule="evenodd" d="M65.9049 29.5057C65.8996 29.5259 65.877 29.5374 65.8545 29.5315L65.4441 29.4233C65.4216 29.4173 65.4076 29.3961 65.4129 29.376C65.4182 29.3558 65.4408 29.3443 65.4633 29.3503L65.8737 29.4585C65.8962 29.4644 65.9102 29.4856 65.9049 29.5057Z" fill="#42A0F0"/>
<path fill-rule="evenodd" clip-rule="evenodd" d="M67.0215 29.6754C67.0095 29.6939 66.9838 29.7008 66.9642 29.6906L65.5122 28.9421C65.4926 28.932 65.4864 28.9087 65.4984 28.8902C65.5104 28.8716 65.5361 28.8648 65.5557 28.8749L67.0076 29.6234C67.0273 29.6335 67.0335 29.6568 67.0215 29.6754Z" fill="#42A0F0"/>
<path fill-rule="evenodd" clip-rule="evenodd" d="M66.7496 29.8658C66.7271 29.8721 66.7043 29.861 66.6986 29.841L66.5963 29.4818C66.5906 29.4617 66.6042 29.4404 66.6267 29.4341C66.6492 29.4278 66.672 29.4389 66.6777 29.4589L66.7799 29.8181C66.7856 29.8382 66.772 29.8595 66.7496 29.8658Z" fill="#42A0F0"/>
<path fill-rule="evenodd" clip-rule="evenodd" d="M67.081 29.358C67.0863 29.3782 67.0723 29.3994 67.0497 29.4053L66.6394 29.5135C66.6168 29.5195 66.5942 29.508 66.5889 29.4878C66.5836 29.4676 66.5976 29.4465 66.6202 29.4405L67.0305 29.3323C67.0531 29.3264 67.0757 29.3379 67.081 29.358Z" fill="#42A0F0"/>
<path fill-rule="evenodd" clip-rule="evenodd" d="M65.8995 29.0571C65.9044 29.0773 65.8901 29.0983 65.8675 29.104L65.4618 29.2048C65.4391 29.2105 65.4168 29.1986 65.4118 29.1784C65.4069 29.1581 65.4212 29.1371 65.4439 29.1315L65.8495 29.0306C65.8722 29.025 65.8946 29.0368 65.8995 29.0571Z" fill="#42A0F0"/>
<path fill-rule="evenodd" clip-rule="evenodd" d="M65.8603 29.1106C65.8378 29.1166 65.8152 29.1051 65.8098 29.085L65.7125 28.7186C65.7072 28.6984 65.7211 28.6772 65.7437 28.6712C65.7662 28.6653 65.7888 28.6767 65.7942 28.6969L65.8915 29.0633C65.8968 29.0834 65.8829 29.1046 65.8603 29.1106Z" fill="#42A0F0"/>
</g>
<g filter="url(#filter2_f_19_198)">
<path fill-rule="evenodd" clip-rule="evenodd" d="M60.7903 20.2974C60.8124 20.2974 60.8303 20.3153 60.8303 20.3374V22.9037C60.8303 22.9258 60.8124 22.9438 60.7903 22.9438C60.7682 22.9438 60.7503 22.9258 60.7503 22.9037V20.3374C60.7503 20.3153 60.7682 20.2974 60.7903 20.2974Z" fill="#42A0F0"/>
<path fill-rule="evenodd" clip-rule="evenodd" d="M61.255 20.7891C61.2598 20.8107 61.2462 20.8321 61.2247 20.8369L60.6791 20.9587C60.6576 20.9636 60.6362 20.95 60.6313 20.9284C60.6265 20.9068 60.6401 20.8854 60.6617 20.8806L61.2072 20.7588C61.2288 20.754 61.2502 20.7676 61.255 20.7891Z" fill="#42A0F0"/>
<path fill-rule="evenodd" clip-rule="evenodd" d="M59.9491 20.7908C59.953 20.769 59.9738 20.7546 59.9956 20.7584L60.6775 20.8803C60.6993 20.8842 60.7138 20.9049 60.7099 20.9267C60.706 20.9485 60.6852 20.963 60.6634 20.9591L59.9815 20.8373C59.9597 20.8334 59.9452 20.8126 59.9491 20.7908Z" fill="#42A0F0"/>
<path fill-rule="evenodd" clip-rule="evenodd" d="M60.6339 22.3645C60.6429 22.3444 60.6665 22.3353 60.6867 22.3443L61.2322 22.5878C61.2524 22.5968 61.2615 22.6205 61.2525 22.6406C61.2435 22.6608 61.2198 22.6699 61.1996 22.6609L60.6541 22.4174C60.6339 22.4084 60.6248 22.3847 60.6339 22.3645Z" fill="#42A0F0"/>
<path fill-rule="evenodd" clip-rule="evenodd" d="M60.7082 22.3674C60.7156 22.3882 60.7048 22.4111 60.6839 22.4186L60.002 22.662C59.9812 22.6695 59.9583 22.6586 59.9508 22.6378C59.9434 22.617 59.9542 22.5941 59.9751 22.5866L60.657 22.3432C60.6778 22.3357 60.7007 22.3466 60.7082 22.3674Z" fill="#42A0F0"/>
<path fill-rule="evenodd" clip-rule="evenodd" d="M62.0635 20.9713C62.0755 20.9898 62.0693 21.0131 62.0496 21.0232L59.5606 22.3064C59.541 22.3165 59.5153 22.3097 59.5033 22.2911C59.4913 22.2726 59.4975 22.2493 59.5171 22.2392L62.0062 20.956C62.0258 20.9459 62.0515 20.9527 62.0635 20.9713Z" fill="#42A0F0"/>
<path fill-rule="evenodd" clip-rule="evenodd" d="M62.1482 21.472C62.1432 21.4923 62.1209 21.5041 62.0982 21.4985L61.4084 21.327C61.3857 21.3213 61.3714 21.3003 61.3763 21.2801C61.3812 21.2598 61.4036 21.248 61.4263 21.2536L62.1161 21.4251C62.1388 21.4308 62.1531 21.4518 62.1482 21.472Z" fill="#42A0F0"/>
<path fill-rule="evenodd" clip-rule="evenodd" d="M61.6032 20.6391C61.6258 20.6451 61.6397 20.6663 61.6344 20.6865L61.4689 21.3096C61.4636 21.3297 61.441 21.3412 61.4184 21.3352C61.3959 21.3292 61.3819 21.308 61.3873 21.2879L61.5527 20.6648C61.5581 20.6446 61.5807 20.6332 61.6032 20.6391Z" fill="#42A0F0"/>
<path fill-rule="evenodd" clip-rule="evenodd" d="M60.0887 21.9467C60.1112 21.953 60.1248 21.9744 60.1191 21.9944L59.9452 22.6052C59.9395 22.6253 59.9167 22.6364 59.8942 22.6301C59.8718 22.6238 59.8582 22.6024 59.8639 22.5824L60.0377 21.9716C60.0434 21.9515 60.0663 21.9404 60.0887 21.9467Z" fill="#42A0F0"/>
<path fill-rule="evenodd" clip-rule="evenodd" d="M60.1298 22.0023C60.1245 22.0225 60.1019 22.034 60.0794 22.028L59.3815 21.844C59.359 21.8381 59.345 21.8169 59.3503 21.7968C59.3556 21.7766 59.3782 21.7651 59.4008 21.771L60.0986 21.955C60.1211 21.961 60.1351 21.9822 60.1298 22.0023Z" fill="#42A0F0"/>
<path fill-rule="evenodd" clip-rule="evenodd" d="M62.0493 22.2911C62.0373 22.3097 62.0117 22.3165 61.992 22.3064L59.503 21.0232C59.4833 21.0131 59.4771 20.9898 59.4891 20.9712C59.5011 20.9527 59.5268 20.9458 59.5465 20.956L62.0355 22.2391C62.0551 22.2493 62.0613 22.2725 62.0493 22.2911Z" fill="#42A0F0"/>
<path fill-rule="evenodd" clip-rule="evenodd" d="M61.603 22.6017C61.5805 22.608 61.5577 22.5969 61.552 22.5768L61.3782 21.966C61.3725 21.946 61.386 21.9246 61.4085 21.9183C61.431 21.912 61.4538 21.9231 61.4595 21.9432L61.6333 22.554C61.639 22.574 61.6255 22.5954 61.603 22.6017Z" fill="#42A0F0"/>
<path fill-rule="evenodd" clip-rule="evenodd" d="M62.1469 21.7684C62.1522 21.7886 62.1382 21.8098 62.1157 21.8157L61.4178 21.9997C61.3953 22.0057 61.3727 21.9942 61.3674 21.974C61.3621 21.9538 61.3761 21.9327 61.3986 21.9267L62.0965 21.7427C62.119 21.7368 62.1416 21.7483 62.1469 21.7684Z" fill="#42A0F0"/>
<path fill-rule="evenodd" clip-rule="evenodd" d="M60.1222 21.2517C60.1271 21.2719 60.1128 21.2929 60.0901 21.2985L59.4002 21.4701C59.3776 21.4757 59.3552 21.4638 59.3503 21.4436C59.3453 21.4233 59.3597 21.4024 59.3823 21.3967L60.0722 21.2252C60.0948 21.2196 60.1172 21.2314 60.1222 21.2517Z" fill="#42A0F0"/>
<path fill-rule="evenodd" clip-rule="evenodd" d="M60.08 21.3069C60.0575 21.3129 60.0349 21.3014 60.0295 21.2813L59.8641 20.6582C59.8587 20.638 59.8726 20.6168 59.8952 20.6108C59.9178 20.6048 59.9404 20.6163 59.9457 20.6365L60.1112 21.2596C60.1165 21.2797 60.1026 21.3009 60.08 21.3069Z" fill="#42A0F0"/>
</g>
<g filter="url(#filter3_f_19_198)">
<path fill-rule="evenodd" clip-rule="evenodd" d="M40.4507 36.1262C40.4728 36.1262 40.4907 36.1441 40.4907 36.1663V38.2732C40.4907 38.2953 40.4728 38.3132 40.4507 38.3132C40.4286 38.3132 40.4107 38.2953 40.4107 38.2732V36.1663C40.4107 36.1441 40.4286 36.1262 40.4507 36.1262Z" fill="#42A0F0"/>
<path fill-rule="evenodd" clip-rule="evenodd" d="M40.7761 36.4935C40.7824 36.5146 40.7703 36.5369 40.7491 36.5433L40.34 36.6651C40.3189 36.6714 40.2966 36.6593 40.2902 36.6381C40.2839 36.6169 40.296 36.5946 40.3172 36.5883L40.7263 36.4665C40.7475 36.4602 40.7698 36.4723 40.7761 36.4935Z" fill="#42A0F0"/>
<path fill-rule="evenodd" clip-rule="evenodd" d="M39.7436 36.4962C39.7485 36.4746 39.7699 36.461 39.7914 36.4658L40.337 36.5876C40.3585 36.5925 40.3721 36.6138 40.3673 36.6354C40.3625 36.657 40.3411 36.6706 40.3195 36.6658L39.774 36.544C39.7524 36.5391 39.7388 36.5177 39.7436 36.4962Z" fill="#42A0F0"/>
<path fill-rule="evenodd" clip-rule="evenodd" d="M40.2942 37.824C40.3055 37.805 40.3301 37.7988 40.3491 37.8101L40.7582 38.0536C40.7772 38.0649 40.7834 38.0894 40.7721 38.1084C40.7608 38.1274 40.7362 38.1337 40.7172 38.1223L40.3081 37.8789C40.2891 37.8676 40.2829 37.843 40.2942 37.824Z" fill="#42A0F0"/>
<path fill-rule="evenodd" clip-rule="evenodd" d="M40.3648 37.8282C40.3738 37.8484 40.3647 37.872 40.3446 37.881L39.799 38.1245C39.7788 38.1335 39.7552 38.1245 39.7462 38.1043C39.7372 38.0841 39.7462 38.0604 39.7664 38.0514L40.3119 37.8079C40.3321 37.7989 40.3558 37.808 40.3648 37.8282Z" fill="#42A0F0"/>
<path fill-rule="evenodd" clip-rule="evenodd" d="M41.5022 36.6834C41.5142 36.702 41.508 36.7253 41.4883 36.7354L39.4448 37.7889C39.4252 37.799 39.3995 37.7922 39.3875 37.7736C39.3755 37.755 39.3817 37.7318 39.4014 37.7216L41.4449 36.6682C41.4645 36.658 41.4902 36.6649 41.5022 36.6834Z" fill="#42A0F0"/>
<path fill-rule="evenodd" clip-rule="evenodd" d="M41.5725 37.0998C41.5676 37.1201 41.5452 37.1319 41.5225 37.1263L40.956 36.9854C40.9334 36.9798 40.919 36.9588 40.924 36.9386C40.9289 36.9183 40.9513 36.9065 40.9739 36.9121L41.5405 37.053C41.5631 37.0586 41.5774 37.0796 41.5725 37.0998Z" fill="#42A0F0"/>
<path fill-rule="evenodd" clip-rule="evenodd" d="M41.1191 36.4075C41.1416 36.4135 41.1556 36.4346 41.1502 36.4548L41.0144 36.9665C41.009 36.9866 40.9864 36.9981 40.9639 36.9921C40.9413 36.9861 40.9274 36.9649 40.9327 36.9448L41.0686 36.4331C41.0739 36.4129 41.0965 36.4015 41.1191 36.4075Z" fill="#42A0F0"/>
<path fill-rule="evenodd" clip-rule="evenodd" d="M39.8761 37.4811C39.8986 37.4874 39.9121 37.5088 39.9064 37.5288L39.7637 38.0304C39.758 38.0505 39.7351 38.0616 39.7127 38.0553C39.6902 38.049 39.6766 38.0276 39.6823 38.0076L39.8251 37.506C39.8308 37.486 39.8536 37.4748 39.8761 37.4811Z" fill="#42A0F0"/>
<path fill-rule="evenodd" clip-rule="evenodd" d="M39.916 37.5351C39.9107 37.5553 39.8881 37.5668 39.8655 37.5609L39.2925 37.4098C39.2699 37.4038 39.2559 37.3826 39.2612 37.3625C39.2665 37.3423 39.2891 37.3308 39.3117 37.3368L39.8847 37.4879C39.9073 37.4938 39.9213 37.515 39.916 37.5351Z" fill="#42A0F0"/>
<path fill-rule="evenodd" clip-rule="evenodd" d="M41.491 37.7735C41.479 37.7921 41.4533 37.7989 41.4337 37.7888L39.3902 36.7353C39.3705 36.7252 39.3643 36.7019 39.3763 36.6833C39.3883 36.6648 39.414 36.6579 39.4336 36.6681L41.4771 37.7216C41.4968 37.7317 41.503 37.7549 41.491 37.7735Z" fill="#42A0F0"/>
<path fill-rule="evenodd" clip-rule="evenodd" d="M41.1203 38.0318C41.0979 38.0381 41.075 38.0269 41.0693 38.0069L40.9266 37.5053C40.9209 37.4852 40.9344 37.4639 40.9569 37.4576C40.9794 37.4512 41.0022 37.4624 41.0079 37.4824L41.1507 37.984C41.1564 38.0041 41.1428 38.0254 41.1203 38.0318Z" fill="#42A0F0"/>
<path fill-rule="evenodd" clip-rule="evenodd" d="M41.5724 37.339C41.5778 37.3591 41.5638 37.3803 41.5412 37.3863L40.9681 37.5374C40.9456 37.5433 40.923 37.5318 40.9177 37.5117C40.9124 37.4915 40.9264 37.4703 40.9489 37.4644L41.522 37.3133C41.5446 37.3073 41.5671 37.3188 41.5724 37.339Z" fill="#42A0F0"/>
<path fill-rule="evenodd" clip-rule="evenodd" d="M39.9098 36.915C39.9147 36.9353 39.9003 36.9562 39.8777 36.9619L39.3112 37.1027C39.2885 37.1084 39.2662 37.0965 39.2612 37.0763C39.2563 37.056 39.2706 37.035 39.2933 37.0294L39.8598 36.8885C39.8824 36.8829 39.9048 36.8948 39.9098 36.915Z" fill="#42A0F0"/>
<path fill-rule="evenodd" clip-rule="evenodd" d="M39.8696 36.9686C39.847 36.9746 39.8244 36.9631 39.819 36.943L39.6832 36.4313C39.6778 36.4111 39.6918 36.39 39.7143 36.384C39.7369 36.378 39.7595 36.3895 39.7648 36.4096L39.9007 36.9213C39.9061 36.9415 39.8921 36.9626 39.8696 36.9686Z" fill="#42A0F0"/>
</g>
<g filter="url(#filter4_f_19_198)">
<path fill-rule="evenodd" clip-rule="evenodd" d="M46.3919 40.479C46.414 40.479 46.4319 40.4969 46.4319 40.519V42.0243C46.4319 42.0465 46.414 42.0644 46.3919 42.0644C46.3697 42.0644 46.3518 42.0465 46.3518 42.0243V40.519C46.3518 40.4969 46.3697 40.479 46.3919 40.479Z" fill="#42A0F0"/>
<path fill-rule="evenodd" clip-rule="evenodd" d="M46.6619 40.7195C46.671 40.7397 46.6619 40.7634 46.6417 40.7724L46.3669 40.8952C46.3467 40.9042 46.3231 40.8951 46.314 40.8749C46.305 40.8548 46.3141 40.8311 46.3343 40.8221L46.6091 40.6993C46.6292 40.6903 46.6529 40.6993 46.6619 40.7195Z" fill="#42A0F0"/>
<path fill-rule="evenodd" clip-rule="evenodd" d="M45.903 40.7244C45.9094 40.7032 45.9316 40.6912 45.9528 40.6975L46.3619 40.8193C46.3831 40.8256 46.3952 40.8479 46.3889 40.8691C46.3826 40.8903 46.3603 40.9023 46.3391 40.896L45.93 40.7742C45.9088 40.7679 45.8967 40.7456 45.903 40.7244Z" fill="#42A0F0"/>
<path fill-rule="evenodd" clip-rule="evenodd" d="M46.314 41.6936C46.3231 41.6734 46.3467 41.6644 46.3669 41.6734L46.6417 41.7962C46.6619 41.8052 46.671 41.8289 46.6619 41.8491C46.6529 41.8693 46.6292 41.8783 46.6091 41.8693L46.3343 41.7465C46.3141 41.7375 46.305 41.7138 46.314 41.6936Z" fill="#42A0F0"/>
<path fill-rule="evenodd" clip-rule="evenodd" d="M46.3889 41.6985C46.3952 41.7197 46.3831 41.742 46.3619 41.7483L45.9528 41.8701C45.9316 41.8765 45.9094 41.8644 45.903 41.8432C45.8967 41.822 45.9088 41.7997 45.93 41.7934L46.3391 41.6716C46.3603 41.6653 46.3826 41.6773 46.3889 41.6985Z" fill="#42A0F0"/>
<path fill-rule="evenodd" clip-rule="evenodd" d="M47.1531 40.8831C47.1651 40.9017 47.1589 40.925 47.1392 40.9351L45.6793 41.6877C45.6596 41.6979 45.6339 41.691 45.6219 41.6725C45.6099 41.6539 45.6161 41.6306 45.6358 41.6205L47.0958 40.8679C47.1154 40.8577 47.1411 40.8646 47.1531 40.8831Z" fill="#42A0F0"/>
<path fill-rule="evenodd" clip-rule="evenodd" d="M47.2058 41.1905C47.2008 41.2107 47.1785 41.2226 47.1558 41.217L46.7479 41.1156C46.7253 41.11 46.7109 41.089 46.7158 41.0688C46.7208 41.0485 46.7431 41.0367 46.7658 41.0423L47.1737 41.1436C47.1964 41.1493 47.2107 41.1702 47.2058 41.1905Z" fill="#42A0F0"/>
<path fill-rule="evenodd" clip-rule="evenodd" d="M46.8718 40.6807C46.8943 40.6866 46.9083 40.7078 46.9029 40.728L46.8051 41.0965C46.7997 41.1166 46.7771 41.1281 46.7546 41.1221C46.732 41.1161 46.7181 41.0949 46.7234 41.0748L46.8213 40.7063C46.8266 40.6861 46.8492 40.6747 46.8718 40.6807Z" fill="#42A0F0"/>
<path fill-rule="evenodd" clip-rule="evenodd" d="M45.9847 41.4482C46.0072 41.4545 46.0208 41.4759 46.0151 41.4959L45.9122 41.857C45.9065 41.8771 45.8836 41.8882 45.8612 41.8819C45.8387 41.8756 45.8251 41.8542 45.8309 41.8342L45.9337 41.473C45.9394 41.453 45.9623 41.4419 45.9847 41.4482Z" fill="#42A0F0"/>
<path fill-rule="evenodd" clip-rule="evenodd" d="M46.0223 41.502C46.017 41.5221 45.9944 41.5337 45.9718 41.5277L45.5591 41.4189C45.5366 41.4129 45.5226 41.3918 45.5279 41.3716C45.5332 41.3514 45.5558 41.3399 45.5783 41.3459L45.991 41.4547C46.0136 41.4607 46.0276 41.4818 46.0223 41.502Z" fill="#42A0F0"/>
<path fill-rule="evenodd" clip-rule="evenodd" d="M47.145 41.6727C47.133 41.6912 47.1074 41.6981 47.0877 41.688L45.6277 40.9353C45.6081 40.9252 45.6019 40.9019 45.6139 40.8833C45.6259 40.8648 45.6516 40.8579 45.6712 40.8681L47.1312 41.6207C47.1508 41.6309 47.157 41.6541 47.145 41.6727Z" fill="#42A0F0"/>
<path fill-rule="evenodd" clip-rule="evenodd" d="M46.8716 41.8641C46.8491 41.8704 46.8263 41.8593 46.8206 41.8392L46.7177 41.4781C46.712 41.4581 46.7256 41.4367 46.748 41.4304C46.7705 41.4241 46.7933 41.4352 46.799 41.4553L46.9019 41.8164C46.9076 41.8364 46.894 41.8578 46.8716 41.8641Z" fill="#42A0F0"/>
<path fill-rule="evenodd" clip-rule="evenodd" d="M47.2045 41.3539C47.2098 41.374 47.1958 41.3952 47.1733 41.4012L46.7606 41.51C46.738 41.5159 46.7154 41.5044 46.7101 41.4843C46.7048 41.4641 46.7188 41.4429 46.7414 41.437L47.1541 41.3282C47.1766 41.3222 47.1992 41.3337 47.2045 41.3539Z" fill="#42A0F0"/>
<path fill-rule="evenodd" clip-rule="evenodd" d="M46.0162 41.0512C46.0211 41.0715 46.0068 41.0925 45.9841 41.0981L45.5762 41.1994C45.5536 41.2051 45.5312 41.1932 45.5263 41.173C45.5213 41.1527 45.5357 41.1317 45.5583 41.1261L45.9663 41.0248C45.9889 41.0191 46.0113 41.031 46.0162 41.0512Z" fill="#42A0F0"/>
<path fill-rule="evenodd" clip-rule="evenodd" d="M45.9776 41.1046C45.9551 41.1106 45.9324 41.0992 45.9271 41.079L45.8292 40.7105C45.8239 40.6904 45.8378 40.6692 45.8604 40.6632C45.8829 40.6572 45.9056 40.6687 45.9109 40.6888L46.0088 41.0573C46.0141 41.0775 46.0002 41.0987 45.9776 41.1046Z" fill="#42A0F0"/>
</g>
<g filter="url(#filter5_f_19_198)">
<path fill-rule="evenodd" clip-rule="evenodd" d="M62.1133 33.9929C62.2017 33.9929 62.2734 34.0646 62.2734 34.153V43.9768C62.2734 44.0652 62.2017 44.1369 62.1133 44.1369C62.0249 44.1369 61.9532 44.0652 61.9532 43.9768V34.153C61.9532 34.0646 62.0249 33.9929 62.1133 33.9929Z" fill="#42A0F0"/>
<path fill-rule="evenodd" clip-rule="evenodd" d="M64.1038 34.6996C64.1638 34.7646 64.1596 34.8659 64.0946 34.9258L62.1998 36.6722C62.1348 36.7322 62.0335 36.728 61.9735 36.663C61.9136 36.598 61.9177 36.4967 61.9828 36.4367L63.8776 34.6903C63.9426 34.6304 64.0439 34.6345 64.1038 34.6996Z" fill="#42A0F0"/>
<path fill-rule="evenodd" clip-rule="evenodd" d="M60.0158 34.7014C60.0747 34.6355 60.1759 34.6297 60.2419 34.6886L62.1977 36.4351C62.2637 36.494 62.2694 36.5952 62.2105 36.6611C62.1516 36.7271 62.0504 36.7328 61.9844 36.6739L60.0286 34.9275C59.9626 34.8686 59.9569 34.7674 60.0158 34.7014Z" fill="#42A0F0"/>
<path fill-rule="evenodd" clip-rule="evenodd" d="M61.9735 41.6854C62.0335 41.6204 62.1348 41.6162 62.1998 41.6762L64.0946 43.4226C64.1596 43.4825 64.1638 43.5838 64.1038 43.6488C64.0439 43.7139 63.9426 43.718 63.8776 43.6581L61.9828 41.9117C61.9177 41.8517 61.9136 41.7504 61.9735 41.6854Z" fill="#42A0F0"/>
<path fill-rule="evenodd" clip-rule="evenodd" d="M62.2105 41.6873C62.2694 41.7532 62.2637 41.8545 62.1977 41.9134L60.2419 43.6598C60.1759 43.7187 60.0747 43.7129 60.0158 43.647C59.9569 43.581 59.9626 43.4798 60.0286 43.4209L61.9844 41.6745C62.0504 41.6156 62.1516 41.6213 62.2105 41.6873Z" fill="#42A0F0"/>
<path fill-rule="evenodd" clip-rule="evenodd" d="M66.9929 36.5762C67.0409 36.6505 67.0161 36.7435 66.9375 36.7841L57.4097 41.6959C57.3311 41.7364 57.2285 41.7091 57.1805 41.6348C57.1324 41.5606 57.1572 41.4675 57.2358 41.427L66.7636 36.5151C66.8422 36.4746 66.9449 36.502 66.9929 36.5762Z" fill="#42A0F0"/>
<path fill-rule="evenodd" clip-rule="evenodd" d="M67.3158 38.4982C67.296 38.5792 67.2065 38.6266 67.116 38.6041L64.4747 37.9474C64.3842 37.9249 64.3268 37.841 64.3466 37.76C64.3663 37.679 64.4558 37.6316 64.5464 37.6541L67.1876 38.3107C67.2782 38.3332 67.3356 38.4172 67.3158 38.4982Z" fill="#42A0F0"/>
<path fill-rule="evenodd" clip-rule="evenodd" d="M65.2239 35.3015C65.3141 35.3254 65.3699 35.4102 65.3485 35.4908L64.7151 37.8764C64.6937 37.957 64.6032 38.0029 64.513 37.979C64.4228 37.955 64.367 37.8702 64.3884 37.7896L65.0219 35.404C65.0433 35.3234 65.1337 35.2775 65.2239 35.3015Z" fill="#42A0F0"/>
<path fill-rule="evenodd" clip-rule="evenodd" d="M59.4296 40.3075C59.5195 40.3328 59.5738 40.4183 59.551 40.4985L58.8855 42.8369C58.8626 42.9171 58.7713 42.9617 58.6814 42.9364C58.5916 42.9112 58.5372 42.8257 58.56 42.7455L59.2256 40.4071C59.2484 40.3269 59.3398 40.2823 59.4296 40.3075Z" fill="#42A0F0"/>
<path fill-rule="evenodd" clip-rule="evenodd" d="M59.5921 40.5285C59.5709 40.6091 59.4805 40.6552 59.3903 40.6314L56.7186 39.9269C56.6283 39.9031 56.5723 39.8184 56.5936 39.7378C56.6148 39.6571 56.7051 39.611 56.7954 39.6348L59.4671 40.3394C59.5574 40.3632 59.6133 40.4479 59.5921 40.5285Z" fill="#42A0F0"/>
<path fill-rule="evenodd" clip-rule="evenodd" d="M66.9407 41.6348C66.8927 41.7091 66.79 41.7364 66.7114 41.6959L57.1836 36.7841C57.105 36.7435 57.0802 36.6505 57.1283 36.5762C57.1763 36.502 57.2789 36.4746 57.3575 36.5151L66.8853 41.427C66.9639 41.4675 66.9887 41.5606 66.9407 41.6348Z" fill="#42A0F0"/>
<path fill-rule="evenodd" clip-rule="evenodd" d="M65.2275 42.8275C65.1376 42.8527 65.0463 42.8081 65.0234 42.728L64.3579 40.3895C64.3351 40.3093 64.3894 40.2238 64.4793 40.1986C64.5691 40.1733 64.6605 40.2179 64.6833 40.2981L65.3489 42.6365C65.3717 42.7167 65.3173 42.8022 65.2275 42.8275Z" fill="#42A0F0"/>
<path fill-rule="evenodd" clip-rule="evenodd" d="M67.3154 39.6289C67.3366 39.7095 67.2807 39.7942 67.1904 39.818L64.5187 40.5226C64.4284 40.5464 64.3381 40.5003 64.3169 40.4196C64.2957 40.339 64.3516 40.2543 64.4419 40.2305L67.1136 39.526C67.2039 39.5022 67.2942 39.5483 67.3154 39.6289Z" fill="#42A0F0"/>
<path fill-rule="evenodd" clip-rule="evenodd" d="M59.5626 37.651C59.5824 37.732 59.525 37.8159 59.4344 37.8384L56.7932 38.4951C56.7026 38.5176 56.6131 38.4702 56.5934 38.3892C56.5736 38.3082 56.631 38.2243 56.7216 38.2017L59.3628 37.5451C59.4534 37.5226 59.5428 37.57 59.5626 37.651Z" fill="#42A0F0"/>
<path fill-rule="evenodd" clip-rule="evenodd" d="M59.3957 37.8701C59.3055 37.8941 59.2151 37.8482 59.1937 37.7676L58.5602 35.3819C58.5388 35.3013 58.5946 35.2166 58.6848 35.1926C58.775 35.1686 58.8655 35.2145 58.8869 35.2951L59.5203 37.6808C59.5417 37.7614 59.4859 37.8461 59.3957 37.8701Z" fill="#42A0F0"/>
<path fill-rule="evenodd" clip-rule="evenodd" d="M49.649 22.7354C49.7374 22.7354 49.8091 22.807 49.8091 22.8955V32.7192C49.8091 32.8076 49.7374 32.8793 49.649 32.8793C49.5605 32.8793 49.4888 32.8076 49.4888 32.7192V22.8955C49.4888 22.807 49.5605 22.7354 49.649 22.7354Z" fill="#42A0F0"/>
<path fill-rule="evenodd" clip-rule="evenodd" d="M51.6395 23.442C51.6994 23.507 51.6953 23.6083 51.6303 23.6682L49.7354 25.4147C49.6704 25.4746 49.5691 25.4705 49.5092 25.4054C49.4492 25.3404 49.4534 25.2391 49.5184 25.1792L51.4132 23.4328C51.4783 23.3728 51.5796 23.377 51.6395 23.442Z" fill="#42A0F0"/>
<path fill-rule="evenodd" clip-rule="evenodd" d="M47.5517 23.4439C47.6106 23.3779 47.7118 23.3722 47.7778 23.4311L49.7336 25.1775C49.7996 25.2364 49.8053 25.3376 49.7464 25.4036C49.6875 25.4695 49.5863 25.4753 49.5203 25.4164L47.5645 23.6699C47.4985 23.611 47.4928 23.5098 47.5517 23.4439Z" fill="#42A0F0"/>
<path fill-rule="evenodd" clip-rule="evenodd" d="M49.5092 30.4276C49.5691 30.3626 49.6704 30.3584 49.7354 30.4184L51.6303 32.1648C51.6953 32.2247 51.6994 32.326 51.6395 32.391C51.5796 32.4561 51.4783 32.4602 51.4132 32.4003L49.5184 30.6538C49.4534 30.5939 49.4492 30.4926 49.5092 30.4276Z" fill="#42A0F0"/>
<path fill-rule="evenodd" clip-rule="evenodd" d="M49.7464 30.4295C49.8053 30.4954 49.7996 30.5966 49.7336 30.6555L47.7778 32.402C47.7118 32.4609 47.6106 32.4551 47.5517 32.3892C47.4928 32.3232 47.4985 32.222 47.5645 32.1631L49.5203 30.4167C49.5863 30.3578 49.6875 30.3635 49.7464 30.4295Z" fill="#42A0F0"/>
<path fill-rule="evenodd" clip-rule="evenodd" d="M54.5288 25.3187C54.5768 25.3929 54.552 25.486 54.4734 25.5265L44.9456 30.4384C44.867 30.4789 44.7644 30.4515 44.7163 30.3773C44.6683 30.303 44.6931 30.21 44.7717 30.1694L54.2995 25.2576C54.3781 25.217 54.4808 25.2444 54.5288 25.3187Z" fill="#42A0F0"/>
<path fill-rule="evenodd" clip-rule="evenodd" d="M54.8517 27.2408C54.8319 27.3218 54.7424 27.3693 54.6519 27.3467L52.0106 26.6901C51.9201 26.6676 51.8627 26.5836 51.8824 26.5026C51.9022 26.4216 51.9917 26.3742 52.0823 26.3968L54.7235 27.0534C54.8141 27.0759 54.8715 27.1598 54.8517 27.2408Z" fill="#42A0F0"/>
<path fill-rule="evenodd" clip-rule="evenodd" d="M52.7596 24.0441C52.8498 24.0681 52.9056 24.1529 52.8842 24.2335L52.2507 26.6191C52.2293 26.6997 52.1389 26.7456 52.0486 26.7216C51.9584 26.6977 51.9027 26.6129 51.9241 26.5323L52.5575 24.1467C52.5789 24.0661 52.6694 24.0202 52.7596 24.0441Z" fill="#42A0F0"/>
<path fill-rule="evenodd" clip-rule="evenodd" d="M46.9658 29.0502C47.0556 29.0755 47.11 29.1609 47.0872 29.2411L46.4216 31.5796C46.3988 31.6598 46.3074 31.7043 46.2176 31.6791C46.1277 31.6539 46.0734 31.5684 46.0962 31.4882L46.7617 29.1497C46.7846 29.0695 46.8759 29.025 46.9658 29.0502Z" fill="#42A0F0"/>
<path fill-rule="evenodd" clip-rule="evenodd" d="M47.1282 29.2712C47.107 29.3518 47.0167 29.3979 46.9264 29.3741L44.2547 28.6695C44.1644 28.6457 44.1085 28.5611 44.1297 28.4804C44.1509 28.3998 44.2413 28.3537 44.3315 28.3775L47.0032 29.0821C47.0935 29.1059 47.1495 29.1905 47.1282 29.2712Z" fill="#42A0F0"/>
<path fill-rule="evenodd" clip-rule="evenodd" d="M54.4759 30.3773C54.4278 30.4515 54.3252 30.4789 54.2466 30.4383L44.7188 25.5265C44.6402 25.486 44.6154 25.3929 44.6634 25.3187C44.7114 25.2444 44.8141 25.217 44.8927 25.2576L54.4205 30.1694C54.4991 30.2099 54.5239 30.303 54.4759 30.3773Z" fill="#42A0F0"/>
<path fill-rule="evenodd" clip-rule="evenodd" d="M52.7631 31.5696C52.6733 31.5949 52.5819 31.5503 52.5591 31.4701L51.8935 29.1317C51.8707 29.0515 51.925 28.966 52.0149 28.9408C52.1048 28.9155 52.1961 28.9601 52.2189 29.0403L52.8845 31.3787C52.9073 31.4589 52.853 31.5444 52.7631 31.5696Z" fill="#42A0F0"/>
<path fill-rule="evenodd" clip-rule="evenodd" d="M54.8508 28.3711C54.872 28.4517 54.8161 28.5364 54.7258 28.5602L52.0541 29.2647C51.9638 29.2885 51.8735 29.2425 51.8523 29.1618C51.8311 29.0812 51.887 28.9965 51.9773 28.9727L54.649 28.2682C54.7393 28.2444 54.8296 28.2905 54.8508 28.3711Z" fill="#42A0F0"/>
<path fill-rule="evenodd" clip-rule="evenodd" d="M47.0977 26.3934C47.1175 26.4744 47.0601 26.5584 46.9696 26.5809L44.3283 27.2375C44.2378 27.26 44.1483 27.2126 44.1285 27.1316C44.1087 27.0506 44.1661 26.9667 44.2567 26.9442L46.8979 26.2875C46.9885 26.265 47.078 26.3124 47.0977 26.3934Z" fill="#42A0F0"/>
<path fill-rule="evenodd" clip-rule="evenodd" d="M46.9314 26.6123C46.8412 26.6362 46.7507 26.5903 46.7293 26.5098L46.0959 24.1241C46.0745 24.0435 46.1302 23.9588 46.2204 23.9348C46.3107 23.9108 46.4011 23.9567 46.4225 24.0373L47.056 26.423C47.0774 26.5036 47.0216 26.5883 46.9314 26.6123Z" fill="#42A0F0"/>
</g>
<g filter="url(#filter6_df_19_198)">
<g filter="url(#filter7_d_19_198)">
<path d="M43.3316 37.0675C42.9653 37.0938 42.5954 37.1071 42.2218 37.1073H16.1634C14.3697 37.1133 12.5924 36.803 10.9333 36.1942C9.2742 35.5854 7.76606 34.6901 6.49535 33.5597C5.22465 32.4293 4.2164 31.086 3.52843 29.6068C2.84047 28.1277 2.48633 26.5418 2.48633 24.9402C2.48633 23.3385 2.84047 21.7526 3.52843 20.2735C4.2164 18.7943 5.22465 17.451 6.49535 16.3206C7.76606 15.1902 9.2742 14.2949 10.9333 13.6861C12.5924 13.0774 14.3697 12.7671 16.1634 12.773H25.8791C29.0291 6.58477 36.284 2.25342 44.7298 2.25342C56.066 2.25342 65.2559 10.0558 65.2559 19.6804C65.2559 29.3049 56.066 37.1073 44.7298 37.1073C44.2599 37.1073 43.7939 37.094 43.3316 37.0675Z" fill="url(#paint0_linear_19_198)"/>
<path d="M44.73 36.938C46.1105 36.938 47.4901 36.8199 48.8305 36.587C50.1366 36.3601 51.4214 36.0215 52.649 35.5807C53.8542 35.1479 55.0166 34.6122 56.1039 33.9886C57.1808 33.3709 58.1934 32.6616 59.1136 31.8803C60.0337 31.0992 60.8689 30.2397 61.5962 29.3258C62.3302 28.4033 62.9607 27.4171 63.47 26.3948C63.9887 25.3537 64.387 24.2642 64.6539 23.1567C64.9278 22.0203 65.0667 20.8506 65.0667 19.6802C65.0667 18.5097 64.9278 17.3401 64.6539 16.2037C64.387 15.0961 63.9887 14.0067 63.47 12.9657C62.9607 11.9433 62.3302 10.9572 61.5962 10.0347C60.8689 9.12075 60.0337 8.26128 59.1136 7.48016C58.1934 6.69889 57.1808 5.98958 56.1039 5.37191C55.0166 4.74825 53.8542 4.21257 52.649 3.77977C51.4214 3.33893 50.1366 3.00035 48.8305 2.77343C47.4901 2.54057 46.1105 2.42249 44.73 2.42249C40.6806 2.42249 36.7698 3.42959 33.4204 5.3349C31.8059 6.25333 30.3551 7.36191 29.1083 8.62983C27.8536 9.90577 26.8252 11.3232 26.0518 12.8429L26.0013 12.942H25.8793H16.1636C14.3495 12.942 12.5899 13.2593 10.9335 13.8848C10.1373 14.1855 9.36942 14.5577 8.65111 14.991C7.93957 15.4203 7.27047 15.9132 6.66238 16.4562C6.05429 16.9992 5.50222 17.5966 5.02151 18.232C4.53623 18.8734 4.11943 19.559 3.78269 20.2699C3.08208 21.749 2.72684 23.3202 2.72684 24.94C2.72684 26.5598 3.08208 28.131 3.78269 29.6101C4.11943 30.321 4.53623 31.0067 5.02151 31.6481C5.50222 32.2834 6.05429 32.8809 6.66238 33.4239C7.27047 33.9668 7.93957 34.4598 8.65111 34.889C9.36942 35.3223 10.1373 35.6945 10.9335 35.9952C12.5899 36.6208 14.3495 36.938 16.1636 36.938H42.2221C42.5865 36.938 42.9547 36.9248 43.3167 36.8987L43.3304 36.8978L43.344 36.8985C43.8025 36.9247 44.2688 36.938 44.73 36.938ZM44.73 37.1072C44.2602 37.1072 43.7939 37.0938 43.3319 37.0674C42.9661 37.0937 42.5955 37.1072 42.2221 37.1072H16.1636C8.63805 37.1072 2.53735 31.6597 2.53735 24.94C2.53735 18.2203 8.63805 12.7729 16.1636 12.7729H25.8793C29.0294 6.58388 36.2838 2.2533 44.73 2.2533C56.0663 2.2533 65.2562 10.0557 65.2562 19.6802C65.2562 29.3048 56.0663 37.1072 44.73 37.1072Z" fill="white" fill-opacity="0.5"/>
</g>
</g>
<defs>
<filter id="filter0_f_19_198" x="5.29816" y="22.0892" width="35.5179" height="25.1493" filterUnits="userSpaceOnUse" color-interpolation-filters="sRGB">
<feFlood flood-opacity="0" result="BackgroundImageFix"/>
<feBlend mode="normal" in="SourceGraphic" in2="BackgroundImageFix" result="shape"/>
<feGaussianBlur stdDeviation="0.160122" result="effect1_foregroundBlur_19_198"/>
</filter>
<filter id="filter1_f_19_198" x="65.2508" y="28.3279" width="1.99285" height="1.89739" filterUnits="userSpaceOnUse" color-interpolation-filters="sRGB">
<feFlood flood-opacity="0" result="BackgroundImageFix"/>
<feBlend mode="normal" in="SourceGraphic" in2="BackgroundImageFix" result="shape"/>
<feGaussianBlur stdDeviation="0.0800612" result="effect1_foregroundBlur_19_198"/>
</filter>
<filter id="filter2_f_19_198" x="59.189" y="20.1372" width="3.12029" height="2.96673" filterUnits="userSpaceOnUse" color-interpolation-filters="sRGB">
<feFlood flood-opacity="0" result="BackgroundImageFix"/>
<feBlend mode="normal" in="SourceGraphic" in2="BackgroundImageFix" result="shape"/>
<feGaussianBlur stdDeviation="0.0800612" result="effect1_foregroundBlur_19_198"/>
</filter>
<filter id="filter3_f_19_198" x="39.0999" y="35.9661" width="2.63372" height="2.50726" filterUnits="userSpaceOnUse" color-interpolation-filters="sRGB">
<feFlood flood-opacity="0" result="BackgroundImageFix"/>
<feBlend mode="normal" in="SourceGraphic" in2="BackgroundImageFix" result="shape"/>
<feGaussianBlur stdDeviation="0.0800612" result="effect1_foregroundBlur_19_198"/>
</filter>
<filter id="filter4_f_19_198" x="45.3653" y="40.3189" width="2.00164" height="1.90569" filterUnits="userSpaceOnUse" color-interpolation-filters="sRGB">
<feFlood flood-opacity="0" result="BackgroundImageFix"/>
<feBlend mode="normal" in="SourceGraphic" in2="BackgroundImageFix" result="shape"/>
<feGaussianBlur stdDeviation="0.0800612" result="effect1_foregroundBlur_19_198"/>
</filter>
<filter id="filter5_f_19_198" x="43.8043" y="22.4151" width="23.8358" height="22.0421" filterUnits="userSpaceOnUse" color-interpolation-filters="sRGB">
<feFlood flood-opacity="0" result="BackgroundImageFix"/>
<feBlend mode="normal" in="SourceGraphic" in2="BackgroundImageFix" result="shape"/>
<feGaussianBlur stdDeviation="0.160122" result="effect1_foregroundBlur_19_198"/>
</filter>
<filter id="filter6_df_19_198" x="0.885105" y="0.0115833" width="67.5734" height="39.6578" filterUnits="userSpaceOnUse" color-interpolation-filters="sRGB">
<feFlood flood-opacity="0" result="BackgroundImageFix"/>
<feColorMatrix in="SourceAlpha" type="matrix" values="0 0 0 0 0 0 0 0 0 0 0 0 0 0 0 0 0 0 127 0" result="hardAlpha"/>
<feOffset dx="0.800612" dy="0.160122"/>
<feGaussianBlur stdDeviation="1.20092"/>
<feColorMatrix type="matrix" values="0 0 0 0 0.258824 0 0 0 0 0.627451 0 0 0 0 0.941176 0 0 0 0.596 0"/>
<feBlend mode="normal" in2="BackgroundImageFix" result="effect1_dropShadow_19_198"/>
<feBlend mode="normal" in="SourceGraphic" in2="effect1_dropShadow_19_198" result="shape"/>
<feGaussianBlur stdDeviation="0.160122" result="effect2_foregroundBlur_19_198"/>
</filter>
<filter id="filter7_d_19_198" x="0.885105" y="0.0115833" width="67.5734" height="39.6578" filterUnits="userSpaceOnUse" color-interpolation-filters="sRGB">
<feFlood flood-opacity="0" result="BackgroundImageFix"/>
<feColorMatrix in="SourceAlpha" type="matrix" values="0 0 0 0 0 0 0 0 0 0 0 0 0 0 0 0 0 0 127 0" result="hardAlpha"/>
<feOffset dx="0.800612" dy="0.160122"/>
<feGaussianBlur stdDeviation="1.20092"/>
<feColorMatrix type="matrix" values="0 0 0 0 0.501961 0 0 0 0 0.501961 0 0 0 0 0.501961 0 0 0 0.302 0"/>
<feBlend mode="normal" in2="BackgroundImageFix" result="effect1_dropShadow_19_198"/>
<feBlend mode="normal" in="SourceGraphic" in2="effect1_dropShadow_19_198" result="shape"/>
</filter>
<linearGradient id="paint0_linear_19_198" x1="27.908" y1="6.64502" x2="38.1058" y2="39.7111" gradientUnits="userSpaceOnUse">
<stop stop-color="white" stop-opacity="0.596"/>
<stop offset="1" stop-color="#F7F7F7" stop-opacity="0.204"/>
</linearGradient>
</defs>
</svg>
