<svg width="69" height="60" viewBox="0 0 69 60" fill="none" xmlns="http://www.w3.org/2000/svg">
<g filter="url(#filter0_f_19_1460)">
<path d="M29.8204 39.5004H38.6364L33.5683 46.1459L39.4942 46.2461L27.0562 59.3911L30.069 49.3691H24.5527L29.8204 39.5004Z" fill="url(#paint0_linear_19_1460)"/>
<path d="M49.564 35.9473H55.5341L52.102 40.4478L56.1148 40.5155L47.6921 49.4169L49.733 42.6304H45.9968L49.564 35.9473Z" fill="url(#paint1_linear_19_1460)"/>
</g>
<g filter="url(#filter1_f_19_1460)">
<path d="M18.6719 28.9161C26.3635 28.9161 32.5988 23.3485 32.5988 16.4804C32.5988 9.61234 26.3635 4.04468 18.6719 4.04468C10.9802 4.04468 4.74487 9.61234 4.74487 16.4804C4.74487 23.3485 10.9802 28.9161 18.6719 28.9161Z" fill="#FA9E42"/>
</g>
<g filter="url(#filter2_f_19_1460)">
<path fill-rule="evenodd" clip-rule="evenodd" d="M18.633 0.768105L18.672 0.768066L18.7111 0.768105C18.9322 0.768536 19.1111 0.948109 19.1106 1.16919C19.1102 1.39027 18.9306 1.56915 18.7095 1.56871L18.672 1.56868L18.6345 1.56871C18.4134 1.56915 18.2339 1.39027 18.2334 1.16919C18.233 0.948109 18.4119 0.768536 18.633 0.768105ZM23.293 1.72631C23.3511 1.51298 23.5711 1.38712 23.7844 1.44519L23.8592 1.4657C24.0722 1.52464 24.1972 1.74515 24.1383 1.95823C24.0793 2.17132 23.8588 2.29628 23.6457 2.23734L23.5741 2.21769C23.3608 2.15963 23.2349 1.93963 23.293 1.72631ZM14.0511 1.72631C14.1091 1.93963 13.9833 2.15963 13.7699 2.21769L13.6983 2.23734C13.4853 2.29628 13.2647 2.17132 13.2058 1.95823C13.1469 1.74515 13.2718 1.52464 13.4849 1.4657L13.5597 1.44519C13.773 1.38712 13.993 1.51299 14.0511 1.72631ZM9.33308 3.63084C9.44845 3.81943 9.3891 4.06585 9.20051 4.18122L9.13698 4.22028C8.9489 4.33648 8.70223 4.2782 8.58603 4.09012C8.46983 3.90204 8.5281 3.65537 8.71618 3.53917L8.7827 3.49827C8.97129 3.3829 9.2177 3.44225 9.33308 3.63084ZM28.011 3.63084C28.1264 3.44225 28.3728 3.3829 28.5614 3.49827L28.6279 3.53917C28.816 3.65537 28.8742 3.90204 28.758 4.09012C28.6418 4.2782 28.3952 4.33648 28.2071 4.22028L28.1436 4.18122C27.955 4.06585 27.8956 3.81943 28.011 3.63084ZM5.36627 6.81294C5.53331 6.95776 5.55133 7.21058 5.40651 7.37763L5.35806 7.43379C5.21405 7.60153 4.96132 7.62077 4.79357 7.47676C4.62583 7.33275 4.60659 7.08002 4.7506 6.91227L4.80158 6.85318C4.9464 6.68614 5.19922 6.66812 5.36627 6.81294ZM31.9778 6.81294C32.1448 6.66812 32.3977 6.68614 32.5425 6.85318L32.5935 6.91227C32.7375 7.08002 32.7182 7.33275 32.5505 7.47676C32.3827 7.62077 32.13 7.60153 31.986 7.43379L31.9376 7.37763C31.7927 7.21058 31.8108 6.95776 31.9778 6.81294ZM2.61346 11.0829C2.81951 11.163 2.92159 11.395 2.84147 11.6011L2.81484 11.6701C2.73582 11.8766 2.50439 11.9799 2.2979 11.9009C2.09142 11.8219 1.98809 11.5905 2.0671 11.384L2.09529 11.3109C2.17541 11.1048 2.4074 11.0028 2.61346 11.0829ZM34.7306 11.0829C34.9367 11.0028 35.1687 11.1048 35.2488 11.3109L35.277 11.384C35.356 11.5905 35.2526 11.8219 35.0462 11.9009C34.8397 11.9799 34.6082 11.8766 34.5292 11.6701L34.5026 11.6011C34.4225 11.395 34.5246 11.163 34.7306 11.0829ZM1.52499 16.0418C1.74607 16.0424 1.9248 16.2221 1.9242 16.4432L1.92415 16.4804L1.9242 16.5176C1.9248 16.7387 1.74607 16.9184 1.52499 16.919C1.30391 16.9196 1.1242 16.7409 1.12359 16.5198L1.12354 16.4804L1.12359 16.441C1.1242 16.2199 1.30391 16.0412 1.52499 16.0418ZM35.8191 16.0418C36.0402 16.0412 36.2199 16.2199 36.2205 16.441L36.2205 16.4804L36.2205 16.5198C36.2199 16.7409 36.0402 16.9196 35.8191 16.919C35.598 16.9184 35.4193 16.7387 35.4199 16.5176L35.4199 16.4804L35.4199 16.4432C35.4193 16.2221 35.598 16.0424 35.8191 16.0418ZM2.2979 21.0599C2.50439 20.9809 2.73582 21.0842 2.81484 21.2907L2.84147 21.3597C2.92159 21.5658 2.81951 21.7978 2.61346 21.8779C2.4074 21.958 2.17541 21.8559 2.09529 21.6499L2.0671 21.5768C1.98809 21.3703 2.09142 21.1389 2.2979 21.0599ZM35.0462 21.0599C35.2526 21.1389 35.356 21.3703 35.277 21.5768L35.2488 21.6499C35.1687 21.8559 34.9367 21.958 34.7306 21.8779C34.5246 21.7978 34.4225 21.5658 34.5026 21.3597L34.5292 21.2907C34.6082 21.0842 34.8397 20.9809 35.0462 21.0599ZM4.79357 25.484C4.96132 25.34 5.21405 25.3592 5.35806 25.527L5.40651 25.5832C5.55133 25.7502 5.53331 26.003 5.36627 26.1478C5.19922 26.2927 4.9464 26.2746 4.80158 26.1076L4.7506 26.0485C4.60659 25.8808 4.62583 25.628 4.79357 25.484ZM32.5505 25.484C32.7182 25.628 32.7375 25.8808 32.5935 26.0485L32.5425 26.1076C32.3977 26.2746 32.1448 26.2927 31.9778 26.1478C31.8108 26.003 31.7927 25.7502 31.9376 25.5832L31.986 25.527C32.13 25.3592 32.3827 25.34 32.5505 25.484ZM8.58603 28.8707C8.70223 28.6826 8.9489 28.6243 9.13698 28.7405L9.20051 28.7796C9.3891 28.8949 9.44845 29.1413 9.33308 29.3299C9.2177 29.5185 8.97129 29.5779 8.7827 29.4625L8.71618 29.4216C8.5281 29.3054 8.46983 29.0587 8.58603 28.8707ZM28.758 28.8707C28.8742 29.0587 28.816 29.3054 28.6279 29.4216L28.5614 29.4625C28.3728 29.5779 28.1264 29.5185 28.011 29.3299C27.8956 29.1413 27.955 28.8949 28.1436 28.7796L28.2071 28.7405C28.3952 28.6243 28.6418 28.6826 28.758 28.8707ZM13.2058 31.0025C13.2647 30.7895 13.4853 30.6645 13.6983 30.7234L13.7699 30.7431C13.9833 30.8012 14.1091 31.0212 14.0511 31.2345C13.993 31.4478 13.773 31.5737 13.5597 31.5156L13.4849 31.4951C13.2718 31.4361 13.1469 31.2156 13.2058 31.0025ZM24.1383 31.0025C24.1972 31.2156 24.0722 31.4361 23.8592 31.4951L23.7844 31.5156C23.5711 31.5737 23.3511 31.4478 23.293 31.2345C23.2349 31.0212 23.3608 30.8011 23.5741 30.7431L23.6457 30.7234C23.8588 30.6645 24.0793 30.7895 24.1383 31.0025ZM18.2334 31.7916C18.2339 31.5705 18.4134 31.3916 18.6345 31.3921L18.672 31.3921L18.7095 31.3921C18.9306 31.3916 19.1102 31.5705 19.1106 31.7916C19.1111 32.0127 18.9322 32.1922 18.7111 32.1927L18.672 32.1927L18.633 32.1927C18.4119 32.1922 18.233 32.0127 18.2334 31.7916Z" fill="#FA9E42"/>
</g>
<g filter="url(#filter3_f_19_1460)">
<path d="M17.1771 13.9973C22.0549 11.6839 24.8141 7.79968 23.3401 5.32157C21.866 2.84346 16.7168 2.70991 11.839 5.02329C6.96129 7.33667 4.20205 11.2209 5.67612 13.6991C7.1502 16.1772 12.2994 16.3107 17.1771 13.9973Z" fill="#F8E36F"/>
</g>
<g filter="url(#filter4_df_19_1460)">
<g filter="url(#filter5_d_19_1460)">
<path d="M43.7369 42.581C43.3706 42.6072 43.0006 42.6205 42.6271 42.6207H16.5687C14.775 42.6267 12.9976 42.3164 11.3386 41.7076C9.67948 41.0988 8.17133 40.2036 6.90063 39.0731C5.62992 37.9427 4.62167 36.5994 3.93371 35.1203C3.24574 33.6411 2.8916 32.0552 2.8916 30.4536C2.8916 28.8519 3.24574 27.2661 3.93371 25.7869C4.62167 24.3078 5.62992 22.9645 6.90063 21.834C8.17133 20.7036 9.67948 19.8083 11.3386 19.1996C12.9976 18.5908 14.775 18.2805 16.5687 18.2865H26.2846C29.4346 12.0982 36.6893 7.76685 45.1351 7.76685C56.4713 7.76685 65.6612 15.5692 65.6612 25.1938C65.6612 34.8184 56.4713 42.6207 45.1351 42.6207C44.6652 42.6207 44.1991 42.6075 43.7369 42.581Z" fill="url(#paint2_linear_19_1460)"/>
<path d="M45.135 42.4515C46.5156 42.4515 47.8952 42.3335 49.2355 42.1006C50.5417 41.8737 51.8264 41.5351 53.054 41.0943C54.2592 40.6614 55.4217 40.1258 56.509 39.5021C57.5858 38.8844 58.5984 38.1751 59.5186 37.3938C60.4387 36.6127 61.2739 35.7532 62.0012 34.8393C62.7352 33.9168 63.3657 32.9307 63.875 31.9083C64.3937 30.8672 64.792 29.7778 65.059 28.6703C65.3328 27.5338 65.4717 26.3642 65.4717 25.1937C65.4717 24.0233 65.3328 22.8536 65.059 21.7172C64.792 20.6097 64.3937 19.5203 63.875 18.4792C63.3657 17.4568 62.7352 16.4707 62.0012 15.5482C61.2739 14.6343 60.4387 13.7748 59.5187 12.9937C58.5984 12.2124 57.5858 11.5031 56.509 10.8855C55.4217 10.2618 54.2592 9.72612 53.054 9.29332C51.8264 8.85248 50.5417 8.5139 49.2355 8.28698C47.8952 8.05412 46.5156 7.93604 45.135 7.93604C41.0856 7.93604 37.1748 8.94314 33.8255 10.8485C32.211 11.7669 30.7602 12.8755 29.5134 14.1434C28.2588 15.4193 27.2304 16.8368 26.4569 18.3564L26.4065 18.4556H26.2844H16.5686C14.7546 18.4556 12.9949 18.7728 11.3385 19.3984C10.5423 19.6991 9.77445 20.0712 9.05614 20.5046C8.3446 20.9338 7.6755 21.4268 7.06741 21.9697C6.45932 22.5127 5.90725 23.1102 5.42654 23.7455C4.94126 24.3869 4.52446 25.0726 4.18772 25.7835C3.48711 27.2625 3.13187 28.8338 3.13187 30.4536C3.13187 32.0733 3.48711 33.6446 4.18772 35.1237C4.52446 35.8345 4.94126 36.5202 5.42654 37.1616C5.90725 37.797 6.45932 38.3944 7.06741 38.9374C7.6755 39.4804 8.3446 39.9733 9.05614 40.4026C9.77445 40.8359 10.5423 41.2081 11.3385 41.5087C12.9949 42.1343 14.7546 42.4515 16.5686 42.4515H42.6271C42.9915 42.4515 43.3598 42.4383 43.7217 42.4123L43.7354 42.4113L43.7491 42.4121C44.2075 42.4383 44.6738 42.4515 45.135 42.4515ZM45.135 42.6207C44.6652 42.6207 44.1989 42.6073 43.737 42.5809C43.3711 42.6073 43.0005 42.6207 42.6271 42.6207H16.5686C9.04308 42.6207 2.94238 37.1733 2.94238 30.4536C2.94238 23.7339 9.04308 18.2864 16.5686 18.2864H26.2844C29.4345 12.0974 36.6888 7.76685 45.135 7.76685C56.4713 7.76685 65.6612 15.5692 65.6612 25.1937C65.6612 34.8184 56.4713 42.6207 45.135 42.6207Z" fill="white" fill-opacity="0.5"/>
</g>
</g>
<defs>
<filter id="filter0_f_19_1460" x="24.2325" y="35.627" width="32.2025" height="24.0843" filterUnits="userSpaceOnUse" color-interpolation-filters="sRGB">
<feFlood flood-opacity="0" result="BackgroundImageFix"/>
<feBlend mode="normal" in="SourceGraphic" in2="BackgroundImageFix" result="shape"/>
<feGaussianBlur stdDeviation="0.160122" result="effect1_foregroundBlur_19_1460"/>
</filter>
<filter id="filter1_f_19_1460" x="4.42463" y="3.72443" width="28.4945" height="25.5119" filterUnits="userSpaceOnUse" color-interpolation-filters="sRGB">
<feFlood flood-opacity="0" result="BackgroundImageFix"/>
<feBlend mode="normal" in="SourceGraphic" in2="BackgroundImageFix" result="shape"/>
<feGaussianBlur stdDeviation="0.160122" result="effect1_foregroundBlur_19_1460"/>
</filter>
<filter id="filter2_f_19_1460" x="0.963413" y="0.607944" width="35.4172" height="31.7449" filterUnits="userSpaceOnUse" color-interpolation-filters="sRGB">
<feFlood flood-opacity="0" result="BackgroundImageFix"/>
<feBlend mode="normal" in="SourceGraphic" in2="BackgroundImageFix" result="shape"/>
<feGaussianBlur stdDeviation="0.0800612" result="effect1_foregroundBlur_19_1460"/>
</filter>
<filter id="filter3_f_19_1460" x="3.67807" y="1.77072" width="21.6602" height="15.4792" filterUnits="userSpaceOnUse" color-interpolation-filters="sRGB">
<feFlood flood-opacity="0" result="BackgroundImageFix"/>
<feBlend mode="normal" in="SourceGraphic" in2="BackgroundImageFix" result="shape"/>
<feGaussianBlur stdDeviation="0.800612" result="effect1_foregroundBlur_19_1460"/>
</filter>
<filter id="filter4_df_19_1460" x="1.29038" y="5.52513" width="67.5732" height="39.6577" filterUnits="userSpaceOnUse" color-interpolation-filters="sRGB">
<feFlood flood-opacity="0" result="BackgroundImageFix"/>
<feColorMatrix in="SourceAlpha" type="matrix" values="0 0 0 0 0 0 0 0 0 0 0 0 0 0 0 0 0 0 127 0" result="hardAlpha"/>
<feOffset dx="0.800612" dy="0.160122"/>
<feGaussianBlur stdDeviation="1.20092"/>
<feColorMatrix type="matrix" values="0 0 0 0 0.258824 0 0 0 0 0.627451 0 0 0 0 0.941176 0 0 0 0.596 0"/>
<feBlend mode="normal" in2="BackgroundImageFix" result="effect1_dropShadow_19_1460"/>
<feBlend mode="normal" in="SourceGraphic" in2="effect1_dropShadow_19_1460" result="shape"/>
<feGaussianBlur stdDeviation="0.160122" result="effect2_foregroundBlur_19_1460"/>
</filter>
<filter id="filter5_d_19_1460" x="1.29038" y="5.52513" width="67.5732" height="39.6577" filterUnits="userSpaceOnUse" color-interpolation-filters="sRGB">
<feFlood flood-opacity="0" result="BackgroundImageFix"/>
<feColorMatrix in="SourceAlpha" type="matrix" values="0 0 0 0 0 0 0 0 0 0 0 0 0 0 0 0 0 0 127 0" result="hardAlpha"/>
<feOffset dx="0.800612" dy="0.160122"/>
<feGaussianBlur stdDeviation="1.20092"/>
<feColorMatrix type="matrix" values="0 0 0 0 0.501961 0 0 0 0 0.501961 0 0 0 0 0.501961 0 0 0 0.302 0"/>
<feBlend mode="normal" in2="BackgroundImageFix" result="effect1_dropShadow_19_1460"/>
<feBlend mode="normal" in="SourceGraphic" in2="effect1_dropShadow_19_1460" result="shape"/>
</filter>
<linearGradient id="paint0_linear_19_1460" x1="30.6489" y1="49.4457" x2="23.8737" y2="46.664" gradientUnits="userSpaceOnUse">
<stop stop-color="#FFD100"/>
<stop offset="1" stop-color="#FFF0AA"/>
</linearGradient>
<linearGradient id="paint1_linear_19_1460" x1="50.125" y1="42.6821" x2="45.537" y2="40.7984" gradientUnits="userSpaceOnUse">
<stop stop-color="#FFD100"/>
<stop offset="1" stop-color="#FFF0AA"/>
</linearGradient>
<linearGradient id="paint2_linear_19_1460" x1="28.3133" y1="12.1584" x2="38.511" y2="45.2245" gradientUnits="userSpaceOnUse">
<stop stop-color="white" stop-opacity="0.596"/>
<stop offset="1" stop-color="#F7F7F7" stop-opacity="0.204"/>
</linearGradient>
</defs>
</svg>
