<svg width="69" height="58" viewBox="0 0 69 58" fill="none" xmlns="http://www.w3.org/2000/svg">
<g filter="url(#filter0_f_19_981)">
<path d="M21.9417 35.4606C22.0406 35.5415 19.9185 39.5701 18.6948 40.8261C17.4712 42.0821 15.9745 42.7079 15.3514 42.2247C14.7284 41.7414 15.2147 40.332 16.4385 39.076C17.6623 37.8199 21.8427 35.3798 21.9417 35.4606Z" fill="#42A0F0"/>
<path d="M16.6437 39.9055C16.7645 40.0788 17.1884 40.0369 17.5905 39.8118C17.9926 39.5867 18.2206 39.2638 18.0998 39.0904C17.979 38.9171 17.5552 38.9591 17.1531 39.1841C16.751 39.4092 16.523 39.7322 16.6437 39.9055Z" fill="white"/>
<path d="M34.8267 35.4606C34.9256 35.5415 32.8035 39.5701 31.5798 40.8261C30.3562 42.0821 28.8595 42.7079 28.2364 42.2247C27.6134 41.7414 28.0997 40.332 29.3235 39.076C30.5473 37.8199 34.7277 35.3798 34.8267 35.4606Z" fill="#42A0F0"/>
<path d="M29.5283 39.9055C29.6491 40.0788 30.0729 40.0369 30.475 39.8118C30.8771 39.5867 31.1051 39.2638 30.9843 39.0904C30.8635 38.9171 30.4397 38.9591 30.0376 39.1841C29.6355 39.4092 29.4075 39.7322 29.5283 39.9055Z" fill="white"/>
<path d="M47.7114 35.4606C47.8104 35.5415 45.6883 39.5701 44.4646 40.8261C43.2409 42.0821 41.7442 42.7079 41.1212 42.2247C40.4982 41.7414 40.9844 40.332 42.2082 39.076C43.4321 37.8199 47.6125 35.3798 47.7114 35.4606Z" fill="#42A0F0"/>
<path d="M42.4128 39.9055C42.5336 40.0788 42.9575 40.0369 43.3595 39.8118C43.7616 39.5867 43.9896 39.2638 43.8689 39.0904C43.7481 38.9171 43.3242 38.9591 42.9221 39.1841C42.52 39.4092 42.292 39.7322 42.4128 39.9055Z" fill="white"/>
<path d="M36.3425 43.9204C36.4415 44.0012 34.3194 48.0299 33.0957 49.2858C31.872 50.5418 30.3753 51.1676 29.7523 50.6844C29.1293 50.2011 29.6155 48.7917 30.8393 47.5357C32.0632 46.2796 36.2436 43.8396 36.3425 43.9204Z" fill="#42A0F0"/>
<path d="M31.0441 48.3651C31.1649 48.5384 31.5888 48.4965 31.9909 48.2714C32.393 48.0463 32.621 47.7233 32.5002 47.55C32.3794 47.3767 31.9555 47.4187 31.5535 47.6437C31.1514 47.8688 30.9233 48.1918 31.0441 48.3651Z" fill="white"/>
<path d="M52.0696 43.9204C52.1685 44.0012 50.0465 48.0299 48.8228 49.2858C47.5991 50.5418 46.1024 51.1676 45.4794 50.6844C44.8563 50.2011 45.3426 48.7917 46.5664 47.5357C47.7902 46.2796 51.9706 43.8396 52.0696 43.9204Z" fill="#42A0F0"/>
<path d="M46.7712 48.3651C46.892 48.5384 47.3158 48.4965 47.7179 48.2714C48.12 48.0463 48.348 47.7233 48.2273 47.55C48.1065 47.3767 47.6826 47.4187 47.2805 47.6437C46.8784 47.8688 46.6504 48.1918 46.7712 48.3651Z" fill="white"/>
<path d="M40.7004 50.0113C40.7994 50.0921 38.6773 54.1208 37.4536 55.3768C36.2299 56.6327 34.7333 57.2586 34.1102 56.7753C33.4872 56.2921 33.9734 54.8827 35.1973 53.6266C36.4211 52.3705 40.6015 49.9305 40.7004 50.0113Z" fill="#42A0F0"/>
<path d="M35.402 54.4562C35.5228 54.6295 35.9467 54.5875 36.3488 54.3624C36.7509 54.1374 36.9789 53.8144 36.8581 53.6411C36.7373 53.4678 36.3135 53.5097 35.9114 53.7348C35.5093 53.9599 35.2813 54.2828 35.402 54.4562Z" fill="white"/>
<path d="M26.3001 50.0113C26.399 50.0921 24.2769 54.1208 23.0532 55.3768C21.8296 56.6327 20.3329 57.2586 19.7098 56.7753C19.0868 56.2921 19.5731 54.8827 20.7969 53.6266C22.0207 52.3705 26.2011 49.9305 26.3001 50.0113Z" fill="#42A0F0"/>
<path d="M21.0021 54.4562C21.1229 54.6295 21.5468 54.5875 21.9489 54.3624C22.351 54.1374 22.579 53.8144 22.4582 53.6411C22.3374 53.4678 21.9136 53.5097 21.5115 53.7348C21.1094 53.9599 20.8814 54.2828 21.0021 54.4562Z" fill="white"/>
<path d="M21.9417 43.9204C22.0406 44.0012 19.9185 48.0299 18.6948 49.2858C17.4712 50.5418 15.9745 51.1676 15.3514 50.6844C14.7284 50.2011 15.2147 48.7917 16.4385 47.5357C17.6623 46.2796 21.8427 43.8396 21.9417 43.9204Z" fill="#42A0F0"/>
<path d="M16.6437 48.3651C16.7645 48.5384 17.1884 48.4965 17.5905 48.2714C17.9926 48.0463 18.2206 47.7233 18.0998 47.55C17.979 47.3767 17.5552 47.4187 17.1531 47.6437C16.751 47.8688 16.523 48.1918 16.6437 48.3651Z" fill="white"/>
</g>
<g filter="url(#filter1_f_19_981)">
<path d="M22.9953 28.5626C30.687 28.5626 36.9223 22.995 36.9223 16.1269C36.9223 9.25883 30.687 3.69116 22.9953 3.69116C15.3037 3.69116 9.06836 9.25883 9.06836 16.1269C9.06836 22.995 15.3037 28.5626 22.9953 28.5626Z" fill="#FA9E42"/>
</g>
<g filter="url(#filter2_f_19_981)">
<path fill-rule="evenodd" clip-rule="evenodd" d="M22.9562 0.414589L22.9953 0.414551L23.0344 0.414589C23.2554 0.41502 23.4343 0.594593 23.4339 0.815675C23.4334 1.03676 23.2539 1.21563 23.0328 1.2152L22.9953 1.21516L22.9578 1.2152C22.7367 1.21563 22.5571 1.03676 22.5567 0.815675C22.5562 0.594593 22.7351 0.41502 22.9562 0.414589ZM27.6162 1.37279C27.6743 1.15947 27.8943 1.03361 28.1076 1.09167L28.1824 1.11219C28.3955 1.17112 28.5204 1.39164 28.4615 1.60472C28.4026 1.8178 28.1821 1.94276 27.969 1.88383L27.8974 1.86418C27.684 1.80611 27.5582 1.58611 27.6162 1.37279ZM18.3743 1.37279C18.4324 1.58611 18.3065 1.80612 18.0932 1.86418L18.0216 1.88383C17.8085 1.94276 17.588 1.8178 17.529 1.60472C17.4701 1.39164 17.5951 1.17112 17.8082 1.11219L17.8829 1.09167C18.0962 1.03361 18.3162 1.15947 18.3743 1.37279ZM13.6563 3.27733C13.7717 3.46592 13.7123 3.71233 13.5237 3.8277L13.4602 3.86676C13.2721 3.98296 13.0255 3.92469 12.9093 3.73661C12.7931 3.54852 12.8513 3.30185 13.0394 3.18565L13.1059 3.14476C13.2945 3.02938 13.5409 3.08874 13.6563 3.27733ZM32.3342 3.27733C32.4496 3.08874 32.696 3.02938 32.8846 3.14476L32.9511 3.18565C33.1392 3.30185 33.1975 3.54852 33.0813 3.73661C32.9651 3.92469 32.7184 3.98296 32.5303 3.86676L32.4668 3.82771C32.2782 3.71233 32.2189 3.46592 32.3342 3.27733ZM9.68951 6.45943C9.85655 6.60425 9.87457 6.85707 9.72975 7.02411L9.6813 7.08027C9.53729 7.24802 9.28456 7.26726 9.11681 7.12324C8.94907 6.97923 8.92983 6.7265 9.07384 6.55876L9.12482 6.49967C9.26964 6.33262 9.52246 6.31461 9.68951 6.45943ZM36.301 6.45943C36.4681 6.31461 36.7209 6.33262 36.8657 6.49967L36.9167 6.55876C37.0607 6.7265 37.0415 6.97923 36.8737 7.12324C36.706 7.26726 36.4533 7.24802 36.3092 7.08027L36.2608 7.02411C36.116 6.85707 36.134 6.60425 36.301 6.45943ZM6.9367 10.7294C7.14275 10.8095 7.24483 11.0415 7.16471 11.2475L7.13808 11.3166C7.05907 11.5231 6.82763 11.6264 6.62115 11.5474C6.41466 11.4684 6.31133 11.2369 6.39034 11.0305L6.41853 10.9574C6.49865 10.7513 6.73064 10.6492 6.9367 10.7294ZM39.0538 10.7294C39.2599 10.6492 39.4919 10.7513 39.572 10.9574L39.6002 11.0305C39.6792 11.2369 39.5759 11.4684 39.3694 11.5474C39.1629 11.6264 38.9315 11.5231 38.8525 11.3166L38.8258 11.2475C38.7457 11.0415 38.8478 10.8095 39.0538 10.7294ZM5.84823 15.6883C6.06932 15.6889 6.24805 15.8686 6.24744 16.0897L6.24739 16.1269L6.24744 16.1641C6.24805 16.3851 6.06932 16.5649 5.84823 16.5655C5.62715 16.5661 5.44744 16.3873 5.44683 16.1663L5.44678 16.1269L5.44683 16.0875C5.44744 15.8664 5.62715 15.6877 5.84823 15.6883ZM40.1423 15.6883C40.3634 15.6877 40.5431 15.8664 40.5437 16.0875L40.5438 16.1269L40.5437 16.1663C40.5431 16.3873 40.3634 16.5661 40.1423 16.5655C39.9212 16.5649 39.7425 16.3851 39.7431 16.1641L39.7432 16.1269L39.7431 16.0897C39.7425 15.8686 39.9212 15.6889 40.1423 15.6883ZM6.62115 20.7064C6.82763 20.6273 7.05907 20.7307 7.13808 20.9372L7.16471 21.0062C7.24483 21.2123 7.14275 21.4443 6.9367 21.5244C6.73064 21.6045 6.49865 21.5024 6.41853 21.2964L6.39034 21.2233C6.31133 21.0168 6.41466 20.7854 6.62115 20.7064ZM39.3694 20.7064C39.5759 20.7854 39.6792 21.0168 39.6002 21.2233L39.572 21.2964C39.4919 21.5024 39.2599 21.6045 39.0539 21.5244C38.8478 21.4443 38.7457 21.2123 38.8258 21.0062L38.8525 20.9372C38.9315 20.7307 39.1629 20.6273 39.3694 20.7064ZM9.11681 25.1305C9.28456 24.9865 9.53729 25.0057 9.6813 25.1735L9.72975 25.2296C9.87457 25.3967 9.85655 25.6495 9.68951 25.7943C9.52246 25.9391 9.26964 25.9211 9.12482 25.7541L9.07384 25.695C8.92983 25.5272 8.94907 25.2745 9.11681 25.1305ZM36.8737 25.1305C37.0415 25.2745 37.0607 25.5272 36.9167 25.695L36.8657 25.7541C36.7209 25.9211 36.4681 25.9391 36.301 25.7943C36.134 25.6495 36.116 25.3967 36.2608 25.2296L36.3092 25.1735C36.4533 25.0057 36.706 24.9865 36.8737 25.1305ZM12.9093 28.5171C13.0255 28.3291 13.2721 28.2708 13.4602 28.387L13.5237 28.426C13.7123 28.5414 13.7717 28.7878 13.6563 28.9764C13.5409 29.165 13.2945 29.2244 13.1059 29.109L13.0394 29.0681C12.8513 28.9519 12.7931 28.7052 12.9093 28.5171ZM33.0813 28.5171C33.1975 28.7052 33.1392 28.9519 32.9511 29.0681L32.8846 29.109C32.696 29.2244 32.4496 29.165 32.3342 28.9764C32.2189 28.7878 32.2782 28.5414 32.4668 28.426L32.5303 28.387C32.7184 28.2708 32.9651 28.3291 33.0813 28.5171ZM17.529 30.649C17.588 30.4359 17.8085 30.311 18.0216 30.3699L18.0932 30.3896C18.3065 30.4476 18.4324 30.6676 18.3743 30.881C18.3162 31.0943 18.0962 31.2201 17.8829 31.1621L17.8082 31.1416C17.5951 31.0826 17.4701 30.8621 17.529 30.649ZM28.4615 30.649C28.5204 30.8621 28.3955 31.0826 28.1824 31.1416L28.1076 31.1621C27.8943 31.2201 27.6743 31.0943 27.6162 30.881C27.5582 30.6676 27.684 30.4476 27.8974 30.3896L27.969 30.3699C28.1821 30.311 28.4026 30.4359 28.4615 30.649ZM22.5567 31.4381C22.5571 31.217 22.7367 31.0381 22.9578 31.0386L22.9953 31.0386L23.0328 31.0386C23.2539 31.0381 23.4334 31.217 23.4339 31.4381C23.4343 31.6592 23.2554 31.8387 23.0344 31.8392L22.9953 31.8392L22.9562 31.8392C22.7351 31.8387 22.5562 31.6592 22.5567 31.4381Z" fill="#FA9E42"/>
</g>
<g filter="url(#filter3_f_19_981)">
<path d="M21.4286 13.6438C26.3064 11.3304 29.0656 7.44616 27.5915 4.96805C26.1174 2.48994 20.9683 2.3564 16.0905 4.66978C11.2128 6.98316 8.45352 10.8674 9.92759 13.3455C11.4017 15.8236 16.5508 15.9572 21.4286 13.6438Z" fill="#F8E36F"/>
</g>
<g filter="url(#filter4_df_19_981)">
<g filter="url(#filter5_d_19_981)">
<path d="M43.0606 40.7047C42.6943 40.731 42.3244 40.7443 41.9508 40.7445H15.8924C14.0987 40.7505 12.3214 40.4402 10.6623 39.8314C9.00321 39.2226 7.49506 38.3273 6.22436 37.1969C4.95365 36.0665 3.9454 34.7232 3.25744 33.244C2.56947 31.7649 2.21533 30.179 2.21533 28.5774C2.21533 26.9757 2.56947 25.3898 3.25744 23.9107C3.9454 22.4315 4.95365 21.0882 6.22436 19.9578C7.49506 18.8274 9.00321 17.9321 10.6623 17.3233C12.3214 16.7146 14.0987 16.4043 15.8924 16.4102H25.6083C28.7583 10.222 36.013 5.89063 44.4588 5.89063C55.795 5.89063 64.9849 13.693 64.9849 23.3176C64.9849 32.9421 55.795 40.7445 44.4588 40.7445C43.9889 40.7445 43.5229 40.7312 43.0606 40.7047Z" fill="url(#paint0_linear_19_981)"/>
<path d="M44.4599 40.5753C45.8405 40.5753 47.2201 40.4572 48.5605 40.2244C49.8666 39.9975 51.1513 39.6589 52.379 39.218C53.5842 38.7852 54.7466 38.2496 55.8339 37.6259C56.9108 37.0082 57.9234 36.2989 58.8436 35.5176C59.7636 34.7365 60.5989 33.877 61.3261 32.9631C62.0602 32.0406 62.6907 31.0545 63.2 30.0321C63.7186 28.991 64.117 27.9016 64.3839 26.794C64.6578 25.6576 64.7967 24.4879 64.7967 23.3175C64.7967 22.1471 64.6578 20.9774 64.3839 19.841C64.117 18.7335 63.7186 17.644 63.2 16.603C62.6907 15.5806 62.0602 14.5945 61.3261 13.672C60.5989 12.7581 59.7636 11.8986 58.8436 11.1175C57.9234 10.3362 56.9108 9.62691 55.8339 9.00924C54.7466 8.38557 53.5842 7.8499 52.379 7.4171C51.1513 6.97626 49.8666 6.63768 48.5605 6.41076C47.2201 6.17789 45.8405 6.05982 44.4599 6.05982C40.4105 6.05982 36.4998 7.06691 33.1504 8.97223C31.536 9.89066 30.0852 10.9992 28.8384 12.2672C27.5837 13.5431 26.5554 14.9606 25.7819 16.4802L25.7314 16.5794H25.6094H15.8935C14.0795 16.5794 12.3199 16.8966 10.6634 17.5222C9.8673 17.8229 9.0994 18.195 8.38109 18.6283C7.66955 19.0576 7.00045 19.5505 6.39236 20.0935C5.78427 20.6365 5.2322 21.2339 4.75149 21.8693C4.26621 22.5107 3.84941 23.1964 3.51267 23.9073C2.81206 25.3863 2.45682 26.9576 2.45682 28.5773C2.45682 30.1971 2.81206 31.7684 3.51267 33.2474C3.84941 33.9583 4.26621 34.644 4.75149 35.2854C5.2322 35.9207 5.78427 36.5182 6.39236 37.0612C7.00045 37.6042 7.66955 38.0971 8.38109 38.5263C9.0994 38.9597 9.8673 39.3318 10.6634 39.6325C12.3199 40.2581 14.0795 40.5753 15.8935 40.5753H41.9521C42.3164 40.5753 42.6847 40.5621 43.0467 40.5361L43.0603 40.5351L43.074 40.5359C43.5324 40.562 43.9987 40.5753 44.4599 40.5753ZM44.4599 40.7445C43.9901 40.7445 43.5238 40.7311 43.0619 40.7047C42.6961 40.731 42.3255 40.7445 41.9521 40.7445H15.8935C8.36803 40.7445 2.26733 35.2971 2.26733 28.5773C2.26733 21.8576 8.36803 16.4102 15.8935 16.4102H25.6094C28.7595 10.2212 36.0138 5.89063 44.4599 5.89063C55.7962 5.89063 64.9862 13.693 64.9862 23.3175C64.9862 32.9421 55.7962 40.7445 44.4599 40.7445Z" fill="white" fill-opacity="0.5"/>
</g>
</g>
<defs>
<filter id="filter0_f_19_981" x="14.7598" y="35.1385" width="37.6334" height="22.1203" filterUnits="userSpaceOnUse" color-interpolation-filters="sRGB">
<feFlood flood-opacity="0" result="BackgroundImageFix"/>
<feBlend mode="normal" in="SourceGraphic" in2="BackgroundImageFix" result="shape"/>
<feGaussianBlur stdDeviation="0.160122" result="effect1_foregroundBlur_19_981"/>
</filter>
<filter id="filter1_f_19_981" x="8.74811" y="3.37092" width="28.4945" height="25.5119" filterUnits="userSpaceOnUse" color-interpolation-filters="sRGB">
<feFlood flood-opacity="0" result="BackgroundImageFix"/>
<feBlend mode="normal" in="SourceGraphic" in2="BackgroundImageFix" result="shape"/>
<feGaussianBlur stdDeviation="0.160122" result="effect1_foregroundBlur_19_981"/>
</filter>
<filter id="filter2_f_19_981" x="5.28665" y="0.254428" width="35.4172" height="31.7449" filterUnits="userSpaceOnUse" color-interpolation-filters="sRGB">
<feFlood flood-opacity="0" result="BackgroundImageFix"/>
<feBlend mode="normal" in="SourceGraphic" in2="BackgroundImageFix" result="shape"/>
<feGaussianBlur stdDeviation="0.0800612" result="effect1_foregroundBlur_19_981"/>
</filter>
<filter id="filter3_f_19_981" x="7.92954" y="1.41721" width="21.6602" height="15.4792" filterUnits="userSpaceOnUse" color-interpolation-filters="sRGB">
<feFlood flood-opacity="0" result="BackgroundImageFix"/>
<feBlend mode="normal" in="SourceGraphic" in2="BackgroundImageFix" result="shape"/>
<feGaussianBlur stdDeviation="0.800612" result="effect1_foregroundBlur_19_981"/>
</filter>
<filter id="filter4_df_19_981" x="0.614109" y="3.64891" width="67.5744" height="39.6577" filterUnits="userSpaceOnUse" color-interpolation-filters="sRGB">
<feFlood flood-opacity="0" result="BackgroundImageFix"/>
<feColorMatrix in="SourceAlpha" type="matrix" values="0 0 0 0 0 0 0 0 0 0 0 0 0 0 0 0 0 0 127 0" result="hardAlpha"/>
<feOffset dx="0.800612" dy="0.160122"/>
<feGaussianBlur stdDeviation="1.20092"/>
<feColorMatrix type="matrix" values="0 0 0 0 0.258824 0 0 0 0 0.627451 0 0 0 0 0.941176 0 0 0 0.596 0"/>
<feBlend mode="normal" in2="BackgroundImageFix" result="effect1_dropShadow_19_981"/>
<feBlend mode="normal" in="SourceGraphic" in2="effect1_dropShadow_19_981" result="shape"/>
<feGaussianBlur stdDeviation="0.160122" result="effect2_foregroundBlur_19_981"/>
</filter>
<filter id="filter5_d_19_981" x="0.614109" y="3.64891" width="67.5744" height="39.6577" filterUnits="userSpaceOnUse" color-interpolation-filters="sRGB">
<feFlood flood-opacity="0" result="BackgroundImageFix"/>
<feColorMatrix in="SourceAlpha" type="matrix" values="0 0 0 0 0 0 0 0 0 0 0 0 0 0 0 0 0 0 127 0" result="hardAlpha"/>
<feOffset dx="0.800612" dy="0.160122"/>
<feGaussianBlur stdDeviation="1.20092"/>
<feColorMatrix type="matrix" values="0 0 0 0 0.501961 0 0 0 0 0.501961 0 0 0 0 0.501961 0 0 0 0.302 0"/>
<feBlend mode="normal" in2="BackgroundImageFix" result="effect1_dropShadow_19_981"/>
<feBlend mode="normal" in="SourceGraphic" in2="effect1_dropShadow_19_981" result="shape"/>
</filter>
<linearGradient id="paint0_linear_19_981" x1="27.637" y1="10.2822" x2="37.8348" y2="43.3483" gradientUnits="userSpaceOnUse">
<stop stop-color="white" stop-opacity="0.596"/>
<stop offset="1" stop-color="#F7F7F7" stop-opacity="0.204"/>
</linearGradient>
</defs>
</svg>
