<svg width="69" height="56" viewBox="0 0 69 56" fill="none" xmlns="http://www.w3.org/2000/svg">
<g filter="url(#filter0_f_19_1018)">
<path d="M22.4397 39.5062C22.5387 39.587 20.4166 43.6157 19.1929 44.8716C17.9692 46.1276 16.4725 46.7534 15.8495 46.2702C15.2265 45.7869 15.7127 44.3776 16.9365 43.1215C18.1603 41.8654 22.3408 39.4254 22.4397 39.5062Z" fill="#42A0F0"/>
<path d="M17.1415 43.951C17.2623 44.1243 17.6862 44.0824 18.0883 43.8573C18.4904 43.6322 18.7184 43.3093 18.5976 43.136C18.4768 42.9626 18.053 43.0046 17.6509 43.2297C17.2488 43.4548 17.0208 43.7777 17.1415 43.951Z" fill="white"/>
<path d="M35.3245 39.5062C35.4234 39.587 33.3013 43.6157 32.0776 44.8716C30.854 46.1276 29.3573 46.7534 28.7343 46.2702C28.1112 45.7869 28.5975 44.3776 29.8213 43.1215C31.0451 41.8654 35.2255 39.4254 35.3245 39.5062Z" fill="#42A0F0"/>
<path d="M30.0268 43.951C30.1476 44.1243 30.5715 44.0824 30.9735 43.8573C31.3756 43.6322 31.6037 43.3093 31.4829 43.136C31.3621 42.9626 30.9382 43.0046 30.5361 43.2297C30.134 43.4548 29.906 43.7777 30.0268 43.951Z" fill="white"/>
<path d="M48.2095 39.5062C48.3084 39.587 46.1863 43.6157 44.9627 44.8716C43.739 46.1276 42.2423 46.7534 41.6193 46.2702C40.9962 45.7869 41.4825 44.3776 42.7063 43.1215C43.9301 41.8654 48.1105 39.4254 48.2095 39.5062Z" fill="#42A0F0"/>
<path d="M42.9116 43.951C43.0324 44.1243 43.4562 44.0824 43.8583 43.8573C44.2604 43.6322 44.4884 43.3093 44.3676 43.136C44.2468 42.9626 43.823 43.0046 43.4209 43.2297C43.0188 43.4548 42.7908 43.7777 42.9116 43.951Z" fill="white"/>
<path d="M36.8403 47.9658C36.9393 48.0466 34.8172 52.0753 33.5935 53.3312C32.3698 54.5872 30.8732 55.213 30.2501 54.7298C29.6271 54.2465 30.1133 52.8372 31.3371 51.5811C32.561 50.325 36.7414 47.885 36.8403 47.9658Z" fill="#42A0F0"/>
<path d="M31.5427 52.4106C31.6635 52.5839 32.0873 52.542 32.4894 52.3169C32.8915 52.0918 33.1195 51.7689 32.9987 51.5956C32.8779 51.4222 32.4541 51.4642 32.052 51.6893C31.6499 51.9143 31.4219 52.2373 31.5427 52.4106Z" fill="white"/>
<path d="M22.4397 47.9658C22.5387 48.0466 20.4166 52.0753 19.1929 53.3312C17.9692 54.5872 16.4725 55.213 15.8495 54.7298C15.2265 54.2465 15.7127 52.8372 16.9365 51.5811C18.1603 50.325 22.3408 47.885 22.4397 47.9658Z" fill="#42A0F0"/>
<path d="M17.1415 52.4106C17.2623 52.5839 17.6862 52.542 18.0883 52.3169C18.4904 52.0918 18.7184 51.7689 18.5976 51.5956C18.4768 51.4222 18.053 51.4642 17.6509 51.6893C17.2488 51.9143 17.0208 52.2373 17.1415 52.4106Z" fill="white"/>
</g>
<g filter="url(#filter1_f_19_1018)">
<path d="M20.3696 29.055C28.0613 29.055 34.2966 23.4874 34.2966 16.6193C34.2966 9.75126 28.0613 4.18359 20.3696 4.18359C12.6779 4.18359 6.44263 9.75126 6.44263 16.6193C6.44263 23.4874 12.6779 29.055 20.3696 29.055Z" fill="#FA9E42"/>
</g>
<g filter="url(#filter2_f_19_1018)">
<path fill-rule="evenodd" clip-rule="evenodd" d="M20.3307 0.907021L20.3698 0.906982L20.4089 0.907021C20.6299 0.907452 20.8088 1.08702 20.8084 1.30811C20.808 1.52919 20.6284 1.70806 20.4073 1.70763L20.3698 1.70759L20.3323 1.70763C20.1112 1.70806 19.9316 1.52919 19.9312 1.30811C19.9308 1.08702 20.1096 0.907452 20.3307 0.907021ZM24.9908 1.86522C25.0488 1.6519 25.2688 1.52604 25.4821 1.5841L25.5569 1.60462C25.77 1.66355 25.8949 1.88407 25.836 2.09715C25.7771 2.31023 25.5566 2.43519 25.3435 2.37626L25.2719 2.35661C25.0586 2.29855 24.9327 2.07854 24.9908 1.86522ZM15.7488 1.86522C15.8069 2.07855 15.681 2.29855 15.4677 2.35661L15.3961 2.37626C15.183 2.43519 14.9625 2.31023 14.9036 2.09715C14.8446 1.88407 14.9696 1.66355 15.1827 1.60462L15.2574 1.5841C15.4707 1.52604 15.6907 1.6519 15.7488 1.86522ZM11.0308 3.76976C11.1462 3.95835 11.0869 4.20476 10.8983 4.32014L10.8347 4.35919C10.6467 4.47539 10.4 4.41712 10.2838 4.22904C10.1676 4.04096 10.2259 3.79429 10.4139 3.67808L10.4805 3.63719C10.669 3.52182 10.9155 3.58117 11.0308 3.76976ZM29.7087 3.76976C29.8241 3.58117 30.0705 3.52182 30.2591 3.63719L30.3256 3.67808C30.5137 3.79429 30.572 4.04096 30.4558 4.22904C30.3396 4.41712 30.0929 4.47539 29.9048 4.35919L29.8413 4.32014C29.6527 4.20476 29.5934 3.95835 29.7087 3.76976ZM7.06402 6.95186C7.23107 7.09668 7.24908 7.3495 7.10426 7.51654L7.05581 7.5727C6.9118 7.74045 6.65907 7.75969 6.49133 7.61568C6.32358 7.47166 6.30434 7.21894 6.44835 7.05119L6.49933 6.9921C6.64416 6.82505 6.89698 6.80704 7.06402 6.95186ZM33.6756 6.95186C33.8426 6.80704 34.0954 6.82505 34.2402 6.9921L34.2912 7.05119C34.4352 7.21894 34.416 7.47166 34.2482 7.61568C34.0805 7.75969 33.8278 7.74045 33.6838 7.5727L33.6353 7.51654C33.4905 7.3495 33.5085 7.09668 33.6756 6.95186ZM4.31121 11.2218C4.51726 11.3019 4.61935 11.5339 4.53922 11.74L4.51259 11.809C4.43358 12.0155 4.20214 12.1188 3.99566 12.0398C3.78918 11.9608 3.68584 11.7294 3.76485 11.5229L3.79304 11.4498C3.87316 11.2438 4.10516 11.1417 4.31121 11.2218ZM36.4284 11.2218C36.6344 11.1417 36.8664 11.2438 36.9465 11.4498L36.9747 11.5229C37.0537 11.7294 36.9504 11.9608 36.7439 12.0398C36.5374 12.1188 36.306 12.0155 36.227 11.809L36.2003 11.74C36.1202 11.5339 36.2223 11.3019 36.4284 11.2218ZM3.22274 16.1807C3.44383 16.1813 3.62256 16.361 3.62195 16.5821L3.6219 16.6193L3.62195 16.6565C3.62256 16.8776 3.44383 17.0573 3.22274 17.0579C3.00166 17.0585 2.82195 16.8798 2.82134 16.6587L2.82129 16.6193L2.82134 16.5799C2.82195 16.3588 3.00166 16.1801 3.22274 16.1807ZM37.5168 16.1807C37.7379 16.1801 37.9176 16.3588 37.9182 16.5799L37.9183 16.6193L37.9182 16.6587C37.9176 16.8798 37.7379 17.0585 37.5168 17.0579C37.2957 17.0573 37.117 16.8776 37.1176 16.6565L37.1177 16.6193L37.1176 16.5821C37.117 16.361 37.2957 16.1813 37.5168 16.1807ZM3.99566 21.1988C4.20214 21.1198 4.43358 21.2231 4.51259 21.4296L4.53922 21.4986C4.61935 21.7047 4.51726 21.9367 4.31121 22.0168C4.10516 22.0969 3.87316 21.9948 3.79304 21.7888L3.76485 21.7157C3.68584 21.5092 3.78918 21.2778 3.99566 21.1988ZM36.7439 21.1988C36.9504 21.2778 37.0537 21.5092 36.9747 21.7157L36.9465 21.7888C36.8664 21.9948 36.6344 22.0969 36.4284 22.0168C36.2223 21.9367 36.1202 21.7047 36.2003 21.4986L36.227 21.4296C36.306 21.2231 36.5374 21.1198 36.7439 21.1988ZM6.49133 25.6229C6.65907 25.4789 6.9118 25.4982 7.05581 25.6659L7.10426 25.7221C7.24908 25.8891 7.23107 26.1419 7.06402 26.2868C6.89698 26.4316 6.64416 26.4136 6.49933 26.2465L6.44835 26.1874C6.30434 26.0197 6.32358 25.7669 6.49133 25.6229ZM34.2482 25.6229C34.416 25.7669 34.4352 26.0197 34.2912 26.1874L34.2402 26.2465C34.0954 26.4136 33.8426 26.4316 33.6756 26.2868C33.5085 26.1419 33.4905 25.8891 33.6353 25.7221L33.6838 25.6659C33.8278 25.4982 34.0805 25.4789 34.2482 25.6229ZM10.2838 29.0096C10.4 28.8215 10.6467 28.7632 10.8347 28.8794L10.8983 28.9185C11.0869 29.0338 11.1462 29.2803 11.0308 29.4689C10.9155 29.6574 10.669 29.7168 10.4805 29.6014L10.4139 29.5605C10.2259 29.4443 10.1676 29.1977 10.2838 29.0096ZM30.4558 29.0096C30.572 29.1977 30.5137 29.4443 30.3256 29.5605L30.2591 29.6014C30.0705 29.7168 29.8241 29.6574 29.7087 29.4689C29.5934 29.2803 29.6527 29.0338 29.8413 28.9185L29.9048 28.8794C30.0929 28.7632 30.3396 28.8215 30.4558 29.0096ZM14.9036 31.1415C14.9625 30.9284 15.183 30.8034 15.3961 30.8624L15.4677 30.882C15.681 30.9401 15.8069 31.1601 15.7488 31.3734C15.6908 31.5867 15.4707 31.7126 15.2574 31.6545L15.1827 31.634C14.9696 31.5751 14.8446 31.3545 14.9036 31.1415ZM25.836 31.1415C25.895 31.3545 25.77 31.5751 25.5569 31.634L25.4821 31.6545C25.2688 31.7126 25.0488 31.5867 24.9908 31.3734C24.9327 31.1601 25.0586 30.9401 25.2719 30.882L25.3435 30.8624C25.5566 30.8034 25.7771 30.9284 25.836 31.1415ZM19.9312 31.9305C19.9316 31.7094 20.1112 31.5306 20.3323 31.531L20.3698 31.531L20.4073 31.531C20.6284 31.5306 20.808 31.7094 20.8084 31.9305C20.8088 32.1516 20.6299 32.3312 20.4089 32.3316L20.3698 32.3316L20.3307 32.3316C20.1096 32.3312 19.9308 32.1516 19.9312 31.9305Z" fill="#FA9E42"/>
</g>
<g filter="url(#filter3_f_19_1018)">
<path d="M18.8939 14.1362C23.7717 11.8229 26.5309 7.93859 25.0569 5.46048C23.5828 2.98237 18.4336 2.84883 13.5558 5.16221C8.67808 7.47559 5.91885 11.3599 7.39292 13.838C8.86699 16.3161 14.0162 16.4496 18.8939 14.1362Z" fill="#F8E36F"/>
</g>
<g filter="url(#filter4_df_19_1018)">
<g filter="url(#filter5_d_19_1018)">
<path d="M43.1803 44.0735C42.8139 44.0998 42.444 44.113 42.0705 44.1133H16.012C14.2184 44.1192 12.441 43.8089 10.7819 43.2002C9.12284 42.5914 7.61469 41.6961 6.34399 40.5657C5.07328 39.4353 4.06503 38.092 3.37707 36.6128C2.6891 35.1337 2.33496 33.5478 2.33496 31.9461C2.33496 30.3445 2.6891 28.7586 3.37707 27.2795C4.06503 25.8003 5.07328 24.457 6.34399 23.3266C7.61469 22.1962 9.12284 21.3009 10.7819 20.6921C12.441 20.0833 14.2184 19.773 16.012 19.779H25.728C28.8779 13.5908 36.1327 9.2594 44.5785 9.2594C55.9147 9.2594 65.1046 17.0618 65.1046 26.6863C65.1046 36.3109 55.9147 44.1133 44.5785 44.1133C44.1086 44.1133 43.6425 44.1 43.1803 44.0735Z" fill="url(#paint0_linear_19_1018)"/>
<path d="M44.5791 43.9441C45.9596 43.9441 47.3393 43.826 48.6796 43.5931C49.9858 43.3662 51.2705 43.0276 52.4981 42.5868C53.7033 42.154 54.8657 41.6183 55.9531 40.9947C57.0299 40.377 58.0425 39.6677 58.9627 38.8864C59.8828 38.1053 60.718 37.2458 61.4453 36.3319C62.1793 35.4094 62.8098 34.4232 63.3191 33.4009C63.8378 32.3598 64.2361 31.2703 64.503 30.1628C64.7769 29.0264 64.9158 27.8567 64.9158 26.6863C64.9158 25.5158 64.7769 24.3462 64.503 23.2098C64.2361 22.1022 63.8378 21.0128 63.3191 19.9718C62.8098 18.9494 62.1793 17.9633 61.4453 17.0408C60.718 16.1269 59.8828 15.2674 58.9627 14.4863C58.0425 13.705 57.0299 12.9957 55.9531 12.378C54.8657 11.7543 53.7033 11.2187 52.4981 10.7859C51.2705 10.345 49.9858 10.0065 48.6796 9.77954C47.3393 9.54667 45.9596 9.42859 44.5791 9.42859C40.5297 9.42859 36.6189 10.4357 33.2696 12.341C31.6551 13.2594 30.2043 14.368 28.9575 15.6359C27.7028 16.9119 26.6745 18.3293 25.901 19.849L25.8506 19.9482H25.7285H16.0127C14.1987 19.9482 12.439 20.2654 10.7826 20.8909C9.98644 21.1916 9.21854 21.5638 8.50023 21.9971C7.78869 22.4264 7.11959 22.9193 6.5115 23.4623C5.90341 24.0053 5.35134 24.6027 4.87063 25.2381C4.38535 25.8795 3.96855 26.5651 3.63181 27.276C2.9312 28.7551 2.57596 30.3263 2.57596 31.9461C2.57596 33.5659 2.9312 35.1371 3.63181 36.6162C3.96855 37.3271 4.38535 38.0128 4.87063 38.6542C5.35134 39.2895 5.90341 39.887 6.5115 40.43C7.11959 40.9729 7.78869 41.4659 8.50023 41.8951C9.21854 42.3284 9.98644 42.7006 10.7826 43.0013C12.439 43.6269 14.1987 43.9441 16.0127 43.9441H42.0712C42.4356 43.9441 42.8039 43.9309 43.1658 43.9049L43.1795 43.9039L43.1931 43.9046C43.6516 43.9308 44.1179 43.9441 44.5791 43.9441ZM44.5791 44.1133C44.1093 44.1133 43.643 44.0999 43.1811 44.0735C42.8152 44.0998 42.4446 44.1133 42.0712 44.1133H16.0127C8.48717 44.1133 2.38647 38.6658 2.38647 31.9461C2.38647 25.2264 8.48717 19.779 16.0127 19.779H25.7285C28.8786 13.59 36.1329 9.2594 44.5791 9.2594C55.9154 9.2594 65.1053 17.0618 65.1053 26.6863C65.1053 36.3109 55.9154 44.1133 44.5791 44.1133Z" fill="white" fill-opacity="0.5"/>
</g>
</g>
<defs>
<filter id="filter0_f_19_1018" x="15.2579" y="39.184" width="33.2753" height="16.0293" filterUnits="userSpaceOnUse" color-interpolation-filters="sRGB">
<feFlood flood-opacity="0" result="BackgroundImageFix"/>
<feBlend mode="normal" in="SourceGraphic" in2="BackgroundImageFix" result="shape"/>
<feGaussianBlur stdDeviation="0.160122" result="effect1_foregroundBlur_19_1018"/>
</filter>
<filter id="filter1_f_19_1018" x="6.12238" y="3.86335" width="28.4945" height="25.5119" filterUnits="userSpaceOnUse" color-interpolation-filters="sRGB">
<feFlood flood-opacity="0" result="BackgroundImageFix"/>
<feBlend mode="normal" in="SourceGraphic" in2="BackgroundImageFix" result="shape"/>
<feGaussianBlur stdDeviation="0.160122" result="effect1_foregroundBlur_19_1018"/>
</filter>
<filter id="filter2_f_19_1018" x="2.66117" y="0.74686" width="35.4172" height="31.7449" filterUnits="userSpaceOnUse" color-interpolation-filters="sRGB">
<feFlood flood-opacity="0" result="BackgroundImageFix"/>
<feBlend mode="normal" in="SourceGraphic" in2="BackgroundImageFix" result="shape"/>
<feGaussianBlur stdDeviation="0.0800612" result="effect1_foregroundBlur_19_1018"/>
</filter>
<filter id="filter3_f_19_1018" x="5.39487" y="1.90964" width="21.6602" height="15.4792" filterUnits="userSpaceOnUse" color-interpolation-filters="sRGB">
<feFlood flood-opacity="0" result="BackgroundImageFix"/>
<feBlend mode="normal" in="SourceGraphic" in2="BackgroundImageFix" result="shape"/>
<feGaussianBlur stdDeviation="0.800612" result="effect1_foregroundBlur_19_1018"/>
</filter>
<filter id="filter4_df_19_1018" x="0.733738" y="7.01769" width="67.5739" height="39.6577" filterUnits="userSpaceOnUse" color-interpolation-filters="sRGB">
<feFlood flood-opacity="0" result="BackgroundImageFix"/>
<feColorMatrix in="SourceAlpha" type="matrix" values="0 0 0 0 0 0 0 0 0 0 0 0 0 0 0 0 0 0 127 0" result="hardAlpha"/>
<feOffset dx="0.800612" dy="0.160122"/>
<feGaussianBlur stdDeviation="1.20092"/>
<feColorMatrix type="matrix" values="0 0 0 0 0.258824 0 0 0 0 0.627451 0 0 0 0 0.941176 0 0 0 0.596 0"/>
<feBlend mode="normal" in2="BackgroundImageFix" result="effect1_dropShadow_19_1018"/>
<feBlend mode="normal" in="SourceGraphic" in2="effect1_dropShadow_19_1018" result="shape"/>
<feGaussianBlur stdDeviation="0.160122" result="effect2_foregroundBlur_19_1018"/>
</filter>
<filter id="filter5_d_19_1018" x="0.733738" y="7.01769" width="67.5739" height="39.6577" filterUnits="userSpaceOnUse" color-interpolation-filters="sRGB">
<feFlood flood-opacity="0" result="BackgroundImageFix"/>
<feColorMatrix in="SourceAlpha" type="matrix" values="0 0 0 0 0 0 0 0 0 0 0 0 0 0 0 0 0 0 127 0" result="hardAlpha"/>
<feOffset dx="0.800612" dy="0.160122"/>
<feGaussianBlur stdDeviation="1.20092"/>
<feColorMatrix type="matrix" values="0 0 0 0 0.501961 0 0 0 0 0.501961 0 0 0 0 0.501961 0 0 0 0.302 0"/>
<feBlend mode="normal" in2="BackgroundImageFix" result="effect1_dropShadow_19_1018"/>
<feBlend mode="normal" in="SourceGraphic" in2="effect1_dropShadow_19_1018" result="shape"/>
</filter>
<linearGradient id="paint0_linear_19_1018" x1="27.7567" y1="13.651" x2="37.9544" y2="46.7171" gradientUnits="userSpaceOnUse">
<stop stop-color="white" stop-opacity="0.596"/>
<stop offset="1" stop-color="#F7F7F7" stop-opacity="0.204"/>
</linearGradient>
</defs>
</svg>
