<svg width="50" height="30" viewBox="0 0 50 30" fill="none" xmlns="http://www.w3.org/2000/svg">
<g filter="url(#filter0_f_19_2116)">
<path fill-rule="evenodd" clip-rule="evenodd" d="M38.6116 7.19554C37.9872 6.66042 37.3079 6.26793 36.7515 6.28054C36.2149 6.2927 35.8039 6.63376 35.1644 7.20452C35.1532 7.21456 35.1419 7.22468 35.1304 7.23487C34.5638 7.74102 33.7939 8.42868 32.6893 8.4463L32.6643 8.4467L32.6393 8.44515C31.4294 8.36995 30.7559 7.66826 30.2576 7.14906L30.2403 7.13105C29.7283 6.59781 29.4171 6.29785 28.8545 6.28122C28.3044 6.32931 27.9701 6.65129 27.4377 7.18439L27.4358 7.18626C26.9251 7.69774 26.2398 8.38399 25.0672 8.4455C24.5422 8.47229 24.0346 8.29015 23.6088 8.06462C23.1754 7.83505 22.7687 7.52993 22.4269 7.23729C22.0826 6.94263 21.7891 6.64766 21.5823 6.42738C21.4785 6.3168 21.3955 6.22393 21.3377 6.15788C21.3088 6.12482 21.2862 6.09841 21.2703 6.07976L21.2518 6.05773L21.2464 6.05133L21.2448 6.04933L21.244 6.04837C21.2439 6.04825 21.2438 6.04815 21.7326 5.64431L21.244 6.04837C21.0187 5.77566 21.0569 5.37173 21.3296 5.14644C21.6022 4.92124 22.0057 4.95954 22.2311 5.23193C22.231 5.23188 22.2311 5.23199 22.2311 5.23193L22.2341 5.23554L22.247 5.25093C22.259 5.26505 22.2776 5.28668 22.3021 5.31472C22.3511 5.37084 22.424 5.45236 22.5162 5.55057C22.7014 5.74789 22.9608 6.00816 23.2599 6.26415C23.5613 6.52215 23.8883 6.76306 24.2084 6.93263C24.536 7.10614 24.8026 7.17625 25.0006 7.16625C25.6389 7.13259 26.0144 6.79686 26.5313 6.27923C26.5532 6.25731 26.5754 6.23495 26.598 6.21221C27.0785 5.72878 27.727 5.07632 28.7911 5.00131L28.8179 4.99942L28.8447 4.99978C29.9873 5.01507 30.6385 5.69496 31.1196 6.19722C31.1347 6.21295 31.1496 6.22851 31.1643 6.24387C31.6635 6.76377 32.028 7.11536 32.6932 7.16489C33.2615 7.14636 33.6948 6.79924 34.3115 6.24882C34.3356 6.22728 34.3601 6.2053 34.3851 6.18296C34.9343 5.69086 35.679 5.02354 36.7225 4.99989C37.7936 4.97562 38.7954 5.66596 39.4452 6.2229C39.7888 6.51736 40.0754 6.81107 40.2757 7.03039C40.3762 7.1405 40.4561 7.233 40.5116 7.29897C40.5394 7.33199 40.5611 7.35844 40.5764 7.37723L40.5944 7.39955L40.5996 7.40616L40.6013 7.40828L40.6022 7.40935C40.6023 7.40948 40.6024 7.4096 40.1198 7.78964L40.6022 7.40935C40.821 7.68724 40.7734 8.0902 40.4955 8.30906C40.2177 8.52788 39.8151 8.4801 39.5962 8.20239L39.594 8.1996L39.5823 8.18511C39.5713 8.17165 39.5542 8.15082 39.5314 8.12368C39.4857 8.06934 39.4173 7.99005 39.3298 7.89424C39.154 7.70174 38.9052 7.44711 38.6116 7.19554ZM22.2311 5.23193C22.2311 5.23202 22.2305 5.23301 21.7376 5.64018L22.2311 5.23193C22.2311 5.23199 22.231 5.23188 22.2311 5.23193Z" fill="white"/>
</g>
<g filter="url(#filter1_f_19_2116)">
<path fill-rule="evenodd" clip-rule="evenodd" d="M46.3175 20.8013C45.389 20.273 44.2454 19.8003 43.1936 19.8162C42.1616 19.8317 41.4153 20.271 40.5005 20.8132C39.6031 21.3451 38.555 21.9662 37.0805 21.9819L37.0639 21.982L37.0473 21.9814C35.4238 21.9143 34.5129 21.2891 33.733 20.7498C32.9922 20.2374 32.4037 19.8305 31.2993 19.8164C30.2538 19.8696 29.6411 20.2771 28.8849 20.7799L28.8536 20.8007C28.0582 21.3295 27.1338 21.9275 25.5836 21.9815C24.3055 22.0248 22.9308 21.4026 21.9466 20.843C21.4395 20.5548 21.0051 20.265 20.6975 20.0474C20.5434 19.9383 20.4202 19.8468 20.3347 19.7818C20.2919 19.7493 20.2585 19.7234 20.2352 19.7052L20.2081 19.6839L20.2005 19.6778L20.1982 19.6759L20.1971 19.6751C20.197 19.675 20.1969 19.6749 20.5967 19.1776L20.1971 19.6751C19.9214 19.4534 19.8774 19.0501 20.099 18.7744M20.9993 18.6764C20.9993 18.6764 20.9993 18.6764 20.9993 18.6764L21.0044 18.6804L21.0248 18.6965C21.0434 18.7111 21.0719 18.7332 21.1096 18.7618C21.1849 18.819 21.2963 18.9019 21.4373 19.0016C21.72 19.2016 22.1181 19.4671 22.5796 19.7294C23.5325 20.2711 24.6398 20.7317 25.5394 20.7013C26.7175 20.6602 27.3915 20.2345 28.1444 19.734C28.1683 19.7181 28.1924 19.7021 28.2165 19.686C28.973 19.1822 29.8439 18.6021 31.2571 18.5359L31.275 18.5351L31.2928 18.5353C32.8031 18.5487 33.6683 19.1473 34.4302 19.6745L34.4617 19.6962C35.1929 20.2019 35.8491 20.6461 37.0834 20.7008C38.171 20.6849 38.9495 20.2434 39.8474 19.7112C39.8711 19.6972 39.8949 19.683 39.9189 19.6688C40.7877 19.1532 41.7939 18.5561 43.1743 18.5353C44.5729 18.5143 45.9607 19.1244 46.951 19.688C47.456 19.9754 47.8793 20.2633 48.1769 20.4797C48.326 20.5881 48.4444 20.6791 48.5265 20.7439C48.5676 20.7763 48.5997 20.8022 48.6221 20.8205L48.6483 20.8421L48.6559 20.8484L48.6582 20.8504L48.659 20.8511C48.6592 20.8512 48.6596 20.8516 48.2468 21.3412L48.659 20.8511C48.9295 21.0791 48.9644 21.4836 48.7364 21.7541C48.5085 22.0244 48.1047 22.0589 47.8343 21.8312C47.8342 21.8312 47.8343 21.8312 47.8343 21.8312L47.83 21.8277L47.8116 21.8125C47.7945 21.7986 47.7681 21.7772 47.7329 21.7495C47.6626 21.694 47.5577 21.6132 47.4236 21.5157C47.1548 21.3203 46.7719 21.0599 46.3175 20.8013" fill="white"/>
</g>
<g filter="url(#filter2_f_19_2116)">
<path fill-rule="evenodd" clip-rule="evenodd" d="M30.401 28.4151C29.4725 27.8867 28.3289 27.4141 27.2771 27.4299C26.2451 27.4455 25.4987 27.8848 24.584 28.4269C23.6866 28.9589 22.6385 29.58 21.164 29.5956L21.1474 29.5958L21.1308 29.5951C19.5073 29.5281 18.5964 28.9029 17.8165 28.3635C17.0757 27.8512 16.4872 27.4443 15.3828 27.4302C14.3373 27.4834 13.7246 27.8908 12.9684 28.3937L12.9371 28.4145C12.1417 28.9433 11.2173 29.5413 9.66711 29.5953C8.38901 29.6386 7.01426 29.0163 6.03005 28.4568C5.52299 28.1685 5.08865 27.8788 4.78104 27.6612C4.6269 27.5521 4.50371 27.4606 4.41818 27.3956C4.37539 27.3631 4.34196 27.3372 4.31872 27.319L4.2916 27.2976L4.28396 27.2916L4.28165 27.2897L4.28058 27.2889C4.28047 27.2888 4.28036 27.2887 4.68019 26.7914L4.28058 27.2889C4.0049 27.0672 3.96087 26.6639 4.18252 26.3882M5.08281 26.2902C5.08279 26.2902 5.08283 26.2902 5.08281 26.2902L5.08788 26.2942L5.10827 26.3103C5.1269 26.3249 5.15544 26.347 5.19307 26.3756C5.26836 26.4328 5.3798 26.5156 5.52082 26.6154C5.80353 26.8154 6.20164 27.0808 6.66314 27.3432C7.61597 27.8849 8.72328 28.3454 9.62286 28.3151C10.801 28.2739 11.4749 27.8483 12.2279 27.3477C12.2518 27.3318 12.2759 27.3158 12.3 27.2998C13.0565 26.796 13.9274 26.2159 15.3406 26.1497L15.3585 26.1489L15.3763 26.149C16.8866 26.1625 17.7518 26.7611 18.5137 27.2882L18.5452 27.31C19.2764 27.8157 19.9326 28.2598 21.1669 28.3145C22.2545 28.2987 23.033 27.8572 23.9309 27.325C23.9546 27.3109 23.9784 27.2968 24.0024 27.2826C24.8712 26.767 25.8774 26.1699 27.2578 26.1491C28.6564 26.128 30.0442 26.7382 31.0345 27.3018C31.5395 27.5891 31.9628 27.8771 32.2604 28.0934C32.4095 28.2018 32.5279 28.2929 32.61 28.3577C32.6511 28.3901 32.6832 28.416 32.7056 28.4343L32.7318 28.4559L32.7394 28.4622L32.7417 28.4642L32.7425 28.4648C32.7426 28.465 32.7431 28.4653 32.3303 28.955L32.7425 28.4648C33.013 28.6928 33.0479 29.0974 32.8199 29.3678C32.592 29.6382 32.1882 29.6727 31.9177 29.445C31.9177 29.445 31.9178 29.445 31.9177 29.445L31.9135 29.4415L31.8951 29.4263C31.878 29.4123 31.8516 29.391 31.8164 29.3632C31.7461 29.3077 31.6412 29.227 31.5071 29.1295C31.2383 28.9341 30.8554 28.6737 30.401 28.4151" fill="white"/>
</g>
<g filter="url(#filter3_f_19_2116)">
<path fill-rule="evenodd" clip-rule="evenodd" d="M33.354 12.3613C33.4129 12.4273 33.4072 12.5285 33.3412 12.5874L32.0148 13.7718C31.9489 13.8307 31.8476 13.825 31.7887 13.759C31.7298 13.693 31.7356 13.5918 31.8015 13.5329L33.1279 12.3485C33.1939 12.2896 33.2951 12.2954 33.354 12.3613Z" fill="#CAD1D2"/>
<path fill-rule="evenodd" clip-rule="evenodd" d="M31.7887 12.3613C31.8476 12.2954 31.9489 12.2896 32.0148 12.3485L33.3412 13.5329C33.4072 13.5918 33.4129 13.693 33.354 13.759C33.2951 13.825 33.1939 13.8307 33.1279 13.7718L31.8015 12.5874C31.7356 12.5285 31.7298 12.4273 31.7887 12.3613Z" fill="#CAD1D2"/>
<path fill-rule="evenodd" clip-rule="evenodd" d="M44.1585 26.066C44.2174 26.132 44.2117 26.2332 44.1457 26.2921L43.1945 27.1415C43.1285 27.2004 43.0273 27.1947 42.9684 27.1287C42.9095 27.0627 42.9152 26.9615 42.9812 26.9026L43.9324 26.0533C43.9984 25.9944 44.0996 26.0001 44.1585 26.066Z" fill="#42A0F0"/>
<path fill-rule="evenodd" clip-rule="evenodd" d="M42.9684 26.066C43.0273 26.0001 43.1285 25.9944 43.1945 26.0533L44.1457 26.9026C44.2117 26.9615 44.2174 27.0627 44.1585 27.1287C44.0996 27.1947 43.9984 27.2004 43.9324 27.1415L42.9812 26.2921C42.9152 26.2332 42.9095 26.132 42.9684 26.066Z" fill="#42A0F0"/>
<path fill-rule="evenodd" clip-rule="evenodd" d="M3.41949 21.8362C3.47839 21.9022 3.47266 22.0034 3.4067 22.0623L2.45549 22.9116C2.38953 22.9705 2.28831 22.9648 2.22941 22.8988C2.17051 22.8329 2.17623 22.7317 2.2422 22.6728L3.1934 21.8234C3.25936 21.7645 3.36059 21.7702 3.41949 21.8362Z" fill="#D0D0D0"/>
<path fill-rule="evenodd" clip-rule="evenodd" d="M2.22941 21.8362C2.28831 21.7702 2.38953 21.7645 2.45549 21.8234L3.4067 22.6728C3.47266 22.7317 3.47839 22.8329 3.41949 22.8988C3.36059 22.9648 3.25936 22.9705 3.1934 22.9116L2.2422 22.0623C2.17623 22.0034 2.17051 21.9022 2.22941 21.8362Z" fill="#D0D0D0"/>
<path fill-rule="evenodd" clip-rule="evenodd" d="M42.4532 1.87135C42.5121 1.93731 42.5064 2.03853 42.4404 2.09743L41.4892 2.94678C41.4232 3.00568 41.322 2.99996 41.2631 2.934C41.2042 2.86803 41.2099 2.76681 41.2759 2.70791L42.2271 1.85856C42.2931 1.79966 42.3943 1.80538 42.4532 1.87135Z" fill="#42A0F0"/>
<path fill-rule="evenodd" clip-rule="evenodd" d="M41.2631 1.87135C41.322 1.80538 41.4232 1.79966 41.4892 1.85856L42.4404 2.70791C42.5064 2.76681 42.5121 2.86803 42.4532 2.934C42.3943 2.99996 42.2931 3.00568 42.2271 2.94678L41.2759 2.09743C41.2099 2.03853 41.2042 1.93731 41.2631 1.87135Z" fill="#42A0F0"/>
</g>
<g filter="url(#filter4_f_19_2116)">
<path d="M4.65258 1.30469C5.02113 1.30841 8.76 6.5211 8.76 8.54617C8.76008 9.51888 8.32741 10.4518 7.55717 11.1396C6.78693 11.8275 5.74222 12.214 4.65287 12.214C3.56351 12.2141 2.51875 11.8278 1.7484 11.14C0.978058 10.4522 0.545241 9.51939 0.545166 8.54668C0.545166 6.52076 4.28404 1.30114 4.65258 1.30469Z" fill="#42A0F0"/>
<path d="M1.5211 9.91753C1.93151 10.0296 2.45311 9.56869 2.68613 8.88813C2.91915 8.20756 2.77535 7.56503 2.36494 7.45299C1.95453 7.34095 1.43293 7.80183 1.1999 8.4824C0.966883 9.16296 1.11069 9.8055 1.5211 9.91753Z" fill="white"/>
<path d="M12.9439 10.6104C13.2063 10.6129 15.868 14.3238 15.868 15.7659C15.868 16.4583 15.5599 17.1224 15.0115 17.6121C14.4631 18.1018 13.7194 18.3768 12.9439 18.3768C12.1684 18.3768 11.4246 18.1018 10.8762 17.6121C10.3278 17.1224 10.0198 16.4583 10.0198 15.7659C10.0198 14.3238 12.6814 10.6078 12.9439 10.6104Z" fill="#42A0F0"/>
<path d="M10.714 16.7418C11.0062 16.8216 11.3776 16.4935 11.5435 16.0089C11.7094 15.5244 11.607 15.067 11.3148 14.9872C11.0225 14.9074 10.6512 15.2355 10.4853 15.7201C10.3194 16.2046 10.4218 16.662 10.714 16.7418Z" fill="white"/>
</g>
<defs>
<filter id="filter0_f_19_2116" x="20.7769" y="4.67902" width="20.2828" height="4.08934" filterUnits="userSpaceOnUse" color-interpolation-filters="sRGB">
<feFlood flood-opacity="0" result="BackgroundImageFix"/>
<feBlend mode="normal" in="SourceGraphic" in2="BackgroundImageFix" result="shape"/>
<feGaussianBlur stdDeviation="0.160122" result="effect1_foregroundBlur_19_2116"/>
</filter>
<filter id="filter1_f_19_2116" x="19.6375" y="18.2145" width="29.5697" height="4.08934" filterUnits="userSpaceOnUse" color-interpolation-filters="sRGB">
<feFlood flood-opacity="0" result="BackgroundImageFix"/>
<feBlend mode="normal" in="SourceGraphic" in2="BackgroundImageFix" result="shape"/>
<feGaussianBlur stdDeviation="0.160122" result="effect1_foregroundBlur_19_2116"/>
</filter>
<filter id="filter2_f_19_2116" x="3.72102" y="25.8283" width="29.5697" height="4.08934" filterUnits="userSpaceOnUse" color-interpolation-filters="sRGB">
<feFlood flood-opacity="0" result="BackgroundImageFix"/>
<feBlend mode="normal" in="SourceGraphic" in2="BackgroundImageFix" result="shape"/>
<feGaussianBlur stdDeviation="0.160122" result="effect1_foregroundBlur_19_2116"/>
</filter>
<filter id="filter3_f_19_2116" x="2.0286" y="1.65775" width="42.3307" height="25.6845" filterUnits="userSpaceOnUse" color-interpolation-filters="sRGB">
<feFlood flood-opacity="0" result="BackgroundImageFix"/>
<feBlend mode="normal" in="SourceGraphic" in2="BackgroundImageFix" result="shape"/>
<feGaussianBlur stdDeviation="0.0800612" result="effect1_foregroundBlur_19_2116"/>
</filter>
<filter id="filter4_f_19_2116" x="0.224921" y="0.984443" width="15.9632" height="17.7126" filterUnits="userSpaceOnUse" color-interpolation-filters="sRGB">
<feFlood flood-opacity="0" result="BackgroundImageFix"/>
<feBlend mode="normal" in="SourceGraphic" in2="BackgroundImageFix" result="shape"/>
<feGaussianBlur stdDeviation="0.160122" result="effect1_foregroundBlur_19_2116"/>
</filter>
</defs>
</svg>
