<svg width="69" height="53" viewBox="0 0 69 53" fill="none" xmlns="http://www.w3.org/2000/svg">
<g filter="url(#filter0_f_19_965)">
<path fill-rule="evenodd" clip-rule="evenodd" d="M43.2996 35.9502C42.3712 35.4219 41.2276 34.9492 40.1758 34.9651C39.1438 34.9806 38.3974 35.4199 37.4827 35.9621C36.5853 36.494 35.5372 37.1152 34.0627 37.1308L34.0461 37.131L34.0295 37.1303C32.406 37.0633 31.495 36.438 30.7152 35.8987C29.9744 35.3864 29.3859 34.9794 28.2814 34.9653C27.236 35.0185 26.6233 35.426 25.8671 35.9288L25.8358 35.9496C25.0404 36.4785 24.116 37.0764 22.5658 37.1304C21.2877 37.1737 19.9129 36.5515 18.9287 35.992C18.4217 35.7037 17.9873 35.4139 17.6797 35.1963C17.5256 35.0873 17.4024 34.9957 17.3169 34.9308C17.2741 34.8983 17.2406 34.8723 17.2174 34.8542L17.1903 34.8328L17.1826 34.8267L17.1803 34.8249L17.1793 34.824C17.1791 34.8239 17.179 34.8238 17.5789 34.3265L17.1793 34.824C16.9036 34.6024 16.8596 34.199 17.0812 33.9233M17.9815 33.8253C17.9815 33.8253 17.9815 33.8254 17.9815 33.8253L17.9866 33.8294L18.0069 33.8454C18.0256 33.86 18.0541 33.8821 18.0917 33.9107C18.167 33.9679 18.2785 34.0508 18.4195 34.1505C18.7022 34.3505 19.1003 34.616 19.5618 34.8784C20.5146 35.4201 21.622 35.8806 22.5215 35.8502C23.6997 35.8091 24.3736 35.3835 25.1266 34.8829C25.1505 34.867 25.1745 34.851 25.1987 34.8349C25.9551 34.3311 26.8261 33.7511 28.2393 33.6849L28.2571 33.684L28.275 33.6842C29.7852 33.6976 30.6505 34.2963 31.4124 34.8234L31.4438 34.8451C32.1751 35.3509 32.8313 35.795 34.0656 35.8497C35.1532 35.8338 35.9317 35.3923 36.8296 34.8601C36.8533 34.8461 36.8771 34.8319 36.9011 34.8177C37.7699 34.3022 38.7761 33.705 40.1565 33.6842C41.5551 33.6632 42.9428 34.2733 43.9332 34.8369C44.4382 35.1243 44.8615 35.4122 45.1591 35.6286C45.3082 35.737 45.4265 35.828 45.5087 35.8928C45.5498 35.9252 45.5818 35.9512 45.6042 35.9695L45.6305 35.9911L45.638 35.9974L45.6404 35.9993L45.6412 36C45.6413 36.0001 45.6418 36.0005 45.2289 36.4902L45.6412 36C45.9116 36.228 45.9466 36.6326 45.7186 36.903C45.4907 37.1733 45.0869 37.2078 44.8164 36.9801C44.8164 36.9801 44.8165 36.9802 44.8164 36.9801L44.8122 36.9766L44.7938 36.9614C44.7767 36.9475 44.7502 36.9261 44.7151 36.8984C44.6448 36.8429 44.5399 36.7622 44.4058 36.6647C44.137 36.4692 43.7541 36.2089 43.2996 35.9502" fill="white"/>
<path fill-rule="evenodd" clip-rule="evenodd" d="M53.3424 43.5639C52.414 43.0355 51.2703 42.5629 50.2185 42.5787C49.1865 42.5943 48.4402 43.0336 47.5254 43.5757C46.628 44.1077 45.5799 44.7288 44.1054 44.7444L44.0888 44.7446L44.0722 44.7439C42.4487 44.6769 41.5378 44.0517 40.7579 43.5123C40.0171 43 39.4286 42.5931 38.3242 42.579C37.2788 42.6322 36.666 43.0396 35.9098 43.5425L35.8785 43.5633C35.0831 44.0921 34.1587 44.6901 32.6085 44.7441C31.3304 44.7874 29.9557 44.1651 28.9715 43.6056C28.4644 43.3173 28.0301 43.0276 27.7224 42.81C27.5683 42.7009 27.4451 42.6094 27.3596 42.5444C27.3168 42.5119 27.2834 42.486 27.2601 42.4678L27.233 42.4464L27.2254 42.4404L27.2231 42.4385L27.222 42.4377C27.2219 42.4376 27.2218 42.4375 27.6216 41.9402L27.222 42.4377C26.9463 42.216 26.9023 41.8127 27.1239 41.537M28.0242 41.439C28.0242 41.439 28.0242 41.439 28.0242 41.439L28.0293 41.443L28.0497 41.4591C28.0683 41.4737 28.0968 41.4958 28.1345 41.5244C28.2098 41.5816 28.3212 41.6644 28.4622 41.7642C28.7449 41.9642 29.143 42.2296 29.6045 42.492C30.5574 43.0337 31.6647 43.4942 32.5643 43.4639C33.7424 43.4227 34.4164 42.9971 35.1693 42.4965C35.1932 42.4806 35.2173 42.4646 35.2414 42.4486C35.9979 41.9448 36.8688 41.3647 38.282 41.2985L38.2999 41.2977L38.3177 41.2978C39.828 41.3113 40.6932 41.9099 41.4551 42.437L41.4866 42.4588C42.2178 42.9645 42.874 43.4086 44.1083 43.4633C45.1959 43.4475 45.9744 43.006 46.8723 42.4738C46.896 42.4597 46.9198 42.4456 46.9438 42.4314C47.8126 41.9158 48.8188 41.3187 50.1992 41.2979C51.5978 41.2768 52.9856 41.887 53.976 42.4506C54.4809 42.7379 54.9042 43.0259 55.2018 43.2422C55.3509 43.3506 55.4693 43.4417 55.5514 43.5065C55.5925 43.5389 55.6246 43.5648 55.647 43.5831L55.6732 43.6047L55.6808 43.611L55.6831 43.613L55.6839 43.6136C55.6841 43.6138 55.6845 43.6141 55.2717 44.1038L55.6839 43.6136C55.9544 43.8417 55.9893 44.2462 55.7613 44.5167C55.5334 44.787 55.1296 44.8215 54.8592 44.5938C54.8591 44.5938 54.8592 44.5938 54.8592 44.5938L54.8549 44.5903L54.8365 44.5751C54.8194 44.5611 54.793 44.5398 54.7578 44.512C54.6875 44.4566 54.5826 44.3758 54.4485 44.2783C54.1797 44.0829 53.7968 43.8225 53.3424 43.5639" fill="white"/>
<path fill-rule="evenodd" clip-rule="evenodd" d="M37.4259 51.1777C36.4974 50.6493 35.3538 50.1767 34.302 50.1925C33.27 50.208 32.5237 50.6473 31.6089 51.1895C30.7115 51.7214 29.6634 52.3426 28.1889 52.3582L28.1723 52.3584L28.1557 52.3577C26.5322 52.2907 25.6213 51.6654 24.8414 51.1261C24.1006 50.6138 23.5121 50.2068 22.4077 50.1927C21.3622 50.2459 20.7495 50.6534 19.9933 51.1562L19.962 51.1771C19.1666 51.7059 18.2422 52.3038 16.692 52.3579C15.4139 52.4012 14.0392 51.7789 13.055 51.2194C12.5479 50.9311 12.1135 50.6413 11.8059 50.4237C11.6518 50.3147 11.5286 50.2232 11.4431 50.1582C11.4003 50.1257 11.3669 50.0998 11.3436 50.0816L11.3165 50.0602L11.3089 50.0541L11.3065 50.0523L11.3055 50.0514C11.3054 50.0513 11.3053 50.0512 11.7051 49.5539L11.3055 50.0514C11.0298 49.8298 10.9858 49.4264 11.2074 49.1508M12.1077 49.0528C12.1077 49.0527 12.1077 49.0528 12.1077 49.0528L12.1128 49.0568L12.1332 49.0728C12.1518 49.0874 12.1803 49.1096 12.218 49.1381C12.2933 49.1954 12.4047 49.2782 12.5457 49.378C12.8284 49.5779 13.2265 49.8434 13.688 50.1058C14.6409 50.6475 15.7482 51.108 16.6478 51.0776C17.8259 51.0365 18.4998 50.6109 19.2528 50.1103C19.2767 50.0944 19.3008 50.0784 19.3249 50.0623C20.0814 49.5585 20.9523 48.9785 22.3655 48.9123L22.3834 48.9115L22.4012 48.9116C23.9115 48.925 24.7767 49.5237 25.5386 50.0508L25.5701 50.0725C26.3013 50.5783 26.9575 51.0224 28.1918 51.0771C29.2794 51.0612 30.0579 50.6198 30.9558 50.0876C30.9795 50.0735 31.0033 50.0594 31.0273 50.0451C31.8961 49.5296 32.9023 48.9324 34.2827 48.9117C35.6813 48.8906 37.0691 49.5007 38.0594 50.0643C38.5644 50.3517 38.9877 50.6396 39.2853 50.856C39.4344 50.9644 39.5528 51.0554 39.6349 51.1202C39.676 51.1527 39.7081 51.1786 39.7305 51.1969L39.7567 51.2185L39.7643 51.2248L39.7666 51.2267L39.7674 51.2274C39.7676 51.2275 39.768 51.2279 39.3552 51.7176L39.7674 51.2274C40.0379 51.4554 40.0728 51.86 39.8448 52.1304C39.6169 52.4008 39.2131 52.4353 38.9427 52.2076C38.9426 52.2075 38.9427 52.2076 38.9427 52.2076L38.9384 52.2041L38.92 52.1889C38.9029 52.1749 38.8765 52.1535 38.8413 52.1258C38.771 52.0703 38.6661 51.9896 38.532 51.8921C38.2632 51.6966 37.8803 51.4363 37.4259 51.1777" fill="white"/>
</g>
<g filter="url(#filter1_f_19_965)">
<path d="M18.3264 29.055C26.0181 29.055 32.2534 23.4874 32.2534 16.6193C32.2534 9.75126 26.0181 4.18359 18.3264 4.18359C10.6347 4.18359 4.39941 9.75126 4.39941 16.6193C4.39941 23.4874 10.6347 29.055 18.3264 29.055Z" fill="#FA9E42"/>
</g>
<g filter="url(#filter2_f_19_965)">
<path fill-rule="evenodd" clip-rule="evenodd" d="M18.2875 0.907021L18.3266 0.906982L18.3657 0.907021C18.5867 0.907452 18.7656 1.08702 18.7652 1.30811C18.7647 1.52919 18.5852 1.70806 18.3641 1.70763L18.3266 1.70759L18.2891 1.70763C18.068 1.70806 17.8884 1.52919 17.888 1.30811C17.8875 1.08702 18.0664 0.907452 18.2875 0.907021ZM22.9475 1.86522C23.0056 1.6519 23.2256 1.52604 23.4389 1.5841L23.5137 1.60462C23.7268 1.66355 23.8517 1.88407 23.7928 2.09715C23.7339 2.31023 23.5133 2.43519 23.3003 2.37626L23.2287 2.35661C23.0153 2.29855 22.8895 2.07854 22.9475 1.86522ZM13.7056 1.86522C13.7637 2.07855 13.6378 2.29855 13.4245 2.35661L13.3529 2.37626C13.1398 2.43519 12.9193 2.31023 12.8603 2.09715C12.8014 1.88407 12.9264 1.66355 13.1395 1.60462L13.2142 1.5841C13.4275 1.52604 13.6475 1.6519 13.7056 1.86522ZM8.98762 3.76976C9.10299 3.95835 9.04364 4.20476 8.85505 4.32014L8.79152 4.35919C8.60344 4.47539 8.35677 4.41712 8.24057 4.22904C8.12437 4.04096 8.18264 3.79429 8.37072 3.67808L8.43724 3.63719C8.62583 3.52182 8.87224 3.58117 8.98762 3.76976ZM27.6655 3.76976C27.7809 3.58117 28.0273 3.52182 28.2159 3.63719L28.2824 3.67808C28.4705 3.79429 28.5288 4.04096 28.4126 4.22904C28.2964 4.41712 28.0497 4.47539 27.8616 4.35919L27.7981 4.32014C27.6095 4.20476 27.5502 3.95835 27.6655 3.76976ZM5.02081 6.95186C5.18785 7.09668 5.20587 7.3495 5.06105 7.51654L5.0126 7.5727C4.86859 7.74045 4.61586 7.75969 4.44811 7.61568C4.28037 7.47166 4.26113 7.21894 4.40514 7.05119L4.45612 6.9921C4.60094 6.82505 4.85376 6.80704 5.02081 6.95186ZM31.6323 6.95186C31.7994 6.80704 32.0522 6.82505 32.197 6.9921L32.248 7.05119C32.392 7.21894 32.3728 7.47166 32.205 7.61568C32.0373 7.75969 31.7846 7.74045 31.6405 7.5727L31.5921 7.51654C31.4473 7.3495 31.4653 7.09668 31.6323 6.95186ZM2.268 11.2218C2.47405 11.3019 2.57613 11.5339 2.49601 11.74L2.46938 11.809C2.39036 12.0155 2.15893 12.1188 1.95244 12.0398C1.74596 11.9608 1.64263 11.7294 1.72164 11.5229L1.74983 11.4498C1.82995 11.2438 2.06194 11.1417 2.268 11.2218ZM34.3851 11.2218C34.5912 11.1417 34.8232 11.2438 34.9033 11.4498L34.9315 11.5229C35.0105 11.7294 34.9072 11.9608 34.7007 12.0398C34.4942 12.1188 34.2628 12.0155 34.1838 11.809L34.1571 11.74C34.077 11.5339 34.1791 11.3019 34.3851 11.2218ZM1.17953 16.1807C1.40061 16.1813 1.57934 16.361 1.57874 16.5821L1.57869 16.6193L1.57874 16.6565C1.57934 16.8776 1.40061 17.0573 1.17953 17.0579C0.95845 17.0585 0.778736 16.8798 0.77813 16.6587L0.778076 16.6193L0.77813 16.5799C0.778736 16.3588 0.95845 16.1801 1.17953 16.1807ZM35.4736 16.1807C35.6947 16.1801 35.8744 16.3588 35.875 16.5799L35.8751 16.6193L35.875 16.6587C35.8744 16.8798 35.6947 17.0585 35.4736 17.0579C35.2525 17.0573 35.0738 16.8776 35.0744 16.6565L35.0745 16.6193L35.0744 16.5821C35.0738 16.361 35.2525 16.1813 35.4736 16.1807ZM1.95244 21.1988C2.15893 21.1198 2.39036 21.2231 2.46938 21.4296L2.49601 21.4986C2.57613 21.7047 2.47405 21.9367 2.268 22.0168C2.06194 22.0969 1.82995 21.9948 1.74983 21.7888L1.72164 21.7157C1.64263 21.5092 1.74596 21.2778 1.95244 21.1988ZM34.7007 21.1988C34.9072 21.2778 35.0105 21.5092 34.9315 21.7157L34.9033 21.7888C34.8232 21.9948 34.5912 22.0969 34.3852 22.0168C34.1791 21.9367 34.077 21.7047 34.1571 21.4986L34.1838 21.4296C34.2628 21.2231 34.4942 21.1198 34.7007 21.1988ZM4.44811 25.6229C4.61586 25.4789 4.86859 25.4982 5.0126 25.6659L5.06105 25.7221C5.20587 25.8891 5.18785 26.1419 5.02081 26.2868C4.85376 26.4316 4.60094 26.4136 4.45612 26.2465L4.40514 26.1874C4.26113 26.0197 4.28037 25.7669 4.44811 25.6229ZM32.205 25.6229C32.3728 25.7669 32.392 26.0197 32.248 26.1874L32.197 26.2465C32.0522 26.4136 31.7994 26.4316 31.6323 26.2868C31.4653 26.1419 31.4473 25.8891 31.5921 25.7221L31.6405 25.6659C31.7846 25.4982 32.0373 25.4789 32.205 25.6229ZM8.24057 29.0096C8.35677 28.8215 8.60344 28.7632 8.79152 28.8794L8.85505 28.9185C9.04364 29.0338 9.10299 29.2803 8.98762 29.4689C8.87224 29.6574 8.62583 29.7168 8.43724 29.6014L8.37072 29.5605C8.18264 29.4443 8.12437 29.1977 8.24057 29.0096ZM28.4126 29.0096C28.5288 29.1977 28.4705 29.4443 28.2824 29.5605L28.2159 29.6014C28.0273 29.7168 27.7809 29.6574 27.6655 29.4689C27.5502 29.2803 27.6095 29.0338 27.7981 28.9185L27.8616 28.8794C28.0497 28.7632 28.2964 28.8215 28.4126 29.0096ZM12.8603 31.1415C12.9193 30.9284 13.1398 30.8034 13.3529 30.8624L13.4245 30.882C13.6378 30.9401 13.7637 31.1601 13.7056 31.3734C13.6475 31.5867 13.4275 31.7126 13.2142 31.6545L13.1395 31.634C12.9264 31.5751 12.8014 31.3545 12.8603 31.1415ZM23.7928 31.1415C23.8517 31.3545 23.7268 31.5751 23.5137 31.634L23.4389 31.6545C23.2256 31.7126 23.0056 31.5867 22.9475 31.3734C22.8895 31.1601 23.0153 30.9401 23.2287 30.882L23.3003 30.8624C23.5134 30.8034 23.7339 30.9284 23.7928 31.1415ZM17.888 31.9305C17.8884 31.7094 18.068 31.5306 18.2891 31.531L18.3266 31.531L18.3641 31.531C18.5852 31.5306 18.7647 31.7094 18.7652 31.9305C18.7656 32.1516 18.5867 32.3312 18.3657 32.3316L18.3266 32.3316L18.2875 32.3316C18.0664 32.3312 17.8875 32.1516 17.888 31.9305Z" fill="#FA9E42"/>
</g>
<g filter="url(#filter3_f_19_965)">
<path d="M16.7841 14.1362C21.6618 11.8229 24.4211 7.93859 22.947 5.46048C21.4729 2.98237 16.3237 2.84883 11.446 5.16221C6.56822 7.47559 3.80899 11.3599 5.28306 13.838C6.75713 16.3161 11.9063 16.4496 16.7841 14.1362Z" fill="#F8E36F"/>
</g>
<g filter="url(#filter4_df_19_965)">
<g filter="url(#filter5_d_19_965)">
<path d="M43.6778 44.0735C43.3115 44.0998 42.9416 44.113 42.568 44.1133H16.5096C14.7159 44.1192 12.9386 43.8089 11.2795 43.2002C9.62039 42.5914 8.11225 41.6961 6.84154 40.5657C5.57084 39.4353 4.56259 38.092 3.87462 36.6128C3.18666 35.1337 2.83252 33.5478 2.83252 31.9461C2.83252 30.3445 3.18666 28.7586 3.87462 27.2795C4.56259 25.8003 5.57084 24.457 6.84154 23.3266C8.11225 22.1962 9.62039 21.3009 11.2795 20.6921C12.9386 20.0833 14.7159 19.773 16.5096 19.779H26.2253C29.3753 13.5908 36.6302 9.2594 45.076 9.2594C56.4122 9.2594 65.6021 17.0618 65.6021 26.6863C65.6021 36.3109 56.4122 44.1133 45.076 44.1133C44.6061 44.1133 44.14 44.1 43.6778 44.0735Z" fill="url(#paint0_linear_19_965)"/>
<path d="M45.0764 43.9441C46.457 43.9441 47.8366 43.826 49.177 43.5931C50.4831 43.3662 51.7678 43.0276 52.9954 42.5868C54.2006 42.154 55.3631 41.6183 56.4504 40.9947C57.5272 40.377 58.5398 39.6677 59.46 38.8864C60.3801 38.1053 61.2153 37.2458 61.9426 36.3319C62.6767 35.4094 63.3071 34.4232 63.8164 33.4009C64.3351 32.3598 64.7334 31.2703 65.0004 30.1628C65.2743 29.0264 65.4131 27.8567 65.4131 26.6863C65.4131 25.5158 65.2743 24.3462 65.0004 23.2098C64.7334 22.1022 64.3351 21.0128 63.8164 19.9718C63.3071 18.9494 62.6767 17.9633 61.9426 17.0408C61.2153 16.1269 60.3801 15.2674 59.4601 14.4863C58.5398 13.705 57.5272 12.9957 56.4504 12.378C55.3631 11.7543 54.2006 11.2187 52.9954 10.7859C51.7678 10.345 50.4831 10.0065 49.177 9.77954C47.8366 9.54667 46.457 9.42859 45.0764 9.42859C41.027 9.42859 37.1162 10.4357 33.7668 12.341C32.1523 13.2594 30.7015 14.368 29.4547 15.6359C28.2 16.9119 27.1717 18.3293 26.3982 19.849L26.3477 19.9482H26.2257H16.51C14.696 19.9482 12.9363 20.2654 11.2799 20.8909C10.4838 21.1916 9.71586 21.5638 8.99754 21.9971C8.28601 22.4264 7.6169 22.9193 7.00881 23.4623C6.40072 24.0053 5.84866 24.6027 5.36795 25.2381C4.88267 25.8795 4.46587 26.5651 4.12913 27.276C3.42851 28.7551 3.07327 30.3263 3.07327 31.9461C3.07327 33.5659 3.42851 35.1371 4.12913 36.6162C4.46587 37.3271 4.88267 38.0128 5.36795 38.6542C5.84866 39.2895 6.40072 39.887 7.00881 40.43C7.6169 40.9729 8.28601 41.4659 8.99754 41.8951C9.71586 42.3284 10.4838 42.7006 11.2799 43.0013C12.9363 43.6269 14.696 43.9441 16.51 43.9441H42.5685C42.9329 43.9441 43.3012 43.9309 43.6632 43.9049L43.6768 43.9039L43.6905 43.9046C44.1489 43.9308 44.6152 43.9441 45.0764 43.9441ZM45.0764 44.1133C44.6066 44.1133 44.1403 44.0999 43.6784 44.0735C43.3125 44.0998 42.942 44.1133 42.5685 44.1133H16.51C8.98449 44.1133 2.88379 38.6658 2.88379 31.9461C2.88379 25.2264 8.98449 19.779 16.51 19.779H26.2257C29.3758 13.59 36.6302 9.2594 45.0764 9.2594C56.4127 9.2594 65.6026 17.0618 65.6026 26.6863C65.6026 36.3109 56.4127 44.1133 45.0764 44.1133Z" fill="white" fill-opacity="0.5"/>
</g>
</g>
<defs>
<filter id="filter0_f_19_965" x="10.7459" y="33.3635" width="45.4862" height="19.3168" filterUnits="userSpaceOnUse" color-interpolation-filters="sRGB">
<feFlood flood-opacity="0" result="BackgroundImageFix"/>
<feBlend mode="normal" in="SourceGraphic" in2="BackgroundImageFix" result="shape"/>
<feGaussianBlur stdDeviation="0.160122" result="effect1_foregroundBlur_19_965"/>
</filter>
<filter id="filter1_f_19_965" x="4.07917" y="3.86335" width="28.4945" height="25.5119" filterUnits="userSpaceOnUse" color-interpolation-filters="sRGB">
<feFlood flood-opacity="0" result="BackgroundImageFix"/>
<feBlend mode="normal" in="SourceGraphic" in2="BackgroundImageFix" result="shape"/>
<feGaussianBlur stdDeviation="0.160122" result="effect1_foregroundBlur_19_965"/>
</filter>
<filter id="filter2_f_19_965" x="0.617954" y="0.74686" width="35.4172" height="31.7449" filterUnits="userSpaceOnUse" color-interpolation-filters="sRGB">
<feFlood flood-opacity="0" result="BackgroundImageFix"/>
<feBlend mode="normal" in="SourceGraphic" in2="BackgroundImageFix" result="shape"/>
<feGaussianBlur stdDeviation="0.0800612" result="effect1_foregroundBlur_19_965"/>
</filter>
<filter id="filter3_f_19_965" x="3.28501" y="1.90964" width="21.6602" height="15.4792" filterUnits="userSpaceOnUse" color-interpolation-filters="sRGB">
<feFlood flood-opacity="0" result="BackgroundImageFix"/>
<feBlend mode="normal" in="SourceGraphic" in2="BackgroundImageFix" result="shape"/>
<feGaussianBlur stdDeviation="0.800612" result="effect1_foregroundBlur_19_965"/>
</filter>
<filter id="filter4_df_19_965" x="1.2313" y="7.01769" width="67.5737" height="39.6577" filterUnits="userSpaceOnUse" color-interpolation-filters="sRGB">
<feFlood flood-opacity="0" result="BackgroundImageFix"/>
<feColorMatrix in="SourceAlpha" type="matrix" values="0 0 0 0 0 0 0 0 0 0 0 0 0 0 0 0 0 0 127 0" result="hardAlpha"/>
<feOffset dx="0.800612" dy="0.160122"/>
<feGaussianBlur stdDeviation="1.20092"/>
<feColorMatrix type="matrix" values="0 0 0 0 0.258824 0 0 0 0 0.627451 0 0 0 0 0.941176 0 0 0 0.596 0"/>
<feBlend mode="normal" in2="BackgroundImageFix" result="effect1_dropShadow_19_965"/>
<feBlend mode="normal" in="SourceGraphic" in2="effect1_dropShadow_19_965" result="shape"/>
<feGaussianBlur stdDeviation="0.160122" result="effect2_foregroundBlur_19_965"/>
</filter>
<filter id="filter5_d_19_965" x="1.2313" y="7.01769" width="67.5737" height="39.6577" filterUnits="userSpaceOnUse" color-interpolation-filters="sRGB">
<feFlood flood-opacity="0" result="BackgroundImageFix"/>
<feColorMatrix in="SourceAlpha" type="matrix" values="0 0 0 0 0 0 0 0 0 0 0 0 0 0 0 0 0 0 127 0" result="hardAlpha"/>
<feOffset dx="0.800612" dy="0.160122"/>
<feGaussianBlur stdDeviation="1.20092"/>
<feColorMatrix type="matrix" values="0 0 0 0 0.501961 0 0 0 0 0.501961 0 0 0 0 0.501961 0 0 0 0.302 0"/>
<feBlend mode="normal" in2="BackgroundImageFix" result="effect1_dropShadow_19_965"/>
<feBlend mode="normal" in="SourceGraphic" in2="effect1_dropShadow_19_965" result="shape"/>
</filter>
<linearGradient id="paint0_linear_19_965" x1="28.2542" y1="13.651" x2="38.4519" y2="46.7171" gradientUnits="userSpaceOnUse">
<stop stop-color="white" stop-opacity="0.596"/>
<stop offset="1" stop-color="#F7F7F7" stop-opacity="0.204"/>
</linearGradient>
</defs>
</svg>
