<svg width="68" height="52" viewBox="0 0 68 52" fill="none" xmlns="http://www.w3.org/2000/svg">
<g filter="url(#filter0_f_19_1581)">
<path d="M21.0615 36.2092C19.8694 36.2093 18.6803 36.1016 17.5125 35.8877C15.2587 35.4732 13.1188 34.665 11.2158 33.5097C8.57945 31.9141 6.47309 29.7139 5.11812 27.1402C3.76315 24.5665 3.2096 21.7144 3.51565 18.8837C3.82169 16.053 4.97602 13.3482 6.85734 11.0535C8.73866 8.75879 11.2775 6.95896 14.207 5.84316C15.272 5.43929 16.3792 5.13097 17.5125 4.92274C19.3567 4.58574 21.2492 4.51326 23.1189 4.70804C22.7209 5.48547 22.4164 6.29843 22.2106 7.13326C21.9989 7.99462 21.8923 8.87391 21.8926 9.75576C21.8882 12.1764 22.6976 14.5425 24.216 16.5479C25.1949 17.8412 26.4423 18.9551 27.8907 19.8292C28.6189 20.2683 29.3931 20.6435 30.2024 20.9493C31.8777 21.5824 33.6789 21.907 35.498 21.9039C36.5506 21.9045 37.5997 21.7966 38.6245 21.5824C38.383 24.5554 37.203 27.4065 35.2212 29.8052C34.5801 30.5812 33.8614 31.3036 33.0738 31.9634C29.8227 34.6949 25.5255 36.2138 21.0615 36.2092Z" fill="#713FFD"/>
</g>
<g filter="url(#filter1_f_19_1581)">
<path d="M17.962 18.2314C21.915 15.0532 23.1456 10.5192 20.7106 8.10446C18.2756 5.68969 13.0971 6.30856 9.14411 9.48674C5.19111 12.6649 3.96053 17.1989 6.39552 19.6137C8.83052 22.0284 14.009 21.4096 17.962 18.2314Z" fill="#A586FC"/>
</g>
<g filter="url(#filter2_f_19_1581)">
<path d="M12.5035 0.517578L13.0909 1.81445L14.6826 2.29411L13.0909 2.77377L12.5035 4.07064L11.9161 2.77377L10.3245 2.29411L11.9161 1.81445L12.5035 0.517578Z" fill="url(#paint0_linear_19_1581)"/>
<g filter="url(#filter3_f_19_1581)">
<path d="M38.8416 30.8032L39.3276 31.8522L40.6417 32.2414L39.3276 32.6305L38.8416 33.6795L38.3556 32.6305L37.0415 32.2414L38.3556 31.8522L38.8416 30.8032Z" fill="url(#paint1_linear_19_1581)"/>
</g>
<path d="M30.9793 4.55556L31.796 5.51105L33.2514 5.58832L32.0345 6.30538L31.8627 7.4975L31.0461 6.54201L29.5906 6.46474L30.8075 5.74769L30.9793 4.55556Z" fill="url(#paint2_linear_19_1581)"/>
<path d="M1.84733 28.4453L2.72763 29.1856L4.09792 29.0634L3.04769 29.8588L3.03274 30.9385L2.15244 30.1982L0.782155 30.3203L1.83238 29.525L1.84733 28.4453Z" fill="url(#paint3_linear_19_1581)"/>
<path d="M30.2098 15.1486L29.2417 15.3241L28.6687 16.22L28.5936 15.1905L27.8096 14.6538L28.7778 14.4783L29.3507 13.5823L29.4258 14.6119L30.2098 15.1486Z" fill="url(#paint4_linear_19_1581)"/>
</g>
<g filter="url(#filter4_df_19_1581)">
<g filter="url(#filter5_d_19_1581)">
<path d="M42.7813 48.5288C42.415 48.5551 42.0451 48.5684 41.6715 48.5686H15.6131C13.8194 48.5746 12.0421 48.2643 10.383 47.6555C8.72391 47.0467 7.21576 46.1514 5.94506 45.021C4.67436 43.8906 3.66611 42.5473 2.97814 41.0681C2.29018 39.589 1.93604 38.0031 1.93604 36.4015C1.93604 34.7998 2.29018 33.2139 2.97814 31.7348C3.66611 30.2556 4.67436 28.9123 5.94506 27.7819C7.21576 26.6515 8.72391 25.7562 10.383 25.1474C12.0421 24.5387 13.8194 24.2284 15.6131 24.2343H25.329C28.479 18.0461 35.7337 13.7147 44.1795 13.7147C55.5157 13.7147 64.7056 21.5171 64.7056 31.1417C64.7056 40.7662 55.5157 48.5686 44.1795 48.5686C43.7096 48.5686 43.2436 48.5553 42.7813 48.5288Z" fill="url(#paint5_linear_19_1581)"/>
<path d="M44.1792 48.3994C45.5597 48.3994 46.9394 48.2813 48.2797 48.0485C49.5859 47.8216 50.8706 47.483 52.0982 47.0421C53.3034 46.6093 54.4658 46.0737 55.5532 45.45C56.63 44.8323 57.6426 44.123 58.5628 43.3417C59.4829 42.5606 60.3181 41.7011 61.0454 40.7872C61.7794 39.8647 62.4099 38.8786 62.9192 37.8562C63.4379 36.8151 63.8362 35.7257 64.1031 34.6181C64.377 33.4817 64.5159 32.312 64.5159 31.1416C64.5159 29.9712 64.377 28.8015 64.1031 27.6651C63.8362 26.5576 63.4379 25.4681 62.9192 24.4271C62.4099 23.4047 61.7794 22.4186 61.0454 21.4961C60.3181 20.5822 59.4829 19.7227 58.5628 18.9416C57.6426 18.1603 56.63 17.451 55.5532 16.8333C54.4658 16.2097 53.3034 15.674 52.0982 15.2412C50.8706 14.8004 49.5859 14.4618 48.2797 14.2349C46.9394 14.002 45.5597 13.8839 44.1792 13.8839C40.1298 13.8839 36.219 14.891 32.8697 16.7963C31.2552 17.7148 29.8044 18.8233 28.5576 20.0913C27.3029 21.3672 26.2746 22.7847 25.5011 24.3043L25.4507 24.4035H25.3286H15.6128C13.7988 24.4035 12.0391 24.7207 10.3827 25.3463C9.58654 25.647 8.81864 26.0191 8.10033 26.4524C7.38879 26.8817 6.71969 27.3746 6.1116 27.9176C5.50351 28.4606 4.95144 29.058 4.47073 29.6934C3.98545 30.3348 3.56865 31.0205 3.23191 31.7314C2.5313 33.2104 2.17606 34.7817 2.17606 36.4014C2.17606 38.0212 2.5313 39.5925 3.23191 41.0715C3.56865 41.7824 3.98545 42.4681 4.47073 43.1095C4.95144 43.7448 5.50351 44.3423 6.1116 44.8853C6.71969 45.4283 7.38879 45.9212 8.10033 46.3504C8.81864 46.7838 9.58654 47.1559 10.3827 47.4566C12.0391 48.0822 13.7988 48.3994 15.6128 48.3994H41.6713C42.0357 48.3994 42.404 48.3862 42.7659 48.3602L42.7796 48.3592L42.7932 48.36C43.2517 48.3861 43.718 48.3994 44.1792 48.3994ZM44.1792 48.5686C43.7094 48.5686 43.2431 48.5552 42.7812 48.5288C42.4153 48.5551 42.0447 48.5686 41.6713 48.5686H15.6128C8.08727 48.5686 1.98657 43.1212 1.98657 36.4014C1.98657 29.6817 8.08727 24.2343 15.6128 24.2343H25.3286C28.4787 18.0453 35.733 13.7147 44.1792 13.7147C55.5155 13.7147 64.7054 21.5171 64.7054 31.1416C64.7054 40.7662 55.5155 48.5686 44.1792 48.5686Z" fill="white" fill-opacity="0.5"/>
</g>
</g>
<defs>
<filter id="filter0_f_19_1581" x="3.11335" y="4.2812" width="35.8314" height="32.2483" filterUnits="userSpaceOnUse" color-interpolation-filters="sRGB">
<feFlood flood-opacity="0" result="BackgroundImageFix"/>
<feBlend mode="normal" in="SourceGraphic" in2="BackgroundImageFix" result="shape"/>
<feGaussianBlur stdDeviation="0.160122" result="effect1_foregroundBlur_19_1581"/>
</filter>
<filter id="filter1_f_19_1581" x="3.54404" y="5.03025" width="20.0179" height="17.6576" filterUnits="userSpaceOnUse" color-interpolation-filters="sRGB">
<feFlood flood-opacity="0" result="BackgroundImageFix"/>
<feBlend mode="normal" in="SourceGraphic" in2="BackgroundImageFix" result="shape"/>
<feGaussianBlur stdDeviation="0.800612" result="effect1_foregroundBlur_19_1581"/>
</filter>
<filter id="filter2_f_19_1581" x="0.622104" y="0.357456" width="40.1796" height="33.4822" filterUnits="userSpaceOnUse" color-interpolation-filters="sRGB">
<feFlood flood-opacity="0" result="BackgroundImageFix"/>
<feBlend mode="normal" in="SourceGraphic" in2="BackgroundImageFix" result="shape"/>
<feGaussianBlur stdDeviation="0.0800612" result="effect1_foregroundBlur_19_1581"/>
</filter>
<filter id="filter3_f_19_1581" x="36.8814" y="30.6431" width="3.92034" height="3.19659" filterUnits="userSpaceOnUse" color-interpolation-filters="sRGB">
<feFlood flood-opacity="0" result="BackgroundImageFix"/>
<feBlend mode="normal" in="SourceGraphic" in2="BackgroundImageFix" result="shape"/>
<feGaussianBlur stdDeviation="0.0800612" result="effect1_foregroundBlur_19_1581"/>
</filter>
<filter id="filter4_df_19_1581" x="0.334812" y="11.473" width="67.5732" height="39.6577" filterUnits="userSpaceOnUse" color-interpolation-filters="sRGB">
<feFlood flood-opacity="0" result="BackgroundImageFix"/>
<feColorMatrix in="SourceAlpha" type="matrix" values="0 0 0 0 0 0 0 0 0 0 0 0 0 0 0 0 0 0 127 0" result="hardAlpha"/>
<feOffset dx="0.800612" dy="0.160122"/>
<feGaussianBlur stdDeviation="1.20092"/>
<feColorMatrix type="matrix" values="0 0 0 0 0.258824 0 0 0 0 0.627451 0 0 0 0 0.941176 0 0 0 0.596 0"/>
<feBlend mode="normal" in2="BackgroundImageFix" result="effect1_dropShadow_19_1581"/>
<feBlend mode="normal" in="SourceGraphic" in2="effect1_dropShadow_19_1581" result="shape"/>
<feGaussianBlur stdDeviation="0.160122" result="effect2_foregroundBlur_19_1581"/>
</filter>
<filter id="filter5_d_19_1581" x="0.334812" y="11.473" width="67.5732" height="39.6577" filterUnits="userSpaceOnUse" color-interpolation-filters="sRGB">
<feFlood flood-opacity="0" result="BackgroundImageFix"/>
<feColorMatrix in="SourceAlpha" type="matrix" values="0 0 0 0 0 0 0 0 0 0 0 0 0 0 0 0 0 0 127 0" result="hardAlpha"/>
<feOffset dx="0.800612" dy="0.160122"/>
<feGaussianBlur stdDeviation="1.20092"/>
<feColorMatrix type="matrix" values="0 0 0 0 0.501961 0 0 0 0 0.501961 0 0 0 0 0.501961 0 0 0 0.302 0"/>
<feBlend mode="normal" in2="BackgroundImageFix" result="effect1_dropShadow_19_1581"/>
<feBlend mode="normal" in="SourceGraphic" in2="effect1_dropShadow_19_1581" result="shape"/>
</filter>
<linearGradient id="paint0_linear_19_1581" x1="12.5035" y1="0.517578" x2="12.5035" y2="4.07064" gradientUnits="userSpaceOnUse">
<stop stop-color="#6B38FC"/>
<stop offset="1" stop-color="#9F7EFD"/>
</linearGradient>
<linearGradient id="paint1_linear_19_1581" x1="38.8416" y1="30.8032" x2="38.8416" y2="33.6795" gradientUnits="userSpaceOnUse">
<stop stop-color="#6B38FC"/>
<stop offset="1" stop-color="#9F7EFD"/>
</linearGradient>
<linearGradient id="paint2_linear_19_1581" x1="30.9793" y1="4.55556" x2="31.6934" y2="7.53804" gradientUnits="userSpaceOnUse">
<stop stop-color="#6B38FC"/>
<stop offset="1" stop-color="#9F7EFD"/>
</linearGradient>
<linearGradient id="paint3_linear_19_1581" x1="1.84733" y1="28.4453" x2="2.82266" y2="31.0181" gradientUnits="userSpaceOnUse">
<stop stop-color="#6B38FC"/>
<stop offset="1" stop-color="#9F7EFD"/>
</linearGradient>
<linearGradient id="paint4_linear_19_1581" x1="30.2098" y1="15.1486" x2="27.8401" y2="14.5359" gradientUnits="userSpaceOnUse">
<stop stop-color="#6B38FC"/>
<stop offset="1" stop-color="#9F7EFD"/>
</linearGradient>
<linearGradient id="paint5_linear_19_1581" x1="27.3577" y1="18.1063" x2="37.5555" y2="51.1724" gradientUnits="userSpaceOnUse">
<stop stop-color="white" stop-opacity="0.596"/>
<stop offset="1" stop-color="#F7F7F7" stop-opacity="0.204"/>
</linearGradient>
</defs>
</svg>
