<svg width="70" height="47" viewBox="0 0 70 47" fill="none" xmlns="http://www.w3.org/2000/svg">
<g filter="url(#filter0_f_19_1571)">
<path fill-rule="evenodd" clip-rule="evenodd" d="M43.8038 29.6908C42.8458 29.1625 41.6657 28.6898 40.5804 28.7057C39.5155 28.7212 38.7454 29.1605 37.8015 29.7027C36.8755 30.2346 35.794 30.8558 34.2725 30.8714L34.2554 30.8716L34.2383 30.8709C32.5631 30.8039 31.6231 30.1786 30.8184 29.6393C30.054 29.127 29.4468 28.72 28.3071 28.7059C27.2284 28.7591 26.5961 29.1666 25.8158 29.6694L25.7835 29.6902C24.9627 30.2191 24.0089 30.817 22.4093 30.871C21.0905 30.9143 19.672 30.2921 18.6564 29.7326C18.1332 29.4443 17.685 29.1545 17.3676 28.9369C17.2085 28.8279 17.0814 28.7363 16.9932 28.6714C16.949 28.6389 16.9145 28.6129 16.8906 28.5948L16.8626 28.5734L16.8547 28.5673L16.8523 28.5655L16.8512 28.5646C16.8511 28.5645 16.851 28.5644 17.2635 28.0671L16.8512 28.5646C16.5667 28.343 16.5213 27.9396 16.75 27.6639M17.679 27.5659C17.679 27.566 17.679 27.5659 17.679 27.5659L17.6842 27.57L17.7053 27.586C17.7245 27.6006 17.7539 27.6227 17.7928 27.6513C17.8704 27.7085 17.9854 27.7914 18.1309 27.8911C18.4227 28.0911 18.8335 28.3566 19.3097 28.619C20.2928 29.1607 21.4354 29.6212 22.3637 29.5908C23.5794 29.5497 24.2748 29.1241 25.0517 28.6235C25.0764 28.6076 25.1012 28.5916 25.1261 28.5755C25.9067 28.0717 26.8054 27.4917 28.2636 27.4255L28.282 27.4246L28.3004 27.4248C29.8588 27.4382 30.7516 28.0369 31.5378 28.564L31.5702 28.5857C32.3248 29.0915 33.0019 29.5356 34.2755 29.5903C35.3977 29.5744 36.201 29.1329 37.1276 28.6007C37.152 28.5867 37.1766 28.5725 37.2013 28.5583C38.0978 28.0428 39.1361 27.4456 40.5605 27.4248C42.0036 27.4038 43.4356 28.0139 44.4575 28.5775C44.9786 28.8649 45.4154 29.1528 45.7225 29.3692C45.8763 29.4776 45.9984 29.5686 46.0832 29.6334C46.1256 29.6658 46.1587 29.6918 46.1818 29.7101L46.2089 29.7317L46.2167 29.738L46.2191 29.7399L46.2199 29.7406C46.2201 29.7407 46.2205 29.7411 45.7945 30.2308L46.2199 29.7406C46.499 29.9686 46.5351 30.3732 46.2998 30.6436C46.0647 30.9139 45.648 30.9484 45.3689 30.7207C45.3689 30.7207 45.3689 30.7208 45.3689 30.7207L45.3645 30.7172L45.3455 30.702C45.3279 30.6881 45.3006 30.6667 45.2643 30.639C45.1918 30.5835 45.0836 30.5028 44.9452 30.4053C44.6678 30.2098 44.2727 29.9495 43.8038 29.6908" fill="white"/>
<path fill-rule="evenodd" clip-rule="evenodd" d="M54.1668 37.3045C53.2088 36.7761 52.0288 36.3035 50.9434 36.3193C49.8786 36.3349 49.1084 36.7742 48.1646 37.3163C47.2385 37.8483 46.157 38.4694 44.6356 38.485L44.6184 38.4852L44.6013 38.4845C42.9261 38.4175 41.9861 37.7923 41.1814 37.2529C40.417 36.7406 39.8098 36.3337 38.6701 36.3196C37.5914 36.3728 36.9591 36.7802 36.1789 37.2831L36.1466 37.3039C35.3258 37.8327 34.3719 38.4307 32.7724 38.4847C31.4536 38.528 30.035 37.9057 29.0194 37.3462C28.4962 37.0579 28.048 36.7682 27.7306 36.5506C27.5716 36.4415 27.4445 36.35 27.3562 36.285C27.3121 36.2525 27.2776 36.2266 27.2536 36.2084L27.2256 36.187L27.2177 36.181L27.2153 36.1791L27.2142 36.1783C27.2141 36.1782 27.214 36.1781 27.6266 35.6808L27.2142 36.1783C26.9298 35.9566 26.8843 35.5533 27.113 35.2776M28.042 35.1796C28.042 35.1796 28.042 35.1796 28.042 35.1796L28.0472 35.1836L28.0683 35.1997C28.0875 35.2143 28.117 35.2364 28.1558 35.265C28.2335 35.3222 28.3485 35.405 28.494 35.5048C28.7857 35.7048 29.1965 35.9702 29.6727 36.2326C30.6559 36.7743 31.7985 37.2348 32.7267 37.2045C33.9424 37.1633 34.6378 36.7377 35.4148 36.2371C35.4395 36.2212 35.4642 36.2052 35.4891 36.1892C36.2697 35.6854 37.1684 35.1053 38.6267 35.0391L38.645 35.0383L38.6634 35.0384C40.2218 35.0519 41.1147 35.6505 41.9009 36.1776L41.9333 36.1994C42.6878 36.7051 43.3649 37.1492 44.6385 37.2039C45.7608 37.1881 46.5641 36.7466 47.4906 36.2144C47.5151 36.2003 47.5397 36.1862 47.5644 36.172C48.4608 35.6564 49.4992 35.0593 50.9235 35.0385C52.3666 35.0174 53.7986 35.6276 54.8206 36.1912C55.3416 36.4785 55.7784 36.7665 56.0855 36.9828C56.2394 37.0912 56.3615 37.1823 56.4462 37.2471C56.4886 37.2795 56.5217 37.3054 56.5448 37.3237L56.5719 37.3453L56.5797 37.3516L56.5821 37.3536L56.583 37.3542C56.5831 37.3544 56.5836 37.3547 56.1576 37.8444L56.583 37.3542C56.862 37.5823 56.8981 37.9868 56.6629 38.2573C56.4277 38.5276 56.011 38.5621 55.7319 38.3344C55.7319 38.3344 55.7319 38.3344 55.7319 38.3344L55.7276 38.3309L55.7085 38.3157C55.6909 38.3017 55.6636 38.2804 55.6274 38.2526C55.5548 38.1972 55.4466 38.1164 55.3082 38.0189C55.0309 37.8235 54.6357 37.5631 54.1668 37.3045" fill="white"/>
<path fill-rule="evenodd" clip-rule="evenodd" d="M37.7432 44.9183C36.7852 44.3899 35.6052 43.9173 34.5198 43.9331C33.455 43.9486 32.6848 44.3879 31.741 44.9301C30.815 45.462 29.7335 46.0832 28.212 46.0988L28.1948 46.099L28.1777 46.0983C26.5025 46.0313 25.5625 45.406 24.7578 44.8667C23.9935 44.3544 23.3862 43.9474 22.2466 43.9333C21.1678 43.9865 20.5355 44.394 19.7553 44.8968L19.723 44.9177C18.9022 45.4465 17.9484 46.0444 16.3488 46.0985C15.03 46.1418 13.6114 45.5195 12.5959 44.96C12.0726 44.6717 11.6245 44.3819 11.307 44.1643C11.148 44.0553 11.0209 43.9638 10.9326 43.8988C10.8885 43.8663 10.854 43.8404 10.83 43.8222L10.802 43.8008L10.7941 43.7947L10.7917 43.7929L10.7906 43.792C10.7905 43.7919 10.7904 43.7918 11.203 43.2945L10.7906 43.792C10.5062 43.5704 10.4608 43.167 10.6895 42.8914M11.6184 42.7934C11.6185 42.7934 11.6184 42.7933 11.6184 42.7934L11.6237 42.7974L11.6447 42.8134C11.6639 42.828 11.6934 42.8502 11.7322 42.8787C11.8099 42.936 11.9249 43.0188 12.0704 43.1186C12.3621 43.3185 12.7729 43.584 13.2491 43.8464C14.2323 44.3881 15.3749 44.8486 16.3031 44.8182C17.5188 44.7771 18.2142 44.3515 18.9912 43.8509C19.0159 43.835 19.0406 43.819 19.0655 43.8029C19.8461 43.2991 20.7448 42.7191 22.2031 42.6529L22.2215 42.6521L22.2399 42.6522C23.7983 42.6656 24.6911 43.2643 25.4773 43.7914L25.5097 43.8131C26.2642 44.3189 26.9413 44.763 28.215 44.8177C29.3372 44.8018 30.1405 44.3604 31.067 43.8282C31.0915 43.8141 31.1161 43.8 31.1408 43.7858C32.0373 43.2702 33.0756 42.673 34.4999 42.6523C35.9431 42.6312 37.3751 43.2413 38.397 43.8049C38.918 44.0923 39.3549 44.3802 39.6619 44.5966C39.8158 44.705 39.9379 44.796 40.0226 44.8608C40.065 44.8933 40.0981 44.9192 40.1212 44.9375L40.1484 44.9591L40.1561 44.9654L40.1585 44.9673L40.1594 44.968C40.1595 44.9681 40.16 44.9685 39.734 45.4582L40.1594 44.968C40.4384 45.196 40.4745 45.6006 40.2393 45.871C40.0041 46.1414 39.5874 46.1759 39.3083 45.9482C39.3083 45.9481 39.3084 45.9482 39.3083 45.9482L39.304 45.9447L39.2849 45.9295C39.2673 45.9155 39.2401 45.8941 39.2038 45.8664C39.1312 45.8109 39.023 45.7302 38.8846 45.6327C38.6073 45.4372 38.2121 45.1769 37.7432 44.9183" fill="white"/>
</g>
<g filter="url(#filter1_df_19_1571)">
<g filter="url(#filter2_d_19_1571)">
<path d="M44.1467 37.8141C43.7687 37.8404 43.3869 37.8536 43.0015 37.8539H16.1128C14.262 37.8598 12.428 37.5495 10.7161 36.9408C9.00414 36.332 7.44794 35.4367 6.13675 34.3063C4.82557 33.1759 3.78519 31.8326 3.07531 30.3534C2.36542 28.8743 2 27.2884 2 25.6867C2 24.0851 2.36542 22.4992 3.07531 21.0201C3.78519 19.5409 4.82557 18.1976 6.13675 17.0672C7.44794 15.9368 9.00414 15.0415 10.7161 14.4327C12.428 13.8239 14.262 13.5136 16.1128 13.5196H26.1383C29.3886 7.33135 36.8745 3 45.5894 3C57.2868 3 66.7695 10.8024 66.7695 20.4269C66.7695 30.0515 57.2868 37.8539 45.5894 37.8539C45.1045 37.8539 44.6236 37.8406 44.1467 37.8141Z" fill="url(#paint0_linear_19_1571)"/>
<path d="M45.5899 37.6848C47.0144 37.6848 48.438 37.5667 49.8211 37.3339C51.1688 37.107 52.4944 36.7684 53.7612 36.3275C55.0048 35.8947 56.2043 35.3591 57.3262 34.7354C58.4374 34.1177 59.4822 33.4084 60.4318 32.6271C61.3811 31.846 62.243 30.9865 62.9934 30.0726C63.7509 29.1501 64.4014 28.164 64.927 27.1416C65.4621 26.1005 65.8732 25.0111 66.1486 23.9035C66.4312 22.7671 66.5745 21.5974 66.5745 20.427C66.5745 19.2566 66.4312 18.0869 66.1486 16.9505C65.8732 15.843 65.4621 14.7535 64.927 13.7125C64.4014 12.6901 63.7509 11.704 62.9934 10.7815C62.243 9.86758 61.3811 9.00811 60.4318 8.22698C59.4822 7.44572 58.4374 6.7364 57.3262 6.11874C56.2043 5.49507 55.0048 4.9594 53.7612 4.5266C52.4944 4.08576 51.1688 3.74718 49.8211 3.52026C48.438 3.28739 47.0144 3.16932 45.5899 3.16932C41.4114 3.16932 37.3761 4.17641 33.92 6.08173C32.2541 7.00015 30.7571 8.10873 29.4706 9.37666C28.1759 10.6526 27.1148 12.0701 26.3167 13.5897L26.2646 13.6889H26.1387H16.1133C14.2415 13.6889 12.4258 14.0061 10.7166 14.6317C9.89508 14.9324 9.10272 15.3045 8.36152 15.7378C7.62731 16.1671 6.93689 16.66 6.30943 17.203C5.68196 17.746 5.11231 18.3434 4.61628 18.9788C4.11554 19.6202 3.68546 20.3059 3.33799 21.0168C2.61506 22.4958 2.2485 24.0671 2.2485 25.6868C2.2485 27.3066 2.61506 28.8779 3.33799 30.3569C3.68546 31.0678 4.11554 31.7535 4.61628 32.3949C5.11231 33.0302 5.68196 33.6277 6.30943 34.1707C6.93689 34.7137 7.62731 35.2066 8.36152 35.6358C9.10272 36.0692 9.89508 36.4413 10.7166 36.742C12.4258 37.3676 14.2415 37.6848 16.1133 37.6848H43.0021C43.3781 37.6848 43.7581 37.6716 44.1316 37.6456L44.1457 37.6446L44.1598 37.6454C44.6328 37.6715 45.1139 37.6848 45.5899 37.6848ZM45.5899 37.854C45.1051 37.854 44.6239 37.8406 44.1473 37.8142C43.7698 37.8405 43.3874 37.854 43.0021 37.854H16.1133C8.34805 37.854 2.05298 32.4066 2.05298 25.6868C2.05298 18.9671 8.34805 13.5197 16.1133 13.5197H26.1387C29.3892 7.3307 36.8746 3.00012 45.5899 3.00012C57.2873 3.00012 66.77 10.8025 66.77 20.427C66.77 30.0516 57.2873 37.854 45.5899 37.854Z" fill="white" fill-opacity="0.5"/>
</g>
</g>
<defs>
<filter id="filter0_f_19_1571" x="10.2235" y="27.1041" width="46.9149" height="19.3168" filterUnits="userSpaceOnUse" color-interpolation-filters="sRGB">
<feFlood flood-opacity="0" result="BackgroundImageFix"/>
<feBlend mode="normal" in="SourceGraphic" in2="BackgroundImageFix" result="shape"/>
<feGaussianBlur stdDeviation="0.160122" result="effect1_foregroundBlur_19_1571"/>
</filter>
<filter id="filter1_df_19_1571" x="0.398777" y="0.758287" width="69.5737" height="39.6577" filterUnits="userSpaceOnUse" color-interpolation-filters="sRGB">
<feFlood flood-opacity="0" result="BackgroundImageFix"/>
<feColorMatrix in="SourceAlpha" type="matrix" values="0 0 0 0 0 0 0 0 0 0 0 0 0 0 0 0 0 0 127 0" result="hardAlpha"/>
<feOffset dx="0.800612" dy="0.160122"/>
<feGaussianBlur stdDeviation="1.20092"/>
<feColorMatrix type="matrix" values="0 0 0 0 0.258824 0 0 0 0 0.627451 0 0 0 0 0.941176 0 0 0 0.596 0"/>
<feBlend mode="normal" in2="BackgroundImageFix" result="effect1_dropShadow_19_1571"/>
<feBlend mode="normal" in="SourceGraphic" in2="effect1_dropShadow_19_1571" result="shape"/>
<feGaussianBlur stdDeviation="0.160122" result="effect2_foregroundBlur_19_1571"/>
</filter>
<filter id="filter2_d_19_1571" x="0.398777" y="0.758287" width="69.5737" height="39.6577" filterUnits="userSpaceOnUse" color-interpolation-filters="sRGB">
<feFlood flood-opacity="0" result="BackgroundImageFix"/>
<feColorMatrix in="SourceAlpha" type="matrix" values="0 0 0 0 0 0 0 0 0 0 0 0 0 0 0 0 0 0 127 0" result="hardAlpha"/>
<feOffset dx="0.800612" dy="0.160122"/>
<feGaussianBlur stdDeviation="1.20092"/>
<feColorMatrix type="matrix" values="0 0 0 0 0.501961 0 0 0 0 0.501961 0 0 0 0 0.501961 0 0 0 0.302 0"/>
<feBlend mode="normal" in2="BackgroundImageFix" result="effect1_dropShadow_19_1571"/>
<feBlend mode="normal" in="SourceGraphic" in2="effect1_dropShadow_19_1571" result="shape"/>
</filter>
<linearGradient id="paint0_linear_19_1571" x1="28.2316" y1="7.3916" x2="38.167" y2="40.6332" gradientUnits="userSpaceOnUse">
<stop stop-color="white" stop-opacity="0.596"/>
<stop offset="1" stop-color="#F7F7F7" stop-opacity="0.204"/>
</linearGradient>
</defs>
</svg>
