<svg width="72" height="52" viewBox="0 0 72 52" fill="none" xmlns="http://www.w3.org/2000/svg">
<g filter="url(#filter0_f_19_160)">
<path fill-rule="evenodd" clip-rule="evenodd" d="M36.4196 27.1115C37.4012 26.7443 38.5614 26.6913 39.8975 27.1354C42.5853 28.0288 43.9615 30.3105 43.9624 32.5609C43.9634 34.818 42.5773 37.0299 39.8562 37.7352C37.3498 38.3847 33.337 38.5646 30.0111 38.5897C28.3355 38.6023 26.8127 38.5755 25.709 38.5456C25.157 38.5307 24.7094 38.5149 24.3994 38.5029C24.2443 38.4969 24.1237 38.4918 24.0416 38.4882L23.9479 38.484L23.9157 38.4825C23.9156 38.4825 23.915 38.4824 23.9459 37.8427L23.9768 37.203L24.0068 37.2044L24.0977 37.2084C24.1777 37.2119 24.2963 37.2169 24.449 37.2229C24.7546 37.2347 25.1972 37.2503 25.7437 37.2651C26.837 37.2947 28.3444 37.3212 30.0014 37.3087C33.3406 37.2835 37.2026 37.0996 39.5348 36.4951C41.6524 35.9463 42.6822 34.2752 42.6814 32.5614C42.6807 30.8408 41.6375 29.0636 39.4935 28.351C38.4137 27.9921 37.5555 28.0542 36.8684 28.3113C36.1697 28.5727 35.5968 29.0554 35.136 29.6146C34.6752 30.1736 34.3453 30.7865 34.1297 31.2666C34.0226 31.505 33.9455 31.7066 33.8958 31.8466C33.871 31.9165 33.8531 31.9708 33.8417 32.0063C33.8361 32.024 33.8321 32.037 33.8297 32.0449L33.8273 32.0529M33.8273 32.0529C33.7293 32.3926 33.3744 32.589 33.0346 32.4912C32.6947 32.3934 32.4984 32.0385 32.5963 31.6986L33.2118 31.8757C32.5963 31.6986 32.5962 31.6989 32.5963 31.6986L32.5972 31.6954L32.5987 31.6902L32.6037 31.6737C32.6078 31.66 32.6137 31.641 32.6213 31.6171C32.6366 31.5693 32.6589 31.5018 32.6886 31.418C32.7481 31.2504 32.8379 31.0162 32.9611 30.7418C33.2062 30.1961 33.5913 29.4747 34.1475 28.7999C34.7036 28.1251 35.4497 27.4744 36.4196 27.1115M23.3062 37.8118C23.3232 37.4585 23.6235 37.1859 23.9768 37.203L23.9459 37.8427L23.9157 38.4825C23.5624 38.4654 23.2891 38.1651 23.3062 37.8118Z" fill="#D0D0D0"/>
<path fill-rule="evenodd" clip-rule="evenodd" d="M9.77686 46.0228C9.77677 46.0228 9.77674 46.0228 9.72524 45.3844C9.67373 44.7459 9.67383 44.7459 9.67399 44.7459L9.72218 44.7421L9.86211 44.7312C9.98484 44.7218 10.1654 44.7082 10.3977 44.6913C10.8621 44.6576 11.5331 44.6109 12.3608 44.5591C14.0157 44.4554 16.2982 44.331 18.8081 44.2481C23.8052 44.0829 29.7789 44.0787 33.4713 44.7543C35.3254 45.0936 36.6432 45.6031 37.5 46.2275C38.3683 46.8602 38.8166 47.6603 38.7411 48.5179C38.6686 49.3411 38.1274 50.0247 37.4474 50.4909C36.7577 50.9638 35.8553 51.2675 34.8898 51.3164C33.05 51.4095 31.3064 50.9176 30.0432 50.4191C29.4074 50.1683 28.8832 49.9117 28.5163 49.717C28.3326 49.6195 28.1878 49.5372 28.0875 49.4783C28.0373 49.4489 27.9983 49.4254 27.971 49.4087L27.9391 49.389L27.9299 49.3832L27.927 49.3814L27.926 49.3808C27.9259 49.3807 27.9253 49.3803 28.2312 48.8992L27.926 49.3808C27.6275 49.191 27.5387 48.7947 27.7285 48.4962C27.9182 48.1978 28.3137 48.1096 28.6122 48.299L28.6172 48.3022L28.6396 48.316C28.6603 48.3287 28.6926 48.3482 28.7355 48.3734C28.8216 48.4238 28.9505 48.4972 29.1168 48.5855C29.4499 48.7623 29.9302 48.9975 30.5133 49.2275C31.6876 49.6909 33.2383 50.1174 34.8251 50.0371C35.5729 49.9992 36.2433 49.7634 36.723 49.4345C37.2125 49.0989 37.4375 48.7183 37.4651 48.4055C37.4896 48.127 37.372 47.7192 36.7455 47.2627C36.1076 46.7978 35.0017 46.3366 33.2407 46.0144C29.7028 45.367 23.8611 45.3627 18.8504 45.5283C16.3564 45.6108 14.0869 45.7345 12.4408 45.8375C11.6179 45.8891 10.9512 45.9354 10.4905 45.9689C10.2601 45.9856 10.0813 45.9991 9.96027 46.0084L9.82283 46.0191L9.77686 46.0228ZM9.08682 45.4359C9.05838 45.0833 9.32141 44.7744 9.67399 44.7459L9.72524 45.3844L9.77686 46.0228C9.42427 46.0512 9.11527 45.7885 9.08682 45.4359Z" fill="#D0D0D0"/>
</g>
<g filter="url(#filter1_f_19_160)">
<path d="M17.7095 28.6586C25.4011 28.6586 31.6364 23.0909 31.6364 16.2228C31.6364 9.35477 25.4011 3.78711 17.7095 3.78711C10.0178 3.78711 3.78247 9.35477 3.78247 16.2228C3.78247 23.0909 10.0178 28.6586 17.7095 28.6586Z" fill="#FA9E42"/>
</g>
<g filter="url(#filter2_f_19_160)">
<path fill-rule="evenodd" clip-rule="evenodd" d="M17.6705 0.510536L17.7096 0.510498L17.7487 0.510536C17.9698 0.510968 18.1487 0.69054 18.1482 0.911623C18.1478 1.1327 17.9682 1.31158 17.7471 1.31115L17.7096 1.31111L17.6721 1.31115C17.451 1.31158 17.2715 1.13271 17.271 0.911623C17.2706 0.69054 17.4495 0.510968 17.6705 0.510536ZM22.3306 1.46874C22.3887 1.25542 22.6087 1.12955 22.822 1.18762L22.8967 1.20813C23.1098 1.26707 23.2348 1.48758 23.1759 1.70067C23.1169 1.91375 22.8964 2.03871 22.6833 1.97977L22.6117 1.96013C22.3984 1.90206 22.2725 1.68206 22.3306 1.46874ZM13.0887 1.46874C13.1467 1.68206 13.0209 1.90206 12.8075 1.96013L12.7359 1.97977C12.5229 2.03871 12.3023 1.91375 12.2434 1.70067C12.1845 1.48758 12.3094 1.26707 12.5225 1.20813L12.5973 1.18762C12.8106 1.12956 13.0306 1.25542 13.0887 1.46874ZM8.37067 3.37328C8.48605 3.56187 8.42669 3.80828 8.2381 3.92365L8.17458 3.96271C7.98649 4.07891 7.73982 4.02064 7.62362 3.83255C7.50742 3.64447 7.56569 3.3978 7.75378 3.2816L7.8203 3.24071C8.00889 3.12533 8.2553 3.18468 8.37067 3.37328ZM27.0486 3.37328C27.164 3.18468 27.4104 3.12533 27.599 3.24071L27.6655 3.2816C27.8536 3.3978 27.9118 3.64447 27.7956 3.83255C27.6794 4.02064 27.4328 4.07891 27.2447 3.96271L27.1812 3.92365C26.9926 3.80828 26.9332 3.56187 27.0486 3.37328ZM4.40386 6.55537C4.57091 6.7002 4.58893 6.95301 4.4441 7.12006L4.39565 7.17622C4.25164 7.34396 3.99891 7.3632 3.83117 7.21919C3.66343 7.07518 3.64419 6.82245 3.7882 6.65471L3.83918 6.59561C3.984 6.42857 4.23682 6.41055 4.40386 6.55537ZM31.0154 6.55537C31.1824 6.41055 31.4353 6.42857 31.5801 6.59561L31.6311 6.65471C31.7751 6.82245 31.7558 7.07518 31.5881 7.21919C31.4203 7.3632 31.1676 7.34396 31.0236 7.17622L30.9752 7.12006C30.8303 6.95301 30.8483 6.7002 31.0154 6.55537ZM1.65105 10.8253C1.85711 10.9054 1.95919 11.1374 1.87907 11.3435L1.85243 11.4125C1.77342 11.619 1.54198 11.7223 1.3355 11.6433C1.12902 11.5643 1.02568 11.3329 1.1047 11.1264L1.13288 11.0533C1.21301 10.8473 1.445 10.7452 1.65105 10.8253ZM33.7682 10.8253C33.9743 10.7452 34.2062 10.8473 34.2864 11.0533L34.3146 11.1264C34.3936 11.3329 34.2902 11.5643 34.0838 11.6433C33.8773 11.7223 33.6458 11.619 33.5668 11.4125L33.5402 11.3435C33.4601 11.1374 33.5622 10.9054 33.7682 10.8253ZM0.562588 15.7842C0.78367 15.7848 0.962402 15.9645 0.961796 16.1856L0.961745 16.2228L0.961796 16.26C0.962402 16.4811 0.783671 16.6608 0.562589 16.6614C0.341507 16.662 0.161793 16.4833 0.161187 16.2622L0.161133 16.2228L0.161187 16.1834C0.161793 15.9624 0.341506 15.7836 0.562588 15.7842ZM34.8567 15.7842C35.0778 15.7836 35.2575 15.9624 35.2581 16.1834L35.2581 16.2228L35.2581 16.2622C35.2575 16.4833 35.0778 16.662 34.8567 16.6614C34.6356 16.6608 34.4569 16.4811 34.4575 16.26L34.4575 16.2228L34.4575 16.1856C34.4569 15.9645 34.6356 15.7848 34.8567 15.7842ZM1.3355 20.8023C1.54198 20.7233 1.77342 20.8266 1.85243 21.0331L1.87907 21.1022C1.95919 21.3082 1.85711 21.5402 1.65105 21.6203C1.445 21.7004 1.21301 21.5984 1.13288 21.3923L1.1047 21.3192C1.02568 21.1128 1.12902 20.8813 1.3355 20.8023ZM34.0838 20.8023C34.2902 20.8813 34.3936 21.1128 34.3146 21.3192L34.2864 21.3923C34.2062 21.5984 33.9743 21.7004 33.7682 21.6203C33.5622 21.5402 33.4601 21.3082 33.5402 21.1022L33.5668 21.0331C33.6458 20.8266 33.8773 20.7233 34.0838 20.8023ZM3.83117 25.2265C3.99891 25.0824 4.25164 25.1017 4.39565 25.2694L4.4441 25.3256C4.58893 25.4926 4.57091 25.7454 4.40386 25.8903C4.23682 26.0351 3.984 26.0171 3.83918 25.85L3.7882 25.7909C3.64419 25.6232 3.66343 25.3705 3.83117 25.2265ZM31.5881 25.2265C31.7558 25.3705 31.7751 25.6232 31.6311 25.7909L31.5801 25.85C31.4353 26.0171 31.1824 26.0351 31.0154 25.8903C30.8483 25.7454 30.8303 25.4926 30.9752 25.3256L31.0236 25.2694C31.1676 25.1017 31.4203 25.0824 31.5881 25.2265ZM7.62362 28.6131C7.73982 28.425 7.98649 28.3667 8.17458 28.4829L8.2381 28.522C8.42669 28.6374 8.48605 28.8838 8.37067 29.0724C8.2553 29.261 8.00889 29.3203 7.8203 29.2049L7.75378 29.164C7.56569 29.0478 7.50742 28.8012 7.62362 28.6131ZM27.7956 28.6131C27.9118 28.8012 27.8536 29.0478 27.6655 29.164L27.599 29.2049C27.4104 29.3203 27.164 29.261 27.0486 29.0724C26.9332 28.8838 26.9926 28.6374 27.1812 28.522L27.2447 28.4829C27.4328 28.3667 27.6794 28.425 27.7956 28.6131ZM12.2434 30.745C12.3023 30.5319 12.5229 30.4069 12.7359 30.4659L12.8075 30.4855C13.0209 30.5436 13.1467 30.7636 13.0887 30.9769C13.0306 31.1902 12.8106 31.3161 12.5973 31.258L12.5225 31.2375C12.3094 31.1786 12.1845 30.9581 12.2434 30.745ZM23.1759 30.745C23.2348 30.9581 23.1098 31.1786 22.8968 31.2375L22.822 31.258C22.6087 31.3161 22.3887 31.1902 22.3306 30.9769C22.2725 30.7636 22.3984 30.5436 22.6117 30.4855L22.6833 30.4659C22.8964 30.4069 23.1169 30.5319 23.1759 30.745ZM17.271 31.534C17.2715 31.3129 17.451 31.1341 17.6721 31.1345L17.7096 31.1345L17.7471 31.1345C17.9682 31.1341 18.1478 31.3129 18.1482 31.534C18.1487 31.7551 17.9698 31.9347 17.7487 31.9351L17.7096 31.9351L17.6706 31.9351C17.4495 31.9347 17.2706 31.7551 17.271 31.534Z" fill="#FA9E42"/>
</g>
<g filter="url(#filter3_f_19_160)">
<path d="M16.2145 13.7396C21.0922 11.4263 23.8515 7.54199 22.3774 5.06388C20.9033 2.58577 15.7542 2.45222 10.8764 4.7656C5.99864 7.07898 3.23941 10.9633 4.71348 13.4414C6.18755 15.9195 11.3367 16.053 16.2145 13.7396Z" fill="#F8E36F"/>
</g>
<g filter="url(#filter4_f_19_160)">
<path d="M60.3459 41.1995C60.6643 41.2027 63.8948 45.7064 63.8948 47.4564C63.8948 47.8725 63.803 48.2846 63.6247 48.6691C63.4463 49.0535 63.1849 49.4029 62.8554 49.6971C62.1899 50.2914 61.2872 50.6253 60.346 50.6253C59.4048 50.6253 58.5022 50.2915 57.8366 49.6973C57.1711 49.103 56.7971 48.297 56.7971 47.4566C56.7971 45.7064 60.0276 41.1964 60.3459 41.1995Z" fill="#42A0F0"/>
<path d="M57.6404 48.6413C57.9949 48.7381 58.4456 48.3398 58.647 47.7518C58.8483 47.1637 58.7241 46.6085 58.3695 46.5117C58.015 46.4149 57.5643 46.8132 57.363 47.4012C57.1616 47.9893 57.2858 48.5445 57.6404 48.6413Z" fill="white"/>
<path d="M49.7778 34.1226C50.1075 34.1258 53.4537 38.7903 53.4537 40.6027C53.4537 41.4732 53.0664 42.3081 52.3771 42.9236C51.6877 43.5392 50.7527 43.885 49.7778 43.885C48.8028 43.885 47.8678 43.5392 47.1785 42.9236C46.4891 42.3081 46.1018 41.4732 46.1018 40.6027C46.1018 38.7903 49.4475 34.1193 49.7778 34.1226Z" fill="#42A0F0"/>
<path d="M46.9749 41.8298C47.3421 41.93 47.8089 41.5176 48.0174 40.9086C48.2259 40.2996 48.0972 39.7247 47.73 39.6244C47.3627 39.5242 46.8959 39.9366 46.6874 40.5455C46.4789 41.1545 46.6076 41.7295 46.9749 41.8298Z" fill="white"/>
</g>
<g filter="url(#filter5_df_19_160)">
<g filter="url(#filter6_d_19_160)">
<path d="M46.8509 41.4774C46.4846 41.5037 46.1147 41.517 45.7411 41.5172H19.6827C17.889 41.5232 16.1116 41.2129 14.4526 40.6041C12.7935 39.9953 11.2853 39.1 10.0146 37.9696C8.74394 36.8392 7.73569 35.4959 7.04772 34.0167C6.35976 32.5376 6.00562 30.9517 6.00562 29.3501C6.00562 27.7484 6.35976 26.1626 7.04772 24.6834C7.73569 23.2043 8.74394 21.8609 10.0146 20.7305C11.2853 19.6001 12.7935 18.7048 14.4526 18.0961C16.1116 17.4873 17.889 17.177 19.6827 17.1829H29.3984C32.5484 10.9947 39.8033 6.66333 48.2491 6.66333C59.5853 6.66333 68.7752 14.4657 68.7752 24.0903C68.7752 33.7148 59.5853 41.5172 48.2491 41.5172C47.7792 41.5172 47.3131 41.504 46.8509 41.4774Z" fill="url(#paint0_linear_19_160)"/>
<path d="M48.2493 41.348C49.6298 41.348 51.0094 41.2299 52.3498 40.9971C53.6559 40.7702 54.9407 40.4316 56.1683 39.9907C57.3735 39.5579 58.5359 39.0223 59.6232 38.3986C60.7001 37.7809 61.7127 37.0716 62.6329 36.2903C63.553 35.5092 64.3882 34.6497 65.1154 33.7358C65.8495 32.8133 66.48 31.8272 66.9893 30.8048C67.5079 29.7637 67.9063 28.6743 68.1732 27.5667C68.4471 26.4303 68.586 25.2606 68.586 24.0902C68.586 22.9198 68.4471 21.7501 68.1732 20.6137C67.9063 19.5062 67.5079 18.4168 66.9893 17.3757C66.48 16.3533 65.8495 15.3672 65.1154 14.4447C64.3882 13.5308 63.553 12.6713 62.6329 11.8902C61.7127 11.1089 60.7001 10.3996 59.6232 9.78195C58.5359 9.15828 57.3735 8.62261 56.1683 8.18981C54.9407 7.74897 53.6559 7.41038 52.3498 7.18347C51.0094 6.9506 49.6298 6.83252 48.2493 6.83252C44.1998 6.83252 40.2891 7.83962 36.9397 9.74494C35.3252 10.6634 33.8744 11.7719 32.6276 13.0399C31.3729 14.3158 30.3445 15.7333 29.5711 17.2529L29.5206 17.3521H29.3986H19.6829C17.8688 17.3521 16.1092 17.6693 14.4527 18.2949C13.6566 18.5956 12.8887 18.9677 12.1704 19.4011C11.4589 19.8303 10.7898 20.3232 10.1817 20.8662C9.57358 21.4092 9.02151 22.0067 8.5408 22.642C8.05552 23.2834 7.63872 23.9691 7.30198 24.68C6.60136 26.159 6.24612 27.7303 6.24612 29.35C6.24612 30.9698 6.60136 32.5411 7.30198 34.0201C7.63872 34.731 8.05552 35.4167 8.5408 36.0581C9.02151 36.6935 9.57358 37.2909 10.1817 37.8339C10.7898 38.3769 11.4589 38.8698 12.1704 39.2991C12.8887 39.7324 13.6566 40.1045 14.4527 40.4052C16.1092 41.0308 17.8688 41.348 19.6829 41.348H45.7414C46.1057 41.348 46.474 41.3348 46.836 41.3088L46.8496 41.3078L46.8633 41.3086C47.3217 41.3348 47.788 41.348 48.2493 41.348ZM48.2493 41.5172C47.7794 41.5172 47.3132 41.5038 46.8512 41.4774C46.4854 41.5037 46.1148 41.5172 45.7414 41.5172H19.6829C12.1573 41.5172 6.05664 36.0698 6.05664 29.35C6.05664 22.6303 12.1573 17.1829 19.6829 17.1829H29.3986C32.5487 10.9939 39.8031 6.66333 48.2493 6.66333C59.5855 6.66333 68.7755 14.4657 68.7755 24.0902C68.7755 33.7148 59.5855 41.5172 48.2493 41.5172Z" fill="white" fill-opacity="0.5"/>
</g>
</g>
<defs>
<filter id="filter0_f_19_160" x="8.76447" y="26.4988" width="35.5182" height="25.1493" filterUnits="userSpaceOnUse" color-interpolation-filters="sRGB">
<feFlood flood-opacity="0" result="BackgroundImageFix"/>
<feBlend mode="normal" in="SourceGraphic" in2="BackgroundImageFix" result="shape"/>
<feGaussianBlur stdDeviation="0.160122" result="effect1_foregroundBlur_19_160"/>
</filter>
<filter id="filter1_f_19_160" x="3.46223" y="3.46686" width="28.4945" height="25.5118" filterUnits="userSpaceOnUse" color-interpolation-filters="sRGB">
<feFlood flood-opacity="0" result="BackgroundImageFix"/>
<feBlend mode="normal" in="SourceGraphic" in2="BackgroundImageFix" result="shape"/>
<feGaussianBlur stdDeviation="0.160122" result="effect1_foregroundBlur_19_160"/>
</filter>
<filter id="filter2_f_19_160" x="0.00101046" y="0.350376" width="35.4172" height="31.7448" filterUnits="userSpaceOnUse" color-interpolation-filters="sRGB">
<feFlood flood-opacity="0" result="BackgroundImageFix"/>
<feBlend mode="normal" in="SourceGraphic" in2="BackgroundImageFix" result="shape"/>
<feGaussianBlur stdDeviation="0.0800612" result="effect1_foregroundBlur_19_160"/>
</filter>
<filter id="filter3_f_19_160" x="2.71543" y="1.51303" width="21.6602" height="15.4791" filterUnits="userSpaceOnUse" color-interpolation-filters="sRGB">
<feFlood flood-opacity="0" result="BackgroundImageFix"/>
<feBlend mode="normal" in="SourceGraphic" in2="BackgroundImageFix" result="shape"/>
<feGaussianBlur stdDeviation="0.800612" result="effect1_foregroundBlur_19_160"/>
</filter>
<filter id="filter4_f_19_160" x="45.7816" y="33.8023" width="18.4335" height="17.1432" filterUnits="userSpaceOnUse" color-interpolation-filters="sRGB">
<feFlood flood-opacity="0" result="BackgroundImageFix"/>
<feBlend mode="normal" in="SourceGraphic" in2="BackgroundImageFix" result="shape"/>
<feGaussianBlur stdDeviation="0.160122" result="effect1_foregroundBlur_19_160"/>
</filter>
<filter id="filter5_df_19_160" x="4.40439" y="4.42162" width="67.5734" height="39.6577" filterUnits="userSpaceOnUse" color-interpolation-filters="sRGB">
<feFlood flood-opacity="0" result="BackgroundImageFix"/>
<feColorMatrix in="SourceAlpha" type="matrix" values="0 0 0 0 0 0 0 0 0 0 0 0 0 0 0 0 0 0 127 0" result="hardAlpha"/>
<feOffset dx="0.800612" dy="0.160122"/>
<feGaussianBlur stdDeviation="1.20092"/>
<feColorMatrix type="matrix" values="0 0 0 0 0.258824 0 0 0 0 0.627451 0 0 0 0 0.941176 0 0 0 0.596 0"/>
<feBlend mode="normal" in2="BackgroundImageFix" result="effect1_dropShadow_19_160"/>
<feBlend mode="normal" in="SourceGraphic" in2="effect1_dropShadow_19_160" result="shape"/>
<feGaussianBlur stdDeviation="0.160122" result="effect2_foregroundBlur_19_160"/>
</filter>
<filter id="filter6_d_19_160" x="4.40439" y="4.42162" width="67.5734" height="39.6577" filterUnits="userSpaceOnUse" color-interpolation-filters="sRGB">
<feFlood flood-opacity="0" result="BackgroundImageFix"/>
<feColorMatrix in="SourceAlpha" type="matrix" values="0 0 0 0 0 0 0 0 0 0 0 0 0 0 0 0 0 0 127 0" result="hardAlpha"/>
<feOffset dx="0.800612" dy="0.160122"/>
<feGaussianBlur stdDeviation="1.20092"/>
<feColorMatrix type="matrix" values="0 0 0 0 0.501961 0 0 0 0 0.501961 0 0 0 0 0.501961 0 0 0 0.302 0"/>
<feBlend mode="normal" in2="BackgroundImageFix" result="effect1_dropShadow_19_160"/>
<feBlend mode="normal" in="SourceGraphic" in2="effect1_dropShadow_19_160" result="shape"/>
</filter>
<linearGradient id="paint0_linear_19_160" x1="31.4273" y1="11.0549" x2="41.625" y2="44.121" gradientUnits="userSpaceOnUse">
<stop stop-color="white" stop-opacity="0.596"/>
<stop offset="1" stop-color="#F7F7F7" stop-opacity="0.204"/>
</linearGradient>
</defs>
</svg>
