<svg width="69" height="48" viewBox="0 0 69 48" fill="none" xmlns="http://www.w3.org/2000/svg">
<g filter="url(#filter0_f_19_182)">
<path fill-rule="evenodd" clip-rule="evenodd" d="M32.4958 22.7018C33.4774 22.3346 34.6376 22.2816 35.9737 22.7257C38.6615 23.6191 40.0376 25.9008 40.0386 28.1512C40.0396 30.4083 38.6535 32.6202 35.9324 33.3255C33.426 33.9751 29.4131 34.1549 26.0872 34.18C24.4117 34.1926 22.8889 34.1659 21.7852 34.136C21.2332 34.121 20.7855 34.1052 20.4755 34.0932C20.3205 34.0872 20.1999 34.0821 20.1178 34.0785L20.0241 34.0743L19.9919 34.0728C19.9918 34.0728 19.9912 34.0728 20.0221 33.433L20.053 32.7933L20.083 32.7947L20.1738 32.7988C20.2539 32.8023 20.3724 32.8073 20.5252 32.8132C20.8308 32.8251 21.2734 32.8406 21.8199 32.8554C22.9132 32.8851 24.4206 32.9116 26.0776 32.8991C29.4168 32.8739 33.2787 32.69 35.611 32.0855C37.7285 31.5367 38.7584 29.8656 38.7576 28.1517C38.7569 26.4312 37.7137 24.6539 35.5697 23.9413C34.4899 23.5824 33.6317 23.6445 32.9446 23.9016C32.2458 24.163 31.673 24.6458 31.2122 25.2049C30.7514 25.7639 30.4215 26.3768 30.2058 26.8569C30.0988 27.0954 30.0217 27.2969 29.9719 27.4369C29.9471 27.5069 29.9292 27.5611 29.9179 27.5966C29.9123 27.6143 29.9082 27.6274 29.9059 27.6353L29.9035 27.6432M29.9035 27.6432C29.8054 27.9829 29.4506 28.1794 29.1108 28.0816C28.7709 27.9837 28.5746 27.6288 28.6725 27.2889L29.288 27.4661C28.6725 27.2889 28.6724 27.2892 28.6725 27.2889L28.6734 27.2858L28.6749 27.2806L28.6799 27.264C28.684 27.2503 28.6899 27.2313 28.6975 27.2074C28.7127 27.1596 28.735 27.0922 28.7648 27.0083C28.8243 26.8408 28.914 26.6066 29.0373 26.3321C29.2824 25.7864 29.6674 25.065 30.2236 24.3902C30.7798 23.7154 31.5259 23.0647 32.4958 22.7018M19.3823 33.4022C19.3994 33.0488 19.6997 32.7762 20.053 32.7933L20.0221 33.433L19.9919 34.0728C19.6386 34.0558 19.3653 33.7555 19.3823 33.4022Z" fill="#D0D0D0"/>
<path fill-rule="evenodd" clip-rule="evenodd" d="M5.85327 41.6131C5.85318 41.6131 5.85316 41.6131 5.80165 40.9747C5.75015 40.3363 5.75025 40.3363 5.75041 40.3363L5.7986 40.3324L5.93852 40.3216C6.06126 40.3121 6.24186 40.2985 6.47409 40.2816C6.93853 40.2479 7.60955 40.2012 8.43717 40.1494C10.0921 40.0458 12.3746 39.9214 14.8845 39.8384C19.8816 39.6732 25.8553 39.669 29.5477 40.3447C31.4018 40.684 32.7196 41.1934 33.5764 41.8178C34.4447 42.4506 34.8931 43.2507 34.8175 44.1082C34.745 44.9314 34.2038 45.615 33.5238 46.0813C32.8342 46.5542 31.9317 46.8579 30.9663 46.9067C29.1264 46.9999 27.3829 46.5079 26.1196 46.0094C25.4839 45.7586 24.9596 45.502 24.5927 45.3073C24.409 45.2098 24.2642 45.1275 24.1639 45.0687C24.1138 45.0393 24.0747 45.0157 24.0474 44.999L24.0155 44.9793L24.0063 44.9735L24.0034 44.9717L24.0024 44.9711C24.0023 44.971 24.0017 44.9707 24.3077 44.4895L24.0024 44.9711C23.7039 44.7813 23.6151 44.385 23.8049 44.0865C23.9946 43.7881 24.3901 43.7 24.6886 43.8894L24.6936 43.8925L24.716 43.9064C24.7368 43.919 24.769 43.9385 24.812 43.9637C24.898 44.0142 25.027 44.0876 25.1933 44.1758C25.5263 44.3526 26.0067 44.5878 26.5897 44.8179C27.7641 45.2812 29.3148 45.7077 30.9015 45.6274C31.6494 45.5896 32.3197 45.3538 32.7994 45.0248C33.2889 44.6892 33.5139 44.3087 33.5415 43.9958C33.566 43.7173 33.4484 43.3096 32.822 42.8531C32.184 42.3882 31.0781 41.927 29.3171 41.6047C25.7792 40.9573 19.9375 40.9531 14.9268 41.1187C12.4328 41.2011 10.1633 41.3248 8.51724 41.4279C7.69433 41.4794 7.02758 41.5258 6.56688 41.5592C6.33653 41.576 6.15772 41.5895 6.03668 41.5988L5.89924 41.6094L5.85327 41.6131ZM5.16324 41.0262C5.13479 40.6736 5.39782 40.3647 5.75041 40.3363L5.80165 40.9747L5.85327 41.6131C5.50069 41.6415 5.19168 41.3788 5.16324 41.0262Z" fill="#D0D0D0"/>
</g>
<g filter="url(#filter1_f_19_182)">
<path d="M56.4233 36.7896C56.7417 36.7928 59.9722 41.2965 59.9722 43.0465C59.9722 43.4626 59.8804 43.8747 59.7021 44.2592C59.5237 44.6436 59.2623 44.993 58.9328 45.2872C58.2673 45.8815 57.3646 46.2154 56.4234 46.2154C55.4822 46.2154 54.5796 45.8816 53.914 45.2873C53.2485 44.6931 52.8745 43.8871 52.8745 43.0467C52.8745 41.2965 56.105 36.7865 56.4233 36.7896Z" fill="#42A0F0"/>
<path d="M53.7175 44.2314C54.0721 44.3282 54.5228 43.9299 54.7241 43.3418C54.9255 42.7538 54.8013 42.1986 54.4467 42.1018C54.0921 42.005 53.6415 42.4032 53.4401 42.9913C53.2388 43.5794 53.363 44.1346 53.7175 44.2314Z" fill="white"/>
<path d="M45.8547 29.7126C46.1844 29.7159 49.5306 34.3804 49.5306 36.1928C49.5306 37.0633 49.1434 37.8982 48.454 38.5137C47.7646 39.1293 46.8296 39.4751 45.8547 39.4751C44.8797 39.4751 43.9448 39.1293 43.2554 38.5137C42.566 37.8982 42.1787 37.0633 42.1787 36.1928C42.1787 34.3804 45.5244 29.7094 45.8547 29.7126Z" fill="#42A0F0"/>
<path d="M43.0523 37.4196C43.4195 37.5199 43.8863 37.1075 44.0948 36.4985C44.3033 35.8895 44.1746 35.3145 43.8074 35.2143C43.4401 35.114 42.9733 35.5264 42.7648 36.1354C42.5563 36.7444 42.685 37.3193 43.0523 37.4196Z" fill="white"/>
</g>
<g filter="url(#filter2_df_19_182)">
<g filter="url(#filter3_d_19_182)">
<path d="M42.9686 37.0675C42.6023 37.0938 42.2323 37.1071 41.8588 37.1073H15.8004C14.0067 37.1133 12.2293 36.803 10.5702 36.1942C8.91117 35.5854 7.40302 34.6901 6.13232 33.5597C4.86161 32.4293 3.85336 31.086 3.1654 29.6068C2.47743 28.1277 2.12329 26.5418 2.12329 24.9402C2.12329 23.3385 2.47743 21.7526 3.1654 20.2735C3.85336 18.7943 4.86161 17.451 6.13232 16.3206C7.40302 15.1902 8.91117 14.2949 10.5702 13.6861C12.2293 13.0774 14.0067 12.7671 15.8004 12.773H25.5161C28.6661 6.58477 35.921 2.25342 44.3668 2.25342C55.703 2.25342 64.8929 10.0558 64.8929 19.6804C64.8929 29.3049 55.703 37.1073 44.3668 37.1073C43.8969 37.1073 43.4308 37.094 42.9686 37.0675Z" fill="url(#paint0_linear_19_182)"/>
<path d="M44.3677 36.938C45.7482 36.938 47.1278 36.8199 48.4682 36.587C49.7743 36.3601 51.0591 36.0215 52.2867 35.5807C53.4919 35.1479 54.6543 34.6122 55.7416 33.9886C56.8185 33.3709 57.8311 32.6616 58.7513 31.8803C59.6714 31.0992 60.5066 30.2397 61.2339 29.3258C61.9679 28.4033 62.5984 27.4171 63.1077 26.3948C63.6264 25.3537 64.0247 24.2642 64.2916 23.1567C64.5655 22.0203 64.7044 20.8506 64.7044 19.6802C64.7044 18.5097 64.5655 17.3401 64.2916 16.2037C64.0247 15.0961 63.6264 14.0067 63.1077 12.9657C62.5984 11.9433 61.9679 10.9572 61.2339 10.0347C60.5066 9.12075 59.6714 8.26128 58.7513 7.48016C57.8311 6.69889 56.8185 5.98958 55.7416 5.37191C54.6543 4.74825 53.4919 4.21257 52.2867 3.77977C51.0591 3.33893 49.7743 3.00035 48.4682 2.77343C47.1278 2.54057 45.7482 2.42249 44.3677 2.42249C40.3183 2.42249 36.4075 3.42959 33.0581 5.3349C31.4436 6.25333 29.9928 7.36191 28.746 8.62983C27.4913 9.90577 26.4629 11.3232 25.6895 12.8429L25.639 12.942H25.517H15.8013C13.9872 12.942 12.2276 13.2593 10.5711 13.8848C9.77501 14.1855 9.00712 14.5577 8.2888 14.991C7.57727 15.4203 6.90816 15.9132 6.30007 16.4562C5.69198 16.9992 5.13992 17.5966 4.65921 18.232C4.17393 18.8734 3.75713 19.559 3.42038 20.2699C2.71977 21.749 2.36453 23.3202 2.36453 24.94C2.36453 26.5598 2.71977 28.131 3.42038 29.6101C3.75713 30.321 4.17393 31.0067 4.65921 31.6481C5.13992 32.2834 5.69198 32.8809 6.30007 33.4239C6.90816 33.9668 7.57727 34.4598 8.2888 34.889C9.00712 35.3223 9.77501 35.6945 10.5711 35.9952C12.2276 36.6208 13.9872 36.938 15.8013 36.938H41.8598C42.2241 36.938 42.5924 36.9248 42.9544 36.8987L42.9681 36.8978L42.9817 36.8985C43.4402 36.9247 43.9064 36.938 44.3677 36.938ZM44.3677 37.1072C43.8979 37.1072 43.4316 37.0938 42.9696 37.0674C42.6038 37.0937 42.2332 37.1072 41.8598 37.1072H15.8013C8.27575 37.1072 2.17505 31.6597 2.17505 24.94C2.17505 18.2203 8.27575 12.7729 15.8013 12.7729H25.517C28.6671 6.58388 35.9215 2.2533 44.3677 2.2533C55.7039 2.2533 64.8939 10.0557 64.8939 19.6802C64.8939 29.3048 55.7039 37.1072 44.3677 37.1072Z" fill="white" fill-opacity="0.5"/>
</g>
</g>
<defs>
<filter id="filter0_f_19_182" x="4.84089" y="22.0892" width="35.5179" height="25.1493" filterUnits="userSpaceOnUse" color-interpolation-filters="sRGB">
<feFlood flood-opacity="0" result="BackgroundImageFix"/>
<feBlend mode="normal" in="SourceGraphic" in2="BackgroundImageFix" result="shape"/>
<feGaussianBlur stdDeviation="0.160122" result="effect1_foregroundBlur_19_182"/>
</filter>
<filter id="filter1_f_19_182" x="41.8585" y="29.3924" width="18.4339" height="17.1432" filterUnits="userSpaceOnUse" color-interpolation-filters="sRGB">
<feFlood flood-opacity="0" result="BackgroundImageFix"/>
<feBlend mode="normal" in="SourceGraphic" in2="BackgroundImageFix" result="shape"/>
<feGaussianBlur stdDeviation="0.160122" result="effect1_foregroundBlur_19_182"/>
</filter>
<filter id="filter2_df_19_182" x="0.522068" y="0.0115833" width="67.5742" height="39.6578" filterUnits="userSpaceOnUse" color-interpolation-filters="sRGB">
<feFlood flood-opacity="0" result="BackgroundImageFix"/>
<feColorMatrix in="SourceAlpha" type="matrix" values="0 0 0 0 0 0 0 0 0 0 0 0 0 0 0 0 0 0 127 0" result="hardAlpha"/>
<feOffset dx="0.800612" dy="0.160122"/>
<feGaussianBlur stdDeviation="1.20092"/>
<feColorMatrix type="matrix" values="0 0 0 0 0.258824 0 0 0 0 0.627451 0 0 0 0 0.941176 0 0 0 0.596 0"/>
<feBlend mode="normal" in2="BackgroundImageFix" result="effect1_dropShadow_19_182"/>
<feBlend mode="normal" in="SourceGraphic" in2="effect1_dropShadow_19_182" result="shape"/>
<feGaussianBlur stdDeviation="0.160122" result="effect2_foregroundBlur_19_182"/>
</filter>
<filter id="filter3_d_19_182" x="0.522068" y="0.0115833" width="67.5742" height="39.6578" filterUnits="userSpaceOnUse" color-interpolation-filters="sRGB">
<feFlood flood-opacity="0" result="BackgroundImageFix"/>
<feColorMatrix in="SourceAlpha" type="matrix" values="0 0 0 0 0 0 0 0 0 0 0 0 0 0 0 0 0 0 127 0" result="hardAlpha"/>
<feOffset dx="0.800612" dy="0.160122"/>
<feGaussianBlur stdDeviation="1.20092"/>
<feColorMatrix type="matrix" values="0 0 0 0 0.501961 0 0 0 0 0.501961 0 0 0 0 0.501961 0 0 0 0.302 0"/>
<feBlend mode="normal" in2="BackgroundImageFix" result="effect1_dropShadow_19_182"/>
<feBlend mode="normal" in="SourceGraphic" in2="effect1_dropShadow_19_182" result="shape"/>
</filter>
<linearGradient id="paint0_linear_19_182" x1="27.545" y1="6.64502" x2="37.7427" y2="39.7111" gradientUnits="userSpaceOnUse">
<stop stop-color="white" stop-opacity="0.596"/>
<stop offset="1" stop-color="#F7F7F7" stop-opacity="0.204"/>
</linearGradient>
</defs>
</svg>
