<svg width="74" height="59" viewBox="0 0 74 59" fill="none" xmlns="http://www.w3.org/2000/svg">
<g filter="url(#filter0_f_19_543)">
<path fill-rule="evenodd" clip-rule="evenodd" d="M29.8247 25.1844C29.8468 25.1844 29.8647 25.2024 29.8647 25.2245V26.7215C29.8647 26.7436 29.8468 26.7615 29.8247 26.7615C29.8026 26.7615 29.7847 26.7436 29.7847 26.7215V25.2245C29.7847 25.2024 29.8026 25.1844 29.8247 25.1844Z" fill="#42A0F0"/>
<path fill-rule="evenodd" clip-rule="evenodd" d="M30.0997 25.4516C30.1087 25.4718 30.0997 25.4954 30.0795 25.5044L29.8047 25.6272C29.7845 25.6362 29.7608 25.6272 29.7518 25.607C29.7428 25.5868 29.7518 25.5631 29.772 25.5541L30.0468 25.4313C30.067 25.4223 30.0907 25.4314 30.0997 25.4516Z" fill="#42A0F0"/>
<path fill-rule="evenodd" clip-rule="evenodd" d="M29.3408 25.4565C29.3471 25.4353 29.3694 25.4232 29.3906 25.4295L29.7997 25.5514C29.8209 25.5577 29.8329 25.58 29.8266 25.6011C29.8203 25.6223 29.798 25.6344 29.7768 25.6281L29.3677 25.5063C29.3465 25.5 29.3345 25.4777 29.3408 25.4565Z" fill="#42A0F0"/>
<path fill-rule="evenodd" clip-rule="evenodd" d="M29.7518 26.4259C29.7608 26.4057 29.7845 26.3967 29.8047 26.4057L30.0795 26.5285C30.0997 26.5375 30.1087 26.5612 30.0997 26.5814C30.0907 26.6016 30.067 26.6106 30.0468 26.6016L29.772 26.4788C29.7518 26.4698 29.7428 26.4461 29.7518 26.4259Z" fill="#42A0F0"/>
<path fill-rule="evenodd" clip-rule="evenodd" d="M29.8266 26.4308C29.8329 26.452 29.8209 26.4743 29.7997 26.4806L29.3906 26.6024C29.3694 26.6088 29.3471 26.5967 29.3408 26.5755C29.3345 26.5543 29.3465 26.532 29.3677 26.5257L29.7768 26.4039C29.798 26.3976 29.8203 26.4096 29.8266 26.4308Z" fill="#42A0F0"/>
<path fill-rule="evenodd" clip-rule="evenodd" d="M30.5818 25.5866C30.5938 25.6052 30.5876 25.6285 30.5679 25.6386L29.116 26.3871C29.0964 26.3972 29.0707 26.3904 29.0587 26.3718C29.0467 26.3533 29.0529 26.33 29.0725 26.3199L30.5245 25.5714C30.5441 25.5612 30.5698 25.5681 30.5818 25.5866Z" fill="#42A0F0"/>
<path fill-rule="evenodd" clip-rule="evenodd" d="M30.6342 25.8924C30.6292 25.9127 30.6069 25.9245 30.5842 25.9189L30.1785 25.818C30.1559 25.8124 30.1416 25.7914 30.1465 25.7711C30.1514 25.7509 30.1738 25.739 30.1965 25.7447L30.6021 25.8455C30.6248 25.8512 30.6391 25.8722 30.6342 25.8924Z" fill="#42A0F0"/>
<path fill-rule="evenodd" clip-rule="evenodd" d="M30.302 25.3851C30.3245 25.3911 30.3385 25.4123 30.3331 25.4324L30.2358 25.7989C30.2305 25.819 30.2078 25.8305 30.1853 25.8245C30.1627 25.8185 30.1488 25.7973 30.1541 25.7772L30.2514 25.4108C30.2568 25.3906 30.2794 25.3791 30.302 25.3851Z" fill="#42A0F0"/>
<path fill-rule="evenodd" clip-rule="evenodd" d="M29.4195 26.1482C29.442 26.1545 29.4556 26.1759 29.4499 26.196L29.3477 26.5551C29.342 26.5752 29.3191 26.5863 29.2967 26.58C29.2742 26.5737 29.2606 26.5523 29.2663 26.5323L29.3685 26.1731C29.3742 26.1531 29.3971 26.1419 29.4195 26.1482Z" fill="#42A0F0"/>
<path fill-rule="evenodd" clip-rule="evenodd" d="M29.4567 26.2023C29.4514 26.2224 29.4288 26.234 29.4062 26.228L28.9959 26.1198C28.9733 26.1138 28.9593 26.0927 28.9646 26.0725C28.9699 26.0524 28.9925 26.0408 29.0151 26.0468L29.4254 26.155C29.448 26.161 29.462 26.1821 29.4567 26.2023Z" fill="#42A0F0"/>
<path fill-rule="evenodd" clip-rule="evenodd" d="M30.574 26.3718C30.562 26.3903 30.5363 26.3972 30.5167 26.3871L29.0647 25.6385C29.0451 25.6284 29.0389 25.6051 29.0509 25.5866C29.0629 25.568 29.0886 25.5612 29.1082 25.5713L30.5601 26.3198C30.5798 26.33 30.586 26.3532 30.574 26.3718Z" fill="#42A0F0"/>
<path fill-rule="evenodd" clip-rule="evenodd" d="M30.3016 26.5624C30.2791 26.5687 30.2563 26.5575 30.2506 26.5375L30.1484 26.1783C30.1426 26.1583 30.1562 26.1369 30.1787 26.1306C30.2012 26.1243 30.224 26.1354 30.2297 26.1555L30.3319 26.5146C30.3376 26.5347 30.324 26.5561 30.3016 26.5624Z" fill="#42A0F0"/>
<path fill-rule="evenodd" clip-rule="evenodd" d="M30.633 26.0547C30.6383 26.0748 30.6243 26.096 30.6017 26.102L30.1914 26.2102C30.1688 26.2161 30.1462 26.2046 30.1409 26.1844C30.1356 26.1643 30.1496 26.1431 30.1722 26.1372L30.5825 26.029C30.6051 26.023 30.6277 26.0345 30.633 26.0547Z" fill="#42A0F0"/>
<path fill-rule="evenodd" clip-rule="evenodd" d="M29.4515 25.7535C29.4564 25.7738 29.4421 25.7947 29.4195 25.8004L29.0138 25.9012C28.9911 25.9069 28.9688 25.895 28.9638 25.8748C28.9589 25.8545 28.9732 25.8335 28.9959 25.8279L29.4015 25.727C29.4242 25.7214 29.4466 25.7333 29.4515 25.7535Z" fill="#42A0F0"/>
<path fill-rule="evenodd" clip-rule="evenodd" d="M29.4131 25.8069C29.3905 25.8129 29.3679 25.8014 29.3625 25.7813L29.2653 25.4149C29.2599 25.3947 29.2739 25.3735 29.2964 25.3675C29.319 25.3615 29.3416 25.373 29.3469 25.3932L29.4442 25.7596C29.4496 25.7797 29.4356 25.8009 29.4131 25.8069Z" fill="#42A0F0"/>
</g>
<g filter="url(#filter1_f_19_543)">
<path fill-rule="evenodd" clip-rule="evenodd" d="M52.9546 28.4989C52.9767 28.4989 52.9946 28.5168 52.9946 28.5389V31.1053C52.9946 31.1274 52.9767 31.1453 52.9546 31.1453C52.9325 31.1453 52.9146 31.1274 52.9146 31.1053V28.5389C52.9146 28.5168 52.9325 28.4989 52.9546 28.4989Z" fill="#42A0F0"/>
<path fill-rule="evenodd" clip-rule="evenodd" d="M53.4193 28.9907C53.4241 29.0122 53.4105 29.0336 53.389 29.0385L52.8434 29.1603C52.8219 29.1651 52.8005 29.1515 52.7956 29.1299C52.7908 29.1084 52.8044 29.087 52.826 29.0821L53.3715 28.9603C53.3931 28.9555 53.4145 28.9691 53.4193 28.9907Z" fill="#42A0F0"/>
<path fill-rule="evenodd" clip-rule="evenodd" d="M52.1134 28.9923C52.1173 28.9706 52.1381 28.9561 52.1599 28.96L52.8418 29.0818C52.8636 29.0857 52.8781 29.1065 52.8742 29.1282C52.8703 29.15 52.8495 29.1645 52.8277 29.1606L52.1458 29.0388C52.124 29.0349 52.1095 29.0141 52.1134 28.9923Z" fill="#42A0F0"/>
<path fill-rule="evenodd" clip-rule="evenodd" d="M52.7982 30.566C52.8072 30.5458 52.8308 30.5367 52.851 30.5457L53.3966 30.7892C53.4167 30.7982 53.4258 30.8219 53.4168 30.8421C53.4078 30.8623 53.3841 30.8713 53.3639 30.8623L52.8184 30.6188C52.7982 30.6098 52.7892 30.5862 52.7982 30.566Z" fill="#42A0F0"/>
<path fill-rule="evenodd" clip-rule="evenodd" d="M52.8725 30.5688C52.8799 30.5896 52.8691 30.6125 52.8482 30.62L52.1663 30.8634C52.1455 30.8709 52.1226 30.86 52.1151 30.8392C52.1077 30.8184 52.1186 30.7955 52.1394 30.788L52.8213 30.5446C52.8421 30.5371 52.865 30.548 52.8725 30.5688Z" fill="#42A0F0"/>
<path fill-rule="evenodd" clip-rule="evenodd" d="M54.2278 29.1728C54.2398 29.1914 54.2336 29.2146 54.2139 29.2248L51.7249 30.5079C51.7053 30.5181 51.6796 30.5112 51.6676 30.4927C51.6556 30.4741 51.6618 30.4508 51.6814 30.4407L54.1705 29.1575C54.1901 29.1474 54.2158 29.1542 54.2278 29.1728Z" fill="#42A0F0"/>
<path fill-rule="evenodd" clip-rule="evenodd" d="M54.3118 29.6734C54.3068 29.6937 54.2844 29.7055 54.2618 29.6999L53.5719 29.5284C53.5493 29.5227 53.5349 29.5018 53.5399 29.4815C53.5448 29.4613 53.5672 29.4494 53.5898 29.455L54.2797 29.6266C54.3023 29.6322 54.3167 29.6532 54.3118 29.6734Z" fill="#42A0F0"/>
<path fill-rule="evenodd" clip-rule="evenodd" d="M53.7666 28.8407C53.7891 28.8467 53.8031 28.8679 53.7977 28.888L53.6323 29.5111C53.6269 29.5313 53.6043 29.5427 53.5817 29.5368C53.5592 29.5308 53.5452 29.5096 53.5506 29.4894L53.716 28.8663C53.7214 28.8462 53.744 28.8347 53.7666 28.8407Z" fill="#42A0F0"/>
<path fill-rule="evenodd" clip-rule="evenodd" d="M52.2533 30.1482C52.2757 30.1545 52.2893 30.1759 52.2836 30.196L52.1098 30.8068C52.1041 30.8268 52.0813 30.8379 52.0588 30.8316C52.0363 30.8253 52.0227 30.804 52.0284 30.7839L52.2023 30.1731C52.208 30.1531 52.2308 30.1419 52.2533 30.1482Z" fill="#42A0F0"/>
<path fill-rule="evenodd" clip-rule="evenodd" d="M52.2939 30.2041C52.2886 30.2243 52.266 30.2358 52.2434 30.2298L51.5456 30.0458C51.523 30.0399 51.5091 30.0187 51.5144 29.9985C51.5197 29.9784 51.5423 29.9669 51.5648 29.9728L52.2626 30.1568C52.2852 30.1628 52.2992 30.1839 52.2939 30.2041Z" fill="#42A0F0"/>
<path fill-rule="evenodd" clip-rule="evenodd" d="M54.2141 30.4925C54.2021 30.5111 54.1765 30.5179 54.1568 30.5078L51.6678 29.2246C51.6481 29.2145 51.6419 29.1912 51.6539 29.1727C51.6659 29.1541 51.6916 29.1473 51.7113 29.1574L54.2003 30.4405C54.2199 30.4507 54.2261 30.4739 54.2141 30.4925Z" fill="#42A0F0"/>
<path fill-rule="evenodd" clip-rule="evenodd" d="M53.7683 30.8031C53.7458 30.8094 53.723 30.7983 53.7173 30.7782L53.5434 30.1674C53.5377 30.1474 53.5513 30.126 53.5738 30.1197C53.5963 30.1134 53.6191 30.1245 53.6248 30.1446L53.7986 30.7554C53.8043 30.7754 53.7907 30.7968 53.7683 30.8031Z" fill="#42A0F0"/>
<path fill-rule="evenodd" clip-rule="evenodd" d="M54.3122 29.9697C54.3175 29.9899 54.3035 30.0111 54.2809 30.017L53.5831 30.201C53.5606 30.207 53.538 30.1955 53.5327 30.1753C53.5274 30.1551 53.5413 30.134 53.5639 30.128L54.2617 29.944C54.2843 29.938 54.3069 29.9496 54.3122 29.9697Z" fill="#42A0F0"/>
<path fill-rule="evenodd" clip-rule="evenodd" d="M52.2862 29.4531C52.2912 29.4733 52.2768 29.4943 52.2542 29.5L51.5643 29.6715C51.5417 29.6771 51.5193 29.6653 51.5143 29.645C51.5094 29.6248 51.5237 29.6038 51.5464 29.5981L52.2363 29.4266C52.2589 29.421 52.2813 29.4328 52.2862 29.4531Z" fill="#42A0F0"/>
<path fill-rule="evenodd" clip-rule="evenodd" d="M52.2446 29.5083C52.222 29.5143 52.1994 29.5028 52.1941 29.4827L52.0286 28.8596C52.0233 28.8394 52.0372 28.8182 52.0598 28.8122C52.0823 28.8063 52.1049 28.8177 52.1103 28.8379L52.2757 29.461C52.2811 29.4811 52.2671 29.5023 52.2446 29.5083Z" fill="#42A0F0"/>
</g>
<g filter="url(#filter2_f_19_543)">
<path fill-rule="evenodd" clip-rule="evenodd" d="M69.7539 32.484C69.776 32.484 69.7939 32.5019 69.7939 32.524V34.631C69.7939 34.6531 69.776 34.671 69.7539 34.671C69.7318 34.671 69.7139 34.6531 69.7139 34.631V32.524C69.7139 32.5019 69.7318 32.484 69.7539 32.484Z" fill="#42A0F0"/>
<path fill-rule="evenodd" clip-rule="evenodd" d="M70.0788 32.8511C70.0851 32.8723 70.0731 32.8946 70.0519 32.9009L69.6428 33.0227C69.6216 33.029 69.5993 33.017 69.593 32.9958C69.5867 32.9746 69.5987 32.9523 69.6199 32.946L70.029 32.8242C70.0502 32.8179 70.0725 32.8299 70.0788 32.8511Z" fill="#42A0F0"/>
<path fill-rule="evenodd" clip-rule="evenodd" d="M69.0471 32.8538C69.0519 32.8322 69.0733 32.8187 69.0949 32.8235L69.6404 32.9453C69.662 32.9501 69.6756 32.9715 69.6708 32.9931C69.666 33.0147 69.6446 33.0283 69.623 33.0234L69.0775 32.9016C69.0559 32.8968 69.0423 32.8754 69.0471 32.8538Z" fill="#42A0F0"/>
<path fill-rule="evenodd" clip-rule="evenodd" d="M69.5969 34.1817C69.6083 34.1627 69.6328 34.1564 69.6518 34.1677L70.0609 34.4112C70.0799 34.4225 70.0861 34.4471 70.0748 34.4661C70.0635 34.4851 70.039 34.4913 70.02 34.48L69.6109 34.2365C69.5919 34.2252 69.5856 34.2007 69.5969 34.1817Z" fill="#42A0F0"/>
<path fill-rule="evenodd" clip-rule="evenodd" d="M69.6683 34.1858C69.6773 34.206 69.6682 34.2297 69.648 34.2387L69.1025 34.4822C69.0823 34.4912 69.0586 34.4821 69.0496 34.4619C69.0406 34.4417 69.0497 34.4181 69.0699 34.4091L69.6154 34.1656C69.6356 34.1566 69.6592 34.1656 69.6683 34.1858Z" fill="#42A0F0"/>
<path fill-rule="evenodd" clip-rule="evenodd" d="M70.8054 33.0413C70.8174 33.0599 70.8112 33.0832 70.7916 33.0933L68.7481 34.1468C68.7284 34.1569 68.7028 34.1501 68.6908 34.1315C68.6787 34.1129 68.6849 34.0897 68.7046 34.0795L70.7481 33.0261C70.7677 33.0159 70.7934 33.0228 70.8054 33.0413Z" fill="#42A0F0"/>
<path fill-rule="evenodd" clip-rule="evenodd" d="M70.8755 33.4577C70.8705 33.478 70.8482 33.4898 70.8255 33.4842L70.259 33.3433C70.2364 33.3377 70.222 33.3167 70.2269 33.2965C70.2319 33.2762 70.2543 33.2644 70.2769 33.27L70.8434 33.4109C70.8661 33.4165 70.8804 33.4375 70.8755 33.4577Z" fill="#42A0F0"/>
<path fill-rule="evenodd" clip-rule="evenodd" d="M70.4226 32.7654C70.4451 32.7714 70.4591 32.7926 70.4537 32.8127L70.3178 33.3244C70.3125 33.3446 70.2899 33.356 70.2673 33.35C70.2448 33.344 70.2308 33.3229 70.2362 33.3027L70.372 32.791C70.3774 32.7709 70.4 32.7594 70.4226 32.7654Z" fill="#42A0F0"/>
<path fill-rule="evenodd" clip-rule="evenodd" d="M69.18 33.839C69.2025 33.8453 69.2161 33.8667 69.2104 33.8868L69.0676 34.3884C69.0619 34.4084 69.0391 34.4195 69.0166 34.4132C68.9942 34.4069 68.9806 34.3856 68.9863 34.3655L69.129 33.8639C69.1347 33.8439 69.1576 33.8327 69.18 33.839Z" fill="#42A0F0"/>
<path fill-rule="evenodd" clip-rule="evenodd" d="M69.2194 33.8932C69.2141 33.9133 69.1916 33.9249 69.169 33.9189L68.5959 33.7678C68.5734 33.7618 68.5594 33.7407 68.5647 33.7205C68.57 33.7004 68.5926 33.6888 68.6151 33.6948L69.1882 33.8459C69.2108 33.8519 69.2247 33.873 69.2194 33.8932Z" fill="#42A0F0"/>
<path fill-rule="evenodd" clip-rule="evenodd" d="M70.7944 34.1313C70.7824 34.1499 70.7568 34.1567 70.7371 34.1466L68.6936 33.0931C68.674 33.083 68.6678 33.0597 68.6798 33.0411C68.6918 33.0226 68.7174 33.0157 68.7371 33.0259L70.7806 34.0793C70.8002 34.0895 70.8064 34.1127 70.7944 34.1313Z" fill="#42A0F0"/>
<path fill-rule="evenodd" clip-rule="evenodd" d="M70.4235 34.3897C70.4011 34.396 70.3782 34.3848 70.3725 34.3648L70.2298 33.8632C70.2241 33.8431 70.2377 33.8218 70.2601 33.8155C70.2826 33.8092 70.3054 33.8203 70.3111 33.8403L70.4539 34.3419C70.4596 34.362 70.446 34.3834 70.4235 34.3897Z" fill="#42A0F0"/>
<path fill-rule="evenodd" clip-rule="evenodd" d="M70.8759 33.6969C70.8812 33.7171 70.8672 33.7382 70.8447 33.7442L70.2716 33.8953C70.249 33.9012 70.2264 33.8897 70.2211 33.8696C70.2158 33.8494 70.2298 33.8282 70.2524 33.8223L70.8255 33.6712C70.848 33.6652 70.8706 33.6767 70.8759 33.6969Z" fill="#42A0F0"/>
<path fill-rule="evenodd" clip-rule="evenodd" d="M69.2132 33.2729C69.2182 33.2932 69.2038 33.3141 69.1812 33.3198L68.6146 33.4606C68.592 33.4663 68.5696 33.4544 68.5647 33.4342C68.5597 33.4139 68.5741 33.3929 68.5967 33.3873L69.1633 33.2464C69.1859 33.2408 69.2083 33.2527 69.2132 33.2729Z" fill="#42A0F0"/>
<path fill-rule="evenodd" clip-rule="evenodd" d="M69.1728 33.3264C69.1502 33.3324 69.1276 33.3209 69.1223 33.3008L68.9864 32.7891C68.981 32.7689 68.995 32.7477 69.0175 32.7418C69.0401 32.7358 69.0627 32.7472 69.0681 32.7674L69.2039 33.2791C69.2093 33.2992 69.1953 33.3204 69.1728 33.3264Z" fill="#42A0F0"/>
</g>
<g filter="url(#filter3_f_19_543)">
<path fill-rule="evenodd" clip-rule="evenodd" d="M11.7229 41.4155C11.745 41.4155 11.7629 41.4334 11.7629 41.4556V43.3114C11.7629 43.3336 11.745 43.3515 11.7229 43.3515C11.7008 43.3515 11.6829 43.3336 11.6829 43.3114V41.4556C11.6829 41.4334 11.7008 41.4155 11.7229 41.4155Z" fill="#42A0F0"/>
<path fill-rule="evenodd" clip-rule="evenodd" d="M12.0595 41.7826C12.0658 41.8038 12.0538 41.8261 12.0326 41.8324L11.6235 41.9543C11.6023 41.9606 11.58 41.9485 11.5737 41.9273C11.5674 41.9061 11.5794 41.8838 11.6006 41.8775L12.0097 41.7557C12.0309 41.7494 12.0532 41.7615 12.0595 41.7826Z" fill="#42A0F0"/>
<path fill-rule="evenodd" clip-rule="evenodd" d="M11.1645 41.7826C11.1708 41.7615 11.1931 41.7494 11.2143 41.7557L11.6234 41.8775C11.6446 41.8838 11.6567 41.9061 11.6503 41.9273C11.644 41.9485 11.6217 41.9606 11.6006 41.9543L11.1915 41.8324C11.1703 41.8261 11.1582 41.8038 11.1645 41.7826Z" fill="#42A0F0"/>
<path fill-rule="evenodd" clip-rule="evenodd" d="M11.5777 42.8694C11.589 42.8504 11.6135 42.8442 11.6325 42.8555L12.0416 43.099C12.0606 43.1103 12.0669 43.1348 12.0556 43.1538C12.0442 43.1728 12.0197 43.1791 12.0007 43.1678L11.5916 42.9243C11.5726 42.913 11.5664 42.8884 11.5777 42.8694Z" fill="#42A0F0"/>
<path fill-rule="evenodd" clip-rule="evenodd" d="M11.6464 42.8695C11.6577 42.8885 11.6514 42.9131 11.6324 42.9244L11.2234 43.1679C11.2044 43.1792 11.1798 43.173 11.1685 43.154C11.1572 43.135 11.1634 43.1104 11.1824 43.0991L11.5915 42.8556C11.6105 42.8443 11.6351 42.8505 11.6464 42.8695Z" fill="#42A0F0"/>
<path fill-rule="evenodd" clip-rule="evenodd" d="M12.6538 41.9089C12.6658 41.9275 12.6596 41.9507 12.64 41.9608L10.84 42.8888C10.8203 42.8989 10.7947 42.8921 10.7827 42.8735C10.7707 42.855 10.7769 42.8317 10.7965 42.8216L12.5965 41.8936C12.6161 41.8835 12.6418 41.8903 12.6538 41.9089Z" fill="#42A0F0"/>
<path fill-rule="evenodd" clip-rule="evenodd" d="M12.7164 42.2789C12.7115 42.2991 12.6891 42.311 12.6665 42.3054L12.1675 42.1813C12.1449 42.1757 12.1305 42.1547 12.1354 42.1345C12.1404 42.1142 12.1628 42.1024 12.1854 42.108L12.6844 42.232C12.707 42.2377 12.7213 42.2586 12.7164 42.2789Z" fill="#42A0F0"/>
<path fill-rule="evenodd" clip-rule="evenodd" d="M12.3134 41.6637C12.336 41.6697 12.3499 41.6909 12.3446 41.711L12.2249 42.1617C12.2196 42.1818 12.1969 42.1933 12.1744 42.1873C12.1518 42.1813 12.1379 42.1602 12.1432 42.14L12.2629 41.6893C12.2683 41.6692 12.2909 41.6577 12.3134 41.6637Z" fill="#42A0F0"/>
<path fill-rule="evenodd" clip-rule="evenodd" d="M11.2189 42.6094C11.2413 42.6157 11.2549 42.6371 11.2492 42.6571L11.1235 43.0989C11.1177 43.1189 11.0949 43.1301 11.0724 43.1238C11.05 43.1175 11.0364 43.0961 11.0421 43.076L11.1679 42.6343C11.1736 42.6142 11.1964 42.6031 11.2189 42.6094Z" fill="#42A0F0"/>
<path fill-rule="evenodd" clip-rule="evenodd" d="M11.2571 42.6627C11.2518 42.6829 11.2292 42.6944 11.2066 42.6885L10.7019 42.5554C10.6793 42.5494 10.6654 42.5283 10.6707 42.5081C10.676 42.4879 10.6986 42.4764 10.7211 42.4824L11.2258 42.6155C11.2484 42.6214 11.2624 42.6426 11.2571 42.6627Z" fill="#42A0F0"/>
<path fill-rule="evenodd" clip-rule="evenodd" d="M12.6438 42.8734C12.6318 42.8919 12.6061 42.8988 12.5865 42.8886L10.7865 41.9607C10.7669 41.9506 10.7607 41.9273 10.7727 41.9087C10.7847 41.8902 10.8103 41.8833 10.83 41.8935L12.63 42.8214C12.6496 42.8315 12.6558 42.8548 12.6438 42.8734Z" fill="#42A0F0"/>
<path fill-rule="evenodd" clip-rule="evenodd" d="M12.3136 43.103C12.2911 43.1093 12.2683 43.0982 12.2626 43.0782L12.1368 42.6364C12.1311 42.6164 12.1447 42.595 12.1672 42.5887C12.1896 42.5824 12.2125 42.5935 12.2182 42.6136L12.3439 43.0553C12.3496 43.0754 12.336 43.0967 12.3136 43.103Z" fill="#42A0F0"/>
<path fill-rule="evenodd" clip-rule="evenodd" d="M12.716 42.4874C12.7213 42.5076 12.7073 42.5288 12.6848 42.5347L12.18 42.6678C12.1575 42.6738 12.1349 42.6622 12.1296 42.6421C12.1243 42.6219 12.1382 42.6008 12.1608 42.5948L12.6655 42.4617C12.6881 42.4557 12.7107 42.4673 12.716 42.4874Z" fill="#42A0F0"/>
<path fill-rule="evenodd" clip-rule="evenodd" d="M11.2518 42.1139C11.2567 42.1341 11.2424 42.1551 11.2197 42.1607L10.7208 42.2847C10.6981 42.2904 10.6758 42.2785 10.6708 42.2583C10.6659 42.238 10.6802 42.217 10.7029 42.2114L11.2018 42.0874C11.2245 42.0818 11.2469 42.0936 11.2518 42.1139Z" fill="#42A0F0"/>
<path fill-rule="evenodd" clip-rule="evenodd" d="M11.2125 42.1665C11.19 42.1725 11.1673 42.1611 11.162 42.1409L11.0423 41.6902C11.037 41.6701 11.0509 41.6489 11.0735 41.6429C11.096 41.6369 11.1186 41.6484 11.124 41.6685L11.2437 42.1192C11.249 42.1394 11.2351 42.1605 11.2125 42.1665Z" fill="#42A0F0"/>
</g>
<g filter="url(#filter4_f_19_543)">
<path fill-rule="evenodd" clip-rule="evenodd" d="M41.208 48.5114C41.2301 48.5114 41.248 48.5293 41.248 48.5514V50.0567C41.248 50.0788 41.2301 50.0967 41.208 50.0967C41.1859 50.0967 41.168 50.0788 41.168 50.0567V48.5514C41.168 48.5293 41.1859 48.5114 41.208 48.5114Z" fill="#42A0F0"/>
<path fill-rule="evenodd" clip-rule="evenodd" d="M41.4783 48.7519C41.4874 48.772 41.4783 48.7957 41.4581 48.8047L41.1833 48.9275C41.1631 48.9365 41.1395 48.9275 41.1304 48.9073C41.1214 48.8871 41.1305 48.8634 41.1507 48.8544L41.4255 48.7316C41.4457 48.7226 41.4693 48.7317 41.4783 48.7519Z" fill="#42A0F0"/>
<path fill-rule="evenodd" clip-rule="evenodd" d="M40.7197 48.7568C40.726 48.7356 40.7483 48.7235 40.7695 48.7298L41.1786 48.8516C41.1998 48.858 41.2118 48.8802 41.2055 48.9014C41.1992 48.9226 41.1769 48.9347 41.1557 48.9284L40.7466 48.8066C40.7254 48.8002 40.7134 48.778 40.7197 48.7568Z" fill="#42A0F0"/>
<path fill-rule="evenodd" clip-rule="evenodd" d="M41.1304 49.726C41.1395 49.7058 41.1631 49.6967 41.1833 49.7058L41.4581 49.8285C41.4783 49.8376 41.4874 49.8612 41.4783 49.8814C41.4693 49.9016 41.4457 49.9107 41.4255 49.9016L41.1507 49.7789C41.1305 49.7698 41.1214 49.7462 41.1304 49.726Z" fill="#42A0F0"/>
<path fill-rule="evenodd" clip-rule="evenodd" d="M41.2055 49.731C41.2118 49.7522 41.1998 49.7745 41.1786 49.7808L40.7695 49.9026C40.7483 49.9089 40.726 49.8969 40.7197 49.8757C40.7134 49.8545 40.7254 49.8322 40.7466 49.8259L41.1557 49.7041C41.1769 49.6978 41.1992 49.7098 41.2055 49.731Z" fill="#42A0F0"/>
<path fill-rule="evenodd" clip-rule="evenodd" d="M41.9695 48.9155C41.9815 48.934 41.9753 48.9573 41.9556 48.9674L40.4957 49.7201C40.476 49.7302 40.4503 49.7234 40.4383 49.7048C40.4263 49.6863 40.4325 49.663 40.4522 49.6529L41.9122 48.9002C41.9318 48.8901 41.9575 48.8969 41.9695 48.9155Z" fill="#42A0F0"/>
<path fill-rule="evenodd" clip-rule="evenodd" d="M42.0224 49.223C42.0175 49.2432 41.9951 49.2551 41.9725 49.2494L41.5645 49.1481C41.5419 49.1425 41.5276 49.1215 41.5325 49.1012C41.5374 49.081 41.5598 49.0691 41.5824 49.0748L41.9904 49.1761C42.013 49.1817 42.0274 49.2027 42.0224 49.223Z" fill="#42A0F0"/>
<path fill-rule="evenodd" clip-rule="evenodd" d="M41.6884 48.7131C41.711 48.7191 41.7249 48.7403 41.7196 48.7605L41.6217 49.129C41.6164 49.1491 41.5938 49.1606 41.5712 49.1546C41.5487 49.1486 41.5347 49.1274 41.5401 49.1073L41.6379 48.7388C41.6433 48.7186 41.6659 48.7071 41.6884 48.7131Z" fill="#42A0F0"/>
<path fill-rule="evenodd" clip-rule="evenodd" d="M40.8009 49.4804C40.8234 49.4867 40.8369 49.5081 40.8312 49.5281L40.7284 49.8892C40.7227 49.9093 40.6998 49.9204 40.6773 49.9141C40.6549 49.9078 40.6413 49.8864 40.647 49.8664L40.7499 49.5053C40.7556 49.4852 40.7784 49.4741 40.8009 49.4804Z" fill="#42A0F0"/>
<path fill-rule="evenodd" clip-rule="evenodd" d="M40.8389 49.5343C40.8336 49.5545 40.811 49.566 40.7885 49.5601L40.3758 49.4512C40.3532 49.4453 40.3392 49.4241 40.3445 49.4039C40.3498 49.3838 40.3724 49.3723 40.395 49.3782L40.8077 49.487C40.8302 49.493 40.8442 49.5142 40.8389 49.5343Z" fill="#42A0F0"/>
<path fill-rule="evenodd" clip-rule="evenodd" d="M41.9622 49.7049C41.9502 49.7235 41.9245 49.7303 41.9048 49.7202L40.4449 48.9675C40.4252 48.9574 40.419 48.9341 40.431 48.9156C40.443 48.897 40.4687 48.8902 40.4883 48.9003L41.9483 49.653C41.968 49.6631 41.9742 49.6863 41.9622 49.7049Z" fill="#42A0F0"/>
<path fill-rule="evenodd" clip-rule="evenodd" d="M41.6885 49.8965C41.666 49.9028 41.6432 49.8916 41.6375 49.8716L41.5346 49.5105C41.5289 49.4904 41.5425 49.4691 41.5649 49.4627C41.5874 49.4564 41.6102 49.4676 41.6159 49.4876L41.7188 49.8487C41.7245 49.8688 41.7109 49.8902 41.6885 49.8965Z" fill="#42A0F0"/>
<path fill-rule="evenodd" clip-rule="evenodd" d="M42.0214 49.3862C42.0267 49.4064 42.0127 49.4276 41.9902 49.4335L41.5775 49.5423C41.5549 49.5483 41.5323 49.5368 41.527 49.5166C41.5217 49.4965 41.5357 49.4753 41.5583 49.4693L41.971 49.3605C41.9935 49.3546 42.0161 49.3661 42.0214 49.3862Z" fill="#42A0F0"/>
<path fill-rule="evenodd" clip-rule="evenodd" d="M40.8333 49.0835C40.8383 49.1037 40.8239 49.1247 40.8013 49.1303L40.3934 49.2317C40.3707 49.2373 40.3483 49.2254 40.3434 49.2052C40.3385 49.1849 40.3528 49.1639 40.3755 49.1583L40.7834 49.057C40.806 49.0514 40.8284 49.0632 40.8333 49.0835Z" fill="#42A0F0"/>
<path fill-rule="evenodd" clip-rule="evenodd" d="M40.7943 49.1369C40.7717 49.1429 40.7491 49.1314 40.7437 49.1112L40.6459 48.7427C40.6405 48.7226 40.6545 48.7014 40.677 48.6954C40.6996 48.6894 40.7222 48.7009 40.7276 48.721L40.8254 49.0895C40.8308 49.1097 40.8168 49.1309 40.7943 49.1369Z" fill="#42A0F0"/>
</g>
<g filter="url(#filter5_f_19_543)">
<path fill-rule="evenodd" clip-rule="evenodd" d="M56.9412 44.3922C57.0739 44.3922 57.1814 44.4997 57.1814 44.6324V57.6251C57.1814 57.7578 57.0739 57.8653 56.9412 57.8653C56.8086 57.8653 56.701 57.7578 56.701 57.6251V44.6324C56.701 44.4997 56.8086 44.3922 56.9412 44.3922Z" fill="#42A0F0"/>
<path fill-rule="evenodd" clip-rule="evenodd" d="M59.5946 45.3356C59.6845 45.4331 59.6783 45.5851 59.5808 45.675L57.0748 47.9848C56.9773 48.0747 56.8254 48.0685 56.7355 47.971C56.6456 47.8734 56.6517 47.7215 56.7493 47.6316L59.2552 45.3218C59.3527 45.2319 59.5047 45.238 59.5946 45.3356Z" fill="#42A0F0"/>
<path fill-rule="evenodd" clip-rule="evenodd" d="M54.146 45.3385C54.2343 45.2396 54.3862 45.231 54.4851 45.3193L57.0719 47.6292C57.1709 47.7175 57.1795 47.8693 57.0911 47.9683C57.0028 48.0672 56.8509 48.0758 56.752 47.9875L54.1652 45.6776C54.0662 45.5893 54.0576 45.4375 54.146 45.3385Z" fill="#42A0F0"/>
<path fill-rule="evenodd" clip-rule="evenodd" d="M56.7355 54.5751C56.8254 54.4775 56.9773 54.4714 57.0748 54.5613L59.5808 56.8711C59.6783 56.961 59.6845 57.1129 59.5946 57.2105C59.5047 57.308 59.3527 57.3142 59.2552 57.2243L56.7493 54.9145C56.6517 54.8246 56.6456 54.6726 56.7355 54.5751Z" fill="#42A0F0"/>
<path fill-rule="evenodd" clip-rule="evenodd" d="M57.0911 54.5779C57.1795 54.6768 57.1709 54.8287 57.0719 54.917L54.4851 57.2269C54.3862 57.3152 54.2343 57.3066 54.146 57.2077C54.0576 57.1087 54.0662 56.9569 54.1652 56.8685L56.752 54.5587C56.8509 54.4704 57.0028 54.4789 57.0911 54.5779Z" fill="#42A0F0"/>
<path fill-rule="evenodd" clip-rule="evenodd" d="M63.4206 47.8244C63.4926 47.9358 63.4554 48.0754 63.3375 48.1362L50.7362 54.6325C50.6183 54.6933 50.4643 54.6523 50.3923 54.5409C50.3203 54.4295 50.3575 54.2899 50.4754 54.2291L63.0767 47.7328C63.1946 47.672 63.3486 47.713 63.4206 47.8244Z" fill="#42A0F0"/>
<path fill-rule="evenodd" clip-rule="evenodd" d="M63.8512 50.3866C63.8215 50.5081 63.6873 50.5792 63.5515 50.5454L60.0583 49.6771C59.9224 49.6433 59.8363 49.5175 59.866 49.3959C59.8956 49.2744 60.0298 49.2033 60.1657 49.2371L63.6589 50.1054C63.7948 50.1392 63.8809 50.2651 63.8512 50.3866Z" fill="#42A0F0"/>
<path fill-rule="evenodd" clip-rule="evenodd" d="M61.063 46.1257C61.1983 46.1616 61.2819 46.2888 61.2498 46.4096L60.412 49.5649C60.3799 49.6858 60.2442 49.7547 60.1089 49.7187C59.9736 49.6828 59.8899 49.5556 59.922 49.4347L60.7598 46.2795C60.7919 46.1586 60.9276 46.0897 61.063 46.1257Z" fill="#42A0F0"/>
<path fill-rule="evenodd" clip-rule="evenodd" d="M53.4001 52.7468C53.5349 52.7847 53.6164 52.9129 53.5821 53.0332L52.7017 56.1259C52.6675 56.2462 52.5305 56.313 52.3957 56.2752C52.2609 56.2373 52.1794 56.1091 52.2136 55.9888L53.094 52.8961C53.1283 52.7758 53.2653 52.709 53.4001 52.7468Z" fill="#42A0F0"/>
<path fill-rule="evenodd" clip-rule="evenodd" d="M53.6369 53.0724C53.6051 53.1933 53.4696 53.2624 53.3342 53.2267L49.8006 52.2949C49.6652 52.2592 49.5812 52.1322 49.613 52.0112C49.6449 51.8903 49.7804 51.8212 49.9158 51.8569L53.4494 52.7887C53.5848 52.8244 53.6688 52.9514 53.6369 53.0724Z" fill="#42A0F0"/>
<path fill-rule="evenodd" clip-rule="evenodd" d="M63.3506 54.5407C63.2786 54.6521 63.1246 54.6932 63.0067 54.6324L50.4054 48.136C50.2875 48.0752 50.2503 47.9357 50.3223 47.8243C50.3944 47.7129 50.5483 47.6718 50.6662 47.7326L63.2676 54.229C63.3855 54.2898 63.4227 54.4293 63.3506 54.5407Z" fill="#42A0F0"/>
<path fill-rule="evenodd" clip-rule="evenodd" d="M61.0675 56.1306C60.9327 56.1685 60.7957 56.1017 60.7614 55.9814L59.881 52.8887C59.8468 52.7684 59.9283 52.6402 60.0631 52.6023C60.1979 52.5644 60.3349 52.6313 60.3691 52.7515L61.2495 55.8443C61.2838 55.9646 61.2023 56.0928 61.0675 56.1306Z" fill="#42A0F0"/>
<path fill-rule="evenodd" clip-rule="evenodd" d="M63.8502 51.8669C63.882 51.9879 63.7981 52.1149 63.6627 52.1506L60.129 53.0824C59.9937 53.1181 59.8581 53.049 59.8263 52.9281C59.7945 52.8071 59.8784 52.6801 60.0138 52.6444L63.5475 51.7126C63.6829 51.6769 63.8184 51.746 63.8502 51.8669Z" fill="#42A0F0"/>
<path fill-rule="evenodd" clip-rule="evenodd" d="M53.5965 49.2515C53.6261 49.373 53.54 49.4989 53.4042 49.5327L49.9109 50.401C49.7751 50.4348 49.6409 50.3637 49.6112 50.2422C49.5816 50.1207 49.6677 49.9948 49.8035 49.961L53.2967 49.0927C53.4326 49.0589 53.5668 49.13 53.5965 49.2515Z" fill="#42A0F0"/>
<path fill-rule="evenodd" clip-rule="evenodd" d="M53.3546 49.5743C53.2193 49.6102 53.0836 49.5414 53.0515 49.4205L52.2137 46.2652C52.1816 46.1443 52.2652 46.0172 52.4005 45.9812C52.5359 45.9453 52.6716 46.0141 52.7037 46.135L53.5415 49.2903C53.5736 49.4112 53.4899 49.5383 53.3546 49.5743Z" fill="#42A0F0"/>
<path fill-rule="evenodd" clip-rule="evenodd" d="M40.4566 29.5031C40.5892 29.5031 40.6968 29.6106 40.6968 29.7432V42.7359C40.6968 42.8686 40.5892 42.9761 40.4566 42.9761C40.3239 42.9761 40.2164 42.8686 40.2164 42.7359V29.7432C40.2164 29.6106 40.3239 29.5031 40.4566 29.5031Z" fill="#42A0F0"/>
<path fill-rule="evenodd" clip-rule="evenodd" d="M43.1102 30.4465C43.2001 30.5441 43.1939 30.696 43.0964 30.7859L40.5905 33.0958C40.4929 33.1857 40.341 33.1795 40.2511 33.0819C40.1612 32.9844 40.1674 32.8325 40.2649 32.7426L42.7708 30.4327C42.8683 30.3428 43.0203 30.349 43.1102 30.4465Z" fill="#42A0F0"/>
<path fill-rule="evenodd" clip-rule="evenodd" d="M37.6614 30.4494C37.7497 30.3504 37.9016 30.3418 38.0005 30.4302L40.5873 32.74C40.6863 32.8284 40.6949 32.9802 40.6065 33.0791C40.5182 33.1781 40.3663 33.1867 40.2674 33.0983L37.6806 30.7885C37.5816 30.7001 37.573 30.5483 37.6614 30.4494Z" fill="#42A0F0"/>
<path fill-rule="evenodd" clip-rule="evenodd" d="M40.2511 39.6859C40.341 39.5884 40.4929 39.5822 40.5905 39.6721L43.0964 41.9819C43.1939 42.0718 43.2001 42.2238 43.1102 42.3213C43.0203 42.4189 42.8683 42.425 42.7708 42.3351L40.2649 40.0253C40.1674 39.9354 40.1612 39.7835 40.2511 39.6859Z" fill="#42A0F0"/>
<path fill-rule="evenodd" clip-rule="evenodd" d="M40.6065 39.6887C40.6949 39.7877 40.6863 39.9395 40.5873 40.0279L38.0005 42.3377C37.9016 42.426 37.7497 42.4175 37.6614 42.3185C37.573 42.2196 37.5816 42.0677 37.6806 41.9794L40.2674 39.6696C40.3663 39.5812 40.5182 39.5898 40.6065 39.6887Z" fill="#42A0F0"/>
<path fill-rule="evenodd" clip-rule="evenodd" d="M46.936 32.9353C47.008 33.0467 46.9708 33.1862 46.8529 33.247L34.2516 39.7434C34.1337 39.8042 33.9797 39.7631 33.9077 39.6517C33.8357 39.5403 33.8729 39.4008 33.9908 39.34L46.5921 32.8436C46.71 32.7828 46.864 32.8239 46.936 32.9353Z" fill="#42A0F0"/>
<path fill-rule="evenodd" clip-rule="evenodd" d="M47.3668 35.4974C47.3372 35.6189 47.203 35.69 47.0671 35.6563L43.5739 34.7879C43.438 34.7542 43.3519 34.6283 43.3816 34.5068C43.4113 34.3853 43.5454 34.3142 43.6813 34.3479L47.1745 35.2163C47.3104 35.25 47.3965 35.3759 47.3668 35.4974Z" fill="#42A0F0"/>
<path fill-rule="evenodd" clip-rule="evenodd" d="M44.5781 31.2364C44.7134 31.2723 44.7971 31.3995 44.765 31.5203L43.9272 34.6756C43.8951 34.7965 43.7594 34.8654 43.6241 34.8294C43.4887 34.7935 43.4051 34.6663 43.4372 34.5455L44.275 31.3902C44.3071 31.2693 44.4428 31.2004 44.5781 31.2364Z" fill="#42A0F0"/>
<path fill-rule="evenodd" clip-rule="evenodd" d="M36.9155 37.8576C37.0503 37.8954 37.1318 38.0236 37.0975 38.1439L36.2171 41.2367C36.1829 41.3569 36.0459 41.4238 35.9111 41.3859C35.7763 41.348 35.6948 41.2198 35.729 41.0995L36.6094 38.0068C36.6437 37.8865 36.7807 37.8197 36.9155 37.8576Z" fill="#42A0F0"/>
<path fill-rule="evenodd" clip-rule="evenodd" d="M37.1518 38.1833C37.12 38.3043 36.9845 38.3734 36.8491 38.3377L33.3154 37.4059C33.1801 37.3702 33.0961 37.2432 33.1279 37.1222C33.1598 37.0013 33.2953 36.9321 33.4307 36.9678L36.9643 37.8997C37.0997 37.9354 37.1837 38.0624 37.1518 38.1833Z" fill="#42A0F0"/>
<path fill-rule="evenodd" clip-rule="evenodd" d="M46.866 39.6518C46.794 39.7632 46.64 39.8042 46.5221 39.7435L33.9208 33.2471C33.8029 33.1863 33.7657 33.0467 33.8377 32.9354C33.9097 32.824 34.0637 32.7829 34.1816 32.8437L46.7829 39.3401C46.9008 39.4009 46.938 39.5404 46.866 39.6518Z" fill="#42A0F0"/>
<path fill-rule="evenodd" clip-rule="evenodd" d="M44.5828 41.2417C44.4481 41.2796 44.311 41.2128 44.2768 41.0925L43.3964 37.9998C43.3622 37.8795 43.4437 37.7513 43.5784 37.7134C43.7132 37.6755 43.8503 37.7423 43.8845 37.8626L44.7649 40.9554C44.7991 41.0756 44.7176 41.2039 44.5828 41.2417Z" fill="#42A0F0"/>
<path fill-rule="evenodd" clip-rule="evenodd" d="M47.3656 36.9779C47.3974 37.0989 47.3135 37.2258 47.1781 37.2615L43.6444 38.1934C43.509 38.2291 43.3735 38.16 43.3417 38.039C43.3099 37.9181 43.3938 37.7911 43.5292 37.7554L47.0629 36.8235C47.1982 36.7878 47.3338 36.8569 47.3656 36.9779Z" fill="#42A0F0"/>
<path fill-rule="evenodd" clip-rule="evenodd" d="M37.1118 34.3626C37.1415 34.4841 37.0554 34.61 36.9195 34.6438L33.4263 35.5121C33.2905 35.5459 33.1563 35.4747 33.1266 35.3532C33.0969 35.2317 33.183 35.1059 33.3189 35.0721L36.8121 34.2038C36.948 34.17 37.0822 34.2411 37.1118 34.3626Z" fill="#42A0F0"/>
<path fill-rule="evenodd" clip-rule="evenodd" d="M36.8697 34.6852C36.7344 34.7212 36.5987 34.6523 36.5666 34.5314L35.7288 31.3762C35.6967 31.2553 35.7804 31.1281 35.9157 31.0922C36.051 31.0562 36.1867 31.1251 36.2188 31.246L37.0566 34.4013C37.0887 34.5222 37.005 34.6493 36.8697 34.6852Z" fill="#42A0F0"/>
<path fill-rule="evenodd" clip-rule="evenodd" d="M27.3814 44.3922C27.514 44.3922 27.6216 44.4997 27.6216 44.6324V57.6251C27.6216 57.7578 27.514 57.8653 27.3814 57.8653C27.2487 57.8653 27.1412 57.7578 27.1412 57.6251V44.6324C27.1412 44.4997 27.2487 44.3922 27.3814 44.3922Z" fill="#42A0F0"/>
<path fill-rule="evenodd" clip-rule="evenodd" d="M30.0343 45.3356C30.1242 45.4331 30.118 45.5851 30.0205 45.675L27.5145 47.9848C27.417 48.0747 27.2651 48.0685 27.1752 47.971C27.0852 47.8734 27.0914 47.7215 27.189 47.6316L29.6949 45.3218C29.7924 45.2319 29.9444 45.238 30.0343 45.3356Z" fill="#42A0F0"/>
<path fill-rule="evenodd" clip-rule="evenodd" d="M24.5862 45.3385C24.6745 45.2396 24.8264 45.231 24.9253 45.3193L27.5121 47.6292C27.6111 47.7175 27.6197 47.8693 27.5313 47.9683C27.443 48.0672 27.2911 48.0758 27.1922 47.9875L24.6054 45.6776C24.5064 45.5893 24.4978 45.4375 24.5862 45.3385Z" fill="#42A0F0"/>
<path fill-rule="evenodd" clip-rule="evenodd" d="M27.1752 54.5751C27.2651 54.4775 27.417 54.4714 27.5145 54.5613L30.0205 56.8711C30.118 56.961 30.1242 57.1129 30.0343 57.2105C29.9444 57.308 29.7924 57.3142 29.6949 57.2243L27.189 54.9145C27.0914 54.8246 27.0852 54.6726 27.1752 54.5751Z" fill="#42A0F0"/>
<path fill-rule="evenodd" clip-rule="evenodd" d="M27.5313 54.5779C27.6197 54.6768 27.6111 54.8287 27.5121 54.917L24.9253 57.2269C24.8264 57.3152 24.6745 57.3066 24.5862 57.2077C24.4978 57.1087 24.5064 56.9569 24.6054 56.8685L27.1922 54.5587C27.2911 54.4704 27.443 54.4789 27.5313 54.5779Z" fill="#42A0F0"/>
<path fill-rule="evenodd" clip-rule="evenodd" d="M33.8608 47.8243C33.9328 47.9357 33.8956 48.0753 33.7777 48.1361L21.1764 54.6324C21.0585 54.6932 20.9045 54.6522 20.8325 54.5408C20.7605 54.4294 20.7977 54.2898 20.9156 54.229L33.5169 47.7327C33.6348 47.6719 33.7888 47.7129 33.8608 47.8243Z" fill="#42A0F0"/>
<path fill-rule="evenodd" clip-rule="evenodd" d="M34.2921 50.3866C34.2625 50.5081 34.1283 50.5792 33.9924 50.5454L30.4992 49.6771C30.3633 49.6433 30.2772 49.5175 30.3069 49.3959C30.3366 49.2744 30.4707 49.2033 30.6066 49.2371L34.0998 50.1054C34.2357 50.1392 34.3218 50.2651 34.2921 50.3866Z" fill="#42A0F0"/>
<path fill-rule="evenodd" clip-rule="evenodd" d="M31.5034 46.1257C31.6387 46.1616 31.7224 46.2888 31.6903 46.4096L30.8525 49.5649C30.8204 49.6858 30.6847 49.7547 30.5493 49.7187C30.414 49.6828 30.3304 49.5556 30.3625 49.4347L31.2003 46.2795C31.2324 46.1586 31.3681 46.0897 31.5034 46.1257Z" fill="#42A0F0"/>
<path fill-rule="evenodd" clip-rule="evenodd" d="M23.8405 52.7467C23.9753 52.7846 24.0568 52.9128 24.0226 53.0331L23.1422 56.1258C23.1079 56.2461 22.9709 56.3129 22.8361 56.2751C22.7013 56.2372 22.6198 56.109 22.6541 55.9887L23.5345 52.896C23.5687 52.7757 23.7057 52.7089 23.8405 52.7467Z" fill="#42A0F0"/>
<path fill-rule="evenodd" clip-rule="evenodd" d="M24.0774 53.0724C24.0456 53.1933 23.91 53.2624 23.7746 53.2267L20.241 52.2949C20.1056 52.2592 20.0217 52.1322 20.0535 52.0112C20.0853 51.8903 20.2208 51.8212 20.3562 51.8569L23.8899 52.7887C24.0252 52.8244 24.1092 52.9514 24.0774 53.0724Z" fill="#42A0F0"/>
<path fill-rule="evenodd" clip-rule="evenodd" d="M33.7911 54.5407C33.719 54.6521 33.5651 54.6932 33.4472 54.6324L20.8458 48.136C20.7279 48.0752 20.6907 47.9357 20.7628 47.8243C20.8348 47.7129 20.9888 47.6718 21.1067 47.7326L33.708 54.229C33.8259 54.2898 33.8631 54.4293 33.7911 54.5407Z" fill="#42A0F0"/>
<path fill-rule="evenodd" clip-rule="evenodd" d="M31.5081 56.1306C31.3734 56.1685 31.2363 56.1017 31.2021 55.9814L30.3217 52.8887C30.2874 52.7684 30.369 52.6402 30.5037 52.6023C30.6385 52.5644 30.7756 52.6313 30.8098 52.7515L31.6902 55.8443C31.7244 55.9646 31.6429 56.0928 31.5081 56.1306Z" fill="#42A0F0"/>
<path fill-rule="evenodd" clip-rule="evenodd" d="M34.2909 51.8668C34.3227 51.9878 34.2388 52.1148 34.1034 52.1505L30.5697 53.0823C30.4343 53.118 30.2988 53.0489 30.267 52.928C30.2352 52.807 30.3191 52.68 30.4545 52.6443L33.9882 51.7124C34.1235 51.6767 34.2591 51.7459 34.2909 51.8668Z" fill="#42A0F0"/>
<path fill-rule="evenodd" clip-rule="evenodd" d="M24.0376 49.2515C24.0673 49.373 23.9812 49.4989 23.8453 49.5327L20.3521 50.401C20.2162 50.4348 20.0821 50.3637 20.0524 50.2422C20.0227 50.1207 20.1088 49.9948 20.2447 49.961L23.7379 49.0927C23.8738 49.0589 24.008 49.13 24.0376 49.2515Z" fill="#42A0F0"/>
<path fill-rule="evenodd" clip-rule="evenodd" d="M23.795 49.5743C23.6597 49.6102 23.524 49.5414 23.4919 49.4205L22.6541 46.2652C22.622 46.1443 22.7057 46.0172 22.841 45.9812C22.9763 45.9453 23.112 46.0141 23.1441 46.135L23.9819 49.2903C24.014 49.4112 23.9303 49.5383 23.795 49.5743Z" fill="#42A0F0"/>
</g>
<g filter="url(#filter6_f_19_543)">
<path d="M17.3953 30.3003C14.511 30.3038 11.6924 29.5311 9.30707 28.083C7.14124 26.7722 5.41082 24.9647 4.29768 22.8504C3.18455 20.7361 2.7298 18.3931 2.98123 16.0676C3.23266 13.7422 4.18099 11.5201 5.72655 9.63499C7.2721 7.74988 9.35781 6.27133 11.7645 5.35473C13.5449 4.6783 15.4604 4.33123 17.3953 4.3345C17.9602 4.33451 18.5245 4.36377 19.0855 4.42214C18.7584 5.06077 18.5082 5.72859 18.339 6.41439C18.165 7.12221 18.0774 7.84476 18.0777 8.56941C18.074 10.558 18.7389 12.5017 19.9863 14.1491C20.7905 15.2116 21.8152 16.1266 23.0052 16.8447C23.6032 17.2054 24.239 17.5135 24.9036 17.7647C26.2798 18.2848 27.7595 18.5516 29.2539 18.549C30.1185 18.5492 30.9802 18.4604 31.822 18.2842C31.6235 20.7263 30.6541 23.0683 29.0262 25.0387C28.4995 25.6762 27.9091 26.2697 27.2621 26.8117C24.5918 29.0556 21.0622 30.3036 17.3953 30.3003Z" fill="#713FFD"/>
</g>
<g filter="url(#filter7_f_19_543)">
<path d="M14.8496 15.5318C18.0969 12.921 19.1078 9.19633 17.1074 7.21259C15.107 5.22885 10.8529 5.73719 7.60562 8.34801C4.3583 10.9588 3.34744 14.6835 5.3478 16.6672C7.34816 18.6509 11.6023 18.1426 14.8496 15.5318Z" fill="#A586FC"/>
</g>
<g filter="url(#filter8_f_19_543)">
<path d="M10.2893 0.979858L10.7754 2.02886L12.0894 2.418L10.7754 2.80715L10.2893 3.85615L9.80332 2.80715L8.48926 2.418L9.80332 2.02886L10.2893 0.979858Z" fill="url(#paint0_linear_19_543)"/>
<path d="M31.9849 25.8513L32.3941 26.7159L33.5007 27.0357L32.3941 27.3554L31.9849 28.22L31.5756 27.3554L30.469 27.0357L31.5756 26.7159L31.9849 25.8513Z" fill="url(#paint1_linear_19_543)"/>
<path d="M25.5432 4.29687L26.2142 5.08226L27.4106 5.14621L26.4105 5.73602L26.2696 6.7158L25.5986 5.92864L24.4022 5.86469L25.4023 5.27488L25.5432 4.29687Z" fill="url(#paint2_linear_19_543)"/>
<path d="M1.61047 23.9227L2.33449 24.531L3.46065 24.4304L2.59736 25.0839L2.58428 25.9709L1.86233 25.3622L0.736172 25.4628L1.59962 24.8096L1.61047 23.9227Z" fill="url(#paint3_linear_19_543)"/>
<path d="M24.9108 12.9991L24.1151 13.1431L23.6443 13.8795L23.5827 13.0333L22.9382 12.5925L23.7344 12.4489L24.205 11.7124L24.2663 12.5585L24.9108 12.9991Z" fill="url(#paint4_linear_19_543)"/>
</g>
<g filter="url(#filter9_d_19_543)">
<g filter="url(#filter10_d_19_543)">
<path d="M48.1468 39.6855C47.7805 39.7117 47.4106 39.725 47.037 39.7252H20.9786C19.1849 39.7312 17.4075 39.4209 15.7485 38.8121C14.0894 38.2033 12.5812 37.308 11.3105 36.1776C10.0398 35.0472 9.03158 33.7039 8.34362 32.2248C7.65565 30.7456 7.30151 29.1597 7.30151 27.5581C7.30151 25.9564 7.65565 24.3706 8.34362 22.8914C9.03158 21.4123 10.0398 20.0689 11.3105 18.9385C12.5812 17.8081 14.0894 16.9128 15.7485 16.3041C17.4075 15.6953 19.1849 15.385 20.9786 15.3909H30.6945C33.8445 9.20269 41.0992 4.87134 49.545 4.87134C60.8812 4.87134 70.0711 12.6737 70.0711 22.2983C70.0711 31.9229 60.8812 39.7252 49.545 39.7252C49.0751 39.7252 48.609 39.712 48.1468 39.6855Z" fill="url(#paint5_linear_19_543)"/>
<path d="M49.5454 39.5559C50.926 39.5559 52.3056 39.4378 53.6459 39.205C54.9521 38.978 56.2368 38.6395 57.4644 38.1986C58.6696 37.7658 59.8321 37.2301 60.9194 36.6065C61.9962 35.9888 63.0088 35.2795 63.929 34.4982C64.8491 33.7171 65.6843 32.8576 66.4116 31.9437C67.1456 31.0212 67.7761 30.0351 68.2854 29.0127C68.8041 27.9716 69.2024 26.8822 69.4694 25.7746C69.7432 24.6382 69.8821 23.4685 69.8821 22.2981C69.8821 21.1276 69.7432 19.958 69.4694 18.8216C69.2024 17.7141 68.8041 16.6246 68.2854 15.5836C67.7761 14.5612 67.1456 13.5751 66.4116 12.6526C65.6843 11.7387 64.8491 10.8792 63.9291 10.0981C63.0088 9.31681 61.9962 8.6075 60.9194 7.98983C59.8321 7.36617 58.6696 6.83049 57.4644 6.39769C56.2368 5.95685 54.9521 5.61827 53.6459 5.39135C52.3056 5.15849 50.926 5.04041 49.5454 5.04041C45.496 5.04041 41.5852 6.04751 38.2359 7.95282C36.6214 8.87125 35.1706 9.97983 33.9238 11.2478C32.6692 12.5237 31.6408 13.9412 30.8673 15.4608L30.8169 15.56H30.6948H20.979C19.165 15.56 17.4053 15.8772 15.7489 16.5028C14.9527 16.8034 14.1849 17.1756 13.4665 17.6089C12.755 18.0382 12.0859 18.5311 11.4778 19.0741C10.8697 19.6171 10.3177 20.2145 9.83694 20.8499C9.35166 21.4913 8.93486 22.177 8.59812 22.8878C7.89751 24.3669 7.54227 25.9382 7.54227 27.5579C7.54227 29.1777 7.89751 30.749 8.59812 32.228C8.93486 32.9389 9.35166 33.6246 9.83694 34.266C10.3177 34.9013 10.8697 35.4988 11.4778 36.0418C12.0859 36.5847 12.755 37.0777 13.4665 37.5069C14.1849 37.9403 14.9527 38.3124 15.7489 38.6131C17.4053 39.2387 19.165 39.5559 20.979 39.5559H47.0375C47.4019 39.5559 47.7702 39.5427 48.1321 39.5167L48.1458 39.5157L48.1595 39.5165C48.6179 39.5426 49.0842 39.5559 49.5454 39.5559ZM49.5454 39.7251C49.0756 39.7251 48.6093 39.7117 48.1474 39.6853C47.7815 39.7116 47.4109 39.7251 47.0375 39.7251H20.979C13.4535 39.7251 7.35278 34.2776 7.35278 27.5579C7.35278 20.8382 13.4535 15.3908 20.979 15.3908H30.6948C33.8449 9.2018 41.0992 4.87122 49.5454 4.87122C60.8817 4.87122 70.0716 12.6736 70.0716 22.2981C70.0716 31.9227 60.8817 39.7251 49.5454 39.7251Z" fill="white" fill-opacity="0.5"/>
</g>
</g>
<defs>
<filter id="filter0_f_19_543" x="28.8028" y="25.0243" width="1.99261" height="1.89727" filterUnits="userSpaceOnUse" color-interpolation-filters="sRGB">
<feFlood flood-opacity="0" result="BackgroundImageFix"/>
<feBlend mode="normal" in="SourceGraphic" in2="BackgroundImageFix" result="shape"/>
<feGaussianBlur stdDeviation="0.0800612" result="effect1_foregroundBlur_19_543"/>
</filter>
<filter id="filter1_f_19_543" x="51.3531" y="28.3388" width="3.12029" height="2.96661" filterUnits="userSpaceOnUse" color-interpolation-filters="sRGB">
<feFlood flood-opacity="0" result="BackgroundImageFix"/>
<feBlend mode="normal" in="SourceGraphic" in2="BackgroundImageFix" result="shape"/>
<feGaussianBlur stdDeviation="0.0800612" result="effect1_foregroundBlur_19_543"/>
</filter>
<filter id="filter2_f_19_543" x="68.4034" y="32.3239" width="2.63372" height="2.50726" filterUnits="userSpaceOnUse" color-interpolation-filters="sRGB">
<feFlood flood-opacity="0" result="BackgroundImageFix"/>
<feBlend mode="normal" in="SourceGraphic" in2="BackgroundImageFix" result="shape"/>
<feGaussianBlur stdDeviation="0.0800612" result="effect1_foregroundBlur_19_543"/>
</filter>
<filter id="filter3_f_19_543" x="10.5093" y="41.2554" width="2.3681" height="2.25616" filterUnits="userSpaceOnUse" color-interpolation-filters="sRGB">
<feFlood flood-opacity="0" result="BackgroundImageFix"/>
<feBlend mode="normal" in="SourceGraphic" in2="BackgroundImageFix" result="shape"/>
<feGaussianBlur stdDeviation="0.0800612" result="effect1_foregroundBlur_19_543"/>
</filter>
<filter id="filter4_f_19_543" x="40.1824" y="48.3512" width="2.00115" height="1.90557" filterUnits="userSpaceOnUse" color-interpolation-filters="sRGB">
<feFlood flood-opacity="0" result="BackgroundImageFix"/>
<feBlend mode="normal" in="SourceGraphic" in2="BackgroundImageFix" result="shape"/>
<feGaussianBlur stdDeviation="0.0800612" result="effect1_foregroundBlur_19_543"/>
</filter>
<filter id="filter5_f_19_543" x="19.7264" y="29.1828" width="44.4508" height="29.0027" filterUnits="userSpaceOnUse" color-interpolation-filters="sRGB">
<feFlood flood-opacity="0" result="BackgroundImageFix"/>
<feBlend mode="normal" in="SourceGraphic" in2="BackgroundImageFix" result="shape"/>
<feGaussianBlur stdDeviation="0.160122" result="effect1_foregroundBlur_19_543"/>
</filter>
<filter id="filter6_f_19_543" x="2.59357" y="4.01423" width="29.5487" height="26.6063" filterUnits="userSpaceOnUse" color-interpolation-filters="sRGB">
<feFlood flood-opacity="0" result="BackgroundImageFix"/>
<feBlend mode="normal" in="SourceGraphic" in2="BackgroundImageFix" result="shape"/>
<feGaussianBlur stdDeviation="0.160122" result="effect1_foregroundBlur_19_543"/>
</filter>
<filter id="filter7_f_19_543" x="2.71958" y="4.40122" width="17.0162" height="15.0773" filterUnits="userSpaceOnUse" color-interpolation-filters="sRGB">
<feFlood flood-opacity="0" result="BackgroundImageFix"/>
<feBlend mode="normal" in="SourceGraphic" in2="BackgroundImageFix" result="shape"/>
<feGaussianBlur stdDeviation="0.800612" result="effect1_foregroundBlur_19_543"/>
</filter>
<filter id="filter8_f_19_543" x="0.575962" y="0.819736" width="33.0849" height="27.5604" filterUnits="userSpaceOnUse" color-interpolation-filters="sRGB">
<feFlood flood-opacity="0" result="BackgroundImageFix"/>
<feBlend mode="normal" in="SourceGraphic" in2="BackgroundImageFix" result="shape"/>
<feGaussianBlur stdDeviation="0.0800612" result="effect1_foregroundBlur_19_543"/>
</filter>
<filter id="filter9_d_19_543" x="5.70029" y="2.6295" width="67.5737" height="39.6578" filterUnits="userSpaceOnUse" color-interpolation-filters="sRGB">
<feFlood flood-opacity="0" result="BackgroundImageFix"/>
<feColorMatrix in="SourceAlpha" type="matrix" values="0 0 0 0 0 0 0 0 0 0 0 0 0 0 0 0 0 0 127 0" result="hardAlpha"/>
<feOffset dx="0.800612" dy="0.160122"/>
<feGaussianBlur stdDeviation="1.20092"/>
<feColorMatrix type="matrix" values="0 0 0 0 0.258824 0 0 0 0 0.627451 0 0 0 0 0.941176 0 0 0 0.596 0"/>
<feBlend mode="normal" in2="BackgroundImageFix" result="effect1_dropShadow_19_543"/>
<feBlend mode="normal" in="SourceGraphic" in2="effect1_dropShadow_19_543" result="shape"/>
</filter>
<filter id="filter10_d_19_543" x="5.70029" y="2.6295" width="67.5737" height="39.6578" filterUnits="userSpaceOnUse" color-interpolation-filters="sRGB">
<feFlood flood-opacity="0" result="BackgroundImageFix"/>
<feColorMatrix in="SourceAlpha" type="matrix" values="0 0 0 0 0 0 0 0 0 0 0 0 0 0 0 0 0 0 127 0" result="hardAlpha"/>
<feOffset dx="0.800612" dy="0.160122"/>
<feGaussianBlur stdDeviation="1.20092"/>
<feColorMatrix type="matrix" values="0 0 0 0 0.501961 0 0 0 0 0.501961 0 0 0 0 0.501961 0 0 0 0.302 0"/>
<feBlend mode="normal" in2="BackgroundImageFix" result="effect1_dropShadow_19_543"/>
<feBlend mode="normal" in="SourceGraphic" in2="effect1_dropShadow_19_543" result="shape"/>
</filter>
<linearGradient id="paint0_linear_19_543" x1="10.2893" y1="0.979858" x2="10.2893" y2="3.85615" gradientUnits="userSpaceOnUse">
<stop stop-color="#6B38FC"/>
<stop offset="1" stop-color="#9F7EFD"/>
</linearGradient>
<linearGradient id="paint1_linear_19_543" x1="31.9849" y1="25.8513" x2="31.9849" y2="28.22" gradientUnits="userSpaceOnUse">
<stop stop-color="#6B38FC"/>
<stop offset="1" stop-color="#9F7EFD"/>
</linearGradient>
<linearGradient id="paint2_linear_19_543" x1="25.5435" y1="4.2968" x2="26.1306" y2="6.74906" gradientUnits="userSpaceOnUse">
<stop stop-color="#6B38FC"/>
<stop offset="1" stop-color="#9F7EFD"/>
</linearGradient>
<linearGradient id="paint3_linear_19_543" x1="1.61143" y1="23.9224" x2="2.41266" y2="26.036" gradientUnits="userSpaceOnUse">
<stop stop-color="#6B38FC"/>
<stop offset="1" stop-color="#9F7EFD"/>
</linearGradient>
<linearGradient id="paint4_linear_19_543" x1="24.9107" y1="12.9993" x2="22.9633" y2="12.4957" gradientUnits="userSpaceOnUse">
<stop stop-color="#6B38FC"/>
<stop offset="1" stop-color="#9F7EFD"/>
</linearGradient>
<linearGradient id="paint5_linear_19_543" x1="32.7232" y1="9.26294" x2="42.9209" y2="42.329" gradientUnits="userSpaceOnUse">
<stop stop-color="white" stop-opacity="0.596"/>
<stop offset="1" stop-color="#F7F7F7" stop-opacity="0.204"/>
</linearGradient>
</defs>
</svg>
