<svg width="73" height="50" viewBox="0 0 73 50" fill="none" xmlns="http://www.w3.org/2000/svg">
<g filter="url(#filter0_f_19_72)">
<path fill-rule="evenodd" clip-rule="evenodd" d="M38.727 24.912C39.7086 24.5448 40.8688 24.4918 42.2049 24.9359C44.8927 25.8293 46.2688 28.111 46.2698 30.3614C46.2708 32.6185 44.8847 34.8304 42.1636 35.5357C39.6572 36.1853 35.6443 36.3651 32.3184 36.3902C30.6429 36.4028 29.1201 36.3761 28.0164 36.3462C27.4644 36.3312 27.0167 36.3154 26.7067 36.3034C26.5517 36.2974 26.4311 36.2923 26.349 36.2887L26.2553 36.2845L26.2231 36.283C26.223 36.283 26.2224 36.283 26.2533 35.6432L26.2842 35.0035L26.3142 35.0049L26.405 35.009C26.4851 35.0125 26.6036 35.0175 26.7564 35.0234C27.062 35.0353 27.5046 35.0508 28.0511 35.0657C29.1444 35.0953 30.6518 35.1218 32.3088 35.1093C35.648 35.0841 39.5099 34.9002 41.8422 34.2957C43.9597 33.7469 44.9896 32.0758 44.9888 30.362C44.9881 28.6414 43.9449 26.8641 41.8009 26.1515C40.7211 25.7926 39.8629 25.8547 39.1758 26.1118C38.477 26.3732 37.9042 26.856 37.4434 27.4151C36.9826 27.9742 36.6527 28.587 36.437 29.0671C36.33 29.3056 36.2529 29.5071 36.2032 29.6472C36.1783 29.7171 36.1604 29.7713 36.1491 29.8068C36.1435 29.8245 36.1395 29.8376 36.1371 29.8455L36.1347 29.8535M36.1347 29.8535C36.0366 30.1931 35.6818 30.3896 35.342 30.2918C35.0021 30.1939 34.8058 29.839 34.9037 29.4991L35.5192 29.6763C34.9037 29.4991 34.9036 29.4994 34.9037 29.4991L34.9046 29.496L34.9061 29.4908L34.9111 29.4742C34.9152 29.4605 34.9211 29.4415 34.9287 29.4176C34.9439 29.3698 34.9662 29.3024 34.996 29.2185C35.0555 29.051 35.1452 28.8168 35.2685 28.5423C35.5136 27.9966 35.8987 27.2752 36.4548 26.6004C37.011 25.9256 37.7571 25.2749 38.727 24.912M25.6135 35.6124C25.6306 35.259 25.9309 34.9864 26.2842 35.0035L26.2533 35.6432L26.2231 36.283C25.8698 36.266 25.5965 35.9657 25.6135 35.6124Z" fill="#D0D0D0"/>
<path fill-rule="evenodd" clip-rule="evenodd" d="M12.0845 43.8236C12.0844 43.8236 12.0844 43.8236 12.0329 43.1851C11.9814 42.5467 11.9815 42.5467 11.9816 42.5467L12.0298 42.5429L12.1697 42.532C12.2925 42.5226 12.4731 42.5089 12.7053 42.4921C13.1697 42.4583 13.8408 42.4117 14.6684 42.3598C16.3233 42.2562 18.6059 42.1318 21.1157 42.0488C26.1128 41.8837 32.0865 41.8794 35.7789 42.5551C37.633 42.8944 38.9508 43.4039 39.8076 44.0282C40.6759 44.661 41.1243 45.4611 41.0487 46.3187C40.9762 47.1418 40.435 47.8255 39.755 48.2917C39.0654 48.7646 38.1629 49.0683 37.1975 49.1172C35.3576 49.2103 33.6141 48.7183 32.3508 48.2199C31.7151 47.969 31.1908 47.7125 30.8239 47.5177C30.6402 47.4203 30.4954 47.3379 30.3951 47.2791C30.345 47.2497 30.3059 47.2261 30.2786 47.2095L30.2467 47.1897L30.2375 47.184L30.2346 47.1822L30.2336 47.1815C30.2335 47.1814 30.233 47.1811 30.5389 46.6999L30.2336 47.1815C29.9351 46.9917 29.8463 46.5955 30.0361 46.297C30.2258 45.9986 30.6213 45.9104 30.9198 46.0998L30.9248 46.103L30.9472 46.1168C30.968 46.1295 31.0002 46.1489 31.0432 46.1742C31.1292 46.2246 31.2582 46.298 31.4245 46.3863C31.7575 46.563 32.2379 46.7982 32.8209 47.0283C33.9953 47.4917 35.546 47.9182 37.1327 47.8379C37.8806 47.8 38.5509 47.5642 39.0306 47.2352C39.5201 46.8997 39.7451 46.5191 39.7727 46.2062C39.7972 45.9278 39.6796 45.52 39.0532 45.0635C38.4152 44.5986 37.3093 44.1374 35.5483 43.8152C32.0104 43.1678 26.1687 43.1635 21.158 43.3291C18.664 43.4116 16.3945 43.5352 14.7484 43.6383C13.9255 43.6899 13.2588 43.7362 12.7981 43.7697C12.5677 43.7864 12.3889 43.7999 12.2679 43.8092L12.1304 43.8199L12.0845 43.8236ZM11.3944 43.2366C11.366 42.8841 11.629 42.5752 11.9816 42.5467L12.0329 43.1851L12.0845 43.8236C11.7319 43.852 11.4229 43.5892 11.3944 43.2366Z" fill="#D0D0D0"/>
</g>
<g filter="url(#filter1_f_19_72)">
<path d="M63.3193 39.5076C63.6377 39.5108 66.8682 44.0145 66.8682 45.7645C66.8682 46.1807 66.7764 46.5927 66.5981 46.9772C66.4197 47.3616 66.1583 47.711 65.8288 48.0052C65.1633 48.5995 64.2606 48.9334 63.3194 48.9334C62.3782 48.9335 61.4756 48.5996 60.81 48.0054C60.1444 47.4111 59.7705 46.6051 59.7705 45.7647C59.7705 44.0145 63.001 39.5045 63.3193 39.5076Z" fill="#42A0F0"/>
<path d="M60.614 46.9494C60.9686 47.0462 61.4192 46.6479 61.6206 46.0599C61.8219 45.4718 61.6977 44.9166 61.3432 44.8198C60.9886 44.723 60.5379 45.1213 60.3366 45.7093C60.1352 46.2974 60.2594 46.8526 60.614 46.9494Z" fill="white"/>
<path d="M52.7512 32.4309C53.0809 32.4341 56.4271 37.0986 56.4271 38.911C56.4271 39.7816 56.0398 40.6164 55.3505 41.232C54.6611 41.8476 53.7261 42.1934 52.7512 42.1934C51.7762 42.1934 50.8412 41.8476 50.1519 41.232C49.4625 40.6164 49.0752 39.7816 49.0752 38.911C49.0752 37.0986 52.4209 32.4277 52.7512 32.4309Z" fill="#42A0F0"/>
<path d="M49.9485 40.1379C50.3158 40.2381 50.7825 39.8257 50.9911 39.2167C51.1996 38.6078 51.0709 38.0328 50.7036 37.9325C50.3363 37.8323 49.8695 38.2447 49.661 38.8536C49.4525 39.4626 49.5812 40.0376 49.9485 40.1379Z" fill="white"/>
</g>
<g filter="url(#filter2_f_19_72)">
<path d="M17.1968 30.1066C14.325 30.1099 11.5187 29.3405 9.14375 27.8988C6.98682 26.5937 5.26346 24.7939 4.15481 22.6885C3.04616 20.5832 2.59316 18.25 2.84344 15.9343C3.09371 13.6186 4.03802 11.4058 5.57709 9.5286C7.11617 7.6514 9.19317 6.17908 11.5898 5.26641C13.3627 4.5931 15.2701 4.24776 17.1968 4.25125C17.759 4.2513 18.3207 4.28045 18.8792 4.33855C18.5534 4.97452 18.3042 5.63957 18.1357 6.32251C17.9625 7.02728 17.8753 7.7467 17.8755 8.46823C17.8721 10.4483 18.5345 12.3838 19.7768 14.024C20.5774 15.082 21.5977 15.9931 22.7825 16.7081C23.378 17.0673 24.0111 17.3741 24.6728 17.6243C26.0432 18.1422 27.5165 18.4077 29.0046 18.4051C29.8658 18.4055 30.7241 18.317 31.5626 18.1415C31.3649 20.5733 30.3997 22.9053 28.7787 24.8673C28.2544 25.5021 27.6664 26.0931 27.0222 26.6328C24.3631 28.8673 20.8482 30.11 17.1968 30.1066Z" fill="#713FFD"/>
</g>
<g filter="url(#filter3_f_19_72)">
<path d="M14.6617 15.4008C17.8952 12.8011 18.9018 9.09234 16.91 7.11707C14.9181 5.1418 10.6822 5.64799 7.44872 8.24768C4.21525 10.8474 3.20868 14.5561 5.2005 16.5314C7.19232 18.5066 11.4283 18.0005 14.6617 15.4008Z" fill="#A586FC"/>
</g>
<g filter="url(#filter4_f_19_72)">
<path d="M10.1965 0.910889L10.6778 1.97173L11.979 2.36409L10.6778 2.75645L10.1965 3.8173L9.71524 2.75645L8.41406 2.36409L9.71524 1.97173L10.1965 0.910889Z" fill="url(#paint0_linear_19_72)"/>
<path d="M31.7408 25.6846L32.1387 26.5434L33.2136 26.861L32.1383 27.1785L31.7404 28.0374L31.3432 27.1785L30.2683 26.861L31.3432 26.5434L31.7408 25.6846Z" fill="url(#paint1_linear_19_72)"/>
<path d="M25.3098 4.21405L25.9778 4.99558L27.1683 5.05885L26.173 5.64543L26.0324 6.62056L25.3643 5.83903L24.1738 5.77576L25.1692 5.18919L25.3098 4.21405Z" fill="url(#paint2_linear_19_72)"/>
<path d="M1.47992 23.7557L2.20032 24.3611L3.32125 24.2612L2.4618 24.912L2.44924 25.7953L1.72884 25.1898L0.60861 25.2895L1.46771 24.6389L1.47992 23.7557Z" fill="url(#paint3_linear_19_72)"/>
<path d="M24.6801 12.8791L23.8882 13.0227L23.4195 13.7556L23.358 12.9134L22.7167 12.4744L23.5086 12.3308L23.9773 11.5979L24.0388 12.4401L24.6801 12.8791Z" fill="url(#paint4_linear_19_72)"/>
</g>
<g filter="url(#filter5_df_19_72)">
<g filter="url(#filter6_d_19_72)">
<path d="M46.8841 39.1088C46.5178 39.1351 46.1479 39.1483 45.7743 39.1486H19.7159C17.9222 39.1545 16.1449 38.8442 14.4858 38.2354C12.8267 37.6267 11.3185 36.7314 10.0478 35.601C8.77714 34.4706 7.76889 33.1272 7.08092 31.6481C6.39296 30.1689 6.03882 28.5831 6.03882 26.9814C6.03882 25.3798 6.39296 23.7939 7.08092 22.3148C7.76889 20.8356 8.77714 19.4923 10.0478 18.3619C11.3185 17.2315 12.8267 16.3362 14.4858 15.7274C16.1449 15.1186 17.9222 14.8083 19.7159 14.8143H29.4318C32.5818 8.62603 39.8365 4.29468 48.2823 4.29468C59.6185 4.29468 68.8084 12.097 68.8084 21.7216C68.8084 31.3462 59.6185 39.1486 48.2823 39.1486C47.8124 39.1486 47.3463 39.1353 46.8841 39.1088Z" fill="url(#paint5_linear_19_72)"/>
<path d="M48.2825 38.9794C49.663 38.9794 51.0426 38.8613 52.383 38.6284C53.6891 38.4015 54.9739 38.0629 56.2015 37.6221C57.4067 37.1893 58.5691 36.6536 59.6564 36.0299C60.7333 35.4123 61.7459 34.7029 62.6661 33.9217C63.5862 33.1406 64.4214 32.2811 65.1487 31.3671C65.8827 30.4446 66.5132 29.4585 67.0225 28.4361C67.5411 27.3951 67.9395 26.3056 68.2064 25.1981C68.4803 24.0617 68.6192 22.892 68.6192 21.7215C68.6192 20.5511 68.4803 19.3814 68.2064 18.2451C67.9395 17.1375 67.5411 16.0481 67.0225 15.007C66.5132 13.9847 65.8827 12.9986 65.1487 12.0761C64.4214 11.1621 63.5862 10.3027 62.6661 9.52154C61.7459 8.74027 60.7333 8.03096 59.6564 7.4133C58.5691 6.78963 57.4067 6.25395 56.2015 5.82116C54.9739 5.38032 53.6891 5.04173 52.383 4.81481C51.0426 4.58195 49.663 4.46387 48.2825 4.46387C44.2331 4.46387 40.3223 5.47097 36.973 7.37628C35.3585 8.29471 33.9077 9.40329 32.6609 10.6712C31.4062 11.9472 30.3779 13.3646 29.6044 14.8842L29.5539 14.9834H29.4319H19.7161C17.902 14.9834 16.1424 15.3006 14.4859 15.9262C13.6898 16.2269 12.9219 16.5991 12.2036 17.0324C11.4921 17.4616 10.823 17.9546 10.2149 18.4976C9.60678 19.0405 9.05471 19.638 8.574 20.2734C8.08872 20.9148 7.67192 21.6004 7.33518 22.3113C6.63457 23.7904 6.27933 25.3616 6.27933 26.9814C6.27933 28.6012 6.63457 30.1724 7.33518 31.6515C7.67192 32.3624 8.08872 33.048 8.574 33.6894C9.05471 34.3248 9.60678 34.9223 10.2149 35.4652C10.823 36.0082 11.4921 36.5012 12.2036 36.9304C12.9219 37.3637 13.6898 37.7359 14.4859 38.0366C16.1424 38.6622 17.902 38.9794 19.7161 38.9794H45.7746C46.1389 38.9794 46.5072 38.9662 46.8692 38.9401L46.8829 38.9391L46.8965 38.9399C47.3549 38.9661 47.8212 38.9794 48.2825 38.9794ZM48.2825 39.1486C47.8127 39.1486 47.3464 39.1351 46.8844 39.1088C46.5186 39.1351 46.148 39.1486 45.7746 39.1486H19.7161C12.1905 39.1486 6.08984 33.7011 6.08984 26.9814C6.08984 20.2617 12.1905 14.8142 19.7161 14.8142H29.4319C32.582 8.62526 39.8363 4.29468 48.2825 4.29468C59.6187 4.29468 68.8087 12.0971 68.8087 21.7215C68.8087 31.3462 59.6187 39.1486 48.2825 39.1486Z" fill="white" fill-opacity="0.5"/>
</g>
</g>
<defs>
<filter id="filter0_f_19_72" x="11.0721" y="24.2994" width="35.5179" height="25.1495" filterUnits="userSpaceOnUse" color-interpolation-filters="sRGB">
<feFlood flood-opacity="0" result="BackgroundImageFix"/>
<feBlend mode="normal" in="SourceGraphic" in2="BackgroundImageFix" result="shape"/>
<feGaussianBlur stdDeviation="0.160122" result="effect1_foregroundBlur_19_72"/>
</filter>
<filter id="filter1_f_19_72" x="48.755" y="32.1107" width="18.4335" height="17.1429" filterUnits="userSpaceOnUse" color-interpolation-filters="sRGB">
<feFlood flood-opacity="0" result="BackgroundImageFix"/>
<feBlend mode="normal" in="SourceGraphic" in2="BackgroundImageFix" result="shape"/>
<feGaussianBlur stdDeviation="0.160122" result="effect1_foregroundBlur_19_72"/>
</filter>
<filter id="filter2_f_19_72" x="2.45612" y="3.93098" width="29.4266" height="26.4957" filterUnits="userSpaceOnUse" color-interpolation-filters="sRGB">
<feFlood flood-opacity="0" result="BackgroundImageFix"/>
<feBlend mode="normal" in="SourceGraphic" in2="BackgroundImageFix" result="shape"/>
<feGaussianBlur stdDeviation="0.160122" result="effect1_foregroundBlur_19_72"/>
</filter>
<filter id="filter3_f_19_72" x="2.57676" y="4.31089" width="16.9571" height="15.0267" filterUnits="userSpaceOnUse" color-interpolation-filters="sRGB">
<feFlood flood-opacity="0" result="BackgroundImageFix"/>
<feBlend mode="normal" in="SourceGraphic" in2="BackgroundImageFix" result="shape"/>
<feGaussianBlur stdDeviation="0.800612" result="effect1_foregroundBlur_19_72"/>
</filter>
<filter id="filter4_f_19_72" x="0.44852" y="0.750766" width="32.9252" height="27.4467" filterUnits="userSpaceOnUse" color-interpolation-filters="sRGB">
<feFlood flood-opacity="0" result="BackgroundImageFix"/>
<feBlend mode="normal" in="SourceGraphic" in2="BackgroundImageFix" result="shape"/>
<feGaussianBlur stdDeviation="0.0800612" result="effect1_foregroundBlur_19_72"/>
</filter>
<filter id="filter5_df_19_72" x="4.4376" y="2.05297" width="67.5734" height="39.6577" filterUnits="userSpaceOnUse" color-interpolation-filters="sRGB">
<feFlood flood-opacity="0" result="BackgroundImageFix"/>
<feColorMatrix in="SourceAlpha" type="matrix" values="0 0 0 0 0 0 0 0 0 0 0 0 0 0 0 0 0 0 127 0" result="hardAlpha"/>
<feOffset dx="0.800612" dy="0.160122"/>
<feGaussianBlur stdDeviation="1.20092"/>
<feColorMatrix type="matrix" values="0 0 0 0 0.258824 0 0 0 0 0.627451 0 0 0 0 0.941176 0 0 0 0.596 0"/>
<feBlend mode="normal" in2="BackgroundImageFix" result="effect1_dropShadow_19_72"/>
<feBlend mode="normal" in="SourceGraphic" in2="effect1_dropShadow_19_72" result="shape"/>
<feGaussianBlur stdDeviation="0.160122" result="effect2_foregroundBlur_19_72"/>
</filter>
<filter id="filter6_d_19_72" x="4.4376" y="2.05297" width="67.5734" height="39.6577" filterUnits="userSpaceOnUse" color-interpolation-filters="sRGB">
<feFlood flood-opacity="0" result="BackgroundImageFix"/>
<feColorMatrix in="SourceAlpha" type="matrix" values="0 0 0 0 0 0 0 0 0 0 0 0 0 0 0 0 0 0 127 0" result="hardAlpha"/>
<feOffset dx="0.800612" dy="0.160122"/>
<feGaussianBlur stdDeviation="1.20092"/>
<feColorMatrix type="matrix" values="0 0 0 0 0.501961 0 0 0 0 0.501961 0 0 0 0 0.501961 0 0 0 0.302 0"/>
<feBlend mode="normal" in2="BackgroundImageFix" result="effect1_dropShadow_19_72"/>
<feBlend mode="normal" in="SourceGraphic" in2="effect1_dropShadow_19_72" result="shape"/>
</filter>
<linearGradient id="paint0_linear_19_72" x1="10.1965" y1="0.910889" x2="10.1965" y2="3.8173" gradientUnits="userSpaceOnUse">
<stop stop-color="#6B38FC"/>
<stop offset="1" stop-color="#9F7EFD"/>
</linearGradient>
<linearGradient id="paint1_linear_19_72" x1="31.741" y1="25.6846" x2="31.741" y2="28.0374" gradientUnits="userSpaceOnUse">
<stop stop-color="#6B38FC"/>
<stop offset="1" stop-color="#9F7EFD"/>
</linearGradient>
<linearGradient id="paint2_linear_19_72" x1="25.3098" y1="4.21405" x2="25.8938" y2="6.65372" gradientUnits="userSpaceOnUse">
<stop stop-color="#6B38FC"/>
<stop offset="1" stop-color="#9F7EFD"/>
</linearGradient>
<linearGradient id="paint3_linear_19_72" x1="1.4801" y1="23.7556" x2="2.27792" y2="25.8602" gradientUnits="userSpaceOnUse">
<stop stop-color="#6B38FC"/>
<stop offset="1" stop-color="#9F7EFD"/>
</linearGradient>
<linearGradient id="paint4_linear_19_72" x1="24.6801" y1="12.8791" x2="22.7417" y2="12.3779" gradientUnits="userSpaceOnUse">
<stop stop-color="#6B38FC"/>
<stop offset="1" stop-color="#9F7EFD"/>
</linearGradient>
<linearGradient id="paint5_linear_19_72" x1="31.4605" y1="8.68628" x2="41.6582" y2="41.7524" gradientUnits="userSpaceOnUse">
<stop stop-color="white" stop-opacity="0.596"/>
<stop offset="1" stop-color="#F7F7F7" stop-opacity="0.204"/>
</linearGradient>
</defs>
</svg>
