<svg width="70" height="47" viewBox="0 0 70 47" fill="none" xmlns="http://www.w3.org/2000/svg">
<g filter="url(#filter0_f_19_1596)">
<path d="M20.1643 31.8184C28.6408 31.8184 35.5124 25.6826 35.5124 18.1137C35.5124 10.5448 28.6408 4.40906 20.1643 4.40906C11.6877 4.40906 4.81616 10.5448 4.81616 18.1137C4.81616 25.6826 11.6877 31.8184 20.1643 31.8184Z" fill="#FA9E42"/>
</g>
<g filter="url(#filter1_f_19_1596)">
<path fill-rule="evenodd" clip-rule="evenodd" d="M20.1207 0.794109L20.1638 0.794067L20.2069 0.794109C20.4279 0.794541 20.6068 0.974113 20.6064 1.1952C20.606 1.41628 20.4264 1.59515 20.2053 1.59472L20.1638 1.59468L20.1222 1.59472C19.9011 1.59515 19.7216 1.41628 19.7211 1.1952C19.7207 0.974114 19.8996 0.794541 20.1207 0.794109ZM25.3104 1.82191C25.3684 1.60859 25.5884 1.48273 25.8017 1.54079L25.8842 1.56341C26.0973 1.62235 26.2222 1.84286 26.1633 2.05595C26.1044 2.26903 25.8838 2.39399 25.6708 2.33505L25.5915 2.3133C25.3782 2.25523 25.2523 2.03523 25.3104 1.82191ZM15.0172 1.82191C15.0752 2.03523 14.9494 2.25524 14.7361 2.3133L14.6568 2.33505C14.4437 2.39399 14.2232 2.26903 14.1642 2.05595C14.1053 1.84286 14.2303 1.62235 14.4433 1.56341L14.5258 1.54079C14.7391 1.48273 14.9591 1.60859 15.0172 1.82191ZM30.5189 3.93726C30.6343 3.74867 30.8807 3.68932 31.0693 3.80469L31.1426 3.84978C31.3307 3.96599 31.389 4.21266 31.2728 4.40074C31.1566 4.58882 30.9099 4.64709 30.7218 4.53089L30.6515 4.48764C30.4629 4.37227 30.4035 4.12585 30.5189 3.93726ZM9.80864 3.93726C9.92401 4.12586 9.86466 4.37227 9.67607 4.48764L9.60571 4.53089C9.41763 4.64709 9.17096 4.58882 9.05476 4.40074C8.93856 4.21266 8.99683 3.96599 9.18491 3.84979L9.25826 3.80469C9.44685 3.68932 9.69326 3.74867 9.80864 3.93726ZM34.8938 7.46321C35.0608 7.31839 35.3137 7.33641 35.4585 7.50345L35.5147 7.5686C35.6587 7.73634 35.6395 7.98907 35.4717 8.13308C35.304 8.27709 35.0512 8.25785 34.9072 8.09011L34.8536 8.0279C34.7087 7.86086 34.7267 7.60804 34.8938 7.46321ZM5.43374 7.46322C5.60078 7.60804 5.6188 7.86086 5.47398 8.0279L5.42031 8.09011C5.2763 8.25786 5.02357 8.2771 4.85583 8.13308C4.68808 7.98907 4.66884 7.73634 4.81285 7.5686L4.86905 7.50346C5.01387 7.33641 5.26669 7.3184 5.43374 7.46322ZM37.9233 12.1888C38.1293 12.1087 38.3613 12.2108 38.4414 12.4168L38.4725 12.4973C38.5515 12.7038 38.4482 12.9353 38.2417 13.0143C38.0352 13.0933 37.8038 12.99 37.7248 12.7835L37.6953 12.707C37.6151 12.5009 37.7172 12.2689 37.9233 12.1888ZM2.40426 12.1888C2.61031 12.2689 2.71239 12.5009 2.63227 12.707L2.60276 12.7835C2.52375 12.99 2.29231 13.0933 2.08583 13.0143C1.87934 12.9353 1.77601 12.7038 1.85502 12.4973L1.88609 12.4168C1.96621 12.2108 2.1982 12.1087 2.40426 12.1888ZM39.1109 17.6711C39.332 17.6705 39.5117 17.8492 39.5123 18.0703L39.5124 18.1137L39.5123 18.1571C39.5117 18.3782 39.332 18.5569 39.1109 18.5563C38.8898 18.5557 38.7111 18.376 38.7117 18.1549L38.7117 18.1137L38.7117 18.0725C38.7111 17.8514 38.8898 17.6717 39.1109 17.6711ZM1.21665 17.6711C1.43773 17.6717 1.61646 17.8514 1.61585 18.0725L1.6158 18.1137L1.61585 18.1549C1.61646 18.376 1.43773 18.5557 1.21665 18.5563C0.995565 18.5569 0.815851 18.3782 0.815245 18.1571L0.815186 18.1137L0.815245 18.0703C0.815851 17.8492 0.995565 17.6705 1.21665 17.6711ZM38.2417 23.2132C38.4482 23.2922 38.5515 23.5236 38.4725 23.7301L38.4415 23.8106C38.3613 24.0167 38.1293 24.1188 37.9233 24.0387C37.7172 23.9585 37.6151 23.7265 37.6953 23.5205L37.7248 23.444C37.8038 23.2375 38.0352 23.1342 38.2417 23.2132ZM2.08583 23.2132C2.29231 23.1342 2.52375 23.2375 2.60276 23.444L2.63227 23.5205C2.71239 23.7265 2.61031 23.9585 2.40426 24.0387C2.1982 24.1188 1.96621 24.0167 1.88609 23.8106L1.85502 23.7301C1.77601 23.5236 1.87935 23.2922 2.08583 23.2132ZM35.4717 28.0944C35.6395 28.2384 35.6587 28.4911 35.5147 28.6589L35.4585 28.724C35.3137 28.891 35.0608 28.9091 34.8938 28.7642C34.7268 28.6194 34.7087 28.3666 34.8536 28.1996L34.9072 28.1373C35.0512 27.9696 35.304 27.9504 35.4717 28.0944ZM4.85583 28.0944C5.02357 27.9504 5.2763 27.9696 5.42031 28.1373L5.47398 28.1996C5.6188 28.3666 5.60079 28.6194 5.43374 28.7642C5.2667 28.9091 5.01388 28.891 4.86906 28.724L4.81286 28.6589C4.66884 28.4911 4.68808 28.2384 4.85583 28.0944ZM31.2728 31.8267C31.389 32.0148 31.3307 32.2615 31.1426 32.3777L31.0693 32.4228C30.8807 32.5381 30.6343 32.4788 30.5189 32.2902C30.4035 32.1016 30.4629 31.8552 30.6515 31.7398L30.7218 31.6966C30.9099 31.5804 31.1566 31.6386 31.2728 31.8267ZM9.05476 31.8267C9.17096 31.6386 9.41763 31.5804 9.60572 31.6966L9.67607 31.7398C9.86466 31.8552 9.92401 32.1016 9.80864 32.2902C9.69326 32.4788 9.44685 32.5381 9.25826 32.4228L9.18492 32.3777C8.99683 32.2615 8.93856 32.0148 9.05476 31.8267ZM14.1642 34.1715C14.2232 33.9584 14.4437 33.8335 14.6568 33.8924L14.7361 33.9142C14.9494 33.9722 15.0752 34.1922 15.0172 34.4055C14.9591 34.6189 14.7391 34.7447 14.5258 34.6867L14.4433 34.664C14.2303 34.6051 14.1053 34.3846 14.1642 34.1715ZM26.1633 34.1715C26.2222 34.3846 26.0973 34.6051 25.8842 34.664L25.8018 34.6867C25.5884 34.7447 25.3684 34.6189 25.3104 34.4055C25.2523 34.1922 25.3782 33.9722 25.5915 33.9142L25.6708 33.8924C25.8838 33.8335 26.1044 33.9584 26.1633 34.1715ZM19.7211 35.0323C19.7216 34.8112 19.9012 34.6323 20.1222 34.6327L20.1638 34.6328L20.2053 34.6327C20.4264 34.6323 20.606 34.8112 20.6064 35.0323C20.6068 35.2533 20.4279 35.4329 20.2069 35.4333L20.1638 35.4334L20.1207 35.4333C19.8996 35.4329 19.7207 35.2533 19.7211 35.0323Z" fill="#FA9E42"/>
</g>
<g filter="url(#filter2_f_19_1596)">
<path d="M18.5348 15.397C23.8942 12.8552 26.9259 8.58732 25.3063 5.86449C23.6867 3.14165 18.029 2.99492 12.6695 5.53676C7.31004 8.07859 4.27831 12.3465 5.89796 15.0693C7.5176 17.7921 13.1753 17.9389 18.5348 15.397Z" fill="#F8E36F"/>
</g>
<g filter="url(#filter3_df_19_1596)">
<g filter="url(#filter4_d_19_1596)">
<path d="M44.2843 44.1298C43.9179 44.1561 43.548 44.1693 43.1745 44.1695H17.1161C15.3224 44.1755 13.545 43.8652 11.8859 43.2564C10.2268 42.6477 8.71869 41.7524 7.44799 40.622C6.17729 39.4915 5.16904 38.1482 4.48107 36.6691C3.7931 35.1899 3.43896 33.6041 3.43896 32.0024C3.43896 30.4008 3.7931 28.8149 4.48107 27.3357C5.16904 25.8566 6.17729 24.5133 7.44799 23.3829C8.71869 22.2525 10.2268 21.3572 11.8859 20.7484C13.545 20.1396 15.3224 19.8293 17.1161 19.8353H26.832C29.9819 13.647 37.2367 9.31567 45.6825 9.31567C57.0187 9.31567 66.2086 17.118 66.2086 26.7426C66.2086 36.3672 57.0187 44.1695 45.6825 44.1695C45.2126 44.1695 44.7465 44.1563 44.2843 44.1298Z" fill="url(#paint0_linear_19_1596)"/>
<path d="M45.6831 44.0004C47.0637 44.0004 48.4433 43.8823 49.7836 43.6494C51.0898 43.4225 52.3745 43.0839 53.6021 42.6431C54.8073 42.2103 55.9697 41.6746 57.0571 41.0509C58.1339 40.4333 59.1465 39.7239 60.0667 38.9427C60.9868 38.1616 61.822 37.3021 62.5493 36.3881C63.2833 35.4656 63.9138 34.4795 64.4231 33.4571C64.9418 32.4161 65.3401 31.3266 65.607 30.2191C65.8809 29.0827 66.0198 27.913 66.0198 26.7425C66.0198 25.5721 65.8809 24.4024 65.607 23.266C65.3401 22.1585 64.9418 21.0691 64.4231 20.028C63.9138 19.0057 63.2833 18.0195 62.5493 17.0971C61.822 16.1831 60.9868 15.3237 60.0667 14.5425C59.1465 13.7613 58.1339 13.052 57.0571 12.4343C55.9697 11.8106 54.8073 11.2749 53.6021 10.8422C52.3745 10.4013 51.0898 10.0627 49.7836 9.83581C48.4433 9.60294 47.0637 9.48487 45.6831 9.48487C41.6337 9.48487 37.7229 10.492 34.3736 12.3973C32.7591 13.3157 31.3083 14.4243 30.0615 15.6922C28.8069 16.9682 27.7785 18.3856 27.005 19.9052L26.9546 20.0044H26.8325H17.1167C15.3027 20.0044 13.543 20.3216 11.8866 20.9472C11.0904 21.2479 10.3225 21.6201 9.60423 22.0534C8.89269 22.4826 8.22359 22.9756 7.6155 23.5186C7.00741 24.0615 6.45535 24.659 5.97464 25.2943C5.48936 25.9357 5.07256 26.6214 4.73581 27.3323C4.0352 28.8114 3.67996 30.3826 3.67996 32.0024C3.67996 33.6222 4.0352 35.1934 4.73581 36.6725C5.07256 37.3834 5.48936 38.069 5.97464 38.7104C6.45535 39.3458 7.00741 39.9433 7.6155 40.4862C8.22359 41.0292 8.89269 41.5222 9.60423 41.9514C10.3225 42.3847 11.0904 42.7569 11.8866 43.0576C13.543 43.6832 15.3027 44.0004 17.1167 44.0004H43.1752C43.5396 44.0004 43.9079 43.9872 44.2698 43.9611L44.2835 43.9601L44.2971 43.9609C44.7556 43.9871 45.2219 44.0004 45.6831 44.0004ZM45.6831 44.1696C45.2133 44.1696 44.747 44.1561 44.2851 44.1298C43.9192 44.1561 43.5486 44.1696 43.1752 44.1696H17.1167C9.59118 44.1696 3.49048 38.7221 3.49048 32.0024C3.49048 25.2827 9.59118 19.8352 17.1167 19.8352H26.8325C29.9826 13.6463 37.2369 9.31567 45.6831 9.31567C57.0194 9.31567 66.2093 17.118 66.2093 26.7425C66.2093 36.3672 57.0194 44.1696 45.6831 44.1696Z" fill="white" fill-opacity="0.49"/>
</g>
</g>
<defs>
<filter id="filter0_f_19_1596" x="4.49592" y="4.08881" width="31.3368" height="28.0498" filterUnits="userSpaceOnUse" color-interpolation-filters="sRGB">
<feFlood flood-opacity="0" result="BackgroundImageFix"/>
<feBlend mode="normal" in="SourceGraphic" in2="BackgroundImageFix" result="shape"/>
<feGaussianBlur stdDeviation="0.160122" result="effect1_foregroundBlur_19_1596"/>
</filter>
<filter id="filter1_f_19_1596" x="0.655063" y="0.633945" width="39.0175" height="34.9595" filterUnits="userSpaceOnUse" color-interpolation-filters="sRGB">
<feFlood flood-opacity="0" result="BackgroundImageFix"/>
<feBlend mode="normal" in="SourceGraphic" in2="BackgroundImageFix" result="shape"/>
<feGaussianBlur stdDeviation="0.0800612" result="effect1_foregroundBlur_19_1596"/>
</filter>
<filter id="filter2_f_19_1596" x="3.06008" y="1.32058" width="25.0842" height="18.2927" filterUnits="userSpaceOnUse" color-interpolation-filters="sRGB">
<feFlood flood-opacity="0" result="BackgroundImageFix"/>
<feBlend mode="normal" in="SourceGraphic" in2="BackgroundImageFix" result="shape"/>
<feGaussianBlur stdDeviation="1.20092" result="effect1_foregroundBlur_19_1596"/>
</filter>
<filter id="filter3_df_19_1596" x="1.83774" y="7.07396" width="67.5739" height="39.6577" filterUnits="userSpaceOnUse" color-interpolation-filters="sRGB">
<feFlood flood-opacity="0" result="BackgroundImageFix"/>
<feColorMatrix in="SourceAlpha" type="matrix" values="0 0 0 0 0 0 0 0 0 0 0 0 0 0 0 0 0 0 127 0" result="hardAlpha"/>
<feOffset dx="0.800612" dy="0.160122"/>
<feGaussianBlur stdDeviation="1.20092"/>
<feColorMatrix type="matrix" values="0 0 0 0 0.258824 0 0 0 0 0.627451 0 0 0 0 0.941176 0 0 0 0.596 0"/>
<feBlend mode="normal" in2="BackgroundImageFix" result="effect1_dropShadow_19_1596"/>
<feBlend mode="normal" in="SourceGraphic" in2="effect1_dropShadow_19_1596" result="shape"/>
<feGaussianBlur stdDeviation="0.160122" result="effect2_foregroundBlur_19_1596"/>
</filter>
<filter id="filter4_d_19_1596" x="1.83774" y="7.07396" width="67.5739" height="39.6577" filterUnits="userSpaceOnUse" color-interpolation-filters="sRGB">
<feFlood flood-opacity="0" result="BackgroundImageFix"/>
<feColorMatrix in="SourceAlpha" type="matrix" values="0 0 0 0 0 0 0 0 0 0 0 0 0 0 0 0 0 0 127 0" result="hardAlpha"/>
<feOffset dx="0.800612" dy="0.160122"/>
<feGaussianBlur stdDeviation="1.20092"/>
<feColorMatrix type="matrix" values="0 0 0 0 0.501961 0 0 0 0 0.501961 0 0 0 0 0.501961 0 0 0 0.302 0"/>
<feBlend mode="normal" in2="BackgroundImageFix" result="effect1_dropShadow_19_1596"/>
<feBlend mode="normal" in="SourceGraphic" in2="effect1_dropShadow_19_1596" result="shape"/>
</filter>
<linearGradient id="paint0_linear_19_1596" x1="28.8607" y1="13.7073" x2="39.0584" y2="46.7734" gradientUnits="userSpaceOnUse">
<stop stop-color="white" stop-opacity="0.565"/>
<stop offset="1" stop-color="#F7F7F7" stop-opacity="0.204"/>
</linearGradient>
</defs>
</svg>
