<svg width="69" height="55" viewBox="0 0 69 55" fill="none" xmlns="http://www.w3.org/2000/svg">
<g filter="url(#filter0_f_19_359)">
<path d="M21.8215 31.8231C21.9205 31.9039 19.7984 35.9326 18.5747 37.1885C17.351 38.4445 15.8544 39.0703 15.2313 38.5871C14.6083 38.1038 15.0945 36.6945 16.3183 35.4384C17.5422 34.1823 21.7226 31.7423 21.8215 31.8231Z" fill="#42A0F0"/>
<path d="M16.5234 36.268C16.6442 36.4414 17.068 36.3994 17.4701 36.1743C17.8722 35.9493 18.1002 35.6263 17.9795 35.453C17.8587 35.2797 17.4348 35.3216 17.0327 35.5467C16.6306 35.7718 16.4026 36.0947 16.5234 36.268Z" fill="white"/>
<path d="M34.7061 31.8231C34.805 31.9039 32.6829 35.9326 31.4592 37.1885C30.2356 38.4445 28.7389 39.0703 28.1158 38.5871C27.4928 38.1038 27.9791 36.6945 29.2029 35.4384C30.4267 34.1823 34.6071 31.7423 34.7061 31.8231Z" fill="#42A0F0"/>
<path d="M29.4079 36.268C29.5287 36.4414 29.9526 36.3994 30.3546 36.1743C30.7567 35.9493 30.9848 35.6263 30.864 35.453C30.7432 35.2797 30.3193 35.3216 29.9172 35.5467C29.5151 35.7718 29.2871 36.0947 29.4079 36.268Z" fill="white"/>
<path d="M36.2222 40.2828C36.3211 40.3636 34.199 44.3923 32.9754 45.6482C31.7517 46.9042 30.255 47.5301 29.632 47.0468C29.0089 46.5635 29.4952 45.1542 30.719 43.8981C31.9428 42.642 36.1232 40.202 36.2222 40.2828Z" fill="#42A0F0"/>
<path d="M30.924 44.7278C31.0448 44.9011 31.4687 44.8591 31.8708 44.6341C32.2728 44.409 32.5009 44.086 32.3801 43.9127C32.2593 43.7394 31.8354 43.7813 31.4333 44.0064C31.0313 44.2315 30.8032 44.5544 30.924 44.7278Z" fill="white"/>
<path d="M51.9492 40.2828C52.0482 40.3636 49.9261 44.3923 48.7024 45.6482C47.4787 46.9042 45.982 47.5301 45.359 47.0468C44.736 46.5635 45.2222 45.1542 46.446 43.8981C47.6698 42.642 51.8503 40.202 51.9492 40.2828Z" fill="#42A0F0"/>
<path d="M46.6513 44.7278C46.7721 44.9011 47.196 44.8591 47.5981 44.6341C48.0001 44.409 48.2282 44.086 48.1074 43.9127C47.9866 43.7394 47.5627 43.7813 47.1606 44.0064C46.7586 44.2315 46.5305 44.5544 46.6513 44.7278Z" fill="white"/>
<path d="M40.5801 46.3739C40.679 46.4547 38.5569 50.4834 37.3333 51.7393C36.1096 52.9953 34.6129 53.6211 33.9899 53.1379C33.3668 52.6546 33.8531 51.2452 35.0769 49.9892C36.3007 48.7331 40.4811 46.2931 40.5801 46.3739Z" fill="#42A0F0"/>
<path d="M35.2822 50.8188C35.403 50.9921 35.8268 50.9502 36.2289 50.7251C36.631 50.5 36.859 50.1771 36.7382 50.0038C36.6175 49.8304 36.1936 49.8724 35.7915 50.0975C35.3894 50.3225 35.1614 50.6455 35.2822 50.8188Z" fill="white"/>
<path d="M26.1797 46.3739C26.2787 46.4547 24.1566 50.4834 22.9329 51.7393C21.7092 52.9953 20.2125 53.6211 19.5895 53.1379C18.9664 52.6546 19.4527 51.2452 20.6765 49.9892C21.9003 48.7331 26.0807 46.2931 26.1797 46.3739Z" fill="#42A0F0"/>
<path d="M20.8815 50.8188C21.0023 50.9921 21.4262 50.9502 21.8283 50.7251C22.2304 50.5 22.4584 50.1771 22.3376 50.0038C22.2168 49.8304 21.7929 49.8724 21.3909 50.0975C20.9888 50.3225 20.7608 50.6455 20.8815 50.8188Z" fill="white"/>
</g>
<path d="M19.863 39.0627H23.7569L21.5184 41.9979L24.1357 42.0422L18.643 47.848L19.9731 43.4215H17.5364L19.863 39.0627Z" fill="url(#paint0_linear_19_359)"/>
<path d="M42.6011 33.8176H46.4949L44.2564 36.7528L46.8737 36.7971L41.381 42.6028L42.7112 38.1764H40.2744L42.6011 33.8176Z" fill="url(#paint1_linear_19_359)"/>
<g filter="url(#filter1_df_19_359)">
<g filter="url(#filter2_d_19_359)">
<path d="M42.9371 37.0675C42.5708 37.0938 42.2008 37.1071 41.8273 37.1073H15.7689C13.9752 37.1133 12.1978 36.803 10.5388 36.1942C8.87967 35.5854 7.37152 34.6901 6.10082 33.5597C4.83012 32.4293 3.82187 31.086 3.1339 29.6068C2.44594 28.1277 2.0918 26.5418 2.0918 24.9402C2.0918 23.3385 2.44594 21.7526 3.1339 20.2735C3.82187 18.7943 4.83012 17.451 6.10082 16.3206C7.37152 15.1902 8.87967 14.2949 10.5388 13.6861C12.1978 13.0774 13.9752 12.7671 15.7689 12.773H25.4846C28.6348 6.58477 35.8895 2.25342 44.3353 2.25342C55.6715 2.25342 64.8614 10.0558 64.8614 19.6804C64.8614 29.3049 55.6715 37.1073 44.3353 37.1073C43.8654 37.1073 43.3993 37.094 42.9371 37.0675Z" fill="url(#paint2_linear_19_359)"/>
<path d="M44.3359 36.938C45.7165 36.938 47.0961 36.8199 48.4365 36.5871C49.7426 36.3601 51.0273 36.0216 52.2549 35.5807C53.4602 35.1479 54.6226 34.6123 55.7099 33.9886C56.7868 33.3709 57.7994 32.6616 58.7196 31.8804C59.6396 31.0993 60.4749 30.2398 61.2021 29.3259C61.9362 28.4034 62.5666 27.4173 63.076 26.3949C63.5946 25.3538 63.9929 24.2644 64.2599 23.1569C64.5338 22.0204 64.6727 20.8508 64.6727 19.6803C64.6727 18.5099 64.5338 17.3402 64.2599 16.2038C63.9929 15.0962 63.5946 14.0068 63.076 12.9657C62.5666 11.9433 61.9362 10.9572 61.2021 10.0347C60.4749 9.12078 59.6396 8.2613 58.7196 7.48018C57.7994 6.69891 56.7868 5.98959 55.7099 5.37192C54.6226 4.74825 53.4602 4.21258 52.2549 3.77977C51.0273 3.33893 49.7426 3.00035 48.4365 2.77343C47.0961 2.54057 45.7165 2.42249 44.3359 2.42249C40.2865 2.42249 36.3757 3.42958 33.0264 5.33488C31.4119 6.25331 29.9611 7.36188 28.7143 8.62981C27.4596 9.90575 26.4312 11.3232 25.6578 12.8429L25.6073 12.942H25.4853H15.7695C13.9555 12.942 12.1958 13.2593 10.5394 13.8848C9.74327 14.1855 8.97538 14.5577 8.25707 14.991C7.54553 15.4203 6.87642 15.9132 6.26833 16.4562C5.66024 16.9992 5.10818 17.5966 4.62747 18.232C4.14219 18.8734 3.72539 19.559 3.38865 20.2699C2.68803 21.749 2.33279 23.3202 2.33279 24.94C2.33279 26.5598 2.68803 28.131 3.38865 29.6101C3.72539 30.321 4.14219 31.0067 4.62747 31.6481C5.10818 32.2834 5.66024 32.8809 6.26833 33.4239C6.87642 33.9668 7.54553 34.4598 8.25707 34.889C8.97538 35.3223 9.74327 35.6945 10.5394 35.9952C12.1958 36.6208 13.9555 36.938 15.7695 36.938H41.828C42.1924 36.938 42.5607 36.9248 42.9227 36.8987L42.9363 36.8978L42.95 36.8985C43.4084 36.9247 43.8747 36.938 44.3359 36.938ZM44.3359 37.1072C43.8661 37.1072 43.3998 37.0938 42.9379 37.0674C42.572 37.0937 42.2015 37.1072 41.828 37.1072H15.7695C8.24401 37.1072 2.14331 31.6597 2.14331 24.94C2.14331 18.2203 8.24401 12.7729 15.7695 12.7729H25.4853C28.6354 6.58381 35.8898 2.2533 44.3359 2.2533C55.6722 2.2533 64.8621 10.0557 64.8621 19.6803C64.8621 29.305 55.6722 37.1072 44.3359 37.1072Z" fill="white" fill-opacity="0.5"/>
</g>
</g>
<defs>
<filter id="filter0_f_19_359" x="14.6397" y="31.5008" width="37.6332" height="22.1205" filterUnits="userSpaceOnUse" color-interpolation-filters="sRGB">
<feFlood flood-opacity="0" result="BackgroundImageFix"/>
<feBlend mode="normal" in="SourceGraphic" in2="BackgroundImageFix" result="shape"/>
<feGaussianBlur stdDeviation="0.160122" result="effect1_foregroundBlur_19_359"/>
</filter>
<filter id="filter1_df_19_359" x="0.490574" y="0.0115833" width="67.5739" height="39.6578" filterUnits="userSpaceOnUse" color-interpolation-filters="sRGB">
<feFlood flood-opacity="0" result="BackgroundImageFix"/>
<feColorMatrix in="SourceAlpha" type="matrix" values="0 0 0 0 0 0 0 0 0 0 0 0 0 0 0 0 0 0 127 0" result="hardAlpha"/>
<feOffset dx="0.800612" dy="0.160122"/>
<feGaussianBlur stdDeviation="1.20092"/>
<feColorMatrix type="matrix" values="0 0 0 0 0.258824 0 0 0 0 0.627451 0 0 0 0 0.941176 0 0 0 0.596 0"/>
<feBlend mode="normal" in2="BackgroundImageFix" result="effect1_dropShadow_19_359"/>
<feBlend mode="normal" in="SourceGraphic" in2="effect1_dropShadow_19_359" result="shape"/>
<feGaussianBlur stdDeviation="0.160122" result="effect2_foregroundBlur_19_359"/>
</filter>
<filter id="filter2_d_19_359" x="0.490574" y="0.0115833" width="67.5739" height="39.6578" filterUnits="userSpaceOnUse" color-interpolation-filters="sRGB">
<feFlood flood-opacity="0" result="BackgroundImageFix"/>
<feColorMatrix in="SourceAlpha" type="matrix" values="0 0 0 0 0 0 0 0 0 0 0 0 0 0 0 0 0 0 127 0" result="hardAlpha"/>
<feOffset dx="0.800612" dy="0.160122"/>
<feGaussianBlur stdDeviation="1.20092"/>
<feColorMatrix type="matrix" values="0 0 0 0 0.501961 0 0 0 0 0.501961 0 0 0 0 0.501961 0 0 0 0.302 0"/>
<feBlend mode="normal" in2="BackgroundImageFix" result="effect1_dropShadow_19_359"/>
<feBlend mode="normal" in="SourceGraphic" in2="effect1_dropShadow_19_359" result="shape"/>
</filter>
<linearGradient id="paint0_linear_19_359" x1="20.2289" y1="43.4553" x2="17.2365" y2="42.2267" gradientUnits="userSpaceOnUse">
<stop stop-color="#FFD100"/>
<stop offset="1" stop-color="#FFF0AA"/>
</linearGradient>
<linearGradient id="paint1_linear_19_359" x1="42.9669" y1="38.2102" x2="39.9745" y2="36.9816" gradientUnits="userSpaceOnUse">
<stop stop-color="#FFD100"/>
<stop offset="1" stop-color="#FFF0AA"/>
</linearGradient>
<linearGradient id="paint2_linear_19_359" x1="27.5135" y1="6.64502" x2="37.7112" y2="39.7111" gradientUnits="userSpaceOnUse">
<stop stop-color="white" stop-opacity="0.596"/>
<stop offset="1" stop-color="#F7F7F7" stop-opacity="0.204"/>
</linearGradient>
</defs>
</svg>
