<svg width="48" height="30" viewBox="0 0 48 30" fill="none" xmlns="http://www.w3.org/2000/svg">
<g filter="url(#filter0_f_19_2140)">
<path fill-rule="evenodd" clip-rule="evenodd" d="M19.1004 13.3497C18.4684 12.9901 17.7162 12.6848 17.0435 12.6949C16.3907 12.7047 15.9179 12.9787 15.2814 13.3559L15.2724 13.3612C14.6548 13.7273 13.8917 14.1795 12.82 14.191L12.8034 14.1911L12.7869 14.1905C11.6064 14.1421 10.938 13.6827 10.392 13.3052C9.88559 12.955 9.52227 12.7058 8.82719 12.6952C8.1635 12.7306 7.78038 12.9853 7.25579 13.3341L7.24366 13.3421C6.68755 13.7118 6.01029 14.1513 4.88169 14.1906C3.94044 14.2226 2.94935 13.7677 2.26457 13.3785C1.9072 13.1753 1.6015 12.9714 1.38511 12.8184C1.27658 12.7416 1.18965 12.677 1.12896 12.6309C1.0986 12.6079 1.07475 12.5894 1.05798 12.5763L1.0382 12.5607L1.03242 12.5561L1.03058 12.5546L1.02966 12.5539C1.02955 12.5538 1.02945 12.5537 1.42882 12.0569L1.02966 12.5539C0.753955 12.3323 0.709884 11.9289 0.931496 11.6532C1.15311 11.3775 1.55626 11.3337 1.83197 11.5553L1.43071 12.0545C1.83197 11.5553 1.83206 11.5554 1.83197 11.5553C1.83183 11.5552 1.832 11.5553 1.83197 11.5553L1.83435 11.5572L1.84741 11.5675C1.85957 11.577 1.87854 11.5917 1.90374 11.6108C1.95419 11.6491 2.02938 11.705 2.12479 11.7725C2.3163 11.908 2.58578 12.0876 2.8976 12.2648C3.55108 12.6363 4.27475 12.9294 4.83739 12.9104C5.59416 12.884 6.02107 12.6166 6.53452 12.2753C6.55244 12.2634 6.57049 12.2514 6.58868 12.2393C7.1126 11.8902 7.75344 11.4633 8.78493 11.4147L8.80294 11.4139L8.82097 11.414C9.92487 11.4243 10.5646 11.8669 11.0949 12.2338C11.1035 12.2398 11.1121 12.2457 11.1206 12.2516C11.6174 12.5951 12.0313 12.8738 12.8226 12.9098C13.5128 12.8982 14.0089 12.621 14.6283 12.2539C14.6473 12.2427 14.6664 12.2313 14.6857 12.2199C15.2824 11.8656 16.0175 11.4292 17.0243 11.4141C18.0437 11.3988 19.0401 11.8415 19.7339 12.2363C20.0906 12.4393 20.3893 12.6424 20.5994 12.7951C20.7047 12.8717 20.7886 12.9361 20.8471 12.9823C20.8765 13.0055 20.8995 13.024 20.9158 13.0374L20.9351 13.0533L20.9409 13.0581L20.9428 13.0597L20.9438 13.0605C20.9439 13.0606 20.9441 13.0607 20.5761 13.4973L20.9438 13.0605C21.2143 13.2885 21.2491 13.6927 21.0211 13.9632C20.7933 14.2336 20.3896 14.2682 20.1191 14.0407C20.1189 14.0406 20.1193 14.0409 20.1191 14.0407L20.5313 13.5505C20.1186 14.0403 20.119 14.0406 20.1191 14.0407L20.1171 14.039L20.1055 14.0295C20.0945 14.0205 20.0771 14.0065 20.0538 13.988C20.007 13.9511 19.9366 13.897 19.8462 13.8313C19.6649 13.6995 19.4066 13.5239 19.1004 13.3497Z" fill="white"/>
</g>
<g filter="url(#filter1_f_19_2140)">
<path fill-rule="evenodd" clip-rule="evenodd" d="M34.7291 6.06975C33.8007 5.5414 32.6571 5.06875 31.6052 5.08459C30.5732 5.10012 29.8269 5.53943 28.9122 6.0816C28.0147 6.61352 26.9666 7.23468 25.4921 7.2503L25.4755 7.25048L25.4589 7.24979C23.8354 7.18276 22.9245 6.55753 22.1446 6.01819C21.4039 5.50587 20.8154 5.09892 19.7109 5.08483C18.6655 5.13803 18.0527 5.54551 17.2965 6.04833L17.2652 6.06914C16.4698 6.59796 15.5454 7.19593 13.9952 7.24995C12.7171 7.29324 11.3424 6.67101 10.3582 6.11147C9.85111 5.8232 9.41677 5.53342 9.10916 5.31581C8.95502 5.20677 8.83184 5.11524 8.7463 5.05026C8.70351 5.01776 8.67008 4.99185 8.64685 4.97366L8.61973 4.9523L8.61208 4.94622L8.60977 4.94437L8.60871 4.94351C8.60859 4.94342 8.60848 4.94333 9.00832 4.44602L8.60871 4.94351C8.33303 4.72187 8.289 4.31852 8.51064 4.04284M9.41093 3.94485C9.41091 3.94483 9.41096 3.94487 9.41093 3.94485L9.416 3.94888L9.43639 3.96494C9.45502 3.97952 9.48356 4.00165 9.52119 4.03024C9.59649 4.08744 9.70793 4.17029 9.84894 4.27005C10.1317 4.47003 10.5298 4.7355 10.9913 4.99787C11.9441 5.53956 13.0514 6.00011 13.951 5.96973C15.1291 5.92859 15.8031 5.50298 16.5561 5.00239C16.58 4.98649 16.604 4.9705 16.6281 4.95443C17.3846 4.45062 18.2555 3.87056 19.6688 3.80438L19.6866 3.80355L19.7044 3.80371C21.2147 3.81712 22.08 4.41577 22.8419 4.9429L22.8733 4.96463C23.6045 5.47037 24.2607 5.91449 25.495 5.96919C26.5826 5.95333 27.3611 5.51185 28.259 4.97965C28.2827 4.96558 28.3066 4.95144 28.3305 4.93724C29.1993 4.42167 30.2056 3.82453 31.5859 3.80375C32.9845 3.7827 34.3723 4.39281 35.3627 4.95643C35.8676 5.2438 36.291 5.53173 36.5885 5.74809C36.7376 5.85649 36.856 5.94752 36.9381 6.01233C36.9792 6.04476 37.0113 6.07067 37.0337 6.08896L37.0599 6.11058L37.0675 6.11686L37.0698 6.11883L37.0706 6.11951C37.0708 6.11962 37.0712 6.11999 36.6584 6.60968L37.0706 6.11951C37.3411 6.34751 37.3761 6.75206 37.1481 7.02251C36.9202 7.29285 36.5163 7.32735 36.2459 7.09965C36.2459 7.09963 36.2459 7.09966 36.2459 7.09965L36.2417 7.09614L36.2232 7.08094C36.2061 7.067 36.1797 7.04563 36.1446 7.0179C36.0742 6.96241 35.9694 6.88167 35.8353 6.78417C35.5664 6.58873 35.1835 6.32837 34.7291 6.06975" fill="white"/>
</g>
<g filter="url(#filter2_f_19_2140)">
<path fill-rule="evenodd" clip-rule="evenodd" d="M44.3927 20.6203C43.4642 20.0919 42.3206 19.6193 41.2688 19.6351C40.2368 19.6507 39.4904 20.09 38.5757 20.6321C37.6783 21.1641 36.6302 21.7852 35.1557 21.8008L35.1391 21.801L35.1225 21.8003C33.499 21.7333 32.5881 21.1081 31.8082 20.5687C31.0674 20.0564 30.4789 19.6495 29.3745 19.6354C28.329 19.6886 27.7163 20.096 26.9601 20.5989L26.9288 20.6197C26.1334 21.1485 25.209 21.7465 23.6588 21.8005C22.3807 21.8438 21.006 21.2215 20.0217 20.662C19.5147 20.3737 19.0803 20.084 18.7727 19.8664C18.6186 19.7573 18.4954 19.6658 18.4099 19.6008C18.3671 19.5683 18.3337 19.5424 18.3104 19.5242L18.2833 19.5028L18.2757 19.4968L18.2733 19.4949L18.2723 19.4941C18.2722 19.494 18.2721 19.4939 18.6719 18.9966L18.2723 19.4941C17.9966 19.2724 17.9526 18.8691 18.1742 18.5934M19.0745 18.4954C19.0745 18.4954 19.0745 18.4954 19.0745 18.4954L19.0796 18.4994L19.1 18.5155C19.1186 18.5301 19.1471 18.5522 19.1848 18.5808C19.2601 18.638 19.3715 18.7208 19.5125 18.8206C19.7952 19.0206 20.1933 19.286 20.6548 19.5484C21.6077 20.0901 22.715 20.5506 23.6146 20.5203C24.7927 20.4791 25.4666 20.0535 26.2196 19.5529C26.2435 19.537 26.2676 19.521 26.2917 19.505C27.0482 19.0012 27.9191 18.4211 29.3323 18.3549L29.3502 18.3541L29.368 18.3542C30.8783 18.3677 31.7435 18.9663 32.5054 19.4934L32.5369 19.5152C33.2681 20.0209 33.9243 20.465 35.1586 20.5197C36.2462 20.5039 37.0247 20.0624 37.9226 19.5302C37.9463 19.5161 37.9701 19.502 37.9941 19.4878C38.8629 18.9722 39.8691 18.3751 41.2495 18.3543C42.6481 18.3332 44.0359 18.9434 45.0262 19.507C45.5312 19.7943 45.9545 20.0823 46.2521 20.2986C46.4012 20.407 46.5196 20.4981 46.6017 20.5629C46.6428 20.5953 46.6749 20.6212 46.6973 20.6395L46.7235 20.6611L46.7311 20.6674L46.7334 20.6694L46.7342 20.67C46.7343 20.6702 46.7348 20.6705 46.322 21.1602L46.7342 20.67C47.0047 20.898 47.0396 21.3026 46.8116 21.573C46.5837 21.8434 46.1799 21.8779 45.9094 21.6502C45.9094 21.6502 45.9095 21.6502 45.9094 21.6502L45.9052 21.6467L45.8868 21.6315C45.8697 21.6175 45.8433 21.5962 45.8081 21.5684C45.7378 21.513 45.6329 21.4322 45.4988 21.3347C45.23 21.1393 44.8471 20.8789 44.3927 20.6203" fill="white"/>
</g>
<g filter="url(#filter3_f_19_2140)">
<path fill-rule="evenodd" clip-rule="evenodd" d="M28.4764 28.2341C27.548 27.7057 26.4044 27.2331 25.3525 27.2489C24.3206 27.2644 23.5742 27.7037 22.6595 28.2459C21.7621 28.7778 20.7139 29.399 19.2394 29.4146L19.2228 29.4148L19.2062 29.4141C17.5828 29.3471 16.6718 28.7218 15.892 28.1825C15.1512 27.6702 14.5627 27.2632 13.4582 27.2491C12.4128 27.3023 11.8 27.7098 11.0438 28.2126L11.0126 28.2334C10.2171 28.7623 9.29273 29.3602 7.74255 29.4143C6.46445 29.4575 5.0897 28.8353 4.10549 28.2758C3.59843 27.9875 3.16409 27.6977 2.85648 27.4801C2.70234 27.3711 2.57915 27.2796 2.49361 27.2146C2.45083 27.1821 2.4174 27.1562 2.39416 27.138L2.36704 27.1166L2.3594 27.1105L2.35709 27.1087L2.35602 27.1078C2.3559 27.1077 2.3558 27.1076 2.75563 26.6103L2.35602 27.1078C2.08034 26.8862 2.03631 26.4828 2.25796 26.2072M3.15825 26.1092C3.15822 26.1091 3.15827 26.1092 3.15825 26.1092L3.16332 26.1132L3.18371 26.1292C3.20234 26.1438 3.23088 26.166 3.26851 26.1945C3.3438 26.2517 3.45524 26.3346 3.59626 26.4344C3.87897 26.6343 4.27708 26.8998 4.73858 27.1622C5.69141 27.7039 6.79872 28.1644 7.6983 28.134C8.87645 28.0929 9.55039 27.6673 10.3034 27.1667C10.3273 27.1508 10.3513 27.1348 10.3754 27.1187C11.1319 26.6149 12.0029 26.0349 13.4161 25.9687L13.4339 25.9679L13.4517 25.968C14.962 25.9814 15.8273 26.5801 16.5892 27.1072L16.6206 27.1289C17.3519 27.6347 18.008 28.0788 19.2423 28.1335C20.3299 28.1176 21.1084 27.6762 22.0063 27.144C22.0301 27.1299 22.0539 27.1157 22.0778 27.1015C22.9466 26.586 23.9529 25.9888 25.3333 25.9681C26.7318 25.947 28.1196 26.5571 29.11 27.1207C29.6149 27.4081 30.0383 27.696 30.3359 27.9124C30.485 28.0208 30.6033 28.1118 30.6854 28.1766C30.7265 28.2091 30.7586 28.235 30.781 28.2533L30.8073 28.2749L30.8148 28.2812L30.8171 28.2831L30.818 28.2838C30.8181 28.2839 30.8185 28.2843 30.4057 28.774L30.818 28.2838C31.0884 28.5118 31.1234 28.9164 30.8954 29.1868C30.6675 29.4572 30.2636 29.4917 29.9932 29.264C29.9932 29.2639 29.9932 29.264 29.9932 29.264L29.989 29.2604L29.9705 29.2452C29.9534 29.2313 29.927 29.2099 29.8919 29.1822C29.8216 29.1267 29.7167 29.046 29.5826 28.9485C29.3138 28.753 28.9308 28.4927 28.4764 28.2341" fill="white"/>
</g>
<g filter="url(#filter4_f_19_2140)">
<path fill-rule="evenodd" clip-rule="evenodd" d="M31.4292 12.1804C31.4881 12.2464 31.4824 12.3476 31.4164 12.4065L30.09 13.5909C30.0241 13.6498 29.9228 13.644 29.8639 13.5781C29.805 13.5121 29.8108 13.4109 29.8767 13.352L31.2031 12.1676C31.2691 12.1087 31.3703 12.1145 31.4292 12.1804Z" fill="#CAD1D2"/>
<path fill-rule="evenodd" clip-rule="evenodd" d="M29.8639 12.1804C29.9228 12.1145 30.0241 12.1087 30.09 12.1676L31.4164 13.352C31.4824 13.4109 31.4881 13.5121 31.4292 13.5781C31.3703 13.644 31.2691 13.6498 31.2031 13.5909L29.8767 12.4065C29.8108 12.3476 29.805 12.2464 29.8639 12.1804Z" fill="#CAD1D2"/>
<path fill-rule="evenodd" clip-rule="evenodd" d="M42.2337 25.8851C42.2926 25.9511 42.2869 26.0523 42.2209 26.1112L41.2697 26.9606C41.2037 27.0195 41.1025 27.0138 41.0436 26.9478C40.9847 26.8818 40.9904 26.7806 41.0564 26.7217L42.0076 25.8724C42.0736 25.8135 42.1748 25.8192 42.2337 25.8851Z" fill="#42A0F0"/>
<path fill-rule="evenodd" clip-rule="evenodd" d="M41.0436 25.8851C41.1025 25.8192 41.2037 25.8135 41.2697 25.8724L42.2209 26.7217C42.2869 26.7806 42.2926 26.8818 42.2337 26.9478C42.1748 27.0138 42.0736 27.0195 42.0076 26.9606L41.0564 26.1112C40.9904 26.0523 40.9847 25.9511 41.0436 25.8851Z" fill="#42A0F0"/>
<path fill-rule="evenodd" clip-rule="evenodd" d="M1.49492 21.6553C1.55383 21.7212 1.5481 21.8225 1.48214 21.8814L0.530932 22.7307C0.464969 22.7896 0.363747 22.7839 0.304847 22.7179C0.245946 22.652 0.251672 22.5507 0.317636 22.4918L1.26884 21.6425C1.3348 21.5836 1.43602 21.5893 1.49492 21.6553Z" fill="#713FFD"/>
<path fill-rule="evenodd" clip-rule="evenodd" d="M0.304847 21.6553C0.363747 21.5893 0.464969 21.5836 0.530932 21.6425L1.48214 22.4918C1.5481 22.5507 1.55383 22.652 1.49492 22.7179C1.43602 22.7839 1.3348 22.7896 1.26884 22.7307L0.317636 21.8814C0.251672 21.8225 0.245946 21.7212 0.304847 21.6553Z" fill="#713FFD"/>
<path fill-rule="evenodd" clip-rule="evenodd" d="M3.76861 0.844491C3.82751 0.910455 3.82178 1.01168 3.75582 1.07058L2.80461 1.91993C2.73865 1.97883 2.63743 1.9731 2.57853 1.90714C2.51963 1.84118 2.52535 1.73995 2.59132 1.68105L3.54252 0.831702C3.60848 0.772802 3.70971 0.778528 3.76861 0.844491Z" fill="#42A0F0"/>
<path fill-rule="evenodd" clip-rule="evenodd" d="M2.57853 0.844491C2.63743 0.778528 2.73865 0.772802 2.80461 0.831702L3.75582 1.68105C3.82178 1.73995 3.82751 1.84118 3.76861 1.90714C3.70971 1.9731 3.60848 1.97883 3.54252 1.91993L2.59132 1.07058C2.52535 1.01168 2.51963 0.910455 2.57853 0.844491Z" fill="#42A0F0"/>
<path fill-rule="evenodd" clip-rule="evenodd" d="M40.5281 1.69044C40.587 1.7564 40.5813 1.85762 40.5153 1.91652L39.5641 2.76588C39.4982 2.82478 39.397 2.81905 39.338 2.75309C39.2791 2.68712 39.2849 2.5859 39.3508 2.527L40.302 1.67765C40.368 1.61875 40.4692 1.62447 40.5281 1.69044Z" fill="#713FFD"/>
<path fill-rule="evenodd" clip-rule="evenodd" d="M39.338 1.69044C39.397 1.62447 39.4982 1.61875 39.5641 1.67765L40.5153 2.527C40.5813 2.5859 40.587 2.68712 40.5281 2.75309C40.4692 2.81905 40.368 2.82478 40.302 2.76588L39.3508 1.91652C39.2849 1.85762 39.2791 1.7564 39.338 1.69044Z" fill="#713FFD"/>
</g>
<defs>
<filter id="filter0_f_19_2140" x="0.470039" y="11.0935" width="21.0218" height="3.41905" filterUnits="userSpaceOnUse" color-interpolation-filters="sRGB">
<feFlood flood-opacity="0" result="BackgroundImageFix"/>
<feBlend mode="normal" in="SourceGraphic" in2="BackgroundImageFix" result="shape"/>
<feGaussianBlur stdDeviation="0.160122" result="effect1_foregroundBlur_19_2140"/>
</filter>
<filter id="filter1_f_19_2140" x="8.04914" y="3.48298" width="29.5697" height="4.08934" filterUnits="userSpaceOnUse" color-interpolation-filters="sRGB">
<feFlood flood-opacity="0" result="BackgroundImageFix"/>
<feBlend mode="normal" in="SourceGraphic" in2="BackgroundImageFix" result="shape"/>
<feGaussianBlur stdDeviation="0.160122" result="effect1_foregroundBlur_19_2140"/>
</filter>
<filter id="filter2_f_19_2140" x="17.7127" y="18.0335" width="29.5697" height="4.08934" filterUnits="userSpaceOnUse" color-interpolation-filters="sRGB">
<feFlood flood-opacity="0" result="BackgroundImageFix"/>
<feBlend mode="normal" in="SourceGraphic" in2="BackgroundImageFix" result="shape"/>
<feGaussianBlur stdDeviation="0.160122" result="effect1_foregroundBlur_19_2140"/>
</filter>
<filter id="filter3_f_19_2140" x="1.79645" y="25.6473" width="29.5697" height="4.08934" filterUnits="userSpaceOnUse" color-interpolation-filters="sRGB">
<feFlood flood-opacity="0" result="BackgroundImageFix"/>
<feBlend mode="normal" in="SourceGraphic" in2="BackgroundImageFix" result="shape"/>
<feGaussianBlur stdDeviation="0.160122" result="effect1_foregroundBlur_19_2140"/>
</filter>
<filter id="filter4_f_19_2140" x="0.104038" y="0.630893" width="42.3305" height="26.5304" filterUnits="userSpaceOnUse" color-interpolation-filters="sRGB">
<feFlood flood-opacity="0" result="BackgroundImageFix"/>
<feBlend mode="normal" in="SourceGraphic" in2="BackgroundImageFix" result="shape"/>
<feGaussianBlur stdDeviation="0.0800612" result="effect1_foregroundBlur_19_2140"/>
</filter>
</defs>
</svg>
