<svg width="69" height="56" viewBox="0 0 69 56" fill="none" xmlns="http://www.w3.org/2000/svg">
<g filter="url(#filter0_f_19_133)">
<path d="M22.3794 39.4627C22.4784 39.5435 20.3563 43.5722 19.1326 44.8282C17.9089 46.0841 16.4122 46.71 15.7892 46.2267C15.1662 45.7435 15.6524 44.3341 16.8762 43.078C18.1 41.8219 22.2805 39.3819 22.3794 39.4627Z" fill="#42A0F0"/>
<path d="M17.081 43.9077C17.2018 44.081 17.6257 44.0391 18.0277 43.814C18.4298 43.5889 18.6579 43.2659 18.5371 43.0926C18.4163 42.9193 17.9924 42.9613 17.5903 43.1863C17.1882 43.4114 16.9602 43.7344 17.081 43.9077Z" fill="white"/>
<path d="M35.2642 39.4627C35.3631 39.5435 33.241 43.5722 32.0173 44.8282C30.7937 46.0841 29.297 46.71 28.6739 46.2267C28.0509 45.7435 28.5372 44.3341 29.761 43.078C30.9848 41.8219 35.1652 39.3819 35.2642 39.4627Z" fill="#42A0F0"/>
<path d="M29.9663 43.9077C30.087 44.081 30.5109 44.0391 30.913 43.814C31.3151 43.5889 31.5431 43.2659 31.4223 43.0926C31.3015 42.9193 30.8777 42.9613 30.4756 43.1863C30.0735 43.4114 29.8455 43.7344 29.9663 43.9077Z" fill="white"/>
<path d="M36.78 47.9224C36.879 48.0032 34.7569 52.0319 33.5332 53.2879C32.3095 54.5438 30.8128 55.1697 30.1898 54.6864C29.5668 54.2032 30.053 52.7938 31.2768 51.5377C32.5007 50.2817 36.6811 47.8416 36.78 47.9224Z" fill="#42A0F0"/>
<path d="M31.4819 52.3674C31.6027 52.5407 32.0265 52.4988 32.4286 52.2737C32.8307 52.0486 33.0587 51.7257 32.9379 51.5523C32.8172 51.379 32.3933 51.421 31.9912 51.6461C31.5891 51.8711 31.3611 52.1941 31.4819 52.3674Z" fill="white"/>
<path d="M22.3794 47.9224C22.4784 48.0032 20.3563 52.0319 19.1326 53.2879C17.9089 54.5438 16.4122 55.1697 15.7892 54.6864C15.1662 54.2032 15.6524 52.7938 16.8762 51.5377C18.1 50.2817 22.2805 47.8416 22.3794 47.9224Z" fill="#42A0F0"/>
<path d="M17.081 52.3674C17.2018 52.5407 17.6257 52.4988 18.0277 52.2737C18.4298 52.0486 18.6579 51.7257 18.5371 51.5523C18.4163 51.379 17.9924 51.421 17.5903 51.6461C17.1882 51.8711 16.9602 52.1941 17.081 52.3674Z" fill="white"/>
</g>
<g filter="url(#filter1_f_19_133)">
<path d="M47.0523 40.4424H53.0223L49.5902 44.9429L53.6031 45.0106L45.1804 53.9121L47.2213 47.1255H43.4851L47.0523 40.4424Z" fill="url(#paint0_linear_19_133)"/>
</g>
<g filter="url(#filter2_f_19_133)">
<path d="M20.3037 29.0121C27.9954 29.0121 34.2307 23.4444 34.2307 16.5764C34.2307 9.70829 27.9954 4.14063 20.3037 4.14062C12.612 4.14062 6.37671 9.70829 6.37671 16.5764C6.37671 23.4444 12.612 29.0121 20.3037 29.0121Z" fill="#FA9E42"/>
</g>
<g filter="url(#filter3_f_19_133)">
<path fill-rule="evenodd" clip-rule="evenodd" d="M20.2645 0.864052L20.3036 0.864014L20.3427 0.864052C20.5638 0.864483 20.7427 1.04406 20.7422 1.26514C20.7418 1.48622 20.5622 1.66509 20.3411 1.66466L20.3036 1.66463L20.2661 1.66466C20.045 1.66509 19.8655 1.48622 19.865 1.26514C19.8646 1.04406 20.0435 0.864483 20.2645 0.864052ZM24.9246 1.82225C24.9827 1.60893 25.2027 1.48307 25.416 1.54113L25.4907 1.56165C25.7038 1.62058 25.8288 1.8411 25.7698 2.05418C25.7109 2.26726 25.4904 2.39222 25.2773 2.33329L25.2057 2.31364C24.9924 2.25558 24.8665 2.03558 24.9246 1.82225ZM15.6826 1.82225C15.7407 2.03558 15.6149 2.25558 15.4015 2.31364L15.3299 2.33329C15.1168 2.39222 14.8963 2.26726 14.8374 2.05418C14.7785 1.8411 14.9034 1.62058 15.1165 1.56165L15.1913 1.54114C15.4046 1.48307 15.6246 1.60893 15.6826 1.82225ZM10.9647 3.72679C11.08 3.91538 11.0207 4.16179 10.8321 4.27717L10.7686 4.31622C10.5805 4.43242 10.3338 4.37415 10.2176 4.18607C10.1014 3.99799 10.1597 3.75132 10.3478 3.63512L10.4143 3.59422C10.6029 3.47885 10.8493 3.5382 10.9647 3.72679ZM29.6426 3.72679C29.758 3.5382 30.0044 3.47885 30.193 3.59422L30.2595 3.63512C30.4476 3.75132 30.5058 3.99799 30.3896 4.18607C30.2734 4.37415 30.0268 4.43242 29.8387 4.31622L29.7751 4.27717C29.5866 4.16179 29.5272 3.91538 29.6426 3.72679ZM6.99786 6.90889C7.1649 7.05371 7.18292 7.30653 7.0381 7.47358L6.98965 7.52973C6.84564 7.69748 6.59291 7.71672 6.42516 7.57271C6.25742 7.4287 6.23818 7.17597 6.38219 7.00822L6.43317 6.94913C6.57799 6.78208 6.83081 6.76407 6.99786 6.90889ZM33.6094 6.90889C33.7764 6.76407 34.0293 6.78208 34.1741 6.94913L34.2251 7.00822C34.3691 7.17597 34.3498 7.4287 34.1821 7.57271C34.0143 7.71672 33.7616 7.69748 33.6176 7.52973L33.5691 7.47358C33.4243 7.30653 33.4423 7.05371 33.6094 6.90889ZM4.24505 11.1788C4.4511 11.259 4.55318 11.491 4.47306 11.697L4.44643 11.766C4.36742 11.9725 4.13598 12.0759 3.9295 11.9969C3.72301 11.9178 3.61968 11.6864 3.69869 11.4799L3.72688 11.4068C3.807 11.2008 4.03899 11.0987 4.24505 11.1788ZM36.3622 11.1788C36.5683 11.0987 36.8002 11.2008 36.8804 11.4068L36.9086 11.4799C36.9876 11.6864 36.8842 11.9178 36.6778 11.9969C36.4713 12.0759 36.2398 11.9725 36.1608 11.766L36.1342 11.697C36.0541 11.491 36.1561 11.259 36.3622 11.1788ZM3.15658 16.1377C3.37766 16.1383 3.5564 16.3181 3.55579 16.5391L3.55574 16.5763L3.55579 16.6135C3.5564 16.8346 3.37766 17.0143 3.15658 17.0149C2.9355 17.0155 2.75579 16.8368 2.75518 16.6157L2.75513 16.5763L2.75518 16.5369C2.75579 16.3159 2.9355 16.1371 3.15658 16.1377ZM37.4507 16.1377C37.6717 16.1371 37.8515 16.3159 37.8521 16.5369L37.8521 16.5763L37.8521 16.6157C37.8515 16.8368 37.6717 17.0155 37.4507 17.0149C37.2296 17.0143 37.0508 16.8346 37.0515 16.6135L37.0515 16.5763L37.0515 16.5391C37.0508 16.3181 37.2296 16.1383 37.4507 16.1377ZM3.9295 21.1558C4.13598 21.0768 4.36742 21.1801 4.44643 21.3866L4.47306 21.4557C4.55318 21.6617 4.4511 21.8937 4.24505 21.9738C4.03899 22.054 3.807 21.9519 3.72688 21.7458L3.69869 21.6728C3.61968 21.4663 3.72301 21.2348 3.9295 21.1558ZM36.6778 21.1558C36.8842 21.2348 36.9876 21.4663 36.9086 21.6728L36.8804 21.7458C36.8002 21.9519 36.5683 22.054 36.3622 21.9738C36.1561 21.8937 36.0541 21.6617 36.1342 21.4557L36.1608 21.3866C36.2398 21.1801 36.4713 21.0768 36.6778 21.1558ZM6.42516 25.58C6.59291 25.436 6.84564 25.4552 6.98965 25.6229L7.0381 25.6791C7.18292 25.8461 7.1649 26.099 6.99786 26.2438C6.83081 26.3886 6.57799 26.3706 6.43317 26.2035L6.38219 26.1445C6.23818 25.9767 6.25742 25.724 6.42516 25.58ZM34.1821 25.58C34.3498 25.724 34.3691 25.9767 34.2251 26.1445L34.1741 26.2035C34.0293 26.3706 33.7764 26.3886 33.6094 26.2438C33.4423 26.099 33.4243 25.8461 33.5691 25.6791L33.6176 25.6229C33.7616 25.4552 34.0143 25.436 34.1821 25.58ZM10.2176 28.9666C10.3338 28.7785 10.5805 28.7203 10.7686 28.8365L10.8321 28.8755C11.0207 28.9909 11.08 29.2373 10.9647 29.4259C10.8493 29.6145 10.6029 29.6738 10.4143 29.5585L10.3478 29.5176C10.1597 29.4014 10.1014 29.1547 10.2176 28.9666ZM30.3896 28.9666C30.5058 29.1547 30.4476 29.4014 30.2595 29.5176L30.193 29.5585C30.0044 29.6738 29.758 29.6145 29.6426 29.4259C29.5272 29.2373 29.5866 28.9909 29.7751 28.8755L29.8387 28.8365C30.0268 28.7203 30.2734 28.7785 30.3896 28.9666ZM14.8374 31.0985C14.8963 30.8854 15.1168 30.7605 15.3299 30.8194L15.4015 30.839C15.6149 30.8971 15.7407 31.1171 15.6827 31.3304C15.6246 31.5437 15.4046 31.6696 15.1913 31.6115L15.1165 31.591C14.9034 31.5321 14.7785 31.3116 14.8374 31.0985ZM25.7699 31.0985C25.8288 31.3116 25.7038 31.5321 25.4907 31.591L25.416 31.6115C25.2027 31.6696 24.9827 31.5437 24.9246 31.3304C24.8665 31.1171 24.9924 30.8971 25.2057 30.839L25.2773 30.8194C25.4904 30.7605 25.7109 30.8854 25.7699 31.0985ZM19.865 31.8875C19.8655 31.6665 20.045 31.4876 20.2661 31.488L20.3036 31.4881L20.3411 31.488C20.5622 31.4876 20.7418 31.6665 20.7422 31.8875C20.7427 32.1086 20.5638 32.2882 20.3427 32.2886L20.3036 32.2887L20.2645 32.2886C20.0435 32.2882 19.8646 32.1086 19.865 31.8875Z" fill="#FA9E42"/>
</g>
<g filter="url(#filter4_f_19_133)">
<path d="M18.8339 14.0932C23.7116 11.7798 26.4709 7.8955 24.9968 5.41739C23.5227 2.93928 18.3735 2.80574 13.4958 5.11912C8.61802 7.4325 5.85879 11.3168 7.33286 13.7949C8.80693 16.273 13.9561 16.4065 18.8339 14.0932Z" fill="#F8E36F"/>
</g>
<g filter="url(#filter5_df_19_133)">
<g filter="url(#filter6_d_19_133)">
<path d="M43.12 44.0304C42.7536 44.0567 42.3837 44.07 42.0102 44.0702H15.9517C14.1581 44.0762 12.3807 43.7659 10.7216 43.1571C9.06253 42.5483 7.55439 41.653 6.28368 40.5226C5.01298 39.3922 4.00473 38.0489 3.31676 36.5697C2.6288 35.0906 2.27466 33.5047 2.27466 31.903C2.27466 30.3014 2.6288 28.7155 3.31676 27.2364C4.00473 25.7572 5.01298 24.4139 6.28368 23.2835C7.55439 22.1531 9.06253 21.2578 10.7216 20.649C12.3807 20.0402 14.1581 19.7299 15.9517 19.7359H25.6677C28.8176 13.5477 36.0723 9.21631 44.5182 9.21631C55.8544 9.21631 65.0443 17.0187 65.0443 26.6432C65.0443 36.2678 55.8544 44.0702 44.5182 44.0702C44.0482 44.0702 43.5822 44.0569 43.12 44.0304Z" fill="url(#paint1_linear_19_133)"/>
<path d="M44.5185 43.901C45.8991 43.901 47.2787 43.7829 48.6191 43.5501C49.9252 43.3231 51.2099 42.9846 52.4376 42.5437C53.6428 42.1109 54.8052 41.5752 55.8925 40.9516C56.9694 40.3339 57.982 39.6246 58.9022 38.8433C59.8222 38.0622 60.6575 37.2027 61.3847 36.2888C62.1188 35.3663 62.7493 34.3801 63.2586 33.3578C63.7772 32.3167 64.1756 31.2273 64.4425 30.1197C64.7164 28.9833 64.8553 27.8136 64.8553 26.6432C64.8553 25.4727 64.7164 24.3031 64.4425 23.1667C64.1756 22.0592 63.7772 20.9697 63.2586 19.9287C62.7493 18.9063 62.1188 17.9202 61.3847 16.9977C60.6575 16.0838 59.8222 15.2243 58.9022 14.4432C57.982 13.6619 56.9694 12.9526 55.8925 12.3349C54.8052 11.7113 53.6428 11.1756 52.4376 10.7428C51.2099 10.3019 49.9252 9.96336 48.6191 9.73644C47.2787 9.50358 45.8991 9.3855 44.5185 9.3855C40.4691 9.3855 36.5584 10.3926 33.209 12.2979C31.5946 13.2163 30.1438 14.3249 28.897 15.5928C27.6423 16.8688 26.614 18.2863 25.8405 19.8059L25.79 19.9051H25.668H15.9521C14.1381 19.9051 12.3785 20.2223 10.722 20.8479C9.92589 21.1485 9.158 21.5207 8.43968 21.954C7.72814 22.3833 7.05904 22.8762 6.45095 23.4192C5.84286 23.9622 5.2908 24.5596 4.81009 25.195C4.32481 25.8364 3.90801 26.5221 3.57126 27.2329C2.87065 28.712 2.51541 30.2832 2.51541 31.903C2.51541 33.5228 2.87065 35.0941 3.57126 36.5731C3.90801 37.284 4.32481 37.9697 4.81009 38.6111C5.2908 39.2464 5.84286 39.8439 6.45095 40.3869C7.05904 40.9298 7.72814 41.4228 8.43968 41.852C9.158 42.2854 9.92589 42.6575 10.722 42.9582C12.3785 43.5838 14.1381 43.901 15.9521 43.901H42.0107C42.375 43.901 42.7433 43.8878 43.1053 43.8618L43.1189 43.8608L43.1326 43.8616C43.591 43.8877 44.0573 43.901 44.5185 43.901ZM44.5185 44.0702C44.0487 44.0702 43.5824 44.0568 43.1205 44.0304C42.7547 44.0567 42.3841 44.0702 42.0107 44.0702H15.9521C8.42663 44.0702 2.32593 38.6227 2.32593 31.903C2.32593 25.1833 8.42663 19.7359 15.9521 19.7359H25.668C28.8181 13.5469 36.0724 9.21631 44.5185 9.21631C55.8548 9.21631 65.0448 17.0187 65.0448 26.6432C65.0448 36.2678 55.8548 44.0702 44.5185 44.0702Z" fill="white" fill-opacity="0.5"/>
</g>
</g>
<defs>
<filter id="filter0_f_19_133" x="15.1976" y="39.1404" width="21.9061" height="16.0294" filterUnits="userSpaceOnUse" color-interpolation-filters="sRGB">
<feFlood flood-opacity="0" result="BackgroundImageFix"/>
<feBlend mode="normal" in="SourceGraphic" in2="BackgroundImageFix" result="shape"/>
<feGaussianBlur stdDeviation="0.160122" result="effect1_foregroundBlur_19_133"/>
</filter>
<filter id="filter1_f_19_133" x="43.1649" y="40.1221" width="10.7584" height="14.1102" filterUnits="userSpaceOnUse" color-interpolation-filters="sRGB">
<feFlood flood-opacity="0" result="BackgroundImageFix"/>
<feBlend mode="normal" in="SourceGraphic" in2="BackgroundImageFix" result="shape"/>
<feGaussianBlur stdDeviation="0.160122" result="effect1_foregroundBlur_19_133"/>
</filter>
<filter id="filter2_f_19_133" x="6.05646" y="3.82038" width="28.4945" height="25.5118" filterUnits="userSpaceOnUse" color-interpolation-filters="sRGB">
<feFlood flood-opacity="0" result="BackgroundImageFix"/>
<feBlend mode="normal" in="SourceGraphic" in2="BackgroundImageFix" result="shape"/>
<feGaussianBlur stdDeviation="0.160122" result="effect1_foregroundBlur_19_133"/>
</filter>
<filter id="filter3_f_19_133" x="2.595" y="0.703891" width="35.4172" height="31.7448" filterUnits="userSpaceOnUse" color-interpolation-filters="sRGB">
<feFlood flood-opacity="0" result="BackgroundImageFix"/>
<feBlend mode="normal" in="SourceGraphic" in2="BackgroundImageFix" result="shape"/>
<feGaussianBlur stdDeviation="0.0800612" result="effect1_foregroundBlur_19_133"/>
</filter>
<filter id="filter4_f_19_133" x="5.33481" y="1.86655" width="21.6602" height="15.4791" filterUnits="userSpaceOnUse" color-interpolation-filters="sRGB">
<feFlood flood-opacity="0" result="BackgroundImageFix"/>
<feBlend mode="normal" in="SourceGraphic" in2="BackgroundImageFix" result="shape"/>
<feGaussianBlur stdDeviation="0.800612" result="effect1_foregroundBlur_19_133"/>
</filter>
<filter id="filter5_df_19_133" x="0.673435" y="6.9746" width="67.5737" height="39.6577" filterUnits="userSpaceOnUse" color-interpolation-filters="sRGB">
<feFlood flood-opacity="0" result="BackgroundImageFix"/>
<feColorMatrix in="SourceAlpha" type="matrix" values="0 0 0 0 0 0 0 0 0 0 0 0 0 0 0 0 0 0 127 0" result="hardAlpha"/>
<feOffset dx="0.800612" dy="0.160122"/>
<feGaussianBlur stdDeviation="1.20092"/>
<feColorMatrix type="matrix" values="0 0 0 0 0.258824 0 0 0 0 0.627451 0 0 0 0 0.941176 0 0 0 0.596 0"/>
<feBlend mode="normal" in2="BackgroundImageFix" result="effect1_dropShadow_19_133"/>
<feBlend mode="normal" in="SourceGraphic" in2="effect1_dropShadow_19_133" result="shape"/>
<feGaussianBlur stdDeviation="0.160122" result="effect2_foregroundBlur_19_133"/>
</filter>
<filter id="filter6_d_19_133" x="0.673435" y="6.9746" width="67.5737" height="39.6577" filterUnits="userSpaceOnUse" color-interpolation-filters="sRGB">
<feFlood flood-opacity="0" result="BackgroundImageFix"/>
<feColorMatrix in="SourceAlpha" type="matrix" values="0 0 0 0 0 0 0 0 0 0 0 0 0 0 0 0 0 0 127 0" result="hardAlpha"/>
<feOffset dx="0.800612" dy="0.160122"/>
<feGaussianBlur stdDeviation="1.20092"/>
<feColorMatrix type="matrix" values="0 0 0 0 0.501961 0 0 0 0 0.501961 0 0 0 0 0.501961 0 0 0 0.302 0"/>
<feBlend mode="normal" in2="BackgroundImageFix" result="effect1_dropShadow_19_133"/>
<feBlend mode="normal" in="SourceGraphic" in2="effect1_dropShadow_19_133" result="shape"/>
</filter>
<linearGradient id="paint0_linear_19_133" x1="47.6133" y1="47.1772" x2="43.0252" y2="45.2935" gradientUnits="userSpaceOnUse">
<stop stop-color="#FFD100"/>
<stop offset="1" stop-color="#FFF0AA"/>
</linearGradient>
<linearGradient id="paint1_linear_19_133" x1="27.6963" y1="13.6079" x2="37.8941" y2="46.674" gradientUnits="userSpaceOnUse">
<stop stop-color="white" stop-opacity="0.596"/>
<stop offset="1" stop-color="#F7F7F7" stop-opacity="0.204"/>
</linearGradient>
</defs>
</svg>
