<svg width="68" height="51" viewBox="0 0 68 51" fill="none" xmlns="http://www.w3.org/2000/svg">
<g filter="url(#filter0_f_19_1608)">
<path d="M20.9378 36.8693C21.3719 36.8742 25.7713 43.0076 25.7713 45.3914C25.7713 46.536 25.262 47.6338 24.3556 48.4432C23.4491 49.2526 22.2197 49.7073 20.9378 49.7073C19.6558 49.7073 18.4264 49.2526 17.52 48.4432C16.6135 47.6338 16.1042 46.536 16.1042 45.3914C16.1042 43.0076 20.504 36.865 20.9378 36.8693Z" fill="#42A0F0"/>
<path d="M17.2522 47.0048C17.7352 47.1366 18.349 46.5942 18.6233 45.7933C18.8975 44.9923 18.7283 44.2362 18.2453 44.1043C17.7624 43.9725 17.1485 44.5149 16.8743 45.3158C16.6001 46.1168 16.7693 46.8729 17.2522 47.0048Z" fill="white"/>
<path d="M47.523 36.8693C47.9571 36.8742 52.3565 43.0076 52.3565 45.3914C52.3565 46.536 51.8472 47.6338 50.9408 48.4432C50.0343 49.2526 48.8049 49.7073 47.523 49.7073C46.241 49.7073 45.0116 49.2526 44.1052 48.4432C43.1987 47.6338 42.6895 46.536 42.6895 45.3914C42.6895 43.0076 47.0892 36.865 47.523 36.8693Z" fill="#42A0F0"/>
<path d="M43.8377 47.0048C44.3207 47.1366 44.9345 46.5942 45.2087 45.7933C45.483 44.9923 45.3138 44.2362 44.8308 44.1043C44.3478 43.9725 43.734 44.5149 43.4598 45.3158C43.1855 46.1168 43.3547 46.8729 43.8377 47.0048Z" fill="white"/>
<path d="M33.2276 24.0398C33.6617 24.0447 38.0611 30.1781 38.0611 32.5619C38.0611 33.7066 37.5518 34.8044 36.6454 35.6138C35.7389 36.4232 34.5095 36.8779 33.2276 36.8779C31.9456 36.8779 30.7162 36.4232 29.8097 35.6138C28.9033 34.8044 28.394 33.7066 28.394 32.5619C28.394 30.1781 32.7938 24.0356 33.2276 24.0398Z" fill="#42A0F0"/>
<path d="M29.5418 34.1752C30.0248 34.307 30.6386 33.7646 30.9128 32.9637C31.1871 32.1628 31.0179 31.4066 30.5349 31.2747C30.0519 31.1429 29.4381 31.6853 29.1639 32.4862C28.8896 33.2872 29.0588 34.0433 29.5418 34.1752Z" fill="white"/>
</g>
<g filter="url(#filter1_df_19_1608)">
<g filter="url(#filter2_d_19_1608)">
<path d="M42.6878 37.9933C42.3215 38.0196 41.9516 38.0328 41.578 38.0331H15.5196C13.7259 38.039 11.9486 37.7287 10.2895 37.12C8.6304 36.5112 7.12226 35.6159 5.85155 34.4855C4.58085 33.3551 3.5726 32.0118 2.88463 30.5326C2.19667 29.0535 1.84253 27.4676 1.84253 25.8659C1.84253 24.2643 2.19667 22.6784 2.88463 21.1993C3.5726 19.7201 4.58085 18.3768 5.85155 17.2464C7.12226 16.116 8.6304 15.2207 10.2895 14.6119C11.9486 14.0031 13.7259 13.6928 15.5196 13.6988H25.2355C28.3855 7.51055 35.6402 3.1792 44.086 3.1792C55.4222 3.1792 64.6121 10.9816 64.6121 20.6061C64.6121 30.2307 55.4222 38.0331 44.086 38.0331C43.6161 38.0331 43.1501 38.0198 42.6878 37.9933Z" fill="url(#paint0_linear_19_1608)"/>
<path d="M44.0867 37.8639C45.4672 37.8639 46.8468 37.7458 48.1872 37.5129C49.4933 37.286 50.7781 36.9474 52.0057 36.5066C53.2109 36.0738 54.3733 35.5381 55.4606 34.9145C56.5375 34.2968 57.5501 33.5875 58.4703 32.8062C59.3904 32.0251 60.2256 31.1656 60.9529 30.2517C61.6869 29.3292 62.3174 28.343 62.8267 27.3207C63.3453 26.2796 63.7437 25.1901 64.0106 24.0826C64.2845 22.9462 64.4234 21.7765 64.4234 20.6061C64.4234 19.4356 64.2845 18.266 64.0106 17.1296C63.7437 16.022 63.3453 14.9326 62.8267 13.8916C62.3174 12.8692 61.6869 11.8831 60.9529 10.9606C60.2256 10.0467 59.3904 9.18718 58.4703 8.40606C57.5501 7.62479 56.5375 6.91548 55.4606 6.29782C54.3733 5.67415 53.2109 5.13847 52.0057 4.70568C50.7781 4.26484 49.4933 3.92625 48.1872 3.69934C46.8468 3.46647 45.4672 3.34839 44.0867 3.34839C40.0373 3.34839 36.1265 4.35549 32.7772 6.26081C31.1627 7.17923 29.7119 8.28781 28.4651 9.55574C27.2104 10.8317 26.1821 12.2491 25.4086 13.7688L25.3581 13.868H25.2361H15.5203C13.7062 13.868 11.9466 14.1852 10.2901 14.8107C9.49401 15.1114 8.72611 15.4836 8.0078 15.9169C7.29626 16.3462 6.62716 16.8391 6.01907 17.3821C5.41098 17.9251 4.85891 18.5225 4.3782 19.1579C3.89292 19.7993 3.47612 20.4849 3.13938 21.1958C2.43877 22.6749 2.08353 24.2461 2.08353 25.8659C2.08353 27.4857 2.43877 29.0569 3.13938 30.536C3.47612 31.2469 3.89292 31.9326 4.3782 32.574C4.85891 33.2093 5.41098 33.8068 6.01907 34.3498C6.62716 34.8927 7.29626 35.3857 8.0078 35.8149C8.72611 36.2482 9.49401 36.6204 10.2901 36.9211C11.9466 37.5467 13.7062 37.8639 15.5203 37.8639H41.5788C41.9431 37.8639 42.3114 37.8507 42.6734 37.8246L42.687 37.8237L42.7007 37.8244C43.1591 37.8506 43.6254 37.8639 44.0867 37.8639ZM44.0867 38.0331C43.6169 38.0331 43.1506 38.0197 42.6886 37.9933C42.3228 38.0196 41.9522 38.0331 41.5788 38.0331H15.5203C7.99474 38.0331 1.89404 32.5856 1.89404 25.8659C1.89404 19.1462 7.99474 13.6988 15.5203 13.6988H25.2361C28.3862 7.50978 35.6405 3.1792 44.0867 3.1792C55.4229 3.1792 64.6129 10.9816 64.6129 20.6061C64.6129 30.2307 55.4229 38.0331 44.0867 38.0331Z" fill="white" fill-opacity="0.5"/>
</g>
</g>
<defs>
<filter id="filter0_f_19_1608" x="15.784" y="23.7196" width="36.8927" height="26.308" filterUnits="userSpaceOnUse" color-interpolation-filters="sRGB">
<feFlood flood-opacity="0" result="BackgroundImageFix"/>
<feBlend mode="normal" in="SourceGraphic" in2="BackgroundImageFix" result="shape"/>
<feGaussianBlur stdDeviation="0.160122" result="effect1_foregroundBlur_19_1608"/>
</filter>
<filter id="filter1_df_19_1608" x="0.241306" y="0.937487" width="67.5739" height="39.6577" filterUnits="userSpaceOnUse" color-interpolation-filters="sRGB">
<feFlood flood-opacity="0" result="BackgroundImageFix"/>
<feColorMatrix in="SourceAlpha" type="matrix" values="0 0 0 0 0 0 0 0 0 0 0 0 0 0 0 0 0 0 127 0" result="hardAlpha"/>
<feOffset dx="0.800612" dy="0.160122"/>
<feGaussianBlur stdDeviation="1.20092"/>
<feColorMatrix type="matrix" values="0 0 0 0 0.258824 0 0 0 0 0.627451 0 0 0 0 0.941176 0 0 0 0.596 0"/>
<feBlend mode="normal" in2="BackgroundImageFix" result="effect1_dropShadow_19_1608"/>
<feBlend mode="normal" in="SourceGraphic" in2="effect1_dropShadow_19_1608" result="shape"/>
<feGaussianBlur stdDeviation="0.160122" result="effect2_foregroundBlur_19_1608"/>
</filter>
<filter id="filter2_d_19_1608" x="0.241306" y="0.937487" width="67.5739" height="39.6577" filterUnits="userSpaceOnUse" color-interpolation-filters="sRGB">
<feFlood flood-opacity="0" result="BackgroundImageFix"/>
<feColorMatrix in="SourceAlpha" type="matrix" values="0 0 0 0 0 0 0 0 0 0 0 0 0 0 0 0 0 0 127 0" result="hardAlpha"/>
<feOffset dx="0.800612" dy="0.160122"/>
<feGaussianBlur stdDeviation="1.20092"/>
<feColorMatrix type="matrix" values="0 0 0 0 0.501961 0 0 0 0 0.501961 0 0 0 0 0.501961 0 0 0 0.302 0"/>
<feBlend mode="normal" in2="BackgroundImageFix" result="effect1_dropShadow_19_1608"/>
<feBlend mode="normal" in="SourceGraphic" in2="effect1_dropShadow_19_1608" result="shape"/>
</filter>
<linearGradient id="paint0_linear_19_1608" x1="27.2642" y1="7.5708" x2="37.462" y2="40.6369" gradientUnits="userSpaceOnUse">
<stop stop-color="white" stop-opacity="0.596"/>
<stop offset="1" stop-color="#F7F7F7" stop-opacity="0.204"/>
</linearGradient>
</defs>
</svg>
