<svg width="25" height="25" viewBox="0 0 25 25" fill="none" xmlns="http://www.w3.org/2000/svg">
<path d="M5.5 9.56109C5.5 7.64824 5.5 6.69181 5.74472 5.91777C6.23931 4.35341 7.43273 3.12692 8.95492 2.61862C9.70808 2.36713 10.6387 2.36713 12.5 2.36713C14.3613 2.36713 15.2919 2.36713 16.0451 2.61862C17.5673 3.12692 18.7607 4.35341 19.2553 5.91777C19.5 6.69181 19.5 7.64824 19.5 9.56109V22.9213L17.7063 21.3413C15.8585 19.7135 14.9345 18.8996 13.8984 18.5894C12.9851 18.316 12.0149 18.316 11.1016 18.5894C10.0655 18.8996 9.14154 19.7135 7.29367 21.3413L5.5 22.9213V9.56109Z" stroke="#7C807F" stroke-width="2" stroke-linecap="round" stroke-linejoin="round"/>
</svg>
