<svg width="25" height="25" viewBox="0 0 25 25" fill="none" xmlns="http://www.w3.org/2000/svg">
<path d="M8.5 2.60651V4.70577M8.5 6.55291V4.70577M16.5 2.60651V4.70577M16.5 6.55291V4.70577M21.4597 10.4993C21.5 11.2766 21.5 12.2312 21.5 13.4591C21.5 16.2173 21.5 17.5964 21.0433 18.6843C20.4343 20.1347 19.2663 21.2871 17.7961 21.8879C16.6935 22.3385 15.2956 22.3385 12.5 22.3385C9.70435 22.3385 8.30653 22.3385 7.2039 21.8879C5.73373 21.2871 4.56569 20.1347 3.95672 18.6843C3.5 17.5964 3.5 16.2173 3.5 13.4591C3.5 12.2312 3.5 11.2766 3.5403 10.4993M21.4597 10.4993C21.4095 9.53071 21.2967 8.83752 21.0433 8.23398C20.4343 6.78351 19.2663 5.63112 17.7961 5.03031C17.4146 4.87441 16.9978 4.77245 16.5 4.70577M21.4597 10.4993L3.5403 10.4993M3.5403 10.4993C3.59052 9.53071 3.70333 8.83752 3.95672 8.23398C4.56569 6.78351 5.73373 5.63112 7.2039 5.03031C7.58538 4.87441 8.00219 4.77245 8.5 4.70577M8.5 4.70577C9.44106 4.57971 10.6716 4.57971 12.5 4.57971C14.3284 4.57971 15.5589 4.57971 16.5 4.70577" stroke="#7C807F" stroke-width="2" stroke-linecap="round" stroke-linejoin="round"/>
</svg>
