<svg width="25" height="25" viewBox="0 0 25 25" fill="none" xmlns="http://www.w3.org/2000/svg">
<path d="M8.28731 4.69125C10.2473 3.70202 12.5007 3.43495 14.6425 3.93804C16.2136 4.30711 17.6491 5.07289 18.8148 6.14738L17.0981 7.12525C16.8565 7.26289 16.7123 7.52147 16.7237 7.79651C16.7352 8.07154 16.9005 8.31756 17.1528 8.43513L21.2778 10.3576C21.5002 10.4612 21.76 10.4507 21.9731 10.3293C22.1862 10.208 22.3253 9.99124 22.3456 9.74934L22.7206 5.26363C22.7435 4.98929 22.6102 4.72507 22.3745 4.57775C22.1388 4.43043 21.8397 4.42436 21.5981 4.56199L20.1642 5.37878C18.7553 3.96557 16.9648 2.96229 14.9899 2.49838C12.5008 1.9137 9.88204 2.22408 7.60417 3.37373C5.3263 4.52338 3.53874 6.4369 2.56278 8.77038C1.58682 11.1039 1.48645 13.7043 2.27972 16.1042C3.07299 18.5041 4.70788 20.5462 6.89053 21.8635C9.07319 23.1807 11.6605 23.6867 14.1874 23.2904C16.7143 22.8942 19.0151 21.6217 20.6762 19.7018C22.3374 17.7818 23.25 15.3403 23.25 12.8159C23.25 12.4073 22.9142 12.076 22.5 12.076C22.0858 12.076 21.75 12.4073 21.75 12.8159C21.75 14.988 20.9647 17.0889 19.5354 18.741C18.106 20.393 16.1262 21.4879 13.9519 21.8289C11.7776 22.1698 9.55135 21.7344 7.67325 20.601C5.79515 19.4676 4.38839 17.7104 3.70581 15.6454C3.02322 13.5803 3.10959 11.3427 3.94937 9.33487C4.78915 7.327 6.32728 5.68048 8.28731 4.69125Z" fill="#7C807F"/>
<path d="M12.5 7.14297C12.9142 7.14297 13.25 7.47425 13.25 7.88292V12.5094L17.0303 16.2391C17.3232 16.5281 17.3232 16.9966 17.0303 17.2855C16.7374 17.5745 16.2626 17.5745 15.9697 17.2855L11.9697 13.3391C11.8978 13.2682 11.8435 13.1864 11.8069 13.0992C11.7702 13.0119 11.75 12.9162 11.75 12.8159V7.88292C11.75 7.47425 12.0858 7.14297 12.5 7.14297Z" fill="#7C807F"/>
</svg>
