<svg width="37" height="30" viewBox="0 0 37 30" fill="none" xmlns="http://www.w3.org/2000/svg">
<g filter="url(#filter0_d_64_611)">
<g clip-path="url(#clip0_64_611)">
<path fill-rule="evenodd" clip-rule="evenodd" d="M19.5 3.83429V0.83429H17.5V3.83429H19.5ZM13.866 4.8081L12.366 2.21002L10.6339 3.21002L12.1339 5.8081L13.866 4.8081ZM18.5 21.8343C14.634 21.8343 11.5 18.7003 11.5 14.8343C11.5 10.9683 14.634 7.83429 18.5 7.83429C22.366 7.83429 25.5 10.9683 25.5 14.8343C25.5 18.7003 22.366 21.8343 18.5 21.8343ZM18.5 23.8343C13.5294 23.8343 9.5 19.8049 9.5 14.8343C9.5 9.86373 13.5294 5.83429 18.5 5.83429C23.4706 5.83429 27.5 9.86373 27.5 14.8343C27.5 19.8049 23.4706 23.8343 18.5 23.8343ZM7.5 13.8343H4.5V15.8343H7.5V13.8343ZM6.87567 6.96826L9.47375 8.46826L8.47375 10.2003L5.87567 8.70031L6.87567 6.96826ZM26.366 3.21002L24.866 5.8081L23.134 4.8081L24.634 2.21002L26.366 3.21002ZM28.5263 10.2003L31.1243 8.70031L30.1243 6.96826L27.5263 8.46826L28.5263 10.2003ZM19.5 25.8343V28.8343H17.5V25.8343H19.5ZM29.5 13.8343H32.5V15.8343H29.5V13.8343ZM31.1244 20.9683L28.5263 19.4683L27.5263 21.2003L30.1244 22.7003L31.1244 20.9683ZM24.866 23.8607L26.366 26.4587L24.6339 27.4587L23.1339 24.8607L24.866 23.8607ZM12.366 27.4587L13.866 24.8607L12.134 23.8607L10.634 26.4587L12.366 27.4587ZM9.47369 21.2003L6.87562 22.7003L5.87562 20.9683L8.47369 19.4683L9.47369 21.2003Z" fill="#7C807F"/>
</g>
</g>
<defs>
<filter id="filter0_d_64_611" x="0" y="0.0352783" width="37" height="29.598" filterUnits="userSpaceOnUse" color-interpolation-filters="sRGB">
<feFlood flood-opacity="0" result="BackgroundImageFix"/>
<feColorMatrix in="SourceAlpha" type="matrix" values="0 0 0 0 0 0 0 0 0 0 0 0 0 0 0 0 0 0 127 0" result="hardAlpha"/>
<feOffset/>
<feComposite in2="hardAlpha" operator="out"/>
<feColorMatrix type="matrix" values="0 0 0 0 0 0 0 0 0 0 0 0 0 0 0 0 0 0 1 0"/>
<feBlend mode="normal" in2="BackgroundImageFix" result="effect1_dropShadow_64_611"/>
<feBlend mode="normal" in="SourceGraphic" in2="effect1_dropShadow_64_611" result="shape"/>
</filter>
<clipPath id="clip0_64_611">
<rect width="37" height="29.598" rx="14.799" transform="matrix(-1 0 0 1 37 0.0352783)" fill="white"/>
</clipPath>
</defs>
</svg>
