<svg width="25" height="24" viewBox="0 0 25 24" fill="none" xmlns="http://www.w3.org/2000/svg">
<path fill-rule="evenodd" clip-rule="evenodd" d="M12.5 6.16626C10.4289 6.16626 8.75 7.82269 8.75 9.86601C8.75 11.9093 10.4289 13.5658 12.5 13.5658C14.5711 13.5658 16.25 11.9093 16.25 9.86601C16.25 7.82269 14.5711 6.16626 12.5 6.16626ZM10.25 9.86601C10.25 8.64002 11.2574 7.64616 12.5 7.64616C13.7426 7.64616 14.75 8.64002 14.75 9.86601C14.75 11.092 13.7426 12.0859 12.5 12.0859C11.2574 12.0859 10.25 11.092 10.25 9.86601Z" fill="#7C807F"/>
<path fill-rule="evenodd" clip-rule="evenodd" d="M12.5 1.23325C7.66751 1.23325 3.75 5.09827 3.75 9.86601C3.75 14.045 5.60712 17.1776 7.57785 19.2515C8.56209 20.2873 9.58151 21.0671 10.4295 21.5921C10.8531 21.8543 11.2419 22.0578 11.5698 22.1987C11.861 22.3238 12.2055 22.4452 12.5 22.4452C12.7945 22.4452 13.139 22.3238 13.4302 22.1987C13.7581 22.0578 14.1469 21.8543 14.5705 21.5921C15.4185 21.0671 16.4379 20.2873 17.4222 19.2515C19.3929 17.1776 21.25 14.045 21.25 9.86601C21.25 5.09827 17.3325 1.23325 12.5 1.23325ZM5.25 9.86601C5.25 5.9156 8.49594 2.71315 12.5 2.71315C16.5041 2.71315 19.75 5.9156 19.75 9.86601C19.75 13.5798 18.1071 16.3669 16.3278 18.2393C15.4371 19.1767 14.519 19.8768 13.7733 20.3385C13.4 20.5696 13.0778 20.736 12.8315 20.8418C12.6451 20.9219 12.5411 20.95 12.5046 20.9599L12.5 20.9612L12.4954 20.9599C12.4589 20.95 12.3549 20.9219 12.1685 20.8418C11.9222 20.736 11.6 20.5696 11.2267 20.3385C10.481 19.8768 9.56291 19.1767 8.67215 18.2393C6.89288 16.3669 5.25 13.5798 5.25 9.86601Z" fill="#7C807F"/>
</svg>
