<svg width="25" height="25" viewBox="0 0 25 25" fill="none" xmlns="http://www.w3.org/2000/svg">
<path d="M9.5 4.53616V17.362M15.5 7.03017V19.856M10.9311 5.00923L14.0836 6.56436C14.5939 6.8161 14.8491 6.94198 15.1163 6.99351C15.3697 7.04239 15.6303 7.04239 15.8837 6.99351C16.1509 6.94198 16.4061 6.8161 16.9164 6.56436C18.4073 5.82892 19.1527 5.46119 19.7593 5.53943C20.3278 5.61276 20.8371 5.9233 21.1578 6.3922C21.5 6.89246 21.5 7.71472 21.5 9.35922V15.1779C21.5 15.8862 21.5 16.2403 21.3907 16.553C21.294 16.8295 21.1363 17.0813 20.9288 17.2903C20.6943 17.5266 20.3732 17.6849 19.7311 18.0017L16.9311 19.3829C16.4064 19.6418 16.144 19.7712 15.8688 19.8221C15.6251 19.8673 15.3749 19.8673 15.1312 19.8221C14.856 19.7712 14.5936 19.6418 14.0689 19.3829L10.9164 17.8278C10.4061 17.5761 10.1509 17.4502 9.88374 17.3987C9.63031 17.3498 9.36969 17.3498 9.11626 17.3987C8.84908 17.4502 8.59391 17.5761 8.08359 17.8278C6.59273 18.5632 5.84729 18.931 5.24074 18.8527C4.67221 18.7794 4.16292 18.4689 3.84218 18C3.5 17.4997 3.5 16.6774 3.5 15.0329V9.21429C3.5 8.50599 3.5 8.15184 3.60931 7.83918C3.70597 7.56268 3.86373 7.31085 4.07116 7.1019C4.30573 6.86561 4.62679 6.70723 5.26892 6.39047L8.06892 5.00923C8.59365 4.75038 8.85601 4.62095 9.1312 4.57002C9.37494 4.5249 9.62506 4.5249 9.8688 4.57002C10.144 4.62095 10.4064 4.75038 10.9311 5.00923Z" stroke="#7C807F" stroke-width="2" stroke-linecap="round" stroke-linejoin="round"/>
</svg>
