<svg width="24" height="24" viewBox="0 0 24 24" fill="none" xmlns="http://www.w3.org/2000/svg">
<path d="M9.00105 18.5416C7.68559 18.4787 6.37164 18.3745 5.06119 18.2289C4.00101 18.1111 3.31915 17.0457 3.65647 16.0338C3.82751 15.5207 3.99974 15.016 4.04503 14.4725L4.41975 9.97582C4.74833 6.03286 8.04445 3 12.0011 3C15.9577 3 19.2538 6.03286 19.5824 9.97582L19.9573 14.475C20.0026 15.0182 20.1746 15.5228 20.345 16.0357C20.6808 17.0472 19.9993 18.1109 18.9401 18.2287C17.6299 18.3743 16.3162 18.4786 15.001 18.5415M9.00105 18.5416V19C9.00105 20.6569 10.3442 22 12.001 22C13.6579 22 15.001 20.6569 15.001 19V18.5415M9.00105 18.5416C10.9999 18.6371 13.0022 18.6371 15.001 18.5415" stroke="#D9D9D9" stroke-width="2" stroke-linecap="round" stroke-linejoin="round"/>
</svg>
