<svg width="24" height="25" viewBox="0 0 24 25" fill="none" xmlns="http://www.w3.org/2000/svg">
<path fill-rule="evenodd" clip-rule="evenodd" d="M8.79308 4.2216C9.76105 1.10069 14.2392 1.10069 15.2072 4.2216C15.492 5.13983 16.448 5.68442 17.3964 5.46864C20.6199 4.73524 22.859 8.56145 20.6035 10.949C19.9398 11.6514 19.9398 12.7406 20.6035 13.443C22.859 15.8305 20.6199 19.6568 17.3964 18.9234C16.448 18.7076 15.492 19.2522 15.2072 20.1704C14.2392 23.2913 9.76105 23.2913 8.79308 20.1704C8.50828 19.2522 7.55222 18.7076 6.60381 18.9234C3.38034 19.6568 1.14127 15.8305 3.39677 13.443C4.06039 12.7406 4.06039 11.6514 3.39677 10.949C1.14127 8.56145 3.38034 4.73524 6.60381 5.46864C7.55222 5.68442 8.50828 5.13983 8.79308 4.2216ZM13.7728 4.65463C13.2378 2.92955 10.7625 2.92955 10.2274 4.65463C9.71219 6.31584 7.98255 7.30106 6.26675 6.91069C4.48497 6.50531 3.24733 8.62024 4.49406 9.93994C5.69463 11.2108 5.69463 13.1812 4.49406 14.4521C3.24733 15.7718 4.48497 17.8867 6.26675 17.4813C7.98255 17.0909 9.71219 18.0762 10.2274 19.7374C10.7625 21.4624 13.2378 21.4624 13.7728 19.7374C14.288 18.0762 16.0177 17.0909 17.7335 17.4813C19.5153 17.8867 20.7529 15.7718 19.5062 14.4521C18.3056 13.1812 18.3056 11.2108 19.5062 9.93994C20.7529 8.62024 19.5153 6.50531 17.7335 6.91069C16.0177 7.30106 14.288 6.31584 13.7728 4.65463Z" fill="#7C807F"/>
<path fill-rule="evenodd" clip-rule="evenodd" d="M12 9.97618C10.7574 9.97618 9.75 10.97 9.75 12.196C9.75 13.422 10.7574 14.4159 12 14.4159C13.2426 14.4159 14.25 13.422 14.25 12.196C14.25 10.97 13.2426 9.97618 12 9.97618ZM8.25 12.196C8.25 10.1527 9.92893 8.49628 12 8.49628C14.0711 8.49628 15.75 10.1527 15.75 12.196C15.75 14.2393 14.0711 15.8958 12 15.8958C9.92893 15.8958 8.25 14.2393 8.25 12.196Z" fill="#7C807F"/>
</svg>
