<svg width="22" height="20" viewBox="0 0 22 20" fill="none" xmlns="http://www.w3.org/2000/svg">
<path fill-rule="evenodd" clip-rule="evenodd" d="M8.75024 1C8.75024 0.585786 8.41446 0.25 8.00024 0.25C7.58603 0.25 7.25024 0.585786 7.25024 1V2.25L1.00024 2.25C0.586031 2.25 0.250244 2.58579 0.250244 3C0.250244 3.41421 0.586031 3.75 1.00024 3.75H8.00024L11.4891 3.75C10.903 5.40221 9.82656 7.26587 8.42929 9.09466C8.27553 9.2959 8.11822 9.49628 7.95765 9.69545C7.92297 9.65169 7.8885 9.60783 7.85426 9.56391C6.84017 8.26296 6.06642 6.95531 5.67106 6.16459C5.48582 5.79411 5.03532 5.64394 4.66483 5.82918C4.29435 6.01442 4.14418 6.46493 4.32942 6.83541C4.7674 7.71136 5.59365 9.1037 6.67122 10.4861C6.76822 10.6105 6.8676 10.7353 6.96927 10.8601C5.6207 12.371 4.10606 13.7684 2.55912 14.8934C2.22413 15.1371 2.15006 15.6061 2.39369 15.9411C2.63732 16.2761 3.10638 16.3502 3.44137 16.1066C5.0341 14.9482 6.58308 13.5272 7.96719 11.9939C8.76825 12.8323 9.66626 13.6015 10.6281 14.1512C10.9878 14.3567 11.4459 14.2317 11.6514 13.8721C11.8569 13.5125 11.732 13.0543 11.3723 12.8488C10.5265 12.3655 9.70553 11.6557 8.95109 10.8512C9.18079 10.5713 9.40439 10.2891 9.6212 10.0053C11.2022 7.93612 12.4558 5.74175 13.0691 3.75L16.0002 3.75C16.4145 3.75 16.7502 3.41422 16.7502 3C16.7502 2.58579 16.4145 2.25 16.0002 2.25L12.516 2.25C12.5051 2.24976 12.4942 2.24976 12.4834 2.25L8.75024 2.25V1ZM17.1842 8.69223C17.0631 8.42309 16.7954 8.25 16.5002 8.25C16.2051 8.25 15.9374 8.42309 15.8163 8.69223L11.3163 18.6922C11.1463 19.07 11.3147 19.514 11.6925 19.6839C12.0702 19.8539 12.5142 19.6855 12.6842 19.3078L14.1215 16.1136H18.8789L20.3163 19.3078C20.4863 19.6855 20.9303 19.8539 21.308 19.6839C21.6857 19.514 21.8542 19.07 21.6842 18.6922L17.1842 8.69223ZM16.5002 10.8276L18.2039 14.6136H14.7965L16.5002 10.8276Z" fill="#D9D9D9"/>
</svg>
