<svg width="24" height="24" viewBox="0 0 24 24" fill="none" xmlns="http://www.w3.org/2000/svg">
<path fill-rule="evenodd" clip-rule="evenodd" d="M12 3.03198C9.65279 3.03198 7.75 4.82882 7.75 7.04533C7.75 9.26184 9.65279 11.0587 12 11.0587C14.3472 11.0587 16.25 9.26184 16.25 7.04533C16.25 4.82882 14.3472 3.03198 12 3.03198ZM6.25 7.04533C6.25 4.04652 8.82436 1.6155 12 1.6155C15.1756 1.6155 17.75 4.04652 17.75 7.04533C17.75 10.0441 15.1756 12.4752 12 12.4752C8.82436 12.4752 6.25 10.0441 6.25 7.04533Z" fill="#ECECEC"/>
<path fill-rule="evenodd" clip-rule="evenodd" d="M8.26978 13.8916C8.28225 13.8916 8.2949 13.8916 8.30772 13.8916L15.7299 13.8916C16.0105 13.8916 16.2033 13.8916 16.3854 13.9083C17.6185 14.0218 18.7127 14.7031 19.3089 15.7287C19.3969 15.8802 19.4729 16.0476 19.5834 16.2911L19.5983 16.3241C19.6101 16.35 19.6217 16.3755 19.6331 16.4006C19.864 16.9092 20.0186 17.2496 20.0925 17.5345C20.6119 19.5365 19.218 21.5326 17.0648 21.8705C16.7583 21.9185 16.3661 21.9185 15.7801 21.9184C15.7512 21.9183 15.7218 21.9183 15.6919 21.9183H8.30772C8.27784 21.9183 8.24845 21.9183 8.21952 21.9184C7.63355 21.9185 7.24133 21.9185 6.93483 21.8705C4.78167 21.5326 3.38779 19.5365 3.90716 17.5345C3.98109 17.2496 4.13566 16.9092 4.3666 16.4006C4.378 16.3755 4.38958 16.35 4.40135 16.3241C4.40641 16.3129 4.41138 16.3019 4.4163 16.2911C4.52679 16.0476 4.60274 15.8802 4.69078 15.7287C5.28699 14.7031 6.38115 14.0218 7.61425 13.9083C7.79633 13.8916 7.98921 13.8916 8.26978 13.8916ZM8.30772 15.3081C7.975 15.3081 7.85992 15.3089 7.75976 15.3181C7.0199 15.3862 6.3634 15.795 6.00568 16.4104C5.95725 16.4937 5.91114 16.5932 5.78007 16.882C5.50204 17.4946 5.40429 17.7166 5.36407 17.8716C5.05246 19.0727 5.88878 20.2704 7.18068 20.4731C7.3474 20.4993 7.60191 20.5019 8.30772 20.5019H15.6919C16.3978 20.5019 16.6523 20.4993 16.819 20.4731C18.1109 20.2704 18.9472 19.0727 18.6356 17.8716C18.5954 17.7166 18.4976 17.4946 18.2196 16.882C18.0885 16.5932 18.0424 16.4937 17.994 16.4104C17.6363 15.795 16.9798 15.3862 16.2399 15.3181C16.1397 15.3089 16.0247 15.3081 15.6919 15.3081H8.30772Z" fill="#ECECEC"/>
</svg>
