<svg width="24" height="25" viewBox="0 0 24 25" fill="none" xmlns="http://www.w3.org/2000/svg">
<path fill-rule="evenodd" clip-rule="evenodd" d="M12 3.39158C9.65279 3.39158 7.75 5.26888 7.75 7.58464C7.75 9.9004 9.65279 11.7777 12 11.7777C14.3472 11.7777 16.25 9.9004 16.25 7.58464C16.25 5.26888 14.3472 3.39158 12 3.39158ZM6.25 7.58464C6.25 4.45155 8.82436 1.91168 12 1.91168C15.1756 1.91168 17.75 4.45155 17.75 7.58464C17.75 10.7177 15.1756 13.2576 12 13.2576C8.82436 13.2576 6.25 10.7177 6.25 7.58464Z" fill="#7C807F"/>
<path fill-rule="evenodd" clip-rule="evenodd" d="M8.27003 14.7375C8.2825 14.7375 8.29514 14.7375 8.30796 14.7375L15.7301 14.7375C16.0107 14.7375 16.2036 14.7374 16.3857 14.7549C17.6188 14.8735 18.7129 15.5853 19.3091 16.6568C19.3972 16.815 19.4731 16.99 19.5836 17.2444L19.5986 17.2788C19.6103 17.3059 19.6219 17.3326 19.6333 17.3588C19.8643 17.8902 20.0188 18.2458 20.0928 18.5435C20.6121 20.6351 19.2182 22.7206 17.0651 23.0736C16.7586 23.1238 16.3664 23.1237 15.7804 23.1236C15.7515 23.1236 15.7221 23.1236 15.6922 23.1236H8.30796C8.27808 23.1236 8.24869 23.1236 8.21977 23.1236C7.63379 23.1237 7.24157 23.1238 6.93508 23.0736C4.78191 22.7206 3.38804 20.6351 3.9074 18.5435C3.98133 18.2458 4.13591 17.8901 4.36684 17.3588C4.37824 17.3326 4.38983 17.3059 4.4016 17.2788C4.40665 17.2672 4.41163 17.2557 4.41654 17.2444C4.52703 16.99 4.60299 16.8151 4.69102 16.6568C5.28724 15.5853 6.38139 14.8735 7.61449 14.7549C7.79657 14.7374 7.98945 14.7375 8.27003 14.7375ZM8.30796 16.2174C7.97524 16.2174 7.86016 16.2182 7.76 16.2279C7.02014 16.299 6.36365 16.7261 6.00592 17.369C5.95749 17.456 5.91138 17.5601 5.78032 17.8618C5.50228 18.5018 5.40453 18.7337 5.36432 18.8956C5.0527 20.1506 5.88902 21.4019 7.18092 21.6137C7.34765 21.641 7.60216 21.6437 8.30796 21.6437H15.6922C16.398 21.6437 16.6525 21.641 16.8192 21.6137C18.1111 21.4019 18.9475 20.1506 18.6358 18.8956C18.5956 18.7337 18.4979 18.5018 18.2198 17.8618C18.0888 17.5601 18.0427 17.456 17.9942 17.369C17.6365 16.7261 16.98 16.299 16.2402 16.2279C16.14 16.2182 16.0249 16.2174 15.6922 16.2174H8.30796Z" fill="#7C807F"/>
</svg>
