<svg width="25" height="25" viewBox="0 0 25 25" fill="none" xmlns="http://www.w3.org/2000/svg">
<path d="M12.5001 18.4142C13.2144 18.4142 13.8704 18.6604 14.3856 19.0716L12.5001 21.374L10.6145 19.0716C11.1297 18.6604 11.7857 18.4142 12.5001 18.4142ZM3.30766 2.03003L20.9853 19.4708L19.5711 20.8661L14.3913 15.7544C13.7967 15.5597 13.1609 15.4544 12.5001 15.4544C11.0719 15.4544 9.76024 15.9466 8.72998 16.7686L7.47363 15.2333C8.74961 14.2153 10.3493 13.5767 12.0964 13.491L9.50025 10.9298C8.05273 11.3336 6.72651 12.0226 5.5878 12.9312L4.33099 11.3962C5.39946 10.5437 6.60763 9.85471 7.91633 9.36812L5.63168 7.11267C4.48878 7.64941 3.42058 8.31595 2.44666 9.09296L1.18945 7.55826C2.10358 6.8289 3.09156 6.18605 4.14058 5.64233L1.89345 3.4253L3.30766 2.03003ZM15.0004 10.8029L12.7165 8.55047L12.5 8.54808C15.5947 8.54808 18.4369 9.61501 20.6693 11.3963L19.4123 12.9312C18.1438 11.9191 16.6427 11.1795 15.0004 10.8029ZM12.5001 3.61511C16.7849 3.61511 20.72 5.0922 23.8109 7.55843L22.5534 9.09296C19.8061 6.90106 16.3085 5.58831 12.5001 5.58831C11.622 5.58831 10.7604 5.6581 9.92075 5.79235L8.22455 4.11911C9.59498 3.78972 11.0268 3.61511 12.5001 3.61511Z" fill="#7C807F"/>
</svg>
